<svg xmlns="http://www.w3.org/2000/svg" width="51.143" height="65.5" viewBox="0 0 51.143 65.5"><g transform="translate(-56.113 0.001)"><path d="M77.851,210.3a.959.959,0,0,0,.959-.959V195.546a.959.959,0,0,0-.959-.959H74.9a.959.959,0,1,0,0,1.919h1.989V209.34A.96.96,0,0,0,77.851,210.3Z" transform="translate(-15.549 -169.695)"/><path d="M359.024,211.8a.959.959,0,0,0,1.256-.514l5.405-12.88a.959.959,0,0,0-1.769-.743l-5.405,12.88a.96.96,0,0,0,.513,1.256Z" transform="translate(-263.647 -171.865)"/><path d="M338.376,196.122a3.368,3.368,0,1,0-3.348,3.735A3.561,3.561,0,0,0,338.376,196.122Zm-3.348,1.816a1.868,1.868,0,1,1,1.429-1.816A1.66,1.66,0,0,1,335.028,197.938Z" transform="translate(-240.314 -167.776)"/><path d="M392.092,268.693a3.757,3.757,0,1,0-3.348-3.735A3.561,3.561,0,0,0,392.092,268.693Zm0-5.551a1.868,1.868,0,1,1-1.429,1.816A1.66,1.66,0,0,1,392.092,263.142Z" transform="translate(-290.078 -227.806)"/><path d="M235.3,197.335v6.379a4.948,4.948,0,0,0,9.9,0v-6.379a4.948,4.948,0,0,0-9.9,0Zm7.978,0v6.379a3.029,3.029,0,0,1-6.059,0v-6.379a3.029,3.029,0,0,1,6.059,0Z" transform="translate(-156.267 -167.776)"/><path d="M135.536,197.335v6.379a4.948,4.948,0,0,0,9.9,0v-6.379a4.948,4.948,0,0,0-9.9,0Zm7.978,0v6.379a3.029,3.029,0,0,1-6.059,0v-6.379a3.029,3.029,0,0,1,6.059,0Z" transform="translate(-69.262 -167.776)"/><path d="M57.072,21.4H106.3a.959.959,0,0,0,0-1.919H100a5.036,5.036,0,0,0,1.1-3.142.959.959,0,0,0-1.919,0,3.146,3.146,0,0,1-3.143,3.142H91.593a9.167,9.167,0,0,0,.789-.7,8.763,8.763,0,0,0,2.609-6.544.96.96,0,0,0-.916-.916,8.763,8.763,0,0,0-6.544,2.609,9.1,9.1,0,0,0-1.477,1.933.96.96,0,0,0,1.668.949,7.182,7.182,0,0,1,1.166-1.525,6.941,6.941,0,0,1,4.157-2.02,6.942,6.942,0,0,1-2.02,4.157,7.065,7.065,0,0,1-5.034,2.057H82.644V15.722A10.712,10.712,0,0,0,85.72,8.137,10.677,10.677,0,0,0,82.332.25a.959.959,0,0,0-1.3,0,10.677,10.677,0,0,0-3.388,7.886c0,.374.019.751.056,1.121a.959.959,0,1,0,1.909-.191c-.031-.307-.046-.62-.046-.93a8.851,8.851,0,0,1,2.117-5.806A8.851,8.851,0,0,1,83.8,8.137a8.85,8.85,0,0,1-2.117,5.805,8.386,8.386,0,0,1-.852-1.173.959.959,0,1,0-1.644.99,10.231,10.231,0,0,0,1.536,1.965v3.76H78.516a8.941,8.941,0,0,0-9.135-8.16.96.96,0,0,0-.916.916,8.763,8.763,0,0,0,2.609,6.544,9.167,9.167,0,0,0,.789.7H67.327a3.146,3.146,0,0,1-3.143-3.142.959.959,0,1,0-1.919,0,5.035,5.035,0,0,0,1.1,3.142H57.072a.96.96,0,0,0,0,1.919ZM70.41,13.269a7.069,7.069,0,0,1,6.178,6.178,7.069,7.069,0,0,1-6.178-6.178Z"/><path d="M106.3,344.693H57.072a.959.959,0,1,0,0,1.919h6.292a5.036,5.036,0,0,0-1.1,3.142.959.959,0,0,0,1.919,0,3.146,3.146,0,0,1,3.143-3.142h4.448a9.165,9.165,0,0,0-.789.7,8.764,8.764,0,0,0-2.609,6.544.96.96,0,0,0,.916.916q.181.008.362.008a8.794,8.794,0,0,0,6.182-2.617,9.1,9.1,0,0,0,1.477-1.933.96.96,0,1,0-1.668-.949,7.184,7.184,0,0,1-1.166,1.525,6.942,6.942,0,0,1-4.157,2.02,6.942,6.942,0,0,1,2.02-4.157,7.08,7.08,0,0,1,5-2.057h3.379v3.762a10.88,10.88,0,0,0,.312,15.471.96.96,0,0,0,1.3,0,10.677,10.677,0,0,0,3.388-7.886c0-.374-.019-.751-.056-1.121a.959.959,0,1,0-1.909.191c.031.307.046.62.046.93a8.851,8.851,0,0,1-2.117,5.806,9.019,9.019,0,0,1,0-11.611,8.387,8.387,0,0,1,.852,1.174.959.959,0,1,0,1.644-.99,10.231,10.231,0,0,0-1.536-1.965v-3.76h2.209a8.952,8.952,0,0,0,8.773,8.168c.121,0,.242,0,.362-.008a.96.96,0,0,0,.916-.916,8.763,8.763,0,0,0-2.609-6.544,9.167,9.167,0,0,0-.789-.7h4.535a3.146,3.146,0,0,1,3.143,3.142.959.959,0,0,0,1.919,0,5.035,5.035,0,0,0-1.1-3.142H106.3a.96.96,0,0,0,0-1.919Zm-13.338,8.133a7.069,7.069,0,0,1-6.178-6.178,7.069,7.069,0,0,1,6.178,6.178Z" transform="translate(0 -300.598)"/></g></svg>