<svg xmlns="http://www.w3.org/2000/svg" xmlns:xlink="http://www.w3.org/1999/xlink" width="276.252" height="198.093" viewBox="0 0 276.252 198.093"><defs><style>.a{fill:#2039cc;}.a,.b,.e,.f{opacity:0.1;}.c{fill:#f5f5fb;}.d{fill:#f7f7fd;}.e,.g{fill:#111e6c;}.h{fill:url(#a);}.i{fill:#db8b8b;}.j{fill:#c17174;}.k{fill:#474463;}.l{fill:#ff748e;}.m{opacity:0.05;}.n{fill:#464353;}.o{fill:#3acc6c;opacity:0.7;}</style><linearGradient id="a" x1="16.614" y1="1" x2="16.614" gradientUnits="objectBoundingBox"><stop offset="0" stop-color="gray" stop-opacity="0.251"/><stop offset="0.54" stop-color="gray" stop-opacity="0.122"/><stop offset="1" stop-color="gray" stop-opacity="0.102"/></linearGradient></defs><g transform="translate(-12.24 -25.734)"><path class="a" d="M182.964,542.567c9.244-3.636,23.754-4.377,36.962-4.086,41.487.908,78.937,9.744,111.329,19.74,11.728,3.62,23.273,7.52,30.885,12.5,15.5,10.144,10.9,24.2-10.647,32.553-7.332,2.844-16.218,5.031-25.343,6.953a317.334,317.334,0,0,1-52.137,6.988,387.685,387.685,0,0,1-39.472-.678c-36.47-2.19-72.264-7-102.268-15.271-13.16-3.62-25.563-8.121-30.981-13.981s-1.954-13.279,11.484-16.748c5.561-1.433,12.2-2.081,18.708-2.688,9.575-.895,19.3-1.779,27.943-3.6,8.926-1.88,19.494-5.516,17.728-9.675C175.251,550.116,173.731,546.2,182.964,542.567Z" transform="translate(-82.8 -393.64)"/><path class="b" d="M572.819,92.318l-1.009,58.519s36.52,0,67.591,10.089l.606-59.133S590.171,89.9,572.819,92.318Z" transform="translate(-430.529 -65.42)"/><path class="c" d="M570.819,89.318l-1.009,58.519s36.52,0,67.591,10.089l.606-59.133S588.171,86.9,570.819,89.318Z" transform="translate(-429.059 -63.214)"/><path class="b" d="M330.328,92.149l1.009,58.519s-36.52,0-67.591,10.089l-.606-59.117S312.976,89.729,330.328,92.149Z" transform="translate(-203.592 -65.296)"/><path class="c" d="M332.328,89.149l1.009,58.519s-36.52,0-67.591,10.089l-.606-59.117S314.976,86.729,332.328,89.149Z" transform="translate(-205.063 -63.09)"/><path class="b" d="M862.65,160.51v57.907s11.916-1.411,36.923,29.458l2.222-57.907S875.765,161.924,862.65,160.51Z" transform="translate(-644.357 -115.794)"/><path class="c" d="M860.65,158.51v57.907s11.916-1.411,36.923,29.458l2.222-57.907S873.765,159.924,860.65,158.51Z" transform="translate(-642.887 -114.323)"/><path class="b" d="M123.621,167v57.91S111.706,223.5,86.7,254.368L84.48,196.461S110.506,168.417,123.621,167Z" transform="translate(-72.24 -120.565)"/><path class="c" d="M125.621,164v57.91S113.706,220.5,88.7,251.368L86.48,193.461S112.506,165.417,125.621,164Z" transform="translate(-73.71 -118.36)"/><path class="d" d="M504.3,531.543c0,1.973-12.527,13.372-41.043,13.372s-43.955-11-43.955-12.975,15.97,2.913,44.485,2.913S504.3,529.567,504.3,531.543Z" transform="translate(-318.403 -388.255)"/><ellipse class="e" cx="6.088" cy="0.681" rx="6.088" ry="0.681" transform="translate(132.948 170.579)"/><ellipse class="e" cx="6.088" cy="0.681" rx="6.088" ry="0.681" transform="translate(172.664 187.261)"/><ellipse class="e" cx="6.088" cy="0.681" rx="6.088" ry="0.681" transform="translate(120.119 182.77)"/><ellipse class="e" cx="6.088" cy="0.681" rx="6.088" ry="0.681" transform="translate(70.875 181.004)"/><ellipse class="e" cx="6.088" cy="0.681" rx="6.088" ry="0.681" transform="translate(58.044 193.195)"/><g class="f" transform="translate(102.796 64.361)"><ellipse cx="40.28" cy="17.977" rx="40.28" ry="17.977" transform="translate(0.649)"/><path d="M508.378,326.184c-1.782,9.374-19.391,16.732-40.855,16.732-21.652,0-39.382-7.488-40.9-16.976h-.151v15.276c7.081,7.4,22.756,12.543,40.953,12.543s33.872-5.145,40.955-12.543Z" transform="translate(-426.47 -301.78)"/><path d="M508.378,396.376c-1.782,9.371-19.391,16.732-40.855,16.732-21.652,0-39.382-7.488-40.9-16.978h-.151v15.278c7.081,7.4,22.756,12.54,40.953,12.54s33.872-5.142,40.955-12.54Z" transform="translate(-426.47 -353.385)"/><path d="M508.378,473.594c-1.782,9.374-19.391,16.732-40.855,16.732-21.652,0-39.382-7.486-40.9-16.976h-.151v16.475a2.539,2.539,0,0,0,.816,1.869c7.414,6.808,22.611,9.474,40.137,9.474s32.715-2.666,40.14-9.474a2.539,2.539,0,0,0,.815-1.869Z" transform="translate(-426.47 -410.158)"/></g><ellipse class="g" cx="40.28" cy="17.977" rx="40.28" ry="17.977" transform="translate(103.445 63.302)"/><path class="g" d="M508.378,322.184c-1.782,9.374-19.391,16.732-40.855,16.732-21.652,0-39.382-7.488-40.9-16.976h-.151v15.276c7.081,7.4,22.756,12.543,40.953,12.543s33.872-5.145,40.955-12.543Z" transform="translate(-323.674 -234.479)"/><path class="g" d="M508.378,392.376c-1.782,9.371-19.391,16.732-40.855,16.732-21.652,0-39.382-7.488-40.9-16.978h-.151v15.278c7.081,7.4,22.756,12.54,40.953,12.54s33.872-5.142,40.955-12.54Z" transform="translate(-323.674 -286.083)"/><path class="g" d="M508.378,469.594c-1.782,9.374-19.391,16.732-40.855,16.732-21.652,0-39.382-7.486-40.9-16.976h-.151v16.475a2.54,2.54,0,0,0,.816,1.869c7.414,6.808,22.611,9.474,40.137,9.474s32.715-2.666,40.14-9.474a2.54,2.54,0,0,0,.815-1.869Z" transform="translate(-323.674 -342.856)"/><ellipse class="e" cx="15.093" cy="2.717" rx="15.093" ry="2.717" transform="translate(188.006 167.465)"/><path class="h" d="M772.1,394.891a3.116,3.116,0,0,0,3.466-.225l-.013,2.147a55.336,55.336,0,0,0,1.928,6.84l1.284,4.414a34.437,34.437,0,0,1,1.411,9.607,9.2,9.2,0,0,0,.41,3.024c.686,1.854-.265,4.237-.681,5.116a21.21,21.21,0,0,1-2.118.6,1.534,1.534,0,0,0-.188.058v-.013a8.737,8.737,0,0,1-2.786.659.749.749,0,0,0-.53,1.305,3.94,3.94,0,0,1-1.282.17c-.858-.106-1.287,1.366.32,1.787s10.713,0,10.713,0a1.29,1.29,0,0,0,.683-1.425l1.139-.048s1.607-.736,0-2.735l-.087.064-.342-1.011v-1.364s2.036-9.8,1.393-10.944-.985-7.062-.985-7.062l.225-6.408a15.212,15.212,0,0,0,1.027-4.546,9.534,9.534,0,0,0,.41-2.155c.026-.347.048-.707.061-1.083a7.218,7.218,0,0,0-.392-2.425,24.37,24.37,0,0,1,2.428-3.045,3.13,3.13,0,0,0,.966-2.735l-.53-3.577-1.287-6.09a4.657,4.657,0,0,0-.583-3.217c.093-.548.18-1.094.246-1.644a21.076,21.076,0,0,0-.376-7.149,4.831,4.831,0,0,0-1.014-2.275c-.649-.7-1.7-1.131-1.946-2.049a5.468,5.468,0,0,0-.148-.694c-.236-.6-.977-.821-1.628-.9a8.846,8.846,0,0,0-3.951.209,4.79,4.79,0,0,0-2.288,2.124,1.825,1.825,0,0,0-.265,1.311,1.745,1.745,0,0,0,.183.45,4.075,4.075,0,0,0,2.367,5.216c.026.082.05.162.069.238a4.072,4.072,0,0,1,.106.575c-.021.371-.045.744-.061,1.117l-.04.151a27.856,27.856,0,0,0-2.693,1.372c.641.948-.109,4.946-.109,4.946a4.073,4.073,0,0,0-1.5,5.892,6.3,6.3,0,0,1,.749,5.259l-.265,4.115h0l-.053.824h.019l-.019.312h.045v.336a5,5,0,0,0-2.508,1.867,6.6,6.6,0,0,1-1.12,1.374.826.826,0,0,0,.132,1.348Zm12.935-10.931a3.91,3.91,0,0,1,.381-2.071h.757a4.953,4.953,0,0,0,.093.5C786.484,383.327,785.615,383.77,785.035,383.96Z" transform="translate(-577.475 -259.325)"/><path class="i" d="M799.165,614.073l.413,1.237-1.34,1.34-4.433,1.043-3.2-.31.207-1.133h0a1.369,1.369,0,0,1,1.014-1c1.324-.307,3.818-1.011,4.345-1.989Z" transform="translate(-591.393 -448.66)"/><path class="b" d="M799.165,614.073l.413,1.237-1.34,1.34-4.433,1.043-3.2-.31.207-1.133h0a1.369,1.369,0,0,1,1.014-1c1.324-.307,3.818-1.011,4.345-1.989Z" transform="translate(-591.393 -448.66)"/><path class="j" d="M785.018,621.893l.62-.823-.62-.956a8.289,8.289,0,0,1-2.68.646c-.826-.1-1.237,1.34.31,1.753s10.308,0,10.308,0,1.546-.723,0-2.682l-1.34,1.033s-2.269,1.237-3.4,1.03Z" transform="translate(-584.771 -453.49)"/><path class="i" d="M784,622.793l3.2.31,4.433-1.033,1.34-1.34-.108-.326-.154-.461-.151-.45-2.995-.824a1.853,1.853,0,0,1-.606.606,12.739,12.739,0,0,1-3.739,1.382,1.015,1.015,0,0,0-.127.04,1.325,1.325,0,0,0-.53.32,1.351,1.351,0,0,0-.365.641Z" transform="translate(-586.533 -452.637)"/><path class="b" d="M784,627.608l3.2.31,4.433-1.033,1.34-1.34-.108-.326-1.231.945s-2.269,1.237-3.4,1.03h-3.2l.62-.824-.556-.858a1.324,1.324,0,0,0-.53.32,1.351,1.351,0,0,0-.365.641Z" transform="translate(-586.533 -457.453)"/><path class="j" d="M778.4,627.35l.62-.824-.62-.956a8.288,8.288,0,0,1-2.68.646c-.826-.1-1.237,1.34.31,1.753s10.308,0,10.308,0,1.546-.723,0-2.68L785,626.32s-2.269,1.237-3.4,1.03Z" transform="translate(-579.904 -457.504)"/><path class="i" d="M797.61,392.1s4.949.53,4.237-1.546a3.682,3.682,0,0,1-.154-1.822,5.013,5.013,0,0,1,.874-2.095l-4.639.72a5.79,5.79,0,0,1,.63,1.491A3.048,3.048,0,0,1,797.61,392.1Z" transform="translate(-596.539 -282.047)"/><path class="k" d="M812.91,496s-.1,4.433-1.133,6.6l-.207,6.289s.307,5.772.927,6.906-1.34,10.721-1.34,10.721v1.65s-3.3,1.237-4.237-.206l.927-12.268-.413-17.008Z" transform="translate(-603.384 -362.449)"/><path class="b" d="M812.91,496s-.1,4.433-1.133,6.6l-.207,6.289s.307,5.772.927,6.906-1.34,10.721-1.34,10.721v1.65s-3.3,1.237-4.237-.206l.927-12.268-.413-17.008Z" transform="translate(-603.384 -362.449)"/><path class="l" d="M824.483,442.31l.62,1.65.53,3.5a3.111,3.111,0,0,1-.929,2.682,29.512,29.512,0,0,0-2.886,3.813l-1.957-5.876s1.957-.31,1.647-1.65a19.044,19.044,0,0,1-.2-3.813Z" transform="translate(-612.898 -322.976)"/><path class="m" d="M824.529,442.22l.617,1.65.53,3.506a3.1,3.1,0,0,1-.927,2.68,29.213,29.213,0,0,0-2.886,3.816l-1.973-5.884s1.959-.31,1.65-1.65a19.141,19.141,0,0,1-.207-3.816Z" transform="translate(-612.92 -322.909)"/><path class="b" d="M802.72,619.287a2.572,2.572,0,0,0,3.747.667l-.151-.45-2.992-.834A1.853,1.853,0,0,1,802.72,619.287Z" transform="translate(-600.296 -452.637)"/><path class="k" d="M787.1,479.452a55.184,55.184,0,0,0,1.854,6.7l1.237,4.327a34.522,34.522,0,0,1,1.358,9.411,9.191,9.191,0,0,0,.395,2.963c.826,2.269-.823,5.359-.823,5.359,1.443,2.579,3.916.826,3.916.826v-1.65s1.959-8.969,1.443-10.721a42.634,42.634,0,0,1-.72-6.493v-8.558a9.71,9.71,0,0,0,2.828-6.154c.024-.339.045-.694.058-1.059.082-2.325-1.509-5.052-2.118-6.024-.148-.236-.244-.368-.244-.368l-9.1,3.612h-.021v1.136Z" transform="translate(-588.812 -341.871)"/><path class="b" d="M798.78,387.36a5.788,5.788,0,0,1,.63,1.491,4.03,4.03,0,0,0,3.135-.116,5.014,5.014,0,0,1,.874-2.095Z" transform="translate(-597.4 -282.047)"/><circle class="i" cx="4.02" cy="4.02" r="4.02" transform="translate(199.424 98.821)"/><path class="b" d="M787.1,472.72h.045c4.321.89,9.75-3.614,9.75-3.614a5.369,5.369,0,0,1-.376-.768c-.148-.236-.244-.368-.244-.368l-9.1,3.612-.024.36Z" transform="translate(-588.812 -341.841)"/><path class="l" d="M785.148,400.185s5.772-3.506,7.626-2.063l2.579,3.3s1.65.516,1.342,3.826l1.237,5.979-3.707.927a4.061,4.061,0,0,0-.41,5.052s-5.465,4.536-9.8,3.606l.31-4.843a6.287,6.287,0,0,0-.72-5.155,4.03,4.03,0,0,1,1.443-5.772C785.045,405.031,785.765,401.112,785.148,400.185Z" transform="translate(-585.724 -290.232)"/><path class="i" d="M777.606,486.3a5.323,5.323,0,0,0-3.2,2.063,6.431,6.431,0,0,1-1.08,1.348.816.816,0,0,0,.13,1.3c.818.493,2.15.794,3.837-.59C780.2,488.053,777.606,486.3,777.606,486.3Z" transform="translate(-578.492 -355.317)"/><path class="b" d="M792.556,414.065s2.06-.207,2.576,5.153,1.34,6.6,1.34,6.6.516,2.783-.723,4.433-3.607,5.156-3.607,5.156a2.388,2.388,0,0,1-3.093-1.854l3.2-5.979a4.3,4.3,0,0,0-.723-3.506C790.287,422.623,789.36,413.032,792.556,414.065Z" transform="translate(-590.246 -302.152)"/><path class="l" d="M791.813,412.9s2.06-.207,2.576,5.156,1.34,6.6,1.34,6.6.53,2.783-.72,4.433-3.6,5.156-3.6,5.156a2.388,2.388,0,0,1-3.093-1.854l3.2-5.979a4.287,4.287,0,0,0-.723-3.506C789.554,421.454,788.617,411.866,791.813,412.9Z" transform="translate(-589.709 -301.293)"/><path class="b" d="M795.027,427.71s-.2,3.2.723,4.949a5.292,5.292,0,0,1,0,5.256" transform="translate(-594.626 -312.242)"/><path class="b" d="M793.14,408.05s.823-.823,3.2-.927a6.823,6.823,0,0,0,3.4-.823" transform="translate(-593.253 -296.501)"/><path class="b" d="M797.713,360.077c.628.077,1.342.291,1.568.879a5.856,5.856,0,0,1,.146.681c.233.9,1.247,1.324,1.872,2.007a4.817,4.817,0,0,1,.974,2.232,20.965,20.965,0,0,1,.363,7c-.2,1.708-.614,3.392-.728,5.108a8.113,8.113,0,0,0,1.033,4.967,11.99,11.99,0,0,1,1.223,1.854,3.571,3.571,0,0,1-2.169.575q-1.324.045-2.661,0a2.826,2.826,0,0,1-1.35-.283,2.081,2.081,0,0,1-.71-.76,5.439,5.439,0,0,1-.614-2.894c.021-1,.18-1.991.2-2.992a2.6,2.6,0,0,0-.347-1.568,5.05,5.05,0,0,0-.863-.794,5.471,5.471,0,0,1-1.52-4.022c-.037-1.475.206-2.95.082-4.419-.048-.575-.265-1.266-.829-1.377a3.015,3.015,0,0,1-.53-.069c-.453-.175-.408-.813-.53-1.282-.146-.53-.6-.935-.723-1.464-.3-1.247,1.292-2.738,2.333-3.178A8.344,8.344,0,0,1,797.713,360.077Z" transform="translate(-592.094 -262.432)"/><path class="n" d="M798.1,359.309c.628.077,1.343.291,1.568.882a5.708,5.708,0,0,1,.146.678c.233.9,1.247,1.324,1.872,2.007a4.818,4.818,0,0,1,.974,2.232,20.964,20.964,0,0,1,.36,7.012c-.2,1.708-.612,3.392-.726,5.11a8.1,8.1,0,0,0,1.033,4.965,12.123,12.123,0,0,1,1.223,1.854,3.554,3.554,0,0,1-2.169.575q-1.324.042-2.661,0a2.823,2.823,0,0,1-1.35-.281,2.088,2.088,0,0,1-.71-.763,5.44,5.44,0,0,1-.614-2.894c.021-1,.18-1.991.2-2.99a2.67,2.67,0,0,0-.347-1.568,4.962,4.962,0,0,0-.863-.794,5.471,5.471,0,0,1-1.52-4.022c-.037-1.475.207-2.95.082-4.419-.048-.575-.265-1.266-.829-1.377a3.017,3.017,0,0,1-.53-.069c-.453-.175-.408-.813-.53-1.282-.146-.53-.6-.932-.723-1.464-.3-1.247,1.292-2.738,2.333-3.178A8.351,8.351,0,0,1,798.1,359.309Z" transform="translate(-592.38 -261.87)"/><path class="o" d="M373.251,189.06a5.561,5.561,0,1,0,5.561,5.561A5.561,5.561,0,0,0,373.251,189.06Zm0,1.078a4.5,4.5,0,1,1-4.5,4.5,4.5,4.5,0,0,1,4.5-4.5m3.148,2.926-.506-.511a.265.265,0,0,0-.381,0l-3.177,3.148-1.34-1.361a.265.265,0,0,0-.381,0l-.508.506a.265.265,0,0,0,0,.381l2.039,2.055a.265.265,0,0,0,.381,0l3.874-3.845a.265.265,0,0,0,0-.381Z" transform="translate(-280.458 -136.784)"/><path class="o" d="M144.261,294.98a5.561,5.561,0,1,0,4.205.7,5.561,5.561,0,0,0-4.205-.7Zm.244,1.059a4.5,4.5,0,1,1-3.365,5.386,4.5,4.5,0,0,1,3.365-5.386m3.726,2.145-.609-.392a.265.265,0,0,0-.371.085l-2.383,3.781-1.613-1.019a.265.265,0,0,0-.371.085l-.384.609a.265.265,0,0,0,.085.371l2.447,1.544a.265.265,0,0,0,.373-.085l2.913-4.615a.265.265,0,0,0-.082-.371Z" transform="translate(-113.027 -214.551)"/><path class="o" d="M679.321,192.1a5.561,5.561,0,1,0,5.561,5.561A5.561,5.561,0,0,0,679.321,192.1Zm0,1.078a4.5,4.5,0,1,1-4.5,4.5,4.5,4.5,0,0,1,4.5-4.5m3.148,2.926-.506-.511a.265.265,0,0,0-.381,0l-3.177,3.148-1.342-1.353a.265.265,0,0,0-.381,0l-.506.511a.265.265,0,0,0,0,.381l2.039,2.055a.265.265,0,0,0,.381,0l3.874-3.845a.265.265,0,0,0,0-.381Z" transform="translate(-505.484 -139.019)"/><path class="o" d="M919.055,295.763a5.561,5.561,0,1,0,3.8,1.931A5.561,5.561,0,0,0,919.055,295.763Zm-.085,1.072A4.488,4.488,0,1,1,915.7,297.9a4.5,4.5,0,0,1,3.269-1.065M921.883,300l-.466-.548a.265.265,0,0,0-.379-.032l-3.408,2.894-1.234-1.454a.265.265,0,0,0-.381-.032l-.548.466a.265.265,0,0,0-.029.379l1.872,2.206a.265.265,0,0,0,.379.032l4.163-3.532a.265.265,0,0,0,.032-.379Z" transform="translate(-681.422 -215.221)"/></g></svg>