<svg xmlns="http://www.w3.org/2000/svg" width="460.961" height="388.618" viewBox="0 0 460.961 388.618"><defs><style>.a{fill:none;}.b,.c{fill:#e0e0e0;}.c{fill-rule:evenodd;}.d{fill:#455a64;}.e{fill:#fafafa;}.f{fill:#2039cc;}.g{fill:#263238;}.h{fill:#ffbe9d;}.i{opacity:0.2;}.j{fill:#eb996e;}</style></defs><g transform="translate(-14.8 -54.29)"><g transform="translate(67.413 75.662)"><path class="a" d="M401.293,258.563a30.573,30.573,0,0,1-6.909,4.351l-.412,7.585-12.337,2.117-2.94-7a31.057,31.057,0,0,1-7.967-1.8l-5.625,5.056-10.221-7.232,2.94-7a30.23,30.23,0,0,1-4.351-6.86l-7.565-.4L343.8,235.044l6.987-2.94a30.672,30.672,0,0,1,1.813-7.967l-5.066-5.625,7.242-10.26,6.987,2.94a30.446,30.446,0,0,1,6.909-4.351l.4-7.565,12.347-2.107,2.891,6.987a30.673,30.673,0,0,1,7.967,1.813L397.9,200.9l10.23,7.242-2.94,6.987a30.791,30.791,0,0,1,4.351,6.86l7.555.4,2.117,12.347-7,2.891a31.056,31.056,0,0,1-1.8,7.967l5.056,5.625-7.232,10.221-7-2.891Zm-9.123-15.5a13.425,13.425,0,1,0-8.7,5.484,13.435,13.435,0,0,0,8.7-5.484Z" transform="translate(-74.014 -78.529)"/><path class="b" d="M392.653,243.559a9.955,9.955,0,0,1-2.136,2.548,13.543,13.543,0,0,1-14.562,2.185,13.756,13.756,0,1,1,18.8-16.6,13.464,13.464,0,0,1-.412,9.006,10.152,10.152,0,0,1-1.7,2.861,30.722,30.722,0,0,0,1.421-2.94,13.425,13.425,0,0,0,.157-8.731,12.974,12.974,0,0,0-3.126-5.174,13.093,13.093,0,0,0-22.46,9.339,12.366,12.366,0,0,0,.647,3.861,12.159,12.159,0,0,0,1.666,3.371,13.239,13.239,0,0,0,5.262,4.459,13.1,13.1,0,0,0,5.929,1.225,13.386,13.386,0,0,0,8.173-3.057A32.534,32.534,0,0,0,392.653,243.559Z" transform="translate(-74.497 -79.028)"/><path class="b" d="M401.285,258.553a2.4,2.4,0,0,1,.451.157l1.333.519,5.262,2.107h-.147l7.173-10.26v.245l-5.076-5.615-.1-.1.049-.127A30.379,30.379,0,0,0,412,237.572v-.157l.137-.059,6.987-2.94-.167.3c-.676-3.92-1.392-8.016-2.136-12.337l.284.245-7.565-.382h-.2l-.078-.176a30.556,30.556,0,0,0-4.312-6.86l-.127-.157.078-.186c.892-2.166,1.882-4.557,2.881-7l.118.412-10.231-7.222h.451l-5.625,5.056-.167.147-.206-.069a30.5,30.5,0,0,0-7.839-1.783h-.225l-.088-.206c-.9-2.2-1.891-4.576-2.94-7l.421.235L369.1,199.561l.314-.363c-.127,2.391-.265,4.968-.4,7.565V207l-.206.088a30.525,30.525,0,0,0-6.859,4.292h0l-.392.059h-.216l-.216-.088-.441-.186-.882-.363-1.754-.725-3.479-1.45.461-.137-7.242,10.231v-.48l5.057,5.635.157.167-.078.216a30.751,30.751,0,0,0-1.793,7.839v.225l-.206.088-7,2.94.225-.4q1.078,6.321,2.1,12.347l-.3-.323,7.565.412h.206l.088.2a29.974,29.974,0,0,0,4.292,6.86l.127.157-.078.186q-1.47,3.587-2.94,6.977l-.108-.382,10.211,7.261h-.372l5.644-5.047.118-.118.157.059a30.251,30.251,0,0,0,7.888,1.813h.157l.059.137c1.049,2.548,1.96,4.841,2.871,7.007l-.245-.137,12.347-2.058-.137.157c.176-3.018.323-5.488.451-7.555v-.078h.069a31.542,31.542,0,0,0,5.331-3.038l1.225-.9a2.943,2.943,0,0,1,.4-.294,2.467,2.467,0,0,1-.363.343c-.255.216-.647.549-1.2.98a29.5,29.5,0,0,1-5.292,3.165l.069-.108c-.1,2.068-.216,4.547-.353,7.565v.137H394l-12.328,2.166h-.186l-.069-.167c-.9-2.166-1.852-4.449-2.94-6.987l.216.157a30.74,30.74,0,0,1-8.036-1.8l.274-.049-5.615,5.076-.176.157-.186-.137-10.191-7.222-.206-.147.1-.235c.931-2.273,1.891-4.6,2.881-7l.059.343a30.857,30.857,0,0,1-4.41-6.977l.294.2-7.565-.392h-.274l-.049-.284q-1.049-6.007-2.126-12.337l-.049-.294.265-.108,7-2.94-.225.314a30.514,30.514,0,0,1,1.823-8.065l.069.382-5.066-5.625-.2-.225.176-.245,7.232-10.231.176-.255.284.118,3.479,1.45,1.754.725.882.363.441.186.216.088.118.049h.1l-.392.059h0a31.251,31.251,0,0,1,7-4.4l-.225.333c.137-2.6.274-5.174.4-7.565v-.3h.3l12.347-2.117.294-.049.118.284c.98,2.411,1.96,4.8,2.891,7l-.314-.225a31.436,31.436,0,0,1,8.055,1.823l-.372.078,5.635-5.056.216-.186.235.167,10.2,7.222.225.157-.108.255-2.94,6.987-.049-.343a31.006,31.006,0,0,1,4.38,7l-.265-.186,7.555.412h.245v.235c.735,4.331,1.431,8.457,2.087,12.347v.216l-.2.088-7.007,2.871.157-.206a31.473,31.473,0,0,1-1.842,8.016l-.049-.225,5.037,5.644.108.118-.1.127-7.291,10.182-.059.078h-.088l-5.164-2.2-1.323-.588Z" transform="translate(-74.007 -78.519)"/><path class="c" d="M388.536,162.912a43.116,43.116,0,0,1-9.8,6.154l-.568,10.691-17.453,2.989-4.1-9.9A43.559,43.559,0,0,1,345.36,170.3l-7.957,7.154-14.425-10.231,4.1-9.888a43.117,43.117,0,0,1-6.144-9.8l-10.691-.568-2.989-17.453,9.888-4.086a43.65,43.65,0,0,1,2.607-11.21l-7.154-7.947,10.182-14.493,9.878,4.1a43.861,43.861,0,0,1,9.8-6.144l.568-10.691L360.48,76.1l4.086,9.9a43.116,43.116,0,0,1,11.259,2.548l7.957-7.154,14.454,10.231-4.125,9.858a43.39,43.39,0,0,1,6.154,9.8l10.691.568,2.989,17.453-9.927,4.037a43.474,43.474,0,0,1-2.548,11.259l7.154,7.957-10.231,14.454-9.888-4.1ZM375.6,141.03a19,19,0,1,0-26.458,4.547A19,19,0,0,0,375.6,141.03Z" transform="translate(-73.281 -76.1)"/><path class="c" d="M164.853,160.956a41.07,41.07,0,0,1,6.33,8.888H181.3l3.763,16.316-9.113,4.39a40.686,40.686,0,0,1-1.8,10.779l7.183,7.124-8.878,14.189-9.545-3.332a40.834,40.834,0,0,1-8.888,6.33v10.123l-16.306,3.753-4.4-9.113a40.757,40.757,0,0,1-10.779-1.8l-7.124,7.183-14.189-8.878,3.332-9.545a40.833,40.833,0,0,1-6.33-8.888H88.1l-3.7-16.326,9.113-4.4a41.157,41.157,0,0,1,1.8-10.779l-7.183-7.124,8.878-14.189,9.545,3.332a40.834,40.834,0,0,1,8.888-6.33V142.543l16.316-3.763,4.39,9.113a41.091,41.091,0,0,1,10.779,1.8l7.124-7.173,14.189,8.819-3.332,9.545Zm-19.961,13.317a17.952,17.952,0,1,0,8.024,11.2,17.952,17.952,0,0,0-8.024-11.2Z" transform="translate(-68.809 -77.358)"/><path class="c" d="M175.648,91.159a23.068,23.068,0,0,1,3.5,4.9h5.605l2.077,9.035-5.047,2.43a22.7,22.7,0,0,1-.98,5.958l3.969,3.92-4.9,7.839L174.59,123.4a22.54,22.54,0,0,1-4.9,3.5V132.5l-9.035,2.077-2.43-5.037a23.059,23.059,0,0,1-5.958-.98l-3.92,3.969-7.839-4.9,1.852-5.292a22.636,22.636,0,0,1-3.508-4.9h-5.6L131.1,108.4l5.047-2.43a22.646,22.646,0,0,1,.98-5.958l-3.979-3.92,4.9-7.839,5.282,1.842a23.116,23.116,0,0,1,4.9-3.508v-5.6l9.035-2.087,2.469,5a22.715,22.715,0,0,1,5.958.98l3.92-3.979,7.839,4.9-1.842,5.282ZM164.594,98.6a9.937,9.937,0,1,0,4.426,6.2,9.937,9.937,0,0,0-4.426-6.2Z" transform="translate(-69.746 -76.156)"/><path class="a" d="M104.781,102.127a18.4,18.4,0,0,1,2.842,3.988h4.537l1.685,7.32-4.086,1.96a18.256,18.256,0,0,1-.8,4.831l3.214,3.195-3.979,6.35-4.282-1.509a18.745,18.745,0,0,1-3.988,2.842v4.537l-7.32,1.686-1.96-4.086a18.678,18.678,0,0,1-4.831-.813l-3.195,3.224-6.36-3.979,1.49-4.282a18.7,18.7,0,0,1-2.832-3.988H70.375l-1.685-7.31,4.086-1.96a18.619,18.619,0,0,1,.813-4.831l-3.224-3.195,3.988-6.37,4.282,1.5a18.108,18.108,0,0,1,3.979-2.842V93.875l7.31-1.685,1.96,4.086a18.619,18.619,0,0,1,4.831.8l3.195-3.214,6.37,3.979-1.5,4.282Zm-8.947,5.987a8.055,8.055,0,1,0,2.558,11.1,8.055,8.055,0,0,0-2.558-11.1Z" transform="translate(-68.494 -76.423)"/><path class="b" d="M96.133,108.413a3.058,3.058,0,0,1,.451.255,6.291,6.291,0,0,1,1.147.98,7.918,7.918,0,0,1,2.322,4.9,8.212,8.212,0,0,1-.5,3.773,8.3,8.3,0,0,1-2.587,3.508,7.839,7.839,0,0,1-2.068,1.186,7.732,7.732,0,0,1-2.42.568,8.369,8.369,0,0,1-5.027-1.235,8.251,8.251,0,0,1-3.3-3.979,8.114,8.114,0,0,1-.559-2.42,8.026,8.026,0,0,1,.167-2.381,8.231,8.231,0,0,1,2.028-3.861,8.133,8.133,0,0,1,8.574-2.156,6.508,6.508,0,0,1,1.343.627,2.676,2.676,0,0,1,.431.294c0,.059-.627-.353-1.832-.735a8.065,8.065,0,0,0-5.223.206,7.9,7.9,0,0,0-4.9,5.723,7.457,7.457,0,0,0-.137,2.244,7.6,7.6,0,0,0,.539,2.283,7.781,7.781,0,0,0,3.106,3.724,7.918,7.918,0,0,0,4.713,1.166,7.457,7.457,0,0,0,2.283-.519,7.193,7.193,0,0,0,1.96-1.107,7.839,7.839,0,0,0,3.018-6.86,8.006,8.006,0,0,0-2.1-4.782A14.924,14.924,0,0,0,96.133,108.413Z" transform="translate(-68.792 -76.722)"/><path class="b" d="M104.777,102.123a.817.817,0,0,1,.078-.274l.265-.813,1.078-3.224v.1l-6.389-3.92h.167l-3.185,3.234-.059.069h-.088a18.432,18.432,0,0,0-4.792-.784h-.1l-.049-.1-1.96-4.077.2.1-7.31,1.705.157-.2V98.6l-.108.059a18.491,18.491,0,0,0-3.92,2.812l-.1.1h-.127l-4.282-1.489.265-.088-3.92,6.37v-.294l3.224,3.185.108.108v.137a18,18,0,0,0-.794,4.762v.157L73,114.48l-4.086,1.96.137-.284c.539,2.313,1.107,4.8,1.7,7.32l-.255-.2h4.694l.078.137a17.767,17.767,0,0,0,2.793,3.92h0c0,.108,0-.265.059.255h0v.255l-.088.274-.186.539-.382,1.068c-.245.715-.5,1.431-.745,2.136l-.108-.294,6.37,3.979H82.66c1.078-1.088,2.146-2.156,3.195-3.224l.108-.108.147.049a18.08,18.08,0,0,0,4.762.794h.147l.069.137,1.96,4.086-.274-.127,7.31-1.686-.176.235v-4.684l.118-.059a18.531,18.531,0,0,0,3.92-2.8l.1-.088.118.049,4.282,1.5-.245.088,3.988-6.36v.245l-3.2-3.2-.088-.078V120.2a18.53,18.53,0,0,0,.813-4.782v-.1h.1l4.1-1.96-.088.167c-.637-2.832-1.186-5.252-1.646-7.32l.108.088h-4.537a19.472,19.472,0,0,0-1.96-3.087l-.588-.706L105,102.27a1.6,1.6,0,0,1,.225.206c.137.147.343.372.608.686a16.874,16.874,0,0,1,2.077,3.057h4.557v.1c.49,2.058,1.058,4.478,1.725,7.3v.118l-.108.059-4.077,1.96.088-.137a18.825,18.825,0,0,1-.794,4.9v-.186l3.224,3.195.118.108-.088.127-3.92,6.379-.088.147-.157-.059-4.282-1.49h.216a18.521,18.521,0,0,1-4.028,2.881l.118-.206v4.733h-.186l-7.31,1.7h-.186l-.088-.167c-.647-1.352-1.3-2.7-1.96-4.086l.216.137a18.706,18.706,0,0,1-4.9-.813l.255-.069-3.195,3.224-.147.147-.167-.108-6.37-3.979-.176-.108.069-.2c.245-.706.5-1.421.745-2.136l.372-1.078.2-.529.088-.274.049-.137V127.6h0c.108.519,0,.137,0,.255h0a18.482,18.482,0,0,1-2.871-4.037l.225.137h-4.9v-.2c-.578-2.518-1.147-5-1.685-7.32v-.186l.176-.088,4.1-1.96-.147.216a18.835,18.835,0,0,1,.823-4.9l.059.245c-1.107-1.117-2.215-2.2-3.214-3.2l-.127-.137.1-.157,3.988-6.36.1-.157.167.059,4.282,1.509h-.225A18.942,18.942,0,0,1,82.6,98.458l-.108.186V93.95h.157L89.872,92h.147l.059.137c.686,1.431,1.352,2.812,1.96,4.1l-.147-.1a18.541,18.541,0,0,1,4.9.833h-.157l3.214-3.2.069-.078.088.059,6.34,4.018h.059v.059c-.5,1.362-.882,2.42-1.156,3.155l-.3.823a1.509,1.509,0,0,1-.167.323Z" transform="translate(-68.49 -76.419)"/></g><g transform="translate(168.845 54.29)"><path class="d" d="M330.416,438.013l-130.2-.6A28.359,28.359,0,0,1,172,408.928l1.372-326.4a28.359,28.359,0,0,1,28.5-28.242l130.194.6A28.359,28.359,0,0,1,360.285,83.4L358.9,409.81A28.349,28.349,0,0,1,330.416,438.013Z" transform="translate(-172 -54.29)"/><path class="e" d="M332.043,66.379,306.8,66.271a6.262,6.262,0,0,0-6.154,6.379v4.576a6.262,6.262,0,0,1-6.174,6.409l-49.2-.225a6.281,6.281,0,0,1-6.105-6.438V72.4a6.281,6.281,0,0,0-6.1-6.438h-8.878l-22.088-.108A19.873,19.873,0,0,0,182.153,85.6L180.81,404.182A19.854,19.854,0,0,0,200.595,424.1l129.939.6a19.853,19.853,0,0,0,19.952-19.775l1.352-318.6A19.883,19.883,0,0,0,332.043,66.379Z" transform="translate(-172.176 -54.522)"/><rect class="f" width="70.134" height="70.134" rx="9.76" transform="translate(61.315 96.877)"/><path class="f" d="M215.568,179.18l1.7,3.43,3.783.549-2.744,2.665.647,3.763-3.381-1.774-3.381,1.774.647-3.763-2.734-2.665,3.783-.549Z" transform="translate(-172.764 -56.796)"/><path class="f" d="M327.093,144.53l1.3,2.646,2.93.431-2.117,2.058.5,2.91-2.616-1.372-2.616,1.372.5-2.91-2.117-2.058,2.93-.431Z" transform="translate(-175.027 -56.1)"/><path class="f" d="M324.512,209.38l1.127,1.538,1.911-.059-1.107,1.548.647,1.8-1.823-.578-1.509,1.166-.01-1.911-1.578-1.068,1.813-.608Z" transform="translate(-175.013 -57.402)"/><path class="f" d="M214.323,155.927a1.793,1.793,0,1,1,1.783-1.784,1.793,1.793,0,0,1-1.783,1.784Zm0-2.6a.338.338,0,1,0,0-.029Z" transform="translate(-172.813 -56.257)"/><path class="f" d="M317.5,181.127a1.793,1.793,0,1,1,1.784-1.784A1.793,1.793,0,0,1,317.5,181.127Zm0-2.6a.813.813,0,1,0,.8.813.813.813,0,0,0-.8-.813Z" transform="translate(-174.883 -56.763)"/><path class="f" d="M293.683,142.607a1.784,1.784,0,1,1,1.267-.519A1.793,1.793,0,0,1,293.683,142.607Zm0-2.6a.34.34,0,1,0,0-.029Z" transform="translate(-174.405 -55.99)"/><circle class="f" cx="1.303" cy="1.303" r="1.303" transform="translate(30.476 154.683)"/><path class="f" d="M266.817,232.363a1.294,1.294,0,1,1-.379-.924A1.3,1.3,0,0,1,266.817,232.363Z" transform="translate(-173.85 -57.837)"/><circle class="f" cx="1.303" cy="1.303" r="1.303" transform="translate(77.768 70.35)"/><path class="g" d="M238.89,332.887V327.38h.98v5.468c0,2.273,1.068,3.322,2.94,3.322s2.94-1.049,2.94-3.322V327.38h.98v5.507c0,2.763-1.48,4.184-3.92,4.184S238.89,335.631,238.89,332.887Z" transform="translate(-173.342 -59.769)"/><path class="g" d="M257.587,330.662c0,2.038-1.48,3.273-3.92,3.273H251.08v3.038h-.98V327.36h3.6C256.107,327.36,257.587,328.6,257.587,330.662Zm-.98,0c0-1.539-.98-2.42-2.94-2.42H251.08v4.8h2.558c1.921,0,2.94-.872,2.94-2.381Z" transform="translate(-173.567 -59.769)"/><path class="g" d="M260,327.36h3.92c3.077,0,5.145,1.96,5.145,4.811s-2.068,4.8-5.145,4.8H260Zm3.861,8.731a3.932,3.932,0,1,0,0-7.839H260.98v7.839Z" transform="translate(-173.765 -59.769)"/><path class="g" d="M277.4,334.406h-5.35l-1.156,2.567H269.83l4.4-9.613h.98l4.39,9.613h-1.068Zm-.372-.823-2.3-5.164-2.3,5.164Z" transform="translate(-173.963 -59.769)"/><path class="g" d="M282.791,328.242H279.41v-.882h7.771v.882H283.8v8.731h-.98Z" transform="translate(-174.155 -59.769)"/><path class="g" d="M295.781,336.091v.882H289V327.36h6.585v.882H289.98v3.42h4.968v.862H289.98v3.567Z" transform="translate(-174.347 -59.769)"/><path class="e" d="M279.452,176.28a14.786,14.786,0,0,1,2.822,2.763l3.606-.657,2.381,5.576-2.94,2.146a14.866,14.866,0,0,1,0,3.92l3.018,2.077-2.264,5.635-3.616-.588a14.893,14.893,0,0,1-2.773,2.832l.666,3.606-5.586,2.381-2.146-2.94a14.4,14.4,0,0,1-3.92.049l-2.087,3.008-5.625-2.254.578-3.616a14.847,14.847,0,0,1-2.822-2.773l-3.606.657-2.362-5.556,2.94-2.146a14.868,14.868,0,0,1,0-3.92L252.7,184.4l2.264-5.635,3.616.588a14.8,14.8,0,0,1,2.763-2.822l-.657-3.606,5.576-2.381,2.156,2.94a15.2,15.2,0,0,1,3.92-.049l2.087-3.008,5.625,2.254-.578,3.626Zm-6.272,6.036a4.993,4.993,0,1,0,.039,0Z" transform="translate(-173.619 -56.62)"/><path class="e" d="M273.454,182.549a4.793,4.793,0,0,1,1.44.715,6.468,6.468,0,0,1,2.528,3.557A6.6,6.6,0,0,1,276,193.034a6.428,6.428,0,0,1-1.47,1.235,6.3,6.3,0,0,1-1.842.784,6.651,6.651,0,0,1-7.261-10.044,6.556,6.556,0,0,1,6.5-2.94,4.9,4.9,0,0,1,1.539.48,13.531,13.531,0,0,0-1.558-.333,6.468,6.468,0,0,0-4.135.9,6.35,6.35,0,1,0,6.6,10.848,6,6,0,0,0,1.392-1.186,6.35,6.35,0,0,0,1.421-5.88,6.468,6.468,0,0,0-2.362-3.508,15.459,15.459,0,0,0-1.372-.843Z" transform="translate(-173.853 -56.852)"/><path class="e" d="M279.449,176.278a.855.855,0,0,1,0-.235c0-.167.059-.392.1-.686.088-.627.225-1.529.4-2.7v.059l-5.644-2.224h.118l-2.077,3.028v.049h-.069a15.17,15.17,0,0,0-3.92.059h-.069l-.049-.059c-.666-.921-1.392-1.96-2.156-2.94h.167l-5.576,2.391.088-.157.666,3.606v.088l-.078.059a14.306,14.306,0,0,0-2.734,2.8l-.059.078h-.1l-3.616-.578.186-.1c-.715,1.764-1.48,3.675-2.254,5.625l-.069-.206,3.018,2.087.088.059v.108a14.483,14.483,0,0,0,0,3.92v.108l-.088.069-2.94,2.146.059-.216c.755,1.764,1.568,3.655,2.381,5.576l-.206-.108,3.606-.666h.118l.069.088a14.7,14.7,0,0,0,2.783,2.734h0c0,.078-.069-.176.078.186h0v.4l-.069.451-.147.911c-.1.6-.2,1.205-.284,1.8l-.118-.206,5.625,2.264-.216.069L268.542,203l.069-.088h.108a14.5,14.5,0,0,0,3.92,0h.108l.059.088,2.146,2.94-.216-.059,5.586-2.371-.108.186c-.216-1.225-.431-2.43-.647-3.606v-.108l.078-.059a15.042,15.042,0,0,0,2.744-2.783l.059-.078h.088l3.626.588-.176.1,2.273-5.625.059.167-2.989-2.117-.059-.049v-.078a14.912,14.912,0,0,0,0-3.92v-.069h.059l2.94-2.136v.127l-2.352-5.586H286l-3.606.637h0a14.818,14.818,0,0,0-2.028-2.166l-.559-.48-.186-.157.206.127c.127.1.323.245.578.461a14.987,14.987,0,0,1,2.087,2.136h-.059l3.6-.686h.069v.059l2.4,5.576v.078l-.078.049-2.94,2.156.049-.118a14.981,14.981,0,0,1,.059,3.988l-.059-.118,3.018,2.068.1.069-.049.108c-.706,1.783-1.45,3.645-2.244,5.635v.108h-.118l-3.626-.568.157-.069a15.106,15.106,0,0,1-2.793,2.861l.059-.157c.216,1.176.441,2.381.666,3.6v.137l-.118.059-5.576,2.381-.137.059-.078-.118c-.706-.98-1.431-1.96-2.156-2.94l.176.078a15.228,15.228,0,0,1-4.008,0l.176-.078-2.077,3.018-.088.127-.137-.059-5.625-2.264-.137-.049v-.147l.294-1.8.137-.911.078-.451v-.431h0c.147.353,0,.1.078.176h0a15.484,15.484,0,0,1-2.852-2.8l.176.069-3.606.657h-.147l-.059-.137-2.371-5.586-.059-.127.118-.088,2.94-2.146-.069.176a14.887,14.887,0,0,1,0-4.008l.069.167-3.008-2.087-.118-.078.059-.127c.784-1.96,1.548-3.861,2.264-5.625v-.118h.137l3.616.588-.157.059a14.9,14.9,0,0,1,2.8-2.852l-.059.147c-.225-1.254-.451-2.489-.657-3.606V172.8h.108l5.586-2.371h.1l.059.088,2.146,2.94-.118-.049a15.06,15.06,0,0,1,3.979,0h-.1l2.1-3.008v-.059h.069l5.615,2.293h.049c-.2,1.166-.353,2.058-.461,2.685-.059.294-.1.519-.127.686A1.52,1.52,0,0,1,279.449,176.278Z" transform="translate(-173.615 -56.618)"/><rect class="g" width="71.614" height="51.799" transform="translate(71.163 189.598)"/><rect class="d" width="62.432" height="51.799" transform="translate(47.645 189.598)"/><path class="d" d="M220.393,247.543,209.31,236.46h28.085l10.427,11.083Z" transform="translate(-172.748 -57.945)"/><path class="d" d="M284.32,247.543l12.749-11.083h34.974L317.03,247.543Z" transform="translate(-174.253 -57.945)"/><path class="g" d="M283.042,247.765c0,.137-13.974.255-31.211.255s-31.211-.118-31.211-.255,13.964-.255,31.211-.255S283.042,247.618,283.042,247.765Z" transform="translate(-172.975 -58.167)"/><rect class="b" width="125.226" height="10.191" rx="5.08" transform="translate(33.759 296.519)"/><rect class="f" width="66.44" height="10.191" rx="5.08" transform="translate(33.759 296.519)"/><path class="f" d="M261.719,392.663c0,2.087-1.45,3.714-4.449,3.714a6.33,6.33,0,0,1-4.41-1.578l.617-.98a5.321,5.321,0,0,0,3.773,1.421c2.087,0,3.185-.98,3.185-2.509s-.98-2.558-4.1-2.558h-2.616l.627-6.154h6.722v1.117h-5.615l-.421,3.92h1.578C260.317,389.027,261.719,390.488,261.719,392.663Z" transform="translate(-173.622 -60.906)"/><path class="f" d="M271.759,392.663c0,2.087-1.45,3.714-4.449,3.714a6.33,6.33,0,0,1-4.41-1.578l.617-.98a5.321,5.321,0,0,0,3.773,1.421c2.087,0,3.185-.98,3.185-2.509s-.98-2.558-4.1-2.558h-2.616l.627-6.154h6.722v1.117H265.5l-.421,3.92h1.578C270.357,389.027,271.759,390.488,271.759,392.663Z" transform="translate(-173.824 -60.906)"/><path class="f" d="M273.21,387.242c0-1.96,1.127-3.332,2.773-3.332s2.773,1.313,2.773,3.332-1.147,3.332-2.773,3.332S273.21,389.241,273.21,387.242Zm4.665,0c0-1.6-.755-2.548-1.891-2.548s-1.891.98-1.891,2.548.735,2.538,1.891,2.538,1.921-.941,1.921-2.538ZM283.421,384h1.029l-8.378,12.279h-1.039Zm-2.685,9.035c0-1.96,1.137-3.342,2.773-3.342s2.763,1.343,2.763,3.342-1.117,3.332-2.763,3.332S280.736,395.032,280.736,393.033Zm4.664,0c0-1.587-.735-2.548-1.891-2.548s-1.9.98-1.9,2.548.755,2.538,1.9,2.538,1.891-.96,1.891-2.538Z" transform="translate(-174.03 -60.904)"/></g><g transform="translate(14.8 437.474)"><path class="g" d="M475.761,445.575c0,.137-103.2.255-230.471.255S14.8,445.712,14.8,445.575s103.177-.255,230.491-.255S475.761,445.428,475.761,445.575Z" transform="translate(-14.8 -445.32)"/></g><g transform="translate(22.443 248.524)"><path class="h" d="M198.36,434.16l2.822,10.779,31.544-.284s-4.322-3.263-20.167-3.028l-1.538-7.467Z" transform="translate(-26.127 -256.146)"/><path class="f" d="M161.3,309.793l-23.665,2.234-9.613,2.763a26.066,26.066,0,0,0-10.946,6.281L86.1,350.744,80.444,304.56,65,305.912l2.587,59.443a17.7,17.7,0,0,0,16.865,12.328,18.285,18.285,0,0,0,12.426-5.076L118.9,351.822l-2.185,27.36-7.585,17,54.141,30.574s6.36-31.475,9.8-53.25c2.763-17.639,4.165-55.984,4.165-55.984Z" transform="translate(-23.451 -253.545)"/><path class="f" d="M178.032,317.23S190,321.669,192.9,331.047c2.567,8.31,11.132,55.072,11.132,55.072l8.5,49.457-17.8.676L174.24,351.92Z" transform="translate(-25.643 -253.8)"/><path class="g" d="M117.35,378.6c-.147,0,.647-9.486,1.764-21.157s2.146-21.118,2.283-21.108-.657,9.486-1.774,21.157S117.487,378.624,117.35,378.6Z" transform="translate(-24.501 -254.183)"/><path class="g" d="M156.823,355.74a1.832,1.832,0,0,1-.157.461l-.539,1.284a20.452,20.452,0,0,1-.98,1.96c-.412.764-.833,1.656-1.431,2.567-.284.461-.588.98-.892,1.45s-.7.98-1.058,1.519c-.715,1.058-1.6,2.107-2.509,3.224a48.064,48.064,0,0,1-14.542,11.612c-1.294.637-2.509,1.264-3.7,1.715-.6.235-1.156.49-1.715.686l-1.627.539a26.979,26.979,0,0,1-2.812.813,19.331,19.331,0,0,1-2.166.47l-1.372.235a.248.248,0,1,1-.02-.1l1.352-.323c.588-.127,1.313-.3,2.126-.559s1.774-.48,2.783-.872l1.588-.578c.559-.2,1.107-.461,1.7-.706,1.186-.47,2.381-1.1,3.655-1.734a53.828,53.828,0,0,0,7.751-5.066,55.322,55.322,0,0,0,6.693-6.4c.9-1.1,1.793-2.126,2.518-3.175.363-.51.745-.98,1.068-1.48l.921-1.431c.608-.892,1.049-1.764,1.48-2.509a21.563,21.563,0,0,0,.98-1.96l.627-1.245A2.747,2.747,0,0,1,156.823,355.74Z" transform="translate(-24.571 -254.572)"/><g class="i" transform="translate(96.814 107.373)"><path d="M123.713,383.923a3.636,3.636,0,0,1-2.185-4.351,6.242,6.242,0,0,1,3.528-3.841,25.173,25.173,0,0,1,5.154-1.529,43.254,43.254,0,0,0,20.128-11.3c.519-.51,1.244-1.068,1.881-.725.853.47.314,1.764-.314,2.509a65.038,65.038,0,0,1-28.741,19.275" transform="translate(-121.397 -362.072)"/></g><path class="g" d="M178.8,372.459a4.714,4.714,0,0,1-.363-.98c-.2-.657-.47-1.617-.784-2.8-.647-2.362-1.47-5.654-2.283-9.3s-1.489-6.977-1.96-9.388c-.216-1.215-.382-2.185-.48-2.871a3.919,3.919,0,0,1-.1-1.058,4.438,4.438,0,0,1,.294.98c.176.784.392,1.725.647,2.832.549,2.518,1.264,5.762,2.058,9.349s1.568,6.86,2.136,9.329c.255,1.117.461,2.058.637,2.842A4.1,4.1,0,0,1,178.8,372.459Z" transform="translate(-25.614 -254.378)"/><path class="g" d="M67.749,310.374a5.782,5.782,0,0,1-.451-2.332,5.586,5.586,0,0,1,.059-2.381,5.782,5.782,0,0,1,.451,2.332,5.586,5.586,0,0,1-.059,2.381Z" transform="translate(-23.495 -253.567)"/><path class="g" d="M72.371,310.508a6.536,6.536,0,0,1-.382-2.479,6.428,6.428,0,0,1,.127-2.509A6.115,6.115,0,0,1,72.5,308a6.017,6.017,0,0,1-.127,2.509Z" transform="translate(-23.59 -253.565)"/><path class="g" d="M76.99,310.206a7.7,7.7,0,0,1-.412-2.763,7.928,7.928,0,0,1,.1-2.8,8.055,8.055,0,0,1,.412,2.773A7.84,7.84,0,0,1,76.99,310.206Z" transform="translate(-23.681 -253.547)"/><path class="g" d="M85.859,358.764a15.992,15.992,0,0,1,.167-4.086,16.531,16.531,0,0,1,.666-4.037,15.992,15.992,0,0,1-.167,4.086A16.53,16.53,0,0,1,85.859,358.764Z" transform="translate(-23.868 -254.47)"/><path class="g" d="M198.14,433.46a6.76,6.76,0,0,1,.686,2.479,6.859,6.859,0,0,1,.186,2.567,12.582,12.582,0,0,1-.872-5.047Z" transform="translate(-26.122 -256.132)"/><path class="g" d="M204.109,433.45a5.575,5.575,0,0,1,.627,2.254,5.252,5.252,0,0,1,.127,2.332,5.576,5.576,0,0,1-.627-2.254A5.429,5.429,0,0,1,204.109,433.45Z" transform="translate(-26.24 -256.132)"/><path class="g" d="M209.768,432.88a8.563,8.563,0,0,1,.588,2.538,8.124,8.124,0,0,1,.274,2.6,6.027,6.027,0,0,1-.784-2.509,5.88,5.88,0,0,1-.078-2.626Z" transform="translate(-26.353 -256.12)"/><path class="g" d="M187.6,323.108c0,.1-1.245,0-3.175.421a14.787,14.787,0,0,0-11.024,9.633c-.657,1.852-.755,3.1-.853,3.077a2.6,2.6,0,0,1,0-.872,12.543,12.543,0,0,1,.49-2.322,14.219,14.219,0,0,1,11.308-9.868,12.649,12.649,0,0,1,2.362-.176,2.685,2.685,0,0,1,.892.108Z" transform="translate(-25.608 -253.915)"/><path class="e" d="M194.953,343.64a18.9,18.9,0,0,1-2.94,1.254c-1.842.7-4.429,1.607-7.31,2.5s-5.527,1.627-7.448,2.107a17.558,17.558,0,0,1-3.136.647,22.429,22.429,0,0,1,3.048-.98l7.379-2.234,7.35-2.362a22.162,22.162,0,0,1,3.057-.931Z" transform="translate(-25.64 -254.329)"/><path class="e" d="M202.646,378.45a20.173,20.173,0,0,1-3.067.833c-1.911.451-4.557,1.039-7.477,1.656s-5.586,1.147-7.516,1.509a19.825,19.825,0,0,1-3.136.47,20.2,20.2,0,0,1,3.057-.823c1.96-.451,4.557-1.039,7.487-1.656s5.586-1.156,7.506-1.509A19.329,19.329,0,0,1,202.646,378.45Z" transform="translate(-25.787 -255.028)"/><path class="e" d="M211.4,422a17.576,17.576,0,0,1-2.94.147c-1.813.049-4.322.127-7.075.284s-5.262.372-7.065.539a20.576,20.576,0,0,1-2.94.186,14.884,14.884,0,0,1,2.94-.549c1.793-.255,4.3-.519,7.075-.686s5.282-.176,7.1-.127a14.586,14.586,0,0,1,2.9.206Z" transform="translate(-25.987 -255.897)"/><path class="e" d="M131.382,380.929a10.543,10.543,0,0,1-2.028-.872l-4.8-2.293L119.74,375.5a11.756,11.756,0,0,1-1.96-.98,8.7,8.7,0,0,1,2.107.7c1.264.5,3,1.245,4.9,2.136s3.547,1.764,4.743,2.44A8.818,8.818,0,0,1,131.382,380.929Z" transform="translate(-24.51 -254.949)"/><path class="e" d="M171.313,387.652a5.756,5.756,0,0,1-1.156-.441l-3.087-1.343c-2.6-1.137-6.2-2.685-10.221-4.292s-7.7-2.94-10.368-3.92l-3.155-1.156a6.094,6.094,0,0,1-1.147-.48,4.947,4.947,0,0,1,1.205.294c.764.216,1.862.559,3.214.98,2.7.882,6.409,2.2,10.436,3.8s7.624,3.214,10.182,4.439c1.284.617,2.322,1.127,3.018,1.49a5.635,5.635,0,0,1,1.078.627Z" transform="translate(-24.999 -254.979)"/><path class="e" d="M173.9,359.308a2.114,2.114,0,0,1-.549-.049l-1.568-.235-5.742-.931c-4.9-.784-11.553-1.862-18.972-2.94s-14.15-1.96-19.03-2.636l-5.762-.764-1.568-.225a2.144,2.144,0,0,1-.549-.118,3.455,3.455,0,0,1,.559,0l1.578.137c1.372.118,3.351.323,5.791.6,4.9.549,11.622,1.4,19.05,2.489s14.121,2.224,18.962,3.106c2.42.441,4.371.813,5.723,1.088l1.548.333a1.881,1.881,0,0,1,.529.147Z" transform="translate(-24.557 -254.485)"/><path class="e" d="M171.812,329.315c0,.137-10.622-1.333-23.685-3.283s-23.626-3.645-23.607-3.783,10.623,1.333,23.685,3.283S171.831,329.178,171.812,329.315Z" transform="translate(-24.645 -253.9)"/><path class="e" d="M115.9,355.262a26.1,26.1,0,0,1-1.509-3.185l-3.44-7.761c-1.352-2.94-2.567-5.615-3.528-7.722a26.915,26.915,0,0,1-1.382-3.234,3.076,3.076,0,0,1,.51.8c.294.529.706,1.3,1.205,2.273.98,1.96,2.293,4.645,3.655,7.673s2.518,5.8,3.312,7.839c.4.98.706,1.832.911,2.411A3.723,3.723,0,0,1,115.9,355.262Z" transform="translate(-24.274 -254.123)"/><path class="e" d="M94.446,376.247c-.137,0-1.49-5.88-3.018-13.219s-2.656-13.288-2.518-13.317,1.49,5.88,3.018,13.21S94.584,376.217,94.446,376.247Z" transform="translate(-23.93 -254.451)"/><path class="e" d="M85.272,344a86.51,86.51,0,0,1-9.182,2.224,87.514,87.514,0,0,1-9.29,1.7,87.875,87.875,0,0,1,9.182-2.234A88.859,88.859,0,0,1,85.272,344Z" transform="translate(-23.487 -254.337)"/><path class="e" d="M82.178,316.63a11.351,11.351,0,0,1-2.42.529c-1.5.255-3.587.559-5.88.823s-4.41.431-5.938.519a11.6,11.6,0,0,1-2.469,0,12.737,12.737,0,0,1,2.44-.382l5.88-.676,5.88-.666A12.74,12.74,0,0,1,82.178,316.63Z" transform="translate(-23.46 -253.787)"/><path class="d" d="M90.314,269.13c.274.549,7.634,38.374,7.634,38.374l-17.345.813L73.88,275.794Z" transform="translate(-23.629 -252.834)"/><path class="g" d="M98.279,307.506l1.989-.833-7.506-37.287-2.352-.157Z" transform="translate(-23.961 -252.836)"/><path class="g" d="M83.493,277.554a.9.9,0,1,1-.98-.784.9.9,0,0,1,.98.784Z" transform="translate(-23.786 -252.988)"/><path class="h" d="M79.614,304.282l-.265-4.949,7.418-3.057-2.94-6.86a5.987,5.987,0,0,0-8.329-2.852l-2.94,1.617a8.486,8.486,0,0,0-4.224,5.478,107.791,107.791,0,0,0-1.715,12.1" transform="translate(-23.483 -253.17)"/><path class="f" d="M58.957,433.35s-30.5,8.437-31.72,8.819c-1.832.647-1.529,7.379,1.333,7.271,1.352-.049,23.42.823,26.213.647s11.2-3.489,11.2-3.489Z" transform="translate(-22.67 -256.13)"/><path class="g" d="M46.6,445.1a30.61,30.61,0,0,0-1.343-3.273A28.423,28.423,0,0,0,43.1,439a6.762,6.762,0,0,1,3.5,6.076Z" transform="translate(-23.011 -256.243)"/><path class="g" d="M49.85,443.631c-.147,0-.461-1.411-1.274-3.008s-1.764-2.7-1.656-2.812a7.663,7.663,0,0,1,2.94,5.821Z" transform="translate(-23.088 -256.219)"/><path class="g" d="M52.951,442.816a19.3,19.3,0,0,0-.706-3.224,19.854,19.854,0,0,0-1.666-2.852A5.723,5.723,0,0,1,52.951,442.816Z" transform="translate(-23.161 -256.198)"/><path class="g" d="M52.393,438.775a5.566,5.566,0,0,1-.323-2.273,10.534,10.534,0,0,1,.3-2.489,10.781,10.781,0,0,1,.461-1.411,1.666,1.666,0,0,1,.48-.745.813.813,0,0,1,1.049.049,1.343,1.343,0,0,1,.412.862,5.655,5.655,0,0,1,0,.8,7.3,7.3,0,0,1-.186,1.5,8.878,8.878,0,0,1-.98,2.322,6.163,6.163,0,0,1-1.372,1.842c-.069-.049.441-.764,1.049-2.009a9.641,9.641,0,0,0,.8-2.264,7.125,7.125,0,0,0,.147-1.392c0-.47,0-1.058-.284-1.284a.294.294,0,0,0-.4,0,1.264,1.264,0,0,0-.333.529,11.612,11.612,0,0,0-.461,1.352,11.181,11.181,0,0,0-.4,2.381C52.344,437.873,52.481,438.755,52.393,438.775Z" transform="translate(-23.191 -256.096)"/><path class="g" d="M52.44,438.593a4.311,4.311,0,0,1,1.96-.314,8.721,8.721,0,0,1,2.166.265A4.735,4.735,0,0,1,57.81,439,1.284,1.284,0,0,1,58.5,440.4a1.519,1.519,0,0,1-1.1,1.088,2.706,2.706,0,0,1-1.372,0,6.517,6.517,0,0,1-3.391-2.362,12.654,12.654,0,0,1,1.617,1.1,5.577,5.577,0,0,0,1.872.813,2.47,2.47,0,0,0,1.137,0,.98.98,0,0,0,.735-.725.784.784,0,0,0-.451-.853,4.724,4.724,0,0,0-1.107-.431,10.655,10.655,0,0,0-2.048-.363C53.2,438.554,52.45,438.672,52.44,438.593Z" transform="translate(-23.199 -256.228)"/><path class="g" d="M41.847,445.455a17.757,17.757,0,0,0-.608-2.754,16.748,16.748,0,0,0-1.49-2.391,4.4,4.4,0,0,1,2.1,5.145Z" transform="translate(-22.944 -256.269)"/><path class="g" d="M62.93,447a6.506,6.506,0,0,1-1.186.559,26.94,26.94,0,0,1-3.391,1.049,48.318,48.318,0,0,1-11.642,1.107c-4.567-.049-8.682-.265-11.671-.382l-3.538-.186a6.38,6.38,0,0,1-1.294-.137,5.735,5.735,0,0,1,1.3-.059h3.538l11.661.235a54.4,54.4,0,0,0,11.563-.98C61.186,447.647,62.891,446.9,62.93,447Z" transform="translate(-22.753 -256.403)"/><path class="g" d="M64.217,447.647c0,.069-.882-.412-2.283-1.029a10.623,10.623,0,0,0-5.772-.98,9.133,9.133,0,0,0-4.988,2.94,18.618,18.618,0,0,1-1.754,1.8,9.192,9.192,0,0,1,1.489-2.048,12.356,12.356,0,0,1,2.019-1.852,7.251,7.251,0,0,1,3.155-1.333,10.152,10.152,0,0,1,6,1.137,8.164,8.164,0,0,1,2.136,1.362Z" transform="translate(-23.138 -256.365)"/><path class="f" d="M92.44,424.76s28.849,18.893,29.888,19.677c1.548,1.166-.225,6.762-2.94,5.791-1.274-.461-25.478-7.193-28.095-8.2s-9.6-6.732-9.6-6.732Z" transform="translate(-23.786 -255.957)"/><path class="g" d="M101.4,439.9a6.791,6.791,0,0,1,5.184-4.733,28.625,28.625,0,0,0-2.94,2.019A27.9,27.9,0,0,0,101.4,439.9Z" transform="translate(-24.181 -256.166)"/><path class="g" d="M98.76,437.525a5.674,5.674,0,0,1,1.754-2.842,5.88,5.88,0,0,1,2.8-1.813c.078.137-1.186.892-2.43,2.175S98.887,437.593,98.76,437.525Z" transform="translate(-24.128 -256.12)"/><path class="g" d="M96.11,435.816a5.7,5.7,0,0,1,4.106-5.066,20.377,20.377,0,0,0-2.45,2.2A20.451,20.451,0,0,0,96.11,435.816Z" transform="translate(-24.075 -256.077)"/><path class="g" d="M97.83,432.112c-.069,0,.323-.823.657-2.166a12.061,12.061,0,0,0,.343-2.391,11.681,11.681,0,0,0,0-1.421,1.205,1.205,0,0,0-.157-.608.294.294,0,0,0-.392-.088c-.333.127-.5.7-.657,1.137a6.977,6.977,0,0,0-.284,1.372,9.976,9.976,0,0,0,.078,2.4c.2,1.372.47,2.2.392,2.224a5.987,5.987,0,0,1-.755-2.166,9.378,9.378,0,0,1-.186-2.509,7.653,7.653,0,0,1,.274-1.48c.078-.245.176-.49.284-.755a1.382,1.382,0,0,1,.647-.7.823.823,0,0,1,.98.274,1.656,1.656,0,0,1,.235.853,9.447,9.447,0,0,1,0,1.49,10.192,10.192,0,0,1-.461,2.46,5.351,5.351,0,0,1-1,2.068Z" transform="translate(-24.09 -255.96)"/><path class="g" d="M97.781,431.913c0,.078-.715-.265-1.872-.549a10.782,10.782,0,0,0-2.068-.284,4.774,4.774,0,0,0-1.186.078.784.784,0,0,0-.686.676,1.029,1.029,0,0,0,.48.911,2.47,2.47,0,0,0,1.078.362,5.33,5.33,0,0,0,2.028-.206,13.312,13.312,0,0,1,1.881-.559,5.244,5.244,0,0,1-1.774.9,5.116,5.116,0,0,1-2.185.323,2.705,2.705,0,0,1-1.3-.412,1.509,1.509,0,0,1-.715-1.362,1.293,1.293,0,0,1,1.078-1.127,5.132,5.132,0,0,1,1.323-.059,8.88,8.88,0,0,1,2.146.412A4.351,4.351,0,0,1,97.781,431.913Z" transform="translate(-23.982 -256.074)"/><path class="g" d="M116.414,449.534a1.86,1.86,0,0,1-.706-1.127,4.2,4.2,0,0,1,.539-3.126,12.666,12.666,0,0,1,.98-1.441,5.378,5.378,0,0,1,.98-1.048,1.7,1.7,0,0,1,.921-.392c.245,0,.372.049.363.078a2.694,2.694,0,0,0-1.049.588,6.863,6.863,0,0,0-.833,1.049c-.294.431-.617.9-.9,1.411a4.468,4.468,0,0,0-.627,2.812,12.369,12.369,0,0,0,.333,1.2Z" transform="translate(-24.466 -256.311)"/><path class="g" d="M105.86,441.693a4.371,4.371,0,0,1,3.547-4.263c.059.147-1.156.617-2.146,1.823a16.1,16.1,0,0,0-1.4,2.44Z" transform="translate(-24.271 -256.211)"/><path class="g" d="M84.73,436.55a9.607,9.607,0,0,1,1.274.872,34.924,34.924,0,0,0,3.557,2.175,46.411,46.411,0,0,0,5.644,2.518c2.185.813,4.635,1.587,7.232,2.332,5.194,1.5,9.888,2.861,13.278,3.92l4.008,1.235a8.131,8.131,0,0,1,1.45.519,9.8,9.8,0,0,1-1.5-.333l-4.057-1.068c-3.42-.931-8.124-2.244-13.327-3.743-2.6-.745-5.056-1.539-7.252-2.381a43.718,43.718,0,0,1-5.654-2.665,27.506,27.506,0,0,1-3.5-2.342,7.606,7.606,0,0,1-1.156-1.039Z" transform="translate(-23.847 -256.194)"/><path class="g" d="M83.64,436.983a8.191,8.191,0,0,1,2.45-.657,10.123,10.123,0,0,1,6.066.745,7.241,7.241,0,0,1,2.616,2.175,11.866,11.866,0,0,1,1.352,2.42,9.211,9.211,0,0,1,.8,2.4,20.353,20.353,0,0,1-1.176-2.244,9.055,9.055,0,0,0-3.851-4.341,10.573,10.573,0,0,0-5.791-.843C84.6,436.8,83.66,436.983,83.64,436.983Z" transform="translate(-23.825 -256.186)"/><path class="h" d="M160.979,271.636l1.881,38.11a11.348,11.348,0,0,1-11.348,11.926h0a11.348,11.348,0,0,1-11.338-10.779c-.137-2.871-.255-5.262-.294-5.556,0,0-9.741-.441-10.916-10.005-.568-4.625-.98-14.238-1.225-22.95a17.962,17.962,0,0,1,16-18.384l.921-.1C154.7,253.38,160.744,261.612,160.979,271.636Z" transform="translate(-24.709 -252.528)"/><path class="j" d="M140.11,306.13a22.421,22.421,0,0,0,12.1-4.9s-2.2,7.222-11.847,7.408Z" transform="translate(-24.958 -253.479)"/><path class="g" d="M130.86,278.821a1.382,1.382,0,0,0,1.47,1.235,1.313,1.313,0,0,0,1.274-1.392,1.362,1.362,0,0,0-1.47-1.235,1.323,1.323,0,0,0-1.274,1.392Z" transform="translate(-24.772 -253.001)"/><path class="g" d="M130.379,277.274c.2.157,1.147-.725,2.616-.882s2.636.461,2.773.265-.137-.392-.647-.686a3.92,3.92,0,0,0-2.244-.431,3.635,3.635,0,0,0-2.058.931C130.409,276.862,130.291,277.205,130.379,277.274Z" transform="translate(-24.762 -252.963)"/><path class="g" d="M145.61,277.551a1.382,1.382,0,0,0,1.48,1.235,1.323,1.323,0,0,0,1.274-1.392,1.372,1.372,0,0,0-1.47-1.235,1.323,1.323,0,0,0-1.284,1.392Z" transform="translate(-25.068 -252.975)"/><path class="g" d="M145.179,275.964c.2.157,1.147-.725,2.616-.882s2.636.461,2.773.265-.137-.392-.647-.686a3.92,3.92,0,0,0-2.244-.431,3.636,3.636,0,0,0-2.058.931C145.209,275.513,145.091,275.856,145.179,275.964Z" transform="translate(-25.059 -252.936)"/><path class="g" d="M140.921,287.447a10.4,10.4,0,0,0-2.44-.167c-.382,0-.745,0-.833-.274a1.96,1.96,0,0,1,.127-1.147c.255-.98.519-1.96.794-2.989,1.1-4.243,1.842-7.722,1.676-7.761s-1.205,3.361-2.293,7.614c-.265,1.039-.51,2.038-.755,3a2.2,2.2,0,0,0,0,1.49.98.98,0,0,0,.676.49,2.941,2.941,0,0,0,.657,0A9.084,9.084,0,0,0,140.921,287.447Z" transform="translate(-24.897 -252.954)"/><path class="g" d="M145.413,288.26c-.245,0-.069,1.607-1.313,2.891s-2.94,1.3-2.94,1.519.412.274,1.127.216a4.008,4.008,0,0,0,2.479-1.186,3.528,3.528,0,0,0,.98-2.411C145.736,288.613,145.521,288.231,145.413,288.26Z" transform="translate(-24.979 -253.218)"/><path class="g" d="M144.15,270.09c.186.382,1.636,0,3.381.049s3.2.333,3.391-.049c.088-.186-.2-.539-.8-.862a5.88,5.88,0,0,0-5.164,0C144.346,269.551,144.061,269.9,144.15,270.09Z" transform="translate(-25.039 -252.824)"/><path class="g" d="M130.459,272.862c.294.3,1.264-.157,2.489-.3s2.273,0,2.469-.4c.088-.176-.108-.5-.6-.764a3.489,3.489,0,0,0-2.087-.323,3.42,3.42,0,0,0-1.911.892C130.429,272.353,130.322,272.715,130.459,272.862Z" transform="translate(-24.763 -252.873)"/><path class="h" d="M161.66,279.338c.157-.088,6.37-2.675,6.86,3.92s-6.193,5.733-6.213,5.537S161.66,279.338,161.66,279.338Z" transform="translate(-25.39 -253.028)"/><path class="j" d="M164.19,286.172a1.476,1.476,0,0,0,.323.147,1.146,1.146,0,0,0,.853-.049,2.842,2.842,0,0,0,1.117-2.646,4.037,4.037,0,0,0-.451-1.617,1.333,1.333,0,0,0-.931-.8.588.588,0,0,0-.657.363.463.463,0,0,0,0,.333c0,.01-.157-.1-.118-.372a.666.666,0,0,1,.225-.431.823.823,0,0,1,.617-.216,1.6,1.6,0,0,1,1.274.921,3.822,3.822,0,0,1,.539,1.8,2.94,2.94,0,0,1-1.44,2.94,1.215,1.215,0,0,1-1.068-.1C164.209,286.328,164.16,286.191,164.19,286.172Z" transform="translate(-25.441 -253.07)"/><path class="g" d="M164.685,278.184a3.469,3.469,0,0,0-2.94,1.96c-.323.98-.3,2.058-.627,3.038s-1.186,1.96-2.215,1.813a2.048,2.048,0,0,1-1.529-1.352,5.419,5.419,0,0,1-.245-2.107c0-3.1.353-6.2.137-9.3a15.8,15.8,0,0,0-2.94-8.692,8.633,8.633,0,0,0-8.133-3.459c-2.019.382-3.773,1.656-5.762,2.156a8.016,8.016,0,0,1-6.86-1.48,15.2,15.2,0,0,0-1.342-.755,3.8,3.8,0,0,1,.461-2.107c3.606-4.155,10.721-5.987,16.169-5.233a19.226,19.226,0,0,1,13.66,8.653c2.822,4.714,2.94,11.7,2.2,16.865" transform="translate(-24.799 -252.501)"/><path class="g" d="M56.09,431.946s70.761-46.41,73.662-47.38,9.9-5.556,16.9-3.626,13.278,8.212,16.414,17.384,3.381,29.7,3.381,29.7-5.6,16.169-16.375,19.6a26,26,0,0,1-2.832.706c-13.268,2.636-26.752-3.459-34.17-14.768l-1.588-2.4s-46.282,17-47.037,16.767Z" transform="translate(-23.272 -255.068)"/><path class="g" d="M31.292,377.706s-8.663,3.087-8.692,12.8c-.069,18.619,37.561,39.09,37.561,39.09l50.045-33.19v-3.489S45.775,369.739,31.292,377.706Z" transform="translate(-22.6 -254.98)"/><path class="d" d="M143.63,419.27s-.127.069-.392.176l-1.156.461-4.488,1.725-16.659,6.281c-7.085,2.636-15.571,5.782-25.086,9.241s-20.059,7.261-31.358,11.073l-.206.069-.1-.186c-1.774-3.381-3.636-6.938-5.527-10.564l-2.822-5.38-.108-.206.2-.127,53.975-34.3L126.119,387.3l4.4-2.744,1.146-.706.4-.225a4.443,4.443,0,0,1-.372.265l-1.117.745-4.361,2.822-16.13,10.368-53.9,34.4.088-.333c.9,1.705,1.852,3.538,2.822,5.38l5.527,10.564-.3-.127c11.259-3.8,21.8-7.585,31.358-11.014l25.116-9.143,16.727-6.134,4.508-1.637,1.176-.421Z" transform="translate(-23.265 -255.132)"/><path class="d" d="M85.528,413.4a11.488,11.488,0,0,1-1.3-.892c-.823-.588-1.96-1.48-3.43-2.587-2.861-2.215-6.762-5.35-10.965-8.957s-7.839-6.987-10.515-9.486c-1.313-1.254-2.362-2.273-3.077-3a9.543,9.543,0,0,1-1.068-1.156,11.268,11.268,0,0,1,1.205.98l3.185,2.871c2.685,2.43,6.419,5.762,10.6,9.358s8.055,6.781,10.858,9.064l3.322,2.714a9.245,9.245,0,0,1,1.186,1.088Z" transform="translate(-23.253 -255.206)"/><path class="d" d="M45.9,384.827a9.8,9.8,0,0,1,4.821.441,9.936,9.936,0,0,1,4.292,2.254c-.088.127-1.96-1.029-4.439-1.764S45.89,384.994,45.9,384.827Z" transform="translate(-23.067 -255.153)"/><path class="d" d="M50.3,381.84a6.1,6.1,0,0,1,2.94,2.234,6.026,6.026,0,0,1,1.558,3.371c-.147.049-.7-1.509-1.96-3.048S50.222,382,50.3,381.84Z" transform="translate(-23.156 -255.096)"/><path class="g" d="M28.66,441.919c0-.059.6-.186,1.284.392a4.625,4.625,0,0,1,1.45,2.94,5.782,5.782,0,0,1-.451,3.2c-.363.764-.745,1.117-.794,1.088s.206-.47.451-1.215a6.624,6.624,0,0,0,.294-3.008,5.066,5.066,0,0,0-1.186-2.7,3.468,3.468,0,0,0-1.049-.7Z" transform="translate(-22.721 -256.3)"/></g><g transform="translate(342.616 252.773)"><rect class="g" width="68.36" height="9.398" transform="translate(33.104 127.943)"/><path class="g" d="M451.6,396.9H383V387.28h68.6Zm-68.36-.235H451.36v-9.153H383.225Z" transform="translate(-350.004 -259.455)"/><path class="g" d="M389.58,393.79l9.839,48.546h36.414l9.505-45.42Z" transform="translate(-350.136 -259.585)"/><path class="d" d="M389.58,438.64l5.252,7.222h44.254l6.252-7.222Z" transform="translate(-350.136 -260.485)"/><path class="g" d="M415.362,393.183c-.127,0-.3-22.49-.382-50.222s0-50.231.108-50.231.3,22.48.382,50.222S415.5,393.183,415.362,393.183Z" transform="translate(-350.645 -257.558)"/><path class="g" d="M430.781,337.81a2.194,2.194,0,0,1-.176.519c-.167.382-.363.862-.617,1.46-.137.314-.284.666-.441,1.048l-.461,1.274c-.157.461-.333.98-.519,1.46s-.333,1.088-.51,1.676a67.607,67.607,0,0,0-1.911,8.369,100.66,100.66,0,0,0-1.058,10.466,141.1,141.1,0,0,0,.539,19.119c.225,2.44.441,4.41.608,5.772.069.647.127,1.166.167,1.578a1.958,1.958,0,0,1,0,.549,2.356,2.356,0,0,1-.127-.539c-.069-.412-.157-.921-.255-1.558-.225-1.352-.5-3.322-.764-5.762a126.063,126.063,0,0,1-.686-19.177,96.223,96.223,0,0,1,1.107-10.524,64.769,64.769,0,0,1,2.019-8.4c.2-.578.353-1.147.549-1.666l.559-1.46.5-1.264c.167-.382.343-.725.49-1.039l.7-1.421A2.359,2.359,0,0,1,430.781,337.81Z" transform="translate(-350.836 -258.462)"/><path class="g" d="M428.948,319.25a4.316,4.316,0,0,1-.216.735l-.715,2.1-.519,1.5c-.167.568-.353,1.176-.549,1.823-.4,1.3-.862,2.773-1.274,4.439-.225.833-.451,1.7-.686,2.607s-.421,1.862-.647,2.842c-.47,1.96-.823,4.086-1.264,6.3-.745,4.469-1.411,9.407-1.872,14.611s-.617,10.2-.686,14.7.049,8.614.235,12.034c.059,1.715.167,3.263.255,4.625s.167,2.528.255,3.489.118,1.646.167,2.2a4.2,4.2,0,0,1,0,.774,3.92,3.92,0,0,1-.118-.764c-.069-.539-.157-1.274-.265-2.2s-.225-2.117-.333-3.479-.245-2.94-.333-4.625c-.225-3.42-.323-7.516-.333-12.053s.216-9.535.657-14.768,1.137-10.172,1.911-14.65c.461-2.224.813-4.351,1.313-6.311.235-.98.451-1.96.666-2.852s.49-1.764.725-2.6c.431-1.666.921-3.136,1.342-4.439l.588-1.8c.206-.549.4-1.039.568-1.5.333-.862.6-1.548.8-2.058a4.042,4.042,0,0,1,.323-.676Z" transform="translate(-350.748 -258.09)"/><path class="g" d="M410.734,397.224a1.112,1.112,0,0,1,0-.265,3.945,3.945,0,0,0-.059-.774c-.049-.715-.118-1.715-.206-2.94-.167-2.626-.392-6.35-.686-10.956-.588-9.241-1.45-22.019-3.008-36.071-.794-7.026-1.715-13.719-2.675-19.746-.51-3.018-.98-5.88-1.489-8.565s-.98-5.164-1.48-7.428-.98-4.312-1.352-6.1-.784-3.332-1.1-4.586-.539-2.2-.715-2.94c-.069-.314-.127-.559-.167-.755a1.116,1.116,0,0,1-.049-.265.881.881,0,0,1,.088.245c.059.2.137.441.225.745.186.7.461,1.656.794,2.881s.764,2.783,1.186,4.576.98,3.822,1.421,6.1,1.039,4.743,1.539,7.418.98,5.556,1.539,8.574c.98,6.046,1.96,12.739,2.724,19.765,1.558,14.062,2.362,26.85,2.861,36.1.255,4.635.431,8.378.529,10.965.049,1.274.088,2.264.118,2.989v.774A1.08,1.08,0,0,1,410.734,397.224Z" transform="translate(-350.3 -257.62)"/><path class="f" d="M414.37,303.645c-.3-3.185-3.518-5.586-6.722-5.625s-6.183,1.891-8.133,4.42a25.361,25.361,0,0,0-3.92,8.7c-2.156,7.506-3.332,15.385-2.411,23.146s4.067,15.385,9.633,20.863c.9.892,2.068,1.784,3.312,1.519a4.106,4.106,0,0,0,1.754-1.078A51.828,51.828,0,0,0,424.688,316.2c-.078-2.94-.47-6.017-2.107-8.476s-5.439-5.066-8.212-4.077" transform="translate(-350.202 -257.664)"/><path class="f" d="M390.063,277.481l-4.508,8.163c-.1.186-.235.4-.461.421s-.412-.206-.539-.4L372.64,267.378l2.744-1.558Z" transform="translate(-349.796 -257.018)"/><g class="i" transform="translate(22.844 8.802)"><path d="M390.063,277.481l-4.508,8.163c-.1.186-.235.4-.461.421s-.412-.206-.539-.4L372.64,267.378l2.744-1.558Z" transform="translate(-372.64 -265.82)"/></g><path class="f" d="M414.237,292.01l-40.648-23.989a1.9,1.9,0,0,1-.98-.98c-.157-.6.294-1.176.725-1.627a28.046,28.046,0,0,1,21.715-8.535,24.8,24.8,0,0,1,19.6,12.22c3.92,7.007,4.057,16.277-.441,22.93" transform="translate(-349.795 -256.837)"/><path class="g" d="M379.59,260.437a2.029,2.029,0,0,1,.529-.069c.353,0,.872-.078,1.538-.069a29.92,29.92,0,0,1,5.635.441A32.8,32.8,0,0,1,413.6,284.5a31.247,31.247,0,0,1,.98,5.576c.069.657.059,1.176.078,1.529a1.765,1.765,0,0,1,0,.539s-.088-.735-.255-2.048a33.318,33.318,0,0,0-27.183-29.055,35.28,35.28,0,0,0-5.576-.6A19.609,19.609,0,0,1,379.59,260.437Z" transform="translate(-349.936 -256.907)"/><path class="g" d="M409.17,275.83a8.819,8.819,0,0,1-2.048.98c-1.3.51-3.106,1.156-5.135,1.8s-3.92,1.156-5.233,1.48a10.327,10.327,0,0,1-2.215.431,10.693,10.693,0,0,1,2.126-.755l5.174-1.617L407,276.487A11.7,11.7,0,0,1,409.17,275.83Z" transform="translate(-350.236 -257.219)"/><path class="g" d="M402.938,258.29a28.653,28.653,0,0,1,.235,9.084,28.21,28.21,0,0,1-.245-4.537A28.518,28.518,0,0,1,402.938,258.29Z" transform="translate(-350.402 -256.867)"/><path class="g" d="M373.25,267.688a17.5,17.5,0,0,1,2.94-1.039c1.852-.568,4.42-1.293,7.291-1.96s5.478-1.225,7.389-1.558a19.233,19.233,0,0,1,3.1-.421,21.162,21.162,0,0,1-3.038.764c-1.882.412-4.478.98-7.34,1.686s-5.439,1.352-7.3,1.842a21.985,21.985,0,0,1-3.038.686Z" transform="translate(-349.809 -256.955)"/><path class="f" d="M395.064,296c-3.489-2.646-7.193-3.165-11.573-3a35.375,35.375,0,0,0-12.671,3.273c-6.86,3-13.3,7.428-17.384,13.719s-5.527,14.552-2.46,21.372a3.028,3.028,0,0,0,1.392,1.685,3.282,3.282,0,0,0,2.293-.176c7.79-2.538,15.679-5.105,22.813-9.094s13.719-9.515,17.531-16.757a14.5,14.5,0,0,0,1.852-5.556,6.928,6.928,0,0,0-1.793-5.439" transform="translate(-349.329 -257.563)"/><path class="g" d="M395.117,295.22a2.333,2.333,0,0,1-.559.235l-1.636.559-1.176.392c-.431.157-.892.353-1.382.539-.98.4-2.136.8-3.342,1.382l-1.911.872c-.657.3-1.323.686-2.019,1.039-1.421.7-2.852,1.578-4.371,2.479a69.182,69.182,0,0,0-17.2,15.13c-1.078,1.392-2.146,2.7-3.008,4.018-.451.647-.9,1.254-1.294,1.872l-1.107,1.784c-.735,1.127-1.274,2.2-1.793,3.136-.255.47-.5.892-.715,1.3l-.539,1.117-.764,1.548a3.047,3.047,0,0,1-.294.529,2.174,2.174,0,0,1,.206-.568L352.9,331c.147-.353.323-.725.5-1.147s.431-.843.676-1.323c.5-.98,1.029-2.048,1.744-3.185l1.088-1.813c.382-.627.833-1.245,1.274-1.9.853-1.333,1.96-2.656,3-4.067a73.263,73.263,0,0,1,7.986-8.369,74.066,74.066,0,0,1,9.319-6.86c1.539-.892,2.989-1.774,4.42-2.45.706-.353,1.372-.725,2.048-1.029l1.96-.843a34.292,34.292,0,0,1,3.381-1.323c.5-.176.98-.363,1.4-.5l1.2-.353,1.666-.48a5.083,5.083,0,0,1,.559-.137Z" transform="translate(-349.382 -257.608)"/><path class="g" d="M367.809,310.31a78.094,78.094,0,0,1-8.5,2.744,83.3,83.3,0,0,1-8.643,2.273,84.277,84.277,0,0,1,8.506-2.744,84.2,84.2,0,0,1,8.633-2.273Z" transform="translate(-349.356 -257.91)"/><path class="g" d="M367.805,329.09a12.846,12.846,0,0,1-.186-2.646c-.049-1.637-.059-3.92,0-6.4s.2-4.763.333-6.4a14.768,14.768,0,0,1,.333-2.636,15.045,15.045,0,0,1,0,2.656c-.049,1.793-.118,3.979-.2,6.389s-.118,4.6-.157,6.389A15.864,15.864,0,0,1,367.805,329.09Z" transform="translate(-349.695 -257.924)"/><path class="g" d="M384.179,320.688c-.137,0-.559-4.6-.98-10.279a98.375,98.375,0,0,1-.47-10.309c.137-.01.559,4.586.98,10.28A98.431,98.431,0,0,1,384.179,320.688Z" transform="translate(-349.998 -257.706)"/><path class="g" d="M363.79,299.638a16.842,16.842,0,0,1,2.724-.078c1.685,0,4.008.059,6.566.147s4.9.186,6.556.284a14.7,14.7,0,0,1,2.714.265,14.275,14.275,0,0,1-2.724.078c-1.676,0-4-.059-6.566-.137s-4.9-.2-6.556-.294a14.7,14.7,0,0,1-2.714-.265Z" transform="translate(-349.619 -257.694)"/><path class="g" d="M404.786,357.463a4.352,4.352,0,0,1-.059-.559,14.064,14.064,0,0,0-.069-1.6c-.059-1.382-.078-3.4,0-5.88s.206-5.439.5-8.7.774-6.86,1.431-10.593,1.48-7.252,2.313-10.427,1.725-6,2.538-8.349,1.509-4.224,2.048-5.507l.617-1.47a2.811,2.811,0,0,1,.245-.5,1.869,1.869,0,0,1-.147.529c-.147.4-.323.892-.539,1.509-.48,1.3-1.137,3.195-1.9,5.546s-1.6,5.184-2.43,8.349-1.6,6.693-2.264,10.407-1.127,7.291-1.46,10.544-.519,6.2-.608,8.672-.137,4.478-.127,5.88v1.6A2.29,2.29,0,0,1,404.786,357.463Z" transform="translate(-350.438 -257.781)"/><path class="g" d="M406.748,330.26a11,11,0,0,1-1.617,1.774c-1.058,1.049-2.548,2.46-4.253,3.92s-3.293,2.793-4.469,3.7a11.443,11.443,0,0,1-1.96,1.372,12.544,12.544,0,0,1,1.764-1.646l4.361-3.792,4.341-3.832a12.74,12.74,0,0,1,1.832-1.5Z" transform="translate(-350.234 -258.311)"/><path class="g" d="M419.875,340.492a17.988,17.988,0,0,1-1.725-2.391c-1.117-1.617-2.489-3.635-4.018-5.88s-2.94-4.194-4.1-5.8a18.5,18.5,0,0,1-1.646-2.45,16.764,16.764,0,0,1,1.96,2.244c1.127,1.431,2.636,3.449,4.223,5.733s2.94,4.4,3.92,5.948a16.907,16.907,0,0,1,1.382,2.6Z" transform="translate(-350.514 -258.184)"/><path class="g" d="M412.834,307.58c.078.108-4.194,2.989-9.545,6.419s-9.731,6.134-9.8,6.017,4.2-2.94,9.545-6.428A114.143,114.143,0,0,1,412.834,307.58Z" transform="translate(-350.215 -257.856)"/><path class="g" d="M425.272,320.6a78.16,78.16,0,0,1-6.468-5.978,81.424,81.424,0,0,1-6.125-6.321,78.165,78.165,0,0,1,6.468,5.978,79.276,79.276,0,0,1,6.125,6.321Z" transform="translate(-350.6 -257.87)"/><path class="f" d="M428.619,320.03l3.675-.3a18.236,18.236,0,0,0,7.4-2.264,29.248,29.248,0,0,1,3.459-1.734c4.537-1.823,9.594-1.5,14.474-1.744a59.865,59.865,0,0,0,23.028-5.88,2.165,2.165,0,0,0,.98-.911c.755-1.372-.647-2.6-1.852-3.332-6.183-3.812-12.475-7.663-19.481-9.554s-14.964-1.578-20.941,2.538c-7.026,4.831-9.584,14.758-10.779,23.2" transform="translate(-350.919 -257.567)"/><path class="g" d="M481.744,306.793a2.853,2.853,0,0,1-.617-.284l-1.744-.911c-1.509-.794-3.675-1.96-6.419-3.283a59.607,59.607,0,0,0-9.946-3.832,32.827,32.827,0,0,0-12.876-1.039,22.009,22.009,0,0,0-11.759,5.037,26.2,26.2,0,0,0-6.115,8.594,70.636,70.636,0,0,0-2.665,6.693c-.265.764-.49,1.382-.647,1.842a2.81,2.81,0,0,1-.265.637,6.285,6.285,0,0,1,.167-.666c.147-.47.333-1.1.568-1.872a58.972,58.972,0,0,1,2.528-6.781,25.97,25.97,0,0,1,6.134-8.819,22.274,22.274,0,0,1,11.975-5.194,32.808,32.808,0,0,1,13.072,1.1,57.294,57.294,0,0,1,9.966,3.92c2.734,1.352,4.9,2.577,6.37,3.42l1.7.98A4.412,4.412,0,0,1,481.744,306.793Z" transform="translate(-350.921 -257.637)"/><path class="g" d="M473.407,311.548c-.078.118-4.9-2.94-10.711-6.928s-10.524-7.222-10.446-7.34,4.9,3,10.711,6.938S473.485,311.44,473.407,311.548Z" transform="translate(-351.394 -257.649)"/><path class="g" d="M468.985,296.82a11.378,11.378,0,0,1-3.743.745,11.621,11.621,0,0,1-3.822-.049,20.379,20.379,0,0,1,3.773-.431,21.2,21.2,0,0,1,3.792-.265Z" transform="translate(-351.578 -257.64)"/><path class="g" d="M447.118,292.88a13.493,13.493,0,0,1-1.578,3.146,13.259,13.259,0,0,1-1.96,2.94,24.97,24.97,0,0,1,3.567-6.046Z" transform="translate(-351.22 -257.561)"/><path class="g" d="M451.272,314.519a13.28,13.28,0,0,1-2.3-1.254c-1.392-.843-3.263-2.077-5.262-3.528s-3.763-2.832-5.037-3.832a15.148,15.148,0,0,1-1.96-1.705,12.739,12.739,0,0,1,2.2,1.431l5.115,3.714c1.96,1.45,3.832,2.714,5.164,3.626a15.86,15.86,0,0,1,2.087,1.548Z" transform="translate(-351.082 -257.788)"/><path class="f" d="M433.954,336.456c-3.5-.931-7.663,2.479-8.388,6.027s.608,7.173,2.166,10.436a53.269,53.269,0,0,0,14.474,18.932,35.8,35.8,0,0,0,22.117,8.143c-1.48-6.859.392-14.052-.431-21.029A27.36,27.36,0,0,0,439.706,335c-2.234-.235-4.821-.588-5.713,1.48" transform="translate(-350.854 -258.402)"/><path class="g" d="M464.5,380.029a2.3,2.3,0,0,1-.49-.235,8.014,8.014,0,0,1-1.313-.872,13.718,13.718,0,0,1-3.459-4.625c-.549-1.078-1.176-2.254-1.784-3.557s-1.225-2.7-1.882-4.165a40.252,40.252,0,0,0-2.313-4.449,35.774,35.774,0,0,0-3.185-4.331c-2.4-2.812-4.968-5.243-7.193-7.565a49.9,49.9,0,0,1-5.488-6.585,24.933,24.933,0,0,1-2.685-5.115,14.813,14.813,0,0,1-.461-1.509,3.5,3.5,0,0,1-.118-.529c.049,0,.245.715.755,1.96a26.653,26.653,0,0,0,2.793,4.988,52.315,52.315,0,0,0,5.517,6.468c2.244,2.293,4.831,4.723,7.251,7.565a35.2,35.2,0,0,1,3.214,4.4,39.358,39.358,0,0,1,2.313,4.508l1.842,4.184c.588,1.294,1.2,2.479,1.734,3.567a14.073,14.073,0,0,0,3.263,4.635C463.842,379.656,464.528,379.98,464.5,380.029Z" transform="translate(-351.03 -258.436)"/><path class="g" d="M446.66,374.772a10.962,10.962,0,0,1,.323-2.352c.274-1.44.725-3.42,1.323-5.576s1.264-4.077,1.784-5.448a10.333,10.333,0,0,1,.98-2.175,12.638,12.638,0,0,1-.627,2.293c-.431,1.392-1.029,3.322-1.636,5.468s-1.1,4.1-1.46,5.517a12.858,12.858,0,0,1-.686,2.273Z" transform="translate(-351.282 -258.892)"/><path class="g" d="M464.106,357.8a14,14,0,0,1-2.469-.559c-1.509-.4-3.587-.98-5.88-1.46s-4.429-.931-5.968-1.215a14.833,14.833,0,0,1-2.469-.549,12.221,12.221,0,0,1,2.528.206c1.548.206,3.685.559,6.007,1.088s4.41,1.117,5.88,1.6a12.351,12.351,0,0,1,2.371.892Z" transform="translate(-351.295 -258.787)"/><path class="g" d="M433.41,362.509a13.5,13.5,0,0,1,.382-2.724c.3-1.666.794-3.969,1.45-6.477s1.352-4.753,1.891-6.36a13.228,13.228,0,0,1,.98-2.558,18.394,18.394,0,0,1-.676,2.665c-.461,1.627-1.107,3.92-1.754,6.379s-1.2,4.772-1.587,6.428a16.073,16.073,0,0,1-.686,2.646Z" transform="translate(-351.016 -258.594)"/><path class="g" d="M455.861,342.848c0,.127-4.39-.225-9.8-.794a96.528,96.528,0,0,1-9.7-1.274,95.124,95.124,0,0,1,9.8.794A97.014,97.014,0,0,1,455.861,342.848Z" transform="translate(-351.075 -258.522)"/><path class="d" d="M451.6,396.935c0,.137-15.356.245-34.3.245s-34.3-.108-34.3-.245,15.346-.245,34.3-.245S451.6,396.808,451.6,396.935Z" transform="translate(-350.004 -259.644)"/><path class="d" d="M441.144,417.1c0,.127-10.348.245-23.107.245s-23.107-.118-23.107-.245,10.348-.245,23.107-.245S441.144,417,441.144,417.1Z" transform="translate(-350.244 -260.048)"/><path class="d" d="M441.554,419.995c0,.137-10.348.245-23.107.245s-23.107-.108-23.107-.245,10.348-.245,23.107-.245S441.554,419.848,441.554,419.995Z" transform="translate(-350.252 -260.106)"/><path class="d" d="M441.521,414.725c0,.137-10.7.245-23.9.245s-23.9-.108-23.9-.245,10.7-.245,23.9-.245S441.521,414.588,441.521,414.725Z" transform="translate(-350.219 -260.001)"/></g></g></svg>