<svg xmlns="http://www.w3.org/2000/svg" width="47.092" height="47.092" viewBox="0 0 47.092 47.092"><defs><style>.a{fill:#fff;}</style></defs><path class="a" d="M31.546,8A23.546,23.546,0,1,0,44.4,51.273a2.282,2.282,0,0,0,.527-3.358l-.966-1.18a2.272,2.272,0,0,0-2.979-.487,17.47,17.47,0,1,1-9.438-32.171c9.508,0,17.47,5.471,17.47,15.191,0,3.682-2,7.571-5.523,7.946-1.647-.043-1.606-1.221-1.279-2.851l2.225-11.5A2.279,2.279,0,0,0,42.2,20.153H37.93a1.283,1.283,0,0,0-1.275,1.139V21.3c-1.4-1.7-3.84-2.067-5.694-2.067-7.081,0-13.086,5.909-13.086,14.38,0,6.2,3.493,10.052,9.115,10.052a9.607,9.607,0,0,0,7.12-3.639c.9,3.238,3.856,3.238,6.713,3.238,10.34,0,14.27-6.8,14.27-14C55.092,16.322,44.65,8,31.546,8ZM29.488,36.9c-2.112,0-3.425-1.483-3.425-3.871,0-4.272,2.922-6.905,5.567-6.905,2.116,0,3.38,1.447,3.38,3.871C35.01,34.277,31.793,36.9,29.488,36.9Z" transform="translate(-8 -8)"/></svg>