<svg xmlns="http://www.w3.org/2000/svg" width="252.712" height="202.285" viewBox="0 0 252.712 202.285"><defs><style>.a{fill:#ccc;}.b{fill:#2f2e41;}.c{fill:#3f3d56;}.d{fill:#e6e6e6;}.e{fill:#111e6c;}.f{fill:#fff;}.g{fill:#e2e2e2;}</style></defs><path class="a" d="M414.865,327.278A74.01,74.01,0,1,1,467.2,305.6,74.01,74.01,0,0,1,414.865,327.278Zm0-147.452a73.441,73.441,0,1,0,73.441,73.442,73.525,73.525,0,0,0-73.441-73.442Z" transform="translate(-288.243 -155.158)"/><rect class="b" width="74.561" height="55.494" transform="translate(154.103 108.657) rotate(90)"/><rect class="c" width="74.561" height="29.597" transform="translate(89.075 106.38)"/><rect class="c" width="74.561" height="29.597" transform="translate(89.075 139.392)"/><rect class="c" width="74.561" height="29.597" transform="translate(89.075 172.404)"/><rect class="d" width="74.561" height="4.553" transform="translate(89.075 118.929)"/><rect class="d" width="74.561" height="4.553" transform="translate(89.075 151.941)"/><rect class="d" width="74.561" height="4.553" transform="translate(89.075 184.953)"/><circle class="e" cx="1.708" cy="1.708" r="1.708" transform="translate(147.415 108.941)"/><circle class="e" cx="1.708" cy="1.708" r="1.708" transform="translate(153.392 108.941)"/><circle class="e" cx="1.708" cy="1.708" r="1.708" transform="translate(159.368 108.941)"/><circle class="e" cx="1.708" cy="1.708" r="1.708" transform="translate(147.415 141.384)"/><circle class="e" cx="1.708" cy="1.708" r="1.708" transform="translate(153.392 141.384)"/><circle class="e" cx="1.708" cy="1.708" r="1.708" transform="translate(159.368 141.384)"/><circle class="e" cx="1.708" cy="1.708" r="1.708" transform="translate(147.415 173.827)"/><circle class="e" cx="1.708" cy="1.708" r="1.708" transform="translate(153.392 173.827)"/><circle class="e" cx="1.708" cy="1.708" r="1.708" transform="translate(159.368 173.827)"/><path class="c" d="M252.712,1.018h0Z" transform="translate(0 201.268)"/><path class="d" d="M325.172,355.164v52.931A4.176,4.176,0,0,1,321,412.27h-20.57a4.177,4.177,0,0,1-4.177-4.176v-52.93a4.177,4.177,0,0,1,4.177-4.175h2.5a1.986,1.986,0,0,0,1.837,2.734h11.727a1.986,1.986,0,0,0,1.837-2.734H321a4.176,4.176,0,0,1,4.176,4.175Z" transform="translate(-256.337 -278.023)"/><rect class="f" width="26.182" height="36.427" transform="translate(41.283 83.073)"/><rect class="d" width="10.45" height="0.597" transform="translate(48.717 108.122)"/><rect class="e" width="16.169" height="0.597" transform="translate(48.707 110.314)"/><rect class="d" width="12.689" height="0.597" transform="translate(48.707 112.38)"/><rect class="d" width="7.464" height="0.597" transform="translate(48.707 114.446)"/><rect class="d" width="11.196" height="0.597" transform="translate(48.707 116.511)"/><rect class="d" width="1.194" height="1.194" transform="translate(43.978 107.95)"/><rect class="e" width="1.194" height="1.194" transform="translate(43.978 110.016)"/><rect class="d" width="1.194" height="1.194" transform="translate(43.978 112.081)"/><rect class="d" width="1.194" height="1.194" transform="translate(43.978 114.147)"/><rect class="d" width="1.194" height="1.194" transform="translate(43.978 116.213)"/><rect class="d" width="10.529" height="10.529" transform="translate(49.162 87.627)"/><rect class="d" width="69.975" height="44.815" transform="translate(91.384 0.04)"/><rect class="f" width="58.016" height="21.923" transform="translate(96.659 12.577)"/><rect class="d" width="13.924" height="0.796" transform="translate(107.229 16.376)"/><rect class="e" width="21.545" height="0.796" transform="translate(107.215 19.297)"/><rect class="d" width="16.908" height="0.796" transform="translate(107.215 22.049)"/><rect class="d" width="9.946" height="0.796" transform="translate(107.215 24.802)"/><rect class="d" width="14.918" height="0.796" transform="translate(107.215 27.554)"/><rect class="d" width="1.591" height="1.591" transform="translate(100.914 16.147)"/><rect class="e" width="1.591" height="1.591" transform="translate(100.914 18.899)"/><rect class="d" width="1.591" height="1.591" transform="translate(100.914 21.652)"/><rect class="d" width="1.591" height="1.591" transform="translate(100.914 24.404)"/><rect class="d" width="1.591" height="1.591" transform="translate(100.914 27.156)"/><rect class="d" width="14.246" height="14.246" transform="translate(137.581 15.324)"/><rect class="e" width="69.975" height="2.973" transform="translate(91.354)"/><circle class="f" cx="0.597" cy="0.597" r="0.597" transform="translate(92.966 0.923)"/><circle class="f" cx="0.597" cy="0.597" r="0.597" transform="translate(95.057 0.923)"/><circle class="f" cx="0.597" cy="0.597" r="0.597" transform="translate(97.149 0.923)"/><rect class="d" width="17.075" height="8.822" transform="translate(191.141 83.898)"/><rect class="d" width="17.075" height="8.822" transform="translate(191.141 115.487)"/><circle class="d" cx="14.229" cy="14.229" r="14.229" transform="translate(185.45 89.874)"/><circle class="f" cx="11.099" cy="11.099" r="11.099" transform="translate(188.58 93.005)"/><rect class="g" width="8.608" height="0.492" transform="translate(196.044 101.063)"/><rect class="e" width="13.319" height="0.492" transform="translate(196.036 102.869)"/><rect class="g" width="10.452" height="0.492" transform="translate(196.036 104.57)"/><rect class="g" width="6.148" height="0.492" transform="translate(196.036 106.272)"/><rect class="g" width="9.223" height="0.492" transform="translate(196.036 107.973)"/><rect class="g" width="0.984" height="0.984" transform="translate(192.141 100.921)"/><rect class="e" width="0.984" height="0.984" transform="translate(192.141 102.623)"/><rect class="g" width="0.984" height="0.984" transform="translate(192.141 104.324)"/><rect class="g" width="0.984" height="0.984" transform="translate(192.141 106.026)"/><rect class="g" width="0.984" height="0.984" transform="translate(192.141 107.727)"/></svg>