<svg xmlns="http://www.w3.org/2000/svg" width="56.177" height="64.5" viewBox="0 0 56.177 64.5"><g transform="translate(-0.004 -0.001)"><path d="M101.462,47.637a5.2,5.2,0,0,0-3.377,4.854,5.14,5.14,0,0,0,.6,2.367,4.143,4.143,0,0,0,0,7.75,5.139,5.139,0,0,0-.6,2.367,5.2,5.2,0,0,0,3.377,4.854,4.1,4.1,0,0,0-.256,1.388,4.133,4.133,0,0,0,5.628,3.881,4.151,4.151,0,0,0,7.9-1.8V44.169a4.151,4.151,0,0,0-7.9-1.8,4.123,4.123,0,0,0-5.372,5.269Zm3.905-3.468a2.083,2.083,0,0,1,2.081,2.081h2.081a4.121,4.121,0,0,0-.959-2.625,2.076,2.076,0,0,1,4.08.544V73.3a2.076,2.076,0,0,1-4.08.544,4.12,4.12,0,0,0,.959-2.625h-2.081a2.081,2.081,0,1,1-2.081-2.081V67.056a4.122,4.122,0,0,0-2.653.982,3.119,3.119,0,1,1,3.693-3.063h2.081a5.207,5.207,0,0,0-5.2-5.2,5.146,5.146,0,0,0-3.121,1.068v-.027a2.081,2.081,0,0,1,0-4.161v-.027a5.146,5.146,0,0,0,3.121,1.067,5.207,5.207,0,0,0,5.2-5.2h-2.081a3.121,3.121,0,1,1-3.693-3.063,4.121,4.121,0,0,0,2.653.982V48.33a2.081,2.081,0,0,1,0-4.161Zm0,0" transform="translate(-83.517 -34.804)"/><path d="M265.367,42.088a4.138,4.138,0,0,0-1.466.28,4.151,4.151,0,0,0-7.9,1.8V73.3a4.151,4.151,0,0,0,7.9,1.8,4.133,4.133,0,0,0,5.628-3.881,4.091,4.091,0,0,0-.256-1.388,5.2,5.2,0,0,0,3.377-4.854,5.139,5.139,0,0,0-.6-2.367,4.143,4.143,0,0,0,0-7.75,5.139,5.139,0,0,0,.6-2.367,5.2,5.2,0,0,0-3.377-4.854,4.089,4.089,0,0,0,.256-1.388,4.166,4.166,0,0,0-4.161-4.161Zm5.2,10.4a3.121,3.121,0,1,1-6.242,0h-2.081a5.207,5.207,0,0,0,5.2,5.2,5.146,5.146,0,0,0,3.121-1.067v.027a2.081,2.081,0,1,1,0,4.161v.027a5.146,5.146,0,0,0-3.121-1.068,5.208,5.208,0,0,0-5.2,5.2h2.081a3.121,3.121,0,1,1,3.693,3.063,4.124,4.124,0,0,0-2.653-.982v2.081a2.081,2.081,0,1,1-2.081,2.081h-2.081a4.12,4.12,0,0,0,.959,2.625,2.076,2.076,0,0,1-4.08-.544V44.169a2.076,2.076,0,0,1,4.08-.544,4.121,4.121,0,0,0-.959,2.625h2.081a2.081,2.081,0,1,1,2.081,2.081v2.081a4.124,4.124,0,0,0,2.653-.982,3.121,3.121,0,0,1,2.548,3.063Zm0,0" transform="translate(-222.71 -34.804)"/><path d="M104.317,6.49A23.729,23.729,0,0,0,86.407.05l.129,2.076A21.844,21.844,0,0,1,99.991,42.143a12.861,12.861,0,0,0-4.7,5.713H80.537A13.072,13.072,0,0,0,75.813,42.1,21.749,21.749,0,0,1,66.1,23.232l-2.08-.065A23.815,23.815,0,0,0,74.657,43.828a10.961,10.961,0,0,1,3.6,4.028h-2.8v2.081h3.634a12.006,12.006,0,0,1,.445,2.081h-2V54.1h2.081v3.121a1.04,1.04,0,0,0,1.04,1.04h1.04a6.242,6.242,0,1,0,12.484,0h1.04a1.04,1.04,0,0,0,1.04-1.04V54.1h2.081V52.017H96.331a11.6,11.6,0,0,1,.418-2.081h3.67V47.856H97.57a10.727,10.727,0,0,1,3.571-3.978A23.923,23.923,0,0,0,104.317,6.49ZM87.935,62.42a4.165,4.165,0,0,1-4.161-4.161H92.1A4.165,4.165,0,0,1,87.935,62.42Zm6.242-6.242H81.693V54.1H94.177Zm.074-4.161H81.61a14.167,14.167,0,0,0-.353-2.081H94.575a13.821,13.821,0,0,0-.324,2.081Zm0,0" transform="translate(-55.682 0)"/><path d="M49.044,7.29a4.166,4.166,0,0,1,4.161,4.161,1.04,1.04,0,1,0,2.081,0A4.166,4.166,0,0,1,59.447,7.29a1.04,1.04,0,1,0,0-2.081,4.165,4.165,0,0,1-4.161-4.161,1.04,1.04,0,1,0-2.081,0,4.165,4.165,0,0,1-4.161,4.161,1.04,1.04,0,0,0,0,2.081Zm5.2-2.8A6.3,6.3,0,0,0,56,6.25,6.3,6.3,0,0,0,54.246,8,6.3,6.3,0,0,0,52.491,6.25,6.289,6.289,0,0,0,54.246,4.495Zm0,0" transform="translate(-41.758 -0.006)"/><path d="M11.447,87.29a1.04,1.04,0,0,0,0-2.081,4.165,4.165,0,0,1-4.161-4.161,1.04,1.04,0,0,0-2.081,0A4.165,4.165,0,0,1,1.044,85.21a1.04,1.04,0,0,0,0,2.081,4.166,4.166,0,0,1,4.161,4.161,1.04,1.04,0,0,0,2.081,0A4.166,4.166,0,0,1,11.447,87.29ZM6.246,88A6.3,6.3,0,0,0,4.491,86.25a6.3,6.3,0,0,0,1.755-1.755A6.309,6.309,0,0,0,8,86.25,6.3,6.3,0,0,0,6.246,88Zm0,0" transform="translate(0 -69.603)"/></g></svg>