<svg xmlns="http://www.w3.org/2000/svg" width="229.175" height="190.779" viewBox="0 0 229.175 190.779"><defs><style>.a{fill:#feb8b8;}.b{fill:#2f2e41;}.c{fill:#f0f0f0;}.d{opacity:0.1;}.e{fill:#e6e6e6;}.f{fill:#fff;}.g{fill:#111e6c;}</style></defs><path class="a" d="M849.487,759.2l.4,5.291,8.068-2.645-3.306-3.968Z" transform="translate(-810.97 -579.057)"/><path class="a" d="M961.259,752.138l.4,5.158,4.5.661,2.645-2.513-3.042-4.894Z" transform="translate(-952.106 -573.718)"/><path class="b" d="M857.077,509.347s-3.571,4.232.926,10.713,9.92,12.83,9.92,12.83l10.053,19.046s5.158,18.649,6.349,19.178,1.852-1.587,1.19.661-.265,2.116.264,2.249,1.984-.132,1.455.794-.926.926.132.926,1.455-.661,1.455.265a12.014,12.014,0,0,0,.926,3.042s6.481-1.852,6.746-2.645-1.719-1.19-1.323-1.984a2.956,2.956,0,0,0,.529-1.984,1.41,1.41,0,0,0-.794-1.455s-.661-.264-.4-.794,1.323-.264,0-.926-6.746-20.9-6.746-20.9,0-10.053-1.719-13.359-.4-26.85-4.5-27.114S857.077,509.347,857.077,509.347Z" transform="translate(-851.229 -396.795)"/><path class="b" d="M952.154,541.157l.794,20.5s-3.968,19.84-2.645,25.924.4,5.291,1.19,6.349,1.455.529.794,1.455-1.057,1.19,0,2.249a8.936,8.936,0,0,1,1.587,3.571l6.745-.661s-1.719-3.042-1.057-3.7,2.381.4,1.057-1.057-2.116-.794-1.323-1.455,1.984-.4.926-1.455-2.249-1.057-1.19-1.455,2.249,0,1.719-.794-1.19-1.719-1.19-1.719l1.587-12.036s1.852-3.968,1.323-5.687,2.249-15.872,2.249-15.872Z" transform="translate(-944.984 -421.066)"/><path class="b" d="M931.259,754.766s-1.323-1.323-1.719-.529-3.306,7.936-1.587,8.465,4.232,1.057,5.555.661,4.1-2.249,7.407-2.249S947,759.659,947,759.13s.529-3.7-1.984-3.7-7.142-2.91-7.142-2.91-1.057-2.116-1.587-1.984-.132,4.365-.132,4.365S933.111,757.808,931.259,754.766Z" transform="translate(-921.18 -573.701)"/><path class="b" d="M806.322,757.516s-1.19-2.91-2.381-2.249-.4,8.861-.4,8.861,1.057,1.719,4.1,1.323,11.11-1.323,12.962-.926,6.878-1.852,5.555-4.894c0,0-.661-1.719-3.836-1.587s-8.994-3.7-8.994-3.7-.926-2.645-1.19-2.381-.529,4.894-.529,4.894S808.173,759.1,806.322,757.516Z" transform="translate(-766.879 -574.731)"/><circle class="a" cx="7.671" cy="7.671" r="7.671" transform="translate(14.444 45.494)"/><path class="a" d="M936.514,296.132s-4.1,8.2-5.555,8.994,9.92,5.688,9.92,5.688,1.852-8.068,4.1-9.788S936.514,296.132,936.514,296.132Z" transform="translate(-920.35 -242.438)"/><path class="a" d="M902.3,541.818l.529,5.026s5.687-1.984,3.836-5.687Z" transform="translate(-874.363 -421.066)"/><path class="c" d="M934.338,384.823c-3.968,4.231-25,.66-25,.66l.263-3.042-2.645-2.776.793-12.963a52.189,52.189,0,0,1-2.776-15.342,8.347,8.347,0,0,1,.1-1.7c1.364-8.294,14.869-13.636,15.24-13.51.187.061,2.175,1.1,4.249,2.187,2.382,1.251,4.876,2.574,4.876,2.574,3.175,1.192,2.645,20.239,3.7,21.958s0,7.669,0,7.669l1.19,5.687S938.307,380.592,934.338,384.823Z" transform="translate(-904.155 -271.609)"/><path class="d" d="M919.6,359.723s-3.7,11.11-2.91,18.649,9.391,29.1,9.391,29.1l2.908,1.587v3.7l2.047-5.544-5.628-11.768S932.432,354.83,919.6,359.723Z" transform="translate(-902.237 -288.499)"/><path class="d" d="M965.879,339.5c-3.837-2.116-9.657,3.441-15.741,9.391-2.185,2.136-3.449,1.921-4.173.767,1.364-8.294,14.869-13.636,15.24-13.51.187.062,2.175,1.1,4.249,2.187Z" transform="translate(-945.042 -271.609)"/><path class="c" d="M966.808,326.839l-1.587-4.365s-10.846-5.158-17.988,0l-1.19,7.407s-1.057,12.3,5.026,6.349S962.973,324.723,966.808,326.839Z" transform="translate(-945.972 -259.97)"/><path class="c" d="M903.271,353.177s-3.7,11.11-2.91,18.649,9.391,29.1,9.391,29.1l2.91,1.588v3.7l6.084-1.719-1.323-4.365s2.116-2.645.661-3.439-1.19-5.158-1.19-5.158S916.1,348.284,903.271,353.177Z" transform="translate(-885.52 -283.744)"/><path class="b" d="M915.722,263.474a6.546,6.546,0,0,1,.392-1.766,2.8,2.8,0,0,1,2.311-1.217c1.156-.1,2.32.1,3.477.02a3.611,3.611,0,0,0,2.97-1.527,7,7,0,0,1,.648-1.223,2.521,2.521,0,0,1,2.7-.3,5.018,5.018,0,0,0,2.794.521,6.262,6.262,0,0,0-1.85-6.345,14.39,14.39,0,0,0-6.155-3.148c-2.949-.859-6.267-1.367-8.978.076-3.931,2.092-5.318,7.63-4.956,11.758.137,1.56.361,3.327,1.623,4.38C912.549,266.246,915.163,266.114,915.722,263.474Z" transform="translate(-900.445 -207.097)"/><rect class="e" width="165.694" height="106.118" transform="translate(63.41 0.094)"/><rect class="f" width="156.218" height="86.53" transform="translate(67.606 13.404)"/><rect class="g" width="165.694" height="7.039" transform="translate(63.481)"/><circle class="f" cx="1.305" cy="1.305" r="1.305" transform="translate(222.639 2.294)"/><circle class="f" cx="1.305" cy="1.305" r="1.305" transform="translate(217.687 2.294)"/><circle class="f" cx="1.305" cy="1.305" r="1.305" transform="translate(212.735 2.294)"/><path class="g" d="M262,192.2l10.333,10.2L262,212.613l-2.325-2.325,7.814-7.815-7.879-7.879Z" transform="translate(-65.507 -166.673)"/><path class="g" d="M330.5,192.2l-10.333,10.2,10.333,10.2,2.325-2.325-7.814-7.815,7.88-7.879Z" transform="translate(-142.473 -166.673)"/><path class="e" d="M520.354,201.655c.845,0,1.53.486,1.53,1.086s-.685,1.086-1.53,1.086H448.215c-.845,0-1.53-.486-1.53-1.086s.685-1.086,1.53-1.086Z" transform="translate(-365.751 -173.562)"/><path class="e" d="M262.015,354.908H383.371c1.241,0,2.246-.716,2.247-1.6V331.891c0-.883-1.007-1.6-2.247-1.6H262.015c-1.241,0-2.246.716-2.247,1.6v21.419C259.769,354.192,260.775,354.907,262.015,354.908Zm121.355-23.977c.744,0,1.348.43,1.348.959v21.419c0,.529-.6.959-1.348.959H262.015c-.744,0-1.348-.43-1.348-.959V331.891c0-.529.6-.959,1.348-.959Z" transform="translate(-178.834 -267.341)"/><circle class="e" cx="5.429" cy="5.429" r="5.429" transform="translate(186.61 69.821)"/><path class="g" d="M418.94,359.655a1.086,1.086,0,0,1,0,2.171h-51.18a1.086,1.086,0,0,1,0-2.171Z" transform="translate(-242.213 -288.747)"/><path class="g" d="M389.785,383.692a1.086,1.086,0,0,1,0,2.171H367.764a1.086,1.086,0,1,1,0-2.171Z" transform="translate(-213.059 -306.271)"/><path class="e" d="M494.972,225.655a1.089,1.089,0,0,1,0,2.171H447.694a1.089,1.089,0,0,1,0-2.171Z" transform="translate(-339.842 -191.059)"/><path class="e" d="M509.973,249.655a1.105,1.105,0,1,1,0,2.171H448a1.105,1.105,0,1,1,0-2.171Z" transform="translate(-355.154 -208.555)"/></svg>