<svg xmlns="http://www.w3.org/2000/svg" width="59.072" height="67.511" viewBox="0 0 59.072 67.511"><defs><style>.a{fill:#e6e6e6;}</style></defs><path class="a" d="M59.072,9.644v6.028c0,5.312-13.23,9.644-29.536,9.644S0,20.984,0,15.672V9.644C0,4.332,13.23,0,29.536,0S59.072,4.332,59.072,9.644Zm0,13.562V36.769c0,5.312-13.23,9.644-29.536,9.644S0,42.081,0,36.769V23.207c6.346,4.37,17.96,6.4,29.536,6.4S52.726,27.577,59.072,23.207Zm0,21.1V57.866c0,5.312-13.23,9.644-29.536,9.644S0,63.178,0,57.866V44.3c6.346,4.37,17.96,6.4,29.536,6.4S52.726,48.674,59.072,44.3Z"/></svg>