<svg xmlns="http://www.w3.org/2000/svg" width="54.822" height="54.821" viewBox="0 0 54.822 54.821"><g transform="translate(-1 -1)"><path d="M55.822,14.055V9.168L53.5,8.533c-.076-.2-.161-.4-.253-.606l1.195-2.091L50.987,2.38,48.9,3.575c-.2-.092-.4-.177-.606-.253L47.655,1H42.768l-.635,2.321c-.2.076-.4.161-.606.253L39.436,2.379,35.981,5.835l1.195,2.091c-.05.109-.088.22-.133.331a11.308,11.308,0,0,0-2.62.78A15.024,15.024,0,0,0,7.19,17.8c0,.02,0,.041,0,.061a7.071,7.071,0,0,0,.882,14.086h.518L20.453,43.809V55.822H36.369V43.809L48.23,31.948h.518a7.069,7.069,0,0,0,4.02-12.887l1.675-1.675-1.195-2.091c.092-.2.177-.4.253-.606ZM34.6,43.076V54.053H22.221V43.076L9.431,30.286A1.617,1.617,0,0,1,11.718,28l6.909,6.909a9.794,9.794,0,0,0,5.5,2.752l2.3.329-.7,8.44,2.684,2.684,2.684-2.684-.7-8.446,2.3-.323a9.794,9.794,0,0,0,5.5-2.752L45.1,28a1.617,1.617,0,0,1,2.287,2.286ZM21.4,31.948a7.039,7.039,0,0,0,1.559,3.616,8.009,8.009,0,0,1-3.08-1.9l-1.711-1.711Zm14.025,0h3.232l-1.712,1.712a8.019,8.019,0,0,1-3.08,1.9,7.046,7.046,0,0,0,1.56-3.616ZM29.264,45.76l-.853.853-.853-.853.635-7.628h.131c.029,0,.058,0,.088,0h.218Zm-.853-9.391a5.305,5.305,0,1,1,5.305-5.305A5.311,5.311,0,0,1,28.411,36.369ZM54.053,24.874a5.31,5.31,0,0,1-4.582,5.25,3.35,3.35,0,0,0,.161-.981,3.385,3.385,0,0,0-5.778-2.394l-3.43,3.43h-5a7.067,7.067,0,0,0-14.025,0h-5l-3.43-3.43A3.365,3.365,0,0,0,7.35,30.123a5.3,5.3,0,1,1,5.077-8.282l1.451-1.012a7.09,7.09,0,0,0-4.918-2.972c0-.019,0-.037,0-.057a13.256,13.256,0,0,1,24.417-7.159l.437.679.716-.373a9.623,9.623,0,0,1,4.494-1.105,9.773,9.773,0,0,1,9.564,7.966,7.079,7.079,0,0,0-6.911,7.066h1.768a5.305,5.305,0,1,1,10.611,0ZM48.444,13.024a11.619,11.619,0,0,0-5.4-4.207,3.526,3.526,0,0,1,5.4,4.207Zm3.792,4.066-1.125,1.125A7,7,0,0,0,50.4,18a11.314,11.314,0,0,0-.948-3.237,5.292,5.292,0,0,0-8.355-6.5,11.382,11.382,0,0,0-2.012-.192l.1-.195-1-1.751,1.546-1.546,1.751,1,.429-.228a6.967,6.967,0,0,1,1.211-.506l.463-.142.532-1.941H46.3l.531,1.939.463.142a7.036,7.036,0,0,1,1.211.506l.429.228,1.751-1L52.236,6.13l-1,1.751.228.429a6.966,6.966,0,0,1,.506,1.211l.142.463,1.94.533V12.7l-1.939.531-.142.463a7.036,7.036,0,0,1-.506,1.211l-.228.429Z"/><path d="M38.548,21.543l1.143,1.143H20.971l1.143-1.143-1.25-1.25-3.278,3.278,3.278,3.278,1.25-1.25-1.143-1.143H39.691L38.548,25.6l1.25,1.25,3.278-3.278L39.8,20.293Z" transform="translate(-1.92 -2.234)"/><path d="M29.044,7.675a11.348,11.348,0,0,0-1.917-.5l-.292,1.745a9.728,9.728,0,0,1,1.62.418Z" transform="translate(-2.991 -0.715)"/><path d="M23.516,7A11.454,11.454,0,0,0,12.18,16.581l1.745.292a9.689,9.689,0,0,1,9.591-8.1Z" transform="translate(-1.294 -0.695)"/></g></svg>