<svg xmlns="http://www.w3.org/2000/svg" width="38.692" height="37.725" viewBox="0 0 38.692 37.725"><path d="M12.942,38.376c0,.156-.179.281-.406.281-.257.023-.437-.1-.437-.281,0-.156.179-.281.406-.281C12.739,38.072,12.942,38.2,12.942,38.376Zm-2.426-.351c-.055.156.1.335.335.382a.366.366,0,0,0,.484-.156c.047-.156-.1-.335-.335-.406A.4.4,0,0,0,10.516,38.025Zm3.448-.133c-.226.055-.382.2-.359.382.023.156.226.257.46.2s.382-.2.359-.359S14.19,37.869,13.963,37.893ZM19.1,8A18.706,18.706,0,0,0,0,27.034a19.557,19.557,0,0,0,13.222,18.66c1,.179,1.35-.437,1.35-.944,0-.484-.023-3.152-.023-4.79,0,0-5.461,1.17-6.607-2.325,0,0-.889-2.27-2.169-2.855,0,0-1.786-1.225.125-1.2a4.118,4.118,0,0,1,3.011,2.013,4.124,4.124,0,0,0,5.687,1.63,4.336,4.336,0,0,1,1.248-2.629c-4.361-.484-8.76-1.116-8.76-8.62a5.912,5.912,0,0,1,1.841-4.595,7.37,7.37,0,0,1,.2-5.3c1.63-.507,5.383,2.106,5.383,2.106a18.429,18.429,0,0,1,9.8,0s3.752-2.621,5.383-2.106a7.367,7.367,0,0,1,.2,5.3,6.064,6.064,0,0,1,2.013,4.595c0,7.528-4.595,8.128-8.955,8.62a4.613,4.613,0,0,1,1.326,3.62c0,2.629-.023,5.882-.023,6.521,0,.507.359,1.123,1.35.944a19.377,19.377,0,0,0,13.09-18.644C38.692,16.214,29.916,8,19.1,8ZM7.582,34.905c-.1.078-.078.257.055.406.125.125.3.179.406.078.1-.078.078-.257-.055-.406C7.863,34.858,7.684,34.8,7.582,34.905Zm-.842-.632c-.055.1.023.226.179.3a.232.232,0,0,0,.335-.055c.055-.1-.023-.226-.179-.3C6.919,34.172,6.795,34.2,6.74,34.273ZM9.267,37.05c-.125.1-.078.335.1.484.179.179.406.2.507.078.1-.1.055-.335-.1-.484C9.6,36.949,9.369,36.926,9.267,37.05ZM8.378,35.9c-.125.078-.125.281,0,.46s.335.257.437.179a.356.356,0,0,0,0-.484c-.109-.179-.312-.257-.437-.156Z" transform="translate(0 -8)"/></svg>