<svg xmlns="http://www.w3.org/2000/svg" width="202.13" height="168.978" viewBox="0 0 202.13 168.978"><defs><style>.a{fill:#d0cde1;}.b{fill:#3f3d56;}.c{fill:#fff;}.d{opacity:0.1;}.e{fill:#6c63ff;}.f{fill:#2f2e41;}.g{fill:#ffb8b8;}.h{fill:#0c154a;}.i{fill:#111e6c;}.j{opacity:0.2;}</style></defs><path class="a" d="M577.649,115.836l98.259,46.08a4.291,4.291,0,0,1,2.549,4.164l-5.709,78.878a2.138,2.138,0,0,1-1.158,1.721,2.449,2.449,0,0,1-2.178.051l-100.5-47.842,5.159-81.129a2.292,2.292,0,0,1,1.233-1.861A2.628,2.628,0,0,1,577.649,115.836Z" transform="translate(-476.338 -115.59)"/><path class="b" d="M582.4,122.215l95.845,44.948a4.186,4.186,0,0,1,2.486,4.062l-5.569,76.94a2.085,2.085,0,0,1-1.129,1.679,2.389,2.389,0,0,1-2.124.049L573.88,203.227l5.033-79.136a2.236,2.236,0,0,1,1.2-1.815A2.564,2.564,0,0,1,582.4,122.215Z" transform="translate(-479.959 -120.362)"/><path class="c" d="M600.056,145.911l86.881,40.744a3.794,3.794,0,0,1,2.254,3.682l-5.048,69.744a1.891,1.891,0,0,1-1.024,1.522,2.165,2.165,0,0,1-1.926.045l-88.862-42.3,4.562-71.734a2.026,2.026,0,0,1,1.09-1.645,2.324,2.324,0,0,1,2.073-.055Z" transform="translate(-493.413 -138.088)"/><path class="a" d="M285.819,482.084,384.2,528.3a6.975,6.975,0,0,0,5.9-.007l72.782-34.463a2.7,2.7,0,0,0,.461-2.861,6.139,6.139,0,0,0-.538-1.237l-9.918-4.866L369.5,446.058l-4.982-2.467a9.816,9.816,0,0,0-8.569-.032l-70.164,34a2.467,2.467,0,0,0,.031,4.529Z" transform="translate(-268.824 -359.975)"/><path class="d" d="M285.815,590.987,384.2,637.2a6.974,6.974,0,0,0,5.9-.007l72.782-34.463a2.7,2.7,0,0,0,.461-2.861l-72.564,35.182a6.737,6.737,0,0,1-5.742.046L284.347,588.308A2.49,2.49,0,0,0,285.815,590.987Z" transform="translate(-268.82 -468.877)"/><path class="d" d="M486.11,607.967l-31.862-15.018a4.764,4.764,0,0,0-4.129.044L431.636,602.2a1.2,1.2,0,0,0,.028,2.189l32.486,15.281a3.914,3.914,0,0,0,3.463-.074l18.557-9.752a1.049,1.049,0,0,0,.579-.957A1.061,1.061,0,0,0,486.11,607.967Z" transform="translate(-375.733 -472.01)"/><path class="d" d="M549.257,504.04,514.97,521.03a2.968,2.968,0,0,1-2.567.024l-96.873-45.7a1.493,1.493,0,0,1,.012-2.749l33.482-15.458a3.866,3.866,0,0,1,3.244.011l96.973,45.576a.711.711,0,0,1,.015,1.3Z" transform="translate(-363.84 -370.595)"/><path class="e" d="M0,0,.364.01l.948,34.769-.364-.01Z" transform="matrix(0.447, -0.894, 0.894, 0.447, 130.546, 49.033)"/><path class="e" d="M0,0,.364.01l.965,34.923-.364-.01Z" transform="translate(130.541 53.342) rotate(-62.909)"/><path class="e" d="M0,0,.364.01l.553,20L.553,20Z" transform="translate(136.314 61.581) rotate(-62.935)"/><path class="b" d="M334.567,425.17s-7.687-3.125-11.3.176S332.936,427.56,334.567,425.17Z" transform="translate(-296.775 -345.955)"/><path class="f" d="M313.635,357.827c2.583-4.072,7.694-4.261,7.694-4.261s4.98-.594,8.175,5.607c2.978,5.78,7.087,11.36.662,12.713L329,368.516l-.719,3.621a26.939,26.939,0,0,1-2.749.044c-6.881-.207-13.435.061-13.224-2.243C312.593,366.876,311.15,361.745,313.635,357.827Z" transform="translate(-289.117 -293.43)"/><path class="g" d="M289.247,662.62s3.261,5.649,5.358,5.649,1.864,3.694,1.4,4.563a4.874,4.874,0,0,0,.233,5.649,3.26,3.26,0,0,1,.107,3.144c-1.2,2.911-5.852,2.029-5.7-1.085,0-.034,0-.069.006-.1.233-3.476-1.631-8.908-3.494-10.212s-3.494-4.78-3.494-4.78Z" transform="translate(-268.344 -524.414)"/><path class="g" d="M366.813,657.46s-3.261,5.649-5.358,5.649-1.863,3.694-1.4,4.563a4.874,4.874,0,0,1-.233,5.649,3.26,3.26,0,0,0-.107,3.145c1.2,2.91,5.852,2.029,5.7-1.085,0-.034,0-.069-.006-.1-.233-3.477,1.631-8.908,3.494-10.212s3.494-4.78,3.494-4.78Z" transform="translate(-323.548 -520.558)"/><path class="h" d="M267.824,540.309l1.4,2.825s20.5,6.3,18.635,13.689-10.948,18.9-12.346,18.469-8.852-1.738-9.085-5.432,5.358-10.212,5.358-10.212l-7.687-6.518-11.186-.217-9.546,6.736s10.016,8.257,5.591,11.516-10.948,5.432-11.88,4.128-11.414-20.642-9.783-22.38,18.169-8.256,18.169-8.256l4.426-5.867,17.237-.869Z" transform="translate(-227.121 -431.218)"/><path class="g" d="M334.954,400.62s-1.165,7.17,1.165,8.039-4.659,4.563-4.659,4.563H327.5l-2.562-5s2.329-3.911.932-7.6S334.954,400.62,334.954,400.62Z" transform="translate(-298.444 -327.381)"/><path class="d" d="M334.954,400.62s-1.165,7.17,1.165,8.039-4.659,4.563-4.659,4.563H327.5l-2.562-5s2.329-3.911.932-7.6S334.954,400.62,334.954,400.62Z" transform="translate(-298.444 -327.381)"/><path class="a" d="M327.805,429.557s-2.562,2.607-3.028,3.042-2.562,2.825-6.988-.652-4.892.652-4.892.652v26.073s3.727-1.521,6.755,0,9.318-.435,9.318-.435l1.165-26.943Z" transform="translate(-289.665 -350.234)"/><path class="i" d="M353.568,428.414a5.717,5.717,0,0,1,4.04,0c1.864.869,8.386,5.215,7.92,7.17s-6.522,15.644-2.329,22.163S368.091,466,368.091,466l-10.249-5s-7.92-4.563-7.221-7.388S353.568,428.414,353.568,428.414Z" transform="translate(-317.139 -349.091)"/><path class="i" d="M289.608,429.557s-4.889.435-5.122.869-7.338,2.281-6.872,4.237,6.872,19.446,4.076,22.706-7.454,7.822-5.823,8.257,4.426-.652,7.221,0,9.317-4.78,8.619-10.647S291.7,431.078,289.608,429.557Z" transform="translate(-262.418 -350.234)"/><path class="g" d="M357.922,590.605v2.173s1.165,5-2.562,4.78-1.4-6.084-1.4-6.084l.233-1.956Z" transform="translate(-319.083 -469.782)"/><path class="g" d="M319.9,594.679s2.562,5,0,5.432-4.426-2.825-4.426-3.694S319.9,594.679,319.9,594.679Z" transform="translate(-291.546 -473.639)"/><ellipse class="g" cx="0.466" cy="0.869" rx="0.466" ry="0.869" transform="translate(24.514 69.436)"/><ellipse class="g" cx="0.466" cy="0.869" rx="0.466" ry="0.869" transform="translate(38.257 69.436)"/><path class="i" d="M289.229,440.737s-5.823,0-5.59,2.173,7.92,39.545,7.92,39.545,3.261-2.825,6.056-2.173Z" transform="translate(-268.326 -358.59)"/><path class="i" d="M362.635,443.317s5.823,1.086,5.823,4.346-8.386,34.548-9.55,34.548-5.591-.652-5.591-1.738S362.635,443.317,362.635,443.317Z" transform="translate(-319.137 -360.518)"/><path class="j" d="M368.879,468.687l-5.241,19.119S366.084,471.077,368.879,468.687Z" transform="translate(-326.662 -379.478)"/><path class="j" d="M307.723,458.054l5.3,25S311.33,459.5,307.723,458.054Z" transform="translate(-285.892 -371.531)"/><ellipse class="g" cx="6.755" cy="6.301" rx="6.755" ry="6.301" transform="translate(25.096 64.113)"/><path class="f" d="M94.091,246.047l5.049-2.467,6.973,1.009,1.443,5.943-3.591-.129-1-2.184v2.147l-1.657-.059-.962-3.476-.6,3.7-5.891-.112Z" transform="translate(-68.43 -182.043)"/><path class="c" d="M0,0,.364.01l.553,20L.553,20Z" transform="translate(107.332 16.61) rotate(-62.935)"/><path class="c" d="M0,0,.364.01l.553,20L.553,20Z" transform="translate(105.978 19.641) rotate(-62.935)"/></svg>