<svg xmlns="http://www.w3.org/2000/svg" width="219.832" height="464.114" viewBox="0 0 219.832 464.114"><defs><style>.a{fill:#e6e6e6;}.b{fill:#fff;}.c{fill:#a0616a;}.d{fill:#2f2e41;}.e{fill:#575a89;}.f{opacity:0.2;}</style></defs><g transform="translate(-561.869 -247.751)"><rect class="a" width="91.325" height="117.417" transform="translate(561.869 525.994) rotate(-10.37)"/><rect class="b" width="67.447" height="4.431" transform="translate(577.401 544.548) rotate(-10.37)"/><rect class="b" width="67.447" height="4.431" transform="translate(579.529 556.17) rotate(-10.37)"/><rect class="b" width="67.447" height="4.431" transform="translate(581.655 567.793) rotate(-10.37)"/><rect class="b" width="67.447" height="4.431" transform="translate(583.782 579.415) rotate(-10.37)"/><rect class="b" width="67.447" height="4.431" transform="translate(585.909 591.038) rotate(-10.37)"/><rect class="b" width="67.447" height="4.431" transform="translate(588.036 602.66) rotate(-10.37)"/><rect class="b" width="67.447" height="4.431" transform="translate(590.162 614.283) rotate(-10.37)"/><path class="c" d="M851.127,579.591l1.169,11.685s-7.011,25.707,8.179,25.707,3.506-25.707,3.506-25.707l1.168-9.348Z" transform="translate(-207.983 -94.288)"/><path class="c" d="M960.869,539.1l-5.361,10.448s-19.843,17.784-7.085,26.03,16.9-19.687,16.9-19.687l6.056-7.217Z" transform="translate(-211.589 -92.726)"/><path class="d" d="M870.591,590.154l16.359,111.009,8.179,79.459s7.011,17.528,30.381,2.337l-3.505-45.572-2.337-40.9s-2.337-39.73-4.674-46.741,1.168-30.381,1.168-30.381l9.348-38.561Z" transform="translate(-208.751 -94.335)"/><path class="d" d="M897.456,786.211l-9.348,10.517s-14.022-4.674-17.528,4.674,26.876,11.685,26.876,11.685,31.55,2.337,31.55,0-.845-20.211-5.1-21.206S897.456,786.211,897.456,786.211Z" transform="translate(-208.74 -102.261)"/><path class="d" d="M916.777,584.124l16.359,116.851,8.18,79.459s7.011,17.528,30.381,2.337L968.192,737.2l-2.337-40.9s-2.337-39.73-4.674-46.741,1.169-30.382,1.169-30.382l-2.337-43.235Z" transform="translate(-210.533 -94.148)"/><path class="d" d="M943.642,786.211l-9.348,10.517s-14.022-4.674-17.528,4.674,26.876,11.685,26.876,11.685,31.55,2.337,31.55,0-.845-20.211-5.1-21.206S943.642,786.211,943.642,786.211Z" transform="translate(-210.522 -102.261)"/><circle class="c" cx="24.539" cy="24.539" r="24.539" transform="translate(646.65 256.273)"/><path class="c" d="M693.618,293.685l10.517,17.528L677.258,322.9l-3.505-21.034Z" transform="translate(-4.317 -1.772)"/><path class="e" d="M910.635,394.843S886.1,392.506,876.748,407.7l-23.065,17.528a13.3,13.3,0,0,0-5.135,12.329l20.02,151.262,29.213-1.168L945.69,578.3l14.022-3.506L952.7,512.862s-8.18-24.539,1.168-40.9L949.2,414.707l-32.719-12.853Z" transform="translate(-207.896 -87.154)"/><path class="e" d="M855.631,431.193l-1.753-2.921s-2.337,0-2.337,4.674-4.09,105.751-4.09,105.751l-1.168,38.561,22.2,2.337,8.18-72.448-3.506-47.909Z" transform="translate(-207.813 -88.449)"/><path class="e" d="M936.224,413.079l16.359,2.337a108.592,108.592,0,0,1,16.359,22.2c7.011,12.854,28.044,37.393,23.37,56.089s-18.7,52.583-18.7,52.583l-22.2-9.348s17.528-40.9,16.359-44.4S952.583,468,952.583,468Z" transform="translate(-211.283 -87.863)"/><path class="d" d="M862.236,352.128s-19.865-1.168-7.011-14.022c0,0,10.516-4.674,15.191-2.337,0,0,7.011-4.674,7.011-2.337,0,0,24.539-7.011,28.044,17.528s-2.337,36.224-2.337,36.224l-16.359-1.169s3.506-19.865-9.348-17.528c0,0-10.516,3.506-11.685,0S862.236,352.128,862.236,352.128Z" transform="translate(-207.991 -84.754)"/><path class="f" d="M667.629,494.541l10.517-70.11L671.134,381.2l2.337,47.027-7.011,66.319Z" transform="translate(-4.036 -5.149)"/></g></svg>