<svg xmlns="http://www.w3.org/2000/svg" width="519.574" height="363.779" viewBox="0 0 519.574 363.779"><defs><style>.a{fill:#f2f2f2;}.b{fill:#3f3d56;}.c{opacity:0.1;}.d{fill:#2f2e41;}.e{fill:#192da1;}.f{fill:#ffb9b9;}.g{fill:#d0cde1;}.h{fill:#a8a8a8;}.i{opacity:0.2;}</style></defs><path class="a" d="M977.755,395.593c0,50.86-30.235,68.618-67.533,68.618s-67.533-17.758-67.533-68.618,67.533-115.562,67.533-115.562S977.755,344.733,977.755,395.593Z" transform="translate(-464.055 -181.376)"/><path class="b" d="M877.787,377.859l.691-42.566,28.784-52.659-28.676,45.982.311-19.139,19.838-38.1L878.98,304.413h0l.559-34.423,21.243-30.331-21.155,24.918.35-63.118-2.2,83.557.18-3.447-21.6-33.059,21.252,39.676L875.6,326.63l-.06-1.021-24.9-34.79,24.823,38.395-.252,4.807-.045.073.021.395-5.106,97.536h6.822l.818-50.379,24.762-38.3Z" transform="translate(-434.08 -102.804)"/><path class="a" d="M649.627,265.741c0,65.779-39.1,88.747-87.343,88.747s-87.342-22.968-87.342-88.747,87.343-149.46,87.343-149.46S649.627,199.962,649.627,265.741Z" transform="translate(-276.395 -97.815)"/><path class="b" d="M540.721,265.853l.894-55.051L578.843,142.7l-37.087,59.47.4-24.753,25.657-49.274-25.551,42.723h0l.723-44.52,27.474-39.228L543.1,119.342l.452-81.633-2.84,108.068.234-4.458L513.014,98.563,540.5,149.877,537.9,199.6l-.077-1.32-32.2-44.994,32.1,49.657-.326,6.218-.058.094.026.51-6.6,126.146h8.822l1.059-65.157,32.026-49.535Z" transform="translate(-258.014 -19.243)"/><path class="b" d="M577.8,743.667c0,4.951-14.388,9.574-39.245,13.467-45.043,7.062-124.458,11.748-214.907,11.748-140.359,0-254.147-11.288-254.147-25.215,0-1.924,2.184-3.81,6.322-5.612,4.667-2.042,11.826-3.986,21.141-5.8,19.2-3.746,47.57-6.949,82.172-9.329,40.166-2.757,88.739-4.4,141.138-4.461q1.682-.007,3.374,0,9.468,0,18.77.069,4.371.029,8.7.078c30.861.328,60.067,1.2,86.609,2.527,1.185.059,2.365.122,3.54.181.4.02.8.044,1.2.064.108,0,.216.01.323.02q7.823.411,15.3.877,2.454.147,4.863.309c15.607,1.014,30.014,2.194,42.972,3.521q3.32.338,6.513.69c16.4,1.8,30.2,3.839,40.836,6.058C569,736.126,577.8,739.794,577.8,743.667Z" transform="translate(-69.5 -405.103)"/><ellipse class="c" cx="55.377" cy="12.831" rx="55.377" ry="12.831" transform="translate(313.352 324.158)"/><path class="c" d="M1033.431,758.666c0,4.951-14.387,9.574-39.245,13.467-18.795-2.052-31.806-6.484-31.806-11.616,0-6.391,20.156-11.689,46.536-12.669C1024.636,751.124,1033.431,754.792,1033.431,758.666Z" transform="translate(-525.133 -420.101)"/><path class="c" d="M351.621,742.035c0,8.455-60.271,15.307-134.615,15.307-73.647,0-133.481-6.722-134.6-15.069,14.294-6.24,51.928-11.6,103.312-15.132,10.04-.27,20.516-.414,31.286-.414C291.35,726.728,351.621,733.58,351.621,742.035Z" transform="translate(-76.087 -409.323)"/><rect class="b" width="223.308" height="334.512" transform="translate(27.463)"/><rect class="d" width="209.802" height="102.65" transform="translate(40.97 116.156)"/><rect class="b" width="207.551" height="97.697" transform="translate(125.611 118.407)"/><rect class="e" width="46.373" height="16.658" transform="translate(138.33 132.815)"/><rect class="e" width="170.633" height="4.502" transform="translate(149.81 162.079)"/><rect class="e" width="170.633" height="4.502" transform="translate(149.81 173.784)"/><rect class="e" width="170.633" height="4.502" transform="translate(149.81 185.49)"/><rect class="e" width="170.633" height="4.502" transform="translate(149.81 197.196)"/><rect class="a" width="46.373" height="16.658" transform="translate(42.321 37.818)"/><rect class="a" width="170.633" height="4.502" transform="translate(53.801 67.083)"/><rect class="a" width="170.633" height="4.502" transform="translate(53.801 78.788)"/><rect class="a" width="170.633" height="4.502" transform="translate(53.801 90.494)"/><rect class="a" width="170.633" height="4.502" transform="translate(53.801 102.2)"/><rect class="a" width="46.373" height="16.658" transform="translate(44.121 229.161)"/><rect class="a" width="170.633" height="4.502" transform="translate(55.602 258.426)"/><rect class="a" width="170.633" height="4.502" transform="translate(55.602 270.131)"/><rect class="a" width="170.633" height="4.502" transform="translate(55.602 281.837)"/><rect class="a" width="170.633" height="4.502" transform="translate(55.602 293.543)"/><path class="f" d="M792.563,204.221s9.257,11.861,8.1,20.25S819.756,212.9,819.756,212.9s-6.943-14.464-3.182-21.407S792.563,204.221,792.563,204.221Z" transform="translate(-438.476 -135.438)"/><path class="d" d="M820.558,709.342s12.15,13.307,10.125,16.2-37.607,13.886-41.657,13.307-6.075-3.471-4.628-4.339,10.7-5.786,10.7-5.786l7.811-8.968s5.786-3.182,5.786-4.918S820.558,709.342,820.558,709.342Z" transform="translate(-434.071 -400.452)"/><path class="f" d="M810.954,739.469s-4.628,7.521-5.5,7.811,4.339,10.7,4.339,10.7l12.15-3.76,6.653-5.5-1.446-7.521Z" transform="translate(-445.006 -415.825)"/><path class="g" d="M773.9,446.464l-5.786,25.746s-19.961,44.839-6.075,52.65l30.375,58.146,16.2-7.232-27.193-59.593,12.439-68.561Z" transform="translate(-420.394 -266.306)"/><path class="c" d="M773.9,446.464l-5.786,25.746s-19.961,44.839-6.075,52.65l30.375,58.146,16.2-7.232-27.193-59.593,12.439-68.561Z" transform="translate(-420.394 -266.306)"/><path class="g" d="M792.4,452.926h-2.935a163.563,163.563,0,0,0,1.489,26.614c2.025,14.754,7.232,48.6,7.232,48.6s-.578,6.364,1.157,8.389,2.025-.578,2.314,4.05,3.037,36.81,3.037,36.81,1.88,6.583-.145,8.03-6.075,9.257-3.182,10.414,22.854,2.6,23.721,1.736,0-55.254,0-55.254-.578-10.993-1.157-11.571-3.182-8.389-2.314-10.125.289-6.943.289-7.811-2.6,0-.289-3.761,2.6-33.846,2.6-33.846,12.439-19.093,8.679-24.011Z" transform="translate(-436.868 -268.718)"/><circle class="f" cx="19.093" cy="19.093" r="19.093" transform="translate(343.094 34.937)"/><path class="d" d="M814.819,230.255s-11.572,2.893-16.2,9.836l-4.05.868v4.05s-7.521,24.011-5.786,34.425,0,30.664-2.893,36.161-3.761,6.654-2.314,8.968,3.471,10.125,2.025,13.6,0,6.943,13.307,7.811,32.111.868,32.111-3.761-1.157-17.646,0-21.118,1.736-5.786,1.157-8.968,1.157-38.764,1.157-38.764S833.623,237.776,814.819,230.255Z" transform="translate(-433.54 -155.976)"/><path class="f" d="M763.448,412.792l-15.911,23.721s-16.779,15.332-10.7,22.275,21.986-20.25,21.986-20.25l17.357-19.672Z" transform="translate(-409.362 -249.123)"/><path class="d" d="M781.127,754.454s-.579-3.761-2.6-3.761-15.622,9.257-15.622,9.257-17.936,2.025-10.993,5.786,49.468,4.339,49.757,2.893.868-15.71-1.157-15.666-18.225,3.227-18.225,3.227Z" transform="translate(-416.916 -421.553)"/><path class="d" d="M790.408,147a4.789,4.789,0,0,1-2.182.493c-.78.044-1.712,0-2.127-.666a3.049,3.049,0,0,1-.266-1.389,4.577,4.577,0,0,0-5.349-3.9,6.585,6.585,0,0,0,.852,2.715,5.806,5.806,0,0,1-5.1-.679l-.294,3.9a3.18,3.18,0,0,1-3.272-.11,1.813,1.813,0,0,1,.046-2.9c-1.264-.264-2.811-.83-2.9-2.118-.085-1.176,1.163-2.036,1.393-3.192.188-.943-.329-1.967.036-2.856.481-1.168,2.225-1.468,2.575-2.681a10.542,10.542,0,0,0-.017-1.919c.16-1.676,2.268-2.372,3.949-2.277s3.516.542,4.944-.35a14.338,14.338,0,0,0,1.785-1.669,5.3,5.3,0,0,1,6.155-.535,10.457,10.457,0,0,0,2.02,1.259c1.543.523,3.153-.467,4.766-.695a3.96,3.96,0,0,1,3.32.962,2.717,2.717,0,0,1,.495,3.274,5.322,5.322,0,0,1,2.842.04A1.834,1.834,0,0,1,805.232,134a2.964,2.964,0,0,0-.36.735c-.084.5.4.935.892,1.08s1.022.118,1.5.293c1.983.726,1.507,3.9,3.068,5.318a12.446,12.446,0,0,0,1.692,1.035,4.116,4.116,0,0,1,1.452,4.973,4.56,4.56,0,0,0-.774,2.111c.089,1.062,1.227,1.644,2.026,2.35a4.713,4.713,0,0,1,1.1,5.411c-.734,1.532-2.325,2.693-2.486,4.384-.07.735.151,1.469.138,2.207a4.548,4.548,0,0,1-1.955,3.434,10.167,10.167,0,0,1-3.753,1.561c-.631.151-1.383.387-1.536,1.017-.181.747.653,1.427.566,2.191a1.271,1.271,0,0,1-.51.826c-1.129.883-2.914.126-3.6-1.13a7.514,7.514,0,0,1-.495-4.206l.389-5.195c.121-1.616.109-3.536-1.208-4.48-1.457-1.044-3.578-.2-5.226-.9-1.717-.735-2.332-2.885-2.263-4.751s.6-3.735.3-5.577c-.381-2.283-2.411-3.817-4.461-2.338C791.521,144.1,791.832,146.167,790.408,147Z" transform="translate(-426.863 -102.839)"/><path class="c" d="M816.615,258.448s-11.572,4.629-11.572,14.464.578,22.854-1.446,27.193-3.761,5.786-2.6,9.257,3.182,2.893,0,5.5-2.893-1.736-3.182,2.6,2.893,4.918,0,6.943-10.414,10.125-7.232,12.729,11.572,10.993,14.464,7.811,4.339-11.282,8.389-10.7,4.629.868,4.05-2.025-3.182-2.893.289-3.761,4.918,1.157,3.761-1.736-2.025-4.05.289-7.232,3.471-4.05,3.182-7.232,6.364-31.821,6.364-31.821S833.393,256.134,816.615,258.448Z" transform="translate(-437.07 -170.283)"/><path class="c" d="M810.116,257.267s-11.571,4.629-11.571,14.464.579,22.854-1.446,27.193-3.761,5.786-2.6,9.257,3.182,2.893,0,5.5-2.893-1.736-3.182,2.6,2.893,4.918,0,6.943-10.414,10.125-7.232,12.729,11.571,10.993,14.464,7.811,4.339-11.282,8.389-10.7,4.629.868,4.05-2.025-3.182-2.893.289-3.761,4.918,1.157,3.761-1.736-2.025-4.05.289-7.232,3.472-4.05,3.182-7.232,6.364-31.821,6.364-31.821S826.895,254.953,810.116,257.267Z" transform="translate(-433.755 -169.68)"/><path class="d" d="M813.07,255.5S801.5,260.124,801.5,269.959s.579,22.854-1.446,27.193-3.761,5.786-2.6,9.257,3.182,2.893,0,5.5-2.893-1.736-3.182,2.6,2.893,4.918,0,6.943-10.414,10.125-7.232,12.729,11.572,10.993,14.464,7.811,4.339-11.282,8.389-10.7,4.629.868,4.05-2.025-3.182-2.893.289-3.761,4.918,1.157,3.761-1.736-2.025-4.05.289-7.232,3.471-4.05,3.182-7.232,6.364-31.821,6.364-31.821S829.849,253.181,813.07,255.5Z" transform="translate(-435.262 -168.776)"/><path class="d" d="M964.5,663.787c0,25.31,15.878,45.79,35.5,45.79" transform="translate(-526.215 -377.205)"/><path class="e" d="M1036.99,709.041c0-25.594,17.719-46.3,39.616-46.3" transform="translate(-563.206 -376.669)"/><path class="e" d="M990.766,668.472c0,24.042,10.125,43.5,22.638,43.5" transform="translate(-539.618 -379.596)"/><path class="d" d="M1036.99,695.637c0-32.7,20.48-59.167,45.79-59.167" transform="translate(-563.206 -363.265)"/><path class="h" d="M1021.74,755.118s5.035-.155,6.552-1.236,7.744-2.371,8.121-.638,7.566,8.618,1.882,8.664-13.207-.885-14.722-1.808S1021.74,755.118,1021.74,755.118Z" transform="translate(-555.424 -422.423)"/><path class="i" d="M1038.4,764.133c-5.684.046-13.207-.885-14.722-1.808-1.153-.7-1.613-3.223-1.767-4.386l-.168.007s.319,4.06,1.833,4.983,9.037,1.854,14.721,1.808c1.641-.013,2.208-.6,2.177-1.462C1040.25,763.8,1039.623,764.124,1038.4,764.133Z" transform="translate(-555.428 -425.251)"/></svg>