<svg xmlns="http://www.w3.org/2000/svg" width="42.194" height="67.511" viewBox="0 0 42.194 67.511"><defs><style>.a{fill:#e6e6e6;}</style></defs><path class="a" d="M35.865,0H6.329A6.331,6.331,0,0,0,0,6.329V61.182a6.331,6.331,0,0,0,6.329,6.329H35.865a6.331,6.331,0,0,0,6.329-6.329V6.329A6.331,6.331,0,0,0,35.865,0ZM21.1,63.291a4.219,4.219,0,1,1,4.219-4.219A4.215,4.215,0,0,1,21.1,63.291ZM35.865,49.051a1.587,1.587,0,0,1-1.582,1.582H7.911a1.587,1.587,0,0,1-1.582-1.582V7.911A1.587,1.587,0,0,1,7.911,6.329H34.283a1.587,1.587,0,0,1,1.582,1.582Z"/></svg>