<svg xmlns="http://www.w3.org/2000/svg" xmlns:xlink="http://www.w3.org/1999/xlink" width="654.425" height="539.058" viewBox="0 0 654.425 539.058"><defs><style>.a{fill:#fff;}.b{clip-path:url(#a);}.c{fill:#e0e0e0;}.d{fill:#192da1;}.e{fill:#263238;}.f{fill:#455a64;}.g{fill:#f5f5f5;}.h{fill:#ebebeb;}.i{opacity:0.3;}.j{opacity:0.2;}.k{fill:#ffbe9d;}.l{fill:#eb996e;}</style><clipPath id="a"><path class="a" d="M0,0H654.425V539.058H0Z" transform="translate(996.433 2058.675)"/></clipPath></defs><g class="b" transform="translate(-996.433 -2058.675)"><g transform="translate(1045.178 2076.618)"><g transform="translate(49.329 13.752)"><path class="c" d="M366.131,552.531c25.066.149,73.573-8.252,96.613-18.107,37.874-16.173,57.126-28.351,70.4-43.253,28.065-31.522,33.811-52.65,43.574-78.861,18.6-49.835,18.439-108.2,2.22-158.855S522.72,158.58,471.432,144.467,359.264,150.9,332.79,197c-15.784,27.47-20.362,62.871-45.337,82.341C265.8,296.238,235.707,295.528,209.5,303.7c-36.455,11.343-66.282,41.949-76.686,78.678s-1.145,78.426,23.922,107.235,38.355,45.176,84.195,52.456C279.887,548.444,314.843,553.744,366.131,552.531Z" transform="translate(-128.607 -140.077)"/></g><g transform="translate(5.887 311.9)"><path class="d" d="M138.393,735.412c4.681-2.415,10.2-2.724,15.395-1.866,2.793.458,5.723,1.293,7.611,3.434s2.289,5.792.08,7.6a7.326,7.326,0,0,1-4.8,1.213c-4.075,0-8.584-.767-11.835,1.682-1.866,1.4-3.09,3.72-5.311,4.407a5.231,5.231,0,0,1-5.723-2.564,8.928,8.928,0,0,1-.652-6.616A10.1,10.1,0,0,1,138.393,735.412Z" transform="translate(-86.823 -672.269)"/><path class="d" d="M122.535,675.041c2.861,4.086,8.424,2.735,11.011.24s3.663-6.124,4.658-9.569c2.289-7.886,4.578-16.15,2.873-24.185a13.506,13.506,0,0,0-3.09-6.57,6.993,6.993,0,0,0-6.65-2.209c-2.8.733-4.578,3.434-5.814,6.1a57.652,57.652,0,0,0-5.723,24.734c0,3.983.446,8.161,2.7,11.446" transform="translate(-81.69 -632.603)"/><path class="d" d="M89.826,689.419c3.1-3.685,3.7-9.065,2.289-13.735a26.417,26.417,0,0,0-8.1-11.766,43.687,43.687,0,0,0-14.5-8.573,15.693,15.693,0,0,0-6.536-1.145,6.868,6.868,0,0,0-5.483,3.319c-1.534,2.919-.069,6.455,1.522,9.34a111.025,111.025,0,0,0,9.534,14.525c2.861,3.685,6.135,7.325,10.5,8.985s8.882,1.477,11.194-1.545" transform="translate(-56.844 -641.122)"/><path class="e" d="M123.961,780.1a9.155,9.155,0,0,0,.263-1.866c.126-1.351.3-3.045.492-5.07a73.95,73.95,0,0,1,1.145-7.44,57.745,57.745,0,0,1,2.713-8.779A32.22,32.22,0,0,1,133.049,749a16.826,16.826,0,0,1,5.723-4.716,15.8,15.8,0,0,1,4.773-1.488,8.172,8.172,0,0,0,1.843-.263,8.488,8.488,0,0,0-1.877,0,14.286,14.286,0,0,0-4.979,1.294,16.722,16.722,0,0,0-6.078,4.739,32.047,32.047,0,0,0-4.578,8.092,53.8,53.8,0,0,0-2.678,8.928,63.826,63.826,0,0,0-1,7.531c-.16,2.152-.217,3.892-.24,5.1A8.012,8.012,0,0,0,123.961,780.1Z" transform="translate(-83.31 -675.966)"/><path class="e" d="M124.385,743.521a3.2,3.2,0,0,0,.057-.87V740.19c0-2.14,0-5.242.114-9.065.183-7.646.847-15.875,2.117-27.47,1.145-10.908,2.827-23.613,4.578-31.865.366-1.877.733-3.571,1.076-5.048s.618-2.758.881-3.8.435-1.763.584-2.392a3.583,3.583,0,0,0,.149-.858,4.246,4.246,0,0,0-.3.813c-.195.618-.423,1.408-.721,2.369s-.641,2.289-1.007,3.766-.8,3.159-1.145,5.036a283.848,283.848,0,0,0-4.761,29.564c-1.27,11.629-1.843,22.216-1.9,29.885,0,3.834,0,6.936.137,9.088.069,1,.114,1.808.149,2.461A4.336,4.336,0,0,0,124.385,743.521Z" transform="translate(-83.391 -643.294)"/><path class="e" d="M106.84,727.149a15.27,15.27,0,0,0,0-2.575,69.662,69.662,0,0,0-.79-6.97,90.919,90.919,0,0,0-2.289-10.175A83.287,83.287,0,0,0,99.514,695.4a64.233,64.233,0,0,0-12.487-19.458,32.238,32.238,0,0,0-2.942-2.724c-.446-.378-.847-.767-1.259-1.064l-1.145-.778a16.369,16.369,0,0,0-2.175-1.4,75.463,75.463,0,0,1,7.108,6.341A67.289,67.289,0,0,1,98.793,695.7a95.759,95.759,0,0,1,4.281,11.915,96.208,96.208,0,0,1,2.415,10.072c.561,2.9.836,5.265,1.019,6.867a16.194,16.194,0,0,0,.332,2.6Z" transform="translate(-65.788 -647.353)"/><path class="e" d="M92.043,823.944l2.049,28.031h36.02l2.049-28.031Z" transform="translate(-70.735 -708.117)"/><rect class="e" width="47.889" height="11.045" transform="translate(17.828 104.771)"/><path class="f" d="M86.314,868.472v3.067H133.4v-3.067Z" transform="translate(-68.474 -725.69)"/><path class="f" d="M92.229,878.93l-2.209-5.391h43.128l-2.575,5.391Z" transform="translate(-69.937 -727.69)"/><path class="c" d="M131.888,836.5s0,.1-.172.263a8.578,8.578,0,0,0-.538.71l-2.095,2.724-.092.114-.092-.126-5.185-7.165h.3l-5.048,7.176-.16.229-.172-.218-6.02-7.154h.343l-.332.423-5.38,6.719-.172.229-.172-.24c-1.831-2.575-3.537-4.99-5.07-7.176h.286L95.868,840.2l-.114.126-.08-.126c-.824-1.385-1.488-2.484-1.957-3.285l-.5-.881a1.019,1.019,0,0,1-.149-.309,1.829,1.829,0,0,1,.206.275c.149.217.332.5.549.847l2.06,3.228h-.195l6.146-7.211.16-.172.137.195,5.128,7.142h-.343l5.357-6.833.332-.412.172-.217.172.217,6,7.165h-.332l5.1-7.131.149-.206.149.206,5.048,7.211h-.183l2.175-2.621c.24-.263.435-.492.584-.675Z" transform="translate(-71.138 -711.52)"/><path class="f" d="M132.891,823.492c0,.115-9.019.218-20.144.218s-20.1-.1-20.1-.218,9.019-.229,20.156-.229S132.891,823.366,132.891,823.492Z" transform="translate(-70.974 -707.848)"/><path class="e" d="M133.577,873.889c0,.126-9.809.229-21.9.229s-21.907-.1-21.907-.229,9.809-.217,21.907-.217S133.577,873.775,133.577,873.889Z" transform="translate(-69.84 -727.742)"/></g><g transform="translate(41.296 0)"><path class="a" d="M235.828,117.36l-20.293.172a5.048,5.048,0,0,0-4.887,5.185V126.4a5.036,5.036,0,0,1-4.807,5.185l-39.556.332a5.036,5.036,0,0,1-4.967-5.116v-3.674a5.048,5.048,0,0,0-4.967-5.116h-7.142l-17.764.206a16.024,16.024,0,0,0-15.9,16.1l2.163,256.087a15.955,15.955,0,0,0,16.1,15.818l104.431-.858a16.024,16.024,0,0,0,15.841-16.1L251.921,133.19a16.024,16.024,0,0,0-16.093-15.829Z" transform="translate(-115.419 -117.36)"/><path class="e" d="M235.747,117.361h.538a12.841,12.841,0,0,1,1.625.114,14.971,14.971,0,0,1,6.009,2.014,15.349,15.349,0,0,1,3.663,2.919,15.876,15.876,0,0,1,3.09,4.739,16.654,16.654,0,0,1,1.248,6.467c0,2.358,0,4.876.08,7.531.195,21.278.481,52.044.847,90.078s.744,83.314,1.2,133.595q.069,9.431.16,19.091v4.842a16.825,16.825,0,0,1-.572,4.876,16.378,16.378,0,0,1-1.992,4.51,17.317,17.317,0,0,1-3.3,3.72,16.138,16.138,0,0,1-9.157,3.663c-3.342.126-6.673.08-10.026.137l-20.339.172-41.731.343-21.335.183-10.782.08a16.826,16.826,0,0,1-10.427-2.781,16.288,16.288,0,0,1-6.41-8.676,17.673,17.673,0,0,1-.71-5.4v-5.379q-.08-10.748-.183-21.346-.183-21.209-.355-41.743c-.229-27.367-.458-53.795-.675-78.907s-.4-49.045-.6-71.4q-.172-16.757-.286-32.357v-3.869a15.623,15.623,0,0,1,.08-1.934,15.456,15.456,0,0,1,.309-1.911,16.14,16.14,0,0,1,16.264-12.67l13.918-.114h9.981a5.116,5.116,0,0,1,3.148.847,5.219,5.219,0,0,1,1.969,2.552,8.47,8.47,0,0,1,.355,3.148c0,.515,0,1.042,0,1.557a13.3,13.3,0,0,0,.069,1.522,5.059,5.059,0,0,0,1.213,2.655,4.738,4.738,0,0,0,2.449,1.5,5.553,5.553,0,0,0,1.442.126h7.176l21.049-.149,9.282-.069h2.175a4.693,4.693,0,0,0,1.957-.71,5.093,5.093,0,0,0,2.209-3.239,9.065,9.065,0,0,0,.1-1.934v-1.911a10.173,10.173,0,0,1,.08-1.98,5.1,5.1,0,0,1,.584-1.705,5.025,5.025,0,0,1,2.53-2.289,7.806,7.806,0,0,1,3.17-.366l10.358-.069h6.364l-6.364.069-10.358.1a8.012,8.012,0,0,0-3.113.366,4.9,4.9,0,0,0-2.449,2.22,5.242,5.242,0,0,0-.561,1.671,9.658,9.658,0,0,0-.069,1.831V125.6a9.659,9.659,0,0,1-.1,1.98,5.231,5.231,0,0,1-2.289,3.354,4.8,4.8,0,0,1-2.026.733,19.9,19.9,0,0,1-2.186,0l-9.282.08-21.06.195H166.5a5.6,5.6,0,0,1-1.5-.137,4.944,4.944,0,0,1-2.6-1.568,5.4,5.4,0,0,1-1.282-2.655,11.893,11.893,0,0,1-.069-1.557c0-.515,0-1.03,0-1.557a8.275,8.275,0,0,0-.343-3.056,4.956,4.956,0,0,0-1.877-2.449,4.864,4.864,0,0,0-2.987-.8h-3.285l-6.7.057-13.918.206A16.413,16.413,0,0,0,125,119.8a16.23,16.23,0,0,0-5.723,4.4,15.944,15.944,0,0,0-3.228,6.661c-.16.607-.195,1.236-.3,1.866a11.678,11.678,0,0,0-.069,1.9v3.869q.137,15.578.286,32.357c.206,22.365.412,46.264.641,71.41s.446,51.506.687,78.9q.183,20.534.366,41.743.08,10.61.183,21.358v5.38a17.4,17.4,0,0,0,.7,5.265,15.887,15.887,0,0,0,6.226,8.447,16.448,16.448,0,0,0,10.164,2.7l10.782-.092,21.346-.172,41.731-.343,20.328-.16c3.354-.057,6.719,0,10.015-.137a15.681,15.681,0,0,0,8.939-3.56,16.629,16.629,0,0,0,3.2-3.617,15.577,15.577,0,0,0,1.946-4.4,16.687,16.687,0,0,0,.561-4.761v-4.842q-.069-9.649-.16-19.08c-.412-50.293-.79-95.572-1.145-133.606s-.538-68.8-.71-90.078c0-2.655,0-5.173-.057-7.531a16.459,16.459,0,0,0-1.213-6.421,16.024,16.024,0,0,0-3.045-4.7,15.223,15.223,0,0,0-3.583-2.976,14.879,14.879,0,0,0-5.975-2.049,11.446,11.446,0,0,0-1.614-.137Z" transform="translate(-115.337 -117.36)"/><path class="e" d="M312.026,160c0,.069-2.633.172-5.883.217s-5.895,0-5.906,0,2.644-.16,5.895-.217S312.026,159.936,312.026,160Z" transform="translate(-188.309 -134.171)"/><path class="e" d="M312.12,164.977c0,.069-2.644.172-5.895.229s-5.895,0-5.895,0,2.633-.172,5.895-.229S312.12,164.909,312.12,164.977Z" transform="translate(-188.346 -136.134)"/><path class="e" d="M312.2,169.969c0,.069-2.633.172-5.883.217s-5.895,0-5.906,0,2.644-.16,5.895-.217S312.2,169.9,312.2,169.969Z" transform="translate(-188.376 -138.104)"/><path class="e" d="M142.726,170.838h.927l2.507-.08-.069.069v-2.873a.984.984,0,0,1,.836-.79h1.2a.961.961,0,0,1,.836.961v2.667l-.126-.114h3.182l-.126.114c0-1.27,0-2.6-.069-3.949v-1.007a1.042,1.042,0,0,0-.458-.744l-1.4-1.362-1.351-1.3c-.217-.217-.446-.424-.652-.641a1.376,1.376,0,0,0-.664-.481.847.847,0,0,0-.733.149c-.183.16-.389.389-.584.584-.389.4-.767.778-1.145,1.145-.721.755-1.454,1.442-1.992,2.083a2.209,2.209,0,0,0-.149,1.145v4.5a1.476,1.476,0,0,1,0-.378V165.8a1.145,1.145,0,0,1,.172-.664c.572-.733,1.27-1.373,1.992-2.14l1.145-1.145c.206-.206.366-.412.607-.618a1.076,1.076,0,0,1,.927-.183,1.705,1.705,0,0,1,.767.538l.652.63,1.2,1.225,1.4,1.351a2.288,2.288,0,0,1,.355.378.916.916,0,0,1,.172.538v1.007c0,1.362,0,2.678.069,3.96v.126h-3.411v-2.77a.755.755,0,0,0-.641-.767h-1.145a.767.767,0,0,0-.675.63V170.8h-3.342C142.794,170.849,142.714,170.849,142.726,170.838Z" transform="translate(-126.129 -134.589)"/><rect class="g" width="111.333" height="20.247" rx="10.124" transform="translate(12.009 52.226) rotate(-0.51)"/><path class="e" d="M238.039,222.322l.641-.069a9.545,9.545,0,0,0,1.831-.366,8.768,8.768,0,0,0,2.667-1.431,8.458,8.458,0,0,0,2.518-3.251,8.012,8.012,0,0,0,.641-2.358,21.409,21.409,0,0,0,.057-2.736,18.748,18.748,0,0,0-.16-2.964,8.137,8.137,0,0,0-1.145-2.953,8.447,8.447,0,0,0-5.654-3.857,23.843,23.843,0,0,0-3.869-.114h-4.109l-87.777.881a8.332,8.332,0,0,0-8.241,7.714v3.1a10.14,10.14,0,0,0,.343,3.01,8.378,8.378,0,0,0,3.434,4.681,7.863,7.863,0,0,0,2.713,1.145,12.42,12.42,0,0,0,2.93.195h5.895l11.446-.1,39.5-.3,26.623-.172h7.245l-7.245.1-26.623.3-39.488.4-11.446.1h-5.895a12.92,12.92,0,0,1-3.022-.206,8.447,8.447,0,0,1-2.839-1.145,8.8,8.8,0,0,1-3.686-4.887,10.3,10.3,0,0,1-.366-3.125v-3.136a8.745,8.745,0,0,1,8.642-8.092l87.857-.721h4.109a23.544,23.544,0,0,1,3.926.126,8.722,8.722,0,0,1,5.8,3.995,8.906,8.906,0,0,1,1.145,3.045,17.973,17.973,0,0,1,.137,3,21.816,21.816,0,0,1-.069,2.758,8.011,8.011,0,0,1-.687,2.4,8.378,8.378,0,0,1-2.575,3.273,8.882,8.882,0,0,1-2.713,1.419,9.331,9.331,0,0,1-1.866.332Z" transform="translate(-123.079 -150.74)"/><path class="e" d="M303.02,215.579a2.911,2.911,0,0,0-.195-.87,3.72,3.72,0,0,0-1.362-1.911,3.434,3.434,0,1,0,0,5.6,3.64,3.64,0,0,0,1.328-1.934c.149-.549.149-.881.183-.881s0,.08,0,.24a2.611,2.611,0,0,1,0,.675,3.686,3.686,0,0,1-1.282,2.152,3.788,3.788,0,0,1-3.617.63,3.84,3.84,0,1,1,3.56-6.7,3.606,3.606,0,0,1,1.339,2.106,2.984,2.984,0,0,1,.08.687C303.043,215.5,303.043,215.579,303.02,215.579Z" transform="translate(-186.434 -154.63)"/><path class="e" d="M309.209,226.164a7.1,7.1,0,0,1-1.82-1.614,6.868,6.868,0,0,1-1.5-1.911,7.36,7.36,0,0,1,1.808,1.625,7.6,7.6,0,0,1,1.511,1.9Z" transform="translate(-190.54 -158.909)"/><path class="c" d="M158.8,216.48h-1.98v-.515H161.4v.527h-1.992v5.139H158.8Z" transform="translate(-131.709 -156.275)"/><path class="c" d="M168.464,220.447h-3.548a1.58,1.58,0,0,0,1.683,1.465,1.694,1.694,0,0,0,1.293-.572l.332.366a2.289,2.289,0,0,1-3.88-1.431,2.049,2.049,0,0,1,2.06-2.175,2.014,2.014,0,0,1,2.072,2.129C168.476,220.321,168.464,220.378,168.464,220.447Zm-3.548-.4h3.01a1.511,1.511,0,0,0-3.01,0Z" transform="translate(-134.677 -157.118)"/><path class="c" d="M175.225,222.366l-1.373-1.763-1.339,1.786h-.641l1.66-2.2-1.614-2.049h.641l1.293,1.648,1.259-1.671h.63l-1.58,2.072,1.717,2.175Z" transform="translate(-137.649 -157.126)"/><path class="c" d="M181.85,221.453a1.373,1.373,0,0,1-.893.3,1.145,1.145,0,0,1-1.248-1.236v-2.564h-.767v-.492h.755v-.927h.584v.927h1.293v.492h-1.316v2.53c0,.5.263.778.733.767a.916.916,0,0,0,.63-.217Z" transform="translate(-140.44 -156.499)"/><rect class="d" width="24.368" height="24.368" transform="translate(17.034 89.264) rotate(-0.51)"/><path class="d" d="M237.451,267.8c0,.115-8.138.275-18.187.366s-18.2.069-18.2,0,8.138-.275,18.187-.366S237.451,267.683,237.451,267.8Z" transform="translate(-149.17 -176.7)"/><path class="e" d="M266.584,279.778c0,.114-14.651.343-32.712.5s-32.712.195-32.712.08,14.639-.343,32.712-.5S266.584,279.618,266.584,279.778Z" transform="translate(-149.208 -181.425)"/><path class="e" d="M265.892,288.545c0,.114-14.479.332-32.323.492s-32.334.195-32.334.08,14.467-.332,32.323-.492S265.892,288.431,265.892,288.545Z" transform="translate(-149.237 -184.893)"/><path class="e" d="M239.483,297.334c0,.114-8.539.286-19.08.378s-19.091.069-19.091,0,8.55-.275,19.091-.366S239.483,297.22,239.483,297.334Z" transform="translate(-149.267 -188.359)"/><rect class="d" width="24.369" height="24.369" transform="matrix(1, -0.01, 0.01, 1, 17.607, 129.609)"/><path class="d" d="M238.049,334.854c0,.114-8.149.286-18.2.366s-18.2.069-18.2,0,8.138-.275,18.2-.366S238.049,334.705,238.049,334.854Z" transform="translate(-149.402 -203.159)"/><path class="e" d="M267.177,346.786c0,.114-14.639.343-32.7.5s-32.712.195-32.712.08,14.639-.343,32.7-.492S267.177,346.671,267.177,346.786Z" transform="translate(-149.446 -207.88)"/><path class="e" d="M266.486,355.611c0,.114-14.467.332-32.323.492s-32.323.195-32.323.08,14.467-.332,32.323-.492S266.486,355.5,266.486,355.611Z" transform="translate(-149.476 -211.361)"/><path class="e" d="M240.076,364.4c0,.114-8.539.286-19.08.378s-19.08.08-19.08,0,8.539-.286,19.08-.378S240.076,364.282,240.076,364.4Z" transform="translate(-149.506 -214.824)"/><rect class="f" width="24.368" height="24.368" transform="translate(17.756 170.301) rotate(-0.51)"/><path class="d" d="M238.635,401.929c0,.114-8.149.286-18.2.366s-18.2.069-18.2,0,8.149-.275,18.2-.366S238.635,401.814,238.635,401.929Z" transform="translate(-149.633 -229.636)"/><path class="e" d="M267.763,413.866c0,.114-14.639.332-32.7.492s-32.712.195-32.712.08,14.639-.332,32.712-.492S267.763,413.752,267.763,413.866Z" transform="translate(-149.678 -234.351)"/><path class="e" d="M267.072,422.677c0,.114-14.467.332-32.323.492s-32.323.195-32.323.08,14.467-.332,32.323-.492S267.072,422.563,267.072,422.677Z" transform="translate(-149.708 -237.828)"/><path class="e" d="M240.674,431.463c0,.114-8.55.286-19.08.378s-19.091.08-19.091,0,8.539-.286,19.08-.378S240.674,431.348,240.674,431.463Z" transform="translate(-149.737 -241.292)"/><rect class="d" width="24.368" height="24.368" transform="translate(18.117 210.894) rotate(-0.51)"/><path class="f" d="M239.221,469c0,.114-8.138.286-18.187.366s-18.21.069-18.21,0,8.149-.275,18.2-.366S239.221,468.923,239.221,469Z" transform="translate(-149.864 -256.112)"/><path class="e" d="M268.361,480.932c0,.114-14.651.332-32.712.492s-32.712.195-32.712.08,14.639-.332,32.712-.492S268.361,480.818,268.361,480.932Z" transform="translate(-149.909 -260.819)"/><path class="e" d="M267.658,489.68c0,.114-14.467.343-32.311.492s-32.334.195-32.334.08,14.467-.332,32.323-.492S267.658,489.612,267.658,489.68Z" transform="translate(-149.939 -264.279)"/><path class="e" d="M241.26,498.529c0,.114-8.539.286-19.08.378s-19.091.08-19.091,0,8.539-.286,19.08-.378S241.26,498.414,241.26,498.529Z" transform="translate(-149.969 -267.76)"/><rect class="c" width="24.369" height="24.369" transform="matrix(1, -0.01, 0.01, 1, 18.825, 251.415)"/><path class="c" d="M239.826,536.044c0,.115-8.149.286-18.2.378s-18.2.057-18.2-.057,8.138-.275,18.187-.366S239.815,535.93,239.826,536.044Z" transform="translate(-150.103 -282.556)"/><path class="h" d="M268.947,548c0,.114-14.651.332-32.712.492s-32.712.195-32.712.08,14.651-.332,32.712-.492S268.947,547.883,268.947,548Z" transform="translate(-150.14 -287.287)"/><path class="h" d="M268.256,556.809c0,.114-14.479.343-32.323.492s-32.323.195-32.334.08,14.479-.332,32.334-.492S268.256,556.694,268.256,556.809Z" transform="translate(-150.17 -290.764)"/><path class="h" d="M241.846,565.594c0,.115-8.539.286-19.08.378s-19.091.08-19.091,0,8.55-.286,19.091-.378S241.846,565.48,241.846,565.594Z" transform="translate(-150.2 -294.227)"/><g class="i" transform="translate(18.117 210.677)"><rect width="24.368" height="24.368" transform="translate(0 0.217) rotate(-0.51)"/></g><path class="a" d="M732.28,577.11l-13.552-.092a3.365,3.365,0,0,0-3.308,3.434V582.9a3.354,3.354,0,0,1-3.308,3.434l-26.394-.183a3.365,3.365,0,0,1-3.273-3.434v-2.449a3.434,3.434,0,0,0-3.273-3.434H674.41l-11.846-.092a10.645,10.645,0,0,0-10.736,10.564l-.984,109.879a10.633,10.633,0,0,0,10.576,10.7l69.716.481a10.633,10.633,0,0,0,10.736-10.553l.984-109.879A10.645,10.645,0,0,0,732.28,577.11Z" transform="translate(-326.677 -298.658)"/><path class="e" d="M732.187,576.964h1.145a10.95,10.95,0,0,1,3.193.87,10.748,10.748,0,0,1,6.3,10.3c-.092,11.114-.229,27.172-.389,47.019-.08,9.924-.172,20.8-.275,32.472q-.069,8.756-.16,18.1c0,3.1,0,6.261-.08,9.454a19.688,19.688,0,0,1-.355,4.83,10.679,10.679,0,0,1-2.289,4.349,11.045,11.045,0,0,1-4.006,2.919,11.559,11.559,0,0,1-4.945.836l-10.2-.069L699.1,707.9l-21.747-.149-11.148-.08c-1.866,0-3.731,0-5.631-.08a10.726,10.726,0,0,1-5.334-1.889,10.839,10.839,0,0,1-3.617-4.349,11.525,11.525,0,0,1-.984-5.528q0-5.608.1-11.148.1-11.068.195-21.747c.137-14.284.263-28.065.378-41.2q.08-9.843.183-19.183c0-3.1.057-6.169.08-9.156v-4.5a17.78,17.78,0,0,1,.343-4.407,10.736,10.736,0,0,1,5.128-6.707,10.576,10.576,0,0,1,3.972-1.316c1.4-.149,2.758-.057,4.12-.069l7.955.057h5.757a3.434,3.434,0,0,1,1.831.458,3.583,3.583,0,0,1,1.705,3.159v1.808a4.35,4.35,0,0,0,.183,1.728,3.262,3.262,0,0,0,2.449,2.152c1.145.114,2.289,0,3.434.08l12.59.092,10.988.092a3.319,3.319,0,0,0,3.182-2.987v-2.289a4.373,4.373,0,0,1,.366-2.106,3.434,3.434,0,0,1,3.228-1.9h8.836l4.464.057h-13.3a3.273,3.273,0,0,0-3.136,1.866,4.132,4.132,0,0,0-.355,2.06v2.289a3.434,3.434,0,0,1-3.273,3.09l-11-.069-12.59-.08c-1.145,0-2.289,0-3.434-.08a3.434,3.434,0,0,1-2.575-2.289,4.576,4.576,0,0,1-.195-1.786v-1.808a3.434,3.434,0,0,0-1.637-3.01,3.17,3.17,0,0,0-1.751-.435h-5.746l-7.955-.057a40.876,40.876,0,0,0-4.1.069,10.553,10.553,0,0,0-8.928,7.886,17.872,17.872,0,0,0-.343,4.372c0,1.477,0,2.976,0,4.487,0,3.01-.057,6.078-.08,9.157q-.08,9.317-.172,19.172c-.114,13.128-.229,26.909-.355,41.2q-.1,10.713-.195,21.747,0,5.528-.1,11.148a11.5,11.5,0,0,0,.95,5.437,10.712,10.712,0,0,0,3.548,4.246,10.483,10.483,0,0,0,5.219,1.843c1.866.091,3.754,0,5.62.08l11.137.08,21.747.149,21.026.16,10.2.069a11.593,11.593,0,0,0,4.853-.812,10.907,10.907,0,0,0,3.926-2.873,10.474,10.474,0,0,0,2.209-4.258,19.569,19.569,0,0,0,.343-4.773c0-3.193.069-6.352.091-9.454q.092-9.34.172-18.1c.1-11.675.206-22.548.3-32.472.195-19.847.355-35.905.469-47.03a10.726,10.726,0,0,0-2.083-6.867,10.553,10.553,0,0,0-4.143-3.365,11.287,11.287,0,0,0-3.182-.893Z" transform="translate(-326.584 -298.512)"/><rect class="d" width="73.665" height="51.151" transform="matrix(1, 0.002, -0.002, 1, 333.401, 309.71)"/><circle class="a" cx="10.69" cy="10.69" r="10.69" transform="translate(357.615 326.871) rotate(-11.33)"/><path class="d" d="M722.515,668.047l.011-4.819,4.166,2.415,4.166,2.415-4.178,2.4-4.178,2.392Z" transform="translate(-354.958 -332.79)"/><path class="e" d="M679.073,725.455v-.824a.1.1,0,0,1,.149-.092l.71.412.71.423a.091.091,0,0,1,0,.16l-.71.412-.721.412a.092.092,0,0,1-.137-.08Z" transform="translate(-337.818 -356.982)"/><path class="e" d="M689.671,724.5h-.618a.092.092,0,0,0-.092.1v1.145a.1.1,0,0,0,.1.092h.607l.95.961v-3.2Z" transform="translate(-341.72 -356.616)"/><path class="e" d="M682.466,726.469h0a.16.16,0,0,1-.16-.16v-1.648a.172.172,0,0,1,.172-.172h0a.172.172,0,0,1,.16.172v1.648a.172.172,0,0,1-.172.16Z" transform="translate(-339.094 -356.967)"/><path class="e" d="M692.346,724.508v2a1.144,1.144,0,0,0,.7-1.007,1.064,1.064,0,0,0-.7-1Z" transform="translate(-343.057 -356.974)"/><path class="e" d="M692.339,723.241v.423A1.385,1.385,0,0,1,693.346,725a1.419,1.419,0,0,1-1.019,1.351v.412a1.8,1.8,0,0,0,0-3.525Z" transform="translate(-343.049 -356.474)"/><path class="e" d="M700.411,725.094v1.934h-.275v-1.694H699.7v-.24Z" transform="translate(-345.959 -357.205)"/><path class="e" d="M701.473,726.033a.191.191,0,1,1,.195.195A.2.2,0,0,1,701.473,726.033Zm0,1.145a.189.189,0,0,1,.378,0,.193.193,0,1,1-.378-.057Z" transform="translate(-346.655 -357.504)"/><path class="e" d="M702.613,726.052c0-.641.332-1,.79-1s.79.366.79,1-.343,1-.79,1S702.613,726.682,702.613,726.052Zm1.3,0c0-.492-.206-.744-.515-.744s-.515.24-.515.744.206.744.515.744.515-.252.515-.744Z" transform="translate(-347.108 -357.19)"/><path class="e" d="M706.178,725.094v1.946H705.9v-1.705h-.435v-.24Z" transform="translate(-348.235 -357.205)"/><path class="e" d="M709.137,724.451h.24l-.916,2.61h-.252Z" transform="translate(-349.317 -356.952)"/><path class="e" d="M712.931,726.495c0,.355-.3.572-.778.572s-.767-.229-.767-.572a.481.481,0,0,1,.343-.469.446.446,0,0,1-.263-.424c0-.32.275-.526.7-.526s.7.206.7.526a.435.435,0,0,1-.275.423A.469.469,0,0,1,712.931,726.495Zm-.275,0c0-.217-.195-.343-.492-.343s-.492.126-.492.343.183.355.481.355.5-.149.5-.366Zm-.916-.87c0,.195.149.309.423.309s.423-.114.423-.309-.16-.309-.423-.309-.424.1-.424.355Z" transform="translate(-350.571 -357.198)"/><path class="e" d="M714.355,726.064a.189.189,0,1,1,.183.195.195.195,0,0,1-.183-.195Zm0,1.145a.183.183,0,1,1,.183.183A.183.183,0,0,1,714.355,727.209Z" transform="translate(-351.742 -357.511)"/><path class="e" d="M715.394,726.079c0-.63.343-.984.8-.984s.79.355.79,1-.343.984-.8.984S715.394,726.72,715.394,726.079Zm1.3,0c0-.5-.206-.755-.5-.755s-.515.252-.515.744.206.755.5.755.515-.24.515-.733Z" transform="translate(-352.153 -357.205)"/><path class="e" d="M718.5,726.09c0-.641.343-1,.79-1s.79.366.79,1-.343,1-.79,1S718.5,726.719,718.5,726.09Zm1.3,0c0-.492-.206-.744-.515-.744s-.515.24-.515.744.206.744.515.744.492-.252.492-.744Z" transform="translate(-353.377 -357.205)"/><path class="e" d="M667.235,726.216h0a.343.343,0,0,1-.32-.332v-1.705a.332.332,0,0,1,.332-.332h0a.321.321,0,0,1,.32.332v1.705A.332.332,0,0,1,667.235,726.216Z" transform="translate(-333.02 -356.713)"/><path class="e" d="M669.618,726.216h0a.321.321,0,0,1-.32-.332v-1.705a.332.332,0,0,1,.332-.332h0a.332.332,0,0,1,.32.332v1.705A.332.332,0,0,1,669.618,726.216Z" transform="translate(-333.96 -356.713)"/><path class="c" d="M739.223,720.234l-72.612-.172a.7.7,0,0,1-.7-.7h0a.7.7,0,0,1,.7-.7l72.623.172a.7.7,0,0,1,.7.7h0a.7.7,0,0,1-.71.7Z" transform="translate(-332.625 -354.668)"/><path class="d" d="M693.3,720.119l-26.692-.057a.7.7,0,0,1-.7-.7h0a.7.7,0,0,1,.7-.7l26.692.057a.606.606,0,0,1,.607.607v.195a.595.595,0,0,1-.607.6Z" transform="translate(-332.625 -354.668)"/><path class="d" d="M711.587,719.052a1.339,1.339,0,1,1-.819-1.245,1.351,1.351,0,0,1,.819,1.245Z" transform="translate(-349.593 -354.288)"/><path class="e" d="M739.953,742.254c0,.172-16.23.263-36.237.217s-36.271-.217-36.271-.389,16.23-.252,36.249-.206S739.953,742.094,739.953,742.254Z" transform="translate(-333.229 -363.823)"/><path class="e" d="M739.942,754.133c0,.172-16.23.263-36.249.217s-36.249-.217-36.249-.435,16.219-.252,36.237-.206S739.942,753.927,739.942,754.133Z" transform="translate(-333.229 -368.491)"/><path class="e" d="M739.911,765.926c0,.172-16.23.263-36.237.218s-36.249-.218-36.249-.389,16.23-.252,36.249-.206S739.911,765.766,739.911,765.926Z" transform="translate(-333.222 -373.166)"/><path class="a" d="M733.223,250.514l-13.552-.069a3.365,3.365,0,0,0-3.3,3.434v2.449a3.365,3.365,0,0,1-3.308,3.434l-26.394-.126A3.354,3.354,0,0,1,683.4,256.2v-2.449a3.434,3.434,0,0,0-3.273-3.434H663.507A10.633,10.633,0,0,0,652.794,260.9l-.721,170.473a10.644,10.644,0,0,0,10.61,10.667l69.716.32a10.633,10.633,0,0,0,10.7-10.576l.687-170.6A10.645,10.645,0,0,0,733.223,250.514Z" transform="translate(-327.162 -169.833)"/><path class="e" d="M733.165,250.42h.366a7.717,7.717,0,0,1,1.076.092,10.1,10.1,0,0,1,3.983,1.385,10.783,10.783,0,0,1,4.441,5.151,11.1,11.1,0,0,1,.778,4.315v5.013c-.057,14.181-.126,34.681-.217,60.021s-.217,55.5-.355,89c0,4.189,0,8.424-.057,12.716-.057,2.129.195,4.338-.458,6.455a11.756,11.756,0,0,1-1.408,2.964,11.582,11.582,0,0,1-2.289,2.4,10.645,10.645,0,0,1-6.169,2.289h-6.673l-13.552-.069-27.79-.092-14.216-.057h-7.188a11.24,11.24,0,0,1-6.867-1.923,10.816,10.816,0,0,1-4.2-5.814,11.526,11.526,0,0,1-.435-3.583V427.1q0-7.154.069-14.216,0-14.135.115-27.813c.08-18.233.16-35.814.229-52.57s.149-32.678.217-47.569q0-11.182.091-21.564a21.931,21.931,0,0,1,.332-5.128,10.713,10.713,0,0,1,2.289-4.452,11,11,0,0,1,3.983-2.884,11.664,11.664,0,0,1,4.739-.813h15.91a3.434,3.434,0,0,1,2.072.63,3.526,3.526,0,0,1,1.248,1.74,6.5,6.5,0,0,1,.183,2.095,17.382,17.382,0,0,0,0,2.049,3.331,3.331,0,0,0,.836,1.774,3.125,3.125,0,0,0,1.66.973,10.977,10.977,0,0,0,1.946.092h3.834l14.033.08h7.634a3.068,3.068,0,0,0,1.3-.458,3.434,3.434,0,0,0,1.488-2.152,19.462,19.462,0,0,0,.114-2.552,4.177,4.177,0,0,1,.481-2.369,3.3,3.3,0,0,1,1.717-1.465,5.333,5.333,0,0,1,2.106-.206h6.867l5.723.057h-12.59a5.391,5.391,0,0,0-2.083.206,3.25,3.25,0,0,0-1.671,1.442,4.075,4.075,0,0,0-.469,2.289,18.007,18.007,0,0,1-.08,2.587,3.433,3.433,0,0,1-1.534,2.22,3.251,3.251,0,0,1-1.339.481H687.875a11.584,11.584,0,0,1-1.98-.092,3.274,3.274,0,0,1-1.728-1.019,3.434,3.434,0,0,1-.881-1.843,17.881,17.881,0,0,1,0-2.072,6.428,6.428,0,0,0-.172-2.049,3.433,3.433,0,0,0-1.145-1.66c-1.145-.9-2.724-.527-4.166-.618H664.067a11.446,11.446,0,0,0-4.658.813,10.77,10.77,0,0,0-3.914,2.839,10.3,10.3,0,0,0-2.289,4.384,21.382,21.382,0,0,0-.332,5.082q0,10.393-.08,21.564c-.057,14.879-.126,30.812-.195,47.568s-.137,34.337-.217,52.57q0,13.666-.115,27.813,0,7.062-.057,14.216v3.594a11.01,11.01,0,0,0,.423,3.514,10.6,10.6,0,0,0,4.109,5.723,10.988,10.988,0,0,0,6.764,1.877h7.188l14.216.069,27.8.126,13.552.069h6.661a10.507,10.507,0,0,0,6.043-2.22,11.353,11.353,0,0,0,2.209-2.358,11.045,11.045,0,0,0,1.385-2.9c.641-2.072.389-4.258.458-6.4,0-4.292,0-8.527.057-12.716.149-33.5.286-63.661.4-89s.218-45.783.286-60.021c-.069-3.514.412-6.764-.733-9.305a10.714,10.714,0,0,0-4.4-5.128,10.108,10.108,0,0,0-3.972-1.408,10.635,10.635,0,0,0-1.064-.1Z" transform="translate(-327.105 -169.739)"/><path class="e" d="M741.077,291.25c0,.16-14.719.3-32.884.3s-32.884-.137-32.884-.3,14.719-.3,32.884-.3S741.077,291.09,741.077,291.25Z" transform="translate(-336.333 -185.869)"/><rect class="d" width="59.77" height="41.502" transform="translate(342.033 215.134)"/><path class="a" d="M502.309,319.534H482.016a5.048,5.048,0,0,0-4.933,5.151v3.686a5.036,5.036,0,0,1-4.922,5.139H432.6a5.036,5.036,0,0,1-4.922-5.151v-3.686a5.048,5.048,0,0,0-4.933-5.151H397.855a16.024,16.024,0,0,0-15.955,15.9l-.057,256.087A16.024,16.024,0,0,0,397.8,607.474l104.454.069a16.024,16.024,0,0,0,15.967-15.967l.057-256.1A16.024,16.024,0,0,0,502.309,319.534Z" transform="translate(-220.515 -197.145)"/><path class="e" d="M502.146,319.406h.538a11.346,11.346,0,0,1,1.625.126,14.937,14.937,0,0,1,5.986,2.06,15.522,15.522,0,0,1,3.64,2.953,15.749,15.749,0,0,1,3.045,4.773,16.5,16.5,0,0,1,1.145,6.478v7.531c0,21.266,0,52.044.057,90.078s0,83.325,0,133.606v23.922a17.166,17.166,0,0,1-.618,4.876,15.957,15.957,0,0,1-2.037,4.5,17.27,17.27,0,0,1-3.319,3.7,16.116,16.116,0,0,1-9.225,3.571c-3.342.1-6.673,0-10.038,0H398.825a16.825,16.825,0,0,1-10.393-2.873,16.287,16.287,0,0,1-6.33-8.745,17.628,17.628,0,0,1-.664-5.4V335.544a15.809,15.809,0,0,1,.08-1.946,14.646,14.646,0,0,1,.332-1.9,16.051,16.051,0,0,1,16.379-12.487h23.887a5.2,5.2,0,0,1,3.148.881,5.345,5.345,0,0,1,1.957,2.564,8.779,8.779,0,0,1,.321,3.159v1.557a11.173,11.173,0,0,0,0,1.522,5.07,5.07,0,0,0,1.145,2.667,4.772,4.772,0,0,0,2.438,1.511,5.106,5.106,0,0,0,1.442.149h39.751a4.67,4.67,0,0,0,1.946-.687,5.025,5.025,0,0,0,2.289-3.216,9.151,9.151,0,0,0,.126-1.934v-1.911a11.321,11.321,0,0,1,.08-1.866,5.413,5.413,0,0,1,.607-1.705,5.036,5.036,0,0,1,2.552-2.289,8.012,8.012,0,0,1,3.171-.343h0a7.9,7.9,0,0,0-3.125.343A4.853,4.853,0,0,0,477.5,321.8a5.276,5.276,0,0,0-.584,1.671,12,12,0,0,0-.08,1.831v2.117a9.541,9.541,0,0,1-.126,1.969,5.219,5.219,0,0,1-2.289,3.342,5.047,5.047,0,0,1-2.037.721c-.733.069-1.454,0-2.186,0H432.773a5.608,5.608,0,0,1-1.5-.149,5.025,5.025,0,0,1-2.587-1.591,5.414,5.414,0,0,1-1.259-2.816,11.912,11.912,0,0,1,0-1.557v-1.557a8.514,8.514,0,0,0-.32-3.056,4.968,4.968,0,0,0-1.843-2.426,4.807,4.807,0,0,0-2.987-.824H398.345a15.807,15.807,0,0,0-12.762,5.723,16.024,16.024,0,0,0-3.285,6.627c-.16.607-.206,1.236-.321,1.854a10.6,10.6,0,0,0-.08,1.911V590.555a17.031,17.031,0,0,0,.652,5.276,15.955,15.955,0,0,0,6.146,8.5,16.5,16.5,0,0,0,10.141,2.793h94.175c3.354,0,6.719.057,10.015,0A15.714,15.714,0,0,0,512,603.695a16.7,16.7,0,0,0,3.239-3.594,15.532,15.532,0,0,0,1.98-4.372,16.678,16.678,0,0,0,.607-4.761V567.046c0-50.281,0-95.572.08-133.606s.069-68.812.091-90.078V335.83a16.514,16.514,0,0,0-1.144-6.432,16.025,16.025,0,0,0-3-4.739,15.4,15.4,0,0,0-3.605-2.953,15.063,15.063,0,0,0-5.952-2.095,10.293,10.293,0,0,0-1.614-.149Z" transform="translate(-220.352 -197.017)"/><path class="e" d="M578.455,364.992c0,.069-2.633.149-5.895.172s-5.895,0-5.895-.08,2.644-.137,5.895-.172S578.455,364.911,578.455,364.992Z" transform="translate(-293.456 -215.052)"/><path class="e" d="M578.569,369.975c0,.069-2.644.149-5.895.183s-5.895,0-5.895-.08,2.633-.149,5.883-.172S578.557,369.906,578.569,369.975Z" transform="translate(-293.501 -217.025)"/><path class="e" d="M578.606,374.957c0,.069-2.644.149-5.895.172s-5.895,0-5.895-.08,2.633-.137,5.895-.172S578.606,374.888,578.606,374.957Z" transform="translate(-293.516 -218.986)"/><path class="e" d="M400.845,371.746h.927l2.518-.057-.011.057v-2.873a.973.973,0,0,1,.847-.778h1.145a.984.984,0,0,1,.824.973v2.655l-.126-.114h3.182l-.126.114v-4.956a.984.984,0,0,0-.446-.755l-1.385-1.374-1.339-1.316-.652-.641a1.453,1.453,0,0,0-.652-.492.87.87,0,0,0-.733.137l-.584.584-1.145,1.145c-.71.744-1.465,1.419-2,2.06a2.289,2.289,0,0,0-.16,1.145v4.1a3.222,3.222,0,0,1,0,.412v-5.1a1.294,1.294,0,0,1,.183-.664c.584-.71,1.282-1.351,2-2.117l1.145-1.145c.206-.206.378-.4.618-.607a1.076,1.076,0,0,1,.916-.183,1.728,1.728,0,0,1,.767.538l.652.641,1.339,1.316,1.4,1.373a3.88,3.88,0,0,1,.355.378.985.985,0,0,1,.16.538v5.093h-3.422v-2.747a.755.755,0,0,0-.641-.767h-1.145a.79.79,0,0,0-.675.618c0,.32,0,.7,0,1.019v1.9h-3.731Z" transform="translate(-228.014 -213.875)"/><rect class="d" width="24.368" height="24.368" transform="translate(179.4 321.328)"/><path class="d" d="M505.688,652.384c0,.114-8.149.206-18.2.206s-18.2-.092-18.2-.206,8.138-.218,18.2-.218S505.688,652.259,505.688,652.384Z" transform="translate(-255.027 -328.424)"/><path class="e" d="M534.684,664.72c0,.114-14.639.206-32.7.206s-32.712-.092-32.712-.206,14.639-.206,32.712-.206S534.684,664.605,534.684,664.72Z" transform="translate(-255.019 -333.297)"/><path class="e" d="M533.918,673.531c0,.114-14.467.206-32.323.206s-32.323-.092-32.323-.206,14.467-.206,32.323-.206S533.918,673.416,533.918,673.531Z" transform="translate(-255.019 -336.774)"/><path class="e" d="M507.444,681.945c0,.114-8.55.206-19.092.206s-19.08-.092-19.08-.206,8.539-.206,19.08-.206S507.444,681.83,507.444,681.945Z" transform="translate(-255.019 -340.095)"/><g class="i" transform="translate(179.4 321.328)"><rect width="24.368" height="24.368"/></g><rect class="d" width="24.368" height="24.368" transform="translate(179.4 360.999)"/><path class="d" d="M505.688,717.907c0,.114-8.149.206-18.2.206s-18.2-.092-18.2-.206,8.138-.206,18.2-.206S505.688,717.793,505.688,717.907Z" transform="translate(-255.027 -354.288)"/><path class="e" d="M534.684,730.235c0,.114-14.639.217-32.7.217s-32.712-.1-32.712-.217,14.639-.206,32.712-.206S534.684,730.121,534.684,730.235Z" transform="translate(-255.019 -359.153)"/><path class="e" d="M533.918,739.152c0,.115-14.467.206-32.323.206s-32.323-.091-32.323-.206,14.467-.218,32.323-.218S533.918,738.981,533.918,739.152Z" transform="translate(-255.019 -362.668)"/><path class="e" d="M507.444,747.46c0,.114-8.55.206-19.092.206s-19.08-.092-19.08-.206,8.539-.206,19.08-.206S507.444,747.346,507.444,747.46Z" transform="translate(-255.019 -365.951)"/><g class="i" transform="translate(179.4 360.999)"><rect width="24.368" height="24.368"/></g><rect class="d" width="56.416" height="75.061" transform="matrix(0.006, -1, 1, 0.006, 192.785, 248.884)"/><path class="d" d="M432.194,505.717l26.417-34.932,16.116,22.033,11.079-11.663,21.461,24.975Z" transform="translate(-240.386 -256.841)"/><path class="d" d="M506.383,460.029a5.906,5.906,0,1,1-5.872-5.94A5.906,5.906,0,0,1,506.383,460.029Z" transform="translate(-265.004 -250.252)"/><g class="j" transform="translate(191.808 213.944)"><path d="M432.194,505.717l26.417-34.932,16.116,22.033,11.079-11.663,21.461,24.975Z" transform="translate(-432.194 -470.785)"/></g><g class="j" transform="translate(229.567 203.837)"><path d="M506.383,460.029a5.906,5.906,0,1,1-5.872-5.94A5.906,5.906,0,0,1,506.383,460.029Z" transform="translate(-494.571 -454.089)"/></g><path class="e" d="M511.4,546.709c0,.16-21.8.3-48.69.3s-48.69-.137-48.69-.3,21.781-.275,48.69-.275S511.4,546.549,511.4,546.709Z" transform="translate(-233.215 -286.697)"/><path class="e" d="M511.4,557.169c0,.16-21.8.3-48.69.3s-48.69-.137-48.69-.3,21.8-.3,48.69-.3S511.4,557,511.4,557.169Z" transform="translate(-233.215 -290.816)"/><path class="d" d="M494.558,596.695h-31.75a8.321,8.321,0,0,1-8.321-8.321h0a8.321,8.321,0,0,1,8.321-8.321h31.751a8.31,8.31,0,0,1,8.321,8.321h0a8.31,8.31,0,0,1-8.321,8.321Z" transform="translate(-249.184 -299.964)"/><path class="c" d="M517.532,621.021c0,.16-30.011.3-67.026.3s-67.038-.137-67.038-.3,30.011-.3,67.038-.3S517.532,620.849,517.532,621.021Z" transform="translate(-221.157 -316.015)"/><path class="d" d="M504.081,412.393c0,.172-12.373.3-27.63.3s-27.619-.126-27.619-.3,12.361-.3,27.619-.3S504.081,412.232,504.081,412.393Z" transform="translate(-246.953 -233.679)"/><path class="d" d="M546.875,592.62a1.808,1.808,0,1,1-1.808-1.808A1.808,1.808,0,0,1,546.875,592.62Z" transform="translate(-284.218 -304.21)"/><path class="d" d="M621.3,396.689a1.818,1.818,0,0,1-.435,0h-6.329l-18.725.217.206-.195v71.57c0,17.443-.1,33.822-.137,47.74v.263h-.3l-35.745-.114-10.027-.069h0l10.027-.069,35.745-.115-.252.263c0-13.93,0-30.3.057-47.74.091-28.443.172-54.035.229-71.57v-.206h.195l18.725.092h6.33Z" transform="translate(-285.405 -227.59)"/><circle class="a" cx="8.676" cy="8.676" r="8.676" transform="translate(363.242 227.129)"/><path class="d" d="M726.191,504.354v-3.9l3.388,1.946,3.388,1.957-3.388,1.957-3.388,1.946Z" transform="translate(-356.414 -268.549)"/><rect class="f" width="44.535" height="59.254" transform="matrix(0.006, -1, 1, 0.006, 341.152, 159.658)"/><path class="e" d="M677.636,363.118l20.854-27.561,12.728,17.386,8.745-9.214L736.9,363.45Z" transform="translate(-337.251 -203.472)"/><path class="e" d="M736.211,327.051a4.67,4.67,0,1,1-4.647-4.693A4.67,4.67,0,0,1,736.211,327.051Z" transform="translate(-356.682 -198.264)"/><rect class="f" width="45.875" height="3.067" transform="translate(348.065 168.481)"/><path class="e" d="M739.671,415.115c0,.172-14.731.309-32.884.309s-32.9-.137-32.9-.309,14.719-.3,32.9-.3S739.671,414.955,739.671,415.115Z" transform="translate(-335.774 -234.753)"/><path class="e" d="M739.671,429.012c0,.172-14.731.309-32.884.309s-32.9-.137-32.9-.309,14.719-.3,32.9-.3S739.671,428.841,739.671,429.012Z" transform="translate(-335.774 -240.238)"/><path class="e" d="M739.671,442.872c0,.172-14.731.3-32.884.3s-32.9-.126-32.9-.3,14.719-.3,32.9-.3S739.671,442.712,739.671,442.872Z" transform="translate(-335.774 -245.708)"/><path class="e" d="M739.671,456.75c0,.172-14.731.3-32.884.3s-32.9-.126-32.9-.3,14.719-.3,32.9-.3S739.671,456.59,739.671,456.75Z" transform="translate(-335.774 -251.185)"/><path class="d" d="M670.853,395.525a1.808,1.808,0,1,1-1.808-1.808,1.809,1.809,0,0,1,1.808,1.808Z" transform="translate(-333.147 -226.426)"/><path class="d" d="M730.33,549.623a1.763,1.763,0,1,1-1.751-1.545,1.66,1.66,0,0,1,1.751,1.545Z" transform="translate(-356.661 -287.344)"/><path class="d" d="M730.329,617.041a1.763,1.763,0,1,1-1.751-1.557A1.671,1.671,0,0,1,730.329,617.041Z" transform="translate(-356.66 -313.947)"/><path class="d" d="M729.533,591.448c-.16,0-.3-9.157-.3-20.408s.137-20.408.3-20.408.3,9.157.3,20.408S729.693,591.448,729.533,591.448Z" transform="translate(-357.615 -288.353)"/><path class="d" d="M427.094,347.738v-4.75c0-3.113-.057-7.577-.092-13.163,0-11.251,0-26.978-.1-45.073l.286.3H407.132l-58.671-.08-17.775-.092-4.83-.057H324.6a1.951,1.951,0,0,1-.423,0h1.683l4.83-.057,17.775-.092,58.671-.092h20.259v.286c0,18.1-.08,33.822-.1,45.073,0,5.586-.069,10.049-.092,13.163v4.441A1.145,1.145,0,0,1,427.094,347.738Z" transform="translate(-197.756 -183.355)"/><path class="d" d="M494.9,387.735a1.82,1.82,0,1,1-1.82-1.808,1.82,1.82,0,0,1,1.82,1.808Z" transform="translate(-263.698 -223.351)"/><path class="d" d="M324.746,283.686a1.808,1.808,0,1,1-1.808-1.808A1.808,1.808,0,0,1,324.746,283.686Z" transform="translate(-196.554 -182.288)"/></g><g transform="translate(47.658 98.257)"><path class="k" d="M268.2,287.835l5.723,7.428s2.77,4.269.618,5.185c-1.9.8-3.136-1.591-3.136-1.591s-1.213-5.448-3.571-4.12c-.332.195.24,4.063.561,6.02a2.816,2.816,0,0,0,1.076,1.808l6.272,4.807A8.173,8.173,0,0,0,279.745,309l2.232.263,1.843,3.663,10.141-4.132-8.012-10.439-4.338-6.638a2.61,2.61,0,0,0-2.381-.561l-1,.252-.755-.744a1.694,1.694,0,0,0-1.694-.446l-.618.172-1.763-1.728c-.561-.561-4.43-4.166-5.151-3.846a2.014,2.014,0,0,0-.057,3.022Z" transform="translate(-181.768 -281.696)"/><path class="l" d="M284.431,298.376a8.011,8.011,0,0,0-.584-.836,3.777,3.777,0,0,0-2.117-1.145,10.586,10.586,0,0,1-1.683-1.866,3.5,3.5,0,0,1-.515-.893,8.693,8.693,0,0,1,.618.824,15.1,15.1,0,0,0,1.671,1.774c.206.069.435.114.664.195a3.434,3.434,0,0,1,1.465,1.053,3.067,3.067,0,0,1,.389.641A.882.882,0,0,1,284.431,298.376Z" transform="translate(-186.5 -285.186)"/><path class="l" d="M287.584,297.481a1.306,1.306,0,0,0-.343-.4,1.271,1.271,0,0,0-1.145-.206h-.057l-.126-.126a10.451,10.451,0,0,1-1.351-1.579,12.143,12.143,0,0,1,1.477,1.454l.126.126h-.092a1.328,1.328,0,0,1,1.328.3C287.584,297.229,287.618,297.481,287.584,297.481Z" transform="translate(-188.484 -285.791)"/><path class="d" d="M268.046,824.549l-3.583,32.826,17.672,2.289,3.663-32.872Z" transform="translate(-180.552 -494.713)"/><path class="e" d="M279.083,857.668c.149,0,.973-7.165,1.831-16.024s1.431-16.081,1.282-16.093-.961,7.165-1.82,16.024S278.934,857.657,279.083,857.668Z" transform="translate(-186.313 -495.108)"/><path class="e" d="M264.715,875.052l17.672,2.232-.252,2.312-17.672-2.289Z" transform="translate(-180.552 -514.644)"/><path class="e" d="M284.135,861.107a4.2,4.2,0,0,0-.378-.767,13.151,13.151,0,0,0-1.4-1.854,12.283,12.283,0,0,0-2.667-2.221,9.489,9.489,0,0,0-11.251.893,8.242,8.242,0,0,0-1.5,1.786c-.286.469-.4.755-.366.778a18.137,18.137,0,0,1,2.117-2.289,9.465,9.465,0,0,1,6.867-2.026,10.942,10.942,0,0,1,6.467,3.331C283.436,860.122,284.054,861.164,284.135,861.107Z" transform="translate(-181.384 -506.662)"/><g class="i" transform="translate(86.097 339.954)"><path d="M286.182,842.74l-.4,3.617-17.707-2.369.3-2.724Z" transform="translate(-268.074 -841.264)"/></g><path class="d" d="M228.368,827.836l1.4,33,17.81-.4-1.328-33.067Z" transform="translate(-166.307 -495.825)"/><path class="e" d="M243.948,859.25c.149,0-.126-7.234-.618-16.138s-1.007-16.116-1.145-16.1.126,7.234.618,16.138S243.8,859.25,243.948,859.25Z" transform="translate(-171.746 -495.683)"/><path class="e" d="M230.524,878.592l17.81-.458.092,2.335-17.81.4Z" transform="translate(-167.158 -515.86)"/><path class="e" d="M247.942,861.346a2.288,2.288,0,0,0-.492-.7,11.246,11.246,0,0,0-1.66-1.625,12.167,12.167,0,0,0-2.964-1.8,9.477,9.477,0,0,0-10.988,2.575,7.942,7.942,0,0,0-1.213,1.992,2.289,2.289,0,0,0-.252.824,19.068,19.068,0,0,1,1.751-2.575A9.488,9.488,0,0,1,238.659,857a10.93,10.93,0,0,1,6.867,2.289C247.106,860.465,247.873,861.4,247.942,861.346Z" transform="translate(-167.098 -507.302)"/><g class="i" transform="translate(62.484 340.961)"><path d="M246.9,842.927l.149,3.628-17.867.32-.114-2.736Z" transform="translate(-229.068 -842.927)"/></g><path class="e" d="M236.812,649.41l-.7-90.307H201.021s-2.77,22.411-1.454,31.453,10.679,58.98,10.679,58.98,3.033,66.317,4.578,83.348l21.907-1.969Z" transform="translate(-154.801 -389.953)"/><path class="e" d="M280.592,527.64a44.421,44.421,0,0,1,13.357,25.032c2.438,15.726-4.933,78.621-4.933,78.621L282.8,718.5H261.135l.7-83.966L258.09,572l-2.438-19.778Z" transform="translate(-177.075 -377.537)"/><path class="f" d="M263.511,661.826a1.591,1.591,0,0,1-.092-.538c0-.423-.092-.939-.149-1.557-.1-1.454-.24-3.434-.412-5.723-.32-4.853-.71-11.56-1.053-18.966s-.572-14.124-.652-18.988v-7.279a2.038,2.038,0,0,1,.057-.549,1.718,1.718,0,0,1,.069.549,13.358,13.358,0,0,0,.069,1.557c0,1.454.126,3.434.206,5.723.217,4.945.5,11.606.824,18.966s.652,14.032.881,18.977c.092,2.358.172,4.3.229,5.723v1.557A1.546,1.546,0,0,1,263.511,661.826Z" transform="translate(-179.246 -409.34)"/><path class="f" d="M294.878,704.724a25.914,25.914,0,0,1-3.171-.206,46.686,46.686,0,0,0-15.108,1.419,24.364,24.364,0,0,1-3.079.778,13.239,13.239,0,0,1,2.964-1.145,36.912,36.912,0,0,1,15.269-1.419,12.333,12.333,0,0,1,3.125.572Z" transform="translate(-184.127 -447.099)"/><path class="f" d="M239.736,705.748c0,.1-1.053-.217-2.736-.469a20.376,20.376,0,0,0-12.842,2.106c-1.511.79-2.369,1.431-2.426,1.351a8.012,8.012,0,0,1,2.22-1.717,18.4,18.4,0,0,1,6.352-2.289,18.21,18.21,0,0,1,6.776.114,8.356,8.356,0,0,1,2.655.9Z" transform="translate(-163.688 -447.321)"/><path class="f" d="M243.154,708.462a31.022,31.022,0,0,1-13.311,3.308c0-.172,3.033-.572,6.684-1.488S243.1,708.291,243.154,708.462Z" transform="translate(-166.889 -448.892)"/><path class="f" d="M243.22,606.71a4.64,4.64,0,0,1-.8.9c-.263.286-.618.607-1.03.973s-.893.8-1.454,1.225a27.875,27.875,0,0,1-4.12,2.77,18.965,18.965,0,0,1-5.78,2.14h0l-1.053.252a27.469,27.469,0,0,1-11.766-.057,23.312,23.312,0,0,1-3.434-1.03,4.807,4.807,0,0,1-1.145-.561c0-.1,1.763.618,4.693,1.145a29.334,29.334,0,0,0,11.56-.114l1.03-.252h0a19.457,19.457,0,0,0,5.6-2.037,31.031,31.031,0,0,0,4.132-2.61C241.926,607.832,243.151,606.63,243.22,606.71Z" transform="translate(-160.099 -408.74)"/><path class="f" d="M275.373,567.3s.092.366.229,1,.309,1.6.527,2.713c.435,2.392,1.053,5.723,1.785,9.626l-.16-.195,9.477,3.548-.332.092,4.75-6.158,1.145-1.488-.057.218c-.526-4.658-1.03-9.042-1.465-12.888l.4.195a24.679,24.679,0,0,1-6.5,2.095c-1.98.4-3.731.652-5.173.836s-2.587.3-3.365.355a6.4,6.4,0,0,1-1.2,0,7.6,7.6,0,0,1,1.145-.195l3.342-.492c1.431-.229,3.17-.526,5.128-.961a25.56,25.56,0,0,0,6.329-2.117l.343-.195v.389c.458,3.834.973,8.218,1.534,12.876v.126l-.08.092-1.145,1.488-4.761,6.146-.126.172-.206-.08c-3.434-1.328-6.593-2.552-9.385-3.651h-.137V580.7c-.63-4.029-1.145-7.383-1.545-9.82-.172-1.145-.3-1.992-.4-2.678A4.781,4.781,0,0,1,275.373,567.3Z" transform="translate(-184.858 -391.602)"/><path class="f" d="M232.581,573.726a5.9,5.9,0,0,1,0,.916c0,.7,0,1.591-.1,2.7-.114,2.472-.275,5.86-.469,9.935v.137l-.126.069-8.939,4.658-.195.1-.149-.16-5.4-5.6-1.3-1.339-.08-.092v-.069c0-4.7.08-9.157.1-12.979v-.389l.366.149a24.95,24.95,0,0,0,6.513,1.419c2,.217,3.754.32,5.208.389l3.365.126a8.146,8.146,0,0,1,1.145.069,6.3,6.3,0,0,1-1.145.092h-3.376c-1.454,0-3.228-.092-5.242-.275a24.526,24.526,0,0,1-6.684-1.362l.366-.24v12.979l-.08-.206,1.293,1.339,5.4,5.608-.343-.057,8.973-4.578-.137.206c.3-4.006.549-7.337.721-9.763.092-1.145.172-2.049.229-2.758a7.612,7.612,0,0,1,.092-1.03Z" transform="translate(-161.352 -394.893)"/><path class="f" d="M259.338,588.979a9.6,9.6,0,0,1-.675-2.529,47.329,47.329,0,0,1-.79-6.272,48.9,48.9,0,0,1,0-6.318,9.776,9.776,0,0,1,.378-2.6c.183,0-.126,3.994.172,8.882S259.51,588.933,259.338,588.979Z" transform="translate(-177.911 -394.751)"/><path class="f" d="M293.236,609.475a3.435,3.435,0,0,1-.87.424,21.115,21.115,0,0,1-2.484.836,32.151,32.151,0,0,1-8.584,1.145,32.632,32.632,0,0,1-8.584-1.145,23.073,23.073,0,0,1-2.484-.847,2.965,2.965,0,0,1-.87-.423c0-.1,1.316.355,3.434.858a37.243,37.243,0,0,0,16.963,0C291.908,609.83,293.2,609.372,293.236,609.475Z" transform="translate(-182.485 -409.823)"/><path class="d" d="M205.2,373.258s-15.8,8.63-20.419,10.656l6.307,30.182,9.935,36.2-6.661,38.183s23.418,4.143,34.9,2.655c15.715-2.037,35.745-7.817,35.745-7.817l-15.6-46.55,3.995-32.14-6.7-27.092L230.385,375.6Z" transform="translate(-149.107 -316.609)"/><g class="i" transform="translate(48.681 62.59)"><path d="M206.265,407.314c1.064,2.117,3.5,3.136,5.792,3.766s4.739,1.145,6.536,2.644c3.182,2.77,3.09,8.012,6.032,11a7.3,7.3,0,0,0,7.474,1.808c1.625-.561,3.056-1.694,4.761-1.854,1.145-.114,2.358.263,3.548.172,3.331-.229,5.288-3.766,6.616-6.867s2.793-6.536,2.449-9.981c-.5-5.162-4.8-9.328-5.46-14.467-.24-1.911,0-3.846-.172-5.723s-1.053-3.937-2.793-4.739" transform="translate(-206.265 -383.071)"/></g><path class="d" d="M302.258,347.138l-12.213-24.46,9.809-6.3s12.281,12.659,14.6,15.12c0,0,14.124,13.025,10.438,19.309a41.412,41.412,0,0,1-8.1,9.477Z" transform="translate(-190.648 -294.163)"/><path class="d" d="M161.525,390.861c-.217.641-32.872,45.783-34.623,50.6q-.137.389-.275.824a18.714,18.714,0,0,0,4.1,17.947l26.932,30.034,11.766-13.609-18.725-33,17.89-19.744Z" transform="translate(-125.847 -323.556)"/><path class="k" d="M202.714,534.377c-1.145.069-3.079,1.579-3.96,2.289a1.488,1.488,0,0,1-1.03.332h0a1.488,1.488,0,0,1-1.328-1.064l-1.145-3.926a3.651,3.651,0,0,0-2.839,1.786l-1.293,2.221-2.289-2.152-10.473,11.961s4.12,4.452,6.742,4.521,14.879-10.038,14.879-10.038l3.262-2.861S205.918,534.183,202.714,534.377Z" transform="translate(-146.57 -379.26)"/><path class="d" d="M274.654,372.542l9.271.412,13.2-10.1,18.679,10.3s-8.413,9-16.333,18.21c-6.4,7.451-10.954,12.11-10.954,12.11Z" transform="translate(-184.574 -312.505)"/><path class="e" d="M261.758,510.226a12.591,12.591,0,0,1-1.328,1.408c-.87.881-2.2,2.106-3.88,3.571a100.1,100.1,0,0,1-29.759,17.764c-2.083.778-3.789,1.362-4.979,1.717a11.243,11.243,0,0,1-1.877.492,13.474,13.474,0,0,1,1.8-.71c1.145-.423,2.85-1.064,4.9-1.9a114.351,114.351,0,0,0,15.5-7.7,115.613,115.613,0,0,0,14.135-9.981c1.705-1.419,3.067-2.587,3.983-3.434A10.735,10.735,0,0,1,261.758,510.226Z" transform="translate(-162.979 -370.664)"/><path class="e" d="M225.546,501.414c.137.08-3.159,5.425-7.348,11.915s-7.714,11.675-7.852,11.595,3.148-5.425,7.348-11.927S225.409,501.323,225.546,501.414Z" transform="translate(-159.193 -367.186)"/><path class="e" d="M294.049,410.5c-.08,0,0-1.328-.149-3.434s-.252-5.082-.549-8.332-.687-6.181-1.087-8.275-.824-3.342-.733-3.376a10.119,10.119,0,0,1,1.145,3.285,61.715,61.715,0,0,1,1.27,8.31c.3,3.273.4,6.238.378,8.39A13.963,13.963,0,0,1,294.049,410.5Z" transform="translate(-191.23 -322.064)"/><path class="e" d="M323.218,362.692a16.56,16.56,0,0,1-2.152-.881,15.5,15.5,0,0,0-5.368-1.145,9.866,9.866,0,0,0-5.265,1.225c-1.2.721-1.8,1.419-1.877,1.351a4.579,4.579,0,0,1,1.648-1.705,9.237,9.237,0,0,1,5.505-1.465,13.54,13.54,0,0,1,5.528,1.385A6.215,6.215,0,0,1,323.218,362.692Z" transform="translate(-197.954 -311.399)"/><path class="e" d="M317.33,355.659c0,.229-2.6-.069-5.128,1.568s-3.376,4.155-3.571,4.04a3.663,3.663,0,0,1,.549-1.568,8.241,8.241,0,0,1,2.69-2.964,7.772,7.772,0,0,1,3.811-1.236,3.434,3.434,0,0,1,1.648.16Z" transform="translate(-197.984 -309.586)"/><g class="i" transform="translate(51.096 126.443)"><path d="M226.542,490.845c-.183-1.064-.87-2.22-1.957-2.289s-2,1.27-2.484,2.415l-11.446,27.092-.4,1.763c4.578-7.291,9.157-14.3,13.735-21.587C225.489,496.007,226.965,493.478,226.542,490.845Z" transform="translate(-210.254 -488.554)"/></g><g class="i" transform="translate(110.648 46.191)"><path d="M308.632,361.129c1.419-2.072,2.633-4.43,5.093-4.945a9.912,9.912,0,0,1,7.234,1.293c.469.286.973.778.8,1.3a1.145,1.145,0,0,1-.961.675c-2.163.538-4.407-.092-6.616-.378a5.86,5.86,0,0,0-5.38,2.289" transform="translate(-308.632 -355.981)"/></g><path class="e" d="M189.751,422.777a16.8,16.8,0,0,1-1.351-3.136,71.606,71.606,0,0,1-3.834-16.024,16.836,16.836,0,0,1-.206-3.434,22.4,22.4,0,0,1,.63,3.354c.343,2.072.87,4.933,1.614,8.012s1.568,5.895,2.2,7.909A21.266,21.266,0,0,1,189.751,422.777Z" transform="translate(-148.933 -327.235)"/><path class="k" d="M216.841,352.987l23.178.343-2.175-20.946s1.717.858,2.049-7.726,1.145-23.143,1.145-23.143h0a29.839,29.839,0,0,0-30.114,2.953l-1.293.95Z" transform="translate(-158.912 -287.203)"/><path class="k" d="M209.86,327.1c-.149-.069-5.849-1.911-5.826,3.96s5.917,4.636,5.929,4.464S209.86,327.1,209.86,327.1Z" transform="translate(-156.704 -298.263)"/><path class="k" d="M258.509,326.419c.137-.057,5.414-1.328,5.059,4.578s-6.158,4.292-6.158,4.132S258.509,326.419,258.509,326.419Z" transform="translate(-177.769 -298.063)"/><path class="e" d="M223.853,286.323s-8.012-.3-10.862,1.145c-4.75,2.426-8.436,9.157-8.5,17.558s3.72,19.7,9.855,25.307,10.988,6.627,10.988,6.627,12.991-7.085,14.445-17.455,2.438-20.351-1.614-25.375S226.795,286.449,223.853,286.323Z" transform="translate(-156.882 -282.289)"/><path class="e" d="M205.985,307.826c-.469-5.311-.916-10.8.755-15.864s6.02-9.649,11.354-9.855a36.356,36.356,0,0,0,5.116,0,21.971,21.971,0,0,0,4.143-1.522,10.747,10.747,0,0,1,7.405-.458,6.444,6.444,0,0,1,4.464,5.551,9.534,9.534,0,0,0,.126,3.079,10.449,10.449,0,0,0,2.014,2.461,6.581,6.581,0,0,1,1.145,4.761,19.917,19.917,0,0,1-1.351,4.842l-4.372,11.72" transform="translate(-157.304 -279.676)"/><path class="e" d="M226.783,330.139a10.553,10.553,0,0,1,15.143,8.355c.378,3.434.378,4.029,2.621,6.707,1.385,1.66,2.724,1.557,4.349,2.964a6.5,6.5,0,0,1,1.476,7.634c4.2-.206,8.138-.481,9.569,3.434-6.272-1.293-12.59,4.578-18.828,3.262a13.6,13.6,0,0,1-5.654-2.072c-1.854-1.4-2.861-3.617-3.8-5.723l-5.048-11.446c-1.145-2.575-2.289-5.254-2.289-8.069s1.66-5.8,4.384-6.513" transform="translate(-164.71 -299.013)"/><path class="d" d="M223.924,330.124a8.848,8.848,0,0,1,3.045-9.775,9,9,0,0,1,10.3.4,8.538,8.538,0,0,1,3.514,7.279,5.574,5.574,0,0,1-5.162,5.151" transform="translate(-164.381 -295.165)"/><path class="e" d="M237.132,326.743a9.351,9.351,0,0,0-12.2.607c-2.987,3-3.3,9.157-2.381,13.311.973,4.452,3.7,8.767,2.793,13.231-.549,2.724-2.415,5.483-1.339,8.012.881,2.072,3.331,2.976,4.658,4.784,1.957,2.667.984,6.41-.32,9.443s-2.93,6.307-2.014,9.488c.71,2.461,2.781,4.235,4.441,6.192s2.987,4.7,1.877,7.016a6.535,6.535,0,0,0,10.3-6.581,7.829,7.829,0,0,1,2.2,5.025,10.542,10.542,0,0,0,8.012-16.173c-1.419-2.22-3.708-4.017-4.189-6.6-.572-3.09,1.66-6.112,1.373-9.237-.263-2.8-2.472-5.013-4.739-6.684s-4.8-3.182-6.261-5.586c-2.369-3.892-1.27-8.848-.355-13.311s1.362-9.729-1.843-12.968" transform="translate(-163.832 -297.471)"/><path class="e" d="M216.368,332.531c-3.17,2.14-3.434,6.684-2.942,10.484s1.053,8.069-1.282,11.1c-1.58,2.037-4.338,3.216-5.139,5.723-.984,2.987,1.465,5.986,1.751,9.157a11.537,11.537,0,0,1-1.843,6.455,25.845,25.845,0,0,0-2.884,6.135,6.215,6.215,0,0,0,1.614,6.261,8.092,8.092,0,0,0,3.983,1.431,49.215,49.215,0,0,0,15.28-.057c1.511-6.215,3.022-12.5,3.022-18.885,0-12.7-6.009-24.8-6.169-37.5" transform="translate(-156.596 -300.536)"/><path class="f" d="M232.86,395.426a3.924,3.924,0,0,1-.515-.572l-1.419-1.705a74.7,74.7,0,0,1-4.979-6.467,19.15,19.15,0,0,1-2.461-5.116,10.187,10.187,0,0,1,.126-6.49,43.754,43.754,0,0,1,3.239-6.41c1.145-2.129,2.289-4.521,2-7.073s-1.934-4.635-2.69-7.062a7.051,7.051,0,0,1-.343-1.889,5.723,5.723,0,0,1,.3-1.877,9.568,9.568,0,0,1,1.992-2.964,17.778,17.778,0,0,0,2.037-2.552,6.066,6.066,0,0,0,.824-2.861,16.025,16.025,0,0,0-1.007-5.425,18.4,18.4,0,0,1-.973-4.578,7.131,7.131,0,0,1,.71-3.434,4.75,4.75,0,0,1,1.442-1.717,2.678,2.678,0,0,1,.7-.355,5.082,5.082,0,0,0-1.923,2.175,6.788,6.788,0,0,0-.6,3.342,19.07,19.07,0,0,0,1.042,4.464,16.241,16.241,0,0,1,1.145,5.563,6.535,6.535,0,0,1-.858,3.113,17.066,17.066,0,0,1-2.083,2.644,9.3,9.3,0,0,0-1.866,2.8,5.1,5.1,0,0,0-.263,1.671,7.44,7.44,0,0,0,.32,1.717c.71,2.289,2.461,4.407,2.736,7.188a9.008,9.008,0,0,1-.492,3.949,23.444,23.444,0,0,1-1.6,3.434,43.113,43.113,0,0,0-3.216,6.3,9.683,9.683,0,0,0-.172,6.192,18.944,18.944,0,0,0,2.289,5.013c1.843,2.884,3.651,5.013,4.807,6.547.584.767,1.042,1.362,1.328,1.774A3.754,3.754,0,0,1,232.86,395.426Z" transform="translate(-164.195 -298.305)"/><path class="f" d="M218.668,350.622a18.415,18.415,0,0,0,1.225-4.292,28.845,28.845,0,0,0,.195-4.842c0-1.831-.183-3.869-.069-6.02a14.078,14.078,0,0,1,1.476-5.883,8.939,8.939,0,0,1,3.434-3.548,6.284,6.284,0,0,1,3.3-.824,4.189,4.189,0,0,1,.9.149.984.984,0,0,1,.3.114q-.572.027-1.145,0a6.307,6.307,0,0,0-3.045.939,8.916,8.916,0,0,0-3.2,3.434,14.193,14.193,0,0,0-1.362,5.723c-.114,2.106,0,4.12,0,5.975a26.554,26.554,0,0,1-.32,4.922,12.177,12.177,0,0,1-1,3.182A3.537,3.537,0,0,1,218.668,350.622Z" transform="translate(-162.479 -297.646)"/><path class="f" d="M261.114,392.754a4.72,4.72,0,0,1,.08-.732,13.039,13.039,0,0,0,0-2.095,26.326,26.326,0,0,0-1.808-7.463c-.652-1.454-1.682-2.976-2.449-4.761a11.274,11.274,0,0,1-.893-2.919,10.2,10.2,0,0,1,0-3.228c.16-1.145.412-2.175.549-3.273a10.462,10.462,0,0,0-.069-3.377,11.24,11.24,0,0,0-3.308-6.158c-1.74-1.694-4.178-2.472-5.975-4.166a11.045,11.045,0,0,1-3.1-6.123,22.766,22.766,0,0,1-.206-6.192c.149-1.934.378-3.72.492-5.345a21.894,21.894,0,0,0-.057-4.372,6.032,6.032,0,0,0-1.213-2.987,4.109,4.109,0,0,0-2.289-1.419,1.98,1.98,0,0,1,.733.1,3.857,3.857,0,0,1,1.786,1.145,6.009,6.009,0,0,1,1.373,3.079,22.3,22.3,0,0,1,.149,4.452c-.092,1.648-.3,3.434-.423,5.357a22.7,22.7,0,0,0,.252,6.055,10.576,10.576,0,0,0,2.964,5.8c1.66,1.58,4.1,2.346,5.986,4.155a11.8,11.8,0,0,1,3.434,6.49,11.56,11.56,0,0,1,.069,3.548c-.16,1.145-.412,2.232-.572,3.285a9.637,9.637,0,0,0-.08,3.079,11.926,11.926,0,0,0,.824,2.793c.733,1.763,1.728,3.251,2.392,4.8a24.7,24.7,0,0,1,1.648,7.611,10.141,10.141,0,0,1-.092,2.117,1.954,1.954,0,0,1-.126.538A.534.534,0,0,1,261.114,392.754Z" transform="translate(-171.24 -298.803)"/><path class="f" d="M257.7,360a12.363,12.363,0,0,0,.492-1.419,7.783,7.783,0,0,0-.229-4.017,8.012,8.012,0,0,0-3.949-4.326A8.012,8.012,0,0,1,250.9,348.2a16.505,16.505,0,0,1-1.957-3.491,19.183,19.183,0,0,1-.939-7.566,16.814,16.814,0,0,0-.721-6.02,7.314,7.314,0,0,0-2.289-3.3,14.671,14.671,0,0,0-1.27-.8,1.279,1.279,0,0,1,.389.092,4.578,4.578,0,0,1,1.019.527,7.073,7.073,0,0,1,2.564,3.331,16.562,16.562,0,0,1,.881,6.169,19.378,19.378,0,0,0,.939,7.337,16.7,16.7,0,0,0,1.854,3.342,5.472,5.472,0,0,0,1.339,1.145c.5.309,1.042.515,1.58.79a8.31,8.31,0,0,1,4.1,4.681,7.588,7.588,0,0,1,.057,4.212,4.247,4.247,0,0,1-.469,1.053C257.8,359.912,257.708,360.015,257.7,360Z" transform="translate(-172.366 -298.364)"/><path class="f" d="M216.189,320.073a7.68,7.68,0,0,1-2.289-1.419,15.852,15.852,0,0,1-5.883-11.56,7.177,7.177,0,0,1,.24-2.736c.1,0,0,1.053.172,2.7a17.558,17.558,0,0,0,5.723,11.274C215.353,319.444,216.246,319.982,216.189,320.073Z" transform="translate(-158.26 -289.417)"/><path class="f" d="M214.963,329.547a11.537,11.537,0,0,1-4.029-2.083,11.72,11.72,0,0,1-3.365-3.045,31.871,31.871,0,0,1,3.7,2.552A33.586,33.586,0,0,1,214.963,329.547Z" transform="translate(-158.099 -297.334)"/><path class="f" d="M256.834,308.064A17.1,17.1,0,0,1,250.15,320.2a44.64,44.64,0,0,0,4.109-5.643A42.9,42.9,0,0,0,256.834,308.064Z" transform="translate(-174.904 -290.88)"/><path class="f" d="M261.11,315.589A22.731,22.731,0,0,1,256.269,326c-.149-.1,1.225-2.289,2.552-5.151S260.939,315.543,261.11,315.589Z" transform="translate(-177.314 -293.849)"/><path class="f" d="M251.835,287.366a20.212,20.212,0,0,1-1.145-2.175,7.177,7.177,0,0,0-1.545-2.026,4.04,4.04,0,0,0-2.781-1.053,7.611,7.611,0,0,0-4.99,2.461,14.161,14.161,0,0,1-1.774,1.683,7.83,7.83,0,0,1,1.476-1.98,9.924,9.924,0,0,1,2.06-1.763,6.249,6.249,0,0,1,3.228-1,4.464,4.464,0,0,1,3.148,1.236,7.05,7.05,0,0,1,1.557,2.289,6.764,6.764,0,0,1,.767,2.323Z" transform="translate(-170.74 -280.403)"/><path class="f" d="M248.927,396.189a3.627,3.627,0,0,1-.549-.469c-.343-.332-.836-.813-1.442-1.477a19.158,19.158,0,0,1-2-2.6,9.157,9.157,0,0,1-1.431-4.109,7.107,7.107,0,0,1,.332-2.552,13.323,13.323,0,0,1,1.145-2.484c.927-1.625,2.072-3.331,2.129-5.391a11.446,11.446,0,0,0-1.8-6.123c-1.145-1.946-2.69-3.766-4.052-5.8a16.024,16.024,0,0,1-2.724-6.638,26.326,26.326,0,0,1-.114-6.684c.424-4.223,1.259-7.932,1.385-11.114a20.786,20.786,0,0,0-.721-7.428c-.538-1.683-1.076-2.529-1.019-2.564a2.885,2.885,0,0,1,.389.607,11.11,11.11,0,0,1,.847,1.889,19.984,19.984,0,0,1,.927,7.52c-.08,3.216-.87,6.97-1.259,11.148a26.086,26.086,0,0,0,.137,6.524,15.635,15.635,0,0,0,2.644,6.41c1.339,2,2.9,3.823,4.075,5.849a11.926,11.926,0,0,1,1.831,6.433c-.08,2.289-1.328,4.029-2.289,5.608a13.61,13.61,0,0,0-1.145,2.392,6.455,6.455,0,0,0-.343,2.381,8.859,8.859,0,0,0,1.293,3.96,20.444,20.444,0,0,0,1.889,2.621c.572.687,1.042,1.145,1.362,1.534A3.539,3.539,0,0,1,248.927,396.189Z" transform="translate(-170.133 -299.834)"/></g><g transform="translate(0 462.911)"><path class="e" d="M562.359,882.364c0,.172-115.35.3-257.609.3s-257.632-.126-257.632-.3,115.327-.3,257.632-.3S562.359,882.2,562.359,882.364Z" transform="translate(-47.118 -882.067)"/></g></g></g></svg>