<svg xmlns="http://www.w3.org/2000/svg" width="48.5" height="56.486" viewBox="0 0 48.5 56.486"><g transform="translate(-49.03 -14.761)"><path d="M53.243,59.56v6.534a4.35,4.35,0,0,0-4.213,4.343.808.808,0,0,0,.816.81H86.163a.806.806,0,0,0,.813-.81,4.352,4.352,0,0,0-4.216-4.343V59.5A14.74,14.74,0,0,0,72.87,45.608a14.806,14.806,0,0,0,7.607-6.021,12.78,12.78,0,1,0-6-19.645H49.846a.822.822,0,0,0-.816.826,4.364,4.364,0,0,0,4.213,4.359v6.6a14.759,14.759,0,0,0,9.865,13.887A14.76,14.76,0,0,0,53.243,59.56ZM85.217,69.607H50.793a2.759,2.759,0,0,1,2.591-1.874H82.626a2.759,2.759,0,0,1,2.591,1.874ZM59.555,66.093l5.513-5.578a3.949,3.949,0,0,1,5.578-.032l5.546,5.61ZM84.744,16.408A11.136,11.136,0,1,1,73.607,27.544,11.136,11.136,0,0,1,84.744,16.408ZM50.793,21.582H73.44a15.252,15.252,0,0,0-.814,1.874H53.384A2.759,2.759,0,0,1,50.793,21.582Zm4.09,10.136V25.1H72.2a13.517,13.517,0,0,0-.229,2.452,12.98,12.98,0,0,0,1.868,6.685H55.113a13.678,13.678,0,0,1-.23-2.515Zm3.849,9.27a13.263,13.263,0,0,1-3.193-5.116H75.027a12.555,12.555,0,0,0,3.927,3.072,13.093,13.093,0,0,1-10.891,5.831h-.094A12.979,12.979,0,0,1,58.733,40.988Zm9.214,5.426h.094A13.1,13.1,0,0,1,81.121,59.5v6.594H78.5l-6.654-6.732-.044-.045a5.591,5.591,0,0,0-7.9.046l-6.653,6.73H54.883V59.558A13.107,13.107,0,0,1,67.946,46.415Z" transform="translate(0 0)"/><path d="M287.406,61.317l7.026,4.058a.817.817,0,0,0,.818,0l7.032-4.058a.824.824,0,0,0,.414-.71V52.491a.824.824,0,0,0-.414-.71l-7.03-4.058a.822.822,0,0,0-.821,0l-7.024,4.058a.816.816,0,0,0-.406.71v8.115A.816.816,0,0,0,287.406,61.317Zm13.65-1.183-5.388,3.111V57.022l5.388-3.111Zm-.829-7.642-5.388,3.11L292.9,54.48l5.388-3.111Zm-5.388-3.111,1.8,1.042-5.388,3.111-1.8-1.042Zm-6.2,4.53,5.388,3.111v6.222l-5.388-3.11Z" transform="translate(-210.096 -29.005)"/></g></svg>