<svg xmlns="http://www.w3.org/2000/svg" width="44.303" height="44.303" viewBox="0 0 44.303 44.303"><defs><style>.a{fill:#fff;}</style></defs><path class="a" d="M43.04,31.313l-9.691-4.153a2.077,2.077,0,0,0-2.423.6L26.633,33A32.073,32.073,0,0,1,11.3,17.668l5.244-4.292a2.072,2.072,0,0,0,.6-2.423L12.988,1.261a2.091,2.091,0,0,0-2.38-1.2l-9,2.077A2.077,2.077,0,0,0,0,4.159,40.146,40.146,0,0,0,40.15,44.31,2.077,2.077,0,0,0,42.175,42.7l2.077-9a2.1,2.1,0,0,0-1.212-2.388Z" transform="translate(0 -0.006)"/></svg>