<svg xmlns="http://www.w3.org/2000/svg" width="109.926" height="57.814" viewBox="0 0 109.926 57.814"><defs><style>.a{fill:#e6e6e6;}</style></defs><path class="a" d="M54.963,90.586c29.44,0,52.077,12.4,52.077,26.022s-22.655,26.022-52.077,26.022c-29.44,0-52.077-12.4-52.077-26.022S25.541,90.586,54.963,90.586m0-2.886C24.613,87.7,0,100.633,0,116.607s24.613,28.907,54.963,28.907,54.963-12.933,54.963-28.907S85.313,87.7,54.963,87.7ZM37.478,114.288c-1.357,6.956-6.149,6.235-12.04,6.235L27.791,108.4C34.317,108.4,38.749,107.693,37.478,114.288ZM16.729,132.8h6.3l1.494-7.695c7.059,0,11.439.515,15.493-3.281,4.483-4.122,5.651-11.456,2.456-15.132-1.666-1.924-4.346-2.868-7.987-2.868H22.346Zm31.9-36.688h6.269L53.4,103.811c5.41,0,10.426-.4,12.848,1.838,2.542,2.336,1.323,5.325-1.426,19.426H58.467c2.645-13.638,3.143-14.771,2.181-15.8-.928-1-3.04-.79-8.141-.79l-3.229,16.592H43.009l5.617-28.959Zm38.113,18.172c-1.374,7.059-6.3,6.235-12.04,6.235L77.051,108.4C83.612,108.4,88.009,107.693,86.738,114.288ZM65.99,132.8h6.321l1.494-7.695c7.42,0,11.525.429,15.493-3.281,4.483-4.122,5.651-11.456,2.456-15.132-1.666-1.924-4.346-2.868-7.987-2.868H71.624Z" transform="translate(0 -87.7)"/></svg>