<svg xmlns="http://www.w3.org/2000/svg" width="30" height="40" viewBox="0 0 30 40"><defs><style>.a{fill:#fff;}</style></defs><path class="a" d="M23.283,16.74,22.328,7.5h3.3A1.875,1.875,0,0,0,27.5,5.625V1.875A1.875,1.875,0,0,0,25.625,0H4.375A1.875,1.875,0,0,0,2.5,1.875v3.75A1.875,1.875,0,0,0,4.375,7.5h3.3l-.956,9.24C2.927,18.5,0,21.661,0,25.625A1.875,1.875,0,0,0,1.875,27.5H12.5v8.126a.625.625,0,0,0,.066.28l1.875,3.75a.625.625,0,0,0,1.118,0l1.875-3.75a.626.626,0,0,0,.066-.28V27.5H28.125A1.875,1.875,0,0,0,30,25.625C30,21.626,27.033,18.483,23.283,16.74Z"/></svg>