<svg xmlns="http://www.w3.org/2000/svg" width="58.369" height="58.369" viewBox="0 0 58.369 58.369"><defs><style>.a{fill:#e6e6e6;}</style></defs><path class="a" d="M57.3,53.952c-1-4.026-2.905-7.061-6.957-7.061H45.117v6.175a8.936,8.936,0,0,1-8.7,8.833H22.5a7.1,7.1,0,0,0-6.957,7.074V82.237c0,3.778,3.283,5.993,6.957,7.074a23.412,23.412,0,0,0,13.914,0c3.5-1.016,6.957-3.062,6.957-7.074v-5.3H29.47V75.162H50.341c4.052,0,5.55-2.827,6.957-7.061,1.459-4.365,1.394-8.56,0-14.149ZM37.287,80.465a2.651,2.651,0,1,1-2.619,2.645A2.633,2.633,0,0,1,37.287,80.465ZM21.861,60.153H35.775a7.015,7.015,0,0,0,6.957-7.074V39.8c0-3.778-3.179-6.605-6.957-7.244a42.945,42.945,0,0,0-13.914.013C15.972,33.614,14.9,35.79,14.9,39.816v5.3H28.831V46.89H9.679a8.7,8.7,0,0,0-8.7,7.061,26.094,26.094,0,0,0,0,14.149c.99,4.117,3.348,7.061,7.4,7.061h4.781V68.8a8.846,8.846,0,0,1,8.7-8.651Zm-.873-18.579a2.651,2.651,0,1,1,2.619-2.645A2.633,2.633,0,0,1,20.988,41.575Z" transform="translate(0.001 -31.999)"/></svg>