<svg xmlns="http://www.w3.org/2000/svg" width="71.019" height="62.144" viewBox="0 0 71.019 62.144"><defs><style>.a{fill:#e6e6e6;}</style></defs><path class="a" d="M58.008,52.151q-1.124-.375-2.247-.707c.125-.513.236-1.026.347-1.54,1.706-8.267.583-14.911-3.2-17.1-3.648-2.094-9.6.083-15.619,5.326-.6.513-1.179,1.054-1.734,1.6-.375-.361-.763-.721-1.151-1.068-6.311-5.6-12.636-7.962-16.423-5.756-3.634,2.108-4.716,8.364-3.19,16.187.153.777.319,1.54.513,2.316-.888.25-1.762.527-2.58.818C5.313,54.786,0,58.837,0,63.026c0,4.328,5.659,8.669,13.358,11.3.624.208,1.248.416,1.886.6-.208.832-.388,1.651-.555,2.5-1.456,7.7-.319,13.8,3.315,15.9,3.745,2.164,10.042-.055,16.173-5.423.485-.43.971-.874,1.456-1.345.61.6,1.248,1.165,1.886,1.72,5.937,5.1,11.8,7.171,15.424,5.077,3.745-2.164,4.966-8.725,3.384-16.714q-.187-.915-.416-1.873c.444-.125.874-.264,1.3-.4,8-2.649,13.8-6.935,13.8-11.332,0-4.2-5.465-8.281-13.011-10.875ZM39.241,40.375c5.16-4.494,9.973-6.256,12.165-4.993,2.344,1.345,3.246,6.783,1.775,13.926-.1.472-.194.929-.319,1.387a71.01,71.01,0,0,0-9.335-1.47,70.081,70.081,0,0,0-5.909-7.365C38.159,41.346,38.686,40.86,39.241,40.375ZM23.192,70.225c.707,1.207,1.429,2.414,2.192,3.593a62.81,62.81,0,0,1-6.436-1.04A64.8,64.8,0,0,1,21.209,66.6c.638,1.221,1.29,2.427,1.984,3.62Zm-4.2-16.686c2-.444,4.12-.8,6.325-1.082-.735,1.151-1.456,2.33-2.136,3.523s-1.345,2.386-1.97,3.606c-.874-2.067-1.609-4.092-2.219-6.048Zm3.8,9.557c.915-1.914,1.914-3.787,2.968-5.632s2.192-3.634,3.384-5.4c2.081-.153,4.2-.236,6.367-.236s4.3.083,6.367.236q1.769,2.622,3.371,5.368t3.01,5.6q-1.394,2.871-3,5.659c-1.054,1.845-2.178,3.634-3.357,5.41-2.067.153-4.217.222-6.394.222s-4.286-.069-6.325-.194q-1.81-2.642-3.412-5.41C24.7,66.882,23.719,65.009,22.79,63.1ZM47.84,70.2c.707-1.221,1.373-2.455,2.025-3.7a64.385,64.385,0,0,1,2.344,6.145,60.926,60.926,0,0,1-6.519,1.11c.749-1.165,1.456-2.358,2.15-3.551Zm2-10.611c-.652-1.221-1.318-2.441-2.011-3.634s-1.387-2.344-2.122-3.5a63.829,63.829,0,0,1,6.367,1.11A61.386,61.386,0,0,1,49.838,59.586Zm-14.3-15.6a60.91,60.91,0,0,1,4.106,4.966c-2.746-.125-5.507-.125-8.253,0C32.749,47.158,34.15,45.493,35.537,43.981Zm-16.09-8.5c2.33-1.359,7.5.583,12.955,5.41.347.305.694.638,1.054.971a70.47,70.47,0,0,0-5.951,7.365,73.118,73.118,0,0,0-9.321,1.443c-.18-.707-.333-1.429-.485-2.15-1.3-6.713-.444-11.776,1.748-13.038Zm-3.4,36.563c-.583-.166-1.151-.347-1.72-.541A28.29,28.29,0,0,1,5.59,67.173a6.224,6.224,0,0,1-2.608-4.147c0-2.538,4.383-5.784,10.708-7.99.791-.277,1.6-.527,2.4-.763a73.756,73.756,0,0,0,3.4,8.822A75.82,75.82,0,0,0,16.049,72.042ZM32.222,85.635a25.388,25.388,0,0,1-7.823,4.9,6.139,6.139,0,0,1-4.9.18c-2.205-1.276-3.121-6.172-1.873-12.761.153-.777.319-1.554.513-2.316a69.393,69.393,0,0,0,9.418,1.359A73.2,73.2,0,0,0,33.554,84.4c-.444.43-.888.846-1.332,1.234Zm3.4-3.371c-1.415-1.526-2.83-3.218-4.2-5.035,1.332.055,2.7.083,4.092.083,1.429,0,2.83-.028,4.217-.1A59.819,59.819,0,0,1,35.62,82.264Zm18.129,4.161a6.165,6.165,0,0,1-2.289,4.342c-2.205,1.276-6.908-.388-11.984-4.744-.583-.5-1.165-1.04-1.762-1.6a68.617,68.617,0,0,0,5.853-7.435,68.379,68.379,0,0,0,9.46-1.456c.139.569.264,1.137.375,1.692A25.285,25.285,0,0,1,53.749,86.426Zm2.524-14.911c-.388.125-.777.25-1.179.361a70.464,70.464,0,0,0-3.537-8.85,70.111,70.111,0,0,0,3.4-8.725c.721.208,1.415.43,2.081.652,6.464,2.219,11,5.521,11,8.045C68.036,65.717,63.2,69.226,56.274,71.515ZM35.509,69.434a6.353,6.353,0,1,0-6.353-6.353,6.352,6.352,0,0,0,6.353,6.353Z" transform="translate(0 -32.013)"/></svg>