<svg xmlns="http://www.w3.org/2000/svg" width="180.782" height="205.021" viewBox="0 0 180.782 205.021"><defs><style>.a{fill:#53c1de;}.b{fill:#fff;}.c{fill:#3f3d56;}.d{opacity:0.1;}.e{fill:#a0616a;}.f{fill:#111e6c;}</style></defs><g transform="translate(-234.61 -0.04)"><path class="a" d="M429.241,288.481q-2.886-.989-5.818-1.833.483-1.975.9-3.971c4.4-21.383,1.524-38.609-8.311-44.279-9.431-5.44-24.853.233-40.433,13.785q-2.3,2.013-4.5,4.131-1.475-1.411-3-2.766c-16.322-14.495-32.672-20.6-42.51-14.914-9.422,5.454-12.217,21.648-8.247,41.914q.582,3.011,1.335,5.986c-2.313.657-4.549,1.358-6.69,2.106-19.137,6.658-31.36,17.13-31.36,27.977,0,11.2,13.122,22.439,33.056,29.251q2.426.823,4.887,1.53-.8,3.2-1.42,6.452c-3.781,19.914-.826,35.727,8.569,41.146,9.707,5.6,26-.157,41.855-14.021,1.254-1.1,2.51-2.26,3.781-3.476q2.379,2.295,4.884,4.456c15.365,13.221,30.543,18.561,39.927,13.125,9.7-5.611,12.846-22.6,8.756-43.263q-.465-2.368-1.085-4.832,1.719-.506,3.363-1.05c20.723-6.865,34.208-17.965,34.208-29.318,0-10.888-12.619-21.415-32.143-28.137Z" transform="translate(-46 -192.126)"/><path class="b" d="M443.573,357.389c-.989.329-2,.643-3.037.951a180.821,180.821,0,0,0-9.154-22.9,181.24,181.24,0,0,0,8.8-22.567c1.847.535,3.645,1.1,5.373,1.7,16.729,5.757,26.933,14.271,26.933,20.833C472.487,342.382,461.466,351.461,443.573,357.389ZM436.15,372.1c1.809,9.137,2.065,17.4.873,23.853-1.076,5.8-3.24,9.672-5.917,11.222-5.7,3.3-17.881-.989-31.02-12.3q-2.26-1.946-4.547-4.145A181.582,181.582,0,0,0,410.692,371.5a180.407,180.407,0,0,0,24.484-3.781q.553,2.234.98,4.363Zm-75.083,34.511c-5.568,1.966-10,2.022-12.68.477-5.7-3.29-8.072-16-4.837-33.015q.582-3.016,1.318-6a182.03,182.03,0,0,0,24.362,3.528,187.647,187.647,0,0,0,15.519,19.169q-1.684,1.632-3.444,3.174C374.29,400.076,367.26,404.416,361.067,406.612Zm-26.075-49.267c-8.817-3.014-16.095-6.929-21.086-11.2-4.483-3.84-6.746-7.653-6.746-10.745,0-6.583,9.814-14.981,26.18-20.685q3.083-1.073,6.222-1.958a185.314,185.314,0,0,0,8.811,22.829,187.994,187.994,0,0,0-8.919,23.154Q337.2,358.1,334.992,357.345Zm8.741-59.5c-3.4-17.363-1.143-30.461,4.535-33.743,6.047-3.491,19.419,1.489,33.516,14.006.9.8,1.806,1.638,2.711,2.5a184.976,184.976,0,0,0-15.4,19.059,188.613,188.613,0,0,0-24.123,3.749q-.7-2.769-1.242-5.57ZM421.722,317.1q-2.65-4.578-5.495-9.041c5.768.73,11.292,1.7,16.482,2.883a164.5,164.5,0,0,1-5.786,15.565q-2.5-4.756-5.2-9.407Zm-31.811-30.97a165.6,165.6,0,0,1,10.638,12.84q-10.678-.5-21.365,0c3.511-4.631,7.109-8.936,10.728-12.837Zm-32,31.023q-2.662,4.616-5.105,9.349c-2.249-5.332-4.171-10.577-5.742-15.641,5.157-1.163,10.658-2.1,16.388-2.816q-2.886,4.491-5.547,9.108Zm5.7,46.149a164.232,164.232,0,0,1-16.653-2.679c1.6-5.152,3.563-10.51,5.861-15.958q2.452,4.738,5.122,9.355,2.717,4.709,5.664,9.282Zm26.511,21.912A165.847,165.847,0,0,1,379.253,372.2q5.192.207,10.577.207,5.527,0,10.911-.244a164.022,164.022,0,0,1-10.617,13.055Zm36.852-40.826a163.727,163.727,0,0,1,6.085,15.9,163.306,163.306,0,0,1-16.871,2.877q2.865-4.547,5.55-9.2Q424.474,349.235,426.981,344.389Zm-11.926,5.719q-4.107,7.133-8.671,13.992c-5.364.384-10.905.582-16.554.582s-11.1-.175-16.368-.518q-4.68-6.836-8.84-14.012t-7.711-14.568q3.569-7.426,7.688-14.573h0q4.113-7.144,8.764-13.962c5.378-.407,10.888-.62,16.461-.62s11.118.215,16.49.623q4.6,6.8,8.727,13.907t7.793,14.506q-3.622,7.453-7.77,14.632Zm15.932-86.236c6.053,3.491,8.407,17.569,4.6,36.032q-.375,1.8-.814,3.592a184.919,184.919,0,0,0-24.17-3.819,181.851,181.851,0,0,0-15.28-19.07q2.036-1.961,4.157-3.814C412.83,265.178,425.3,260.594,430.987,263.872Z" transform="translate(-64.827 -210.909)"/><path class="a" d="M551.984,456.79a16.144,16.144,0,1,1-16.144,16.144,16.144,16.144,0,0,1,16.144-16.144" transform="translate(-226.988 -348.442)"/><path class="c" d="M581.717,93.039a4.805,4.805,0,1,1-1.407-3.421A4.829,4.829,0,0,1,581.717,93.039Z" transform="translate(-252.672 -87.076)"/><path class="c" d="M572.073,91.591a4.835,4.835,0,0,1,3.633-7.138,4.829,4.829,0,1,0,.41,9.62A4.829,4.829,0,0,1,572.073,91.591Z" transform="translate(-251.713 -84.41)"/><rect class="c" width="12.936" height="20.179" transform="translate(318.181 12.688)"/><rect class="d" width="12.936" height="20.179" transform="translate(318.181 12.688)"/><path class="e" d="M473.7,379.61s-1.382,3.8-4.654,4.314a22.085,22.085,0,0,0-5.175,1.379l7.761,5,4.139-.518s.518-5.346,2.243-6.554S473.7,379.61,473.7,379.61Z" transform="translate(-175.952 -293.713)"/><path class="e" d="M679.068,379.61s1.382,3.8,4.654,4.314A22.085,22.085,0,0,1,688.9,385.3l-7.761,5L677,389.785s-.518-5.346-2.243-6.554S679.068,379.61,679.068,379.61Z" transform="translate(-325.274 -293.713)"/><path class="c" d="M507.139,264.59a6.024,6.024,0,0,0-2.758,3.107,12.046,12.046,0,0,0-5.864,4.483s-2.589,2.761-2.932,4.139-4.3,9.657-4.3,9.657-3.968,12.936-6.036,14.314c0,0,6.554-1.379,7.761,5.175,0,0,1.55,0,3.275-6.036a77.892,77.892,0,0,1,5.864-13.453s1.379-5.172,2.586-6.036,3.1-4.829,4.829-3.781,13.107-.175,13.107-.175,6.719,3.1,6.888,5.163,1.379,2.243,1.55,3.968,6.554,15.347,6.554,15.347,1.207,3.782,1.553,4.654c0,0,3.782-9.14,8.8-3.965a11.87,11.87,0,0,0-1.725-5.527c-1.55-2.077-8.279-18.279-8.279-18.279a10.609,10.609,0,0,0-1.379-3.1c-.689-.689-6.039-6.21-7.935-6.21,0,0-1.033-2.586-2.24-2.932Z" transform="translate(-191.113 -212.15)"/><path class="c" d="M466.624,400.67a8.4,8.4,0,0,1-8.209-1.1,16.393,16.393,0,0,0-3.662-2.123c-1.83-.739-4.017-1.286-4.683-.049-1.207,2.243,14.658,7.761,14.658,7.761A4.763,4.763,0,0,0,466.624,400.67Z" transform="translate(-166.12 -305.805)"/><path class="c" d="M680.835,400.67a8.4,8.4,0,0,0,8.209-1.1,16.4,16.4,0,0,1,3.662-2.123c1.83-.739,4.017-1.286,4.683-.049,1.207,2.243-14.658,7.761-14.658,7.761A4.763,4.763,0,0,1,680.835,400.67Z" transform="translate(-329.798 -305.805)"/><path class="e" d="M568.084,162.521a2.026,2.026,0,0,1-.774,1.565,4.2,4.2,0,0,1-1.431.34A3.333,3.333,0,0,0,563.6,166.4a5.094,5.094,0,0,0-.218,3.069,11.429,11.429,0,0,0,.442,1.472,13.785,13.785,0,0,0,2.062,4.04,17.161,17.161,0,0,0,2.705,2.551,6.24,6.24,0,0,0,2,1.245,6.328,6.328,0,0,0,1.571.209,3.516,3.516,0,0,0,1.92-.276c.873-.5,1.132-1.614,1.606-2.507.4-.756,1-1.4,1.376-2.17a8.579,8.579,0,0,0,.582-1.9l.806-3.578c.291-1.3.559-2.766-.172-3.88a.663.663,0,0,0-.215-.224.812.812,0,0,0-.442-.044,4.782,4.782,0,0,1-2.662-.608,1.145,1.145,0,0,1-.335-.262,1.373,1.373,0,0,1-.2-.617,6.456,6.456,0,0,0-.372-1.294.873.873,0,0,0-.253-.39.916.916,0,0,0-.41-.137,33.3,33.3,0,0,0-3.761-.393c-.413-.02-1.036-.186-1.321.18S568.119,162.085,568.084,162.521Z" transform="translate(-246.421 -138.445)"/><path class="d" d="M568.084,162.521a2.026,2.026,0,0,1-.774,1.565,4.2,4.2,0,0,1-1.431.34A3.333,3.333,0,0,0,563.6,166.4a5.094,5.094,0,0,0-.218,3.069,11.429,11.429,0,0,0,.442,1.472,13.785,13.785,0,0,0,2.062,4.04,17.161,17.161,0,0,0,2.705,2.551,6.24,6.24,0,0,0,2,1.245,6.328,6.328,0,0,0,1.571.209,3.516,3.516,0,0,0,1.92-.276c.873-.5,1.132-1.614,1.606-2.507.4-.756,1-1.4,1.376-2.17a8.579,8.579,0,0,0,.582-1.9l.806-3.578c.291-1.3.559-2.766-.172-3.88a.663.663,0,0,0-.215-.224.812.812,0,0,0-.442-.044,4.782,4.782,0,0,1-2.662-.608,1.145,1.145,0,0,1-.335-.262,1.373,1.373,0,0,1-.2-.617,6.456,6.456,0,0,0-.372-1.294.873.873,0,0,0-.253-.39.916.916,0,0,0-.41-.137,33.3,33.3,0,0,0-3.761-.393c-.413-.02-1.036-.186-1.321.18S568.119,162.085,568.084,162.521Z" transform="translate(-246.421 -138.445)"/><path class="f" d="M554.23,172.347a7.834,7.834,0,0,0-2.074-.326,5.19,5.19,0,0,0-4.4,1.891,4.462,4.462,0,0,0-.666,3.336,6.857,6.857,0,0,0,1.513,3.1,9.309,9.309,0,0,1,1.164,1.524,8.424,8.424,0,0,1,.6,2.909c.291,2.362,1.3,4.581,1.7,6.929s.055,5.067-1.8,6.559c-.311.25-.689.515-.716.913-.041.637.788.908,1.425.969a16.282,16.282,0,0,0,5.71-.134c.765-.2,1.5-.521,2.283-.666,1.978-.369,3.968.39,5.949.753a26.362,26.362,0,0,0,4.337.352,2.31,2.31,0,0,0,1-.131.8.8,0,0,0,.506-.8,1.385,1.385,0,0,0-.343-.582,9.473,9.473,0,0,1-1.58-4.448l-.916-5.268c-.492-2.816-.948-5.876.384-8.4.957-1.818,2.723-3.1,3.732-4.887a2.372,2.372,0,0,0-1.344-3.744,6.751,6.751,0,0,0-5.067-.186,20.659,20.659,0,0,1-.5,3.781l-.352,2.036a25.831,25.831,0,0,1-.788,3.549,3.739,3.739,0,0,1-.631,1.286,3.325,3.325,0,0,1-1.114.812,6.64,6.64,0,0,1-2.95.675,3.938,3.938,0,0,1-1.3-.2,5.526,5.526,0,0,1-1.795-1.262,2.94,2.94,0,0,1-.474-.515,2.886,2.886,0,0,1-.323-.777,16.115,16.115,0,0,1-.556-2.176c-.087-.564-.116-1.137-.157-1.707A39.73,39.73,0,0,0,554.23,172.347Z" transform="translate(-234.903 -146.214)"/><path class="e" d="M565.741,288.9s-.689,9.143,3.622,10.693.518-7.589.518-7.589l-1.382-2.758Z" transform="translate(-248.162 -229.389)"/><path class="e" d="M602.38,288.9s.689,9.143-3.622,10.693S598.24,292,598.24,292l1.382-2.758Z" transform="translate(-270.143 -229.389)"/><path class="d" d="M549.429,182.712l-1.379,2.243s1.207,7.761,1.379,9.14a18.093,18.093,0,0,0,.692,2.932s.172,4.139.172,5.693a17.334,17.334,0,0,0,.873,4.139,18.854,18.854,0,0,0,.873,4.311c.689,1.9,1.379,4.139,1.379,4.139s.873-2.414,4.311,1.207a2.089,2.089,0,0,0,0-2.932,45.744,45.744,0,0,1-1.033-7.071c0-2.417-1.9-13.962-1.9-13.962S553.562,179.425,549.429,182.712Z" transform="translate(-235.646 -153.715)"/><path class="f" d="M548.249,182.088l-1.379,2.243s1.207,7.761,1.379,9.14a17.99,17.99,0,0,0,.7,2.932s.172,4.139.172,5.69a17.371,17.371,0,0,0,.873,4.139,18.771,18.771,0,0,0,.873,4.311c.689,1.9,1.382,4.139,1.382,4.139s.873-2.414,4.311,1.207a2.089,2.089,0,0,0,0-2.929,45.623,45.623,0,0,1-1.036-7.071c0-2.417-1.9-13.962-1.9-13.962S552.388,178.809,548.249,182.088Z" transform="translate(-234.809 -153.273)"/><path class="d" d="M607.745,176.827l.873,1.027a31.722,31.722,0,0,1-1.228,13.288l-.689,6.725s-1.207,5.693-1.379,7.071-.172,1.55-.518,2.068a.666.666,0,0,0,0,.873l-1.036,3.782s-1.55-1.9-4.654.518a2.736,2.736,0,0,1-.175-2.586c.7-1.207.689-1.725.518-2.071s.689-2.068.689-2.414,1.216-8.273,1.216-8.273.518-7.761,1.036-10.347a48.018,48.018,0,0,0,.256-7.633,2.924,2.924,0,0,1,4.945-2.182A1.919,1.919,0,0,1,607.745,176.827Z" transform="translate(-271.541 -149.22)"/><path class="f" d="M609.542,174.7l.873,1.027a31.722,31.722,0,0,1-1.227,13.288l-.689,6.725s-1.207,5.693-1.379,7.071-.175,1.553-.518,2.071a.663.663,0,0,0,0,.873l-1.03,3.793s-1.55-1.9-4.654.515a2.731,2.731,0,0,1-.172-2.586c.7-1.207.69-1.725.518-2.068s.689-2.071.689-2.414,1.207-8.279,1.207-8.279.518-7.761,1.036-10.35.172-10.347.172-10.347A3.983,3.983,0,0,1,609.542,174.7Z" transform="translate(-272.82 -147.449)"/><circle class="e" cx="6.9" cy="6.9" r="6.9" transform="translate(318.266 11.05)"/><path class="d" d="M582.244,109.466a4.829,4.829,0,0,1-9.044.128,8.544,8.544,0,0,1,5.445-.119A4.877,4.877,0,0,1,582.244,109.466Z" transform="translate(-253.48 -101.875)"/><path class="c" d="M566.272,110.664s-13.279-4.654-10,17.936c0,0,2.932,1.9,5.172.689,0,0-1.55-15.693,4.485-15s5,14.661,5,14.661,3.45,1.033,4.485-.873S575.068,107.572,566.272,110.664Z" transform="translate(-241.106 -102.718)"/><path class="d" d="M579.385,120.467c-4.142-.471-4.712,6.769-4.654,11.359.049-4.564.817-10.763,4.654-10.323,4.308.492,5.015,7.755,5.064,11.868C584.5,129.595,584.086,121,579.385,120.467Z" transform="translate(-254.563 -109.935)"/><path class="d" d="M556.283,155.172a46.362,46.362,0,0,1-.515-5.972,44.246,44.246,0,0,0,.515,7.007s2.932,1.9,5.172.689c0,0-.035-.372-.076-1C559.148,157.025,556.283,155.172,556.283,155.172Z" transform="translate(-241.118 -130.325)"/><path class="d" d="M612.415,163.263c-.966,1.769-4.023.992-4.436.873-.02.64-.049,1.024-.049,1.024s3.45,1.033,4.485-.873a7.964,7.964,0,0,0,.291-2.967A5.406,5.406,0,0,1,612.415,163.263Z" transform="translate(-278.108 -138.92)"/></g></svg>