<svg xmlns="http://www.w3.org/2000/svg" width="43.5" height="62.691" viewBox="0 0 43.5 62.691"><g transform="translate(-86 -11.001)"><path d="M128.732,40.556h-4.474l0-8.179a12.261,12.261,0,0,1,2.242-7.084,9.258,9.258,0,0,0,1.717-5.861,9.487,9.487,0,0,0-6.181-8.375.768.768,0,0,0-1.031.721l0,6.975h-4.262l0-6.984a.768.768,0,0,0-1.028-.722,9.394,9.394,0,0,0-4.5,14.125,12.594,12.594,0,0,1,2.283,7.186l0,8.2h-5.646A5.1,5.1,0,0,0,102.79,43.7a6.984,6.984,0,0,1-6.252,4.016H95.6a4.834,4.834,0,0,0-4.541-3.469A4.9,4.9,0,0,0,86,49.136V68.4a4.967,4.967,0,0,0,4.794,5,4.864,4.864,0,0,0,4.977-4.056h1.782a15.971,15.971,0,0,1,8.437,2.435c2.809,1.749,5.977,1.916,9.249,1.916h8.77a3.775,3.775,0,0,0,2.8-6.3,3.791,3.791,0,0,0,.819-6.552,3.877,3.877,0,0,0,.054-6.133,3.58,3.58,0,0,0-2.1-6.479h-1.322V48.09c3.2-.2,5.246-2.8,5.246-6.7V41.27a.724.724,0,0,0-.768-.715Zm-1.107,11.259a2.046,2.046,0,0,1-2.048,2.047h-4.434a.768.768,0,0,0,0,1.535h4.145a2.367,2.367,0,0,1,0,4.734h-4.145a.768.768,0,1,0-.006,1.535h4.245a2.239,2.239,0,1,1,0,4.478h-6.112a.768.768,0,0,0,0,1.535h4.739a2.239,2.239,0,0,1,0,4.478h-8.77c-3.04,0-5.973-.149-8.438-1.683a17.505,17.505,0,0,0-9.248-2.667h-1.7V58.723a.768.768,0,1,0-1.535,0v9.7a3.438,3.438,0,0,1-3.275,3.461,3.393,3.393,0,0,1-3.506-3.38V49.217a3.438,3.438,0,0,1,3.275-3.461,3.393,3.393,0,0,1,3.506,3.38V53.35a.768.768,0,1,0,1.535,0V49.256h.686a8.623,8.623,0,0,0,7.645-4.889,3.609,3.609,0,0,1,3.671-2.276H113.5l0,5.564a1.586,1.586,0,0,1-.348-.832.768.768,0,0,0-1.526.17,3.1,3.1,0,0,0,3.073,2.774h10.875a2.046,2.046,0,0,1,2.049,2.047ZM118.21,34.558a.687.687,0,0,1,.192-.5.773.773,0,0,1,.479-.2.713.713,0,0,1,.711.7l.013,13.675h-1.389Zm2.933,13.674,0-13.652a2.232,2.232,0,0,0-4.464-.011l.006,13.663h-1.643l-.007-15.874a14.119,14.119,0,0,0-2.556-8.059,7.753,7.753,0,0,1-1.372-4.437,7.846,7.846,0,0,1,4.1-6.905l0,6.576a.779.779,0,0,0,.768.78l5.8.028a.8.8,0,0,0,.543-.251.829.829,0,0,0,.225-.569V12.964A7.933,7.933,0,0,1,126.68,19.5a7.738,7.738,0,0,1-1.433,4.9,13.811,13.811,0,0,0-2.528,7.977l.007,15.854Zm3.117-1.682,0-4.459h3.68C127.771,44.155,126.734,46.332,124.261,46.55Z"/><path d="M123.768,332.587a.768.768,0,0,0-.768.768v11.417a.768.768,0,0,0,1.535,0V333.355A.768.768,0,0,0,123.768,332.587Z" transform="translate(-32.266 -280.441)"/><path d="M123.768,303.278a.768.768,0,0,0-.768.768v.777a.768.768,0,1,0,1.535,0v-.777A.768.768,0,0,0,123.768,303.278Z" transform="translate(-32.266 -254.882)"/></g></svg>