<svg xmlns="http://www.w3.org/2000/svg" width="400.133" height="417.373" viewBox="0 0 400.133 417.373"><defs><style>.a,.an,.s{fill:#fff;}.b{fill:#080e33;}.c{fill:#f0f0f0;}.d{fill:#e0e0e0;}.an,.e{opacity:0.5;}.ae,.ah,.ak,.f{fill:#ba68c8;}.g,.h,.r,.v{fill:#2039cc;}.g,.m{opacity:0.4;}.h,.o{opacity:0.25;}.i,.x{fill:#192da1;}.ak,.i,.p,.v{opacity:0.15;}.j{fill:#37474f;}.k{fill:#263238;}.l{fill:#455a64;}.ad,.n{opacity:0.3;}.ah,.al,.q{opacity:0.2;}.s{font-size:12px;font-family:SegoeUI-Bold, Segoe UI;font-weight:700;letter-spacing:-0.02em;}.t{letter-spacing:-0.06em;}.u{fill:#ffa8a7;}.w{fill:#fafafa;}.y{fill:#f28f8f;}.z{fill:#b16668;}.aa{opacity:0.9;}.ab{fill:#111e6c;}.ac{opacity:0.8;}.ae{opacity:0.1;}.af{opacity:0.7;}.ag{fill:#0c154a;}.ai{opacity:0.6;}.aj{opacity:0.05;}.am{fill:#f5f5f5;}</style></defs><g transform="translate(-18.47 -19.36)"><g transform="translate(18.47 198.455)"><ellipse class="a" cx="200.067" cy="119.138" rx="200.067" ry="119.138"/></g><g transform="translate(33.082 26.019)"><g transform="translate(288.102)"><path class="b" d="M428.3,92.316l5.738,3.423c0-.267-.043-.526-.043-.784v-1.72c0-3.048,2.074-4.287,4.64-2.763a9.3,9.3,0,0,1,2.765,2.745c.415-3.833,3.336-5.268,6.913-3.155,3.837,2.282,6.913,7.834,6.913,12.4v2.594a6.882,6.882,0,0,1-.588,2.977l4.77,2.834a5.893,5.893,0,0,1,2.592,4.6c0,1.693-1.149,2.38-2.592,1.533L428.3,98.475a5.92,5.92,0,0,1-2.592-4.6C425.727,92.155,426.885,91.469,428.3,92.316Z" transform="translate(-376.525 -33.599)"/><path class="b" d="M372.895,38.426l3.163,1.257V32.49c0-5.7,4.416-7.068,9.2-4.216h0c4.787,2.843,8.641,9.8,8.641,15.482v1.052a4.556,4.556,0,0,1,4.027.642h0a14.355,14.355,0,0,1,6.239,11.15v.472l4.407,2.674a9.41,9.41,0,0,1,4.113,7.335c0,2.674-1.841,3.8-4.113,2.451l-35.679-21.32a9.411,9.411,0,0,1-4.1-7.335C368.79,38.167,370.622,37.071,372.895,38.426Z" transform="translate(-368.79 -26.832)"/></g><g transform="translate(0 3.726)"><path class="b" d="M69.072,103.539l-5.738,3.423c0-.267.052-.526.052-.784v-1.685c0-3.057-2.083-4.3-4.64-2.763a9.072,9.072,0,0,0-2.765,2.736c-.423-3.833-3.344-5.268-6.913-3.155-3.837,2.282-6.913,7.834-6.913,12.407v2.558a6.884,6.884,0,0,0,.588,2.977l-4.77,2.834a5.92,5.92,0,0,0-2.592,4.6c0,1.693,1.158,2.38,2.592,1.533L69.08,109.7a5.893,5.893,0,0,0,2.592-4.6C71.647,103.388,70.48,102.71,69.072,103.539Z" transform="translate(-35.38 -38.548)"/><path class="b" d="M97.8,42.588l-3.163,1.257V36.67c0-5.7-4.416-7.068-9.2-4.216h0c-4.787,2.843-8.641,9.8-8.641,15.482v1.043a4.556,4.556,0,0,0-4.027.642h0A14.353,14.353,0,0,0,66.5,60.77v.472L62.1,63.872A9.412,9.412,0,0,0,58,71.207c0,2.674,1.841,3.8,4.113,2.451L97.8,52.392a9.438,9.438,0,0,0,4.1-7.335C101.905,42.347,100.065,41.251,97.8,42.588Z" transform="translate(-38.454 -31.012)"/></g></g><g transform="translate(49.725 26.643)"><path class="c" d="M111.009,82.3a.984.984,0,0,1,0,1.361.913.913,0,0,1-1.319,0,.984.984,0,0,1,0-1.361A.922.922,0,0,1,111.009,82.3Z" transform="translate(-62.084 -33.455)"/><path class="c" d="M120.834,87a1.608,1.608,0,0,1,.039,2.224,1.492,1.492,0,0,1-2.156.04,1.608,1.608,0,0,1-.039-2.224A1.492,1.492,0,0,1,120.834,87Z" transform="translate(-63.284 -33.948)"/><path class="c" d="M443.908,34.832a.924.924,0,0,1,1.212.535.973.973,0,0,1-.516,1.251.924.924,0,0,1-1.214-.53.982.982,0,0,1,.519-1.257Z" transform="translate(-107.459 -28.317)"/><path class="c" d="M452.2,27.646a1.508,1.508,0,0,1,1.983.869,1.589,1.589,0,0,1-.842,2.046,1.508,1.508,0,0,1-1.983-.869,1.589,1.589,0,0,1,.843-2.045Z" transform="translate(-108.536 -27.531)"/><path class="c" d="M388.449,150.569a1.579,1.579,0,0,1-.94,1.465,1.5,1.5,0,0,1-1.671-.34,1.614,1.614,0,0,1-.33-1.723,1.529,1.529,0,0,1,1.42-.97A1.545,1.545,0,0,1,388.449,150.569Z" transform="translate(-99.587 -40.736)"/><path class="c" d="M383.372,155.466a.946.946,0,0,1-.561.88.9.9,0,0,1-1-.2.967.967,0,0,1-.2-1.034.916.916,0,0,1,.853-.579.85.85,0,0,1,.655.26A.907.907,0,0,1,383.372,155.466Z" transform="translate(-99.063 -41.338)"/><path class="c" d="M380.449,148.908a.735.735,0,1,1-.734-.758A.746.746,0,0,1,380.449,148.908Z" transform="translate(-98.716 -40.644)"/><path class="d" d="M277.589,104.241a1.206,1.206,0,0,1,.42,1.618,1.13,1.13,0,0,1-1.568.436,1.206,1.206,0,0,1-.424-1.617,1.155,1.155,0,0,1,.7-.555,1.119,1.119,0,0,1,.874.119Z" transform="translate(-84.703 -35.853)"/><path class="c" d="M281,99.859a.7.7,0,0,1,.337.691.689.689,0,0,1-.491.585.663.663,0,0,1-.711-.245.713.713,0,0,1-.051-.772.663.663,0,0,1,.916-.258Z" transform="translate(-85.264 -35.384)"/><path class="d" d="M292.73,186.851a1.2,1.2,0,0,1,.41,1.607,1.122,1.122,0,0,1-1.558.426,1.2,1.2,0,0,1-.416-1.606,1.13,1.13,0,0,1,1.564-.428Z" transform="translate(-86.762 -44.834)"/><path class="d" d="M372.73,89.851a1.2,1.2,0,0,1,.41,1.607,1.122,1.122,0,0,1-1.558.426,1.2,1.2,0,0,1-.416-1.606,1.13,1.13,0,0,1,1.564-.428Z" transform="translate(-97.633 -34.289)"/><path class="c" d="M296.155,182.468a.684.684,0,0,1,.312.42.705.705,0,0,1-.071.525.665.665,0,0,1-1.213.042.713.713,0,0,1,.055-.737.669.669,0,0,1,.407-.322.648.648,0,0,1,.509.073Z" transform="translate(-87.318 -44.365)"/><path class="c" d="M471.108,142.733l-2.16.775-.639,2.282a.263.263,0,0,1-.2.192.255.255,0,0,1-.256-.1l-1.383-1.89-2.281.107a.257.257,0,0,1-.245-.133.274.274,0,0,1,.012-.286l1.313-1.934-.8-2.219a.273.273,0,0,1,.055-.276.254.254,0,0,1,.264-.072l2.195.686,1.789-1.471a.253.253,0,0,1,.274-.035.268.268,0,0,1,.149.24l.043,2.362,1.91,1.3a.27.27,0,0,1,.121.247A.267.267,0,0,1,471.108,142.733Z" transform="translate(-110.257 -39.577)"/><path class="c" d="M323.48,135.07l-2.169.766-.6,2.282a.271.271,0,0,1-.207.19.264.264,0,0,1-.259-.1l-1.374-1.9-2.29.1a.249.249,0,0,1-.249-.132.265.265,0,0,1,.024-.287l1.3-1.934-.8-2.21a.274.274,0,0,1,.049-.284.254.254,0,0,1,.27-.073l2.195.686,1.789-1.471a.253.253,0,0,1,.274-.035.268.268,0,0,1,.149.24v2.362l1.91,1.3a.28.28,0,0,1-.009.5Z" transform="translate(-90.197 -38.741)"/><path class="c" d="M453.528,227.312l-1.262.455L451.9,229.1a.157.157,0,0,1-.119.109.153.153,0,0,1-.149-.055l-.812-1.105-1.339.062a.154.154,0,0,1-.144-.081.165.165,0,0,1,.006-.169l.769-1.132-.467-1.3a.155.155,0,0,1,.026-.164.144.144,0,0,1,.156-.041l1.288.4,1.054-.891a.152.152,0,0,1,.163-.017.161.161,0,0,1,.088.142v1.382l1.115.766a.152.152,0,0,1-.009.3Z" transform="translate(-108.274 -48.966)"/><path class="c" d="M110.117,152.015l-3.456,1.248-.985,3.663a.421.421,0,0,1-.321.315.408.408,0,0,1-.414-.163l-2.229-3.039-3.681.169a.412.412,0,0,1-.39-.22.439.439,0,0,1,.027-.457l2.108-3.12-1.3-3.565a.438.438,0,0,1,.086-.451.406.406,0,0,1,.433-.11l3.526,1.105,2.886-2.371a.413.413,0,0,1,.439-.05.437.437,0,0,1,.244.38l.069,3.8,3.016,2.086a.431.431,0,0,1,.221.413.426.426,0,0,1-.281.372Z" transform="translate(-60.612 -40.294)"/><g transform="translate(219.881 25.053)"><g class="e" transform="translate(0 0)"><path class="f" d="M317.655,73.287a8.828,8.828,0,1,1,8.555-8.824A8.692,8.692,0,0,1,317.655,73.287Zm0-17.184a8.373,8.373,0,1,0,8.114,8.36,8.245,8.245,0,0,0-8.114-8.36Z" transform="translate(-309.1 -55.64)"/></g><path class="c" d="M321.1,65.242a2.447,2.447,0,1,1-2.48-2.522,2.4,2.4,0,0,1,1.754.723A2.554,2.554,0,0,1,321.1,65.242Z" transform="translate(-310.066 -56.41)"/></g><g transform="translate(0 150.769)"><g class="e"><path class="f" d="M63.2,214.337a8.828,8.828,0,1,1,8.546-8.824A8.692,8.692,0,0,1,63.2,214.337Zm0-17.193a8.373,8.373,0,1,0,8.105,8.369A8.244,8.244,0,0,0,63.2,197.145Z" transform="translate(-54.64 -196.69)"/></g><path class="c" d="M66.611,206.282a2.447,2.447,0,1,1-2.445-2.522A2.485,2.485,0,0,1,66.611,206.282Z" transform="translate(-55.602 -197.459)"/></g></g><g transform="translate(39.511 224.383)"><path class="f" d="M349.837,384.518,253.144,442.1a10.144,10.144,0,0,1-10.093.2L48.376,326.371c-3.068-1.827-5.556-5.909-5.556-9.127s2.489-7.3,5.556-9.118l96.339-57.372a11.987,11.987,0,0,1,11.1,0L349.837,366.291c3.068,1.827,5.556,5.909,5.556,9.127S352.9,382.736,349.837,384.518Z" transform="translate(-42.82 -249.391)"/><path class="g" d="M144.715,250.754,48.376,308.126c-3.068,1.783-5.556,5.909-5.556,9.118s2.489,7.3,5.556,9.127L243.051,442.309a10.487,10.487,0,0,0,4.83,1.23V305.577l-92.062-54.823a11.987,11.987,0,0,0-11.1,0Z" transform="translate(-42.82 -249.391)"/><path class="h" d="M285.391,448.964l96.694-57.595c3.068-1.783,5.556-5.909,5.556-9.118s-2.489-7.3-5.556-9.127L280.12,312.41V450.39a10.058,10.058,0,0,0,5.271-1.426Z" transform="translate(-75.067 -256.242)"/><path class="f" d="M251.226,431.854a10.575,10.575,0,0,1-9.8,0L48.731,317.1c-4.148-2.469-4.148-6.506,0-8.966l96.357-57.381a11.988,11.988,0,0,1,11.1,0L350.209,366.291c3.059,1.783,3.059,4.8,0,6.613Z" transform="translate(-43.2 -249.391)"/><path class="i" d="M251.226,431.854a10.575,10.575,0,0,1-9.8,0L48.731,317.1c-4.148-2.469-4.148-6.506,0-8.966l96.357-57.381a11.988,11.988,0,0,1,11.1,0L350.209,366.291c3.059,1.783,3.059,4.8,0,6.613Z" transform="translate(-43.2 -249.391)"/><path class="j" d="M244.649,421.6a11.4,11.4,0,0,1-10.559,0L68.277,322.852c-2.912-1.738-2.912-4.546,0-6.284l90.645-53.976a11.4,11.4,0,0,1,10.559,0l165.8,98.746c2.9,1.729,2.9,4.554,0,6.239Z" transform="translate(-45.983 -250.685)"/><path class="k" d="M163.881,261.32a10.43,10.43,0,0,0-4.96,1.275L68.277,316.571c-2.912,1.738-2.912,4.546,0,6.284l17.973,10.7,77.631-51.124Z" transform="translate(-45.983 -250.687)"/><path class="l" d="M169.678,267.182a11.4,11.4,0,0,0-10.559,0L68.483,321.149A5.468,5.468,0,0,0,67.1,322.29a5.671,5.671,0,0,0,1.313,1.061L234.227,422.1a11.4,11.4,0,0,0,10.559,0l90.636-53.976A5.527,5.527,0,0,0,336.8,367a5.486,5.486,0,0,0-1.3-1.078Z" transform="translate(-46.119 -251.184)"/><path class="k" d="M106.365,293.543l16.064-9.564c.959-.57,1-1.462.1-2.005a3.623,3.623,0,0,0-3.361.071l-16.09,9.546c-.959.57-1.011,1.471-.112,2.005A3.615,3.615,0,0,0,106.365,293.543Z" transform="translate(-50.907 -252.892)"/><path class="k" d="M138.27,276.3a1.026,1.026,0,0,0,0-1.934,3.506,3.506,0,0,0-3.258,0,1.026,1.026,0,0,0,0,1.934A3.505,3.505,0,0,0,138.27,276.3Z" transform="translate(-55.256 -252.061)"/><path class="k" d="M145.81,271.935a1.026,1.026,0,0,0,0-1.934,3.505,3.505,0,0,0-3.258,0,1.026,1.026,0,0,0,0,1.934A3.455,3.455,0,0,0,145.81,271.935Z" transform="translate(-56.28 -251.588)"/><path class="k" d="M85.52,306.715a1.026,1.026,0,0,0,0-1.934,3.506,3.506,0,0,0-3.258,0,1.026,1.026,0,0,0,0,1.934,3.455,3.455,0,0,0,3.258,0Z" transform="translate(-48.087 -255.369)"/><path class="k" d="M93.051,302.394a1.036,1.036,0,0,0,0-1.943,3.505,3.505,0,0,0-3.258,0,1.036,1.036,0,0,0,0,1.943,3.506,3.506,0,0,0,3.258,0Z" transform="translate(-49.111 -254.898)"/><path class="f" d="M115.906,367.519a3.853,3.853,0,0,1,1.728,2.968,1.127,1.127,0,0,1-.484,1.052c-.207.116-.994.606-1.21.731a1.247,1.247,0,0,1-1.253-.151l-22.57-13.441a3.88,3.88,0,0,1-1.728-2.977,1.165,1.165,0,0,1,.441-1.016c.216-.143,1.037-.633,1.253-.758a1.263,1.263,0,0,1,1.253.143Z" transform="translate(-49.284 -260.744)"/><path class="m" d="M115.906,367.519a3.853,3.853,0,0,1,1.728,2.968,1.127,1.127,0,0,1-.484,1.052c-.207.116-.994.606-1.21.731a1.247,1.247,0,0,1-1.253-.151l-22.57-13.441a3.88,3.88,0,0,1-1.728-2.977,1.165,1.165,0,0,1,.441-1.016c.216-.143,1.037-.633,1.253-.758a1.263,1.263,0,0,1,1.253.143Z" transform="translate(-49.284 -260.744)"/><path class="f" d="M114.7,368.328l-22.579-13.45c-.959-.57-1.728-.16-1.728.891a3.88,3.88,0,0,0,1.728,2.977L114.7,372.187c.959.57,1.728.169,1.728-.891A3.853,3.853,0,0,0,114.7,368.328Z" transform="translate(-49.284 -260.83)"/><path class="n" d="M114.7,368.328l-22.579-13.45c-.959-.57-1.728-.16-1.728.891a3.88,3.88,0,0,0,1.728,2.977L114.7,372.187c.959.57,1.728.169,1.728-.891A3.853,3.853,0,0,0,114.7,368.328Z" transform="translate(-49.284 -260.83)"/><path class="f" d="M82.862,348.2a3.853,3.853,0,0,1,1.728,2.968,1.136,1.136,0,0,1-.484,1.043l-1.21.731a1.221,1.221,0,0,1-1.253-.143L71,346.458a3.871,3.871,0,0,1-1.728-2.977,1.138,1.138,0,0,1,.441-1.016c.216-.143,1.037-.633,1.253-.758a1.255,1.255,0,0,1,1.253.151Z" transform="translate(-46.414 -259.415)"/><path class="m" d="M82.862,348.2a3.853,3.853,0,0,1,1.728,2.968,1.136,1.136,0,0,1-.484,1.043l-1.21.731a1.221,1.221,0,0,1-1.253-.143L71,346.458a3.871,3.871,0,0,1-1.728-2.977,1.138,1.138,0,0,1,.441-1.016c.216-.143,1.037-.633,1.253-.758a1.255,1.255,0,0,1,1.253.151Z" transform="translate(-46.414 -259.415)"/><path class="f" d="M81.6,349.005l-10.646-6.337c-.959-.57-1.728-.169-1.728.891a3.871,3.871,0,0,0,1.728,2.977L81.6,352.874c.959.57,1.728.16,1.728-.891A3.844,3.844,0,0,0,81.6,349.005Z" transform="translate(-46.409 -259.503)"/><path class="n" d="M81.6,349.005l-10.646-6.337c-.959-.57-1.728-.169-1.728.891a3.871,3.871,0,0,0,1.728,2.977L81.6,352.874c.959.57,1.728.16,1.728-.891A3.844,3.844,0,0,0,81.6,349.005Z" transform="translate(-46.409 -259.503)"/><g transform="translate(169.169 95.594)"><path class="o" d="M267.071,427.1a9.941,9.941,0,0,1-5.038-1.284l-20.6-12.264a5.057,5.057,0,0,1,0-9.091l66.234-39.439a10.594,10.594,0,0,1,10.075,0l20.574,12.318a5.039,5.039,0,0,1,0,9.082l-66.225,39.439A9.963,9.963,0,0,1,267.071,427.1Z" transform="translate(-238.593 -357.417)"/><g transform="translate(2.588)"><path class="f" d="M339,372.06a2.669,2.669,0,0,0-1.555-2.228l-20.592-12.264a8.045,8.045,0,0,0-7.483,0l-66.234,39.439a2.67,2.67,0,0,0-1.547,2.228v8.975a2.67,2.67,0,0,0,1.547,2.228l20.6,12.264a8.045,8.045,0,0,0,7.483,0l66.225-39.439A2.67,2.67,0,0,0,339,381.035Z" transform="translate(-241.588 -356.644)"/><path class="p" d="M341.517,369.832l-20.592-12.264a8.045,8.045,0,0,0-7.483,0L271.55,382.523V423.63a7.465,7.465,0,0,0,3.742-.891L341.517,383.3a2.67,2.67,0,0,0,1.555-2.228V372.06a2.67,2.67,0,0,0-1.555-2.228Z" transform="translate(-245.659 -356.644)"/><path class="o" d="M243.137,400.162a2.67,2.67,0,0,0-1.547,2.228v8.975a2.67,2.67,0,0,0,1.547,2.228l20.6,12.264a7.465,7.465,0,0,0,3.742.891V385.67Z" transform="translate(-241.588 -359.8)"/><path class="f" d="M263.737,413.727l-20.6-12.264c-2.065-1.23-2.065-3.226,0-4.456l66.208-39.439a8.045,8.045,0,0,1,7.483,0l20.592,12.264c2.065,1.23,2.065,3.226,0,4.456l-66.225,39.439a8.045,8.045,0,0,1-7.457,0Z" transform="translate(-241.587 -356.644)"/><g class="q" transform="translate(0 0)"><path class="r" d="M263.737,413.727l-20.6-12.264c-2.065-1.23-2.065-3.226,0-4.456l66.208-39.439a8.045,8.045,0,0,1,7.483,0l20.592,12.264c2.065,1.23,2.065,3.226,0,4.456l-66.225,39.439a8.045,8.045,0,0,1-7.457,0Z" transform="translate(-241.587 -356.644)"/></g><text class="s" transform="translate(26.186 44.99) rotate(-31)"><tspan x="0" y="0">S</tspan><tspan class="t" y="0">T</tspan><tspan y="0">AR</tspan><tspan y="0">T</tspan></text></g></g></g><g transform="translate(286.29 98.426)"><g transform="translate(21.711 144.505)"><path class="u" d="M403.05,310.628c3.595-1.586,9.661-4.118,9.8-4.144a4.156,4.156,0,0,1,4.485,2.478c.786,1.587,5.185,2.549,5.185,8.316,0,1.569-4.372,2.825-5.565,1.569-1.443,1.515-9.194,7.861-9.194,7.861Z" transform="translate(-360.263 -274.138)"/><path class="k" d="M418.77,332.513c.1.784-.13,1.3.942,2.148s5.228,2.095,8.71,1.48,7.837-2.415,8.416-7.4-.086-7.059-1.132-9.225-3.75-5.1-4.562-6.818-.864-4.626-1.141-6.239-.864-3.975-3.059-5.143a6.321,6.321,0,0,0-3.984-.775l-2.117,1.078s5.366,16.212,6.913,20.277S418.77,332.513,418.77,332.513Z" transform="translate(-362.399 -273.492)"/><path class="f" d="M434.187,322.271c-1.123-4.956-5.28-7.023-6.049-9.492s.086-6.925-2.592-9.367a6.767,6.767,0,0,0-5.841-1.676s-4.614,1.4-6.472,2.79a9.319,9.319,0,0,0-2.592,2.674l1.02-.419c1.841-.4,4.943,1.078,5.841,2.576a19.433,19.433,0,0,1,1.218,2.148,9.985,9.985,0,0,0,1.21,2.344c.311.4,1.141.989,1.115,1.551s-.864.053-1.132-.107c-.648-.33-1.866-.8-2.281.134a3.036,3.036,0,0,0-.164,1.292,4.408,4.408,0,0,1-.147,1.649,2.951,2.951,0,0,1-.933,1.364l-.588.517s.639.5,1.728,1.471a18.423,18.423,0,0,1,3.1,4.26s-1.728,1.48-2.843,2.576a3.529,3.529,0,0,0,.052,4.278c.795.624,2.808,2.4,7.4,2.255,6.87-.2,8.589-3.779,9.185-5.856S434.9,325.417,434.187,322.271Z" transform="translate(-361.294 -273.615)"/><path class="v" d="M434.187,322.271c-1.123-4.956-5.28-7.023-6.049-9.492s.086-6.925-2.592-9.367a6.767,6.767,0,0,0-5.841-1.676s-4.614,1.4-6.472,2.79a9.319,9.319,0,0,0-2.592,2.674l1.02-.419c1.841-.4,4.943,1.078,5.841,2.576a19.433,19.433,0,0,1,1.218,2.148,9.985,9.985,0,0,0,1.21,2.344c.311.4,1.141.989,1.115,1.551s-.864.053-1.132-.107c-.648-.33-1.866-.8-2.281.134a3.036,3.036,0,0,0-.164,1.292,4.408,4.408,0,0,1-.147,1.649,2.951,2.951,0,0,1-.933,1.364l-.588.517s.639.5,1.728,1.471a18.423,18.423,0,0,1,3.1,4.26s-1.728,1.48-2.843,2.576a3.529,3.529,0,0,0,.052,4.278c.795.624,2.808,2.4,7.4,2.255,6.87-.2,8.589-3.779,9.185-5.856S434.9,325.417,434.187,322.271Z" transform="translate(-361.294 -273.615)"/><path class="w" d="M421.572,327.611c1-1.248,5.185-2.246,7.414-1.569.372-.526.493-.793-.1-1.23a8.576,8.576,0,0,0-5.427.107,6.51,6.51,0,0,0-2.644,1.542A1.392,1.392,0,0,0,421.572,327.611Z" transform="translate(-362.678 -276.095)"/><path class="w" d="M419.861,325.2c.864-1.364,4.874-2.888,7.163-2.5.311-.562.4-.891-.242-1.2a8.566,8.566,0,0,0-5.366.784,6.733,6.733,0,0,0-2.437,1.863S419.136,325.042,419.861,325.2Z" transform="translate(-362.428 -275.763)"/><path class="l" d="M376.3,275.913l21.992-5.713c1.072,4.572,1.728,13.6-.1,20.5s-8.053,18.414-8.053,18.414l8.581-3.565s2.86-.107,5.478,4.055,0,10.437,0,10.437a199.15,199.15,0,0,1-22.752,17.024c-11.363,7.05-18.544,9.243-24.748,4.136-3.664-3.013-3.69-9.305-2.342-17.336,1.521-9.02,21.914-47.969,21.914-47.969" transform="translate(-353.534 -270.2)"/><path class="j" d="M399.291,307.671a3.291,3.291,0,0,0-.57-.071l-8.581,3.565a134.149,134.149,0,0,0,7.371-16.213l-19.105-6.373c1.192,7.068,6.775,13.7,6.775,13.7s-8.079,20.5-11.432,30.794-9.263,10.027-14.69,8.325-5.409-9.278-5.409-9.367c-.32,5.089.415,9.047,3.085,11.239,6.2,5.107,13.385,2.915,24.748-4.136a187.752,187.752,0,0,0,19.468-14.261Z" transform="translate(-353.54 -272.198)"/><path class="p" d="M393.083,323.145a54.073,54.073,0,0,1,12.78-11.587c-1.97-1.783-3.456-1.649-3.456-1.649l-8.581,3.565s-7.371,16.462-13.376,18.967a28.477,28.477,0,0,0,12.633-9.3Z" transform="translate(-357.192 -274.517)"/><g transform="translate(21.871 5.731)"><path class="u" d="M427.61,323.618c3.595-1.578,9.661-4.118,9.8-4.144a4.173,4.173,0,0,1,4.485,2.478c.786,1.6,5.185,2.549,5.185,8.316,0,1.569-4.364,2.825-5.556,1.578-1.443,1.515-9.2,7.852-9.2,7.852Z" transform="translate(-385.471 -281.282)"/><path class="k" d="M443.33,345.5c.1.784-.268,1.141.8,2a13.722,13.722,0,0,0,8.684,1.649c3.5-.606,7.846-2.808,8.416-6.979.683-4.973.078-7.487-.968-9.662s-3.75-5.089-4.562-6.818-.864-4.617-1.141-6.239-.864-3.975-3.059-5.143a6.246,6.246,0,0,0-3.984-.775l-2.126,1.078s5.375,16.213,6.913,20.277S443.33,345.5,443.33,345.5Z" transform="translate(-387.607 -280.635)"/><path class="f" d="M458.747,335.262c-1.123-4.956-5.28-7.023-6.049-9.492s.086-6.916-2.592-9.367a6.766,6.766,0,0,0-5.85-1.667s-4.606,1.39-6.464,2.781a9.406,9.406,0,0,0-2.592,2.674l1.02-.428a6.82,6.82,0,0,1,5.841,2.585,17.975,17.975,0,0,1,1.218,2.148,9.753,9.753,0,0,0,1.21,2.335c.311.4,1.141,1,1.115,1.551s-.864.054-1.141-.1c-.639-.339-1.858-.811-2.273.134a3.008,3.008,0,0,0-.164,1.283,4.591,4.591,0,0,1-.147,1.658,3,3,0,0,1-.933,1.364l-.588.508s.639.5,1.728,1.471a18.426,18.426,0,0,1,3.137,4.323s-1.728,1.488-2.843,2.585a3.53,3.53,0,0,0,.052,4.278c.795.633,2.808,2.389,7.4,2.255,6.87-.205,8.719-3.94,9.134-5.963A13.885,13.885,0,0,0,458.747,335.262Z" transform="translate(-386.502 -280.759)"/><path class="v" d="M458.747,335.262c-1.123-4.956-5.28-7.023-6.049-9.492s.086-6.916-2.592-9.367a6.766,6.766,0,0,0-5.85-1.667s-4.606,1.39-6.464,2.781a9.406,9.406,0,0,0-2.592,2.674l1.02-.428a6.82,6.82,0,0,1,5.841,2.585,17.975,17.975,0,0,1,1.218,2.148,9.753,9.753,0,0,0,1.21,2.335c.311.4,1.141,1,1.115,1.551s-.864.054-1.141-.1c-.639-.339-1.858-.811-2.273.134a3.008,3.008,0,0,0-.164,1.283,4.591,4.591,0,0,1-.147,1.658,3,3,0,0,1-.933,1.364l-.588.508s.639.5,1.728,1.471a18.426,18.426,0,0,1,3.137,4.323s-1.728,1.488-2.843,2.585a3.53,3.53,0,0,0,.052,4.278c.795.633,2.808,2.389,7.4,2.255,6.87-.205,8.719-3.94,9.134-5.963A13.885,13.885,0,0,0,458.747,335.262Z" transform="translate(-386.502 -280.759)"/><path class="w" d="M446.132,340.611c1-1.257,5.185-2.255,7.414-1.578.372-.517.484-.793-.1-1.221a8.609,8.609,0,0,0-5.427.1,6.63,6.63,0,0,0-2.644,1.542,1.4,1.4,0,0,0,.752,1.159Z" transform="translate(-387.886 -283.239)"/><path class="w" d="M444.4,338.2c.864-1.373,4.882-2.888,7.172-2.5.311-.561.389-.847-.242-1.2a8.64,8.64,0,0,0-5.366.784,6.785,6.785,0,0,0-2.445,1.872S443.693,338.041,444.4,338.2Z" transform="translate(-387.633 -282.906)"/><path class="l" d="M429.468,321.587c-2.592-4.171-5.478-4.055-5.478-4.055L415.41,321.1s6.671-11.257,9.194-17.924c3-7.888,4.1-12.567,2.765-23.976l-30.944-.561-16.686-2.005a30.8,30.8,0,0,0,11.6,23.592s-10.153,26.6-11.674,35.652c-1.348,8.022-1.322,14.323,2.342,17.336,6.2,5.107,13.385,2.915,24.748-4.136A199.163,199.163,0,0,0,429.5,332.05S432.1,325.758,429.468,321.587Z" transform="translate(-378.844 -276.63)"/><path class="j" d="M418.351,335.771a53.868,53.868,0,0,1,12.763-11.587c-2.178-1.9-3.456-1.676-3.456-1.676l-8.581,3.565s-7.371,16.462-13.376,18.967a28.446,28.446,0,0,0,12.651-9.269Z" transform="translate(-382.493 -281.617)"/></g></g><g transform="translate(0 0)"><path class="u" d="M365.154,279.779c4.511-6.016,4.061-5.348,5.185-12.808s5.185-38.4,5.185-38.4L370.555,215s-8.641,2.718-10.706,10.838c-3.007,11.72-5.962,41.73-5.962,41.73l-2.506,5.437Z" transform="translate(-331.53 -119.694)"/><path class="l" d="M372.5,214.18a20.962,20.962,0,0,0-9.056,4.554c-2.7,2.558-3.863,8.022-4.917,13.022-1.244,5.9-2.687,18.45-2.687,18.45s8.27,8.262,18.423,6.916l5.487-24.813Z" transform="translate(-332.136 -119.605)"/><path class="x" d="M416.384,226.38A178.317,178.317,0,0,1,426,276.069c-5.885,7.05-40.086,14.029-51.2-.285,2.445-16.934-4.537-22.585-6.913-42.826-1.054-8.913-3.517-17.175,11.6-21.275S405.54,210.5,405.54,210.5C410.932,213.51,414.535,221.282,416.384,226.38Z" transform="translate(-333.662 -119.096)"/><path class="j" d="M436.174,199.823c1.063-2.246-.553-6.97-3.845-11.355s-8.347-6.792-10.577-3.467,2,11.444,5.124,13.619S434.618,203.094,436.174,199.823Z" transform="translate(-341.008 -116.264)"/><path class="u" d="M423.015,108.079c-2.35.348-.942,5.4,0,9.43.864,3.717,1.564,6.676,1.02,7.291-.778.891-2.515-3.111-4.675-3.868-1.089-.383-2.385-.107-2.532.749s.536,1.114,1.728,2.977c.916,1.408,2.7,7.344,5.314,9.956,1.02,1.025,1.728,4.4,1.823,7.014.5,11.587-.458,25.268-.458,25.268s-3.793,6.97-9.773,18.619c-2.748,5.348-7.371,13.369-7.371,13.369-.864,5.579,3.094,18.485,14.4,17.968-1.409-4.911,9.609-24.457,15.044-34.858,3.8-7.282,4.251-8.227,4.139-11.462-.32-9.385-1.1-10.794-1.918-18.539-.942-8.806-1.27-13.262-1.348-14.216-.311-3.8.726-5.517,1.046-7.683.467-3.209.622-5.5-.2-8.1a2.665,2.665,0,0,0-1.313-1.783c-.363-.143-.76-.152-1.115-.294a14.315,14.315,0,0,0-1.728-.891c-.8-.187-1.771.553-2.592.321-.346-.107-1.184-.891-1.547-.891a5.919,5.919,0,0,0-1.633.544c-.328.1-1.123.66-1.374.25a51.987,51.987,0,0,1-1.884-5.5C425.184,110.9,424.354,107.883,423.015,108.079Z" transform="translate(-339.221 -108.07)"/><path class="y" d="M430.89,125.77c.864,2.326,1.123,5.08,2.445,5.526a2.23,2.23,0,0,1,1.774-1.657,2.176,2.176,0,0,1,2.193.988,1.727,1.727,0,0,0,1.512-1.025,1.762,1.762,0,0,0,1.348.448,1.783,1.783,0,0,0,1.244-.7c-.13.775-.907,2.13-2.195,1.328,0,0-1.469,1.6-2.869.472,0,0,1.642,1.185,1.417,4.323a6.894,6.894,0,0,0-2.35-3.85,2.669,2.669,0,0,1-2.791.25C431.218,131.064,430.89,125.77,430.89,125.77Z" transform="translate(-342.335 -109.994)"/><path class="l" d="M404.9,207.009a34.019,34.019,0,0,0,5.133-5.285c2.385-2.923,9.505-16.533,9.505-16.533a17.988,17.988,0,0,0,4.856,10.054c5.833,6.435,9.566,4.768,9.566,4.768s-4.511,8.645-6.852,14.029c-2.022,4.661-4.8,10.58-4.139,13.966-1.21,1.845-6.636.642-12.555-4.947C404.022,217.018,404.9,207.009,404.9,207.009Z" transform="translate(-338.798 -116.454)"/><path class="j" d="M374.386,190.431a11.612,11.612,0,0,0,5.141,1.159c1.521-.116,3.024.383,4.571.392,3.318,0,4.787,7.674,7.362,5.481.328-3.743,6.161-12.3,5.1-21.917-.536-4.875-3.094-9.483-7.855-9.706.233,0-1.158-2.433-1.357-2.629a8.1,8.1,0,0,0-3.059-1.783,16.83,16.83,0,0,0-7.466-.677,29.688,29.688,0,0,0-7.3,1.56c-2.5.891-4.882,1.916-7.552,1.132-2.247-.651-.864,3.859.173,4.546-.916.25-1.607-1.3-2.368-1.337s-.864,1.31-.864,1.854c.242,2.451.544,4.011,2.229,5.7-1.633,1.569-.371,3.476,1.08,4.572,1.728,1.319,2.722,3.449,4.113,5.178a21.321,21.321,0,0,0,8.053,6.471Z" transform="translate(-332.553 -113.781)"/><path class="l" d="M384.531,173.181c-1.227,2.8,0,11.5,1.529,19.305a9.879,9.879,0,0,0,1.452.125c3.318,0,4.787,7.674,7.362,5.481.328-3.743,6.161-12.3,5.1-21.917-.536-4.875-3.094-9.483-7.855-9.706a12.212,12.212,0,0,0-7.587,6.711Z" transform="translate(-335.967 -114.419)"/><path class="u" d="M381.646,174a8.428,8.428,0,0,0,6.775,5.009,21.937,21.937,0,0,0,.631,7.255,3.987,3.987,0,0,0,.683,1.39,1.709,1.709,0,0,0,1.331.66c.683,0,.916-.481,1.063-1.052a17.973,17.973,0,0,1,.8-2.157,4.215,4.215,0,0,1,.518-.891c.925-1.105,3.845-2.674,5.625.526s-.346,8.209-2.731,9.207c-4.1,1.711-5.349-1.159-5.349-1.159l2.264,13.922c-4.364,6.8-16.09,7.54-14.024,3.743l-1.434-6.007a19.457,19.457,0,0,1-5.116.784c-3.128-.241-6.049-3.565-7.267-6.943-2.592-6.907-3.37-17.309-1.841-22.38C369.687,180.239,375.485,175.515,381.646,174Z" transform="translate(-333.082 -115.237)"/><path class="k" d="M382.214,186.388a1.465,1.465,0,0,1-1.193,1.677,1.433,1.433,0,0,1-1.626-1.231,1.465,1.465,0,0,1,1.194-1.676A1.433,1.433,0,0,1,382.214,186.388Z" transform="translate(-335.335 -116.448)"/><path class="k" d="M369.174,188.618a1.465,1.465,0,0,1-1.193,1.677,1.432,1.432,0,0,1-1.626-1.231,1.465,1.465,0,0,1,1.194-1.676,1.384,1.384,0,0,1,1.061.265A1.47,1.47,0,0,1,369.174,188.618Z" transform="translate(-333.563 -116.691)"/><path class="y" d="M380.16,207.165a58.749,58.749,0,0,0,8.235-3.717,12.919,12.919,0,0,0,3.785-4.849,15.2,15.2,0,0,1-1.771,4.858c-1.581,2.478-9.834,5.437-9.834,5.437Z" transform="translate(-335.441 -117.912)"/><path class="y" d="M374.313,184.54l1.365,9.483-4.779.062Z" transform="translate(-334.183 -116.383)"/><path class="k" d="M380.07,181.834l3.456,1.123a1.965,1.965,0,0,0-1.21-2.389,1.681,1.681,0,0,0-1.4.12,1.776,1.776,0,0,0-.852,1.146Z" transform="translate(-335.429 -115.941)"/><path class="k" d="M364.717,185.71l2.774-2.406a1.717,1.717,0,0,0-1.2-.7,1.694,1.694,0,0,0-1.316.426A2,2,0,0,0,364.717,185.71Z" transform="translate(-333.288 -116.171)"/><path class="z" d="M380.922,196l-4.562,2.834a2.607,2.607,0,0,0,1.587,1.285,2.524,2.524,0,0,0,2-.278,2.94,2.94,0,0,0,.976-3.841Z" transform="translate(-334.925 -117.629)"/><path class="y" d="M381.244,197.428a1.681,1.681,0,0,1,.51-.1,2.9,2.9,0,0,1-1.3,2.674,1.4,1.4,0,0,0-.164.08,1.254,1.254,0,0,1-.086-.143,1.955,1.955,0,0,1,1.046-2.513Z" transform="translate(-335.428 -117.773)"/><path class="u" d="M350.764,274c-1.279,2.237-7.6,14.376-10.015,18.539-1.771,3.03-7.163,13.173-8.088,15.286-1.875,4.3-4.675,9.234-4.2,14.136.112,1.194.432,2.282.432,3.485,0,1.382-.164,2.754.674,3.9.251.339.683.588.864.971a13.924,13.924,0,0,0,.544,1.72c.864,1.408,1.866,0,2.394-.829,2.143-3.449,3.4-7.38,5.539-10.811a35.423,35.423,0,0,1,2.886-4.26c.2-.232.795-.66,1.115-.5s.19.891.19,1.221c0,.891-.043,1.729,0,2.594a4.3,4.3,0,0,0,1.331,3.119,1.434,1.434,0,0,0,1.728.187,1.478,1.478,0,0,0,.484-1.007,10.371,10.371,0,0,0,0-1.159c0-1.6.864-3.039,1.3-4.572a15.739,15.739,0,0,0,.389-4.768,28.5,28.5,0,0,1,.078-4.786,9.643,9.643,0,0,1,1.728-4.653c1.02-1.337,3.621-4.92,5.746-7.621,3.793-4.813,6.714-8.28,9.332-12.478Z" transform="translate(-328.408 -126.108)"/></g></g><g transform="translate(62.686 19.36)"><g transform="translate(0)"><path class="o" d="M286.5,336.019a11.335,11.335,0,0,0-4.372-1.4c-.052-1.907-1.3-3.806-3.742-5.259-5-2.977-13.109-2.977-18.146,0-4.321,2.567-4.9,6.506-1.78,9.448-5.452-.57-11.233.392-15.476,2.9a10.228,10.228,0,0,0-4.822,5.419c-7.777-2.335-17.533-1.578-24.039,2.291a16.048,16.048,0,0,0-3.171,2.46h0c-7.12-4.234-18.665-4.234-25.785,0a10.853,10.853,0,0,0-5.012,5.615,11.059,11.059,0,0,0-4.779-5.045c-6.1-3.636-15.459-4.145-22.467-1.542a13.536,13.536,0,0,0-4.891-4.653c-6.42-3.824-15.995-4.608-23.737-2.38,1.486-3.342,0-7.05-4.321-9.67-4.528-2.674-10.991-3.565-16.729-2.522,2.35-2.808,1.564-6.3-2.359-8.637-4.917-2.932-12.884-2.932-17.8,0a7.9,7.9,0,0,0-3.24,3.289,12.329,12.329,0,0,0-7.777,1.283c-3.214,1.916-3.214,5.027,0,6.943a12.551,12.551,0,0,0,11.665,0,4.471,4.471,0,0,0,.449-.3,19.218,19.218,0,0,0,9.842,1.506c-4.381,3.9-3.69,9.225,2.1,12.674,4.8,2.861,11.8,3.619,17.775,2.3-2.722,4.394-1.149,9.519,4.779,13.04,7.483,4.456,19.244,4.8,27.392,1.025a12.692,12.692,0,0,0,3.577,3.039c6.662,3.966,17.187,4.225,24.351.775.156.107.32.223.493.321a13.089,13.089,0,0,0,12.21,0,6.78,6.78,0,0,0,.778-.544c7.129,3.057,17.109,2.674,23.521-1.132a14.756,14.756,0,0,0,1.771-1.248,11,11,0,0,0,1.417.891c8.114,4.831,21.266,4.831,29.38,0,3.733-2.219,5.72-5.071,6.049-7.977,6.187,1.31,13.342.5,18.284-2.451,6.5-3.868,6.826-10.009,1-14.118a20.254,20.254,0,0,0,3.966-.276,6.27,6.27,0,0,0,1.495,1.2,13.123,13.123,0,0,0,12.2,0C289.866,341.286,289.866,338.024,286.5,336.019Z" transform="translate(-69.64 -52.135)"/><g transform="translate(1.884 204.364)"><ellipse class="f" cx="50.274" cy="21.257" rx="50.274" ry="21.257" transform="translate(57.463 59.154)"/><ellipse class="f" cx="50.274" cy="21.257" rx="50.274" ry="21.257" transform="translate(57.463 59.154)"/><g class="aa" transform="translate(57.463 59.154)"><ellipse class="ab" cx="50.274" cy="21.257" rx="50.274" ry="21.257"/></g><path class="f" d="M135.369,320.12c0-12.725,10-23.04,22.333-23.04s22.337,10.315,22.337,23.04c0,.223,0,.419,0,.642v.642c-.259,3.191-2.437,6.319-6.541,8.77-8.71,5.2-22.873,5.2-31.609,0-4.079-2.451-6.256-5.579-6.515-8.77v-.642C135.369,320.539,135.352,320.343,135.369,320.12Z" transform="translate(-80.455 -253.916)"/><g class="ac" transform="translate(54.906 43.164)"><path class="r" d="M135.369,320.12c0-12.725,10-23.04,22.333-23.04s22.337,10.315,22.337,23.04c0,.223,0,.419,0,.642v.642c-.259,3.191-2.437,6.319-6.541,8.77-8.71,5.2-22.873,5.2-31.609,0-4.079-2.451-6.256-5.579-6.515-8.77v-.642C135.369,320.539,135.352,320.343,135.369,320.12Z" transform="translate(-135.361 -297.08)"/></g><g class="ad" transform="translate(67.556 43.797)"><path class="a" d="M150,300.09h0a21.72,21.72,0,0,1,21.322,1.057,23.157,23.157,0,0,1,10.7,19.051v1.284c-.259,3.191-2.437,6.319-6.541,8.77a29.137,29.137,0,0,1-11.233,3.61c5.8-1.034,9.505-7.71,7.777-15.081C169.978,310.232,161.6,297.879,150,300.09Z" transform="translate(-150 -297.791)"/></g><path class="ae" d="M135.37,322.183V320.9a23.231,23.231,0,0,1,7.587-16.649c-2.428,2.576-7.829,12.273-1.962,19.671,3.863,4.858,22.173,11.8,37.243,2.879a15.691,15.691,0,0,1-4.744,4.153c-8.71,5.2-22.873,5.2-31.609,0C137.807,328.5,135.629,325.418,135.37,322.183Z" transform="translate(-80.456 -254.695)"/><g class="e" transform="translate(77.21 46.678)"><path class="a" d="M161.438,303.329c-1,2.353.916,5.49,4.321,7.023s6.913.891,7.915-1.488-.925-5.49-4.321-7.023S162.441,301,161.438,303.329Z" transform="translate(-161.172 -301.023)"/></g><g class="e" transform="translate(90.249 57.17)"><path class="a" d="M176.424,314.172a2.752,2.752,0,0,0,1.728,3.4,2.591,2.591,0,0,0,3.569-1.016,2.766,2.766,0,0,0-1.685-3.414A2.618,2.618,0,0,0,176.424,314.172Z" transform="translate(-176.262 -312.794)"/></g><path class="f" d="M239.216,321.4a18.978,18.978,0,0,0-37.926,0c0,.187,0,.357,0,.544v.544c.216,2.674,2.065,5.348,5.556,7.451,7.4,4.412,19.425,4.412,26.839,0,3.456-2.077,5.323-4.742,5.53-7.451v-.544C239.216,321.754,239.233,321.584,239.216,321.4Z" transform="translate(-89.414 -254.579)"/><g class="ac" transform="translate(111.876 48.596)"><path class="r" d="M239.216,321.4a18.978,18.978,0,0,0-37.926,0c0,.187,0,.357,0,.544v.544c.216,2.674,2.065,5.348,5.556,7.451,7.4,4.412,19.425,4.412,26.839,0,3.456-2.077,5.323-4.742,5.53-7.451v-.544C239.216,321.754,239.233,321.584,239.216,321.4Z" transform="translate(-201.29 -303.175)"/></g><g class="ad" transform="translate(111.876 47.792)"><path class="a" d="M228.483,304.222h0a18.447,18.447,0,0,0-18.1.9A19.668,19.668,0,0,0,201.29,321.3c0,.187,0,.357,0,.544v.544c.216,2.674,2.065,5.348,5.556,7.451a24.7,24.7,0,0,0,9.505,3.066c-4.917-.891-8.105-6.551-6.593-12.808C211.521,312.841,218.641,302.342,228.483,304.222Z" transform="translate(-201.29 -302.272)"/></g><path class="ae" d="M239.456,322.983V321.9a19.692,19.692,0,0,0-6.438-14.136c2.065,2.184,6.645,10.419,1.668,16.7-3.275,4.127-18.829,10.018-31.626,2.451a13.328,13.328,0,0,0,4.027,3.521c7.4,4.412,19.425,4.412,26.839,0C237.391,328.358,239.249,325.693,239.456,322.983Z" transform="translate(-89.655 -255.077)"/><g class="e" transform="translate(120.043 50.246)"><path class="a" d="M221.334,306.981c.864,1.988-.786,4.661-3.647,5.954s-5.876.731-6.723-1.266.786-4.661,3.647-5.954S220.47,305,221.334,306.981Z" transform="translate(-210.741 -305.026)"/></g><g class="e" transform="translate(115.115 59.142)"><path class="a" d="M209.585,316.186a2.642,2.642,0,0,1-.016,2.968,2.458,2.458,0,0,1-2.716.982,2.559,2.559,0,0,1-1.809-2.308,2.585,2.585,0,0,1,1.5-2.533A2.211,2.211,0,0,1,209.585,316.186Z" transform="translate(-205.039 -315.006)"/></g><path class="f" d="M263.289,326.094a12.532,12.532,0,0,0-25.059,0v.722c.147,1.783,1.365,3.565,3.672,4.92,4.9,2.915,12.849,2.915,17.749,0,2.3-1.373,3.526-3.128,3.664-4.92v-.365C263.315,326.326,263.3,326.219,263.289,326.094Z" transform="translate(-94.434 -255.737)"/><g class="aa" transform="translate(143.796 58.095)"><path class="r" d="M263.289,326.094a12.532,12.532,0,0,0-25.059,0v.722c.147,1.783,1.365,3.565,3.672,4.92,4.9,2.915,12.849,2.915,17.749,0,2.3-1.373,3.526-3.128,3.664-4.92v-.365C263.315,326.326,263.3,326.219,263.289,326.094Z" transform="translate(-238.23 -313.832)"/></g><g class="e" transform="translate(143.753 57.77)"><path class="a" d="M256.171,314.762h0a12.2,12.2,0,0,0-11.979.589,13,13,0,0,0-6.012,10.7c0,.125,0,.232,0,.357v.365c.147,1.783,1.365,3.565,3.672,4.92a16.27,16.27,0,0,0,6.3,2.023c-3.258-.579-5.366-4.323-4.364-8.467C244.937,320.457,249.673,313.514,256.171,314.762Z" transform="translate(-238.18 -313.468)"/></g><path class="ae" d="M263.444,327.172v-.722a13.019,13.019,0,0,0-4.26-9.35c1.365,1.444,4.4,6.89,1.1,11.043-2.16,2.727-12.443,6.631-20.911,1.622a8.986,8.986,0,0,0,2.661,2.326c4.9,2.914,12.849,2.914,17.749,0C262.079,330.719,263.306,328.963,263.444,327.172Z" transform="translate(-94.589 -256.092)"/><g class="e" transform="translate(149.186 59.39)"><path class="a" d="M251.469,316.582c.562,1.319-.518,3.084-2.411,3.94s-3.88.481-4.441-.838.518-3.084,2.411-3.94S250.907,315.263,251.469,316.582Z" transform="translate(-244.468 -315.285)"/></g><g class="e" transform="translate(145.926 65.29)"><path class="a" d="M243.689,322.667a1.746,1.746,0,0,1,.01,1.964,1.625,1.625,0,0,1-1.792.666,1.691,1.691,0,0,1-1.207-1.519,1.709,1.709,0,0,1,.985-1.681A1.462,1.462,0,0,1,243.689,322.667Z" transform="translate(-240.696 -321.904)"/></g><path class="f" d="M286.819,331.753a17.045,17.045,0,1,0-34.089,0v.98c.2,2.433,1.858,4.822,4.995,6.685,6.645,3.966,17.455,3.966,24.117,0,3.119-1.863,4.787-4.251,4.977-6.685a6.953,6.953,0,0,0,0-.98Z" transform="translate(-96.404 -255.817)"/><g class="af" transform="translate(156.326 58.747)"><path class="r" d="M286.819,331.753a17.045,17.045,0,1,0-34.089,0v.98c.2,2.433,1.858,4.822,4.995,6.685,6.645,3.966,17.455,3.966,24.117,0,3.119-1.863,4.787-4.251,4.977-6.685a6.953,6.953,0,0,0,0-.98Z" transform="translate(-252.73 -314.564)"/></g><g class="ad" transform="translate(156.308 58.834)"><path class="a" d="M277.156,316.416h0a16.58,16.58,0,0,0-16.275.807,17.677,17.677,0,0,0-8.17,14.541v.98c.2,2.433,1.858,4.822,4.995,6.685a22.156,22.156,0,0,0,8.555,2.754c-4.424-.784-7.293-5.882-5.928-11.506C261.921,324.161,268.316,314.731,277.156,316.416Z" transform="translate(-252.71 -314.661)"/></g><path class="ae" d="M287.035,333.33a6.962,6.962,0,0,0,0-.98,17.732,17.732,0,0,0-5.79-12.71c1.849,1.961,5.971,9.367,1.495,15.009-2.947,3.717-16.919,9.011-28.421,2.2a11.82,11.82,0,0,0,3.621,3.164c6.645,3.966,17.455,3.966,24.117,0C285.151,338.107,286.88,335.719,287.035,333.33Z" transform="translate(-96.62 -256.369)"/><g class="e" transform="translate(163.674 61.034)"><path class="a" d="M270.762,318.886c.76,1.783-.709,4.2-3.275,5.348s-5.28.659-6.049-1.132.7-4.189,3.275-5.348S269.992,317.094,270.762,318.886Z" transform="translate(-261.233 -317.13)"/></g><g class="e" transform="translate(159.257 69.048)"><path class="a" d="M260.19,327.163a2.368,2.368,0,0,1,0,2.66,2.2,2.2,0,0,1-2.429.893,2.293,2.293,0,0,1-1.632-2.059,2.318,2.318,0,0,1,1.332-2.278A2,2,0,0,1,260.19,327.163Z" transform="translate(-256.122 -326.121)"/></g><path class="f" d="M216.04,273.57a25.64,25.64,0,0,1-8.641,19.341,16.753,16.753,0,0,0-5.867,12.585v44.047c0,1.542-.976,3.093-2.955,4.269a12.528,12.528,0,0,1-3.716,1.4,16.909,16.909,0,0,1-6.913,0,12.712,12.712,0,0,1-3.707-1.4c-1.97-1.177-2.964-2.727-2.964-4.269V305.381a16.575,16.575,0,0,0-5.79-12.478,25.587,25.587,0,0,1-8.727-19.608c.4-13.769,11.369-24.7,24.724-24.643s24.235,11.076,24.53,24.848Z" transform="translate(-84.721 -248.651)"/><g class="e" transform="translate(82.037)"><path class="ag" d="M216.04,273.57a25.64,25.64,0,0,1-8.641,19.341,16.753,16.753,0,0,0-5.867,12.585v44.047c0,1.542-.976,3.093-2.955,4.269a12.528,12.528,0,0,1-3.716,1.4,16.909,16.909,0,0,1-6.913,0,12.712,12.712,0,0,1-3.707-1.4c-1.97-1.177-2.964-2.727-2.964-4.269V305.381a16.575,16.575,0,0,0-5.79-12.478,25.587,25.587,0,0,1-8.727-19.608c.4-13.769,11.369-24.7,24.724-24.643s24.235,11.076,24.53,24.848Z" transform="translate(-166.758 -248.651)"/></g><path class="f" d="M206.86,274.856a14.283,14.283,0,0,1-5.8,11.542,11.644,11.644,0,0,0-4.5,9.421v55.01a3.626,3.626,0,0,1-.988,2.567,3.405,3.405,0,0,1-2.469,1.069h-.069a3.407,3.407,0,0,1-2.435-1.088,3.627,3.627,0,0,1-.969-2.548V295.641a11.44,11.44,0,0,0-4.511-9.252,14.3,14.3,0,0,1-5.789-11.934,13.753,13.753,0,1,1,27.49.4Z" transform="translate(-86.429 -249.937)"/><g class="af" transform="translate(92.895 10.538)"><path class="r" d="M206.86,274.856a14.283,14.283,0,0,1-5.8,11.542,11.644,11.644,0,0,0-4.5,9.421v55.01a3.626,3.626,0,0,1-.988,2.567,3.405,3.405,0,0,1-2.469,1.069h-.069a3.407,3.407,0,0,1-2.435-1.088,3.627,3.627,0,0,1-.969-2.548V295.641a11.44,11.44,0,0,0-4.511-9.252,14.3,14.3,0,0,1-5.789-11.934,13.753,13.753,0,1,1,27.49.4Z" transform="translate(-179.324 -260.475)"/></g><g class="af" transform="translate(110.545 27.682)"><path class="a" d="M199.75,286.332a6.423,6.423,0,1,1,6.42,6.622,6.524,6.524,0,0,1-6.42-6.622Z" transform="translate(-199.75 -279.71)"/></g><g class="af" transform="translate(113.042 17.076)"><path class="a" d="M202.64,271.856a3.925,3.925,0,1,1,3.923,4.046A3.986,3.986,0,0,1,202.64,271.856Z" transform="translate(-202.64 -267.81)"/></g><g class="af" transform="translate(105.577 12.655)"><path class="a" d="M194,264.855a1.945,1.945,0,1,1,1.944,2.005A1.976,1.976,0,0,1,194,264.855Z" transform="translate(-194 -262.85)"/></g><g class="af" transform="translate(90.023 11.621)"><path class="a" d="M176,267.145a5.282,5.282,0,1,1,5.28,5.437,5.365,5.365,0,0,1-5.28-5.437Z" transform="translate(-176 -261.69)"/></g><g class="af" transform="translate(89.159 24.358)"><path class="a" d="M175,278.529a2.561,2.561,0,0,0,1.525,2.37,2.425,2.425,0,0,0,2.706-.549,2.617,2.617,0,0,0,.542-2.789,2.481,2.481,0,0,0-2.292-1.581A2.52,2.52,0,0,0,175,278.529Z" transform="translate(-175 -275.98)"/></g><g class="af" transform="translate(90.982 31.693)"><path class="a" d="M177.11,288.354a4.02,4.02,0,1,1,4.018,4.144,4.083,4.083,0,0,1-4.018-4.144Z" transform="translate(-177.11 -284.21)"/></g><g class="af" transform="translate(100.565 38.681)"><path class="a" d="M188.2,295.464a3.311,3.311,0,1,1,3.31,3.414,3.363,3.363,0,0,1-3.31-3.414Z" transform="translate(-188.2 -292.05)"/></g><g class="af" transform="translate(84.44 19.295)"><path class="a" d="M169.54,272.127a1.787,1.787,0,0,1,1.036-1.678,1.689,1.689,0,0,1,1.9.357,1.823,1.823,0,0,1,.394,1.948,1.729,1.729,0,0,1-1.6,1.111,1.657,1.657,0,0,1-1.22-.493A1.765,1.765,0,0,1,169.54,272.127Z" transform="translate(-169.539 -270.3)"/></g><g class="af" transform="translate(121.131 11.639)"><path class="a" d="M212,264a2.222,2.222,0,1,1,2.221,2.291A2.257,2.257,0,0,1,212,264Z" transform="translate(-212 -261.71)"/></g><g class="af" transform="translate(123.343 22.86)"><ellipse class="a" cx="2.238" cy="2.308" rx="2.238" ry="2.308"/></g><g class="af" transform="translate(100.176 24.741)"><path class="a" d="M187.75,278.718a2.239,2.239,0,1,1,2.238,2.308A2.274,2.274,0,0,1,187.75,278.718Z" transform="translate(-187.75 -276.41)"/></g><path class="f" d="M309.489,332.6a10.374,10.374,0,1,0-20.739,0v.6c.121,1.48,1.132,2.941,3.042,4.073a15.745,15.745,0,0,0,14.69,0c1.9-1.132,2.912-2.594,3.033-4.073v-.3A2.844,2.844,0,0,0,309.489,332.6Z" transform="translate(-101.299 -256.614)"/><g class="e" transform="translate(187.451 65.286)"><path class="a" d="M309.489,332.6a10.374,10.374,0,1,0-20.739,0v.6c.121,1.48,1.132,2.941,3.042,4.073a15.745,15.745,0,0,0,14.69,0c1.9-1.132,2.912-2.594,3.033-4.073v-.3A2.844,2.844,0,0,0,309.489,332.6Z" transform="translate(-288.75 -321.9)"/></g><g class="e" transform="translate(187.459 65.548)"><path class="r" d="M303.657,323.269h0a10.094,10.094,0,0,0-9.925.486,10.763,10.763,0,0,0-4.972,8.873q0,.147,0,.294v.3c.121,1.48,1.132,2.941,3.042,4.073a13.427,13.427,0,0,0,5.185,1.685c-2.7-.481-4.442-3.565-3.612-7.014C294.316,327.993,298.213,322.244,303.657,323.269Z" transform="translate(-288.76 -322.194)"/></g><path class="ah" d="M309.62,333.552v-.6a10.835,10.835,0,0,0-3.526-7.745c1.123,1.194,3.638,5.713.907,9.145-1.789,2.264-10.309,5.49-17.282,1.346a7.155,7.155,0,0,0,2.2,1.925,15.745,15.745,0,0,0,14.69,0A5.526,5.526,0,0,0,309.62,333.552Z" transform="translate(-101.431 -256.974)"/><g class="e" transform="translate(191.898 66.903)"><path class="a" d="M299.7,324.78c.467,1.1-.432,2.558-2,3.271s-3.214.392-3.681-.7.423-2.558,2-3.262S299.231,323.693,299.7,324.78Z" transform="translate(-293.896 -323.714)"/></g><g class="e" transform="translate(189.199 71.784)"><path class="a" d="M293.25,329.823a1.445,1.445,0,0,1,.007,1.625,1.344,1.344,0,0,1-1.482.55,1.4,1.4,0,0,1-1-1.257,1.414,1.414,0,0,1,.814-1.391,1.207,1.207,0,0,1,1.659.472Z" transform="translate(-290.774 -329.19)"/></g><path class="f" d="M296.7,348.494a14.306,14.306,0,1,0-28.611,0v.82c.164,2.041,1.555,4.046,4.191,5.615,5.582,3.324,14.647,3.324,20.246,0,2.592-1.569,4.009-3.565,4.174-5.615v-.41C296.7,348.761,296.709,348.637,296.7,348.494Z" transform="translate(-98.492 -257.94)"/><g class="ai" transform="translate(169.598 76.157)"><path class="r" d="M296.7,348.494a14.306,14.306,0,1,0-28.611,0v.82c.164,2.041,1.555,4.046,4.191,5.615,5.582,3.324,14.647,3.324,20.246,0,2.592-1.569,4.009-3.565,4.174-5.615v-.41C296.7,348.761,296.709,348.637,296.7,348.494Z" transform="translate(-268.09 -334.097)"/></g><g class="e" transform="translate(169.598 76.197)"><path class="a" d="M288.6,335.62h0a13.9,13.9,0,0,0-13.661.67A14.825,14.825,0,0,0,268.09,348.5v.82c.164,2.041,1.555,4.046,4.191,5.615a18.428,18.428,0,0,0,7.172,2.308c-3.707-.659-6.109-4.929-4.969-9.653C275.789,342.117,281.173,334.2,288.6,335.62Z" transform="translate(-268.09 -334.142)"/></g><path class="ae" d="M296.881,349.765v-.82a14.908,14.908,0,0,0-4.856-10.7c1.547,1.649,5.012,7.861,1.253,12.6-2.471,3.111-14.206,7.558-23.858,1.845a10.079,10.079,0,0,0,3.042,2.674c5.582,3.324,14.647,3.324,20.246,0C295.317,353.812,296.708,351.806,296.881,349.765Z" transform="translate(-98.672 -258.392)"/><g class="ad" transform="translate(175.772 78.087)"><path class="a" d="M283.224,337.7c.639,1.5-.6,3.512-2.757,4.456s-4.424.553-5.064-.954.588-3.565,2.748-4.456S282.575,336.2,283.224,337.7Z" transform="translate(-275.234 -336.263)"/></g><g class="ad" transform="translate(172.048 84.783)"><path class="a" d="M274.343,344.635a1.993,1.993,0,0,1,.011,2.242,1.855,1.855,0,0,1-2.044.76,1.93,1.93,0,0,1-1.379-1.733,1.951,1.951,0,0,1,1.122-1.92A1.7,1.7,0,0,1,274.343,344.635Z" transform="translate(-270.926 -343.775)"/></g><path class="f" d="M268.8,356.766c0-10.116-7.946-18.316-17.753-18.316s-17.757,8.2-17.757,18.316a5.079,5.079,0,0,0,0,.508q-.013.258,0,.517c.2,2.531,1.936,5.018,5.185,6.961,6.913,4.136,18.189,4.136,25.128,0,3.249-1.943,4.977-4.456,5.185-6.961v-.517C268.8,357.1,268.813,356.917,268.8,356.766Z" transform="translate(-93.763 -258.413)"/><g class="ac" transform="translate(139.527 80.037)"><path class="r" d="M268.8,356.766c0-10.116-7.946-18.316-17.753-18.316s-17.757,8.2-17.757,18.316a5.079,5.079,0,0,0,0,.508q-.013.258,0,.517c.2,2.531,1.936,5.018,5.185,6.961,6.913,4.136,18.189,4.136,25.128,0,3.249-1.943,4.977-4.456,5.185-6.961v-.517C268.8,357.1,268.813,356.917,268.8,356.766Z" transform="translate(-233.29 -338.45)"/></g><g class="ad" transform="translate(139.53 80.475)"><path class="a" d="M258.756,340.776h0a17.253,17.253,0,0,0-16.978.847,18.4,18.4,0,0,0-8.478,15.2,5.078,5.078,0,0,0,0,.508,5.165,5.165,0,0,0,0,.517c.2,2.531,1.936,5.018,5.185,6.961a22.933,22.933,0,0,0,8.909,2.87c-4.606-.82-7.587-6.123-6.17-11.979C242.873,348.869,249.536,339.047,258.756,340.776Z" transform="translate(-233.292 -338.942)"/></g><path class="ae" d="M269.028,358.381v-1.025a18.472,18.472,0,0,0-6.049-13.236c1.927,2.05,6.222,9.76,1.555,15.633-3.068,3.868-17.619,9.385-29.6,2.291a12.465,12.465,0,0,0,3.768,3.3c6.913,4.136,18.189,4.136,25.128,0C267.092,363.4,268.82,360.948,269.028,358.381Z" transform="translate(-93.985 -259.03)"/><g class="ad" transform="translate(147.198 82.807)"><path class="a" d="M252.072,343.4c.795,1.863-.726,4.358-3.4,5.571s-5.5.686-6.291-1.176.735-4.367,3.456-5.579S251.277,341.524,252.072,343.4Z" transform="translate(-242.167 -341.559)"/></g><g class="ad" transform="translate(142.584 91.156)"><path class="a" d="M241.064,352.008a2.469,2.469,0,0,1,.006,2.774,2.3,2.3,0,0,1-2.532.937,2.39,2.39,0,0,1-1.705-2.146,2.416,2.416,0,0,1,1.387-2.377A2.074,2.074,0,0,1,241.064,352.008Z" transform="translate(-236.827 -350.925)"/></g><path class="f" d="M318.435,340.211a6.276,6.276,0,1,0-12.547,0,1.836,1.836,0,0,0,0,.357,3.312,3.312,0,0,0,1.832,2.469,9.541,9.541,0,0,0,8.883,0,3.312,3.312,0,0,0,1.832-2.469A1.845,1.845,0,0,0,318.435,340.211Z" transform="translate(-103.627 -257.901)"/><g class="q" transform="translate(202.253 75.839)"><path class="a" d="M318.435,340.211a6.276,6.276,0,1,0-12.547,0,1.836,1.836,0,0,0,0,.357,3.312,3.312,0,0,0,1.832,2.469,9.541,9.541,0,0,0,8.883,0,3.312,3.312,0,0,0,1.832-2.469A1.845,1.845,0,0,0,318.435,340.211Z" transform="translate(-305.88 -333.74)"/></g><g class="e" transform="translate(202.253 76.015)"><path class="a" d="M314.884,334.59h0a6.09,6.09,0,0,0-5.991.287,6.493,6.493,0,0,0-3,5.355,1.834,1.834,0,0,0,0,.357,3.312,3.312,0,0,0,1.832,2.469,8.31,8.31,0,0,0,3.154,1.016c-1.633-.294-2.687-2.166-2.186-4.243C309.276,337.443,311.626,333.993,314.884,334.59Z" transform="translate(-305.88 -333.938)"/></g><g class="aj" transform="translate(202.763 77.639)"><path d="M318.516,340.8a1.835,1.835,0,0,0,0-.356,6.519,6.519,0,0,0-2.126-4.679c.683.722,2.195,3.449.544,5.526-1.08,1.364-6.23,3.316-10.464.811a4.559,4.559,0,0,0,1.331,1.168,9.541,9.541,0,0,0,8.883,0A3.312,3.312,0,0,0,318.516,340.8Z" transform="translate(-306.47 -335.76)"/></g><g class="ad" transform="translate(204.971 76.83)"><path class="a" d="M312.529,335.5c.276.66-.259,1.542-1.21,1.97s-1.944.241-2.221-.419.259-1.542,1.2-1.97S312.244,334.841,312.529,335.5Z" transform="translate(-309.026 -334.852)"/></g><g class="ad" transform="translate(203.288 79.783)"><path class="a" d="M308.626,338.544a.914.914,0,0,1,.032,1.041.851.851,0,0,1-.947.362.9.9,0,0,1-.088-1.688A.739.739,0,0,1,308.626,338.544Z" transform="translate(-307.078 -338.166)"/></g><path class="f" d="M83.316,325.985a10.374,10.374,0,1,1,20.739,0v.6c-.121,1.48-1.132,2.932-3.042,4.073a15.8,15.8,0,0,1-14.69,0c-1.9-1.141-2.912-2.594-3.033-4.073v-.3C83.29,326.173,83.307,326.083,83.316,325.985Z" transform="translate(-73.379 -255.896)"/><g class="e" transform="translate(9.911 59.394)"><path class="r" d="M83.316,325.985a10.374,10.374,0,1,1,20.739,0v.6c-.121,1.48-1.132,2.932-3.042,4.073a15.8,15.8,0,0,1-14.69,0c-1.9-1.141-2.912-2.594-3.033-4.073v-.3C83.29,326.173,83.307,326.083,83.316,325.985Z" transform="translate(-83.29 -315.29)"/></g><g class="e" transform="translate(15.813 59.656)"><path class="a" d="M90.12,316.659h0a10.094,10.094,0,0,1,9.925.486,10.763,10.763,0,0,1,4.972,8.873v.6c-.121,1.479-1.132,2.932-3.042,4.073a13.417,13.417,0,0,1-5.185,1.676c2.7-.472,4.441-3.565,3.612-7.006C99.418,321.383,95.512,315.634,90.12,316.659Z" transform="translate(-90.12 -315.584)"/></g><path class="ah" d="M83.32,326.982v-.6a10.772,10.772,0,0,1,3.526-7.745c-1.123,1.194-3.638,5.7-.907,9.145,1.789,2.264,10.309,5.49,17.282,1.346a7.156,7.156,0,0,1-2.2,1.925,15.8,15.8,0,0,1-14.69,0C84.452,329.879,83.441,328.426,83.32,326.982Z" transform="translate(-73.383 -256.26)"/><g class="ad" transform="translate(20.304 61.001)"><path class="a" d="M95.441,318.169c-.467,1.1.432,2.558,2,3.262s3.214.4,3.681-.686-.432-2.558-2-3.271S95.907,317.081,95.441,318.169Z" transform="translate(-95.317 -317.093)"/></g><g class="ad" transform="translate(26.197 65.892)"><path class="a" d="M102.39,323.213a1.445,1.445,0,0,0-.007,1.625,1.344,1.344,0,0,0,1.482.55,1.4,1.4,0,0,0,1-1.257,1.414,1.414,0,0,0-.814-1.391A1.207,1.207,0,0,0,102.39,323.213Z" transform="translate(-102.136 -322.58)"/></g><path class="f" d="M107.769,328.509a15.066,15.066,0,1,1,30.131,0v.865c-.173,2.157-1.642,4.269-4.416,5.918-5.876,3.5-15.433,3.5-21.326,0-2.757-1.649-4.225-3.761-4.39-5.918a3.468,3.468,0,0,1,0-.428A3.68,3.68,0,0,1,107.769,328.509Z" transform="translate(-76.704 -255.683)"/><g class="af" transform="translate(31.058 57.654)"><path class="r" d="M107.769,328.509a15.066,15.066,0,1,1,30.131,0v.865c-.173,2.157-1.642,4.269-4.416,5.918-5.876,3.5-15.433,3.5-21.326,0-2.757-1.649-4.225-3.761-4.39-5.918a3.468,3.468,0,0,1,0-.428A3.68,3.68,0,0,1,107.769,328.509Z" transform="translate(-107.762 -313.337)"/></g><g class="ad" transform="translate(39.585 57.716)"><path class="a" d="M117.63,314.952h0a14.662,14.662,0,0,1,14.379.721,15.632,15.632,0,0,1,7.224,12.844v.865c-.173,2.157-1.642,4.269-4.416,5.918a19.443,19.443,0,0,1-7.561,2.433c3.914-.7,6.446-5.2,5.236-10.17C131.11,321.8,125.459,313.463,117.63,314.952Z" transform="translate(-117.63 -313.407)"/></g><path class="ae" d="M107.769,329.855a3.468,3.468,0,0,1,0-.428,3.681,3.681,0,0,1,0-.437,15.665,15.665,0,0,1,5.116-11.23c-1.642,1.738-5.28,8.28-1.322,13.271,2.592,3.28,14.958,7.959,25.12,1.943a10.459,10.459,0,0,1-3.2,2.8c-5.876,3.5-15.433,3.5-21.326,0C109.4,334.124,107.968,332.012,107.769,329.855Z" transform="translate(-76.704 -256.164)"/><g class="e" transform="translate(46.103 59.651)"><path class="a" d="M125.352,317.139c-.674,1.586.622,3.708,2.895,4.733s4.666.579,5.34-1.007-.622-3.7-2.895-4.733S126.026,315.553,125.352,317.139Z" transform="translate(-125.174 -315.578)"/></g><g class="e" transform="translate(54.648 66.745)"><path class="a" d="M135.423,324.458a2.094,2.094,0,0,0,0,2.353,1.948,1.948,0,0,0,2.149.788,2.028,2.028,0,0,0,1.441-1.823,2.049,2.049,0,0,0-1.181-2.012,1.768,1.768,0,0,0-2.411.7Z" transform="translate(-135.063 -323.537)"/></g><path class="f" d="M97.489,339.262a14.3,14.3,0,0,1,28.6,0v.82c-.164,2.041-1.555,4.046-4.191,5.615-5.573,3.324-14.647,3.324-20.237,0-2.592-1.569-4.018-3.565-4.174-5.615a3.252,3.252,0,0,1,0-.41A3.18,3.18,0,0,1,97.489,339.262Z" transform="translate(-75.307 -256.953)"/><g class="ai" transform="translate(22.175 68.062)"><path class="r" d="M97.489,339.262a14.3,14.3,0,0,1,28.6,0v.82c-.164,2.041-1.555,4.046-4.191,5.615-5.573,3.324-14.647,3.324-20.237,0-2.592-1.569-4.018-3.565-4.174-5.615a3.252,3.252,0,0,1,0-.41A3.18,3.18,0,0,1,97.489,339.262Z" transform="translate(-97.482 -325.015)"/></g><g class="e" transform="translate(30.27 67.975)"><path class="a" d="M106.85,326.39h0a13.913,13.913,0,0,1,13.651.672,14.833,14.833,0,0,1,6.863,12.19v.82c-.164,2.041-1.555,4.046-4.191,5.615A18.724,18.724,0,0,1,116,348c3.707-.66,6.109-4.938,4.969-9.653C119.647,332.9,114.281,324.991,106.85,326.39Z" transform="translate(-106.85 -324.918)"/></g><path class="ak" d="M97.489,340.6a3.253,3.253,0,0,1,0-.41,3.182,3.182,0,0,1,0-.41,14.862,14.862,0,0,1,4.856-10.7c-1.555,1.649-5.012,7.861-1.262,12.594,2.471,3.12,14.206,7.567,23.858,1.854A10.078,10.078,0,0,1,121.9,346.2c-5.573,3.324-14.647,3.324-20.237,0C99.044,344.6,97.644,342.592,97.489,340.6Z" transform="translate(-75.307 -257.395)"/><g class="ad" transform="translate(36.457 69.83)"><path class="a" d="M114.183,328.47c-.648,1.506.588,3.565,2.748,4.5s4.424.544,5.064-.954-.588-3.521-2.748-4.5S114.866,327,114.183,328.47Z" transform="translate(-114.01 -326.999)"/></g><g class="ad" transform="translate(44.566 76.565)"><path class="a" d="M123.745,335.415a1.993,1.993,0,0,0-.011,2.242,1.855,1.855,0,0,0,2.044.76,1.93,1.93,0,0,0,1.379-1.733,1.951,1.951,0,0,0-1.122-1.92A1.7,1.7,0,0,0,123.745,335.415Z" transform="translate(-123.394 -334.555)"/></g><path class="f" d="M121.919,354.326a17.749,17.749,0,0,1,35.5,0,5.073,5.073,0,0,1,0,.508,5.16,5.16,0,0,1,0,.517c-.2,2.531-1.936,5.018-5.185,6.97-6.913,4.127-18.146,4.127-25.128,0-3.249-1.952-4.977-4.456-5.185-6.97a5.167,5.167,0,0,1,0-.517A5.076,5.076,0,0,1,121.919,354.326Z" transform="translate(-78.627 -258.21)"/><g class="ac" transform="translate(43.285 78.371)"><path class="r" d="M121.919,354.326a17.749,17.749,0,0,1,35.5,0,5.073,5.073,0,0,1,0,.508,5.16,5.16,0,0,1,0,.517c-.2,2.531-1.936,5.018-5.185,6.97-6.913,4.127-18.146,4.127-25.128,0-3.249-1.952-4.977-4.456-5.185-6.97a5.167,5.167,0,0,1,0-.517A5.076,5.076,0,0,1,121.919,354.326Z" transform="translate(-121.913 -336.581)"/></g><g class="ad" transform="translate(53.333 78.299)"><path class="a" d="M133.54,338.336h0a17.253,17.253,0,0,1,16.954.83,18.4,18.4,0,0,1,8.5,15.151q.013.254,0,.508a5.16,5.16,0,0,1,0,.517c-.2,2.531-1.936,5.018-5.185,6.97a23.079,23.079,0,0,1-8.909,2.861c4.606-.82,7.587-6.123,6.17-11.979C149.422,346.4,142.76,336.58,133.54,338.336Z" transform="translate(-133.54 -336.501)"/></g><path class="ae" d="M121.919,355.9a5.167,5.167,0,0,1,0-.517,5.076,5.076,0,0,1,0-.508,18.462,18.462,0,0,1,6.049-13.236c-1.927,2.05-6.222,9.76-1.555,15.633,3.068,3.868,17.628,9.385,29.6,2.3a12.6,12.6,0,0,1-3.767,3.3c-6.913,4.127-18.146,4.127-25.128,0C123.846,360.919,122.118,358.432,121.919,355.9Z" transform="translate(-78.627 -258.76)"/><g class="ad" transform="translate(61.012 80.588)"><path class="a" d="M142.637,340.915c-.795,1.863.734,4.358,3.456,5.571s5.487.686,6.282-1.177-.726-4.367-3.4-5.579S143.432,339.007,142.637,340.915Z" transform="translate(-142.427 -339.069)"/></g><g class="ad" transform="translate(71.075 88.945)"><path class="a" d="M154.5,349.528a2.469,2.469,0,0,0-.006,2.774,2.3,2.3,0,0,0,2.532.937,2.39,2.39,0,0,0,1.7-2.146,2.416,2.416,0,0,0-1.387-2.377A2.074,2.074,0,0,0,154.5,349.528Z" transform="translate(-154.073 -348.445)"/></g><path class="f" d="M231.9,358.207a16.2,16.2,0,0,0-32.4,0,4.149,4.149,0,0,0,0,.463,4.318,4.318,0,0,0,0,.472c.182,2.308,1.728,4.581,4.744,6.355,6.317,3.779,16.6,3.779,22.933,0,2.964-1.783,4.545-4.046,4.727-6.355a4.325,4.325,0,0,0,0-.472A4.163,4.163,0,0,0,231.9,358.207Z" transform="translate(-89.17 -258.803)"/><g class="aa" transform="translate(110.323 83.23)"><path class="r" d="M231.9,358.207a16.2,16.2,0,0,0-32.4,0,4.149,4.149,0,0,0,0,.463,4.318,4.318,0,0,0,0,.472c.182,2.308,1.728,4.581,4.744,6.355,6.317,3.779,16.6,3.779,22.933,0,2.964-1.783,4.545-4.046,4.727-6.355a4.325,4.325,0,0,0,0-.472A4.163,4.163,0,0,0,231.9,358.207Z" transform="translate(-199.492 -342.032)"/></g><g class="e" transform="translate(110.34 83.138)"><path class="a" d="M222.755,343.606h0a15.747,15.747,0,0,0-15.476.758,16.79,16.79,0,0,0-7.759,13.833,4.163,4.163,0,0,0,0,.463,4.325,4.325,0,0,0,0,.472c.181,2.308,1.728,4.581,4.744,6.355a20.922,20.922,0,0,0,8.131,2.62c-4.208-.749-6.913-5.588-5.634-10.936C208.255,350.968,214.338,341.992,222.755,343.606Z" transform="translate(-199.513 -341.93)"/></g><path class="ae" d="M232.108,359.642a4.325,4.325,0,0,0,0-.472,4.163,4.163,0,0,0,0-.463,16.876,16.876,0,0,0-5.5-12.086c1.728,1.872,5.677,8.913,1.417,14.261-2.8,3.565-16.09,8.565-27.029,2.095a11.424,11.424,0,0,0,3.456,3c6.317,3.779,16.6,3.779,22.933,0C230.38,364.223,231.944,361.95,232.108,359.642Z" transform="translate(-89.375 -259.302)"/><g class="e" transform="translate(116.324 85.642)"><path class="a" d="M4.917,0C7.611-.03,9.778,1.451,9.758,3.308S7.536,6.7,4.841,6.727-.021,5.277,0,3.42,2.222.031,4.917,0Z" transform="translate(0 3.891) rotate(-23.499)"/></g><g class="e" transform="translate(113.126 92.9)"><path class="a" d="M206.6,353.879a2.249,2.249,0,0,1,0,2.526,2.092,2.092,0,0,1-2.308.845,2.178,2.178,0,0,1-1.547-1.958,2.2,2.2,0,0,1,1.268-2.161,1.887,1.887,0,0,1,2.592.749Z" transform="translate(-202.737 -352.883)"/></g><path class="f" d="M158.689,360.327a15.412,15.412,0,1,1,30.823,0,3.839,3.839,0,0,1,0,.446,3.674,3.674,0,0,1,0,.437c-.173,2.2-1.676,4.367-4.511,6.052-6.049,3.565-15.787,3.565-21.81,0-2.826-1.685-4.321-3.85-4.5-6.052v-.437C158.689,360.621,158.681,360.478,158.689,360.327Z" transform="translate(-83.624 -259.104)"/><g class="aa" transform="translate(75.061 85.698)"><path class="r" d="M158.689,360.327a15.412,15.412,0,1,1,30.823,0,3.839,3.839,0,0,1,0,.446,3.674,3.674,0,0,1,0,.437c-.173,2.2-1.676,4.367-4.511,6.052-6.049,3.565-15.787,3.565-21.81,0-2.826-1.685-4.321-3.85-4.5-6.052v-.437C158.689,360.621,158.681,360.478,158.689,360.327Z" transform="translate(-158.686 -344.802)"/></g><g class="e" transform="translate(83.784 85.747)"><path class="a" d="M168.78,346.455h0a14.973,14.973,0,0,1,14.725.715,15.965,15.965,0,0,1,7.379,13.162,3.841,3.841,0,0,1,0,.446,3.685,3.685,0,0,1,0,.437c-.173,2.2-1.676,4.367-4.511,6.052a20.128,20.128,0,0,1-7.734,2.5c4-.713,6.584-5.348,5.357-10.41C182.571,353.452,176.79,344.931,168.78,346.455Z" transform="translate(-168.78 -344.857)"/></g><path class="ae" d="M158.69,361.7v-.882a16,16,0,0,1,5.236-11.489c-1.676,1.783-5.4,8.467-1.357,13.574,2.661,3.351,15.3,8.146,25.707,1.988A10.739,10.739,0,0,1,185,367.753c-6.049,3.565-15.787,3.565-21.81,0C160.366,366.068,158.863,363.9,158.69,361.7Z" transform="translate(-83.625 -259.596)"/><g class="e" transform="translate(90.453 87.74)"><path class="a" d="M176.681,348.695c-.691,1.622.631,3.788,2.955,4.84s4.779.6,5.461-1.025-.631-3.788-2.955-4.849S177.372,347.073,176.681,348.695Z" transform="translate(-176.498 -347.093)"/></g><g class="e" transform="translate(99.152 94.996)"><path class="a" d="M186.941,356.175a2.149,2.149,0,0,0-.008,2.415,2,2,0,0,0,2.2.817,2.08,2.08,0,0,0,1.485-1.868,2.1,2.1,0,0,0-1.209-2.069,1.8,1.8,0,0,0-2.471.7Z" transform="translate(-186.565 -355.234)"/></g><path class="f" d="M203.025,367.671a6.276,6.276,0,1,0-12.547,0,1.839,1.839,0,0,0,0,.357,3.321,3.321,0,0,0,1.832,2.469,9.6,9.6,0,0,0,8.883,0,3.321,3.321,0,0,0,1.832-2.469A1.839,1.839,0,0,0,203.025,367.671Z" transform="translate(-87.944 -260.887)"/><g class="aa" transform="translate(102.526 100.313)"><path class="r" d="M203.025,367.671a6.276,6.276,0,1,0-12.547,0,1.839,1.839,0,0,0,0,.357,3.321,3.321,0,0,0,1.832,2.469,9.6,9.6,0,0,0,8.883,0,3.321,3.321,0,0,0,1.832-2.469A1.839,1.839,0,0,0,203.025,367.671Z" transform="translate(-190.47 -361.2)"/></g><g class="ai" transform="translate(102.5 100.483)"><path class="a" d="M199.444,362.032h0a6.107,6.107,0,0,0-5.991.3,6.511,6.511,0,0,0-3,5.355,1.841,1.841,0,0,0,0,.357,3.321,3.321,0,0,0,1.832,2.469,8.308,8.308,0,0,0,3.154,1.007c-1.633-.285-2.687-2.166-2.186-4.234C193.836,364.884,196.186,361.417,199.444,362.032Z" transform="translate(-190.44 -361.39)"/></g><path class="ae" d="M203.106,368.246a1.835,1.835,0,0,0,0-.356,6.519,6.519,0,0,0-2.126-4.679c.683.722,2.195,3.449.544,5.526-1.08,1.364-6.23,3.316-10.464.811a4.559,4.559,0,0,0,1.331,1.168,9.6,9.6,0,0,0,8.883,0A3.321,3.321,0,0,0,203.106,368.246Z" transform="translate(-88.024 -261.105)"/><g class="e" transform="translate(105.219 101.276)"><path class="a" d="M197.089,362.922c.276.66-.259,1.542-1.21,1.97s-1.944.241-2.221-.419.259-1.542,1.2-1.97A1.668,1.668,0,0,1,197.089,362.922Z" transform="translate(-193.586 -362.28)"/></g><g class="e" transform="translate(103.533 104.21)"><path class="a" d="M193.186,365.953a.914.914,0,0,1,.03,1.039.851.851,0,0,1-.945.362.9.9,0,0,1-.1-1.686.739.739,0,0,1,1.011.285Z" transform="translate(-191.635 -365.572)"/></g><path class="f" d="M71.829,330.519a6.278,6.278,0,0,1,12.555,0v.356a3.321,3.321,0,0,1-1.841,2.469,9.542,9.542,0,0,1-8.883,0,3.312,3.312,0,0,1-1.832-2.469A1.838,1.838,0,0,1,71.829,330.519Z" transform="translate(-71.82 -256.873)"/><g class="q" transform="translate(0 67.407)"><path class="r" d="M71.829,330.519a6.278,6.278,0,0,1,12.555,0v.356a3.321,3.321,0,0,1-1.841,2.469,9.542,9.542,0,0,1-8.883,0,3.312,3.312,0,0,1-1.832-2.469A1.838,1.838,0,0,1,71.829,330.519Z" transform="translate(-71.82 -324.28)"/></g><g class="e" transform="translate(3.56 67.344)"><path class="a" d="M75.94,324.861h0a6.1,6.1,0,0,1,6,.29,6.5,6.5,0,0,1,3.006,5.361v.357a3.321,3.321,0,0,1-1.841,2.469,8.157,8.157,0,0,1-3.154,1.016c1.633-.294,2.687-2.166,2.186-4.242C81.557,327.713,79.2,324.237,75.94,324.861Z" transform="translate(-75.94 -324.209)"/></g><g class="aj" transform="translate(0 68.94)"><path d="M71.829,331.063a1.838,1.838,0,0,1,0-.357A6.51,6.51,0,0,1,73.963,326c-.683.722-2.2,3.449-.553,5.526,1.08,1.364,6.23,3.316,10.464.811a4.446,4.446,0,0,1-1.331,1.168,9.542,9.542,0,0,1-8.883,0A3.311,3.311,0,0,1,71.829,331.063Z" transform="translate(-71.82 -326)"/></g><g class="ad" transform="translate(6.275 68.158)"><path class="a" d="M79.158,325.771c-.285.66.259,1.542,1.2,1.97s1.944.241,2.229-.419-.259-1.542-1.21-1.97S79.435,325.111,79.158,325.771Z" transform="translate(-79.082 -325.122)"/></g><g class="ad" transform="translate(9.81 71.108)"><path class="a" d="M83.352,328.813a.914.914,0,0,0-.032,1.041.851.851,0,0,0,.947.362.9.9,0,0,0,.088-1.688A.731.731,0,0,0,83.352,328.813Z" transform="translate(-83.172 -328.432)"/></g></g><g transform="translate(92.051 206.948)"><path class="f" d="M208.418,255.757l-15.727-4.207-15.735,4.207s-1.884,8.69.173,22.282,11.233,27.238,15.554,27.238,13.5-13.628,15.554-27.238S208.418,255.757,208.418,255.757Z" transform="translate(-176.168 -251.55)"/><g class="af"><path class="r" d="M208.418,255.757l-15.727-4.207-15.735,4.207s-1.884,8.69.173,22.282,11.233,27.238,15.554,27.238,13.5-13.628,15.554-27.238S208.418,255.757,208.418,255.757Z" transform="translate(-176.168 -251.55)"/></g><path class="ab" d="M203.722,258.47H182.188c-3.076,19.18,6.8,33.869,10.767,33.869S206.8,277.659,203.722,258.47Z" transform="translate(-176.906 -252.302)"/><path class="a" d="M193.828,258.47h3.681a17.263,17.263,0,0,1,2.013,10.277c-.449,5.178-3.456,11.908-5.694,11.908s-5.245-6.729-5.686-11.908a17.3,17.3,0,0,1,2-10.241h3.69" transform="translate(-177.78 -252.302)"/></g><g transform="translate(58.648)"><path class="j" d="M215.583,246.937h0l-2.057-22.567H169.37l-2.048,22.567h0c-.423,3.984,1.9,8.022,7.017,11.1,9.453,5.624,24.765,5.624,34.2,0C213.7,254.986,216.015,250.921,215.583,246.937Z" transform="translate(-141.555 -41.647)"/><path class="l" d="M176.161,233.076c-8.641-5.143-8.641-13.485,0-18.637s22.657-5.143,31.3,0,8.641,13.494,0,18.637S184.811,238.219,176.161,233.076Z" transform="translate(-141.882 -40.148)"/><path class="f" d="M215.2,242.567,214.507,235c-.631,2.915-2.817,5.731-6.576,7.968-9.03,5.348-23.677,5.348-32.715,0-3.759-2.237-5.954-5.054-6.585-7.959l-.691,7.549c.553,3.111,2.826,6.132,6.826,8.512,9.289,5.517,24.333,5.517,33.614,0C212.372,248.69,214.654,245.7,215.2,242.567Z" transform="translate(-141.646 -42.803)"/><path class="al" d="M191.83,248.535c12.314,0,19.788-4.385,23.158-8.4l-.51-5.588c-5.755,4.1-13.584,6.328-22.3,6.328h-.691a43.515,43.515,0,0,1-16.565-2.852c.233-1.435.5-2.995.795-4.715l-1.866-8.913h-2.592l-2.057,2-1.866,20.571h0c-.423,3.984,1.9,8.022,7.017,11.1,9.453,5.624,24.765,5.624,34.2,0,.32-.187.631-.383.925-.579,0,0-7.155,3.672-18.146,3.191s-17.723-4.8-17.922-8.022a41.975,41.975,0,0,1,.467-7.826C178.2,247.047,184.182,248.535,191.83,248.535Z" transform="translate(-141.557 -41.649)"/><path class="l" d="M191.831,240.794h-.691c-9.721.116-18.38-2.487-24.376-7.362a5.571,5.571,0,0,1-.877-7.661,5.18,5.18,0,0,1,7.427-.9c4.113,3.351,10.421,5.143,17.749,5.027h.156c7.336.08,13.636-1.676,17.749-5.027a5.18,5.18,0,0,1,7.427.9,5.571,5.571,0,0,1-.877,7.661C209.666,238.227,201.258,240.794,191.831,240.794Z" transform="translate(-141.212 -41.574)"/><path class="j" d="M169.969,232.238c1.59,0,7.552,4.59,20.842,4.59s22.164-5.348,26.407-9.537a5.579,5.579,0,0,0-.821-1.533,5.189,5.189,0,0,0-7.431-.891c-4.113,3.351-10.369,5.107-17.749,5.027h-.156c-7.328.116-13.636-1.676-17.749-5.027a5.18,5.18,0,0,0-7.427.9,5.571,5.571,0,0,0,.877,7.661c6,4.875,14.69,7.478,24.377,7.362a42.676,42.676,0,0,1-15.347-3.164C170.5,235.553,168.422,232.238,169.969,232.238Z" transform="translate(-141.212 -41.573)"/><path class="am" d="M190.172,214.6c-8.062,0-15.623-1.872-21.309-5.259s-8.736-7.781-8.736-12.478v-.339h0c-.328-5.9-3.966-72.693-1.832-97.15,2.515-28.806,23.452-52.684,29.8-59.315a2.867,2.867,0,0,1,4.174,0c6.36,6.631,27.289,30.509,29.8,59.315,2.134,24.421-1.495,91.214-1.823,97.15h0v.339c0,4.706-3.1,9.136-8.727,12.478S198.225,214.6,190.172,214.6Z" transform="translate(-140.245 -21.512)"/><path class="d" d="M190.126,39.457a2.554,2.554,0,0,1,1.849.8c6.334,6.613,27.2,30.411,29.708,59.1,2.1,24.02-1.391,89.084-1.806,96.74h-.043v.686c0,4.572-3.042,8.913-8.563,12.193s-13.152,5.205-21.145,5.205-15.511-1.845-21.145-5.205-8.563-7.62-8.563-12.193V196.1h0c-.423-7.656-3.906-72.72-1.815-96.74,2.506-28.691,23.374-52.488,29.708-59.1a2.554,2.554,0,0,1,1.858-.8m0-.677a3.192,3.192,0,0,0-2.324,1c-6.973,7.273-27.392,30.83-29.9,59.52-1.91,21.881.864,79.4,1.849,97.489h0c0,4.626,2.964,9.252,8.9,12.79s13.7,5.294,21.473,5.294,15.554-1.783,21.473-5.294,8.892-8.164,8.892-12.79h0c1.011-18.084,3.75-75.608,1.841-97.489-2.54-28.691-22.994-52.247-29.907-59.52a3.192,3.192,0,0,0-2.316-1Z" transform="translate(-140.199 -21.471)"/><path class="d" d="M220.684,184a20.377,20.377,0,0,1-5.867,6.239,41.544,41.544,0,0,1-3.664,2.21c-1.3.6-2.592,1.257-3.914,1.72a49.055,49.055,0,0,1-33.363,0c-1.348-.455-2.592-1.123-3.914-1.711-1.236-.722-2.506-1.364-3.672-2.21a20.352,20.352,0,0,1-5.859-6.239,21.176,21.176,0,0,0,6.213,5.66c1.175.767,2.445,1.346,3.681,1.988a23.014,23.014,0,0,0,3.88,1.506,53.693,53.693,0,0,0,32.706,0,41.2,41.2,0,0,0,3.88-1.506,22.1,22.1,0,0,0,3.681-2,21.177,21.177,0,0,0,6.213-5.66Z" transform="translate(-140.625 -37.258)"/><path class="d" d="M220.684,146.14a20.35,20.35,0,0,1-5.867,6.239,39.479,39.479,0,0,1-3.664,2.21,40.274,40.274,0,0,1-3.914,1.72,48.988,48.988,0,0,1-33.363,0c-1.348-.463-2.592-1.123-3.914-1.72a40.808,40.808,0,0,1-3.672-2.21,20.228,20.228,0,0,1-5.859-6.239,21.421,21.421,0,0,0,6.213,5.66c1.175.758,2.445,1.346,3.681,1.988a23.015,23.015,0,0,0,3.88,1.506,53.693,53.693,0,0,0,32.706,0,41.268,41.268,0,0,0,3.88-1.515,22.054,22.054,0,0,0,3.681-1.988,21.3,21.3,0,0,0,6.213-5.651Z" transform="translate(-140.625 -33.143)"/><path class="d" d="M196.212,166.291a1.107,1.107,0,1,1-1.106-1.141A1.124,1.124,0,0,1,196.212,166.291Z" transform="translate(-145.187 -35.209)"/><ellipse class="d" cx="1.106" cy="1.141" rx="1.106" ry="1.141" transform="translate(67.607 125.146)"/><ellipse class="d" cx="1.106" cy="1.141" rx="1.106" ry="1.141" transform="translate(30.018 125.146)"/><path class="d" d="M217.952,200.371a1.107,1.107,0,1,1-1.106-1.141,1.081,1.081,0,0,1,.785.332,1.15,1.15,0,0,1,.321.809Z" transform="translate(-148.142 -38.914)"/><path class="d" d="M174.462,200.371a1.107,1.107,0,1,1-1.106-1.141,1.08,1.08,0,0,1,.785.332,1.15,1.15,0,0,1,.321.809Z" transform="translate(-142.232 -38.914)"/><path class="f" d="M209.38,87.026c-10.015,5.963-26.243,5.963-36.292,0-6.247-3.734-8.641-8.913-7.034-13.708h0c.337-.767.683-1.515,1.037-2.255A125.8,125.8,0,0,1,188.9,39.779a3.18,3.18,0,0,1,4.623,0,125.464,125.464,0,0,1,21.776,31.2c.38.784.743,1.56,1.1,2.353C217.969,78.193,215.61,83.309,209.38,87.026Z" transform="translate(-141.324 -21.471)"/><path class="p" d="M191.779,88.5a32.774,32.774,0,0,1-16.479-4.02c-4.562-2.674-6.6-6.186-5.6-9.528.3-.668.6-1.319.916-1.97A122.977,122.977,0,0,1,191.779,42.62s-6.222,13.066-7.639,24.065S186.412,84.787,191.779,88.5Z" transform="translate(-141.851 -21.889)"/><path class="an" d="M198.39,45.44a70.686,70.686,0,0,1,5.712,6.533c1.78,2.282,3.456,4.653,5.029,7.077.795,1.212,1.547,2.46,2.3,3.69s1.469,2.513,2.126,3.806a71.824,71.824,0,0,1,3.621,7.915l-4.545-7.38c-1.521-2.442-3.05-4.875-4.632-7.282s-3.154-4.8-4.753-7.2Z" transform="translate(-145.784 -22.195)"/><path class="l" d="M196.882,38.541l-1.9-19.181-1.9,19.181h0a.979.979,0,0,0,.562.8,2.9,2.9,0,0,0,2.679,0A.979.979,0,0,0,196.882,38.541Z" transform="translate(-145.062 -19.36)"/><path class="f" d="M17.134,0A16.69,16.69,0,0,1,33.891,17.134,17.6,17.6,0,0,1,16.759,34.642,16.69,16.69,0,0,1,0,17.509,17.6,17.6,0,0,1,17.134,0Z" transform="translate(27.645 84.763) rotate(-22.5)"/><path class="i" d="M17.134,0A16.69,16.69,0,0,1,33.891,17.134,17.6,17.6,0,0,1,16.759,34.642,16.69,16.69,0,0,1,0,17.509,17.6,17.6,0,0,1,17.134,0Z" transform="translate(27.645 84.763) rotate(-22.5)"/><ellipse class="x" cx="16.867" cy="17.398" rx="16.867" ry="17.398" transform="translate(33.06 78.906)"/><path class="al" d="M198.739,141.519l-5.461-15.464,13.826,8.227c.112-.2.225-.392.328-.588l-13.826-8.235,15.718-2.852a3.586,3.586,0,0,0-.121-.677l-15.718,2.861,10.257-12.6c-.164-.152-.328-.3-.5-.446l-10.257,12.612V107.9h-.665v16.453l-10.274-12.612-.5.446,10.257,12.6-15.718-2.861a4.818,4.818,0,0,1-.112.677l15.718,2.852-13.826,8.235c.1.2.216.392.328.588l13.826-8.227-5.461,15.464.622.232,5.461-15.464,5.452,15.464C198.333,141.68,198.532,141.6,198.739,141.519Z" transform="translate(-142.737 -28.985)"/><ellipse class="j" cx="12.184" cy="12.567" rx="12.184" ry="12.567" transform="translate(37.743 83.736)"/><path class="l" d="M193.387,113.31a12.336,12.336,0,0,0-12.1,11.373,12.155,12.155,0,0,0,24.264.071,12.337,12.337,0,0,0-12.167-11.444Z" transform="translate(-143.46 -29.574)"/><path class="d" d="M205.406,123.362a3.64,3.64,0,1,1-3.638-3.752,3.7,3.7,0,0,1,3.638,3.752Z" transform="translate(-145.749 -30.258)"/><path class="d" d="M203.26,131.9a2.1,2.1,0,1,1-2.1-2.166,2.059,2.059,0,0,1,1.487.632A2.192,2.192,0,0,1,203.26,131.9Z" transform="translate(-145.875 -31.359)"/><path class="l" d="M201.3,188.472a7.513,7.513,0,0,0-1.983-5.418,7.051,7.051,0,0,0-5.164-2.274h0a7.051,7.051,0,0,0-5.164,2.274,7.513,7.513,0,0,0-1.983,5.418v3.191l1.6,39.163a4.384,4.384,0,0,0,4.321,4.3h2.4a4.384,4.384,0,0,0,4.321-4.3l1.65-39.154C201.327,191.19,201.3,188.472,201.3,188.472Z" transform="translate(-144.236 -36.908)"/><path class="j" d="M195.355,235.521h-2.4a4.384,4.384,0,0,1-4.321-4.3L187,192.062a7.513,7.513,0,0,1,1.983-5.418,7.051,7.051,0,0,1,5.164-2.274h0a7.051,7.051,0,0,1,5.164,2.274,7.513,7.513,0,0,1,1.983,5.418l-1.6,39.163A4.383,4.383,0,0,1,195.355,235.521Z" transform="translate(-144.235 -37.299)"/><path class="f" d="M194.65,262.861h0a2.175,2.175,0,0,1-2.143-2.139l-1.858-64.9a4.2,4.2,0,0,1,1.119-3.016,3.942,3.942,0,0,1,2.882-1.262h0a3.942,3.942,0,0,1,2.882,1.262,4.2,4.2,0,0,1,1.119,3.016l-1.858,64.9A2.175,2.175,0,0,1,194.65,262.861Z" transform="translate(-144.732 -38.078)"/><path class="al" d="M192.725,267.3a2.161,2.161,0,1,0,4.321,0l.173-8.164-.1-.258s-.3,3.806-2.281,2.861c-1.417-.677-2.29-5.214-2.592-9.724Z" transform="translate(-144.95 -44.652)"/><path class="an" d="M199.175,195.818a4.2,4.2,0,0,0-1.119-3.016,3.942,3.942,0,0,0-2.882-1.262h0a4.193,4.193,0,0,0-.674.062c2.445.481,3.223,2.014,3.361,8.137.138,6.408-.475,58.326-.475,58.326Z" transform="translate(-145.255 -38.078)"/><path class="k" d="M232.4,164.127c-.968-.57-2.307-.472-3.8.419a12.514,12.514,0,0,0-5.409,10.125l1.288,43.2a2.138,2.138,0,0,0,.864,1.907c.475.276,2.2,1.328,2.7,1.6a2,2,0,0,0,2.039-.214l2.333-1.382a6.84,6.84,0,0,0,2.947-5.116l1.3-45.072c.052-1.925-.562-3.28-1.59-3.886Z" transform="translate(-149.154 -35.059)"/><path class="j" d="M230.541,221.381c-1.581.945-2.9.178-2.955-1.7l-1.3-43.2a12.523,12.523,0,0,1,5.418-10.143c3.094-1.845,5.513-.285,5.418,3.476l-1.3,45.072A6.84,6.84,0,0,1,232.875,220Z" transform="translate(-149.575 -35.254)"/><path class="l" d="M232.484,164.127c.467.267,2.255,1.337,2.7,1.6-.976-.579-2.316-.481-3.828.41a12.225,12.225,0,0,0-4.874,6.685l-2.687-1.6a12.268,12.268,0,0,1,4.882-6.685C230.186,163.654,231.516,163.556,232.484,164.127Z" transform="translate(-149.237 -35.059)"/><path class="f" d="M237.676,176.824l-2.437-1.444-2.679,1.6V247.5c2.817,1.685,5.444,1.783,7.561.5l2.661-1.6c2.661-1.569,4.519-5.25,4.96-10.553l2.48-29.038C251.13,195.425,245.262,181.361,237.676,176.824Z" transform="translate(-150.427 -36.321)"/><g class="q" transform="translate(82.133 139.059)"><path class="a" d="M237.676,176.824l-2.437-1.444-2.679,1.6V247.5c2.817,1.685,5.444,1.783,7.561.5l2.661-1.6c2.661-1.569,4.519-5.25,4.96-10.553l2.48-29.038C251.13,195.425,245.262,181.361,237.676,176.824Z" transform="translate(-232.56 -175.38)"/></g><path class="f" d="M232.56,247.7h0V177.19l2.428,1.453c7.587,4.519,13.454,18.583,12.5,29.965l-2.454,29.02C244.26,247.174,238.9,251.479,232.56,247.7Z" transform="translate(-150.427 -36.518)"/><path class="al" d="M232.56,247.7h0V177.19l2.428,1.453c7.587,4.519,13.454,18.583,12.5,29.965l-2.454,29.02C244.26,247.174,238.9,251.479,232.56,247.7Z" transform="translate(-150.427 -36.518)"/><path class="al" d="M245.124,241.727c-.389,4.644-4.856,6.435-8.105,2.879s-4.459-8.164-4.459-22.5v30.473c6.343,3.779,11.7-.526,12.495-10.045Z" transform="translate(-150.427 -41.401)"/><path class="k" d="M156.05,164.127c.968-.57,2.307-.472,3.8.419a12.522,12.522,0,0,1,5.418,10.125l-1.3,43.2a2.138,2.138,0,0,1-.864,1.907c-.475.276-2.2,1.328-2.687,1.6a2.013,2.013,0,0,1-2.048-.214l-2.324-1.382a6.83,6.83,0,0,1-2.955-5.116l-1.3-45.072c-.043-1.925.57-3.28,1.6-3.886C153.794,165.464,155.583,164.394,156.05,164.127Z" transform="translate(-139.451 -35.059)"/><path class="j" d="M158.321,221.381c1.581.945,2.9.178,2.955-1.7l1.3-43.2a12.576,12.576,0,0,0-5.427-10.143c-3.093-1.845-5.522-.285-5.427,3.476l1.3,45.072A6.83,6.83,0,0,0,155.98,220Z" transform="translate(-139.441 -35.254)"/><path class="l" d="M156.295,164.127c-.467.267-2.255,1.337-2.7,1.6.976-.579,2.324-.481,3.828.41a12.18,12.18,0,0,1,4.874,6.685l2.7-1.6a12.285,12.285,0,0,0-4.891-6.685C158.6,163.654,157.262,163.556,156.295,164.127Z" transform="translate(-139.696 -35.059)"/><path class="f" d="M150.109,176.824l2.437-1.444,2.687,1.6V247.5c-2.826,1.685-5.453,1.783-7.57.5l-2.661-1.6c-2.653-1.569-4.511-5.25-4.96-10.553l-2.428-29.038C136.655,195.425,142.522,181.361,150.109,176.824Z" transform="translate(-137.511 -36.321)"/><g class="q" transform="translate(0 139.059)"><path class="a" d="M150.109,176.824l2.437-1.444,2.687,1.6V247.5c-2.826,1.685-5.453,1.783-7.57.5l-2.661-1.6c-2.653-1.569-4.511-5.25-4.96-10.553l-2.428-29.038C136.655,195.425,142.522,181.361,150.109,176.824Z" transform="translate(-137.511 -175.38)"/></g><path class="f" d="M155.634,247.7h0V177.19l-2.437,1.453c-7.587,4.519-13.454,18.583-12.5,29.965l2.454,29.02C143.943,247.174,149.3,251.479,155.634,247.7Z" transform="translate(-137.93 -36.518)"/><path class="al" d="M155.634,247.7h0V177.19l-2.437,1.453c-7.587,4.519-13.454,18.583-12.5,29.965l2.454,29.02C143.943,247.174,149.3,251.479,155.634,247.7Z" transform="translate(-137.93 -36.518)"/><path class="al" d="M143.47,241.727c.389,4.644,4.865,6.435,8.105,2.879s4.459-8.164,4.467-22.5v30.473c-6.351,3.779-11.709-.526-12.5-10.045Z" transform="translate(-138.321 -41.401)"/></g></g></g></g></svg>