<svg xmlns="http://www.w3.org/2000/svg" width="609.796" height="528.152" viewBox="0 0 609.796 528.152"><defs><style>.a{fill:#ebebeb;}.b{fill:#192da1;}.c{fill:#263238;}.d{fill:#455a64;}.e{fill:#e0e0e0;}.f{fill:#ffbe9d;}.g{fill:#eb996e;}.h{opacity:0.3;}.i{fill:#fff;}</style></defs><g transform="translate(44.72 16.425)"><g transform="translate(-44.72 -16.425)"><path class="a" d="M599.449,137.1l-3.524-5.735C566.225,82.994,512.52,53.972,455.9,57.427a150.643,150.643,0,0,0-21.67,2.944c-51.48,10.89-96.285,49.324-114.846,98.566-10.918,28.953-13.972,62.288-34.7,85.271-26.963,29.907-72.75,30.847-113.008,29.617S85.6,273.63,58.788,303.662c-16.805,18.809-22.112,45.607-20.73,70.746,3.579,66.683,28.359,125.419,88.2,155.063s152.575,33.169,218.069,20.122C436,531.336,523.244,481.224,575.664,403.72S641.407,220.713,599.449,137.1Z" transform="translate(-37.849 -57.149)"/></g><g transform="translate(16.629 310.698)"><path class="b" d="M75.384,343.29c6.175-3.182,13.435-3.594,20.282-2.463,3.677.613,7.507,1.709,10.017,4.478s2.97,7.625.094,9.994c-1.709,1.414-4.089,1.626-6.305,1.6-5.362-.059-11.314-1-15.592,2.216-2.451,1.85-4.078,4.9-6.989,5.81s-6.093-.8-7.6-3.382a11.785,11.785,0,0,1-.86-8.709,13.294,13.294,0,0,1,6.953-9.546Z" transform="translate(-7.464 -260.16)"/><path class="b" d="M62.809,328.151c3.771,5.386,11.1,3.594,14.508.318s4.832-8.061,6.14-12.6c2.982-10.383,6-21.213,3.771-31.82a17.6,17.6,0,0,0-4.066-8.65,9.24,9.24,0,0,0-8.756-2.923c-3.7.978-5.987,4.6-7.649,8.049A75.814,75.814,0,0,0,59.25,313.1c0,5.244.6,10.748,3.536,15.085" transform="translate(-9.02 -272.292)"/><path class="b" d="M60.059,333.264c4.1-4.867,4.879-11.95,3.052-18.043s-5.893-11.267-10.677-15.5a57.523,57.523,0,0,0-19.127-11.278,20.271,20.271,0,0,0-8.6-1.461,9.027,9.027,0,0,0-7.224,4.361c-2.015,3.842-.083,8.5,2,12.3a145.739,145.739,0,0,0,12.563,19.127c3.771,4.855,8.085,9.64,13.824,11.785s11.7,1.945,14.8-1.992" transform="translate(-16.629 -269.674)"/><path class="c" d="M62.075,396.126a12.208,12.208,0,0,0,.342-2.439c.165-1.791.389-4.019.648-6.682a95.661,95.661,0,0,1,1.5-9.805A76.724,76.724,0,0,1,68.1,365.637a42.815,42.815,0,0,1,5.893-10.465,21.955,21.955,0,0,1,7.472-6.2,20.824,20.824,0,0,1,6.317-1.909,11.95,11.95,0,0,0,2.44-.354,11.137,11.137,0,0,0-2.475,0,19.223,19.223,0,0,0-6.564,1.7,22.086,22.086,0,0,0-7.872,6.258,41.908,41.908,0,0,0-6.116,10.677,70.713,70.713,0,0,0-3.536,11.785,83.436,83.436,0,0,0-1.308,9.923c-.212,2.84-.283,5.138-.33,6.729a10.877,10.877,0,0,0,.059,2.345Z" transform="translate(-8.533 -259.02)"/><path class="c" d="M62.536,401.009a5.244,5.244,0,0,0,0-1.178v-3.253c0-2.817,0-6.894.141-11.927.247-10.076,1.179-20.919,2.793-36.2,1.579-14.366,3.712-31.1,5.963-41.967.471-2.475.966-4.714,1.414-6.647s.813-3.642,1.179-5.009.566-2.357.766-3.147a4.714,4.714,0,0,0,.2-1.178,4.22,4.22,0,0,0-.4,1.061c-.247.813-.554,1.85-.943,3.111s-.849,3.017-1.332,4.973-1.049,4.16-1.579,6.623a372.109,372.109,0,0,0-6.27,38.891c-1.673,15.321-2.428,29.263-2.5,39.351,0,5.056,0,9.145.177,11.962.082,1.32.153,2.357.2,3.241A4.833,4.833,0,0,0,62.536,401.009Z" transform="translate(-8.534 -269.042)"/><path class="c" d="M67.945,372.854a21.39,21.39,0,0,0,0-3.394,92.377,92.377,0,0,0-1.037-9.192,120.5,120.5,0,0,0-2.982-13.388,109.458,109.458,0,0,0-5.633-15.8,84.429,84.429,0,0,0-16.5-25.609,43.232,43.232,0,0,0-3.866-3.594c-.6-.5-1.12-1-1.662-1.391l-1.5-1.037A21.213,21.213,0,0,0,32,297.57c-.165.212,4.042,2.7,9.357,8.344a89.06,89.06,0,0,1,16.016,25.515,126.217,126.217,0,0,1,5.633,15.7,135.367,135.367,0,0,1,3.17,13.258c.731,3.83,1.108,6.941,1.355,9.11a24.063,24.063,0,0,0,.412,3.359Z" transform="translate(-13.885 -267.78)"/><path class="c" d="M40.45,401.71l2.687,36.923H90.572l2.7-36.923Z" transform="translate(-12.376 -249.189)"/><rect class="c" width="63.062" height="14.555" transform="translate(23.49 137.966)"/><path class="d" d="M36.56,431.84v4.031H98.585V431.84Z" transform="translate(-13.07 -243.81)"/><path class="d" d="M41.981,442.366,39.07,435.26h56.8l-3.394,7.106Z" transform="translate(-12.622 -243.2)"/><path class="e" d="M92.266,412.782a1.44,1.44,0,0,1-.224.33c-.189.259-.412.566-.707.943l-2.758,3.536-.13.165-.118-.165-6.788-9.428h.389l-6.682,9.428-.212.295-.236-.271-7.92-9.428h.46c-.141.165-.295.354-.436.542l-7.071,8.886-.236.295-.212-.306-6.694-9.428h.389c-3.288,3.759-6.093,6.941-8.25,9.428l-.141.165-.106-.189c-1.1-1.815-1.956-3.276-2.581-4.325-.271-.471-.495-.849-.66-1.178a1.661,1.661,0,0,1-.212-.412,4.6,4.6,0,0,1,.283.365l.731,1.108,2.711,4.254h-.259l8.1-9.5.212-.236.177.259,6.753,9.428h-.471l7.071-8.9.436-.542.236-.283.224.271c2.781,3.312,5.445,6.505,7.908,9.428h-.448l6.753-9.428.2-.271.189.271,6.647,9.5h-.236l2.876-3.43.766-.9Q92.254,412.7,92.266,412.782Z" transform="translate(-12.255 -248.134)"/><path class="d" d="M93.872,401.545c0,.165-11.891.295-26.54.295s-26.552-.13-26.552-.295,11.879-.295,26.552-.295S93.872,401.38,93.872,401.545Z" transform="translate(-12.317 -249.271)"/><path class="c" d="M96.6,435.645c0,.165-12.964.295-28.85.295s-28.85-.13-28.85-.295,12.964-.295,28.85-.295S96.6,435.48,96.6,435.645Z" transform="translate(-12.653 -243.184)"/></g><g transform="translate(407.155 354.089)"><path class="d" d="M365.8,309.11H476.022a17.831,17.831,0,0,1,17.831,17.831V465.558H348V326.941a17.831,17.831,0,0,1,17.8-17.831Z" transform="translate(-348 -309.11)"/><path class="c" d="M461.386,309.79c.177,0,.306,34.825.306,77.782s-.13,77.782-.306,77.782-.306-34.825-.306-77.782S461.221,309.79,461.386,309.79Z" transform="translate(-327.813 -308.989)"/></g><g transform="translate(230.723 156.658)"><path class="c" d="M406.706,166.355a123.815,123.815,0,0,1,22.18,65.219c.684,15.674-1.426,32.374,6.01,46.186,10.677,19.823,33.764,19.151,40.836,40.517,3.076,9.3-2.593,29.746-4.125,39.421-1.732,10.984,4.985,20.212,3.253,31.207-1.591,10.076-9.133,17.265-18.185,21.956-8.061,4.172-15.509,4.29-23.888.813-15.981-6.611-29.274-13.588-40.647-26.6-15.981-18.267-20.813-43.605-23.57-67.682a593.817,593.817,0,0,1,3.618-159.984" transform="translate(-168.567 -138.76)"/><path class="d" d="M433.793,401.721a4.242,4.242,0,0,1,.507-.13c.342-.083.86-.165,1.52-.365a25.927,25.927,0,0,0,12.8-8.049,15.1,15.1,0,0,0,2.852-5.056,27.74,27.74,0,0,0,1-6.47,63.746,63.746,0,0,0-1.532-15.014c-1.025-5.35-2.357-11.054-2.758-17.242a35.71,35.71,0,0,1,.672-9.428,60.443,60.443,0,0,1,2.994-9.428,101.062,101.062,0,0,0,3.371-9.581,24.443,24.443,0,0,0,.825-10.253,23.182,23.182,0,0,0-3.83-9.522,43.7,43.7,0,0,0-6.682-7.566c-4.867-4.549-10.135-8.25-14.637-12.516a82.909,82.909,0,0,1-19.068-26.328,80.7,80.7,0,0,1-4.384-11.785c-.566-1.756-.9-3.453-1.3-4.985s-.577-2.97-.837-4.243c-.365-2.581-.648-4.573-.719-5.893,0-.66-.094-1.179-.118-1.556a2.848,2.848,0,0,1,0-.53,2.637,2.637,0,0,0,.083.53c.082.354.106.884.189,1.544.106,1.355.424,3.347.825,5.893.271,1.273.566,2.687.884,4.231a42.529,42.529,0,0,0,1.343,4.95,82.179,82.179,0,0,0,4.443,11.667,83.3,83.3,0,0,0,19.057,26.092c4.478,4.172,9.758,7.908,14.673,12.48a44.609,44.609,0,0,1,6.776,7.672,23.758,23.758,0,0,1,3.924,9.782,24.983,24.983,0,0,1-.837,10.5c-.919,3.347-2.2,6.517-3.394,9.628a61.425,61.425,0,0,0-2.993,9.31,35.084,35.084,0,0,0-.672,9.3c.318,6.1,1.685,11.785,2.7,17.171a64.209,64.209,0,0,1,1.461,15.132,28.946,28.946,0,0,1-1.061,6.576,15.945,15.945,0,0,1-2.958,5.15,24.418,24.418,0,0,1-7.448,5.834,23.858,23.858,0,0,1-5.6,2.121,13.769,13.769,0,0,1-2.074.377Z" transform="translate(-161.489 -126.554)"/><path class="b" d="M243.16,434.551l56.569-26.858s22.026-106.95,26.2-114.976,21.567-14.967,21.567-14.967l-2.911,144.816L339.4,456l-79.762,7.554Z" transform="translate(-190.284 -117.277)"/><path class="f" d="M202.375,432.3c-.318,0-1.886.966-.577,3.453s10.9,10.7,13.718,7.837-1.485-6.352-1.485-6.352Z" transform="translate(-197.759 -89.687)"/><path class="f" d="M214.965,441.516s11.573,1.461,16.016,3.158c4.844,1.838,10.736.577,14.7-2.1a41.821,41.821,0,0,0,6.27-5.115l14.755-.236a17.678,17.678,0,0,0,2.876-18.279,19.835,19.835,0,0,0-3.371-5.763c-1.756-1.9-4.526-3.429-9.31-4.254l-17.525,3.783s-27.106-1.945-31.985.342c0,0-6.069,3.594-7.943,5.1-.707.577-2.864,7.484,1.556,11.078,0,0-3.842,3.052-1.756,5.8l.99,1.179s-2.581,3.347-1.249,4.808,12.964,8.25,17.1,6.647.719-5.48-1.12-6.187" transform="translate(-198.293 -93.859)"/><path class="g" d="M203.51,421.09a12.765,12.765,0,0,1,1.438.518c.907.342,2.239.837,3.913,1.367.825.271,1.744.542,2.746.8s2.074.483,3.194.849a6.824,6.824,0,0,1,3.182,1.921,3.9,3.9,0,0,1,.849,3.877,3.04,3.04,0,0,1-1.426,1.544,5.539,5.539,0,0,1-1.933.542,16.347,16.347,0,0,1-3.689-.2,33,33,0,0,1-5.987-1.556c-1.662-.589-2.97-1.179-3.877-1.532a7.7,7.7,0,0,1-1.379-.66,12.414,12.414,0,0,1,1.45.483c.919.33,2.251.837,3.913,1.379a35.345,35.345,0,0,0,5.893,1.45,16.289,16.289,0,0,0,3.536.165,4.939,4.939,0,0,0,1.756-.495,2.546,2.546,0,0,0,1.179-1.3,3.453,3.453,0,0,0-.684-3.371,6.446,6.446,0,0,0-2.958-1.8c-1.084-.365-2.168-.6-3.158-.884s-1.921-.577-2.746-.86c-1.673-.577-2.982-1.179-3.877-1.52A8.054,8.054,0,0,1,203.51,421.09Z" transform="translate(-197.892 -91.689)"/><path class="g" d="M204.331,414a9.93,9.93,0,0,1,1.426.519c.919.354,2.239.86,3.889,1.4s3.642,1.179,5.893,1.685A8.133,8.133,0,0,1,218.968,419a2.863,2.863,0,0,1,1,1.78,3.666,3.666,0,0,1-.295,2.062,4.938,4.938,0,0,1-3.029,2.569,7.955,7.955,0,0,1-3.689.295,35.455,35.455,0,0,1-5.893-1.721l-3.9-1.367a10.891,10.891,0,0,1-1.414-.554,9,9,0,0,1,1.473.377l3.948,1.179a40.078,40.078,0,0,0,5.893,1.6,7.648,7.648,0,0,0,3.477-.306,4.514,4.514,0,0,0,2.746-2.357,2.746,2.746,0,0,0-.577-3.288,7.836,7.836,0,0,0-3.229-1.308,57.288,57.288,0,0,1-5.893-1.791c-1.65-.613-2.946-1.179-3.842-1.556a9.5,9.5,0,0,1-1.414-.613Z" transform="translate(-197.676 -92.954)"/><path class="g" d="M208.838,416.714a14.673,14.673,0,0,1-.53-2.357A12.964,12.964,0,0,1,207.73,412a4.16,4.16,0,0,1,1.049,2.2A3.913,3.913,0,0,1,208.838,416.714Z" transform="translate(-196.609 -93.311)"/><path class="f" d="M249.536,418.831l-10.312-3.913s-28.626-13.364-29.109-12.634-2.039.636-1.7,4.125,17.018,10.536,17.548,11.785-.354,7.33,5.81,11.7,10.607,4.478,10.607,4.478" transform="translate(-196.495 -95.051)"/><path class="g" d="M242.418,434.318h-.271l-.707-.071a17.156,17.156,0,0,1-2.675-.648,26.175,26.175,0,0,1-8.745-5.032,12.327,12.327,0,0,1-3.536-6.022,27.367,27.367,0,0,1-.613-3.854,2.145,2.145,0,0,0-.106-.436.85.85,0,0,0-.271-.283,9.342,9.342,0,0,0-.837-.542c-.577-.342-1.179-.672-1.815-1-2.475-1.332-5.127-2.663-7.79-4.2a46.467,46.467,0,0,1-3.972-2.51,14.471,14.471,0,0,1-1.862-1.556,4.715,4.715,0,0,1-.79-.99,1.933,1.933,0,0,1-.236-.648,2.91,2.91,0,0,1,0-.636,4.514,4.514,0,0,1,.436-2.487,3.03,3.03,0,0,1,.908-.907,2.017,2.017,0,0,0,.4-.342l.094-.106a.294.294,0,0,1,.2-.059.894.894,0,0,1,.2,0l.318.083c1.544.471,2.97,1.1,4.4,1.685q4.243,1.768,8.1,3.536c5.15,2.357,9.746,4.455,13.612,6.27.966.436,1.874.9,2.746,1.273l2.522.99,4.042,1.6,2.546,1.025.648.283a.244.244,0,0,1,.224.106c0,.012-.083,0-.236-.071l-.672-.224-2.581-.955-4.078-1.45-2.546-.955c-.9-.365-1.8-.813-2.77-1.249l-13.647-6.164q-3.871-1.768-8.108-3.536c-1.414-.577-2.852-1.178-4.337-1.662l-.259-.059h-.094V402.4h0c.33.212.083.071.153.118h0a2.158,2.158,0,0,1-.5.448,2.416,2.416,0,0,0-.778.766,4.1,4.1,0,0,0-.377,2.227,2.2,2.2,0,0,0,.247,1.061,4.536,4.536,0,0,0,.707.9,13.807,13.807,0,0,0,1.8,1.5c1.273.919,2.6,1.721,3.924,2.487,2.652,1.532,5.28,2.876,7.766,4.207.625.342,1.179.672,1.827,1.037a10.181,10.181,0,0,1,.884.566,1.18,1.18,0,0,1,.4.46,2.359,2.359,0,0,1,.118.53,30.557,30.557,0,0,0,.577,3.818,12.115,12.115,0,0,0,3.371,5.893,26.8,26.8,0,0,0,8.568,5.1,18.941,18.941,0,0,0,2.628.719c.306.071.542.094.707.118Z" transform="translate(-196.531 -95.099)"/><path class="g" d="M212.225,430.56a3.536,3.536,0,0,1,1.1.318,11.09,11.09,0,0,1,2.7,1.556,9.89,9.89,0,0,1,1.556,1.52,3.217,3.217,0,0,1,.837,2.357,2.663,2.663,0,0,1-1.909,2.062,5.091,5.091,0,0,1-2.993-.094,54.87,54.87,0,0,1-9.5-3.807,28.457,28.457,0,0,1-2.663-1.579,4.551,4.551,0,0,1-.907-.684,5.565,5.565,0,0,1,1,.519c.636.365,1.556.872,2.722,1.438a66.533,66.533,0,0,0,9.428,3.653,4.714,4.714,0,0,0,2.734.106,2.239,2.239,0,0,0,1.615-1.674,2.887,2.887,0,0,0-.707-2.1,9.814,9.814,0,0,0-1.461-1.5,16.365,16.365,0,0,0-3.547-2.1Z" transform="translate(-197.91 -89.998)"/><g class="h" transform="translate(120.803 236.004)"><path d="M328.708,444.559c-9.263-31.242-17.43-71.477-26.693-102.719-3.394,28.838.849,66.916,6.152,95.46.625,3.347.908,6.623,3.536,8.827l17.006-1.567" transform="translate(-300.798 -341.84)"/></g><path class="c" d="M315.282,414.754c-.13,0-.519-2.039-1.78-5.162a36.648,36.648,0,0,0-2.652-5.256,39.874,39.874,0,0,0-4.36-5.727,38.825,38.825,0,0,0-5.4-4.773,35.124,35.124,0,0,0-5.044-3.041c-3.017-1.485-5.044-2.027-5.009-2.145a6.337,6.337,0,0,1,1.438.342,11.969,11.969,0,0,1,1.638.542,21.493,21.493,0,0,1,2.121.872,33.005,33.005,0,0,1,5.185,2.97,37.715,37.715,0,0,1,5.527,4.808,38.132,38.132,0,0,1,4.384,5.893,33.706,33.706,0,0,1,2.581,5.386c.318.79.507,1.532.707,2.18a12.114,12.114,0,0,1,.424,1.685,7.533,7.533,0,0,1,.236,1.426Z" transform="translate(-181.737 -97.48)"/><path class="b" d="M331.076,280.669s-29.616,66.174-29.616,78.359,22.191,96.556,22.191,96.556c-.212,3.359-1.072,20.176-1.072,20.176l124.439.436h0l1.9-26.752L439.2,423.953l9.7-72.066s6.529-41.837,7.071-53.54c.731-14.637-48.861-31.608-47.506-33.635l-8.556-11.5-49.038,39.822-9.7-28L329.556,276Z" transform="translate(-179.876 -121.658)"/><path class="b" d="M408.313,293.484c-13.47,22.781-38.113,64.288-38.113,64.288l-44.171,50.37s-2.887,25.586,2.887,33.434S344.6,454.788,344.6,454.788s11.656,0,26.469-12.386,55.673-63.569,55.673-63.569L440.781,361.9s16.735-41.107,13.612-62.025c-1.178-8.073-4.643-11.42-9.216-15.12C433.663,275.477,415.844,280.745,408.313,293.484Z" transform="translate(-175.619 -116.866)"/><path class="c" d="M446.45,337.4a3.635,3.635,0,0,1-.212.471c-.153.33-.377.766-.648,1.344-.589,1.178-1.485,2.887-2.711,5.056-2.44,4.349-6.234,10.489-11.184,17.9-2.487,3.7-5.256,7.719-8.309,11.986s-6.517,8.662-9.369,13.8-5.445,10.748-8.568,16.358a103.335,103.335,0,0,1-11.231,16.393,65.691,65.691,0,0,1-14.873,13.152,46.833,46.833,0,0,1-17.23,6.67,38.62,38.62,0,0,1-16.688-.707,31.618,31.618,0,0,1-7.071-2.864,32.28,32.28,0,0,1-5.822-3.936,26.409,26.409,0,0,1-4.384-4.632,26.045,26.045,0,0,1-2.9-4.9,31.02,31.02,0,0,1-2.357-8.768,40.52,40.52,0,0,1-.2-5.739c0-.636.071-1.178.094-1.5a3.537,3.537,0,0,1,0-.507,3.364,3.364,0,0,1,0,.507c0,.365,0,.86,0,1.5a43.607,43.607,0,0,0,.306,5.7,31.322,31.322,0,0,0,2.451,8.662,26.341,26.341,0,0,0,2.9,4.808,25.819,25.819,0,0,0,4.361,4.537,31.891,31.891,0,0,0,5.763,3.854,31.519,31.519,0,0,0,6.965,2.793,38.361,38.361,0,0,0,16.5.636,46.362,46.362,0,0,0,16.994-6.623,65.348,65.348,0,0,0,14.743-13.046,102.257,102.257,0,0,0,11.161-16.287c3.123-5.574,5.645-11.231,8.6-16.346a153.327,153.327,0,0,1,9.428-13.824c3.064-4.243,5.893-8.25,8.356-11.927,5-7.366,8.839-13.47,11.337-17.772,1.261-2.157,2.192-3.842,2.8-5l.719-1.32a2.275,2.275,0,0,1,.271-.436Z" transform="translate(-176.091 -106.629)"/><path class="c" d="M324.6,386.83c0,.083-.625.471-1.438,1.379a7.071,7.071,0,0,0-.8,8.674,16.628,16.628,0,0,0,1.178,1.615c0,.071-.742-.33-1.52-1.367a6.953,6.953,0,0,1,.86-9.228A3.535,3.535,0,0,1,324.6,386.83Z" transform="translate(-176.45 -97.805)"/><path class="c" d="M330.93,404.584a3.534,3.534,0,0,1,.7.165l.825.224,1.178.212a16.417,16.417,0,0,0,7.283-.684,26.67,26.67,0,0,0,9.428-5.515,71,71,0,0,0,8.78-10.194,61.627,61.627,0,0,1,9.063-10.123c1.6-1.343,3.17-2.534,4.478-3.818a12.55,12.55,0,0,0,2.946-4.066,7.413,7.413,0,0,0-.672-6.953,5.469,5.469,0,0,0-2.133-1.591,3.617,3.617,0,0,1,.684.2,4.514,4.514,0,0,1,1.638,1.249,7.613,7.613,0,0,1,.9,7.26,13.1,13.1,0,0,1-2.993,4.266c-1.332,1.32-2.911,2.546-4.478,3.889a62.93,62.93,0,0,0-8.933,10.065,69.6,69.6,0,0,1-8.91,10.253,26.671,26.671,0,0,1-9.617,5.492,16.018,16.018,0,0,1-7.46.507l-1.178-.271c-.33-.094-.6-.212-.813-.283a3.19,3.19,0,0,1-.707-.283Z" transform="translate(-174.616 -102.194)"/><path class="c" d="M407.3,285.51a6.375,6.375,0,0,1-.495.707c-.389.495-.884,1.179-1.509,1.968-1.344,1.674-3.194,4.172-5.457,7.283a238.382,238.382,0,0,0-15.71,25.538c-5.563,10.324-10.159,19.905-13.683,26.741-1.744,3.43-3.182,6.187-4.231,8.073l-1.143,2.157a4.325,4.325,0,0,1-.46.731,4.579,4.579,0,0,1,.342-.79l1.108-2.227,4.042-8.144c3.418-6.894,7.967-16.5,13.529-26.847a214.491,214.491,0,0,1,15.91-25.5c2.357-3.076,4.207-5.551,5.61-7.177l1.6-1.9a3.75,3.75,0,0,1,.542-.613Z" transform="translate(-168.603 -115.892)"/><g class="h" transform="translate(146.686 292.007)"><path d="M322.807,397.7c5.739,3.111,12.056,2.781,18.467,1.532a28.661,28.661,0,0,0,16.5-9.876,28.626,28.626,0,0,1-7.625,15.062c-4.078,4-9.994,6.305-15.6,5.28s-11.29-6.305-11.785-12" transform="translate(-322.76 -389.36)"/></g><g class="h" transform="translate(195.987 234.59)"><path d="M369.669,372.389a25.326,25.326,0,0,1,3.536,19c4.867-7.448,6.01-16.876,4.714-25.68s-4.891-17.112-8.874-25.067c0,0-4.384,7.425-4.431,8.25-.212,4.29,1.367,12.351,2.192,16.558a9.2,9.2,0,0,1,2.675,8.32" transform="translate(-364.594 -340.64)"/></g><g class="h" transform="translate(166.202 236.782)"><path d="M339.32,436.9c11.714,9.133,29.1,9.558,41.908,2.062,12.339-7.224,19.941-20.235,26.988-32.668,10.925-19.257,24.242-43.075,32.044-63.793,0,0-21.861,29.828-28.449,42.686a212.2,212.2,0,0,1-14.92,25.079,64.3,64.3,0,0,1-56.427,27.495" transform="translate(-339.32 -342.5)"/></g><path class="c" d="M322.013,455.59a1.177,1.177,0,0,1,0-.365v-1.072c0-1,.083-2.357.153-4.089.165-3.535.389-8.6.672-14.649v.141c-2.11-7.071-4.584-15.651-7.154-24.914-3.394-12.28-6.258-23.452-8.191-31.572-.955-4.054-1.709-7.354-2.18-9.64-.224-1.1-.4-1.98-.53-2.628a7.859,7.859,0,0,1-.153-.931,4.817,4.817,0,0,1,.271.9l.648,2.616c.578,2.357,1.379,5.586,2.357,9.581,2.039,8.1,4.973,19.245,8.367,31.514,2.557,9.263,5,17.843,7.071,24.926v.082c-.365,6.046-.672,11.078-.9,14.661-.118,1.709-.212,3.076-.283,4.078a10.409,10.409,0,0,1-.094,1.061,1.237,1.237,0,0,1-.059.307Z" transform="translate(-179.311 -101.546)"/><path class="c" d="M428.479,283.864c0,.094-1.273-.354-3.312-.86a39.949,39.949,0,0,0-8.12-1.179,39.1,39.1,0,0,0-8.179.636c-2.074.389-3.335.743-3.359.648a3.041,3.041,0,0,1,.849-.377,24.311,24.311,0,0,1,2.416-.7,32.079,32.079,0,0,1,8.25-.825,32.559,32.559,0,0,1,8.25,1.32,20.033,20.033,0,0,1,2.357.849C428.22,283.675,428.479,283.817,428.479,283.864Z" transform="translate(-161.302 -116.661)"/><path class="c" d="M397.249,265a3.464,3.464,0,0,1-.318.613l-1,1.685c-.884,1.461-2.192,3.536-3.854,6.117-3.335,5.1-8.108,12.068-13.753,19.469-4.537,5.975-8.933,11.337-12.528,15.533l-.259.295-.153-.354c-1.721-3.748-3.135-6.859-4.16-9.11-.46-1.037-.825-1.886-1.12-2.534a4.709,4.709,0,0,1-.342-.907,4.835,4.835,0,0,1,.483.849c.318.636.719,1.461,1.237,2.475,1.072,2.227,2.557,5.3,4.337,9.027l-.4-.059c3.535-4.243,7.884-9.617,12.422-15.58,5.633-7.4,10.442-14.307,13.871-19.351l4.019-6,1.1-1.626A2.607,2.607,0,0,1,397.249,265Z" transform="translate(-169.469 -119.553)"/><path class="c" d="M415.885,430.4c-.177,0,.365-6.14,1.178-13.671s1.65-13.612,1.815-13.588-.377,6.128-1.178,13.659S416.026,430.411,415.885,430.4Z" transform="translate(-159.456 -94.893)"/><path class="c" d="M343.5,424.9a87.8,87.8,0,0,1,1.4,10.277,83.487,83.487,0,0,1,.79,10.336,90.886,90.886,0,0,1-1.4-10.277A89.362,89.362,0,0,1,343.5,424.9Z" transform="translate(-172.372 -91.009)"/><path class="i" d="M397.341,310.864a1.508,1.508,0,0,0-2.286-.907l-.083.071a1.426,1.426,0,1,0,2.357.837Z" transform="translate(-163.268 -111.571)"/><path class="i" d="M386.909,285.444a1.508,1.508,0,0,0-2.286-.907l-.071.071a1.426,1.426,0,1,0,2.357.837Z" transform="translate(-165.128 -116.109)"/><path class="i" d="M362.98,305.914a1.508,1.508,0,0,0-2.286-.907h-.071a1.426,1.426,0,1,0,2.357.848Z" transform="translate(-169.401 -112.455)"/><path class="i" d="M337.109,295.634a1.5,1.5,0,0,0-2.275-.907l-.083.071a1.426,1.426,0,1,0,2.357.837Z" transform="translate(-174.018 -114.29)"/><path class="i" d="M332.544,285.5a1.508,1.508,0,0,0-2.286-.907l-.083.071a1.438,1.438,0,1,0,2.357.837Z" transform="translate(-174.839 -116.098)"/><path class="i" d="M334.531,273.8a1.509,1.509,0,0,0-2.286-.907l-.083.059a1.426,1.426,0,1,0,2.357.849Z" transform="translate(-174.481 -118.187)"/><path class="i" d="M320.2,289.9a1.509,1.509,0,0,0-2.286-.907l-.082.059a1.426,1.426,0,1,0,2.357.849Z" transform="translate(-177.039 -115.313)"/><path class="i" d="M353.429,294.544a1.5,1.5,0,0,0-2.275-.907l-.083.071a1.426,1.426,0,1,0,2.357.837Z" transform="translate(-171.105 -114.484)"/><path class="i" d="M325.291,315.414a1.508,1.508,0,0,0-2.286-.907h-.082a1.426,1.426,0,1,0,2.357.849Z" transform="translate(-176.131 -110.759)"/><path class="i" d="M299.57,375.434a1.509,1.509,0,0,0-2.286-.907l-.071.059a1.426,1.426,0,1,0,2.357.849Z" transform="translate(-180.72 -100.044)"/><path class="i" d="M308.751,340.814a1.508,1.508,0,0,0-2.286-.907l-.082.071a1.426,1.426,0,1,0,2.357.837Z" transform="translate(-179.083 -106.225)"/><path class="i" d="M376.431,280.034a1.509,1.509,0,0,0-2.286-.907l-.082.059a1.426,1.426,0,1,0,2.357.849Z" transform="translate(-167.001 -117.075)"/><path class="i" d="M408.674,348.954a1.509,1.509,0,0,0-2.286-.907l-.082.071a1.438,1.438,0,1,0,2.357.837Z" transform="translate(-161.249 -104.771)"/><path class="i" d="M421.24,289.644a1.5,1.5,0,0,0-2.275-.907l-.083.059a1.426,1.426,0,1,0,2.357.849Z" transform="translate(-159 -115.359)"/><path class="i" d="M416.314,328.484a1.508,1.508,0,0,0-2.286-.907l-.083.071a1.438,1.438,0,1,0,2.357.837Z" transform="translate(-159.885 -108.426)"/><path class="i" d="M388.1,356.534a1.509,1.509,0,0,0-2.286-.907l-.082.071a1.426,1.426,0,1,0,2.357.837Z" transform="translate(-164.918 -103.418)"/><path class="i" d="M389.294,333.174a1.508,1.508,0,0,0-2.286-.907l-.083.071a1.438,1.438,0,1,0,2.357.837Z" transform="translate(-164.708 -107.588)"/><path class="i" d="M406.3,289.844a1.5,1.5,0,0,0-2.275-.907l-.083.071a1.426,1.426,0,1,0,2.357.837Z" transform="translate(-161.667 -115.323)"/><path class="i" d="M383.43,267.224a1.5,1.5,0,0,0-2.275-.907l-.082.059a1.426,1.426,0,1,0,2.357.849Z" transform="translate(-165.75 -119.362)"/><path class="i" d="M382.56,303.7a1.5,1.5,0,0,0-2.286-.908l-.071.059a1.426,1.426,0,1,0,2.357.849Z" transform="translate(-165.905 -112.852)"/><path class="i" d="M353.312,414.94a1.5,1.5,0,0,0-2.227-.907l-.083.059a1.426,1.426,0,1,0,2.357.849Z" transform="translate(-171.118 -92.987)"/><path class="i" d="M319.771,396.644a1.508,1.508,0,0,0-2.286-.907l-.083.071a1.426,1.426,0,1,0,2.357.837Z" transform="translate(-177.116 -96.258)"/><path class="i" d="M292.64,405.614a1.508,1.508,0,0,0-2.286-.907l-.071.059a1.426,1.426,0,1,0,2.357.849Z" transform="translate(-181.957 -94.657)"/><path class="i" d="M289.741,421.064a1.508,1.508,0,0,0-2.286-.907l-.082.059a1.426,1.426,0,1,0,2.357.849Z" transform="translate(-182.477 -91.899)"/><path class="i" d="M315.169,426.234a1.508,1.508,0,0,0-2.286-.907l-.071.071a1.426,1.426,0,1,0,2.357.837Z" transform="translate(-177.935 -90.976)"/><path class="i" d="M306.674,391.634a1.508,1.508,0,0,0-2.286-.907l-.082.071a1.438,1.438,0,1,0,2.357.837Z" transform="translate(-179.457 -97.152)"/><path class="i" d="M337.87,400.435a1.5,1.5,0,0,0-2.286-.908l-.071.059a1.426,1.426,0,1,0,2.357.849Z" transform="translate(-173.883 -95.583)"/><path class="i" d="M412.04,391.585a1.485,1.485,0,0,0-2.275-.907l-.082.059a1.426,1.426,0,1,0,2.357.849Z" transform="translate(-160.643 -97.162)"/><path class="i" d="M366.151,435.554a1.508,1.508,0,0,0-2.286-.907l-.083.071a1.426,1.426,0,1,0,2.357.837Z" transform="translate(-168.836 -89.312)"/><path class="i" d="M385.719,411.074a1.5,1.5,0,0,0-2.275-.907l-.083.071a1.426,1.426,0,1,0,2.357.837Z" transform="translate(-165.341 -93.682)"/><path class="i" d="M397.346,430.989a1.509,1.509,0,0,0-2.263-.955l-.071.071a1.426,1.426,0,1,0,2.357.837Z" transform="translate(-163.261 -90.132)"/><path class="i" d="M365,326.724a1.508,1.508,0,0,0-2.286-.907l-.082.071a1.426,1.426,0,1,0,2.357.837Z" transform="translate(-169.041 -108.74)"/><path class="i" d="M391.331,377.554a1.509,1.509,0,0,0-2.286-.907l-.083.059a1.426,1.426,0,1,0,2.357.849Z" transform="translate(-164.341 -99.666)"/><path class="i" d="M382.791,396.8a1.508,1.508,0,0,0-2.286-.907l-.083.059a1.426,1.426,0,1,0,2.357.849Z" transform="translate(-165.866 -96.229)"/><path class="i" d="M410.861,412.264a1.508,1.508,0,0,0-2.286-.907l-.083.071a1.426,1.426,0,1,0,2.357.837Z" transform="translate(-160.855 -93.47)"/><path class="i" d="M334.051,434.6a1.5,1.5,0,0,0-2.286-.908l-.082.059a1.426,1.426,0,1,0,2.357.849Z" transform="translate(-174.567 -89.484)"/><path class="i" d="M270.054,428.744a1.509,1.509,0,0,0-2.286-.907l-.083.071a1.438,1.438,0,1,0,2.357.837Z" transform="translate(-185.994 -90.528)"/><path class="i" d="M326.434,418.234a1.509,1.509,0,0,0-2.286-.907l-.082.071a1.438,1.438,0,1,0,2.357.837Z" transform="translate(-175.93 -92.404)"/><path class="i" d="M272.43,406.805a1.5,1.5,0,0,0-2.286-.907l-.071.059a1.426,1.426,0,1,0,2.357.848Z" transform="translate(-185.565 -94.445)"/><path class="i" d="M362.631,370.5a1.508,1.508,0,0,0-2.286-.907l-.082.059a1.426,1.426,0,1,0,2.357.849Z" transform="translate(-169.465 -100.924)"/><path class="i" d="M343.751,315.414a1.508,1.508,0,0,0-2.286-.907h-.083a1.426,1.426,0,1,0,2.357.849Z" transform="translate(-172.835 -110.759)"/><path class="i" d="M339.029,363.174a1.508,1.508,0,0,0-2.286-.907l-.071.071a1.426,1.426,0,1,0,2.357.837Z" transform="translate(-173.676 -102.233)"/><path class="i" d="M331.35,347.6a1.509,1.509,0,0,0-2.286-.907h-.071a1.426,1.426,0,1,0,2.357.849Z" transform="translate(-175.047 -105.012)"/><path class="i" d="M365.324,396.584a1.508,1.508,0,0,0-2.286-.907l-.082.071a1.438,1.438,0,1,0,2.357.837Z" transform="translate(-168.987 -96.269)"/><path class="i" d="M341.371,386.98a1.5,1.5,0,0,0-2.286-.943l-.083.071a1.426,1.426,0,1,0,2.357.837Z" transform="translate(-173.26 -97.99)"/><path class="i" d="M351.62,334.224a1.5,1.5,0,0,0-2.275-.907l-.082.059a1.426,1.426,0,1,0,2.357.849Z" transform="translate(-171.428 -107.401)"/><path class="i" d="M315.169,371.574a1.508,1.508,0,0,0-2.286-.907l-.071.071a1.426,1.426,0,1,0,2.357.837Z" transform="translate(-177.935 -100.733)"/><path class="i" d="M371.431,354.434a1.509,1.509,0,0,0-2.286-.907l-.082.059a1.426,1.426,0,1,0,2.357.849Z" transform="translate(-167.894 -103.793)"/><path class="i" d="M423.621,309.674a1.508,1.508,0,0,0-2.286-.907l-.083.071a1.426,1.426,0,1,0,2.357.837Z" transform="translate(-158.577 -111.783)"/><path class="i" d="M402.431,275.784a1.508,1.508,0,0,0-2.286-.907l-.083.071a1.426,1.426,0,1,0,2.357.837Z" transform="translate(-162.36 -117.833)"/><path class="i" d="M361.371,280.034a1.509,1.509,0,0,0-2.286-.907l-.083.059a1.426,1.426,0,1,0,2.357.849Z" transform="translate(-169.69 -117.075)"/><path class="c" d="M321.776,158.21c-9.275,5.893-12.964,18.279-11.219,25.6.9,3.689,2.569,7.4,1.838,11.113-.625,3.217-2.946,5.8-4.714,8.58a25.833,25.833,0,0,0,32.291,37.312" transform="translate(-179.462 -138.617)"/><path class="c" d="M315.208,209.485c-22.58-49.663,31.136-74.612,60.434-66.339,27.542,7.778,39.292,21.484,43.829,39.9s4.313,38.4-2.911,55.944c-3.536,8.65-9.97,17.442-19.269,18.526" transform="translate(-178.386 -141.585)"/><path class="f" d="M340.879,328.285c-.389-23.735-.672-56.321-.672-56.192s-20.353-3.382-24.631-29.97c-2.1-13.235-1.426-34.931-.318-52.668,1.014-15.969,11.585-35.556,27.495-33.871l49.674,12.551a9.346,9.346,0,0,1,8.367,9.5h0l-3.229,102.731" transform="translate(-177.6 -139.103)"/><path class="c" d="M322.64,198.541a3.382,3.382,0,0,0,3.229,3.453,3.241,3.241,0,0,0,3.536-3.017,3.406,3.406,0,0,0-3.229-3.465,3.253,3.253,0,0,0-3.536,3.029Z" transform="translate(-176.096 -131.96)"/><path class="c" d="M352.56,198.541a3.382,3.382,0,0,0,3.229,3.441,3.241,3.241,0,0,0,3.536-3.017,3.382,3.382,0,0,0-3.229-3.453,3.241,3.241,0,0,0-3.536,3.029Z" transform="translate(-170.754 -131.96)"/><path class="c" d="M319.527,193.323c.412.46,3.064-1.367,6.729-1.179s6.293,2.051,6.718,1.615c.2-.189-.212-1-1.355-1.9a9.31,9.31,0,0,0-5.35-1.85,9.027,9.027,0,0,0-5.374,1.544C319.74,192.356,319.327,193.11,319.527,193.323Z" transform="translate(-176.66 -132.941)"/><path class="c" d="M349.109,194.108c.424.448,3.005-1.485,6.67-1.485s6.376,1.815,6.765,1.367c.2-.2-.236-1-1.414-1.85a9.31,9.31,0,0,0-5.421-1.65,8.934,8.934,0,0,0-5.3,1.744C349.274,193.106,348.9,193.908,349.109,194.108Z" transform="translate(-171.381 -132.854)"/><path class="c" d="M339.83,222.2c0-.212-2.263-.6-5.963-1.084-.943-.094-1.827-.283-1.98-.919a4.714,4.714,0,0,1,.625-2.781c.872-2.263,1.8-4.643,2.77-7.142,3.854-10.159,6.635-18.526,6.223-18.679s-3.866,7.967-7.707,18.137l-2.663,7.189a5.4,5.4,0,0,0-.483,3.677,2.357,2.357,0,0,0,1.544,1.367,5.988,5.988,0,0,0,1.591.224C337.509,222.385,339.819,222.4,339.83,222.2Z" transform="translate(-174.689 -132.658)"/><path class="g" d="M336.27,255.869a67.729,67.729,0,0,0,35.638-9.5s-9,18.5-35.638,16.016Z" transform="translate(-173.662 -122.879)"/><path class="c" d="M348.333,189.55c.354,1,4.031.519,8.332,1.049s7.79,1.685,8.367.79c.259-.424-.354-1.367-1.756-2.357a14.626,14.626,0,0,0-12.728-1.4C348.97,188.289,348.168,189.079,348.333,189.55Z" transform="translate(-171.513 -133.517)"/><path class="c" d="M320.254,185.576c.648.837,3.182,0,6.223-.071s5.622.566,6.211-.306c.259-.424-.141-1.261-1.273-2.051a8.6,8.6,0,0,0-5.056-1.367,8.7,8.7,0,0,0-4.962,1.673C320.325,184.292,319.971,185.152,320.254,185.576Z" transform="translate(-176.538 -134.41)"/><path class="f" d="M384.037,204.2c.389-.189,14.248-6.317,14.413,9.617s-15.875,12.81-15.91,12.351S384.037,204.2,384.037,204.2Z" transform="translate(-165.403 -130.641)"/><path class="g" d="M386.622,219.378c.071,0,.283.189.754.4a2.8,2.8,0,0,0,2.074,0c1.673-.636,3.064-3.323,3.111-6.2a8.921,8.921,0,0,0-.813-3.96,3.182,3.182,0,0,0-2.11-2.11,1.4,1.4,0,0,0-1.626.778c-.212.448-.106.766-.189.79s-.354-.259-.224-.919a1.755,1.755,0,0,1,.613-1,2.074,2.074,0,0,1,1.532-.424,3.9,3.9,0,0,1,2.923,2.439,9.429,9.429,0,0,1,1.013,4.431c-.071,3.206-1.685,6.234-3.983,6.918a2.993,2.993,0,0,1-2.546-.389C386.657,219.767,386.575,219.4,386.622,219.378Z" transform="translate(-164.676 -129.958)"/><path class="c" d="M335.485,148.88c-8.862,4.584-12.516,22.71-8.851,32s13.553,13.812,23.3,15.945,19.3,2.357,28.921-.283c.66,6.458,4.537,13.093,10.807,14.8,8.309,2.251,16.676-5.35,18.526-13.753s-.931-17.053-3.665-25.22" transform="translate(-175.635 -140.282)"/><path class="c" d="M397.9,199.672a11.534,11.534,0,0,1-1.237,1.179A41.609,41.609,0,0,1,393,203.62a22.674,22.674,0,0,1-6.2,3.005,13.4,13.4,0,0,1-8.45-.13,13.07,13.07,0,0,1-6.4-5.527,17.761,17.761,0,0,1-2.3-6.505,23.738,23.738,0,0,1-.247-4.62,5.151,5.151,0,0,1,.2-1.674c.177,0,0,2.416.683,6.175a18.289,18.289,0,0,0,2.357,6.175,12.575,12.575,0,0,0,6,5.115,12.893,12.893,0,0,0,7.908.165,23.832,23.832,0,0,0,6.069-2.722C395.9,201.028,397.806,199.543,397.9,199.672Z" transform="translate(-167.752 -133.268)"/><path class="g" d="M339.411,226.819a15.058,15.058,0,0,0,1.98,3.877,5.138,5.138,0,0,0,3.665,2.133,4.714,4.714,0,0,0,3.913-2.133,7.437,7.437,0,0,0,1.084-4.455c-.059-1.4-.707-3.076-2.1-3.241a3.418,3.418,0,0,0-1.685.377l-7.33,2.97" transform="translate(-173.186 -127.051)"/><path class="c" d="M342.542,232.963c0-.224,1.65.424,3.913-.483a5.563,5.563,0,0,0,2.958-2.675,5.892,5.892,0,0,0,.094-4.8,5.549,5.549,0,0,0-.636-1.1c-.295-.306-.247-.295-.554-.247a7.723,7.723,0,0,0-1.178.46l-1.179.495c-1.567.636-2.993,1.179-4.184,1.638-2.357.9-3.924,1.367-4,1.178s1.32-.943,3.63-2.051c1.178-.554,2.534-1.179,4.078-1.9l1.178-.53c.436-.177.754-.365,1.344-.554a1.721,1.721,0,0,1,1.084,0,2,2,0,0,1,.813.636,6.706,6.706,0,0,1,.6,7.248,6.211,6.211,0,0,1-3.724,3.005,5.811,5.811,0,0,1-3.17.13C342.86,233.293,342.518,233.045,342.542,232.963Z" transform="translate(-173.393 -127.173)"/><path class="d" d="M401.092,194.731c-1.626-.118-14.79,1.591-13.753,26.045.966,22.851,16.994,17.819,22.109,9.216C414.256,221.848,417.061,195.85,401.092,194.731Z" transform="translate(-164.556 -132.098)"/><path class="d" d="M408.446,202.3a3.98,3.98,0,0,1-.059-.636c0-.483,0-1.1-.071-1.874,0-1.685-.118-4.042-.2-6.965-.118-6-.283-14.354-.483-23.983l.295.283h-6.776l.306-.306c0,1.815.094,3.736.153,5.692.224,9.169.436,17.678.613,24.878v.212h-.2a12.268,12.268,0,0,0-6.989,4.5A16.5,16.5,0,0,0,392.241,210a26,26,0,0,0-.719,4.184c0,.483-.059.86-.071,1.108a3.308,3.308,0,0,0,0,.389,1.632,1.632,0,0,1,0-.389v-1.12a21.913,21.913,0,0,1,.589-4.243,16.5,16.5,0,0,1,2.746-6.081,12.7,12.7,0,0,1,7.2-4.714l-.2.259c-.2-7.154-.448-15.7-.707-24.878-.059-1.945-.106-3.866-.153-5.692V168.5h7.389v.295c.106,9.64.2,17.984.271,23.995v8.827A2.534,2.534,0,0,1,408.446,202.3Z" transform="translate(-163.814 -136.78)"/><path class="d" d="M405.5,173.581s-6.883-16.1-23.276-24.053a98.015,98.015,0,0,0-19.646-7.283s9.57-2.263,25.043,4.62c7.071,3.135,14.142,7.2,18.856,13.317,2.97,3.877,6.694,11.455,6.682,13.4Z" transform="translate(-168.966 -141.53)"/><path class="i" d="M363,352.792s.094-.118.295-.318.507-.507.884-.919a43.736,43.736,0,0,0,3.182-3.771,61.6,61.6,0,0,0,4.3-6.6c1.532-2.675,3.135-5.834,4.867-9.357,3.477-7.071,7.5-15.58,11.667-25.362,2.074-4.891,4.2-10.088,6.317-15.568l1.579-4.148a24.084,24.084,0,0,1,1.9-4.184,8.65,8.65,0,0,1,3.418-3.253,4.855,4.855,0,0,1,2.357-.6,2.44,2.44,0,0,1,1.249.448,2.675,2.675,0,0,1,.79,1.061v.177a4.078,4.078,0,0,1-.636,1.567,2.475,2.475,0,0,1-1.473.966,5.339,5.339,0,0,1-3.288-.6,5.209,5.209,0,0,1-2.911-5.716,4.584,4.584,0,0,1,1.921-2.876,5.351,5.351,0,0,1,3.347-.955,3.689,3.689,0,0,1,3.088,1.709,1.78,1.78,0,0,1-.118,1.921,3.394,3.394,0,0,1-1.5,1.084,4.915,4.915,0,0,1-5.645-1.6,4.137,4.137,0,0,1-.766-2.97A5.1,5.1,0,0,1,399,270.143a4.266,4.266,0,0,1,2.652-1.461,3.394,3.394,0,0,1,2.864.99,2.121,2.121,0,0,1,.566,1.5,1.98,1.98,0,0,1-.684,1.45,3.3,3.3,0,0,1-2.876.778,3.618,3.618,0,0,1-2.3-1.838,7.578,7.578,0,0,1-.86-2.722,9.641,9.641,0,0,1,.625-5.492,4.09,4.09,0,0,1,2.015-1.992,3.689,3.689,0,0,1,2.793.094,2.652,2.652,0,0,1,1.732,2.18,2.428,2.428,0,0,1-1.5,2.357,2.97,2.97,0,0,1-2.711,0,3.747,3.747,0,0,1-1.685-2.074,5.174,5.174,0,0,1-.153-2.569,11.691,11.691,0,0,1,.542-2.451,4.491,4.491,0,0,1,1.426-2.086,5.716,5.716,0,0,1,2.227-1.1,2.358,2.358,0,0,1,1.3,0,2.747,2.747,0,0,1,1.072.684,3.089,3.089,0,0,1,.7,1.037,1.733,1.733,0,0,1,0,1.308,2.121,2.121,0,0,1-2.11,1.178,3.842,3.842,0,0,1-2.216-.742,6.081,6.081,0,0,1-2.357-3.712,6.258,6.258,0,0,1,.648-4.313,4.773,4.773,0,0,1,1.332-1.615,4.3,4.3,0,0,1,1.874-.813,3.029,3.029,0,0,1,2,.283,2.086,2.086,0,0,1,1.084,1.662,2.934,2.934,0,0,1-2.216,2.828,3.206,3.206,0,0,1-3.206-1.179,5.139,5.139,0,0,1-1.178-3.017,18.856,18.856,0,0,1,1.178-5.633c.483-1.7.919-3.253,1.32-4.643.79-2.77,1.4-4.926,1.838-6.411.2-.719.365-1.273.483-1.662s.189-.566.189-.566a2,2,0,0,1-.13.577c-.13.377-.247.966-.424,1.685-.4,1.5-.99,3.665-1.732,6.435l-1.261,4.655c-.4,1.709-1.179,3.536-1.1,5.539a4.9,4.9,0,0,0,1.179,2.8,2.864,2.864,0,0,0,2.828,1.061,2.546,2.546,0,0,0,1.909-2.357,1.686,1.686,0,0,0-.872-1.332,2.675,2.675,0,0,0-1.721-.224,3.854,3.854,0,0,0-1.7.742,4.431,4.431,0,0,0-1.179,1.473,5.892,5.892,0,0,0-.436,3.889,5.633,5.633,0,0,0,2.192,3.406,3.453,3.453,0,0,0,1.933.648,1.614,1.614,0,0,0,1.626-.86,1.8,1.8,0,0,0-.625-1.791,2.356,2.356,0,0,0-.86-.554,2.026,2.026,0,0,0-1.025,0,4.478,4.478,0,0,0-3.264,2.864,10.713,10.713,0,0,0-.507,2.357,4.585,4.585,0,0,0,.141,2.357,3.1,3.1,0,0,0,1.414,1.756,2.463,2.463,0,0,0,2.2,0,1.85,1.85,0,0,0,1.179-1.756,2.086,2.086,0,0,0-1.379-1.685,3.205,3.205,0,0,0-2.357-.082,3.536,3.536,0,0,0-1.709,1.709,9.156,9.156,0,0,0-.554,5.15,7.071,7.071,0,0,0,.79,2.51,3.041,3.041,0,0,0,1.9,1.544,2.687,2.687,0,0,0,2.357-.625,1.461,1.461,0,0,0,.083-2.11,2.816,2.816,0,0,0-2.357-.79,3.618,3.618,0,0,0-2.263,1.273,4.054,4.054,0,0,0-.424,4.985,4.325,4.325,0,0,0,4.926,1.391,2.935,2.935,0,0,0,1.178-.884,1.178,1.178,0,0,0,.071-1.273,3.1,3.1,0,0,0-2.581-1.379,4.419,4.419,0,0,0-4.632,3.335,4.549,4.549,0,0,0,2.475,4.961,4.632,4.632,0,0,0,2.887.566,2.357,2.357,0,0,0,1.65-2.062v.177a1.768,1.768,0,0,0-1.544-1.178,4.207,4.207,0,0,0-2.086.542,8.013,8.013,0,0,0-3.194,3.04,23.022,23.022,0,0,0-1.85,4.066l-1.6,4.16c-2.121,5.468-4.266,10.607-6.364,15.556-4.2,9.782-8.25,18.314-11.785,25.338-1.756,3.536-3.382,6.659-4.95,9.334a60.451,60.451,0,0,1-4.4,6.564A30.987,30.987,0,0,1,363,352.792Z" transform="translate(-168.891 -125.733)"/><path class="d" d="M425.618,190.407a15.458,15.458,0,0,0-1.072-4.361,17.171,17.171,0,0,0-8.462-8.474,22.851,22.851,0,0,0-8.155-1.992,38.372,38.372,0,0,0-9.676.731c-6.753,1.249-13.848,4.16-21.791,5.362a44.431,44.431,0,0,1-11.667,0,46.952,46.952,0,0,1-10.489-2.852,46.292,46.292,0,0,1-15.321-10.088,41.249,41.249,0,0,1-7.4-9.9,14.028,14.028,0,0,1-.872-1.732l-.566-1.308c-.141-.318-.247-.589-.342-.8a1.013,1.013,0,0,1-.094-.283,1.175,1.175,0,0,1,.153.259l.389.778.625,1.273a14.773,14.773,0,0,0,.919,1.709,42.911,42.911,0,0,0,7.5,9.7,45.962,45.962,0,0,0,25.538,12.645,43.689,43.689,0,0,0,11.5,0c7.837-1.179,14.944-4.078,21.779-5.3a38.61,38.61,0,0,1,9.805-.684,22.922,22.922,0,0,1,8.309,2.109,17.2,17.2,0,0,1,8.5,8.768,12.861,12.861,0,0,1,.813,3.276v.872a1.014,1.014,0,0,1,.082.295Z" transform="translate(-174.833 -139.242)"/><path class="d" d="M407.982,165.51a5.731,5.731,0,0,1-.849.141c-.554.082-1.379.2-2.428.389-2.1.342-5.1,1.014-8.8,1.933a93.671,93.671,0,0,1-13.187,2.557,66.267,66.267,0,0,1-16.429-.365,69.532,69.532,0,0,1-15.875-4.266,67.178,67.178,0,0,1-11.962-6.187c-1.579-1.072-2.993-2.062-4.2-3.005s-2.216-1.756-2.993-2.487l-1.791-1.685c-.4-.389-.613-.6-.589-.625a4.6,4.6,0,0,1,.672.53l1.862,1.591c.8.707,1.874,1.461,3.052,2.357s2.64,1.874,4.219,2.911a71.1,71.1,0,0,0,27.648,10.218,67.635,67.635,0,0,0,16.3.4,96.273,96.273,0,0,0,13.129-2.357c3.712-.86,6.753-1.473,8.874-1.756,1.061-.141,1.886-.224,2.451-.259A4.338,4.338,0,0,1,407.982,165.51Z" transform="translate(-174.982 -139.741)"/><path class="c" d="M398.6,236.688a2.254,2.254,0,0,1-.46-.141,7.5,7.5,0,0,1-1.179-.625,10.819,10.819,0,0,1-3.453-3.677,17.757,17.757,0,0,1-2.121-7.177,51.458,51.458,0,0,1,0-9.145,55.722,55.722,0,0,1,1.509-9.016,26.01,26.01,0,0,1,2.628-6.989,10.8,10.8,0,0,1,3.535-3.665,6.463,6.463,0,0,1,1.178-.613c.295-.106.46-.153.46-.13a14.359,14.359,0,0,0-1.556.943,11.3,11.3,0,0,0-3.229,3.677,26.518,26.518,0,0,0-2.451,6.918A58.93,58.93,0,0,0,392,215.982a55.114,55.114,0,0,0,0,9.027,17.926,17.926,0,0,0,1.933,7.071,11.03,11.03,0,0,0,3.206,3.7C398.038,236.405,398.639,236.629,398.6,236.688Z" transform="translate(-163.859 -131.959)"/><rect class="d" width="19.045" height="7.177" rx="2.85" transform="translate(166.345 104.108) rotate(-11.1)"/><path class="d" d="M354.47,231.555l55.921-17.536a2.64,2.64,0,0,1,3.3,1.709h0a2.651,2.651,0,0,1-1.827,3.359l-57.182,15.439Z" transform="translate(-170.413 -128.676)"/><path class="c" d="M391.065,223.829a12.509,12.509,0,0,1,1.85-.648l5.115-1.556c2.145-.66,4.785-1.367,7.566-2.275a5.067,5.067,0,0,0,1.827-1.178,2.758,2.758,0,0,0,.79-1.945,1.7,1.7,0,0,0-1.179-1.6,4.278,4.278,0,0,0-2.357.071l-16.77,5.4-5.1,1.579a11.683,11.683,0,0,1-1.8.577,12.618,12.618,0,0,1,1.827-.719l5.044-1.768c4.278-1.45,10.147-3.465,16.747-5.574a4.832,4.832,0,0,1,2.687,0,2.357,2.357,0,0,1,1.556,2.168,3.347,3.347,0,0,1-.966,2.357,5.657,5.657,0,0,1-2.145,1.179c-2.887.907-5.468,1.544-7.649,2.157l-5.115,1.379A10.455,10.455,0,0,1,391.065,223.829Z" transform="translate(-165.677 -128.658)"/><path class="c" d="M316.247,186c1.909,6.718-4.914,12.48-7.319,19.045-2.357,6.34-.354,13.447,2.51,19.575s6.635,11.927,8.1,18.514c3.618,16.264-11.09,33.788-8.25,50.2,1.013,5.987,3.429,12.233,5.515,17.925a23.688,23.688,0,0,1,0,16.652c-3.182,9.428-8.58,13.848-12.374,23.016-1.945,4.714-1.791,9.947-1.7,15.014s.071,10.371-2.192,14.92-7.425,8.061-12.327,6.741a18.067,18.067,0,0,0,21.59,4.113c6.447-3.441,10.053-10.418,13.14-17.041,14.944-32.067,22.851-34.778,22.392-70.157,0-2.275-.448-37.712-.448-37.712a35.354,35.354,0,0,1-8.827-3.712c-16.688-11.526-17.3-32.056-17.171-47.977" transform="translate(-182.242 -133.656)"/><path class="f" d="M342.867,277.08v13.353s-10.265,52.385-13.353,81.483S325.92,408.7,325.92,408.7s7.366,11.491,22.769-8.026S366.838,378.079,373,377.737c0,0-7.531-81.824-7.189-84.853a12.362,12.362,0,0,1,2.734-5.822Z" transform="translate(-175.51 -117.397)"/><path class="f" d="M360.5,257.644s-16.77,22.25-18.137,25.315-2.062,4.785-2.062,4.785l25.68,9.935,25-27.389,9.24-24.313-2.746-28.756s-5.468-.342-6.494,4.455a36.028,36.028,0,0,0-.7,9.24l-7.66-6.164-12.363-3.759s-2.911,4.785,1.886,7.189,6.164,2.357,6.164,2.357l4.313,7.531-1.886,8.438-8.745-8.25a4.985,4.985,0,0,0-6.364-.4l-5.657,4.1-5.292-2.357-10.265,9.181-4.113,3.759s2.746,5.138,8.25,2.746l5.48-2.357Z" transform="translate(-172.943 -128.083)"/><path class="g" d="M340.354,292.336a5.54,5.54,0,0,1,0-.719,19.949,19.949,0,0,1,.165-2.086,24.552,24.552,0,0,1,.648-3.359,14.894,14.894,0,0,1,1.791-4.313c3.842-5.893,9.888-14.142,17.43-24.289v.306l-6.505-4.785h.224l-3.382,1.5a23.4,23.4,0,0,1-3.606,1.4,5.893,5.893,0,0,1-4.007-.46,7.378,7.378,0,0,1-3.017-2.876L340,252.49l.153-.141c4.408-4.148,9.322-8.332,14.366-12.81l.153-.13.165.094,4.561,2.7H359.1l5.327-3.536c.931-.6,1.768-1.179,2.77-1.791a3.323,3.323,0,0,1,3.441.295l10.383,8.78-.483.165c.566-2.534,1.179-5.28,1.791-8.049v.212l-4.313-7.531.271.153a8.59,8.59,0,0,1-2.133-.577c-.672-.248-1.344-.53-2.015-.825s-1.332-.625-1.992-.943c-.342-.165-.672-.389-1-.577a6.235,6.235,0,0,1-.9-.778,4.337,4.337,0,0,1-1.179-3.147,6.941,6.941,0,0,1,.907-3.206l.118-.2.236.071,12.351,3.771h.059l7.66,6.164-.483.259a36.6,36.6,0,0,1,.648-9.11,5.551,5.551,0,0,1,2.5-3.795,7.944,7.944,0,0,1,4.361-1.1h.318v.259c.966,10.218,1.874,19.858,2.711,28.756h0v.059c-3.418,8.957-6.529,17.088-9.287,24.289h0L371.82,291.629l-5.256,5.692c-.6.625-1.061,1.12-1.379,1.461l-.483.483s.141-.189.436-.53l1.332-1.5,5.185-5.763,19.257-21.213v.059L400.1,246v.118c-.86-8.9-1.78-18.526-2.77-28.756l.271.271a7.26,7.26,0,0,0-4.007,1.013,4.926,4.926,0,0,0-2.227,3.418,35.361,35.361,0,0,0-.636,8.945v.684l-.53-.424-7.778-6.2h.106l-12.351-3.759.342-.141a6.423,6.423,0,0,0-.813,2.9,3.736,3.736,0,0,0,1.013,2.722,6.335,6.335,0,0,0,.79.684c.318.177.6.365.931.53.66.318,1.308.648,1.968.931a17.312,17.312,0,0,0,3.9,1.355h.189l.071.118,4.313,7.531.059.106v.118c-.625,2.77-1.179,5.515-1.8,8.049l-.106.495-.389-.33L370.3,237.618a2.722,2.722,0,0,0-2.828-.259c-.872.519-1.815,1.178-2.711,1.756l-5.339,3.536-.141.094-.153-.082-4.561-2.711h.33c-5.044,4.455-9.97,8.638-14.39,12.763l.059-.306a6.8,6.8,0,0,0,2.781,2.663,5.316,5.316,0,0,0,3.677.424,23.343,23.343,0,0,0,3.536-1.355l3.382-1.485h.13l.106.071,6.494,4.808.177.13-.13.177c-7.578,10.147-13.683,18.326-17.572,24.16a15.32,15.32,0,0,0-1.827,4.231,27.329,27.329,0,0,0-.7,3.323c-.13.907-.189,1.615-.224,2.074S340.354,292.336,340.354,292.336Z" transform="translate(-172.997 -128.139)"/><path class="g" d="M369.982,259.4c-.118,0,.33-1.815.519-4.714a10.819,10.819,0,0,0-.8-4.95,13.234,13.234,0,0,0-4.089-4.6,101.594,101.594,0,0,0-9.511-6.47l-3.005-1.768a5.775,5.775,0,0,1-1.084-.7,4.244,4.244,0,0,1,1.179.483c.754.342,1.827.884,3.123,1.6a78.791,78.791,0,0,1,9.664,6.364,13.235,13.235,0,0,1,4.219,4.844,10.606,10.606,0,0,1,.731,5.209,22.166,22.166,0,0,1-.577,3.465,4.584,4.584,0,0,1-.365,1.226Z" transform="translate(-170.853 -124.693)"/><path class="g" d="M382.537,250.013a23,23,0,0,1,.436-3.088,48.317,48.317,0,0,0,.53-7.425,49.3,49.3,0,0,0-.66-7.436A23.955,23.955,0,0,1,382.36,229a11.782,11.782,0,0,1,.907,2.982,36.4,36.4,0,0,1,.13,15.026A11.782,11.782,0,0,1,382.537,250.013Z" transform="translate(-165.435 -125.98)"/></g><g transform="translate(213.6 83.272)"><path class="i" d="M303.522,189.4l-12.257-21.649a57.995,57.995,0,1,0-13.895,15.462h0Z" transform="translate(-183.742 -79.309)"/><path class="c" d="M303.544,189.406,277.31,183.4h-.224l.141-.189h0l.212.212a59.067,59.067,0,0,1-11.915,7.177,57.9,57.9,0,0,1-15.875,4.525,52.029,52.029,0,0,1-9.169.46c-1.567-.082-3.182-.13-4.8-.259l-4.891-.742a58.36,58.36,0,0,1-36.145-23.311,57.618,57.618,0,0,1-9.782-22.392,58.924,58.924,0,0,1,.684-25.751A57.064,57.064,0,0,1,197.96,99.32l2.357-2.6a34.059,34.059,0,0,1,2.546-2.357A34.592,34.592,0,0,1,205.491,92l2.781-2.074a24.75,24.75,0,0,1,2.876-1.838l2.935-1.78,3.076-1.473a25.081,25.081,0,0,1,3.1-1.379,59.221,59.221,0,0,1,25.927-4,57.217,57.217,0,0,1,23.806,7.071,58.667,58.667,0,0,1,27.483,33.812A62.38,62.38,0,0,1,300,139.2a57.276,57.276,0,0,1-2.828,16.252,58.43,58.43,0,0,1-5.81,12.469v-.153l12.15,21.72c-.519-.907-4.455-7.731-12.41-21.579v-.141a58.8,58.8,0,0,0,5.716-12.422,57.653,57.653,0,0,0,2.746-16.157A62.131,62.131,0,0,0,297,120.51a58.242,58.242,0,0,0-27.294-33.458,56.746,56.746,0,0,0-23.57-6.941,58.549,58.549,0,0,0-25.68,3.972,24.524,24.524,0,0,0-3.064,1.367l-3.041,1.473-2.911,1.768a21.582,21.582,0,0,0-2.84,1.886l-2.758,2.051c-.931.66-1.721,1.52-2.593,2.263a28.029,28.029,0,0,0-2.522,2.357l-2.357,2.569a56.569,56.569,0,0,0-12.28,23.57,58.5,58.5,0,0,0-.7,25.491,57.17,57.17,0,0,0,9.664,22.144,58.077,58.077,0,0,0,35.8,23.087l4.844.742c1.6.141,3.206.177,4.714.271a52.421,52.421,0,0,0,9.1-.424,57.594,57.594,0,0,0,27.66-11.526l.919-.707-.707.931h0l-.094-.248Z" transform="translate(-183.764 -79.315)"/><path class="c" d="M223.9,129.344a4.714,4.714,0,1,1-4.714-4.714A4.714,4.714,0,0,1,223.9,129.344Z" transform="translate(-178.282 -71.226)"/><path class="c" d="M239.858,129.344a4.714,4.714,0,1,1-4.714-4.714A4.714,4.714,0,0,1,239.858,129.344Z" transform="translate(-175.433 -71.226)"/><path class="c" d="M255.692,126.986a4.714,4.714,0,1,1-6.423-1.721,4.714,4.714,0,0,1,6.423,1.721Z" transform="translate(-172.493 -71.224)"/></g><g transform="translate(30.03 510.56)"><path class="c" d="M563.046,442.186c0,.177-119.808.306-267.523.306S28,442.363,28,442.186s119.773-.306,267.582-.306S563.046,442.021,563.046,442.186Z" transform="translate(-28 -441.88)"/></g><g transform="translate(109.049 216.886)"><path class="d" d="M353.55,444.549a31.631,31.631,0,0,1,25.208-14.236c17.218-.589,25.821,14.236,25.821,14.236Z" transform="translate(-48.904 -150.274)"/><path class="c" d="M382.994,444.124a19.132,19.132,0,0,1-.507-2.569,16.606,16.606,0,0,0-6.824-10.041,21.8,21.8,0,0,1-2.2-1.414,6.152,6.152,0,0,1,2.487.966,14.6,14.6,0,0,1,7.071,10.395,6.21,6.21,0,0,1-.024,2.663Z" transform="translate(-45.35 -150.309)"/><path class="d" d="M368.71,442.861v-.118a6.6,6.6,0,0,0-6.611-6.494H215.561a6.611,6.611,0,0,0-6.611,6.611Z" transform="translate(-74.717 -149.211)"/><path class="c" d="M106.47,229.589c0,3.088,2.357,187.125,2.357,187.125l136.708,32.892h11.231L249.577,192.69H239.3Z" transform="translate(-93.011 -192.69)"/><path class="c" d="M137.418,376.29,95.05,453.931h38.726c-6.93-.684,61.283,0,61.283,0l-61.283-16.252,19.174-43.546-1.638-17.843Z" transform="translate(-95.05 -159.915)"/><path class="c" d="M132.494,410.975,127.91,266.253l41.625-3.983,5.127,154.515-14.861.754Z" transform="translate(-89.184 -180.269)"/><path class="d" d="M186.346,419.273V408.937c0-6.729-.059-16.5-.094-28.791,0-24.6-.059-59.209-.106-99.349l.295.295h-49.2l.306-.306v6.67c0,39.15,0,75.578-.059,105.937h0v.059c-12.752,23.37-23.323,42.768-30.724,56.321-3.7,6.765-6.611,12.068-8.6,15.7-.99,1.791-1.756,3.158-2.275,4.113s-.813,1.391-.813,1.391.247-.495.742-1.426,1.249-2.357,2.2-4.16c1.968-3.642,4.832-8.968,8.485-15.757L137.025,393.2V280.42h49.71v.295c0,40.14-.082,74.753-.106,99.349,0,12.28-.071,22.062-.094,28.791v9.664A1.5,1.5,0,0,1,186.346,419.273Z" transform="translate(-95.046 -177.029)"/><path class="d" d="M148.254,391.43c.153.059-5.739,13.694-13.164,30.429s-13.577,30.264-13.73,30.194,5.739-13.694,13.164-30.441S148.1,391.359,148.254,391.43Z" transform="translate(-90.354 -157.212)"/><path class="d" d="M225.346,449.55v-2.6c0-1.732-.059-4.243-.094-7.472,0-6.482-.2-15.863-.424-27.459-.436-23.193-1.485-55.213-2.77-90.581s-2.263-67.423-2.593-90.616c-.177-11.6-.259-20.989-.224-27.471v-7.472c0,1.732,0,4.243.094,7.472,0,6.482.189,15.863.424,27.459.507,23.193,1.556,55.249,2.84,90.6s2.263,67.4,2.593,90.592c.177,11.6.247,20.989.224,27.471v9.416A2.216,2.216,0,0,1,225.346,449.55Z" transform="translate(-72.881 -192.586)"/><path class="d" d="M166.236,279.83c.177,0,.306,30.783.306,68.743s-.13,68.743-.306,68.743-.306-30.771-.306-68.743S166.071,279.83,166.236,279.83Z" transform="translate(-82.397 -177.134)"/><path class="d" d="M104.747,443.1a5.174,5.174,0,0,1-.589-.825c-.2-.283-.424-.625-.684-1.014a13.675,13.675,0,0,1-.849-1.438,36.263,36.263,0,0,1-3.736-9.958,49.333,49.333,0,0,1-.731-15.757,63.052,63.052,0,0,1,5.115-18.632,38.693,38.693,0,0,1,5.339-8.5,21.454,21.454,0,0,1,1.567-1.839c.542-.589,1.061-1.178,1.6-1.744,1.179-1.072,2.2-2.168,3.371-3.1A54.325,54.325,0,0,1,122,375.336c1.179-.636,2.251-1.308,3.359-1.839a34.88,34.88,0,0,1,3.217-1.473,36.861,36.861,0,0,1,10.277-2.734,19.4,19.4,0,0,1,2.887-.177,6.076,6.076,0,0,1,1.014,0,7.858,7.858,0,0,1-1,.106,25.437,25.437,0,0,0-2.864.295,38.62,38.62,0,0,0-10.147,2.9c-1.049.389-2.062.978-3.17,1.485a35.2,35.2,0,0,0-3.312,1.862,54.391,54.391,0,0,0-6.741,4.962c-1.179.919-2.2,2.015-3.323,3.076-.53.554-1.049,1.178-1.579,1.721a22.834,22.834,0,0,0-1.532,1.827,38.3,38.3,0,0,0-5.256,8.379,63.18,63.18,0,0,0-5.1,18.432,49.781,49.781,0,0,0,.589,15.6,38.09,38.09,0,0,0,3.536,9.935,12.54,12.54,0,0,0,.8,1.461l.625,1.049A7.592,7.592,0,0,1,104.747,443.1Z" transform="translate(-94.552 -161.2)"/></g></g></svg>