<svg xmlns="http://www.w3.org/2000/svg" xmlns:xlink="http://www.w3.org/1999/xlink" width="537.936" height="385.223" viewBox="0 0 537.936 385.223"><defs><style>.a{fill:#48484a;}.a,.b,.g,.p{opacity:0.1;}.b,.l{fill:#6c63ff;}.c{fill:url(#a);}.d{fill:#d38884;}.e{fill:#444053;}.f{fill:#b07473;}.h{fill:#192da1;}.i{fill:#67647e;}.j{fill:#585268;}.k{fill:#e1e7ef;}.m{fill:url(#b);}.n{fill:#a27772;}.o{fill:#cc818c;}.q{fill:#f6f8fb;}.r{fill:url(#c);}.s{fill:#65617d;}.t{fill:#fbbebe;}.ab,.u{opacity:0.05;}.v{fill:#7c5c5c;}.w{fill:url(#d);}.x{fill:#fdc2cc;}.y{fill:#d39999;}.z{fill:#7e5659;}.aa{fill:#865a61;}</style><linearGradient id="a" x1="0.5" y1="1" x2="0.5" gradientUnits="objectBoundingBox"><stop offset="0" stop-color="gray" stop-opacity="0.251"/><stop offset="0.54" stop-color="gray" stop-opacity="0.122"/><stop offset="1" stop-color="gray" stop-opacity="0.102"/></linearGradient><linearGradient id="b" x1="0.5" x2="0.5" y2="0" xlink:href="#a"/><linearGradient id="c" x1="0.5" x2="0.5" y2="0" xlink:href="#a"/><linearGradient id="d" x1="1.096" x2="1.096" y2="0" xlink:href="#a"/></defs><g transform="translate(0.013 -0.004)"><path class="a" d="M43.44,426.65c8.511,33.169,26.531,61.842,55.009,75.738,59.208,28.885,192.655,13.986,292.266-3.111,51.539-8.847,96.807-33.24,129.712-67.615Z" transform="translate(-37.64 -234.438)"/><path class="a" d="M581.149,56.228H526.5a4.326,4.326,0,1,1,0-8.615h9.457a4.546,4.546,0,0,1-4.728-4.307,4.539,4.539,0,0,1,4.728-4.3H529.2a4.546,4.546,0,0,1-4.728-4.307,4.543,4.543,0,0,1,4.728-4.307H557.73A80.819,80.819,0,0,0,535.479,24.8c-77.785-9.111-105.559-3.088-115.371,3.111A114.477,114.477,0,0,1,380.13,43.888c-47.992,9.026-137.745,19.887-219.1-3.48C120.6,28.8,90.555,48.446,72.54,81.218h518.1c-.676-9.532-2.7-18.336-6.416-26.039A4.955,4.955,0,0,1,581.149,56.228Z" transform="translate(-52.981 -20.14)"/><path class="a" d="M32.321,280.23a200.452,200.452,0,0,0,2.123,57.87l479.866,16a204.808,204.808,0,0,0,33.339-46.337ZM222.1,321.513h-9.457a4.324,4.324,0,1,1,0,8.61H158.014a4.324,4.324,0,1,1,0-8.61h9.457a4.326,4.326,0,1,1,0-8.615h-6.757a4.324,4.324,0,1,1,0-8.61h54.654a4.324,4.324,0,1,1,0,8.61H222.1a4.326,4.326,0,1,1,0,8.615Z" transform="translate(-31.16 -157.249)"/><path class="a" d="M570.23,149.94l-523.9,11.617A175.963,175.963,0,0,0,33.78,210.883H561.047a188.652,188.652,0,0,0,7.612-31.438A136.182,136.182,0,0,0,570.23,149.94ZM140.153,188.008H130.7a4.326,4.326,0,1,1,0,8.615H76.046a4.326,4.326,0,1,1,0-8.615H85.5a4.324,4.324,0,1,1,0-8.61H78.746a4.326,4.326,0,1,1,0-8.615H133.4a4.326,4.326,0,1,1,0,8.615h6.752a4.324,4.324,0,1,1,0,8.61Z" transform="translate(-32.548 -88.565)"/><ellipse class="b" cx="35.571" cy="7.986" rx="35.571" ry="7.986" transform="translate(278.542 346.61)"/><ellipse class="b" cx="64.173" cy="5.267" rx="64.173" ry="5.267" transform="translate(332.596 374.692)"/><ellipse class="b" cx="64.173" cy="7.986" rx="64.173" ry="7.986" transform="translate(74.937 363.987)"/><ellipse class="b" cx="48.285" cy="7.986" rx="48.285" ry="7.986" transform="translate(188.667 324.009)"/><path class="c" d="M504.732,224.97c-1.021-6.875-7.267-22.918-7.267-22.918h0q-.163-.709-.369-1.419c-4.43-15.225-10.563-16.549-10.563-16.549l-21.968-4.728a1.7,1.7,0,0,1,.473.44,3.057,3.057,0,0,0-.345.052,8.605,8.605,0,0,1-1.924-4.161c-.043-.227-.08-.473-.109-.7a15.452,15.452,0,0,0-1.258-23.23c-.232-.18-.473-.355-.7-.52a3.5,3.5,0,0,0,.293-4.166c-1.73-3.593-5.494-5.868-9.362-6.979a15.871,15.871,0,0,0-9.088-.194,32.828,32.828,0,0,0-4.757,2.208c-2.917,1.456-6.147,2.61-8.327,5.007a2.444,2.444,0,0,0-.832,2.01,5.424,5.424,0,0,0,.827,1.461,4.409,4.409,0,0,1,.043,3.66,35.445,35.445,0,0,0-1.357,3.518,3.678,3.678,0,0,0,.733,3.532,15.558,15.558,0,0,0,1.371.946,7.192,7.192,0,0,1,1.31,1.47q1.305,1.75,2.6,3.513a36.189,36.189,0,0,1,3.258,4.951,24.126,24.126,0,0,0,2.014,3.783,5.606,5.606,0,0,0,.865.908l-.255-.1a3.939,3.939,0,0,0,2.889,1.177h.132a.794.794,0,0,0,.53-.217c0,.161,0,.322,0,.473.052,1.688.043,3.485-.076,5.173l-.2-.1a1.773,1.773,0,0,0-1.891.2l-20.223,16.228s-4.4,6.014-3.783,16.4l-3.546,15.57s-4.43,13.211-1.021,22.644,5.386,14.828,5.386,14.828,1.362,10.719,3.409,11.594,2.932,1.348,2.932,1.348l.407,2.563h0s.137.251.378.671c1.489,2.591,7.007,11.736,10.213,10.757a40.993,40.993,0,0,1,.52,7.513l3.173,21.3s2.213,5.792,2.076,8.828,2.582,7.362,2.582,7.362a14.067,14.067,0,0,0-1.362,9.906c1.3,5.674,2.932,31.812,2.932,31.812l2.364,6.336-.066,7.428a7.093,7.093,0,0,1-1.466,3.31c-1.532,1.664-1.419,3.589-5.111,5.863s-6.033,3.135-6.033,6.147a7.907,7.907,0,0,1-.113,1.253c-.34,2.213-1,3.414,5.787,4.057a17.9,17.9,0,0,0,13.3-4.445s1.173-2.128,6.7-2.988c0,0,1.891-.1,1.991-1.768.038-.577.028-1.679,0-2.894-.09-2.312-.312-5.012-.605-5.144-.369-.165-1.012-2.492-1.234-3.333h1.537s1.418-10.719,0-17.66a28.65,28.65,0,0,1-.137-11.863l-.274-18.332s-1.891-2.024-.407-5.6,0-21.23,0-21.23.548-6.336,2.114-7.821.076-9.282,0-9.688l2.79,9.357s1.225,18.6,3.82,21.968l.747,8.426s5.315,7.754,4.293,11.93,1.092,19.277,1.092,19.277v15.438s-2.388,6.2.946,8.426l1.418-.057c-.473.44-.837,1.1-1.39,1.674-.638.657-1,3.159-1.206,5.31-.17,1.82-.227,3.385-.227,3.385a5.575,5.575,0,0,0,4.09,2.426c2.672.156,11.476,6.851,11.476,6.851s8.7,0,10.946-.473l.132-.033a2.955,2.955,0,0,0,1.7-1.385,3.546,3.546,0,0,0,.407-2.549c-.279-1.329-1.333-2.785-3.669-4.024-5.811-3.064-6.676-5.934-6.676-5.934l-3.816-5.726h.544a24.494,24.494,0,0,1,3.816-12.875l-.27-29.992s1.7-10.312-1.225-15.911c0,0-.241-5.929,1.716-7.75s-2.605-20.218-2.605-20.218-.946-9.877-2.057-18.89h0c4.6,4.364,9.372-11.348,10.175-14.142h.118l-.052-.2c.033-.132.052-.2.052-.2h0s-1.021-3.631-.274-2.894,2.591-2.024,2.591-2.024-.274-15.031,2.932-22.606S504.732,224.97,504.732,224.97Zm-13.712,9.565.024-.043c.473,9.178-.09,28.762-.09,28.762s-.634,2.511-1.31,5.466l-.473-18.606h0l-.473-17.528Zm-58.683-6.326s2.317,28.98,0,33.16a21.9,21.9,0,0,0-1.669,5.726c-.766-2.01-2.388-6.728-1.806-9.23.752-3.234-1.5-11.731-1.5-11.93a20.157,20.157,0,0,1,1.418-8.189c1.622-3.461.558-4.96.558-4.96S430.7,227.112,432.337,228.209Z" transform="translate(-231.699 -82.963)"/><path class="d" d="M453.8,449.3c-2.019,8.875-10.048-4.544-11.877-7.764-.236-.421-.369-.667-.369-.667l.87-4.081,4.6-1.891a12.851,12.851,0,0,1,2.061,1.343A12.429,12.429,0,0,1,453.8,449.3Z" transform="translate(-247.512 -238.787)"/><path class="d" d="M584.428,432.114a.62.62,0,0,1-.052.2,1.006,1.006,0,0,1-.061.213c-.79,2.771-5.471,18.369-9.991,14.038-4.946-4.728-2.544-15.66-2.544-15.66h.033l10.4-1.064,2.062,2.118h0Z" transform="translate(-315.858 -236.119)"/><path class="e" d="M515.509,510.217l.265,29.788a24.432,24.432,0,0,0-3.745,12.766l-13.447.53c-3.281-2.208-.946-8.36-.946-8.36V529.6s-2.076-14.984-1.073-19.135-4.213-11.821-4.213-11.821l-.738-8.364c-2.544-3.343-3.75-21.807-3.75-21.807l-2.728-9.324c.076.4,1.494,8.185,0,9.617s-2.076,7.759-2.076,7.759,1.47,17.533,0,21.074.4,5.556.4,5.556l.27,18.2a28.46,28.46,0,0,0,.132,11.773c1.4,6.889,0,17.533,0,17.533H469.431l.066-7.428-2.336-6.289s-1.608-25.958-2.88-31.58a14.109,14.109,0,0,1,1.333-9.835s-2.672-4.279-2.539-7.291-2.062-8.757-2.062-8.757l-3.111-21.14a41.07,41.07,0,0,0-1.541-12.043c-1.806-6.024-4.482-13.92-4.482-13.92l3.021.27,15.244,1.357s37.065-2.492,38.725-.421a6.954,6.954,0,0,1,.7,2.161c1.664,7.475,3.863,30.895,3.863,30.895s4.482,18.265,2.558,20.072S514.3,494.4,514.3,494.4C517.187,499.957,515.509,510.217,515.509,510.217Z" transform="translate(-252.958 -237.458)"/><path class="f" d="M489.585,690.631c-.1,1.66-1.953,1.759-1.953,1.759-5.419.851-6.572,2.96-6.572,2.96a17.4,17.4,0,0,1-13.045,4.416c-6.667-.643-6.019-1.83-5.674-4.029a8.321,8.321,0,0,0,.109-1.239c0-3.012,2.307-3.868,5.92-6.147s3.513-4.166,5.017-5.82,1.66-4.865,1.66-4.865c1.7-2.965,6.019.473,6.019.473.2,1.05,6.62.9,6.62.9s.851,3.414,1.291,3.612c.288.132.506,2.809.591,5.107C489.613,688.967,489.623,690.059,489.585,690.631Z" transform="translate(-258.368 -366.13)"/><path class="g" d="M489.585,703.241c-.1,1.66-1.953,1.759-1.953,1.759-5.419.851-6.572,2.96-6.572,2.96a17.4,17.4,0,0,1-13.045,4.416c-6.667-.643-6.019-1.83-5.674-4.029,2.979.738,8.672,1.768,12-.038,4.62-2.506,7.934-4.255,7.934-4.255l7.3-3.674C489.613,701.576,489.623,702.668,489.585,703.241Z" transform="translate(-258.368 -378.74)"/><path class="f" d="M575.568,701.7a2.884,2.884,0,0,1-1.664,1.376l-.128.033c-2.208.473-10.743.473-10.743.473s-8.629-6.672-11.239-6.823a5.489,5.489,0,0,1-4.014-2.411s.052-1.551.217-3.357c.2-2.137.558-4.62,1.187-5.272,1.154-1.206,1.419-2.837,4.014-1.806,0,0,3.707-6.535,8.076-1.485l4.52,6.856s.851,2.837,6.577,5.915c2.288,1.229,3.31,2.676,3.6,4A3.523,3.523,0,0,1,575.568,701.7Z" transform="translate(-303.513 -368.265)"/><path class="g" d="M575.568,713.38c-.511.43-1.073.894-1.664,1.376l-.128.033c-2.208.473-10.743.473-10.743.473s-8.629-6.672-11.239-6.823a5.489,5.489,0,0,1-4.014-2.411s.052-1.551.217-3.357c2.657.794,6.681,2.2,7.759,3.712,1.655,2.3,6.681,5.518,6.681,5.518s9.372-.9,13.532-1.026A3.523,3.523,0,0,1,575.568,713.38Z" transform="translate(-303.513 -379.947)"/><path class="d" d="M501.555,214.033l-12.341,13.045s-14.956-1.1-12.346-5.518c1.329-2.251,1.537-6.96,1.418-11.055-.109-3.948-.515-7.31-.515-7.31s20.975-10.44,19.386-.7a16.022,16.022,0,0,0-.057,5.556C498,212.965,501.555,214.033,501.555,214.033Z" transform="translate(-265.97 -114.079)"/><path class="g" d="M498.487,202.491a16.022,16.022,0,0,0-.057,5.556,15.4,15.4,0,0,1-10.979,4.582c-2.837,0-5.906-2.331-8.2-3.679-.109-3.953-.132-5.754-.132-5.754S500.095,192.756,498.487,202.491Z" transform="translate(-267.318 -114.079)"/><path class="d" d="M494.953,176.943a15.457,15.457,0,1,1-5.816-12.076A15.457,15.457,0,0,1,494.953,176.943Z" transform="translate(-259.367 -94.654)"/><path class="g" d="M512.18,436.036c-3.849,9.159-28.606,9.348-28.606,9.348V435.4l-1.5-.1c.648,2.861-.908,9.835-.908,9.835-19.566,2.761-24.337-8.388-24.337-8.388l.681-3.816,15.244,1.357s37.065-2.492,38.725-.421a6.958,6.958,0,0,1,.7,2.17Z" transform="translate(-255.567 -237.748)"/><path class="h" d="M483.573,335.924v-9.986l-1.5-.095c.648,2.837-.908,9.835-.908,9.835-14.724,2.076-21.069-3.721-23.306-6.719a9.151,9.151,0,0,1-1.031-1.664l5.977-33.618,1.419-49.477,2.142-8.681.5-4.166v-.047h.052l1.523.653,9.111,3.939,10.35-7.816.151-.109.515-.392.856.686,2.128,1.707,6.823,44.063s11.821,33.926,14.034,47.619c.09.548.161,1.059.218,1.537C514.085,335.693,483.573,335.924,483.573,335.924Z" transform="translate(-255.567 -129.494)"/><circle class="i" cx="0.879" cy="0.879" r="0.879" transform="translate(222.209 106.498)"/><circle class="i" cx="0.879" cy="0.879" r="0.879" transform="translate(222.616 114.526)"/><circle class="i" cx="0.879" cy="0.879" r="0.879" transform="translate(223.495 127.524)"/><circle class="i" cx="0.879" cy="0.879" r="0.879" transform="translate(224.947 141.525)"/><circle class="i" cx="0.879" cy="0.879" r="0.879" transform="translate(225.826 154.67)"/><circle class="i" cx="0.879" cy="0.879" r="0.879" transform="translate(226.706 168.67)"/><circle class="i" cx="0.879" cy="0.879" r="0.879" transform="translate(226.356 182.519)"/><path class="g" d="M467.445,302.566s-.983,12.875-2.79,16.62-2.61,14.251-2.61,14.251l-4.194-.473a9.148,9.148,0,0,1-1.031-1.664l5.977-33.618,1.418-49.477,2.147-8.686.5-4.166.057-.024a1.693,1.693,0,0,1,1.494.024l.2.1q-.09.255-.17.525c-1.636,5.121-2.246,14.558-2.246,14.558s2.364,17.263,2.61,25.292S467.445,302.566,467.445,302.566Z" transform="translate(-255.562 -133.494)"/><path class="g" d="M449.082,436.257a2.422,2.422,0,0,1-.161.312c-1.627,2.747-5.75,4.492-7,4.969-.236-.421-.369-.667-.369-.667l.87-4.081,4.6-1.891a12.851,12.851,0,0,1,2.061,1.357Z" transform="translate(-247.512 -238.787)"/><path class="i" d="M423.25,298.81l-3.816,2.274-3.475,15.457s-4.35,13.112-1.007,22.478,5.286,14.729,5.286,14.729,1.338,10.639,3.348,11.509,2.875,1.338,2.875,1.338l.4,2.544s5.447-1.849,7.371-5.107-1.419-11.348-1.419-11.348-2.875-6.894-2.137-10.1-1.475-11.641-1.475-11.821a20.034,20.034,0,0,1,1.418-8.133c1.617-3.447.539-4.917.539-4.917l-1.007-9.835Z" transform="translate(-232.824 -167.044)"/><path class="g" d="M546.862,325.263s-10.1,3.811-13.315.473-2.88-19-2.88-19-3.073-28.9-5.017-33.651-.946-39.009-.946-39.009-1.3-4.43-2.445-5.589a1.242,1.242,0,0,0-.241-.194l.392.085,1.371.293,2.128,1.707,6.823,44.063s11.821,33.926,14.034,47.619Z" transform="translate(-289.933 -129.868)"/><path class="g" d="M585.068,432.506h-.113c-1.272.165-12.5,1.523-12.544-.813a6.855,6.855,0,0,1,.043-.809l10.4-1.064,2.062,2.118h0c.038.137.066.255.095.35Z" transform="translate(-316.497 -236.109)"/><path class="i" d="M574.3,266.07l7.376,3.849s6.147,15.915,7.13,22.738c0,0,4.553,18.28,1.418,25.8s-2.875,22.441-2.875,22.441-1.806,2.742-2.544,2.01.269,2.875.269,2.875-12.61,1.674-12.662-.8,2.894-14.317,2.894-14.317.8-28.167-.336-32.583S574.3,266.07,574.3,266.07Z" transform="translate(-316.497 -149.785)"/><path class="g" d="M523.136,329.52s-4.151,10.166-5.49,10.837.27,3.343.27,3.343S525.477,333.132,523.136,329.52Z" transform="translate(-287.347 -183.234)"/><path class="g" d="M517.39,254.094c.047-.194-4.951,4.9-6.289,5.674S515.986,259.721,517.39,254.094Z" transform="translate(-284.078 -143.469)"/><path class="g" d="M487.7,327.82s-7.627,4.932-6.62,6.884S487.7,327.82,487.7,327.82Z" transform="translate(-268.301 -182.337)"/><path class="g" d="M524.47,480.07a40.826,40.826,0,0,0,16.592,5.2Z" transform="translate(-291.225 -262.599)"/><path class="g" d="M491.5,501.3s6.019,7.565,8.766,7.759S491.5,501.3,491.5,501.3Z" transform="translate(-273.844 -273.791)"/><path class="g" d="M501.233,564c-.27.132-3.414,6.823-6.62,7.026S501.233,564,501.233,564Z" transform="translate(-275.146 -306.844)"/><path class="g" d="M568.33,594.779s5.967-1.338,7.3,2.941C575.626,597.706,575.224,596.368,568.33,594.779Z" transform="translate(-314.346 -322.966)"/><path class="g" d="M559.84,646.178s7.23-1.475,8.766.534S559.84,646.178,559.84,646.178Z" transform="translate(-309.871 -349.891)"/><path class="g" d="M508.675,654c0,.066-7.357,1.475-7.092,2.411s7.849.8,8.118-.671a1.419,1.419,0,0,0-1.026-1.74Z" transform="translate(-279.155 -354.29)"/><path class="g" d="M554.75,666.946s12.09-1.475,11.348,1.069S554.75,666.946,554.75,666.946Z" transform="translate(-307.187 -360.89)"/><path class="g" d="M420.89,352.44c.066.2,7.962,1.272,9.031,3.816,0,0-7.759-3.617-8.984-3.617" transform="translate(-236.621 -195.316)"/><path class="g" d="M437.563,396.16s-6.558,2.076-6.09,5.2S430.807,399.914,437.563,396.16Z" transform="translate(-242.187 -218.364)"/><path class="g" d="M437.92,426.774s2.388-3.277,4.662-2.676S437.92,426.774,437.92,426.774Z" transform="translate(-245.598 -233.054)"/><path class="g" d="M489.162,164.864a3.721,3.721,0,0,1-.766.572c-1.891,1.1-2.411,2.8-3.31,4.757-.837,1.792-1.759,3.688-3.447,4.7-2.18,1.314-5.05.832-7.315,1.976a5.674,5.674,0,0,0-3.026,5.594,16.136,16.136,0,0,0,.643,2.563,18.274,18.274,0,0,1,.69,5.565.949.949,0,0,1,0,.166,15.452,15.452,0,1,1,16.549-25.9Z" transform="translate(-259.392 -94.651)"/><path class="j" d="M480.156,150.214c-1.7-3.565-5.39-5.825-9.187-6.927a15.43,15.43,0,0,0-8.922-.189,32.731,32.731,0,0,0-4.667,2.189c-2.865,1.447-6.014,2.591-8.17,4.969a2.49,2.49,0,0,0-.818,2,5.573,5.573,0,0,0,.809,1.447,4.391,4.391,0,0,1,.043,3.636,33.36,33.36,0,0,0-1.333,3.494,3.676,3.676,0,0,0,.719,3.5,13.108,13.108,0,0,0,1.352.946,7.116,7.116,0,0,1,1.281,1.456l2.553,3.489a35.389,35.389,0,0,1,3.2,4.913,23.415,23.415,0,0,0,1.976,3.75,4.279,4.279,0,0,0,3.584,1.915.7.7,0,0,0,.567-.27.748.748,0,0,0,.071-.355,18.148,18.148,0,0,0-.676-5.546,16.012,16.012,0,0,1-.643-2.563,5.7,5.7,0,0,1,3.026-5.594c2.27-1.144,5.14-.662,7.315-1.972,1.693-1.021,2.615-2.917,3.447-4.728.913-1.958,1.418-3.655,3.31-4.757S481.1,152.091,480.156,150.214Z" transform="translate(-250.788 -84.654)"/><path class="g" d="M501.63,693.06s2.364,3.012,1.749,4.728S501.63,693.06,501.63,693.06Z" transform="translate(-279.184 -374.881)"/><path class="g" d="M569.28,704.4s.525-4.038,2.629-4.076,2.208-.218,3.816.4,3.116,1.579,2.634,1.721-2.766-2.307-5.111-1.054A16.886,16.886,0,0,0,569.28,704.4Z" transform="translate(-314.847 -378.68)"/><path class="g" d="M479.836,245.14l6.62-4.638s-9.684-5.721-10.837-4.917-1.948,8.038-1.948,8.038Z" transform="translate(-264.445 -133.673)"/><path class="k" d="M479.776,244.409l6.62-4.728s-9.684-5.721-10.837-4.917-1.948,8.435-1.948,8.435Z" transform="translate(-264.413 -133.24)"/><path class="l" d="M479.776,244.409l6.62-4.728s-9.684-5.721-10.837-4.917-1.948,8.435-1.948,8.435Z" transform="translate(-264.413 -133.24)"/><path class="i" d="M451.408,234.61l-.2-.1a1.716,1.716,0,0,0-1.858.194l-19.859,16.109s-4.317,5.972-3.716,16.275l11.712,16.592s1.338-5.617,2.941-4.549c0,0,2.274,28.772,0,32.918s-3.277,19.67-3.277,19.67l7.693.87s.8-10.506,2.61-14.251,2.79-16.62,2.79-16.62,1.627-18.705,1.357-26.734-2.61-25.292-2.61-25.292S449.649,239.575,451.408,234.61Z" transform="translate(-239.166 -133.049)"/><path class="g" d="M512.691,238.41l-8.251-3.054s10.506-11.509,11.821-5.125Z" transform="translate(-280.666 -129.874)"/><path class="k" d="M512.691,237.56l-8.251-3.055S514.946,223,516.261,229.38Z" transform="translate(-280.666 -129.426)"/><path class="l" d="M512.691,237.56l-8.251-3.055S514.946,223,516.261,229.38Z" transform="translate(-280.666 -129.426)"/><path class="g" d="M521.32,228.113a.473.473,0,0,1,.341.076Z" transform="translate(-289.564 -129.772)"/><path class="i" d="M523,226.421l21.892,4.728s6.024,1.338,10.374,16.459-5.958,33.647-5.958,33.647l-2.274-1.934,1.14,44.158s-10.1,3.811-13.315.473-2.875-19.017-2.875-19.017-3.078-28.9-5.021-33.651-.946-39-.946-39S524.229,226.156,523,226.421Z" transform="translate(-290.45 -128.878)"/><path class="g" d="M565.04,285.719c-.307.284-.667,13.646.671,23.816a129.781,129.781,0,0,0,3.783,18.332l-1.986-40.744S565.976,284.849,565.04,285.719Z" transform="translate(-312.461 -160.038)"/><path class="g" d="M559.7,261.6c.534.336,2.88,5.887,1.806,8.161S559.7,261.6,559.7,261.6Z" transform="translate(-309.797 -147.428)"/><path class="g" d="M493.221,153.17a12.085,12.085,0,0,0-4.813-5.04,11.447,11.447,0,0,1,3.608,4.255c.946,1.891.667,3.783-1.173,4.818s-2.411,2.8-3.31,4.757c-.837,1.792-1.759,3.688-3.452,4.728-2.175,1.314-5.045.827-7.315,1.972a5.712,5.712,0,0,0-3.026,5.6,16.076,16.076,0,0,0,.648,2.558,18.289,18.289,0,0,1,.69,5.565.746.746,0,0,1-.076.355.676.676,0,0,1-.563.27,3.258,3.258,0,0,1-1.65-.307,3.839,3.839,0,0,0,2.837,1.111.558.558,0,0,0,.634-.624,18.141,18.141,0,0,0-.686-5.565,15.522,15.522,0,0,1-.648-2.563,5.7,5.7,0,0,1,3.026-5.594c2.27-1.144,5.14-.662,7.315-1.972,1.693-1.021,2.615-2.917,3.447-4.728.913-1.958,1.418-3.655,3.31-4.757S494.167,155.047,493.221,153.17Z" transform="translate(-263.981 -87.61)"/><path class="m" d="M698.109,224.668c-6.516-.128-12.265-4.728-15.523-10.35a10.4,10.4,0,0,1-1.57-4.43,5.116,5.116,0,0,1,.18-1.059,11,11,0,0,0,.473-1.622,2.838,2.838,0,0,0,0-.662v-.038a3.912,3.912,0,0,0-1.419-3.182c-.87-.818-1.962-1.418-2.87-2.232-2.8-2.459-3.65-6.4-3.7-10.156v-.2c.033-1.608.161-3.22.147-4.828a20.326,20.326,0,0,0-.118-2.733,9.032,9.032,0,0,0-2.922-6.043c-4.662-3.783-12.5.156-17.329-3.419-1.173-.875-2.123-2.166-3.546-2.506a5.974,5.974,0,0,0-3.239.44c-3.556,1.173-7.523,2.714-8.913,6.147-.794,1.972-.572,4.222-1.3,6.218a31.05,31.05,0,0,1-2.033,3.754,5.877,5.877,0,0,0-.757,3.135,3.538,3.538,0,0,0,.232,1.669,4.255,4.255,0,0,0,1.159,1.66,5.511,5.511,0,0,1-.69,1.106c-.908,1.111-2.3,1.891-3.248,3-1.75,2.028-1.683,4.785-.823,7.168s2.416,4.553,3.489,6.875a3.689,3.689,0,0,1,.355,3.135,8.987,8.987,0,0,1-1.57,1.825,5.736,5.736,0,0,0-1.419,3.168c-10.643,2.43-10.653,10.984-10.653,10.984h0l-5.75,14.459s-.922,2.435-2,5.65l-6.8-1.22,4.728,7.915c-.894,3.225-1.527,6.213-1.319,7.717,0,0-2.113,9.929,1.645,11.665l8.293,3.731a4.913,4.913,0,0,0,1.149.515l.336.151a.889.889,0,0,0,.775,0h.114a1.116,1.116,0,0,0,.473-.071.946.946,0,0,0,.416-.449.141.141,0,0,1,0-.047l2.482-.719,2.1,2.492c.946.667,1.891,1.244,2.785,1.764l-3.258,32.351s-.525,43.028-2.114,52.834a27.465,27.465,0,0,0-.369,7.792l-.061.1c.392,2.766,1.419,3.31,1.419,3.31V381.4a.309.309,0,0,0,.061.038,27.867,27.867,0,0,1,1.7-3.65v.709c-.033,3.65-.147,8.762-.525,12.086-.643,5.674,1.645,24.374,1.645,24.374l.79,17.022a15.735,15.735,0,0,1-1.939,8.293c-1.891,3.4-4.307,8.185-4.482,10.308a2.116,2.116,0,0,0,0,.345h0l-4.057,4.88s-1.584,2.449,2,3.438c1.924.534,5.244,0,7.91-.629a5.286,5.286,0,0,0,4.1-5.144,18.2,18.2,0,0,1,3.348-6.426l.667,3.92,4.464,1.106.572-10.743a4.729,4.729,0,0,0,.307-1.891h0c.879-7.641-2.071-6.955-2.071-6.955a.411.411,0,0,1,.142.265l-.142-.26h0c-1.811-3.575-.946-9.457-.946-9.457s2.364-17.022,3.173-21.518c.582-3.177.34-13.58.147-19.386a6.927,6.927,0,0,0-.024-.7c6.922-.09,15.4-.322,21.358-.9v.7l-1.1,40.214a22.076,22.076,0,0,1-1.541,7.48.409.409,0,0,1-.052.137,32.626,32.626,0,0,0-2.18,10.539l-.511,12.766v.355h0c-.889.34-2.293,1.329-2.331,4.194-.062,4.2,7.338,2.8,7.338,2.8,7.4,0,7.457-7.7,7.457-7.7s.232-7.059.586-11.783-1.116-3.683-1.116-3.683l-.113,13.438V438.3l.113-1.707v-.047h0v-.364l.931-13.859s6.813-23.093,7.868-27.523c.752-3.149.44-12.634.194-17.878a4.18,4.18,0,0,0-.038-.7c2.113-.189,3.981-.208,4.728-.208h.345s-.35-37.089-1.234-51.066-2.289-26.767-5.811-30.616c-2.128-2.326-5.092-9.509-7.092-14.828a74.17,74.17,0,0,0,13.036,4.255c11.154,2.336,9.627-7.348,9.627-7.348l-1.13-18.313h.076a93.392,93.392,0,0,0-1.229-14.317,42.127,42.127,0,0,0-2.875-10.4c1.21-.473,2.407-.979,3.579-1.5,3.031-1.338,6.445-3.234,6.88-6.5H698a4.22,4.22,0,0,0,.114-.719Zm-69.142,26.478h0c.024,1.891-.047,5.173-.161,8.8l-3.542-4.728,3.551-5.759ZM676.42,260.749ZM677.9,267.9l-5.9-1.891a26.475,26.475,0,0,1,3.646-4.511l.511-.473-.184.038.284-.26.17-.038-.27.26.321-.066a10.066,10.066,0,0,0,2.01,4.043c2.118,2.312-.582,2.9-.582,2.9Z" transform="translate(-334.173 -99.73)"/><path class="n" d="M644.439,715.66l-.69,13.088-4.4-1.1-.927-5.442Z" transform="translate(-336.562 -377.272)"/><path class="g" d="M644.439,715.66l-.69,13.088-4.4-1.1-.927-5.442Z" transform="translate(-336.562 -377.272)"/><path class="o" d="M716.48,674.052l6.714,1.39,4.979-4.4V658.652l.113-1.693v-.052h0v-.359l.927-13.774s6.719-22.928,7.764-27.33c.738-3.121.43-12.539.184-17.745-.1-2.132-.184-3.56-.184-3.56l-14.823-3.589-.312,11.4-1.083,39.926a22.126,22.126,0,0,1-1.518,7.428l-.052.137a32.489,32.489,0,0,0-2.151,10.459l-.5,12.7v.35Z" transform="translate(-392.447 -320.841)"/><path class="g" d="M741.45,730.139v.35h0v-.359Z" transform="translate(-405.61 -394.423)"/><path class="g" d="M716.48,762.622l6.714,1.39,4.979-4.4V758.56a1.419,1.419,0,0,1-.714,1.135l-.071.043a13.381,13.381,0,0,1-7.537,1.489L717.232,761a2.455,2.455,0,0,0-.7.17v.35Z" transform="translate(-392.447 -409.41)"/><path class="f" d="M724.868,745.387l.071-.038a1.418,1.418,0,0,0,.723-1.229l.109-13.339s1.447-1.036,1.1,3.655-.577,11.7-.577,11.7-.057,7.641-7.352,7.641c0,0-7.3,1.39-7.239-2.78s3.012-4.341,3.012-4.341l2.62.227A13.348,13.348,0,0,0,724.868,745.387Z" transform="translate(-389.927 -394.715)"/><path class="o" d="M642.52,676.086c.17,3.012,9.031,1.272,9.031,1.272l5.962-11.575s4.979-3.825,2.487-7.182a5.362,5.362,0,0,1-.364-.572l-.024-.028h0c-.052-.085-.1-.175-.147-.27h0c-1.787-3.546-.908-9.362-.908-9.362S660.87,631.46,661.684,627c.572-3.149.336-13.48.147-19.258-.076-2.4-.147-4.014-.147-4.014l-14.71-3.939v4.388c-.033,3.627-.147,8.7-.52,12-.634,5.613,1.622,24.2,1.622,24.2l.78,16.913a15.664,15.664,0,0,1-1.891,8.232c-1.844,3.376-4.255,8.133-4.421,10.237a2.076,2.076,0,0,0-.024.326Z" transform="translate(-353.457 -325.712)"/><path class="g" d="M642.515,741.017c.17,3.012,9.031,1.272,9.031,1.272l5.962-11.575s4.979-3.825,2.487-7.182a5.367,5.367,0,0,1-.364-.572c-.08,1.754-2,6.147-2,6.147s-4.922,9.849-6.487,12.1-8.364-.421-8.62-.515a2.072,2.072,0,0,0,0,.322Z" transform="translate(-353.453 -390.643)"/><path class="f" d="M654.563,722.283s2.913-.676,2.043,6.908h0a4.884,4.884,0,0,1-2.3,4.336,16.558,16.558,0,0,0-6.927,9.608h0a5.239,5.239,0,0,1-4.043,5.107c-2.629.615-5.906,1.154-7.8.624-3.532-.984-1.967-3.414-1.967-3.414l4.052-4.809s7.064,2.78,8.624.52,6.487-12.1,6.487-12.1S655.428,722.921,654.563,722.283Z" transform="translate(-348.554 -390.278)"/><path class="g" d="M728.132,593.52l-.312,11.4c3.948-.383,6.776-.917,7.258-1.669,1.045-1.617,4.837-2.3,8.062-2.577-.1-2.132-.184-3.56-.184-3.56Z" transform="translate(-398.425 -322.406)"/><path class="g" d="M651.94,607.108a5.409,5.409,0,0,1,1.622-1.958c1.56-.865,1.39,5.56,1.39,5.56s5.2.047,11.844-.038c-.076-2.4-.147-4.019-.147-4.019l-14.71-3.934S651.968,604.545,651.94,607.108Z" transform="translate(-358.423 -327.256)"/><path class="e" d="M646.681,495.526s1.74-4.728,3.31-5.57,1.39,5.556,1.39,5.556,38.214.35,40.124-2.605,13.026-2.78,13.026-2.78-.345-36.824-1.215-50.716-2.255-26.578-5.731-30.4c-2.246-2.473-5.442-10.473-7.419-15.807-1.073-2.913-1.787-5.036-1.787-5.036l-36.474,2.08-.3,2.955-3.872,38.734s-.52,42.73-2.085,52.456S646.681,495.526,646.681,495.526Z" transform="translate(-354.843 -214.152)"/><g class="p" transform="translate(290.349 174.018)"><path d="M697.868,492.907c1.891-2.95,13.026-2.78,13.026-2.78s-.345-36.824-1.215-50.716-2.255-26.578-5.731-30.4c-2.255-2.482-5.442-10.473-7.419-15.807-.9-2.449-1.551-4.336-1.731-4.875l2.837-.161s.714,2.123,1.792,5.036c1.976,5.334,5.168,13.334,7.414,15.807,3.475,3.82,4.865,16.5,5.731,30.4s1.22,50.716,1.22,50.716-11.116-.17-13.031,2.78c-1.631,2.52-29.75,2.638-37.911,2.615C673.323,495.5,696.393,495.186,697.868,492.907Z" transform="translate(-654.523 -388.17)"/><path d="M647.07,603.349c.7-.393,1.054.7,1.229,2.014a27.269,27.269,0,0,0-1.641,3.556s-1.007-.544-1.418-3.31A6.435,6.435,0,0,1,647.07,603.349Z" transform="translate(-645.24 -501.563)"/></g><path class="j" d="M664.12,193.915c-2.525,3.442.028,8.336-2.681,11.684-.894,1.106-2.27,1.891-3.2,2.979-1.726,2.014-1.66,4.752-.813,7.116s2.364,4.52,3.442,6.828a3.653,3.653,0,0,1,.35,3.111,8.815,8.815,0,0,1-1.551,1.811,6.531,6.531,0,0,0-.851,6.932,22.435,22.435,0,0,0,4.487,6.194,3.063,3.063,0,0,0,4.449,1.017,17.5,17.5,0,0,0,7.962-22.833c-1.466-3.513-3.91-6.88-3.934-10.591,0-2.946,1.513-5.759,1.783-8.691.326-3.565-1.783-9.225-6.085-10.781C667.761,190.978,665.4,192.146,664.12,193.915Z" transform="translate(-361.01 -108.992)"/><path class="g" d="M664.12,193.915c-2.525,3.442.028,8.336-2.681,11.684-.894,1.106-2.27,1.891-3.2,2.979-1.726,2.014-1.66,4.752-.813,7.116s2.364,4.52,3.442,6.828a3.653,3.653,0,0,1,.35,3.111,8.815,8.815,0,0,1-1.551,1.811,6.531,6.531,0,0,0-.851,6.932,22.435,22.435,0,0,0,4.487,6.194,3.063,3.063,0,0,0,4.449,1.017,17.5,17.5,0,0,0,7.962-22.833c-1.466-3.513-3.91-6.88-3.934-10.591,0-2.946,1.513-5.759,1.783-8.691.326-3.565-1.783-9.225-6.085-10.781C667.761,190.978,665.4,192.146,664.12,193.915Z" transform="translate(-361.01 -108.992)"/><path class="g" d="M700.558,464.55c-5.054.265-9.811,2.44-14.237,4.9s-8.71,5.244-13.471,6.988" transform="translate(-369.446 -254.417)"/><path class="g" d="M698.357,489.74a20.837,20.837,0,0,0-13.121,6.383c-1.229,1.3-2.289,2.757-3.57,4a15.858,15.858,0,0,1-7.036,3.986" transform="translate(-370.385 -267.697)"/><path class="g" d="M695.1,508.91a22.942,22.942,0,0,0-10.554,6.364c-.775.837-1.48,1.731-2.255,2.568-4.185,4.492-10.095,6.875-15.8,9.13" transform="translate(-366.093 -277.803)"/><path class="o" d="M703.722,242.788a103.769,103.769,0,0,0,1.04,12.067c.473,2.837,1.135,5.39,2.085,6.52,2.78,3.31-13.547,7.731-13.547,7.731l-9.641-7.471s7.641-7.036,4.081-13.9S703.722,242.788,703.722,242.788Z" transform="translate(-375.145 -137.382)"/><path class="g" d="M658.79,393.206h38.559c-1.073-2.913-1.787-5.036-1.787-5.036l-36.474,2.08Z" transform="translate(-362.034 -214.152)"/><path class="h" d="M645.147,331.4h41.226a14.3,14.3,0,0,1,1.65-10.932,24.162,24.162,0,0,1,4.317-5.6l.284-.26,14.393-3.187.775-.17s.118-26.171-9.149-29.765a54.18,54.18,0,0,1-14.823-8.449l-12.733,3.934-9.381-4.728c-3.012,3.239-11,1.967-11,1.967-13.083,1.5-13.083,11.348-13.083,11.348s7.641,17.83,8.222,17.83S645.147,331.4,645.147,331.4Z" transform="translate(-350.874 -153.037)"/><path class="g" d="M671.078,356.451s-8.407-1.863-11.268-5.121" transform="translate(-362.572 -194.731)"/><path class="g" d="M762.42,341.51l-9.75,7.991a16.607,16.607,0,0,0,.321,1.891l.284-.26,14.393-3.187Z" transform="translate(-411.525 -189.554)"/><path class="g" d="M717.46,378.818s2.132,1.2,5.4,2.78h5.6a14.3,14.3,0,0,1,1.65-10.932l-9.877-3.2C723.6,370.6,717.46,378.818,717.46,378.818Z" transform="translate(-392.963 -203.24)"/><path class="h" d="M630.491,293.76l-5.787,3.125-5.674,14.36s-5.906,15.745-5.329,19.916c0,0-2.08,9.844,1.622,11.58l9.646,4.369a.9.9,0,0,0,1.158-1.239c-1.376-2.605-2.889-6.681-.473-8.922l-2.78-5.788,10.048-16.445,3.357-5.674Z" transform="translate(-337.957 -164.382)"/><path class="g" d="M677.006,350.762c.5,2.043,2.194,5.2,7.8,6.378l6.147,5.036,6.539,2.965,2.667,1.206,1.13-8.166-2.568-1.418-2.993-1.636s-6.752-12.232-17.443-7.092A2.364,2.364,0,0,0,677.006,350.762Z" transform="translate(-371.597 -192.329)"/><path class="o" d="M677.757,349.323c.5,2.047,2.189,5.2,7.792,6.379l6.147,5.036,6.544,2.965,2.662,1.206,1.13-8.166-2.567-1.418L696.5,353.7s-6.757-12.232-17.447-7.069a2.364,2.364,0,0,0-1.291,2.69Z" transform="translate(-371.999 -191.585)"/><circle class="g" cx="14.937" cy="14.937" r="14.937" transform="translate(302.869 86.123)"/><circle class="o" cx="14.937" cy="14.937" r="14.937" transform="translate(302.869 85.778)"/><path class="g" d="M717.872,283.626,713.38,274.9s6.572-2.657,7.05-5.735,6.3,3.608,5.04,5.825S717.872,283.626,717.872,283.626Z" transform="translate(-390.812 -150.995)"/><path class="l" d="M717.872,282.157l-4.492-8.728s6.572-2.657,7.05-5.735,6.3,3.612,5.04,5.825S717.872,282.157,717.872,282.157Z" transform="translate(-390.812 -150.221)"/><path class="q" d="M625.161,343.244l24.819,33.368s-9.149,4.979-21.75-3.934l-5.442-6.487L607.25,340Z" transform="translate(-334.864 -188.758)"/><path class="o" d="M634.151,375.646l2.26-.061s13.807-13.4,17.2-6.62-8.6,13.116-8.6,13.116l-3.646,1.967-4.752,1.419-3.04-4.081Z" transform="translate(-348.739 -203.018)"/><path class="g" d="M634,390.884a3.373,3.373,0,0,1,.057,2.336.945.945,0,0,1-.411.449,1.054,1.054,0,0,1-.473.066,4.752,4.752,0,0,1-3.116-1.541,14.23,14.23,0,0,1-2.019-2.922,5.39,5.39,0,0,1-1.036-3.48c.246-1.329,1.418-2.251,2.567-3,2.289-1.513,2.364.251,2.865,2.2S633.474,388.918,634,390.884Z" transform="translate(-345.253 -211.018)"/><path class="l" d="M633.268,390.884a3.4,3.4,0,0,1,.057,2.336.946.946,0,0,1-.411.449,1.063,1.063,0,0,1-.473.066,4.729,4.729,0,0,1-3.116-1.541,14.065,14.065,0,0,1-2.024-2.922,5.358,5.358,0,0,1-1.031-3.48c.241-1.329,1.418-2.251,2.563-3,2.293-1.513,2.364.251,2.87,2.2S632.738,388.918,633.268,390.884Z" transform="translate(-344.867 -211.018)"/><path class="g" d="M623.85,315.763,625,313.81,624,317.437Z" transform="translate(-328.882 -165.429)"/><path class="g" d="M721.19,374.809l2.662,1.206,1.13-8.166-2.567-1.418C724.188,368.463,722.637,372.222,721.19,374.809Z" transform="translate(-394.93 -202.691)"/><path class="g" d="M730.136,362.07s-8.6.525-12.246-1.82" transform="translate(-393.19 -199.434)"/><g class="p" transform="translate(299.281 119.883)"><path d="M737.26,322.82a24.2,24.2,0,0,1,4.317-5.6,11.52,11.52,0,0,1,1.272-.69l13.4-2.752.775-.17s.118-26.171-9.145-29.765a55.661,55.661,0,0,1-14.45-8.137l1.017-.312a54.036,54.036,0,0,0,14.823,8.449c9.267,3.589,9.145,29.765,9.145,29.765h-1.39l-13.712,2.624s-.591.572-.771.738a26.574,26.574,0,0,0-4.383,5.8,14.535,14.535,0,0,0-1.149,10.989h-1.418A14.453,14.453,0,0,1,737.26,322.82Z" transform="translate(-700.663 -274.581)"/><path d="M664.13,277.9c.222-.033.435-.066.667-.09a23.971,23.971,0,0,0,2.837.232,25.785,25.785,0,0,1-3.5-.142Z" transform="translate(-664.13 -275.857)"/><path d="M696.243,278.422l-8.482-4.293a4.485,4.485,0,0,0,.473-.449l8.851,4.478Z" transform="translate(-676.587 -273.68)"/></g><path class="l" d="M744.579,340l5.674,6.951,1.158,18.875s1.5,9.608-9.495,7.291-23.727-9.476-23.727-9.476,6.147-8.223,2.78-11.348l15.75,5.1s2.662-.582.577-2.894-2.454-6.487-2.454-6.487Z" transform="translate(-393.348 -188.758)"/><path class="g" d="M779.42,382.17l3.125,3.589a4.506,4.506,0,0,1-3.125-3.589Z" transform="translate(-425.627 -210.989)"/><path class="g" d="M736.99,360.8l4.865,6.251-2.43.582Z" transform="translate(-388.526 -190.201)"/><path class="g" d="M665.306,195.652a4.989,4.989,0,0,1,.52-4.071,32.147,32.147,0,0,0,2.009-3.731c.714-1.976.5-4.213,1.277-6.147,1.376-3.428,5.286-4.96,8.79-6.147a5.91,5.91,0,0,1,3.2-.435c1.419.336,2.341,1.622,3.5,2.487,4.757,3.546,12.492-.359,17.093,3.395a8.947,8.947,0,0,1,2.88,6,52.93,52.93,0,0,1-.028,6.818c-.076,3.981.671,8.336,3.65,10.974.9.794,1.958,1.39,2.837,2.213a3.874,3.874,0,0,1,1.419,3.163,10.979,10.979,0,0,1-.473,1.608c-.591,2.076.293,4.255,1.371,6.147,3.215,5.565,8.884,10.152,15.31,10.279-.43,3.244-3.783,5.125-6.785,6.454-3.783,1.7-7.811,3.362-11.977,3.149s-8.511-2.88-9.239-6.984c-.251-1.418-.217-3.125-1.418-3.863-.738-.449-1.693-.336-2.487-.671-1.149-.473-1.716-1.764-2.095-2.95a26.557,26.557,0,0,1-1.234-7.565c-.052-3.045.35-6.369-1.376-8.875-1.6-2.322-4.435-3.5-6.279-5.631-1.7-1.976-3.551-4.359-6.341-4.728C675.566,195.992,667.585,201.236,665.306,195.652Z" transform="translate(-365.34 -101.793)"/><path class="j" d="M665.306,194.182a4.989,4.989,0,0,1,.52-4.071,32.144,32.144,0,0,0,2.009-3.731c.714-1.976.5-4.213,1.277-6.147,1.376-3.433,5.286-4.965,8.79-6.147a5.91,5.91,0,0,1,3.2-.435c1.419.336,2.341,1.622,3.5,2.487,4.757,3.546,12.492-.359,17.093,3.395a8.948,8.948,0,0,1,2.88,6,52.854,52.854,0,0,1-.028,6.814c-.076,3.981.671,8.336,3.65,10.974.9.794,1.958,1.39,2.837,2.213a3.874,3.874,0,0,1,1.419,3.163,10.978,10.978,0,0,1-.473,1.608c-.591,2.076.293,4.255,1.371,6.147,3.225,5.546,8.87,10.147,15.3,10.275-.43,3.244-3.783,5.125-6.785,6.459-3.783,1.693-7.811,3.357-11.977,3.144s-8.511-2.88-9.239-6.984c-.251-1.418-.218-3.125-1.418-3.863-.738-.449-1.693-.336-2.487-.671-1.149-.473-1.716-1.764-2.095-2.95a26.529,26.529,0,0,1-1.234-7.565c-.052-3.045.35-6.369-1.376-8.875-1.6-2.322-4.435-3.5-6.279-5.631-1.7-1.976-3.551-4.359-6.341-4.728C675.566,194.522,667.585,199.775,665.306,194.182Z" transform="translate(-365.34 -101.018)"/><path class="g" d="M684.715,283.027l8.563-6.951s-5.863-3.177-6.563-5.887-5.39,1.286-4.913,3.716S684.715,283.027,684.715,283.027Z" transform="translate(-374.147 -151.478)"/><path class="l" d="M685.457,280.822l8.563-6.946s-5.863-3.177-6.535-5.887-5.39,1.286-4.913,3.716S685.457,280.822,685.457,280.822Z" transform="translate(-374.554 -150.319)"/><circle class="g" cx="0.681" cy="0.681" r="0.681" transform="translate(319.121 128.692)"/><circle class="g" cx="0.681" cy="0.681" r="0.681" transform="translate(319.121 132.475)"/><circle class="g" cx="0.681" cy="0.681" r="0.681" transform="translate(319.121 136.253)"/><g class="p" transform="translate(299.828 77.693)"><path d="M671.9,190.266c.676-1.858.53-3.943,1.163-5.816a6.356,6.356,0,0,0-.723,1.333c-.785,1.953-.563,4.189-1.281,6.147l-.047.113a10.8,10.8,0,0,0,.889-1.778Z" transform="translate(-668.304 -184.45)"/><path d="M722.9,248.674c-3.783,1.693-7.811,3.357-11.977,3.144s-8.511-2.88-9.239-6.979c-.251-1.418-.218-3.13-1.418-3.868-.738-.449-1.693-.336-2.487-.671-1.149-.473-1.716-1.764-2.095-2.95a26.531,26.531,0,0,1-1.234-7.565c-.052-3.04.355-6.364-1.371-8.875-1.6-2.322-4.44-3.494-6.284-5.631-1.7-1.972-3.551-4.36-6.341-4.728-3.825-.52-11.821,4.728-14.081-.861a4.4,4.4,0,0,1,.147-3.229c-.165.279-.326.558-.473.842a5.009,5.009,0,0,0-.515,4.076c2.274,5.579,10.256.336,14.081.861,2.79.378,4.638,2.766,6.341,4.728,1.844,2.137,4.681,3.31,6.279,5.636,1.731,2.506,1.324,5.83,1.376,8.87a26.529,26.529,0,0,0,1.234,7.565,4.392,4.392,0,0,0,2.095,2.95c.794.336,1.749.227,2.487.671,1.22.738,1.187,2.463,1.418,3.868.738,4.1,5.078,6.766,9.239,6.979s8.171-1.447,11.977-3.144c2.742-1.22,5.8-2.908,6.62-5.674C727.367,246.485,725.04,247.724,722.9,248.674Z" transform="translate(-665.288 -196.053)"/></g><path class="r" d="M862.834,292.957c-10.01-5.759-13.792-7.178-13.811-7.178l-.208-.147a8.326,8.326,0,0,1-2.52-3.187,6.62,6.62,0,0,1,0-.686.279.279,0,0,0,0,.066c.156-3.05,2.326-5.825,4.383-8.246l5.263-6.189a6.1,6.1,0,0,0,1.357-2.147,4.955,4.955,0,0,0,.142-1.319v-.539c-.028-1.537-.071-3.078-.128-4.615-.047-1.343-.392-3.036-1.735-3.31-.7-.142-1.627.109-2-.473a1.149,1.149,0,0,1-.09-.8.273.273,0,0,0,0,.066v-.076a17.812,17.812,0,0,0,.5-3.163,4.312,4.312,0,0,0-.218-1.6c-.776-2.227-3.456-3.144-5.825-3.565s-5.026-.78-6.511-2.634a19.255,19.255,0,0,0-1.3-1.783,5.111,5.111,0,0,0-2.421-1.2,13.712,13.712,0,0,0-8.809.766,7.906,7.906,0,0,1-3.551,1.125c-1.258-.076-2.421-.983-3.707-1.2-2.08-.355-4.071,1.173-5.1,2.984a7.3,7.3,0,0,0-.946,3.518v.208h0a5.144,5.144,0,0,0,1.352,3.594c.9.946,2.232,1.57,2.605,2.794.151.5.114,1.036.251,1.541a1.373,1.373,0,0,0,.057.184l-.066.09a15.6,15.6,0,0,0-3.31,9.617,15.963,15.963,0,0,0,11.215,15.131c0,.156,0,.312,0,.473a6.8,6.8,0,0,1-2.175,5.3l-14.18,5.665S802.808,291,799.725,303.5a21.3,21.3,0,0,0-.529,6.336,18.368,18.368,0,0,1-2.364,9.49c-3.5,6.866-2.7,22.625,4.464,24.185,6.766,1.475,9.414.861,9.693.79v.274c-.114,2.96-1.187,28.464-5.088,31.547-1.078.856-.879,1.418,0,1.82,0,0,0,.165-.024.473-.118,1.891-.719,8.984-3.31,13.012-3.031,4.681-2.714,31.68-2.714,31.68l-2.066,15.915s1.272,9.83,0,11.547c-1.14,1.527-2.653,37.893-2.969,45.779h-.133a3.839,3.839,0,0,0-3.064,1.891c-1.674,2.719-7.537,7.745-7.537,7.745-1.272,1.806-5.977,3.537-8.464,4.35a5.256,5.256,0,0,0-.946.416A5.046,5.046,0,0,0,772.538,513a2.416,2.416,0,0,0-.227,1.891c.634,1.556,13.859,2.653,17.206,1.087,2.629-1.225,13.05-2.837,17.376-3.471a3.565,3.565,0,0,0,3.092-3.092,2.038,2.038,0,0,0-.4-1.546h0c-.827-1.026-1.248-3.83-1.418-5.674a3.836,3.836,0,0,0,.974-.577,41.539,41.539,0,0,1,2.364-16.7c3.187-8.426,4.142-24.029,3.348-34.171,0,0,9.717-41.817,17.367-45.718h0c.118.151,3.83,4.913,4.3,19.66.473,14.979,5.891,24.809,5.891,24.809s-2.393,25.434,0,34.952l-3.125,15.012c-.232-.194-.378-.345-.378-.345s.095.416.222,1.083l-.066.322.137.028a29.545,29.545,0,0,1,.662,7.092c-.123,1.092-.43,2.591-.638,4.062-.331,2.312-.421,4.553.794,5.045,2,.8,13.712,1.891,15.7-.681a3.683,3.683,0,0,0,.577-3.854,3.9,3.9,0,0,0-.577-.984s-3.111-5.083-2.232-8.667a2.638,2.638,0,0,0-.374-2.057A105.7,105.7,0,0,1,855.8,483.7c2-7.509,6.2-23.973,3.107-34.8h0q-.175-.638-.4-1.248a46.733,46.733,0,0,1-1.754-18.256,37.206,37.206,0,0,1,0-15.915c1.915-8.738,3.253-17.32,3.253-17.32s1.054-11.547.132-18.625a4.658,4.658,0,0,0-.061-.473l.5-.113s-2.709-12.015-3.664-19.66c-.227-1.806-.52-4.09-.842-6.53a16.67,16.67,0,0,0,2.6-.648c8.6-2.965,11.31-29.788,11.31-29.788v-8.511S872.872,298.73,862.834,292.957Zm-64.1,207.213c-.265-.132-.421-.222-.421-.222h0Z" transform="translate(-421.827 -135.956)"/><path class="s" d="M883.52,594.693c3.731,10.729-.624,28.143-2.648,35.935a108.631,108.631,0,0,0-2.643,17.107,36.026,36.026,0,0,1-13.684-.312l3.267-16.015c-2.336-9.485,0-34.833,0-34.833s-5.286-9.8-5.754-24.724c-.473-14.691-4.081-19.443-4.194-19.589h0c-7.461,3.887-16.946,45.562-16.946,45.562.775,10.1-.161,25.656-3.267,34.044a42.082,42.082,0,0,0-2.331,16.634,5.059,5.059,0,0,1-4.256.813c-4.44-.719-9.764-4.544-9.764-4.544s1.707-45.392,2.955-47.113,0-11.509,0-11.509l2.019-15.859s-.312-26.9,2.643-31.566c2.553-4.029,3.14-11.111,3.253-12.97v-.473l4.5-5.39s43.538-3.267,46.81,0c.8.8,1.3,2.624,1.589,4.917.9,7.055-.132,18.559-.132,18.559s-1.305,8.553-3.173,17.258a37.884,37.884,0,0,0,0,15.864A47.487,47.487,0,0,0,883.52,594.693Z" transform="translate(-447.705 -282.826)"/><path class="n" d="M928.827,802.472c-1.943,2.568-13.372,1.48-15.32.681-1.187-.473-1.1-2.728-.776-5.031.2-1.461.5-2.955.624-4.043.307-2.8-.946-8.478-.946-8.478s2.563,2.723,3.182,0a2.965,2.965,0,0,1,2.222-2.109,5.806,5.806,0,0,1,4.038.251c2.019.88,5.386,2.747,4.785,5.272-.856,3.57,2.175,8.639,2.175,8.639a3.939,3.939,0,0,1,.567.974,3.731,3.731,0,0,1-.553,3.844Z" transform="translate(-495.735 -422.423)"/><path class="g" d="M928.952,819.06c-1.943,2.567-13.372,1.48-15.32.681-1.187-.473-1.1-2.728-.775-5.031,1.229.577,3.31,1.054,6.794.733a19.159,19.159,0,0,1,2.445-.076,56.857,56.857,0,0,0,7.423-.151A3.731,3.731,0,0,1,928.952,819.06Z" transform="translate(-495.861 -439.011)"/><path class="g" d="M851.794,632.144c.775,10.1-.161,25.656-3.267,34.044a42.082,42.082,0,0,0-2.331,16.634,5.058,5.058,0,0,1-4.255.813c.946-6.558,4.936-34.814,7.494-57.142a93.5,93.5,0,0,1,16.549-42.914l2.719,2.993C861.279,590.469,851.794,632.144,851.794,632.144Z" transform="translate(-458.585 -317.166)"/><path class="t" d="M901.928,319.848l-1.891,9.329-9.3,15.627-11.466-4.9s-15.6-16.327-5.792-18.658a8.682,8.682,0,0,0,3.253-1.447,6.727,6.727,0,0,0,2.539-5.627,17.251,17.251,0,0,0-1.579-6.686l20.057-6.3a32.2,32.2,0,0,0-1.418,8.123c-.156,5.466,1.891,8.156,3.542,9.457A6.025,6.025,0,0,0,901.928,319.848Z" transform="translate(-473.504 -168.299)"/><path class="g" d="M906.038,301.19a32.189,32.189,0,0,0-1.418,8.123,15.261,15.261,0,0,1-1.168,1.244,15.868,15.868,0,0,1-15.859,3.617A17.246,17.246,0,0,0,886,307.488Z" transform="translate(-481.812 -168.299)"/><path class="t" d="M897.877,278.079a15.788,15.788,0,1,1-4.625-11.236,15.863,15.863,0,0,1,4.625,11.236Z" transform="translate(-471.348 -147.755)"/><path class="g" d="M901.928,339.432l-1.891,9.329-9.3,15.627-11.466-4.9s-15.6-16.327-5.792-18.658a8.68,8.68,0,0,0,3.253-1.447c-1.768,4.861,5.532,14.975,5.532,14.975.851,1.253,2.8.473,2.8.473,4.7-.714,13.362-14.242,14.776-16.492a6.024,6.024,0,0,0,2.09,1.092Z" transform="translate(-473.504 -187.883)"/><path class="g" d="M897.249,524.807c-2.761.629-18.038,4.01-23.831,3.163-6.374-.946-18.767-1.551-18.767-1.551s-7.891.426-10.322-.686v-.473l4.5-5.39s43.538-3.267,46.81,0C896.459,520.689,896.956,522.514,897.249,524.807Z" transform="translate(-459.845 -282.815)"/><path class="h" d="M856.541,354.991s-8.2-11.348-5.111-15.793l-13.859,5.674s-8.341-1.012-11.348,11.438a21.659,21.659,0,0,0-.515,6.317,18.689,18.689,0,0,1-2.284,9.457c-3.419,6.842-2.643,22.549,4.355,24.114s9.48.775,9.48.775-.946,28.455-4.974,31.722,10.308,2.487,10.308,2.487,12.393.624,18.771,1.556,24.256-3.267,24.256-3.267-2.643-11.972-3.579-19.589-3.116-23.845-3.116-23.845l15.859-21.485s2.8-12.984-7-18.738-13.48-7.163-13.48-7.163-9.844,16.029-14.975,16.8C859.34,355.454,857.392,356.239,856.541,354.991Z" transform="translate(-447.786 -188.047)"/><path class="g" d="M854.233,382.74s-.151,5.135.78,7.154,4.355,13.239,4.355,13.239H851.59s4.2-4.511,3.891-6.691S854.233,382.74,854.233,382.74Z" transform="translate(-463.673 -211.29)"/><path class="t" d="M878.231,440.333s-17.173-4.2-18.771-7.773-6.01-11.58-6.01-11.58l1.811-2.44,8.35,6.553s9.929,7.929,14.62,8.71S878.231,440.333,878.231,440.333Z" transform="translate(-464.653 -230.162)"/><path class="u" d="M878.231,440.333s-17.173-4.2-18.771-7.773-6.01-11.58-6.01-11.58l1.811-2.44,8.35,6.553s9.929,7.929,14.62,8.71S878.231,440.333,878.231,440.333Z" transform="translate(-464.653 -230.162)"/><path class="t" d="M902.672,421.765v9.315h-1.494a43.542,43.542,0,0,0-21.153,5.48l-2.8,1.551-.752.421-4.823-10.875,4.511-4.043h.232c1.1.109,5.872.506,7.9-.175,1.92-.652,4.3-2.719,9.958-1.277,2.785.714,5.168,3.835,7.868,2.861Z" transform="translate(-474.247 -231.808)"/><path class="g" d="M931.249,374.216l3.107,3.5v8.478s-2.643,26.743-11.036,29.7-23.386-1.712-23.386-1.712-3.872-10.26-2.062-10.875,16.005-4.369,16.005-4.369-.2-15.689,2.908-20.355c0,0-2.019-14.615,4.979-14.927S931.249,374.216,931.249,374.216Z" transform="translate(-487.817 -201.224)"/><path class="h" d="M932.252,374.216l3.111,3.5v8.478s-2.643,26.743-11.041,29.7-23.386-1.712-23.386-1.712-3.872-10.26-2.057-10.875,16.005-4.369,16.005-4.369-.2-15.689,2.908-20.355c0,0-2.024-14.615,4.974-14.927S932.252,374.216,932.252,374.216Z" transform="translate(-488.347 -201.224)"/><path class="g" d="M897.143,284.749a6.25,6.25,0,0,0-.355-3.031,2.307,2.307,0,0,0-2.468-1.418c-1.329.312-1.891,2.043-3.206,2.459a2.562,2.562,0,0,1-2.837-1.456,7.255,7.255,0,0,1-.539-3.385v-3.9a6.448,6.448,0,0,0-.917-4.052c-1.083-1.381-3.631-1.986-5.333-1.929a4.525,4.525,0,0,0-3.045,1.225,3.919,3.919,0,0,1-3.2,1.14,2.757,2.757,0,0,1-2.232-1.929v-.047a15.859,15.859,0,1,1,23.575,21.05A42.722,42.722,0,0,0,897.143,284.749Z" transform="translate(-474.964 -147.692)"/><path class="v" d="M870.658,259.216a2.78,2.78,0,0,1-2.236-1.934c-.128-.5-.094-1.035-.241-1.532-.364-1.225-1.669-1.858-2.544-2.79-1.749-1.858-1.636-4.913-.4-7.149,1-1.8,2.941-3.31,4.974-2.969,1.258.217,2.364,1.111,3.622,1.2a7.308,7.308,0,0,0,3.466-1.121,13.059,13.059,0,0,1,8.615-.766,4.964,4.964,0,0,1,2.364,1.2,20.661,20.661,0,0,1,1.263,1.773c1.447,1.844,4.043,2.208,6.355,2.624s4.927,1.333,5.674,3.556c.506,1.475,0,3.073-.274,4.605a1.39,1.39,0,0,0,.062.946c.364.6,1.267.345,1.948.473,1.31.279,1.646,1.967,1.7,3.31q.08,2.3.123,4.6a5.855,5.855,0,0,1-.137,1.7,6.012,6.012,0,0,1-1.319,2.142l-5.135,6.17c-2.279,2.733-4.7,5.92-4.255,9.457a2.2,2.2,0,0,1-2.714-1.579,7.064,7.064,0,0,1,.17-3.5,42.977,42.977,0,0,0,.823-6.076,6.231,6.231,0,0,0-.355-3.026,2.307,2.307,0,0,0-2.468-1.419c-1.333.312-1.891,2.043-3.206,2.459a2.562,2.562,0,0,1-2.837-1.456,7.234,7.234,0,0,1-.539-3.381v-3.9a6.448,6.448,0,0,0-.917-4.052c-1.083-1.381-3.631-1.986-5.334-1.929a4.525,4.525,0,0,0-3.04,1.225A3.926,3.926,0,0,1,870.658,259.216Z" transform="translate(-470.381 -136.964)"/><path class="g" d="M885.3,381.92l4.87,20.005S894.01,401.9,885.3,381.92Z" transform="translate(-481.444 -210.857)"/><path class="g" d="M915.515,374.85s-6.374,10.44-3.887,21.24l1.187.085S910.7,391.177,915.515,374.85Z" transform="translate(-495.019 -207.13)"/><path class="g" d="M929,499.2s7.83-2.591,8.4,3.419C937.416,502.619,935.941,498.5,929,499.2Z" transform="translate(-504.481 -272.391)"/><path class="g" d="M866.266,426.81s-1.556,10.875,1.244,15.239a34.1,34.1,0,0,1-13.684,1.868l-.946-17.107Z" transform="translate(-464.353 -234.522)"/><path class="g" d="M877.225,440.287l-.752.421-4.823-10.875,4.511-4.043h.232C876.322,426.329,875.064,435.677,877.225,440.287Z" transform="translate(-474.247 -233.984)"/><path class="h" d="M861.252,425.83s-1.556,10.875,1.244,15.235a34,34,0,0,1-13.684,1.868l-5.442-17.1Z" transform="translate(-459.339 -234.005)"/><path class="n" d="M811.64,795.409a3.522,3.522,0,0,1-3.021,3.083c-4.222.629-14.393,2.237-16.96,3.461-3.267,1.556-16.171.473-16.795-1.087a2.468,2.468,0,0,1,.222-1.891,4.984,4.984,0,0,1,2.085-2.241,5.536,5.536,0,0,1,.946-.416c2.43-.809,7.022-2.53,8.26-4.336,0,0,5.726-5.007,7.357-7.712a3.735,3.735,0,0,1,2.988-1.863c1.362-.061,2.88.624,3.5,3.608,0,0,7.457,4.255,9.457.525,0,0,.312,5.731,1.551,7.3h0a2.08,2.08,0,0,1,.407,1.57Z" transform="translate(-423.174 -421.979)"/><path class="g" d="M811.64,808.16a3.522,3.522,0,0,1-3.021,3.083c-4.222.629-14.393,2.237-16.96,3.461-3.267,1.556-16.171.473-16.795-1.088a2.468,2.468,0,0,1,.222-1.891,4.984,4.984,0,0,1,2.085-2.241c2.1,1.418,6.776,2.761,17.05,1.158,9.8-1.532,14.658-3.031,17.022-4.052h0a2.081,2.081,0,0,1,.4,1.57Z" transform="translate(-423.174 -434.73)"/><g class="p" transform="translate(393.92 112.139)"><path d="M942.431,268.128v-.076a13.925,13.925,0,0,0,.473-3.532,23.313,23.313,0,0,1-.473,2.837A1.722,1.722,0,0,0,942.431,268.128Z" transform="translate(-905.458 -261.106)"/><path d="M892.184,278.875a4.5,4.5,0,0,1,.383,1.778,5.361,5.361,0,0,0-.383-2.478,2.3,2.3,0,0,0-2.464-1.419c-1.333.312-1.891,2.043-3.211,2.459a2.568,2.568,0,0,1-2.837-1.456,7.193,7.193,0,0,1-.539-3.385v-3.9a6.448,6.448,0,0,0-.917-4.052c-1.088-1.385-3.631-1.986-5.333-1.934a4.53,4.53,0,0,0-3.045,1.229,3.928,3.928,0,0,1-3.206,1.14,2.771,2.771,0,0,1-2.232-1.929c-.128-.5-.094-1.04-.241-1.537-.364-1.22-1.669-1.858-2.544-2.785a5.092,5.092,0,0,1-1.31-3.31,5.3,5.3,0,0,0,1.31,3.986c.875.946,2.18,1.565,2.544,2.785.147.473.114,1.036.241,1.537a2.771,2.771,0,0,0,2.232,1.929,3.928,3.928,0,0,0,3.206-1.14,4.53,4.53,0,0,1,3.045-1.229c1.7-.052,4.255.548,5.333,1.934a6.486,6.486,0,0,1,.917,4.052v3.9a7.155,7.155,0,0,0,.539,3.381,2.574,2.574,0,0,0,2.837,1.461c1.3-.416,1.891-2.147,3.211-2.459A2.388,2.388,0,0,1,892.184,278.875Z" transform="translate(-864.285 -257.3)"/><path d="M938.362,292.757a5.978,5.978,0,0,1-1.324,2.137l-5.135,6.17c-2.161,2.6-4.445,5.6-4.255,8.918.156-3.04,2.274-5.806,4.255-8.218l5.135-6.17a5.978,5.978,0,0,0,1.324-2.137,5.9,5.9,0,0,0,.137-1.707,4.494,4.494,0,0,1-.137,1.007Z" transform="translate(-897.682 -275.461)"/><path d="M921.81,327.182a3.636,3.636,0,0,1-.156-.832,4.194,4.194,0,0,0,.156,1.532c.35,1.125,1.631,2.057,2.714,1.575a6.654,6.654,0,0,1-.057-.681A2.2,2.2,0,0,1,921.81,327.182Z" transform="translate(-894.52 -293.701)"/></g><path class="g" d="M812.69,789.36s1.626,2.837,7.518.34" transform="translate(-443.166 -425.647)"/><path class="g" d="M918,790.82s5.078,5.981,11.48,1.962" transform="translate(-498.682 -426.417)"/><path class="g" d="M945.127,641.23s-3.589,2.241-3.7,3.523,1.854-.946,1.854-.946Z" transform="translate(-511.028 -347.558)"/><path class="g" d="M945.077,677.59a7.5,7.5,0,0,1-4.421,1.726c-2.686.118-2.459,3.617-.7,2.567A44.006,44.006,0,0,0,945.077,677.59Z" transform="translate(-509.559 -366.726)"/><path class="g" d="M950.221,682.34s-1.721,8.459-3.121,6.828" transform="translate(-514.023 -369.23)"/><path class="w" d="M244.7,507.222s10.8,2.965,16.005-.979,7.457-2.676,7.457-2.676,12.4-.686,13.424-3.617-4.757-13.58-4.757-13.58c-.411-.946-1.012-2.147-1.281-2.147l.057-4.492h0l1.8-18.8c4.147-10.634.076-24.374.076-24.374l-.742-3.409a8.625,8.625,0,0,1,.7-5.674l7.532-15.131a22.645,22.645,0,0,1,1.419-2.9c.473-.865,1.1-1.934,1.891-3.215.232-.369.473-.752.738-1.154.913-1.418,2.019-3.026,3.357-4.88,3.333-4.62,5.088-10.4,6-14.658l.4,1.333h.09l.109.024h.18l.194.033h.071l2.317,29.486c.142,11.5,4.364,17.864,4.364,17.864l-.582,25.386c.794,6.114-.946,14.265-1.745,17.518L301.95,481.3a4.95,4.95,0,0,0-2.69,3.745c-.359,3.04-3.56,9.594-3.56,9.594-1.239,1.57-3.929,5.811-3.929,5.811s-1.267,4.095-.482,5.627,7.348,1.376,7.348,1.376c7.494,1.66,13.239-2.364,12.875-5.135s1.168-3.475,1.168-3.475c2.979-.946,2.69-2.965,2.69-2.965a18.554,18.554,0,0,0-2.255-12.076l-.473,1.092a16.629,16.629,0,0,1,.9-6.445l-.274.189-.085.052h-.028c.473-4.147,4.828-11.821,4.828-11.821,8-14.034,5.092-33.051,5.092-33.051l-1.239-5.929-.071-2.236a74.647,74.647,0,0,1,1.206-15.934c.43-2.326.875-5.135,1.215-8.232a72.759,72.759,0,0,1,4.1-16.157l.317-.057h.038c.435-.076.875-.151,1.319-.236h.085s.255-1.381.473-3.731c.128-1.5.232-3.4.232-5.584a62.826,62.826,0,0,0-2.984-19.438l.241-.345s.572-.775,1.617-2.118h0c1.92-2.44,4.908-6.147,8.591-10.327,6.6-7.523,4.657-15.131,4.657-15.131s-4.776-17.5-6.9-28.006a31.849,31.849,0,0,0-5.239-12.459,24.8,24.8,0,0,0,.662-5.05c.142-3.111.033-6.355-1.366-9.149s-4.378-5-7.49-4.629a2.865,2.865,0,0,1-1.343,0,2.043,2.043,0,0,1-.884-.771c-1.82-2.511-1.939-5.887-1.371-8.932s1.731-5.958,2.251-9.012.284-6.445-1.66-8.866c-2.284-2.837-6.265-3.636-9.234-5.769-2.085-1.5-3.65-3.65-5.849-4.979s-4.255-.823-6.643-.322c-4.014.846-7.83,1.234-11.627,2.96a30.965,30.965,0,0,0-10.133,7.371,9.617,9.617,0,0,0-2.26,3.565c-.946,3.125.9,6.454.515,9.688-.274,2.293-1.627,4.289-2.7,6.336s-1.891,4.478-1.05,6.62c1.324,3.348,5.641,4.057,8.78,5.839a2.681,2.681,0,0,1,1.04.9c.775,1.352-.809,2.757-1.806,3.958a5.963,5.963,0,0,0-1.182,2.4,8.568,8.568,0,0,0-5.14,6.2c-1.064,4.761.572,10.771,2.014,14.743-1.575,8.847.473,12.336,1.981,13.674a7.589,7.589,0,0,1,2.629,5.173v.166c.1,1.608.27,3.211.5,4.809h0c-.052-.374-.1-.771-.132-.946-1.234,2.284-3.584,8.118-4.908,17.934a53.885,53.885,0,0,1-1.2,6.246,34.157,34.157,0,0,0-1,11.168l.236,3.182a1,1,0,0,1-.643-.213l1.66,3.04v5.13a18.914,18.914,0,0,1-1.258,6.766c-.118.312-.246.624-.383.946a5.5,5.5,0,0,0-.558,2.785C267.609,386.343,259.424,417,259.424,417c-4.44,10.052.364,16.549.364,16.549s2.326,27.987,2.761,29.434,1.4,18.507,1.4,18.507h0v1.357a3.184,3.184,0,0,0-.809-.232c-3.891-.217-4.946,5.929-4.946,5.929l-7.962,7.6s-3.636-.615-8.984,3.4S244.7,507.222,244.7,507.222Zm79.506-161.751-.024-.085-.218.128h0l-.09.052-.043.028h0l-3.669-12.951a21.5,21.5,0,0,1-.27-10.653l2.837-12.426h0v-2.988l9.017,24.029C332.33,333.844,326.973,341.689,324.211,345.471Z" transform="translate(-141.01 -130.714)"/><path class="x" d="M394.658,557a74.465,74.465,0,0,0-4.568,17.353c-.336,3.064-.771,5.835-1.2,8.133a74.32,74.32,0,0,0-1.163,15.731l.071,2.208,1.182,5.849s2.837,18.786-5,32.625c0,0-4.643,8.289-4.785,12.213l-3.144,1.215-6.355-1.783s3.069-11,2.071-18.715l.572-25.06s-4.128-6.27-4.27-17.618l-2.426-31.141Z" transform="translate(-207.5 -303.154)"/><path class="x" d="M319.945,547.62s-.78,12.142-6.785,20.511-7.282,12-7.282,12l-7.4,14.951a8.563,8.563,0,0,0-.7,5.594l.728,3.366s4,13.57-.071,24.072L296.516,648.4H285.235s-.946-16.856-1.357-18.284-2.714-29.07-2.714-29.07-4.728-6.43-.359-16.355c0,0,9.859-37.141,12.5-36.5S319.945,547.62,319.945,547.62Z" transform="translate(-161.795 -298.209)"/><g class="p" transform="translate(133.577 249.411)"><path d="M315.68,604.067l-.723-3.367a8.511,8.511,0,0,1,.69-5.617l7.4-14.965s1.281-3.641,7.282-12c5.764-8.038,6.714-19.556,6.78-20.44l1.149-.057s-.78,12.142-6.785,20.511-7.282,12-7.282,12l-7.4,14.951a8.563,8.563,0,0,0-.7,5.594l.728,3.366s4,13.57-.071,24.072L314.824,648.4H313.68l1.929-20.285C319.68,617.613,315.68,604.067,315.68,604.067Z" transform="translate(-313.68 -547.62)"/></g><path class="g" d="M388.941,651.126c.142-3.924,4.785-12.213,4.785-12.213,7.858-13.854,5-32.625,5-32.625l-1.21-5.854-.071-2.208a74.318,74.318,0,0,1,1.163-15.731c.421-2.3.856-5.069,1.192-8.133a74.453,74.453,0,0,1,4.553-17.315l1.173-.047a74.465,74.465,0,0,0-4.568,17.353c-.336,3.064-.771,5.835-1.2,8.133a74.32,74.32,0,0,0-1.163,15.731l.071,2.208,1.182,5.849s2.837,18.786-5,32.625c0,0-4.643,8.289-4.785,12.213l-3.144,1.215-.662-.184Z" transform="translate(-218.365 -303.154)"/><path class="y" d="M376.175,753.719a5.466,5.466,0,0,0,5.2-.643,16.785,16.785,0,0,0-.425,9.428c1.286,5.144-12-4.142-12-4.142l2.837-6.483S372.889,753.932,376.175,753.719Z" transform="translate(-209.239 -405.889)"/><path class="g" d="M377.174,753.992a5.31,5.31,0,0,0,4.222-.946,16.786,16.786,0,0,0-.426,9.428c1.286,5.144-12-4.142-12-4.142l2.837-6.483a4.054,4.054,0,0,0,3.239,1.825C375.779,753.76,376.479,753.859,377.174,753.992Z" transform="translate(-209.25 -405.873)"/><path class="x" d="M289.32,445.552h5.551v-31.5l-4.166-.747Z" transform="translate(-152.527 -217.882)"/><path class="u" d="M289.32,445.552h5.551v-31.5l-4.166-.747Z" transform="translate(-152.527 -217.882)"/><path class="z" d="M362.23,760.28a5.535,5.535,0,0,1,5.069,2.927l1.929,1.5.946-2.213a18.441,18.441,0,0,1,2.184,11.93s.284,2-2.643,2.927c0,0-1.5.714-1.144,3.428s-5.281,6.714-12.639,5.069c0,0-6.431.146-7.215-1.357s.5-5.5.5-5.5,2.643-4.189,3.854-5.735c0,0,3.144-6.478,3.5-9.457S360.372,758.635,362.23,760.28Z" transform="translate(-198.439 -410.019)"/><path class="y" d="M303.067,761.281l.057-4.44s-6.388,1.839-11.561-.241c0,0,.435,4.464-.284,5.073s2.393,6.355,2.393,6.355l3.475,3.641,5.977-2.175,1.622-5.107S303.493,761.281,303.067,761.281Z" transform="translate(-168.237 -408.377)"/><path class="g" d="M303.067,761.281l.057-4.44s-6.388,1.839-11.561-.241c0,0,.435,4.464-.284,5.073s2.393,6.355,2.393,6.355l3.475,3.641,5.977-2.175,1.622-5.107S303.493,761.281,303.067,761.281Z" transform="translate(-168.237 -408.377)"/><path class="z" d="M264.716,763.094s3.395.392,2.965,4.728.18,0,.18,0,3.608,1.461,4.894,3.5,3.608-1.82,3.783-2.927,1.622-1.565,1.622-1.565,5.674,10.521,4.672,13.414-13.183,3.56-13.183,3.56-2.218-1.248-7.324,2.643-15.712.946-15.712.946-8.643-3.608-3.39-7.565,8.818-3.357,8.818-3.357l7.821-7.537S260.9,762.876,264.716,763.094Z" transform="translate(-142.066 -411.797)"/><path class="aa" d="M338.838,236.142c2.161,1.31,3.7,3.437,5.745,4.917,2.913,2.1,6.823,2.889,9.064,5.7,1.891,2.393,2.137,5.735,1.627,8.752s-1.655,5.9-2.208,8.9-.44,6.341,1.348,8.818a2,2,0,0,0,.865.761,2.836,2.836,0,0,0,1.319,0c3.054-.369,5.986,1.816,7.357,4.572s1.48,5.962,1.338,9.036a18.675,18.675,0,0,1-1.508,7.362c-1.891,3.858-5.825,6.241-9.707,8.066a75.185,75.185,0,0,1-7.75,3.13,11.663,11.663,0,0,1-5.617.846c-3.229-.558-5.518-3.494-8.582-4.643-2.511-.946-5.3-.605-7.967-.369-2.279.2-4.884.194-6.454-1.47-2.014-2.137-1.106-5.584-.076-8.336a5.934,5.934,0,0,1-4.2-9.7c.974-1.187,2.53-2.572,1.768-3.91a2.591,2.591,0,0,0-1.021-.889c-3.078-1.759-7.319-2.463-8.615-5.764-.832-2.123-.028-4.525,1.026-6.544s2.364-4,2.653-6.256c.378-3.2-1.418-6.482-.506-9.565a9.589,9.589,0,0,1,2.218-3.527,30.431,30.431,0,0,1,9.93-7.277c3.731-1.707,7.471-2.09,11.414-2.922C334.663,235.329,336.621,234.8,338.838,236.142Z" transform="translate(-175.643 -133.56)"/><path class="x" d="M319.844,337.754s-9.045-.473-10.757,7.239S312.8,363.75,312.8,363.75Z" transform="translate(-177.506 -187.571)"/><path class="u" d="M319.844,337.754s-9.045-.473-10.757,7.239S312.8,363.75,312.8,363.75Z" transform="translate(-177.506 -187.571)"/><path class="x" d="M320,339.859l3.428,2.714,16,.714,9.986-6.856L359.566,319a12.556,12.556,0,0,1-9.655-9.882,21.636,21.636,0,0,1-.2-8.256s-16.284-8.431-14.284,4.728a17.873,17.873,0,0,1,.151,4.889c-.946,7.707-8.426,6.256-8.426,6.256l-2.87,4.426L321,332.039Z" transform="translate(-183.434 -166.726)"/><path class="g" d="M352.47,305.57a17.873,17.873,0,0,1,.151,4.889,14.436,14.436,0,0,0,14.332-1.343,21.637,21.637,0,0,1-.2-8.256S350.47,292.431,352.47,305.57Z" transform="translate(-200.462 -166.722)"/><circle class="x" cx="14.426" cy="14.426" r="14.426" transform="translate(143.734 115.619)"/><path class="h" d="M327.44,357.474c.35,0,.7.052,1.04.085,1.891.189,9.792.615,14.294-4.761,5.036-6.014,11.74-13.443,12.015-13.745l6.823,2.062s-5.4-1.92-8.984,8.123a10.4,10.4,0,0,0,3.513,11.967A10.809,10.809,0,0,0,360.6,363.1a.024.024,0,0,1,0,.024v4.407h0l-2.79,12.294a21.31,21.31,0,0,0,.265,10.52l4.255,15.041c-.643.444-27.046,18.4-44.683,6h0c.066-.539,2.246-18.19.733-26.828a59.66,59.66,0,0,1-.79-6.676v-.166a7.527,7.527,0,0,0-2.586-5.107c-1.589-1.419-3.74-5.2-1.612-15.2a36.721,36.721,0,0,1,2.364-7.2l5.915-13.367h0l5.452.109v.038c-.473.586-6.795,8.483-7.48,13.57C318.977,355.394,318.149,356.879,327.44,357.474Z" transform="translate(-179.484 -187.093)"/><path class="x" d="M396.559,347.985s5.333,4.572,7.428,14.951,6.761,27.618,6.761,27.618,1.891,7.523-4.572,14.951-10.762,13.239-10.762,13.239l-4.255,6.27a5.338,5.338,0,0,1-3.064,2.166,10.35,10.35,0,0,1-7.5-.534,4.369,4.369,0,0,1-1.891-5.518l.946-2.189s-8.762,5.523-9.523,2.473,10.189-6.095,10.189-6.095,9.045-1.522,10.875-5.806c0,0,9.712-12.478,8.951-16.762l-9.381-25.14s-11.731-1.551-7.731-14.729S396.559,347.985,396.559,347.985Z" transform="translate(-209.84 -191.613)"/><path class="s" d="M307.35,511.954s21.429,4.284,26.479,3.712l.544,1.811s8.133,1.82,26.521-1.1q1.8-.284,3.74-.638l.43-.076s.251-1.362.449-3.683a63.878,63.878,0,0,0-3.116-25.93L359.3,476.53s-19.112,11.457-31.765,10.4c-1.13-.095-2.251-.184-3.381-.222-2.6-.1-6.62,0-9.234-2.095l-5.485.946v15.6a18.7,18.7,0,0,1-1.239,6.676c-.118.312-.241.619-.378.946A4.965,4.965,0,0,0,307.35,511.954Z" transform="translate(-176.724 -260.733)"/><path class="g" d="M364.58,552.148V557s9.362,2.095,30.691-1.811c0,0,.251-1.362.449-3.683C389.177,552.56,371.129,555.085,364.58,552.148Z" transform="translate(-206.936 -300.26)"/><path class="g" d="M307.353,546.885s21.429,4.284,26.479,3.712l.544,1.811v-4.856c-2.44,1.012-19.859-3.187-26.171-4.761-.118.312-.241.619-.378.946a4.965,4.965,0,0,0-.473,3.149Z" transform="translate(-176.726 -295.663)"/><path class="s" d="M417.31,536.605l1.589,9.854q1.8-.284,3.74-.638c-.5-2.879-1.579-9.457-1.281-10.549l-2-1.712Z" transform="translate(-234.733 -290.797)"/><path class="g" d="M417.78,536.155l1.589,9.858q1.8-.288,3.74-.638c-.5-2.88-1.579-9.457-1.281-10.549l-2-1.716Z" transform="translate(-234.981 -290.56)"/><g class="ab" transform="translate(137.279 215.783)"><path d="M333.9,495.937c-1.125-.095-2.251-.184-3.381-.222-2.525-.095-6.378,0-9.007-1.934l.917-.161c2.629,2.085,6.62,2,9.234,2.095,1.13.038,2.251.128,3.381.222.369.033.747.052,1.13.061A21.2,21.2,0,0,1,333.9,495.937Z" transform="translate(-321.51 -485.525)"/><path d="M398.022,516.364q1.8-.284,3.74-.634l.435-.08s.251-1.362.444-3.683a63.709,63.709,0,0,0-3.116-25.93l-2.913-8.984c.619-.35.946-.553.946-.553l3.092,9.523a63.876,63.876,0,0,1,3.116,25.93c-.2,2.322-.449,3.683-.449,3.683l-.43.08q-1.934.35-3.74.634a117.794,117.794,0,0,1-19.268,1.655A121.527,121.527,0,0,0,398.022,516.364Z" transform="translate(-352.281 -476.5)"/><path d="M360.315,559.3v.052H359.7Q360.05,559.328,360.315,559.3Z" transform="translate(-341.643 -520.15)"/></g><ellipse class="y" cx="0.809" cy="1.664" rx="0.809" ry="1.664" transform="translate(184.43 244.318)"/><path class="x" d="M311.29,449.347c1.305-9.693,3.608-15.452,4.823-17.708.047.307.17,1.305.227,1.612a46.808,46.808,0,0,1,.1,5.007l-1.21,21.92,1.622,6.856c1.523,5.428-4.118,1.14-4.118,1.14a3.357,3.357,0,0,1-3.31,2.288l-.293-3.934a33.976,33.976,0,0,1,.983-11.031A52.569,52.569,0,0,0,311.29,449.347Z" transform="translate(-177.656 -237.068)"/><path class="u" d="M311.29,449.347c1.305-9.693,3.608-15.452,4.823-17.708.047.307.17,1.305.227,1.612a46.808,46.808,0,0,1,.1,5.007l-1.21,21.92,1.622,6.856c1.523,5.428-4.118,1.14-4.118,1.14a3.357,3.357,0,0,1-3.31,2.288l-.293-3.934a33.976,33.976,0,0,1,.983-11.031A52.569,52.569,0,0,0,311.29,449.347Z" transform="translate(-177.656 -237.068)"/><path class="x" d="M398.573,483.272c-1.026,1.329-1.589,2.09-1.589,2.09l-4.255,6.265a5.314,5.314,0,0,1-3.064,2.166,10.325,10.325,0,0,1-7.5-.534,4.359,4.359,0,0,1-1.891-5.513l.946-2.194s-8.762,5.523-9.523,2.478,10.189-6.095,10.189-6.095,9.045-1.523,10.875-5.811c0,0,.79-1.012,1.891-2.563" transform="translate(-210.668 -259.167)"/><path class="s" d="M400.425,508.582s-10.36-1.007-13.641-6.932l-1.5,4.894s10.875,7.509,13.357,6.534Z" transform="translate(-217.848 -273.975)"/><path class="g" d="M399.65,508.476s-10.355-1.007-13.641-6.936l-1.5,4.88s10.875,7.509,13.353,6.535Z" transform="translate(-217.442 -273.917)"/><path class="s" d="M312.741,510.46s-3.627,1.286-4.341.572l1.631,3,3.083-2.364Z" transform="translate(-177.319 -278.62)"/><path class="g" d="M312.741,510.46s-3.627,1.286-4.341.572l1.631,3,3.083-2.364Z" transform="translate(-177.319 -278.62)"/><path class="g" d="M331.759,525.735V519.47l-1.489,6.416Z" transform="translate(-174.115 -273.847)"/><path class="g" d="M359.163,263.934a5.564,5.564,0,0,1-3.887,2.047,30.625,30.625,0,0,1-4.516,0,11.325,11.325,0,0,0-6.814,1.716,17.323,17.323,0,0,0-3.125,3.31c-2.922,3.57-6.979,6.913-11.584,6.539a3,3,0,0,1-2.152-.908,3.451,3.451,0,0,1-.548-1.957,44.749,44.749,0,0,1,.279-8.823,18.6,18.6,0,0,1,1.333-5.263,17.967,17.967,0,0,1,3.206-4.577,19.608,19.608,0,0,1,5.594-4.482,10.033,10.033,0,0,1,7-.9c2.757.752,4.9,2.908,7.532,4.019C354.482,255.914,362.454,259.286,359.163,263.934Z" transform="translate(-186.828 -141.506)"/><path class="aa" d="M359.163,262.718a5.564,5.564,0,0,1-3.887,2.047,30.617,30.617,0,0,1-4.516,0,11.289,11.289,0,0,0-6.814,1.712,17.324,17.324,0,0,0-3.125,3.31c-2.922,3.57-6.979,6.913-11.584,6.539a2.983,2.983,0,0,1-2.151-.908,3.438,3.438,0,0,1-.548-1.958,44.747,44.747,0,0,1,.279-8.823,18.6,18.6,0,0,1,1.333-5.263,17.845,17.845,0,0,1,3.206-4.572,19.542,19.542,0,0,1,5.594-4.487,10.034,10.034,0,0,1,7-.9c2.757.752,4.9,2.908,7.532,4.019C354.482,254.7,362.454,258.061,359.163,262.718Z" transform="translate(-186.828 -140.863)"/><path class="x" d="M291.826,473.47l-.038,1.726-.388-1.65Z" transform="translate(-153.624 -249.597)"/><path class="u" d="M291.826,473.47l-.038,1.726-.388-1.65Z" transform="translate(-153.624 -249.597)"/><g class="ab" transform="translate(172.115 154.206)"><path d="M397.735,352.426c-4,13.178,7.669,14.724,7.669,14.724l9.381,25.14c.761,4.284-8.955,16.762-8.955,16.762-.676,1.6-2.364,2.813-4.208,3.712a6.591,6.591,0,0,0,2.5-2.742s9.712-12.473,8.951-16.757l-9.381-25.145s-11.669-1.546-7.669-14.724c1.338-4.4,3.31-6.407,5.305-7.126C399.948,347.376,398.686,349.291,397.735,352.426Z" transform="translate(-395.184 -346.27)"/></g><g class="p" transform="translate(133.056 149.743)"><path d="M401,384.61a9.852,9.852,0,0,0,1.891,1.792,10.748,10.748,0,0,0,4.464,1.891v.5A10.716,10.716,0,0,1,403.307,387,9.811,9.811,0,0,1,401,384.61Z" transform="translate(-359.191 -362.018)"/><path d="M322.4,419.857v.165a61.084,61.084,0,0,0,.813,6.7c1.418,8.152-.44,24.337-.7,26.573-.151-.1-.3-.194-.473-.3.071-.539,2.251-18.19.738-26.824a59.9,59.9,0,0,1-.79-6.676v-.165a7.3,7.3,0,0,0-1.272-3.617,7.352,7.352,0,0,1,1.688,4.147Z" transform="translate(-316.865 -378.413)"/><path d="M326.816,337.478l-4.624-.09a.024.024,0,0,0-.024,0l-5.91,13.362a36.842,36.842,0,0,0-2.364,7.2c-1.721,8.085-.638,12.114.676,14.1-1.48-1.745-3.007-5.721-1.1-14.658a36.446,36.446,0,0,1,2.341-7.206l5.953-13.362h0l5.452.109v.033C327.17,337.029,327.024,337.208,326.816,337.478Z" transform="translate(-312.577 -336.83)"/><path d="M416.39,345.87l.08.024Z" transform="translate(-367.304 -341.596)"/><path d="M368.333,343.517l-4.634-1.395h-.024c-.274.3-6.974,7.731-12.01,13.745-4.5,5.376-12.393,4.955-14.294,4.766-.345-.038-.7-.066-1.04-.09-5.168-.331-7.2-.946-7.882-2.251.969.946,3.1,1.418,7.452,1.683.35,0,.7.052,1.04.085,1.891.189,9.792.61,14.294-4.761,5.036-6.019,11.74-13.447,12.015-13.75h0l6.743,2.043A4.212,4.212,0,0,0,368.333,343.517Z" transform="translate(-320.945 -339.318)"/></g><path class="g" d="M288.087,776.5s-6.525,1.783-7.788-1.017" transform="translate(-162.506 -418.33)"/><path class="g" d="M373.995,773.609s-7.565,1.953-9.315-1.069" transform="translate(-206.988 -416.78)"/><ellipse class="b" cx="12.733" cy="2.151" rx="12.733" ry="2.151" transform="translate(78.327 336.426)"/><ellipse class="b" cx="12.733" cy="2.151" rx="12.733" ry="2.151" transform="translate(28.164 366.937)"/><ellipse class="b" cx="12.733" cy="2.151" rx="12.733" ry="2.151" transform="translate(474.195 354.422)"/></g></svg>