<svg xmlns="http://www.w3.org/2000/svg" width="39.94" height="32.439" viewBox="0 0 39.94 32.439"><path d="M35.835,56.166c.025.355.025.71.025,1.064,0,10.821-8.236,23.29-23.29,23.29A23.132,23.132,0,0,1,0,76.846a16.934,16.934,0,0,0,1.977.1,16.394,16.394,0,0,0,10.162-3.5,8.2,8.2,0,0,1-7.654-5.677,10.322,10.322,0,0,0,1.546.127,8.658,8.658,0,0,0,2.154-.279,8.187,8.187,0,0,1-6.564-8.034v-.1a8.244,8.244,0,0,0,3.7,1.039A8.2,8.2,0,0,1,2.788,49.577a23.268,23.268,0,0,0,16.878,8.566,9.241,9.241,0,0,1-.2-1.875,8.194,8.194,0,0,1,14.167-5.6,16.116,16.116,0,0,0,5.2-1.977,8.164,8.164,0,0,1-3.6,4.511,16.41,16.41,0,0,0,4.714-1.267A17.6,17.6,0,0,1,35.835,56.166Z" transform="translate(0 -48.082)"/></svg>