<svg xmlns="http://www.w3.org/2000/svg" width="59.835" height="59.835" viewBox="0 0 59.835 59.835"><path d="M115.56,96.976a18.4,18.4,0,0,0-11.454,3.949.876.876,0,0,0,1.081,1.38,16.662,16.662,0,0,1,10.373-3.575A16.823,16.823,0,0,1,127.3,127.611v-4.26a5.6,5.6,0,0,0-5.6-5.6h-2.9v-2.665a.882.882,0,0,0-.014-.149,5.594,5.594,0,0,0,2.375-4.573v-4.722a4.423,4.423,0,0,0-4.418-4.418H114.38a4.423,4.423,0,0,0-4.418,4.418v4.722a5.594,5.594,0,0,0,2.375,4.573.883.883,0,0,0-.014.149v2.665h-2.9a5.6,5.6,0,0,0-5.6,5.6v4.26A16.817,16.817,0,0,1,102.4,105.07a.876.876,0,1,0-1.37-1.093,18.385,18.385,0,0,0-4.051,11.584A18.584,18.584,0,1,0,115.56,96.976Zm-3.846,8.668a2.668,2.668,0,0,1,2.665-2.665h2.361a2.668,2.668,0,0,1,2.665,2.665v1.4a3.961,3.961,0,0,1-1.707-.709.876.876,0,0,0-.809-.142,19.409,19.409,0,0,1-5.175.917Zm0,3.22a21.245,21.245,0,0,0,5.3-.873,6.174,6.174,0,0,0,2.394.826v1.548a3.846,3.846,0,0,1-7.691,0Zm2.361,6.9a5.573,5.573,0,0,0,2.969,0v1.99h-2.969ZM110.3,131.548v-5.835a.876.876,0,0,0-1.753,0v5.145a16.852,16.852,0,0,1-2.973-1.759c0-.027,0-.053,0-.081v-5.666a3.85,3.85,0,0,1,3.846-3.846H121.7a3.85,3.85,0,0,1,3.846,3.846v5.666c0,.027,0,.054,0,.081a16.844,16.844,0,0,1-2.973,1.759v-5.145a.876.876,0,1,0-1.753,0v5.835a16.838,16.838,0,0,1-10.525,0Z" transform="translate(-85.643 -85.643)"/><path d="M51.477,14.239a4.417,4.417,0,0,0-5.782-5.755,23.272,23.272,0,0,0-6.776-6.023,17.693,17.693,0,0,0-18,0A23.27,23.27,0,0,0,14.14,8.484a4.416,4.416,0,0,0-5.782,5.755C2.962,18.467,0,24.009,0,29.918a17.9,17.9,0,0,0,2.461,9,23.271,23.271,0,0,0,6.023,6.776,4.416,4.416,0,0,0,5.755,5.782c4.228,5.4,9.77,8.358,15.679,8.358S41.369,56.873,45.6,51.477a4.417,4.417,0,0,0,5.755-5.782,23.269,23.269,0,0,0,6.023-6.776,17.9,17.9,0,0,0,2.461-9C59.835,24.009,56.873,18.467,51.477,14.239ZM47.271,42.971a4.415,4.415,0,0,0-4.3,5.417,37.047,37.047,0,0,1-26.1,0A4.417,4.417,0,0,0,11.5,43.1a37.029,37.029,0,0,1-.053-26.235A4.417,4.417,0,0,0,16.734,11.5a37.014,37.014,0,0,1,26.368,0,4.415,4.415,0,0,0,5.286,5.367A37.029,37.029,0,0,1,48.335,43.1a4.411,4.411,0,0,0-1.064-.13Zm2.783-30.408A2.665,2.665,0,1,1,47.389,9.9,2.668,2.668,0,0,1,50.055,12.564ZM29.918,1.753c5.373,0,10.431,2.734,14.322,7.717a4.449,4.449,0,0,0-.384.445,38.726,38.726,0,0,0-27.877,0A4.449,4.449,0,0,0,15.6,9.47C19.487,4.487,24.545,1.753,29.918,1.753ZM12.446,9.9a2.665,2.665,0,1,1-2.665,2.665A2.668,2.668,0,0,1,12.446,9.9ZM1.753,29.918C1.753,24.6,4.44,19.578,9.337,15.7a4.454,4.454,0,0,0,.514.437,38.746,38.746,0,0,0,.063,27.719,4.476,4.476,0,0,0-.445.384c-4.982-3.892-7.717-8.95-7.717-14.322ZM9.9,47.389a2.665,2.665,0,1,1,2.665,2.665A2.668,2.668,0,0,1,9.9,47.389ZM29.918,58.082C24.6,58.082,19.578,55.4,15.7,50.5a4.45,4.45,0,0,0,.437-.514,38.764,38.764,0,0,0,27.562,0,4.463,4.463,0,0,0,.437.514c-3.878,4.9-8.9,7.584-14.218,7.584Zm17.354-8.027a2.665,2.665,0,1,1,2.665-2.665A2.668,2.668,0,0,1,47.271,50.055Zm3.094-5.815a4.46,4.46,0,0,0-.445-.384,38.745,38.745,0,0,0,.063-27.719A4.442,4.442,0,0,0,50.5,15.7c4.9,3.878,7.584,8.9,7.584,14.218C58.082,35.29,55.348,40.348,50.366,44.24Z"/></svg>