<svg xmlns="http://www.w3.org/2000/svg" width="619.841" height="396.628" viewBox="0 0 619.841 396.628"><defs><style>.a{fill:#e6e6e6;}.b{fill:#f2f2f2;}.c{fill:#ccc;}.d{fill:#a0616a;}.e{fill:#2f2e41;}.f{fill:#2039cc;}.g{fill:#3f3d56;}.h{fill:#fff;}.i{fill:#ffb8b8;}</style></defs><g transform="translate(0 0)"><path class="a" d="M340.93,334.361a102.132,102.132,0,0,1,8.453-32.233q1.908-4.262,4.2-8.336a.622.622,0,0,0-1.074-.628,103.544,103.544,0,0,0-11.522,31.786q-.865,4.673-1.3,9.411c-.074.8,1.171.792,1.244,0Z" transform="translate(-247.611 -226.052)"/><circle class="a" cx="7.879" cy="7.879" r="7.879" transform="translate(101.106 53.977)"/><path class="a" d="M341.978,337.452a66.258,66.258,0,0,1,5.484-20.911q1.238-2.765,2.724-5.408a.4.4,0,0,0-.7-.407,67.175,67.175,0,0,0-7.475,20.621q-.561,3.031-.844,6.106c-.048.517.759.514.807,0Z" transform="translate(-247.854 -228.934)"/><circle class="a" cx="5.111" cy="5.111" r="5.111" transform="translate(99.177 73.271)"/><path class="a" d="M338.869,337.027a66.258,66.258,0,0,1-8.538-19.861q-.725-2.941-1.178-5.94a.4.4,0,0,0-.8.107,67.175,67.175,0,0,0,6.79,20.857q1.422,2.735,3.09,5.333C338.513,337.96,339.147,337.461,338.869,337.027Z" transform="translate(-245.762 -228.991)"/><circle class="a" cx="5.111" cy="5.111" r="5.111" transform="translate(77.473 72.912)"/><path class="b" d="M322.169,344.834V334.792a3.77,3.77,0,0,1,3.766-3.766h23.432a3.77,3.77,0,0,1,3.766,3.766v10.042a3.77,3.77,0,0,1-3.766,3.766H325.935a3.77,3.77,0,0,1-3.766-3.766Z" transform="translate(-244.754 -232.276)"/><path class="b" d="M350.977,261.564H340.935a3.77,3.77,0,0,1-3.766-3.766V216.792a3.77,3.77,0,0,1,3.766-3.766h10.042a3.77,3.77,0,0,1,3.766,3.766V257.8A3.77,3.77,0,0,1,350.977,261.564Z" transform="translate(-247.201 -213.026)"/><rect class="c" width="16.737" height="3.347" transform="translate(90.387 7.95)"/><rect class="c" width="16.737" height="3.347" transform="translate(90.387 33.893)"/><path class="b" d="M380.977,261.564H370.935a3.77,3.77,0,0,1-3.766-3.766V216.792a3.77,3.77,0,0,1,3.766-3.766h10.042a3.77,3.77,0,0,1,3.766,3.766V257.8A3.77,3.77,0,0,1,380.977,261.564Z" transform="translate(-252.095 -213.026)"/><rect class="c" width="16.737" height="3.347" transform="translate(115.492 7.95)"/><rect class="c" width="16.737" height="3.347" transform="translate(115.492 33.893)"/><path class="b" d="M410.977,261.564H400.935a3.77,3.77,0,0,1-3.766-3.766V216.792a3.77,3.77,0,0,1,3.766-3.766h10.042a3.77,3.77,0,0,1,3.766,3.766V257.8A3.77,3.77,0,0,1,410.977,261.564Z" transform="translate(-256.99 -213.026)"/><rect class="c" width="16.737" height="3.347" transform="translate(140.598 7.95)"/><rect class="c" width="16.737" height="3.347" transform="translate(140.598 33.893)"/><path class="b" d="M426.977,342.564H416.935a3.77,3.77,0,0,1-3.766-3.766V297.792a3.77,3.77,0,0,1,3.766-3.766h10.042a3.77,3.77,0,0,1,3.766,3.766V338.8A3.77,3.77,0,0,1,426.977,342.564Z" transform="translate(-259.6 -226.24)"/><rect class="c" width="16.737" height="3.347" transform="translate(153.988 75.736)"/><rect class="c" width="16.737" height="3.347" transform="translate(153.988 101.678)"/><path class="b" d="M456.977,342.564H446.935a3.77,3.77,0,0,1-3.766-3.766V297.792a3.77,3.77,0,0,1,3.766-3.766h10.042a3.77,3.77,0,0,1,3.766,3.766V338.8A3.77,3.77,0,0,1,456.977,342.564Z" transform="translate(-264.494 -226.24)"/><rect class="c" width="16.737" height="3.347" transform="translate(179.094 75.736)"/><rect class="c" width="16.737" height="3.347" transform="translate(179.094 101.678)"/><path class="b" d="M486.977,342.564H476.935a3.77,3.77,0,0,1-3.766-3.766V297.792a3.77,3.77,0,0,1,3.766-3.766h10.042a3.77,3.77,0,0,1,3.766,3.766V338.8A3.77,3.77,0,0,1,486.977,342.564Z" transform="translate(-269.388 -226.24)"/><rect class="c" width="16.737" height="3.347" transform="translate(204.199 75.736)"/><rect class="c" width="16.737" height="3.347" transform="translate(204.199 101.678)"/><path class="b" d="M347.977,423.564H337.935a3.77,3.77,0,0,1-3.766-3.766V378.792a3.77,3.77,0,0,1,3.766-3.766h10.042a3.77,3.77,0,0,1,3.766,3.766V419.8A3.77,3.77,0,0,1,347.977,423.564Z" transform="translate(-246.712 -239.455)"/><rect class="c" width="16.737" height="3.347" transform="translate(87.876 143.521)"/><rect class="c" width="16.737" height="3.347" transform="translate(87.876 169.464)"/><path class="b" d="M377.977,423.564H367.935a3.77,3.77,0,0,1-3.766-3.766V378.792a3.77,3.77,0,0,1,3.766-3.766h10.042a3.77,3.77,0,0,1,3.766,3.766V419.8A3.77,3.77,0,0,1,377.977,423.564Z" transform="translate(-251.606 -239.455)"/><rect class="c" width="16.737" height="3.347" transform="translate(112.982 143.521)"/><rect class="c" width="16.737" height="3.347" transform="translate(112.982 169.464)"/><path class="b" d="M407.977,423.564H397.935a3.77,3.77,0,0,1-3.766-3.766V378.792a3.77,3.77,0,0,1,3.766-3.766h10.042a3.77,3.77,0,0,1,3.766,3.766V419.8A3.77,3.77,0,0,1,407.977,423.564Z" transform="translate(-256.5 -239.455)"/><rect class="c" width="16.737" height="3.347" transform="translate(138.088 143.521)"/><rect class="c" width="16.737" height="3.347" transform="translate(138.088 169.464)"/><path class="b" d="M440.977,261.564H430.935a3.77,3.77,0,0,1-3.766-3.766V216.792a3.77,3.77,0,0,1,3.766-3.766h10.042a3.77,3.77,0,0,1,3.766,3.766V257.8A3.77,3.77,0,0,1,440.977,261.564Z" transform="translate(-261.884 -213.026)"/><rect class="c" width="16.737" height="3.347" transform="translate(165.704 7.95)"/><rect class="c" width="16.737" height="3.347" transform="translate(165.704 33.893)"/><path class="b" d="M470.977,261.564H460.935a3.77,3.77,0,0,1-3.766-3.766V216.792a3.77,3.77,0,0,1,3.766-3.766h10.042a3.77,3.77,0,0,1,3.766,3.766V257.8a3.77,3.77,0,0,1-3.766,3.766Z" transform="translate(-266.778 -213.026)"/><rect class="c" width="16.737" height="3.347" transform="translate(190.81 7.95)"/><rect class="c" width="16.737" height="3.347" transform="translate(190.81 33.893)"/><path class="b" d="M500.977,261.564H490.935a3.77,3.77,0,0,1-3.766-3.766V216.792a3.77,3.77,0,0,1,3.766-3.766h10.042a3.77,3.77,0,0,1,3.766,3.766V257.8a3.77,3.77,0,0,1-3.766,3.766Z" transform="translate(-271.672 -213.026)"/><rect class="c" width="16.737" height="3.347" transform="translate(215.915 7.95)"/><rect class="c" width="16.737" height="3.347" transform="translate(215.915 33.893)"/><path class="b" d="M530.977,261.564H520.935a3.77,3.77,0,0,1-3.766-3.766V216.792a3.77,3.77,0,0,1,3.766-3.766h10.042a3.77,3.77,0,0,1,3.766,3.766V257.8A3.77,3.77,0,0,1,530.977,261.564Z" transform="translate(-276.566 -213.026)"/><rect class="c" width="16.737" height="3.347" transform="translate(241.021 7.95)"/><rect class="c" width="16.737" height="3.347" transform="translate(241.021 33.893)"/><path class="c" d="M531.952,272.2h-238.5a.837.837,0,0,1,0-1.674h238.5a.837.837,0,0,1,0,1.674Z" transform="translate(-239.932 -222.406)"/><path class="c" d="M531.952,353.2h-238.5a.837.837,0,0,1,0-1.674h238.5a.837.837,0,0,1,0,1.674Z" transform="translate(-239.932 -235.621)"/><path class="c" d="M531.952,434.2h-238.5a.837.837,0,0,1,0-1.674h238.5a.837.837,0,0,1,0,1.674Z" transform="translate(-239.932 -248.835)"/><path class="c" d="M540.524,589.224c0-6.471-24.354-11.716-54.4-11.716s-54.4,5.245-54.4,11.716c0,4.147,10.013,7.788,25.106,9.87v64.192a5.44,5.44,0,0,0,10.879,0V600.25c5.751.446,11.948.69,18.411.69s12.66-.244,18.411-.69v63.036a5.44,5.44,0,0,0,10.879,0V599.094C530.511,597.012,540.524,593.371,540.524,589.224Z" transform="translate(-262.628 -272.488)"/><path class="d" d="M319.563,453.191h10.26l4.881-39.573H319.561Z" transform="translate(-52.133 -67.478)"/><path class="e" d="M0,0H32.245V12.458H12.458A12.458,12.458,0,0,1,0,0H0Z" transform="translate(297.474 395.241) rotate(179.997)"/><path class="d" d="M336.391,445.819l9.789-3.072-7.19-39.219-14.448,4.533Z" transform="translate(-52.946 -65.832)"/><path class="e" d="M0,0H32.245V12.458H12.458A12.458,12.458,0,0,1,0,0H0Z" transform="translate(314.965 380.083) rotate(162.577)"/><path class="e" d="M545.757,629.667,526.989,580.4c-4.211.989-39.522,8.8-51.349-3.79-4.053-4.316-4.844-10.569-2.35-18.585l6.9-8.673.215.011c2.61.137,63.966,3.576,68.172,22.084,3.546,15.6,10.023,44.693,11.923,53.237a3.779,3.779,0,0,1-2.355,4.338l-7.548,2.83a3.734,3.734,0,0,1-1.316.239,3.777,3.777,0,0,1-3.526-2.424Z" transform="translate(-269.176 -267.894)"/><path class="e" d="M532.757,636.667,513.989,587.4c-4.211.989-39.522,8.8-51.349-3.79-4.053-4.316-4.844-10.569-2.35-18.585l6.9-8.673.215.011c2.61.137,63.966,3.576,68.172,22.084,3.546,15.6,10.023,44.693,11.923,53.237a3.779,3.779,0,0,1-2.355,4.338l-7.548,2.83a3.735,3.735,0,0,1-1.316.24,3.777,3.777,0,0,1-3.526-2.424Z" transform="translate(-267.055 -269.036)"/><path class="d" d="M565.5,510.524a8.814,8.814,0,0,0-.741,1.173l-41.274,4.349-5.941-8.146-13.466,7.36,11.67,19.768,50.619-12.906a8.784,8.784,0,1,0-.867-11.6Z" transform="translate(-274.43 -260.993)"/><path class="f" d="M459.309,554.043a3.772,3.772,0,0,1-1.522-3.639c2.329-15.35-.351-37.34-3.008-53.084a20.75,20.75,0,0,1,23.063-24.069,66.838,66.838,0,0,1,8.3,1.635h0a20.584,20.584,0,0,1,15.551,20.476c-.4,15.193,2.688,34.149,4.032,41.593a3.782,3.782,0,0,1-.7,2.938,3.675,3.675,0,0,1-2.59,1.465c-14.9,1.521-30.974,8.789-39.227,12.985a3.767,3.767,0,0,1-1.715.419A3.706,3.706,0,0,1,459.309,554.043Z" transform="translate(-266.34 -255.452)"/><path class="f" d="M506.142,515.758a3.741,3.741,0,0,1-2.07-2.006l-8.311-19.2a9.624,9.624,0,0,1,17.664-7.645l8.311,19.2a3.771,3.771,0,0,1-1.96,4.952l-10.752,4.654a3.74,3.74,0,0,1-2.882.046Z" transform="translate(-272.944 -256.76)"/><path class="d" d="M518.5,508.524a8.807,8.807,0,0,0-.741,1.173l-41.274,4.349-5.941-8.146-13.466,7.36,11.67,19.768,50.619-12.906a8.784,8.784,0,1,0-.867-11.6Z" transform="translate(-266.762 -260.666)"/><path class="f" d="M459.142,516.758a3.741,3.741,0,0,1-2.07-2.006l-8.311-19.2a9.624,9.624,0,1,1,17.664-7.645l8.311,19.2a3.771,3.771,0,0,1-1.96,4.952l-10.752,4.654a3.74,3.74,0,0,1-2.882.046Z" transform="translate(-265.277 -256.923)"/><circle class="d" cx="20.554" cy="20.554" r="20.554" transform="translate(189.419 170.159)"/><path class="e" d="M461.038,449.446a1.787,1.787,0,0,1,1.554-2.359,4.126,4.126,0,0,1,2.909,1.435,11.578,11.578,0,0,0,2.57,2.207,2.211,2.211,0,0,0,2.91-.526c.532-.9.168-2.1-.155-3.141a30.886,30.886,0,0,1-1.364-8.176c-.093-3.1.344-6.328,2.058-8.744,2.213-3.117,6.169-4.3,9.913-4.215s7.427,1.242,11.136,1.972c1.28.252,2.785.381,3.642-.611.911-1.055.576-2.763.189-4.187-1.005-3.7-2.071-7.519-4.406-10.5a15.816,15.816,0,0,0-10.093-5.682,24.218,24.218,0,0,0-11.266,1.279,30.207,30.207,0,0,0-14.8,10.309,24.466,24.466,0,0,0-4.668,18.076,22.317,22.317,0,0,0,8.273,14.1Z" transform="translate(-265.761 -244.627)"/><path class="g" d="M368.985,508.814a102.132,102.132,0,0,1,8.453-32.233q1.908-4.262,4.2-8.336a.622.622,0,0,0-1.074-.628A103.54,103.54,0,0,0,369.041,499.4q-.865,4.673-1.3,9.411c-.074.8,1.171.792,1.244,0Z" transform="translate(-252.188 -254.513)"/><circle class="f" cx="7.879" cy="7.879" r="7.879" transform="translate(124.584 199.971)"/><path class="g" d="M370.033,511.905a66.256,66.256,0,0,1,5.484-20.911q1.238-2.765,2.724-5.408a.4.4,0,0,0-.7-.407A67.175,67.175,0,0,0,370.07,505.8q-.561,3.031-.844,6.106C369.178,512.422,369.986,512.419,370.033,511.905Z" transform="translate(-252.431 -257.394)"/><circle class="f" cx="5.111" cy="5.111" r="5.111" transform="translate(122.655 219.264)"/><path class="g" d="M366.924,511.481a66.258,66.258,0,0,1-8.538-19.861q-.725-2.941-1.178-5.94a.4.4,0,0,0-.8.107,67.173,67.173,0,0,0,6.789,20.857q1.422,2.735,3.09,5.333c.28.437.915-.062.636-.5Z" transform="translate(-250.339 -257.452)"/><circle class="f" cx="5.111" cy="5.111" r="5.111" transform="translate(100.951 218.905)"/><path class="c" d="M350.224,519.287V509.245a3.77,3.77,0,0,1,3.766-3.766h23.432a3.77,3.77,0,0,1,3.766,3.766v10.042a3.77,3.77,0,0,1-3.766,3.766H353.99A3.77,3.77,0,0,1,350.224,519.287Z" transform="translate(-249.331 -260.737)"/><rect class="c" width="71.97" height="5.858" rx="2.929" transform="translate(241.911 255.645)"/><path class="c" d="M638.652,515.393h-74.48a5.446,5.446,0,0,1-5.44-5.44V468.948a5.446,5.446,0,0,1,5.44-5.44h74.48a5.446,5.446,0,0,1,5.44,5.44v41.006A5.446,5.446,0,0,1,638.652,515.393Z" transform="translate(-283.347 -253.89)"/><circle class="h" cx="5.021" cy="5.021" r="5.021" transform="translate(313.044 230.54)"/><path class="c" d="M859.524,589.224c0-6.471-24.354-11.716-54.4-11.716s-54.4,5.245-54.4,11.716c0,4.147,10.013,7.788,25.106,9.87v64.192a5.44,5.44,0,0,0,10.879,0V600.25c5.751.446,11.948.69,18.411.69s12.66-.244,18.411-.69v63.036a5.44,5.44,0,0,0,10.879,0V599.094C849.512,597.012,859.524,593.371,859.524,589.224Z" transform="translate(-314.67 -272.488)"/><circle class="e" cx="23.432" cy="23.432" r="23.432" transform="translate(473.04 162.635)"/><path class="i" d="M520.625,454.191h-10.26l-4.881-39.573h15.142Z" transform="translate(-82.465 -67.641)"/><path class="e" d="M500.131,458.4h19.787v12.458H487.673A12.458,12.458,0,0,1,500.131,458.4Z" transform="translate(-79.559 -74.784)"/><path class="i" d="M502.531,446.82l-9.789-3.072,7.19-39.219,14.448,4.533Z" transform="translate(-80.386 -65.995)"/><path class="e" d="M12.458,0H32.245V12.458H0A12.458,12.458,0,0,1,12.458,0Z" transform="translate(394.351 369.031) rotate(17.423)"/><path class="e" d="M735.886,633.092a3.732,3.732,0,0,1-1.316-.239l-7.548-2.83a3.779,3.779,0,0,1-2.355-4.338c1.9-8.544,8.377-37.634,11.923-53.237,4.206-18.507,65.562-21.946,68.172-22.084l.215-.011,6.9,8.673c2.494,8.016,1.7,14.269-2.35,18.585C797.7,590.2,762.391,582.39,758.18,581.4l-18.768,49.267A3.777,3.777,0,0,1,735.886,633.092Z" transform="translate(-310.404 -268.058)"/><path class="e" d="M748.886,640.092a3.734,3.734,0,0,1-1.315-.239l-7.548-2.83a3.779,3.779,0,0,1-2.355-4.338c1.9-8.544,8.377-37.634,11.923-53.237,4.206-18.507,65.562-21.946,68.172-22.084l.215-.011,6.9,8.673c2.494,8.016,1.7,14.269-2.35,18.585C810.7,597.2,775.391,589.39,771.18,588.4l-18.768,49.267A3.777,3.777,0,0,1,748.886,640.092Z" transform="translate(-312.525 -269.2)"/><path class="i" d="M721.918,511.524a8.815,8.815,0,0,1,.741,1.173l41.274,4.349,5.941-8.146,13.466,7.36-11.67,19.768-50.619-12.906a8.784,8.784,0,1,1,.867-11.6Z" transform="translate(-307.395 -261.156)"/><path class="f" d="M830.974,555.762a3.766,3.766,0,0,1-1.715-.419c-8.253-4.2-24.325-11.464-39.227-12.985a3.675,3.675,0,0,1-2.59-1.464,3.782,3.782,0,0,1-.7-2.938c1.345-7.444,4.43-26.4,4.032-41.593a20.584,20.584,0,0,1,15.551-20.476h0a66.838,66.838,0,0,1,8.3-1.635,20.75,20.75,0,0,1,23.063,24.069c-2.658,15.744-5.337,37.734-3.008,53.084a3.771,3.771,0,0,1-1.522,3.639A3.706,3.706,0,0,1,830.974,555.762Z" transform="translate(-320.535 -255.615)"/><path class="f" d="M789.656,517.024a3.764,3.764,0,0,1-1.5-.312l-10.752-4.654a3.771,3.771,0,0,1-1.96-4.952l8.311-19.2a9.624,9.624,0,0,1,17.664,7.645l-8.311,19.2a3.775,3.775,0,0,1-3.457,2.273Z" transform="translate(-318.652 -256.923)"/><circle class="i" cx="20.554" cy="20.554" r="20.554" transform="translate(475.062 170.995)"/><path class="e" d="M796.893,427.083a74.136,74.136,0,0,0,32.073,10.568l-3.381-4.051a24.845,24.845,0,0,0,7.675,1.524,8.4,8.4,0,0,0,6.851-3.207,7.818,7.818,0,0,0,.523-7.222,14.806,14.806,0,0,0-4.658-5.825,27.733,27.733,0,0,0-25.812-4.613,16.575,16.575,0,0,0-7.709,4.945c-1.948,2.4-5.7,4.545-4.7,7.475Z" transform="translate(-322.201 -245.631)"/><path class="e" d="M811.48,406.624A63.171,63.171,0,0,0,788.5,391.762c-5.556-2.058-11.6-3.33-17.411-2.161s-11.3,5.187-12.921,10.886c-1.325,4.66.043,9.677,2.1,14.064s4.8,8.454,6.464,13a29.682,29.682,0,0,1-29.867,39.8c5.707.765,10.967,3.447,16.545,4.875s12.162,1.331,16.307-2.666c4.386-4.228,4.474-11.1,4.262-17.191l-.946-27.152c-.161-4.616-.3-9.379,1.366-13.687s5.621-8.08,10.239-8.041c3.5.03,6.6,2.15,9.405,4.241s5.778,4.322,9.265,4.633,7.467-2.269,7.206-5.76" transform="translate(-312.407 -241.76)"/><path class="a" d="M482.2,281.087l47.327,1.117L536.38,332.8l-43.707.981Z" transform="translate(-78.666 -45.857)"/><path class="i" d="M768.918,509.524a8.793,8.793,0,0,1,.741,1.173l41.274,4.349,5.941-8.146,13.466,7.36-11.67,19.768-50.619-12.906a8.784,8.784,0,1,1,.867-11.6Z" transform="translate(-315.062 -260.829)"/><path class="f" d="M836.656,518.024a3.762,3.762,0,0,1-1.5-.312l-10.752-4.654a3.771,3.771,0,0,1-1.96-4.952l8.311-19.2a9.624,9.624,0,0,1,17.664,7.645l-8.311,19.2a3.775,3.775,0,0,1-3.457,2.273Z" transform="translate(-326.32 -257.086)"/><path class="g" d="M657.241,524.508H324.172a5.44,5.44,0,0,0,0,10.879H333.8V653.8a5.44,5.44,0,1,0,10.879,0V545.839L405.657,656.37a5.44,5.44,0,0,0,9.422-5.44L351.331,535.387H642.6v.07L578.887,650.931a5.439,5.439,0,1,0,9.421,5.44l54.288-98.4V653.8a5.44,5.44,0,1,0,10.879,0V538.255l1.583-2.868h2.183a5.44,5.44,0,0,0,0-10.879Z" transform="translate(-244.193 -263.841)"/><path class="g" d="M848.507,686.586H230.659a1,1,0,1,1,0-1.993H848.507a1,1,0,0,1,0,1.993Z" transform="translate(-229.662 -289.958)"/></g></svg>