<svg xmlns="http://www.w3.org/2000/svg" width="409.248" height="388.618" viewBox="0 0 409.248 388.618"><defs><style>.a,.k{fill:#2039cc;}.b{opacity:0.15;}.c,.h,.j,.p{fill:#fff;}.d{opacity:0.3;}.e{fill:#455a64;}.f{fill:#37474f;}.g{fill:#263238;}.h{opacity:0.65;}.i{fill:#fafafa;}.j{opacity:0.8;}.k{opacity:0.2;}.l,.m{opacity:0.1;}.n{fill:#ffa8a7;}.o{fill:#f28f8f;}.p{opacity:0.7;}.q{fill:#f0f0f0;}</style></defs><g transform="translate(-17.86 -15.319)"><g transform="translate(17.86 210.148)"><g transform="translate(0 23.932)"><path class="a" d="M74.754,320.323s-.272-19.388-8.327-35.217-20.233-26.417-32.365-28.6-23.121,8.082-10.807,17.109,34.763,19.216,42.582,49.166Z" transform="translate(-17.86 -256.214)"/><path class="b" d="M74.754,320.323s-.272-19.388-8.327-35.217-20.233-26.417-32.365-28.6-23.121,8.082-10.807,17.109,34.763,19.216,42.582,49.166Z" transform="translate(-17.86 -256.214)"/><path class="c" d="M72.643,315.539a.319.319,0,0,0,.127,0,.645.645,0,0,0,.445-.808c-9.735-33.055-32.974-48.766-43.907-52.453a.654.654,0,0,0-.418,1.235c10.707,3.632,33.482,19.07,43.072,51.581a.645.645,0,0,0,.681.445Z" transform="translate(-18.837 -256.769)"/><g transform="translate(1.463 38.303)"><path class="a" d="M76.128,342.534c-4.541,2.588-7.083,4.268-15.338,4.958a43.69,43.69,0,0,1-17.345-2.352c-1.535-.554-3.9-1.762-2.57-3.233.69-.763,8.791-2.052,11.687-5.449A53.445,53.445,0,0,1,41.2,338.475a14.829,14.829,0,0,1-9.853-3.024c-2.679-2.234-4.123-5.567-5.449-8.782-.463-1.1-.908-2.443-.191-3.4a3.433,3.433,0,0,1,1.962-1.044l9.2-2.57c2.007-.427.59-1.744-.163-1.862a17.347,17.347,0,0,0-3.342-.145c-3.514.191-7.392.854-10.262-1.19a8.582,8.582,0,0,1-3.151-5.358c-.145-.727-.754-10.207-.336-10.325a47.09,47.09,0,0,1,7.02-1.217c2.225-.263,4.4-.363,6.611-.663a55.39,55.39,0,0,1,7.556-.49,4.631,4.631,0,0,1,2.488.49,4.014,4.014,0,0,1,1.526,3.06,14.412,14.412,0,0,0,.472,3.487c1.072-.091,1.426-1.5,1.4-2.579s0-2.434.972-2.9a2.579,2.579,0,0,1,1.616,0,44.136,44.136,0,0,1,9.989,3.315,11.469,11.469,0,0,1,3.932,2.679,10.252,10.252,0,0,1,2.016,6.656c.018,2.37-.354,4.722-.2,7.083,1.816-1.653,4.423-6.675,4.622-9.145,3.978,2.552,6.357,7.828,7.074,15.029a72.9,72.9,0,0,1-.291,15.847C76.318,341.562,76.255,342.407,76.128,342.534Z" transform="translate(-19.471 -298.393)"/><path class="d" d="M76.128,342.534c-4.541,2.588-7.083,4.268-15.338,4.958a43.69,43.69,0,0,1-17.345-2.352c-1.535-.554-3.9-1.762-2.57-3.233.69-.763,8.791-2.052,11.687-5.449A53.445,53.445,0,0,1,41.2,338.475a14.829,14.829,0,0,1-9.853-3.024c-2.679-2.234-4.123-5.567-5.449-8.782-.463-1.1-.908-2.443-.191-3.4a3.433,3.433,0,0,1,1.962-1.044l9.2-2.57c2.007-.427.59-1.744-.163-1.862a17.347,17.347,0,0,0-3.342-.145c-3.514.191-7.392.854-10.262-1.19a8.582,8.582,0,0,1-3.151-5.358c-.145-.727-.754-10.207-.336-10.325a47.09,47.09,0,0,1,7.02-1.217c2.225-.263,4.4-.363,6.611-.663a55.39,55.39,0,0,1,7.556-.49,4.631,4.631,0,0,1,2.488.49,4.014,4.014,0,0,1,1.526,3.06,14.412,14.412,0,0,0,.472,3.487c1.072-.091,1.426-1.5,1.4-2.579s0-2.434.972-2.9a2.579,2.579,0,0,1,1.616,0,44.136,44.136,0,0,1,9.989,3.315,11.469,11.469,0,0,1,3.932,2.679,10.252,10.252,0,0,1,2.016,6.656c.018,2.37-.354,4.722-.2,7.083,1.816-1.653,4.423-6.675,4.622-9.145,3.978,2.552,6.357,7.828,7.074,15.029a72.9,72.9,0,0,1-.291,15.847C76.318,341.562,76.255,342.407,76.128,342.534Z" transform="translate(-19.471 -298.393)"/><path class="c" d="M76.019,342.158a.554.554,0,0,1-.481-.291c-12.886-24.737-41.383-35.162-48.312-36.6a.548.548,0,0,1,.227-1.072c7.029,1.462,35.971,12.042,49.038,37.169a.536.536,0,0,1-.227.726A.5.5,0,0,1,76.019,342.158Z" transform="translate(-20.144 -298.925)"/><path class="c" d="M39.765,329.46a.554.554,0,0,1-.545-.509.536.536,0,0,1,.5-.581c14.221-1.117,18.816-6.684,18.862-6.738a.545.545,0,0,1,.854.672c-.191.245-4.877,5.994-19.624,7.147Z" transform="translate(-21.286 -300.512)"/></g></g><g transform="translate(363.977)"><path class="a" d="M456.2,252.054c-6.3,6.893-17.863,18.235-24.583,29.187a.377.377,0,0,0-.045.082c-2.625,4.3-4.541,8.527-5.022,12.4l-.472,7-2.879-1.662-.481-.281-1.19-.681h0a5.694,5.694,0,0,1-2.833-4.768,87.3,87.3,0,0,1,8.518-40.366c6.039-12,17.354-24.229,27.189-23.03C463.585,231.059,465.029,242.447,456.2,252.054Z" transform="translate(-418.664 -229.86)"/><path class="b" d="M456.2,252.054c-6.3,6.893-17.863,18.235-24.583,29.187a.377.377,0,0,0-.045.082c-2.625,4.3-4.541,8.527-5.022,12.4l-.472,7-2.879-1.662-.481-.281-1.19-.681h0a5.694,5.694,0,0,1-2.833-4.768,87.3,87.3,0,0,1,8.518-40.366c6.039-12,17.354-24.229,27.189-23.03C463.585,231.059,465.029,242.447,456.2,252.054Z" transform="translate(-418.664 -229.86)"/><path class="c" d="M451.891,237.13c-12.042,7.61-29.232,34.136-28.842,62.224l-1.19-.681c-.1-28.261,17.254-54.85,29.4-62.542a.592.592,0,0,1,.636,1Z" transform="translate(-418.958 -230.428)"/><path class="a" d="M463.839,278.065c-2.1,5.694-14.067,10.634-22.9,18.853a57.355,57.355,0,0,0-6.066,6.584,5.558,5.558,0,0,1-7.165,1.38h0l-1.053-.608h-.073l-2.879-1.662a58.12,58.12,0,0,1,8.373-17.745.375.375,0,0,1,.045-.082c5.848-8.482,13.068-14.612,18.108-16C460.134,266.023,466.354,271.226,463.839,278.065Z" transform="translate(-419.127 -233.367)"/><path class="d" d="M463.839,278.065c-2.1,5.694-14.067,10.634-22.9,18.853a57.355,57.355,0,0,0-6.066,6.584,5.558,5.558,0,0,1-7.165,1.38h0l-1.053-.608h-.073l-2.879-1.662a58.12,58.12,0,0,1,8.373-17.745.375.375,0,0,1,.045-.082c5.848-8.482,13.068-14.612,18.108-16C460.134,266.023,466.354,271.226,463.839,278.065Z" transform="translate(-419.127 -233.367)"/><path class="c" d="M455.719,275.192c-7.265,2.043-21.259,10.9-27.716,30.24l-1.053-.608c6.548-19.606,20.487-28.524,28.451-30.767a.59.59,0,1,1,.318,1.135Z" transform="translate(-419.426 -233.918)"/></g></g><g transform="translate(60.505 15.319)"><path class="e" d="M73.1,346.5a11.3,11.3,0,0,0,5.267,8.745l114.686,66.229a11.642,11.642,0,0,0,10.534,0L405.525,304.882a9.9,9.9,0,0,0,0-17.5l-114.677-66.22a11.642,11.642,0,0,0-10.534,0L78.367,337.756A11.3,11.3,0,0,0,73.1,346.5Z" transform="translate(-65.581 -34.117)"/><path class="f" d="M423.5,303.029a11.315,11.315,0,0,1-5.267,8.745L216.257,428.367a10.9,10.9,0,0,1-5.267,1.253V418.214a10.9,10.9,0,0,0,5.267-1.262L418.2,300.359c2.543-1.462,2.861-3.741.953-5.449C421.6,296.853,423.5,300.232,423.5,303.029Z" transform="translate(-78.25 -41.009)"/><path class="g" d="M198.329,423.29v11.4a10.779,10.779,0,0,1-5.267-1.253L78.367,367.2a9.867,9.867,0,0,1-.536-17.154c-2.361,1.689-2.179,4.177.536,5.748l114.686,66.229a10.78,10.78,0,0,0,5.276,1.262Z" transform="translate(-65.581 -46.075)"/><path class="f" d="M67.4,319.14c-2.579-1.816-2.579-4.232-2.579-7.592V141.839a11.615,11.615,0,0,1,5.267-9.081L272.034,16.128c2.915-1.68,5.594-.463,8.327,1.108s4.468,2.942,4.468,6.293V193.238a11.66,11.66,0,0,1-5.267,9.081L77.606,318.958C73.2,321.973,70.2,321.119,67.4,319.14Z" transform="translate(-64.82 -15.319)"/><path class="g" d="M77.606,331.235c-4.4,2.96-7.41,2.161-10.207.182-2.57-1.816-2.579-4.232-2.579-7.592v-169.7a10.779,10.779,0,0,1,1.535-5.185l7.519,4.368a10.67,10.67,0,0,0-1.535,5.176V328.193C72.339,331.526,74.691,332.906,77.606,331.235Z" transform="translate(-64.82 -27.597)"/><path class="e" d="M284.977,23.529c0-3.351-2.361-4.713-5.267-3.042L77.763,137.089a10.589,10.589,0,0,0-3.723,3.932l-7.519-4.368h0a10.9,10.9,0,0,1,3.732-3.941L272.19,16.128c2.906-1.68,5.594-.463,8.318,1.108S284.977,20.178,284.977,23.529Z" transform="translate(-64.976 -15.319)"/><path class="g" d="M81.68,144.685,276.4,32.3c1.744-1.008,3.16-.191,3.16,1.816V189.782a6.993,6.993,0,0,1-3.16,5.449L81.68,307.637c-1.744,1.008-3.16.191-3.16-1.816V150.152a6.974,6.974,0,0,1,3.16-5.467Z" transform="translate(-66.079 -16.839)"/><path class="a" d="M81.68,144.8a6.974,6.974,0,0,0-3.16,5.449V304.978l193.556-111.7a6.992,6.992,0,0,0,3.16-5.449V33.07Z" transform="translate(-66.079 -16.95)"/><path class="h" d="M81.68,144.8a6.974,6.974,0,0,0-3.16,5.449V304.978l193.556-111.7a6.992,6.992,0,0,0,3.16-5.449V33.07Z" transform="translate(-66.079 -16.95)"/><path class="f" d="M94.885,338.988l187.408-108.2a5.794,5.794,0,0,1,5.267,0l5.449,2.861c1.453.845,1.453,2.207,0,3.042l-187.472,108.2a5.794,5.794,0,0,1-5.267,0l-5.449-2.842C93.387,341.2,93.387,339.842,94.885,338.988Z" transform="translate(-67.478 -35.059)"/><path class="g" d="M111.015,348.628,298.46,240.4a5.449,5.449,0,0,1,4.813-.263l48.793,28.152c1.2.7,1,1.943-.454,2.779L164.385,379.132a5.394,5.394,0,0,1-4.822.272L110.57,351.4C109.362,350.708,109.562,349.464,111.015,348.628Z" transform="translate(-68.951 -35.936)"/><path class="e" d="M272.332,285.8l5.866-3.387c.245-.145.281-.354.082-.472l-5.176-3a.908.908,0,0,0-.826.055l-5.866,3.387c-.245.145-.281.354-.082.472l5.176,2.988A.908.908,0,0,0,272.332,285.8ZM264.158,274.3l-5.876,3.387c-.245.145-.282.354-.082.472l5.185,2.988a.908.908,0,0,0,.817-.045l5.866-3.387c.254-.145.291-.354.082-.472l-5.176-2.988a.908.908,0,0,0-.835.082Zm-18.98,10.988-9.935,5.73c-.245.145-.281.354-.082.472l5.176,2.988a.908.908,0,0,0,.826-.045l9.926-5.73c.254-.145.291-.363.082-.481L246,285.23A.908.908,0,0,0,245.179,285.285Zm10.38-6-5.866,3.387c-.254.145-.291.363-.082.481l5.176,2.988a.908.908,0,0,0,.817-.045l5.876-3.387c.245-.145.281-.363.082-.481l-5.176-2.988A.908.908,0,0,0,255.559,279.282Zm-23.021,13.295-5.885,3.387c-.254.145-.291.363-.091.472l5.185,3a.908.908,0,0,0,.817-.055l5.866-3.387c.254-.145.291-.354.082-.472l-5.176-2.988a.908.908,0,0,0-.8.045Zm-8.609,4.958-5.866,3.387c-.254.136-.291.354-.082.472l5.176,2.988a.908.908,0,0,0,.817,0L229.85,301c.245-.145.282-.363.082-.481l-5.176-2.988A.908.908,0,0,0,223.929,297.536Zm21.795,13.077,5.866-3.4c.254-.136.291-.354.082-.472l-5.176-2.988a.908.908,0,0,0-.817.045l-5.866,3.387c-.254.145-.291.363-.082.481l5.176,2.988A.908.908,0,0,0,245.724,310.612Zm-8.573,4.949L243,312.138c.245-.145.281-.354.082-.472l-5.176-2.988a.908.908,0,0,0-.826,0l-5.885,3.46c-.245.145-.282.354-.082.472l5.176,2.988a.908.908,0,0,0,.845-.036Zm-8.582,4.949,5.866-3.387c.254-.145.291-.354.082-.472l-5.176-2.988a.908.908,0,0,0-.817.045l-5.876,3.387c-.245.145-.282.354-.073.472l5.176,2.988a.908.908,0,0,0,.8-.045Zm-8.582,4.958,5.876-3.387c.245-.145.282-.363.082-.481l-5.176-2.988a.908.908,0,0,0-.826.045l-5.866,3.387c-.254.145-.291.363-.082.481l5.176,2.988a.908.908,0,0,0,.8-.045Zm43.78-34.681,5.866-3.387c.254-.145.291-.354.082-.472l-5.194-2.942a.908.908,0,0,0-.817.045l-5.875,3.387c-.245.145-.282.354-.082.472l5.176,2.988a.908.908,0,0,0,.826-.091Zm-9.463,14.866,13.086-7.556c.254-.145.291-.354.082-.472l-13.313-7.692a.908.908,0,0,0-.826.045l-6.765,3.914c-.254.145-.291.354-.082.472l7.4,4.268c.2.118.163.336-.082.481l-5.449,3.124c-.245.145-.282.354-.082.472l5.176,2.988a.908.908,0,0,0,.835-.045Zm-38.9-3.169-5.876,3.387c-.245.145-.282.354-.082.472l5.176,2.988a.908.908,0,0,0,.826-.045l5.866-3.387c.254-.145.291-.354.082-.472l-5.176-2.988a.908.908,0,0,0-.835.045Zm-8.582,4.949-5.866,3.387c-.254.145-.291.363-.082.481l5.176,2.988a.908.908,0,0,0,.817-.054l5.876-3.387c.245-.136.281-.354.082-.472l-5.24-2.988a.908.908,0,0,0-.781.045Zm-47.712,52.743a.908.908,0,0,0,.817,0l5.876-3.387c.245-.145.281-.354.082-.472l-5.176-2.988a.908.908,0,0,0-.826.045L154,356.717c-.245.145-.282.354-.082.472Zm-20.887-13.122-5.876,3.387c-.245.145-.281.354-.082.472l5.176,2.988a.908.908,0,0,0,.826-.045l5.866-3.387c.254-.145.291-.354.082-.472l-5.176-2.988a.908.908,0,0,0-.854.045Zm10.525,9.726a.908.908,0,0,0,.817-.045l5.876-3.387c.245-.145.282-.354.082-.472l-5.176-3a.908.908,0,0,0-.826.054l-5.866,3.387c-.254.145-.291.354-.082.472Zm23.874,5.449,5.866-3.387c.254-.145.291-.363.082-.481l-5.176-2.988a.908.908,0,0,0-.817.045l-5.857,3.4c-.254.136-.291.354-.082.472l5.176,2.988a.908.908,0,0,0,.772-.045Zm-9.4,4.995a.908.908,0,0,0,.826-.045l5.866-3.387c.245-.145.282-.354.082-.472l-5.176-2.988a.908.908,0,0,0-.826.045l-5.866,3.387c-.245.145-.282.354-.082.472Zm-16.482-25.118-5.866,3.387c-.254.145-.291.354-.082.472l5.176,2.988a.908.908,0,0,0,.817-.045l5.876-3.387c.245-.145.281-.354.082-.472l-5.176-3A.908.908,0,0,0,146.739,342.106Zm42.89-24.764-5.866,3.387c-.254.145-.291.354-.082.472l5.176,2.988a.908.908,0,0,0,.817,0l5.866-3.387c.254-.145.291-.354.082-.472l-5.176-2.988a.908.908,0,0,0-.8,0Zm-34.309,19.806-5.857,3.387c-.245.145-.282.363-.082.481L154.558,344a.908.908,0,0,0,.826,0l5.885-3.442c.254-.136.291-.354.082-.472l-5.176-2.988a.908.908,0,0,0-.835.045ZM198.2,312.392l-5.848,3.378c-.245.136-.282.354-.082.472l5.176,2.988a.908.908,0,0,0,.826-.045l5.866-3.387c.245-.145.282-.363.082-.481l-5.176-2.988a.908.908,0,0,0-.826.064Zm-17.154,9.9-5.866,3.387c-.245.145-.282.363-.082.481l5.176,2.988a.908.908,0,0,0,.826-.055l5.866-3.387c.245-.136.282-.354.082-.472l-5.176-2.988a.908.908,0,0,0-.808.045Zm-8.573,4.958-5.866,3.387c-.254.145-.291.354-.082.472L171.7,334.1a.908.908,0,0,0,.817-.045l5.866-3.387c.254-.145.291-.363.082-.472l-5.176-3a.908.908,0,0,0-.8.054Zm-8.582,4.949-5.866,3.387c-.245.145-.282.354-.082.472l5.176,2.988a.908.908,0,0,0,.826-.045l5.866-3.387c.245-.145.282-.354.082-.472l-5.176-2.988a.908.908,0,0,0-.808.045Zm38.9,3.169,5.876-3.387c.245-.145.282-.354.082-.472l-5.167-3.024a.908.908,0,0,0-.817,0l-5.866,3.387c-.254.145-.291.354-.082.472l5.176,3a.908.908,0,0,0,.817.027Zm80.287-71.986-5.876,3.4c-.245.136-.282.354-.082.472l5.185,2.988a.908.908,0,0,0,.817-.045L289,266.8c.254-.145.291-.363.082-.481l-5.176-2.988a.908.908,0,0,0-.8.045Zm-10.389,6-5.866,3.387c-.245.145-.282.354-.082.472l5.176,2.988a.908.908,0,0,0,.817,0l5.876-3.387c.245-.145.281-.354.082-.472l-5.176-3a.908.908,0,0,0-.808.009Zm18.961-10.952-5.866,3.387c-.245.145-.282.363-.082.481l5.176,2.988a.908.908,0,0,0,.817-.054l5.876-3.387c.245-.145.282-.354.082-.472l-5.176-2.988a.908.908,0,0,0-.808.045Zm-47.749,43.826,5.866-3.387c.245-.145.282-.354.082-.472l-5.176-2.988a.908.908,0,0,0-.826.045l-5.866,3.387c-.245.145-.282.354-.082.472l5.176,2.988A.908.908,0,0,0,243.907,302.258Zm57.211-48.82a.908.908,0,0,0-.817,0l-5.866,3.387c-.254.145-.291.354-.082.472l5.176,2.988a.908.908,0,0,0,.817-.045l5.866-3.387c.254-.145.291-.354.082-.472ZM211.4,330.418l5.866-3.387c.254-.145.291-.354.082-.472l-5.176-2.988a.908.908,0,0,0-.817.045L205.476,327c-.245.145-.282.354-.082.472l5.176,2.988A.908.908,0,0,0,211.4,330.418Zm105.16-60.735,5.866-3.387c.254-.145.291-.354.082-.472l-5.176-2.988a.908.908,0,0,0-.817.045l-5.866,3.387c-.254.145-.291.354-.082.472l5.176,3a.908.908,0,0,0,.817-.055Zm-16.718.254,5.866-3.387c.254-.145.291-.354.082-.472l-5.176-2.988a.908.908,0,0,0-.817.045l-5.866,3.387c-.254.145-.291.354-.082.472l5.176,2.988a.908.908,0,0,0,.845-.045Zm9.354-11.806a.908.908,0,0,0-.826.045l-5.866,3.4c-.245.136-.282.354-.082.472l5.176,2.988a.908.908,0,0,0,.826-.045l5.866-3.387c.245-.145.282-.363.082-.481Zm1.816-1.044,13.313,7.692a.908.908,0,0,0,.826-.045l5.866-3.387c.245-.145.281-.354.082-.472l-13.322-7.692a.908.908,0,0,0-.817,0l-5.848,3.433c-.254.127-.291.354-.082.472Zm-19.788,11-5.866,3.387c-.245.145-.291.354-.082.472l5.176,3a.908.908,0,0,0,.826-.054l5.866-3.387c.245-.145.282-.354.082-.472l-5.176-2.988a.908.908,0,0,0-.808.045Zm-64.567,37.278-5.866,3.387c-.254.145-.291.354-.082.472l5.176,2.988a.908.908,0,0,0,.817-.045l5.875-3.387c.245-.145.282-.363.082-.472l-5.176-3a.908.908,0,0,0-.826.054Zm80.5-30.676a.908.908,0,0,0,.826-.045l5.866-3.387c.245-.145.282-.363.082-.481l-5.176-2.988a.908.908,0,0,0-.826,0l-5.839,3.487c-.245.136-.282.354-.082.472Zm-71.923,25.718-5.857,3.387c-.245.145-.282.363-.073.481l5.176,2.988a.908.908,0,0,0,.817-.045l5.866-3.4c.254-.136.291-.354.082-.472l-5.176-2.988a.908.908,0,0,0-.808.045Zm-67.573,54.823a.908.908,0,0,0,.817-.045l5.866-3.387c.254-.145.291-.363.082-.481l-5.176-2.988a.908.908,0,0,0-.817,0l-5.866,3.4c-.254.136-.291.354-.082.472Zm-9.626-10.253-5.848,3.387c-.245.145-.282.363-.082.481l5.176,2.988a.908.908,0,0,0,.826,0l5.866-3.4c.254-.136.291-.354.082-.472l-5.176-2.988a.908.908,0,0,0-.817,0Zm19.025,5.249,5.866-3.387c.245-.145.282-.354.082-.472l-5.176-2.988a.908.908,0,0,0-.826.045l-5.866,3.387c-.245.145-.281.354-.082.472l5.176,3a.908.908,0,0,0,.854-.055Zm8.573-4.949,5.866-3.387c.254-.145.291-.354.082-.472l-5.176-2.988a.908.908,0,0,0-.817.045l-5.866,3.387c-.254.145-.291.354-.082.472l5.176,2.988a.908.908,0,0,0,.845-.045Zm8.582-4.949,5.866-3.387c.245-.145.281-.363.082-.481l-5.176-2.988a.908.908,0,0,0-.826.045l-5.866,3.4c-.245.136-.282.354-.082.472l5.176,2.988a.908.908,0,0,0,.854-.082Zm-27.607-.3-5.866,3.387c-.245.145-.282.354-.082.472l5.176,2.988a.908.908,0,0,0,.826-.045l5.866-3.387c.245-.145.282-.354.082-.472l-5.176-2.988a.908.908,0,0,0-.8.045Zm8.582-4.949-5.839,3.4c-.254.145-.291.354-.082.472l5.176,2.988a.908.908,0,0,0,.817-.045l5.866-3.387c.254-.145.291-.354.082-.472l-5.176-3a.908.908,0,0,0-.817.045ZM209.5,315.262l-5.866,3.387c-.254.145-.291.363-.082.481l5.176,2.988a.908.908,0,0,0,.817-.045l5.876-3.4c.245-.136.282-.354.082-.472l-5.194-2.988a.908.908,0,0,0-.781.045Zm-8.582,4.958-5.866,3.387c-.245.145-.282.354-.082.472l5.176,2.988a.908.908,0,0,0,.826-.045l5.866-3.387c.245-.145.291-.354.082-.472l-5.176-3a.908.908,0,0,0-.8.054Zm17.191-9.9-5.876,3.387c-.245.145-.282.354-.082.472l5.176,2.988a.908.908,0,0,0,.826,0l5.866-3.387c.254-.145.291-.354.082-.472l-5.176-2.988A.908.908,0,0,0,218.108,310.322Zm-34.318,19.8-5.866,3.387c-.245.145-.282.363-.082.481l5.176,2.988a.908.908,0,0,0,.826-.045l5.866-3.4c.245-.136.282-.354.082-.472l-5.176-2.988A.908.908,0,0,0,183.79,330.119Zm8.582-4.949-5.866,3.387c-.254.145-.291.354-.082.472l5.176,2.988a.908.908,0,0,0,.817-.045l5.866-3.387c.254-.145.291-.354.082-.472l-5.176-2.988a.908.908,0,0,0-.817.045Zm-11.206,32.1,5.866-3.387c.245-.145.282-.354.082-.472l-5.176-2.988a.908.908,0,0,0-.826,0l-5.866,3.387c-.245.145-.281.354-.082.472l5.176,3A.954.954,0,0,0,181.166,357.271Zm-45.56-2.325-5.213-2.988a.908.908,0,0,0-.817,0l-5.866,3.387c-.254.145-.291.363-.082.481l5.176,2.988a.908.908,0,0,0,.817-.045l5.876-3.4C135.769,355.283,135.842,355.065,135.605,354.947Zm11.3,2.879-5.176-2.988a.908.908,0,0,0-.817.045l-9.081,5.213c-.245.145-.282.354-.082.472l5.176,2.988a.908.908,0,0,0,.826-.045l9.027-5.213c.3-.145.336-.354.127-.472Zm-18.925-8.845-5.176-2.988a.908.908,0,0,0-.817.054l-7.265,4.168c-.245.145-.282.354-.082.472l5.176,2.988a.908.908,0,0,0,.826-.045l7.265-4.168c.245-.145.281-.363.073-.481Zm5.54-3.2a.908.908,0,0,0,.817-.045l5.876-3.387c.245-.145.282-.354.082-.472l-5.176-2.988a.908.908,0,0,0-.826.045l-5.866,3.387c-.254.145-.291.354-.082.472ZM157.3,361.222l-5.176-2.988a.908.908,0,0,0-.817.045l-11.288,6.529c-.254.145-.291.354-.082.472l5.176,2.988a.908.908,0,0,0,.817-.045l11.288-6.52c.254-.154.291-.363.082-.481Zm4.077,7.047-5.176-2.988a.908.908,0,0,0-.817.045l-7.265,4.168c-.245.145-.282.363-.082.481l5.176,2.988a.908.908,0,0,0,.826-.054l7.22-4.168c.291-.145.327-.354.118-.472Zm35.916-59.3a.908.908,0,0,0,.817-.045l5.876-3.4c.245-.136.282-.354.082-.472l-5.176-2.988a.908.908,0,0,0-.826,0l-5.866,3.387c-.254.145-.291.363-.082.481Zm-17.154,9.9a.908.908,0,0,0,.817-.045l5.876-3.387c.245-.145.282-.354.082-.472l-5.185-2.988a.908.908,0,0,0-.817.045l-5.866,3.387c-.254.145-.291.354-.082.472ZM142.1,340.835a.908.908,0,0,0,.817-.045l5.866-3.387c.254-.145.291-.363.082-.472l-5.176-3a.908.908,0,0,0-.817.054L137,337.375c-.254.145-.291.354-.082.472Zm46.614-26.88a.908.908,0,0,0,.826,0l5.866-3.387c.254-.145.291-.363.082-.481L190.31,307.1a.908.908,0,0,0-.817.054l-5.876,3.387c-.245.145-.282.354-.082.472Zm-17.154,9.908a.908.908,0,0,0,.826-.045l5.866-3.4c.245-.136.282-.354.082-.472l-5.176-2.988a.908.908,0,0,0-.826.045l-5.866,3.387c-.245.145-.282.363-.082.481Zm-5.449,45.115a.908.908,0,0,0-.826.045l-9.027,5.213c-.254.145-.291.354-.082.472l5.176,2.988a.908.908,0,0,0,.817,0l9.081-5.213c.245-.145.282-.354.082-.472Zm-6.9-38.014a.908.908,0,0,0,.817-.045l5.866-3.387c.254-.145.291-.354.082-.472l-5.176-2.988a.908.908,0,0,0-.817,0l-5.866,3.387c-.254.145-.291.354-.082.472Zm-8.582,4.958a.908.908,0,0,0,.826,0l5.866-3.4c.245-.136.281-.354.082-.472l-5.176-2.988a.908.908,0,0,0-.826.045l-5.866,3.387c-.245.145-.282.363-.082.481Zm174.358-58.7a.954.954,0,0,0-.826.054l-14.439,8.337c-.254.145-.291.354-.082.472l5.176,2.988a.908.908,0,0,0,.817-.045l14.548-8.373c.245-.145.291-.354.082-.472Zm-18.961,10.952a.908.908,0,0,0-.817.045l-5.876,3.387c-.245.145-.282.363-.082.481l5.176,2.988a.908.908,0,0,0,.826-.054l5.866-3.387c.254-.136.291-.354.082-.472ZM189.738,352.322l5.875-3.387c.245-.145.282-.354.082-.472l-5.176-3a.908.908,0,0,0-.826.054l-5.866,3.387c-.254.145-.291.354-.082.472l5.176,2.988a.908.908,0,0,0,.817-.045Zm99.212-54.278a.908.908,0,0,0-.826,0l-5.866,3.387c-.245.145-.282.354-.082.472l5.176,2.988a.908.908,0,0,0,.826-.045l5.866-3.387c.245-.145.282-.354.082-.472Zm44.7-25.809a.908.908,0,0,0-.826.045l-5.866,3.387c-.254.145-.291.363-.082.481l5.176,2.988a.908.908,0,0,0,.817-.045l5.876-3.387c.245-.145.281-.363.082-.481Zm13.785-1.962-13.322-7.692a.908.908,0,0,0-.817.045l-5.866,3.4c-.254.136-.291.354-.082.472l13.313,7.683a.908.908,0,0,0,.826-.045l5.866-3.387C347.569,270.6,347.605,270.365,347.433,270.274Zm-90.5,46.314a.908.908,0,0,0-.817.045l-7.265,4.168c-.245.145-.282.354-.082.472l5.176,2.988a.908.908,0,0,0,.826-.045l7.265-4.168c.254-.145.291-.354.082-.472ZM278.6,304.074a.908.908,0,0,0-.817.045l-9.027,5.213c-.254.145-.291.354-.082.472l5.176,2.988a.908.908,0,0,0,.817-.045l9.036-5.213c.245-.145.282-.354.073-.472Zm-41.528,23.974a.908.908,0,0,0-.826.054l-48.3,27.888c-.245.145-.291.354-.082.472l5.176,2.988a.908.908,0,0,0,.817-.045l48.239-27.925c.245-.145.282-.354.082-.472Zm-51.018,29.459a.908.908,0,0,0-.817.045l-7.265,4.168c-.245.145-.282.354-.082.472l5.176,3a.908.908,0,0,0,.826-.054l7.265-4.168c.254-.145.291-.354.082-.472ZM247,322.318a.908.908,0,0,0-.817.045l-7.219,4.168c-.254.145-.291.363-.082.481L244.053,330a.908.908,0,0,0,.817-.045l7.265-4.177c.245-.145.281-.354.073-.472Zm-70.879,40.92a.908.908,0,0,0-.817,0l-7.22,4.177c-.254.145-.291.354-.082.472l5.176,2.988a.908.908,0,0,0,.817-.045l7.22-4.168c.254-.145.291-.363.082-.481Zm90.748-52.389a.908.908,0,0,0-.826,0l-7.22,4.177c-.245.136-.282.354-.082.472l5.149,3a.908.908,0,0,0,.826-.045l7.265-4.177c.245-.136.281-.354.082-.472Zm30.622-17.781a.908.908,0,0,0-.817.054l-5.866,3.387c-.254.136-.291.354-.082.472l5.176,2.988a.908.908,0,0,0,.817-.045l5.866-3.387c.254-.145.291-.363.082-.481Zm18.626-13.749,5.866-3.387c.254-.145.291-.354.082-.472l-5.176-2.988a.908.908,0,0,0-.817.045l-5.866,3.406c-.254.145-.291.354-.082.472l5.176,3a.908.908,0,0,0,.854-.054Zm-35.244,1.553,5.866-3.4c.254-.136.291-.354.082-.472l-5.176-2.988a.908.908,0,0,0-.817,0l-5.866,3.387c-.254.145-.291.363-.082.481l5.176,2.988a.908.908,0,0,0,.854.018Zm-22.539,31.784,17.154-9.9c.245-.145.282-.363.082-.481l-5.176-2.988a.908.908,0,0,0-.826.045l-17.118,9.953c-.245.145-.281.354-.082.472l5.176,2.988a.908.908,0,0,0,.826-.045ZM306.713,284.3a.908.908,0,0,0,.826-.045l5.866-3.387c.245-.145.281-.363.082-.481l-5.176-2.988a.908.908,0,0,0-.826,0l-5.866,3.4c-.245.136-.281.354-.082.472Zm-7.319-4.749,5.866-3.387c.254-.145.291-.354.082-.472l-5.176-2.988a.908.908,0,0,0-.817.045l-5.866,3.387c-.254.145-.291.354-.082.472l5.176,2.988a.908.908,0,0,0,.854,0Zm-49.647,38.068,5.876-3.4c.245-.136.282-.354.073-.472l-5.176-2.988a.908.908,0,0,0-.817.045l-5.794,3.433c-.254.145-.291.363-.082.481L249,317.7a.908.908,0,0,0,.781-.045Zm38-22.376a.908.908,0,0,0,.826-.045l5.866-3.387c.245-.145.281-.354.082-.472l-5.176-2.988a.908.908,0,0,0-.826,0l-5.866,3.387c-.245.145-.281.354-.082.472Zm-80.9,47.131,5.876-3.387c.245-.145.282-.354.082-.472l-5.176-2.988a.908.908,0,0,0-.826.045l-5.866,3.387c-.254.145-.291.354-.082.472l5.176,2.988a.908.908,0,0,0,.854,0Zm8.582-4.949,5.866-3.387c.254-.145.291-.354.082-.472l-5.176-3a.908.908,0,0,0-.817.054l-5.866,3.387c-.254.145-.291.354-.091.472l5.185,2.988a.908.908,0,0,0,.854,0Zm-17.118,9.953,5.866-3.387c.254-.145.291-.363.082-.481l-5.176-2.988a.908.908,0,0,0-.817.045l-5.876,3.36c-.245.145-.282.363-.082.481l5.176,2.988A.908.908,0,0,0,198.32,347.373Zm34.309-19.8,5.866-3.387c.254-.145.291-.354.082-.472l-5.176-2.988a.908.908,0,0,0-.817.045l-5.866,3.387c-.254.145-.291.354-.082.472l5.176,2.988A.908.908,0,0,0,232.629,327.576Zm-8.573,4.958,5.866-3.4c.245-.136.282-.354.082-.472l-5.176-2.988a.908.908,0,0,0-.826.045l-5.866,3.387c-.245.145-.282.363-.082.481l5.176,2.988a.908.908,0,0,0,.826-.064Zm17.127-9.926,5.866-3.387c.245-.145.282-.354.082-.472l-5.176-3a.908.908,0,0,0-.826.055l-5.866,3.387c-.245.145-.282.354-.082.472l5.176,2.988a.908.908,0,0,0,.826-.045Zm47.422-68.59a.908.908,0,0,0,.817,0l5.876-3.387c.245-.145.281-.363.082-.481l-1.38-.79a.908.908,0,0,0-.817,0l-5.876,3.387c-.245.145-.282.354-.082.472Zm-42.79,26.935a.908.908,0,0,0,.817-.045l5.866-3.387c.254-.145.291-.354.082-.472l-5.176-2.988a.908.908,0,0,0-.817.045l-5.876,3.387c-.245.145-.282.354-.082.472Zm17.163-9.908A.908.908,0,0,0,263.8,271l5.866-3.387c.254-.145.291-.354.082-.472l-5.176-2.988a.908.908,0,0,0-.817,0l-5.866,3.387c-.254.145-.291.354-.082.472ZM235.344,287a.908.908,0,0,0,.826-.045l5.866-3.387c.245-.145.282-.354.082-.472l-5.176-3a.908.908,0,0,0-.826.054l-5.83,3.387c-.245.145-.282.354-.082.472Zm19.07-11a.908.908,0,0,0,.826,0l5.866-3.4c.245-.136.282-.354.082-.472l-5.176-2.988a.908.908,0,0,0-.826.045l-5.866,3.387c-.245.145-.281.363-.082.481Zm-36.207,20.887a.908.908,0,0,0,.817-.045l5.876-3.4c.245-.136.281-.354.082-.472l-5.176-2.988a.908.908,0,0,0-.826.045l-5.866,3.387c-.254.145-.291.363-.082.481Zm8.582-4.958a.908.908,0,0,0,.817,0l5.866-3.387c.254-.145.291-.354.082-.472l-5.176-2.988a.908.908,0,0,0-.817.045l-5.894,3.4c-.254.145-.291.354-.082.472Zm44.661-27.925a.908.908,0,0,0,.817-.055l5.876-3.387c.245-.145.282-.354.082-.472l-1.38-.8a.908.908,0,0,0-.826.055l-5.866,3.387c-.245.145-.281.354-.082.472Zm25.736-14.857A.908.908,0,0,0,298,249.1l5.839-3.433c.254-.145.291-.354.082-.472l-1.371-.8a.908.908,0,0,0-.826.055l-5.866,3.387c-.254.145-.291.354-.082.472Zm10.9,6.275a.908.908,0,0,0,.826-.045l5.866-3.387c.245-.145.281-.363.082-.481l-5.176-2.988a.908.908,0,0,0-.826,0l-5.921,3.4c-.245.136-.282.354-.082.472Zm16.646,18.962L330.6,271c.245-.145.291-.354.082-.472L325.5,267.54a.908.908,0,0,0-.826.045l-5.866,3.387c-.245.145-.281.354-.082.472l5.176,2.988A.908.908,0,0,0,324.73,274.388ZM280.032,259a.908.908,0,0,0,.817-.045l5.866-3.387c.254-.145.291-.354.082-.472l-1.38-.8a.908.908,0,0,0-.817.045l-5.866,3.387c-.254.145-.291.363-.082.481ZM209.6,301.858a.908.908,0,0,0,.826-.045l5.866-3.387c.254-.145.291-.354.082-.472l-5.176-3a.908.908,0,0,0-.817.054L204.5,298.4c-.245.145-.282.354-.082.472Z" transform="translate(-69.385 -36.36)"/><path class="g" d="M248.15,353.071l1.2.69,31.966,18.453L338.154,339.4l1.181-.672L306.17,319.58Z" transform="translate(-81.665 -43.276)"/><path class="f" d="M337.8,339.9,306.344,321.76,250.05,354.271l31.439,18.144Z" transform="translate(-81.839 -43.476)"/></g><g transform="translate(102.166 47.481)"><g transform="translate(83.823)"><path class="a" d="M369.385,62.254c0-2.388-.836-4.077-2.189-4.868s-9.29-5.376-10.67-6.157-3.242-.663-5.312.536L203,137.365V186.4l10.625,6.13,148.2-85.572a16.661,16.661,0,0,0,7.556-13.077Z" transform="translate(-203 -50.735)"/><path class="b" d="M369.385,62.254c0-2.388-.836-4.077-2.189-4.868s-9.29-5.376-10.67-6.157-3.242-.663-5.312.536L203,137.365V186.4l10.625,6.13,148.2-85.572a16.661,16.661,0,0,0,7.556-13.077Z" transform="translate(-203 -50.735)"/><path class="a" d="M362.9,58.516c4.177-2.407,7.556-.454,7.556,4.359V94.5a16.661,16.661,0,0,1-7.556,13.077l-148.25,85.6V144.142Z" transform="translate(-204.07 -51.355)"/><path class="i" d="M361.686,104.09a11.279,11.279,0,0,0,5.085-8.809V66.058c0-2.307-1.626-3.242-3.633-2.1l-145.2,83.9v39.285Z" transform="translate(-204.373 -51.905)"/><path class="e" d="M244.727,171.314a1.536,1.536,0,0,1-.154.672,1.008,1.008,0,0,1-.381.463l-2.506,1.444a.281.281,0,0,1-.381,0,.672.672,0,0,1-.154-.49v-7.755a3.251,3.251,0,0,0-.418-1.871c-.282-.372-.717-.381-1.317,0a3.015,3.015,0,0,0-1.308,1.544,6.584,6.584,0,0,0-.4,2.352v7.755a1.562,1.562,0,0,1-.163.681,1.117,1.117,0,0,1-.381.463l-2.506,1.444a.281.281,0,0,1-.381,0,.672.672,0,0,1-.154-.49V157.311a1.644,1.644,0,0,1,.154-.672,1.008,1.008,0,0,1,.381-.463l2.506-1.453a.3.3,0,0,1,.381,0,.636.636,0,0,1,.163.49v6.529a9.082,9.082,0,0,1,1.053-1.816,5.24,5.24,0,0,1,1.653-1.553,4,4,0,0,1,1.753-.59,1.753,1.753,0,0,1,1.362.481,3.578,3.578,0,0,1,.908,1.662,11,11,0,0,1,.318,2.942Z" transform="translate(-205.859 -60.283)"/><path class="e" d="M252.824,161.113a1.707,1.707,0,0,0,.2.972c.127.173.354.182.654,0l1.6-.908a.282.282,0,0,1,.372,0,.636.636,0,0,1,.163.49v3.1a1.526,1.526,0,0,1-.163.672.908.908,0,0,1-.372.463l-1.9,1.09a3.686,3.686,0,0,1-1.7.572,1.816,1.816,0,0,1-1.308-.445,3.043,3.043,0,0,1-.835-1.417,7.883,7.883,0,0,1-.3-2.352V158.2l-1.471.845a.281.281,0,0,1-.381,0,.672.672,0,0,1-.154-.49v-3.1a1.679,1.679,0,0,1,.154-.672,1.008,1.008,0,0,1,.381-.463l1.471-.854v-4.995a1.525,1.525,0,0,1,.163-.672,1,1,0,0,1,.372-.463l2.515-1.444a.272.272,0,0,1,.372,0,.663.663,0,0,1,.163.49v5.049l2.252-1.3a.273.273,0,0,1,.372,0,.663.663,0,0,1,.163.49v3.1a1.562,1.562,0,0,1-.163.681.99.99,0,0,1-.372.463l-2.252,1.3Z" transform="translate(-207.064 -59.472)"/><path class="e" d="M263.214,155.113a1.707,1.707,0,0,0,.2.972q.2.272.654,0l1.6-.908a.281.281,0,0,1,.372,0,.636.636,0,0,1,.163.49v3.1a1.526,1.526,0,0,1-.163.672.908.908,0,0,1-.372.463l-1.889,1.09a3.75,3.75,0,0,1-1.707.572,1.816,1.816,0,0,1-1.308-.445,3.042,3.042,0,0,1-.835-1.417,8.172,8.172,0,0,1-.3-2.352V152.2l-1.471.845a.263.263,0,0,1-.372,0,.636.636,0,0,1-.163-.49v-3.1a1.553,1.553,0,0,1,.163-.672.989.989,0,0,1,.372-.463l1.471-.854v-4.995a1.553,1.553,0,0,1,.154-.672,1.008,1.008,0,0,1,.381-.463l2.506-1.444a.291.291,0,0,1,.381,0,.709.709,0,0,1,.154.49v5.049l2.252-1.3a.281.281,0,0,1,.381,0,.672.672,0,0,1,.154.49v3.088a1.689,1.689,0,0,1-.154.681,1.053,1.053,0,0,1-.381.463l-2.252,1.3Z" transform="translate(-208.018 -58.921)"/><path class="e" d="M275.187,155.164a3.2,3.2,0,0,1-1.017.4,1.708,1.708,0,0,1-.754,0,1.3,1.3,0,0,1-.545-.282,2.728,2.728,0,0,1-.354-.39v6.529a1.553,1.553,0,0,1-.163.672.909.909,0,0,1-.372.463l-2.516,1.453a.281.281,0,0,1-.372,0,.627.627,0,0,1-.163-.481V143.349a1.553,1.553,0,0,1,.163-.672,1,1,0,0,1,.372-.463l2.416-1.389a.282.282,0,0,1,.372,0,.636.636,0,0,1,.163.49v.7c.118-.272.245-.554.391-.863a5,5,0,0,1,.518-.908,5.667,5.667,0,0,1,1.862-1.671,3.787,3.787,0,0,1,1.689-.563,1.816,1.816,0,0,1,1.389.481,3.7,3.7,0,0,1,.972,1.635,10.081,10.081,0,0,1,.409,2.888V145.5a15.9,15.9,0,0,1-.409,3.36,13.21,13.21,0,0,1-.972,2.724,8.837,8.837,0,0,1-1.389,2.107A7.065,7.065,0,0,1,275.187,155.164Zm.908-7.937a10.825,10.825,0,0,0,0-1.716,3.1,3.1,0,0,0-.454-1.607c-.263-.372-.708-.391-1.335,0a2.723,2.723,0,0,0-.754.654,3.542,3.542,0,0,0-.527.908,5.351,5.351,0,0,0-.336.972,7.344,7.344,0,0,0-.154.981c0,.318,0,.681,0,1.1v1.044a4.164,4.164,0,0,0,.154.8,1.626,1.626,0,0,0,.336.59.763.763,0,0,0,.527.263,1.308,1.308,0,0,0,.754-.227,2.97,2.97,0,0,0,1.335-1.562,6.841,6.841,0,0,0,.436-2.2Z" transform="translate(-209.058 -58.753)"/><path class="e" d="M286.448,137.015a1.617,1.617,0,0,1-.154.672,1.008,1.008,0,0,1-.381.463l-2.606,1.507a.3.3,0,0,1-.381,0,.636.636,0,0,1-.154-.49v-4.041a1.507,1.507,0,0,1,.154-.672,1.008,1.008,0,0,1,.381-.463l2.606-1.507a.3.3,0,0,1,.381,0,.672.672,0,0,1,.154.49Zm0,10.734a1.68,1.68,0,0,1-.154.672,1.008,1.008,0,0,1-.381.463l-2.606,1.507a.3.3,0,0,1-.381,0,.663.663,0,0,1-.154-.49v-4.023a1.534,1.534,0,0,1,.154-.672,1.007,1.007,0,0,1,.381-.463l2.606-1.507a.3.3,0,0,1,.381,0,.709.709,0,0,1,.154.49Z" transform="translate(-210.329 -58.24)"/><path class="e" d="M295.257,119.126a3.752,3.752,0,0,1,.3-.8,1.444,1.444,0,0,1,.581-.627l2.461-1.426a.245.245,0,0,1,.309,0,.517.517,0,0,1,.136.4,1.413,1.413,0,0,1-.045.3l-6.7,28.669a4.273,4.273,0,0,1-.282.772,1.489,1.489,0,0,1-.6.654l-2.461,1.426a.236.236,0,0,1-.309,0,.518.518,0,0,1-.136-.4,1.415,1.415,0,0,1,.045-.3Z" transform="translate(-210.857 -56.752)"/><path class="e" d="M302.781,114.786a3.747,3.747,0,0,1,.3-.8,1.444,1.444,0,0,1,.581-.627l2.47-1.426a.236.236,0,0,1,.309,0,.536.536,0,0,1,.127.4,1.415,1.415,0,0,1-.045.3l-6.7,28.669a4.54,4.54,0,0,1-.282.772,1.489,1.489,0,0,1-.6.654l-2.425,1.4a.236.236,0,0,1-.309,0,.517.517,0,0,1-.136-.4,1.415,1.415,0,0,1,.045-.3Z" transform="translate(-211.551 -56.353)"/><path class="e" d="M317.081,114.28q.3-.177.463,0a.908.908,0,0,1,.218.363l1.471,6.112,1.471-7.81a3.626,3.626,0,0,1,.218-.618,1.1,1.1,0,0,1,.463-.509l2.47-1.426a.245.245,0,0,1,.336,0,.6.6,0,0,1,.136.436,1.332,1.332,0,0,1,0,.263l-3.169,16.019a3.187,3.187,0,0,1-.2.636,1.126,1.126,0,0,1-.454.509l-2.27,1.308q-.3.177-.436,0a1.3,1.3,0,0,1-.218-.4l-1.417-5.612-1.408,7.265a3.406,3.406,0,0,1-.227.645.981.981,0,0,1-.436.5l-2.27,1.317c-.2.109-.345.118-.445,0a.844.844,0,0,1-.209-.4L308,120.519a2.045,2.045,0,0,1,0-.236,1.272,1.272,0,0,1,.145-.6.908.908,0,0,1,.336-.418l2.47-1.426c.2-.109.345-.118.454,0a.8.8,0,0,1,.218.363l1.471,6.112,1.48-7.81a2.671,2.671,0,0,1,.218-.618,1.08,1.08,0,0,1,.454-.509Z" transform="translate(-212.647 -56.211)"/><path class="e" d="M336.021,103.32c.2-.118.354-.118.454,0a.753.753,0,0,1,.218.363l1.48,6.1,1.471-7.8a2.4,2.4,0,0,1,.218-.618,1.153,1.153,0,0,1,.454-.518l2.47-1.417a.263.263,0,0,1,.345,0,.6.6,0,0,1,.136.436,2.388,2.388,0,0,1,0,.254L340.1,116.143a2.663,2.663,0,0,1-.209.645,1.063,1.063,0,0,1-.445.509l-2.27,1.308q-.3.177-.436,0a1.144,1.144,0,0,1-.227-.4l-1.408-5.621-1.417,7.265a4.533,4.533,0,0,1-.218.645,1.017,1.017,0,0,1-.436.5l-2.27,1.317c-.2.109-.354.118-.445,0a.845.845,0,0,1-.209-.4l-3.169-12.369a1.818,1.818,0,0,1,0-.227,1.444,1.444,0,0,1,.136-.608.972.972,0,0,1,.336-.409l2.47-1.426c.2-.109.354-.118.463,0a.908.908,0,0,1,.218.363l1.471,6.112,1.471-7.81a3.631,3.631,0,0,1,.218-.618,1.144,1.144,0,0,1,.463-.509Z" transform="translate(-214.388 -55.204)"/><path class="e" d="M355,92.36q.3-.177.463,0a.781.781,0,0,1,.218.363l1.471,6.1,1.471-7.81a3,3,0,0,1,.227-.608,1.1,1.1,0,0,1,.454-.518l2.47-1.426a.272.272,0,0,1,.336,0,.617.617,0,0,1,.136.445,1.236,1.236,0,0,1,0,.254l-3.16,16.019a3.137,3.137,0,0,1-.209.645,1.063,1.063,0,0,1-.454.5l-2.27,1.317q-.3.177-.436,0a1.409,1.409,0,0,1-.218-.4l-1.435-5.585-1.408,7.265a4.533,4.533,0,0,1-.218.645,1.081,1.081,0,0,1-.445.5l-2.27,1.308c-.191.118-.345.127-.445,0a.99.99,0,0,1-.209-.4l-3.16-12.369a.909.909,0,0,1,0-.227,1.335,1.335,0,0,1,.145-.608.908.908,0,0,1,.336-.409l2.47-1.426c.2-.118.345-.118.454,0a.753.753,0,0,1,.218.363L351,102.413l1.48-7.81a2.535,2.535,0,0,1,.218-.618,1.081,1.081,0,0,1,.454-.509Z" transform="translate(-216.13 -54.196)"/><path class="e" d="M368.377,101.533a1.562,1.562,0,0,1-.163.681,1.035,1.035,0,0,1-.372.463l-2.606,1.5a.291.291,0,0,1-.381,0,.663.663,0,0,1-.163-.49v-4.05a1.553,1.553,0,0,1,.163-.672.954.954,0,0,1,.381-.463l2.606-1.507a.281.281,0,0,1,.372,0,.636.636,0,0,1,.163.49Z" transform="translate(-217.856 -54.979)"/></g><g transform="translate(0 64.535)"><path class="f" d="M198.553,135.74h0l-.073-.045h0l-18.162-10.788h0l-.1-.064h0c-8-4.831-18.68-4.068-30.159,3.433-23.075,15.066-40.656,51.6-39.267,81.6.69,14.957,5.957,25.473,13.931,30.386h0l.073.045h0L142.958,251.1h0l.082.054h0c8,4.84,18.689,4.087,30.186-3.424,23.066-15.057,40.647-51.6,39.267-81.6C211.775,151.168,206.526,140.662,198.553,135.74Z" transform="translate(-110.698 -121.799)"/><path class="g" d="M142.366,255.413l-17.59-10.425h0l-.073-.064c-7.973-4.922-13.24-15.438-13.931-30.367-.618-13.386,2.543-28.052,8.264-41.537l.118-.3,18.053,11.088c-5.73,13.476-8.881,28.152-8.264,41.537C129.607,239.984,134.674,250.364,142.366,255.413Z" transform="translate(-110.696 -126.478)"/><path class="e" d="M175.062,248.82c23.066-15.057,40.647-51.6,39.267-81.6s-21.214-42.128-44.28-27.062-40.656,51.608-39.267,81.613S151.987,263.886,175.062,248.82Z" transform="translate(-112.534 -122.891)"/><path class="a" d="M163.183,242.394a16.964,16.964,0,0,1-8.6-2.252c-7.265-4.177-11.433-13.758-11.433-26.335,0-23.057,14.012-49.946,31.239-59.99,7.828-4.541,15.438-5.14,21.55-1.653,7.265,4.177,11.433,13.767,11.433,26.335,0,23.048-14.012,49.946-31.239,59.936a25.981,25.981,0,0,1-12.95,3.959Zm24.147-88.95a22.576,22.576,0,0,0-11.2,3.424c-16.273,9.472-29.487,35.026-29.487,56.984,0,11.252,3.533,19.733,9.7,23.284,4.94,2.842,11.361,2.252,18.072-1.653,16.273-9.463,29.514-35.026,29.514-56.975,0-11.261-3.533-19.742-9.7-23.293a13.622,13.622,0,0,0-6.9-1.771Z" transform="translate(-113.678 -124.383)"/><path class="a" d="M164.151,185.2a16.5,16.5,0,0,1-10.371-3.569l1.607-2.052c5.313,4.159,12.478,3.978,20.2-.509,7.991-4.65,15.5-13.268,21.15-24.256L199.05,156c-5.866,11.433-13.74,20.424-22.158,25.318a25.645,25.645,0,0,1-12.741,3.878Z" transform="translate(-114.655 -124.832)"/><path class="a" d="M155.706,243.826l-2.316-1.19c5.866-11.424,13.74-20.415,22.158-25.318,8.7-5.058,16.909-5.167,23.112-.309l-1.607,2.052c-5.313-4.159-12.478-3.978-20.2.509C168.864,224.22,161.354,232.838,155.706,243.826Z" transform="translate(-114.619 -130.22)"/><path class="a" d="M173.449,239.607a6.956,6.956,0,0,1-3.524-.981c-6.121-3.514-9.926-16.21-9.926-33.11,0-23.311,7.1-45.687,16.155-50.954a7.174,7.174,0,0,1,7.537-.2c6.121,3.523,9.926,16.21,9.926,33.11,0,23.311-7.1,45.687-16.155,50.964a8.046,8.046,0,0,1-4.014,1.171Zm6.72-83.619a5.3,5.3,0,0,0-2.724.826c-8.055,4.677-14.857,26.98-14.857,48.7,0,17.89,4.332,28.388,8.618,30.876a4.622,4.622,0,0,0,4.931-.191c8.055-4.686,14.857-26.989,14.857-48.711,0-17.89-4.332-28.388-8.618-30.876a4.423,4.423,0,0,0-2.207-.627Z" transform="translate(-115.226 -124.702)"/><rect class="a" width="2.606" height="81.622" transform="translate(60.285 30.986)"/><rect class="a" width="69.922" height="2.593" transform="translate(29.469 87.93) rotate(-30.174)"/></g></g><g transform="translate(335.749 111.036)"><path class="a" d="M408.49,135.94a2.824,2.824,0,0,0-1.081-1.262h0l-2.724-1.562h0c-1.171-.681-2.615,0-3.378.454l-1.689-.972h0c-2.043-1.235-4.895,1.353-5.53,1.971l-.736-.418h0c-.963-.581-2.27-.218-3.442.372v-9.835a2.479,2.479,0,0,0-.963-2.216H388.9l-2.661-1.544h0a2.47,2.47,0,0,0-2.434.254,7.683,7.683,0,0,0-3.469,6.021v30.1a4.257,4.257,0,0,0-.418-.191c-2.37-1.68-4.867-2.67-7.065-2.279a7.5,7.5,0,0,0-4.541,3.124c-1.144,2.025.745,3.3,3.188,6.084s4.541,6.1,6.766,8.173a11.969,11.969,0,0,0,3.8,2.588v3.941l2.679,1.553,20.415-11.806v-3.923s2.534-10.1,3.342-14.321S410.052,139.182,408.49,135.94Z" transform="translate(-367.918 -120.72)"/><path class="j" d="M408.49,135.94a2.824,2.824,0,0,0-1.081-1.262h0l-2.724-1.562h0c-1.171-.681-2.615,0-3.378.454l-1.689-.972h0c-2.043-1.235-4.895,1.353-5.53,1.971l-.736-.418h0c-.963-.581-2.27-.218-3.442.372v-9.835a2.479,2.479,0,0,0-.963-2.216H388.9l-2.661-1.544h0a2.47,2.47,0,0,0-2.434.254,7.683,7.683,0,0,0-3.469,6.021v30.1a4.257,4.257,0,0,0-.418-.191c-2.37-1.68-4.867-2.67-7.065-2.279a7.5,7.5,0,0,0-4.541,3.124c-1.144,2.025.745,3.3,3.188,6.084s4.541,6.1,6.766,8.173a11.969,11.969,0,0,0,3.8,2.588v3.941l2.679,1.553,20.415-11.806v-3.923s2.534-10.1,3.342-14.321S410.052,139.182,408.49,135.94Z" transform="translate(-367.918 -120.72)"/><path class="k" d="M389.932,135.247v3.333h0a14.679,14.679,0,0,1,2.624-1.816Zm12.332-1.453a5.977,5.977,0,0,0-.908.463l.908.509a3.024,3.024,0,0,1,1.28,1.408,6.359,6.359,0,0,1,1.544-.908Zm-6.357,0a11.522,11.522,0,0,0-1.816,1.435l1.762,1.026a.373.373,0,0,1,.1.064,2,2,0,0,1,.69.59h0a11.5,11.5,0,0,1,1.88-1.526ZM380.3,127.81v30.14a16.963,16.963,0,0,1,2.679,1.653V129.354Zm9.617,7.437Zm-8.99,39.185c-2.207-2.052-4.341-5.385-6.756-8.173-2.288-2.624-4.114-3.9-3.36-5.73l-2.724-1.553c-.745,1.816,1.063,3.106,3.36,5.739s4.541,6.093,6.756,8.173a12.087,12.087,0,0,0,3.8,2.588v3.95l2.724,1.544v-3.95a11.923,11.923,0,0,1-3.8-2.624Z" transform="translate(-367.913 -121.372)"/><path class="l" d="M389.932,135.247v3.333h0a14.679,14.679,0,0,1,2.624-1.816Zm12.332-1.453a5.977,5.977,0,0,0-.908.463l.908.509a3.024,3.024,0,0,1,1.28,1.408,6.359,6.359,0,0,1,1.544-.908Zm-6.357,0a11.522,11.522,0,0,0-1.816,1.435l1.762,1.026a.373.373,0,0,1,.1.064,2,2,0,0,1,.69.59h0a11.5,11.5,0,0,1,1.88-1.526ZM380.3,127.81v30.14a16.963,16.963,0,0,1,2.679,1.653V129.354Zm9.617,7.437Zm-8.99,39.185c-2.207-2.052-4.341-5.385-6.756-8.173-2.288-2.624-4.114-3.9-3.36-5.73l-2.724-1.553c-.745,1.816,1.063,3.106,3.36,5.739s4.541,6.093,6.756,8.173a12.087,12.087,0,0,0,3.8,2.588v3.95l2.724,1.544v-3.95a11.923,11.923,0,0,1-3.8-2.624Z" transform="translate(-367.913 -121.372)"/><path class="a" d="M385,180.435v-3.914a11.923,11.923,0,0,1-3.8-2.6c-2.207-2.052-4.341-5.385-6.756-8.173s-4.341-4.059-3.187-6.093a7.51,7.51,0,0,1,4.541-3.115c2.334-.418,4.986.717,7.483,2.57V128.854a7.683,7.683,0,0,1,3.478-6.012h0c1.916-1.108,3.469-.209,3.469,2v13.213s4.795-4.25,6.729-1.644c0,0,4.7-4.922,6.82-.763,0,0,3.46-2.788,5.013.445s.808,10.071,0,14.294-3.369,14.33-3.369,14.33v3.941Z" transform="translate(-368.188 -120.871)"/><path class="h" d="M385,180.435v-3.914a11.923,11.923,0,0,1-3.8-2.6c-2.207-2.052-4.341-5.385-6.756-8.173s-4.341-4.059-3.187-6.093a7.51,7.51,0,0,1,4.541-3.115c2.334-.418,4.986.717,7.483,2.57V128.854a7.683,7.683,0,0,1,3.478-6.012h0c1.916-1.108,3.469-.209,3.469,2v13.213s4.795-4.25,6.729-1.644c0,0,4.7-4.922,6.82-.763,0,0,3.46-2.788,5.013.445s.808,10.071,0,14.294-3.369,14.33-3.369,14.33v3.941Z" transform="translate(-368.188 -120.871)"/><g class="m" transform="translate(22.001 13.958)"><path d="M392.149,145.135s.436-6.03,2.652-7.465h-.073a14.528,14.528,0,0,0-2.579,1.762v-.109a.172.172,0,0,0,0,.109Z" transform="translate(-392.14 -136.235)"/><path d="M399.56,137.676v5.512s.608-5.667,1.88-7.038a11.4,11.4,0,0,0-1.88,1.526Z" transform="translate(-392.822 -136.096)"/><path d="M407.07,136.916h0v5.53s.345-5.576,1.544-6.357A6.574,6.574,0,0,0,407.07,136.916Z" transform="translate(-393.512 -136.09)"/></g></g><g transform="translate(266.136 168.54)"><path class="b" d="M334.7,311.085c-15.683,7.819-22.8,16.028-14.684,21.795s30.213,13.549,30.213,13.549l2.9,9.7,32.093-18.535v-11s-19.806-13.622-27.534-16.292S343.892,306.508,334.7,311.085Z" transform="translate(-293.589 -195.43)"/><path class="n" d="M383.489,365.85s-4.84,11.887-5.095,16.573c-.254,4.877-1.435,6.5-.608,11.806.182,1.153.79,3.469.908,4.413a1.38,1.38,0,0,1-1.253,1.725c-2.125.445-5.639-3.542-7.319-7.873A128.955,128.955,0,0,1,366,377.238a6.684,6.684,0,0,1,.672-3.424,10.254,10.254,0,0,1,.972-1.771c.7-2.125,1.035-6.166,1.626-8.963Z" transform="translate(-298.123 -200.493)"/><path class="g" d="M361.342,383.57a5.087,5.087,0,0,0-.572,1.6c0,.972,2.152,4.186,3.015,5.349a7.837,7.837,0,0,1,1.589,5.558,13.523,13.523,0,0,0,3.26,8.691,21.514,21.514,0,0,0,10.652,6.974c5.149,1.58,6.965-1,6.965-1s1.589-2.479.636-3.5S361.342,383.57,361.342,383.57Z" transform="translate(-297.644 -202.376)"/><path class="e" d="M367.185,373c-.154,0-.436-.045-.835.436-.154.182-1.09,2.5-1.871,3.714s-2.824,3.523-3.079,5.494c1.19,3.814,4.768,6.466,5.3,10.071s.6,7.773,6.13,12.187,11.224,4.858,13.268,3.687,1.816-3.351-.99-7.528c-3.024-4.423-5.067-14.021-5.067-14.03a32.318,32.318,0,0,1-.536-4.077,27.761,27.761,0,0,1,.381-4.041,2.96,2.96,0,0,0-.254-1.816,3.1,3.1,0,0,0-1.526-1.053,13.11,13.11,0,0,0-2.842-.963,4.54,4.54,0,0,0-2.924.354,20.7,20.7,0,0,1-1.816,1.162,2.606,2.606,0,0,1-2.724-.481,2.243,2.243,0,0,1-.736-2.5A6,6,0,0,1,367.185,373Z" transform="translate(-297.702 -201.405)"/><path class="i" d="M370.43,403.75a8.8,8.8,0,0,1,8.019-4.341c5.876,0,7.91,3.015,8.8,4.768,1.072,2.1,2.179,5.894-.245,6.983-2.624,1.171-5.658.808-10.425-1.58S370.43,403.75,370.43,403.75Z" transform="translate(-298.531 -203.831)"/><path class="i" d="M371.574,384.525a.617.617,0,0,0,.536,0c.908-.463,5.712-1.462,8.509,1.126.354-.291.282-.817-.182-1.562-3.269-2.08-7.819-1.153-8.909-.6a.554.554,0,0,0-.227.781.59.59,0,0,0,.272.254Z" transform="translate(-298.604 -202.305)"/><path class="i" d="M381.3,389.441a1.816,1.816,0,0,0-.336-1.617,11.007,11.007,0,0,0-8.509-.345.572.572,0,0,0-.227.781.636.636,0,0,0,.282.254.59.59,0,0,0,.536,0C373.931,388.07,378.481,387.117,381.3,389.441Z" transform="translate(-298.69 -202.672)"/><path class="i" d="M383.875,398.113a3.333,3.333,0,0,0-.754-2.125c-3.26-1.971-7.7-1.062-8.782-.509a.563.563,0,0,0-.227.781.618.618,0,0,0,.808.254C375.883,396.024,381.178,394.98,383.875,398.113Z" transform="translate(-298.863 -203.406)"/><path class="i" d="M373.445,392.515a.617.617,0,0,0,.536,0c.908-.463,5.6-1.435,8.418,1.044a2.052,2.052,0,0,0-.49-1.734,11.007,11.007,0,0,0-8.509-.345.572.572,0,0,0-.227.781A.608.608,0,0,0,373.445,392.515Z" transform="translate(-298.777 -203.039)"/><path class="n" d="M389.777,382.2s2.406,14.53,5.076,20.115,4.05,8.337,7.728,12.6c.8.908,2.624,2.643,3.278,3.4a1.453,1.453,0,0,1-.154,2.234c-1.635,1.562-8.573,1.934-12.459-.981s-7.428-9.081-9.753-11.47c-.908-.908-1.689-1.816-2.47-2.724s-.545-1.816-.608-2.833v-1.862c-.536-2.443-1.971-6.266-2.724-8.645Z" transform="translate(-299.198 -202.25)"/><path class="g" d="M379.229,414.58a5.185,5.185,0,0,0,.182,1.771c.381.908,3.9,3,5.24,3.714a8.227,8.227,0,0,1,3.978,4.541,14.174,14.174,0,0,0,6.974,6.765,22.44,22.44,0,0,0,13.2,1.816c5.576-.8,6.139-4.05,6.139-4.05s.409-3.06-.953-3.632S379.229,414.58,379.229,414.58Z" transform="translate(-299.339 -205.225)"/><path class="e" d="M380.379,401.484c-.145.064-.427.145-.6.781-.054.245.091,2.851-.109,4.35s-1.1,4.586-.463,6.575c2.833,3.079,7.4,3.987,9.517,7.156s4.041,7.092,11.252,8.791,12.786-.409,14.2-2.425.254-4-4.3-6.684c-4.84-2.824-11.052-11-11.061-11a34.138,34.138,0,0,1-2.325-3.632,27.437,27.437,0,0,1-1.444-3.987,3.115,3.115,0,0,0-1.062-1.616,3.179,3.179,0,0,0-1.907-.318,13.848,13.848,0,0,0-3.124.354,4.759,4.759,0,0,0-2.615,1.644,20.774,20.774,0,0,1-1.208,1.925,2.724,2.724,0,0,1-2.788.754,2.343,2.343,0,0,1-1.816-2.034A5.706,5.706,0,0,1,380.379,401.484Z" transform="translate(-299.317 -203.835)"/><path class="i" d="M397,429.142a9.226,9.226,0,0,1,5.648-7.683c5.576-2.606,8.836-.681,10.462.581,1.943,1.508,4.686,4.6,2.879,6.72-1.952,2.279-4.986,3.287-10.57,3.16S397,429.142,397,429.142Z" transform="translate(-300.973 -205.738)"/><path class="i" d="M389.336,410.632a.636.636,0,0,0,.509-.236c.645-.844,4.74-3.941,8.545-2.724.218-.436-.091-.908-.863-1.408-4.023-.509-7.91,2.407-8.7,3.424a.572.572,0,0,0,.136.835.609.609,0,0,0,.372.109Z" transform="translate(-300.21 -204.456)"/><path class="i" d="M400.745,410.939a1.943,1.943,0,0,0-1.044-1.38,11.441,11.441,0,0,0-8.173,3.478.59.59,0,0,0,.136.845.627.627,0,0,0,.372.118.645.645,0,0,0,.509-.245C393.153,412.937,397.04,410,400.745,410.939Z" transform="translate(-300.459 -204.763)"/><path class="i" d="M407.046,418a3.478,3.478,0,0,0-1.662-1.671c-3.959-.409-7.755,2.434-8.536,3.442a.59.59,0,0,0,.136.844.691.691,0,0,0,.372.118.645.645,0,0,0,.509-.245C398.555,419.6,403.077,416.2,407.046,418Z" transform="translate(-300.948 -205.382)"/><path class="i" d="M394.689,417.362a.627.627,0,0,0,.5-.236c.645-.836,4.659-3.869,8.427-2.77a2.143,2.143,0,0,0-1.235-1.426,11.46,11.46,0,0,0-8.173,3.478.581.581,0,0,0,.127.836.655.655,0,0,0,.354.118Z" transform="translate(-300.705 -205.074)"/><path class="a" d="M355.251,291.32c5.939,4.35,26.635,16.3,35.035,24.074,2.434,2.252,3.233,5.2,2.634,11.651-.808,8.754-7.683,38.568-7.683,38.568-.953,1.68-2.615-1.507-2.615-1.507L349.83,322.478Z" transform="translate(-296.639 -193.9)"/><path class="d" d="M355.251,291.32c5.939,4.35,26.635,16.3,35.035,24.074,2.434,2.252,3.233,5.2,2.634,11.651-.808,8.754-7.683,38.568-7.683,38.568-.953,1.68-2.615-1.507-2.615-1.507L349.83,322.478Z" transform="translate(-296.639 -193.9)"/><path class="d" d="M384,357.081c-7.583-6.357-32.093-45.015-32.093-45.015h0c3.342-2.815,5.058-12.6,5.058-12.6,1.326,3.769-.073,9.463-1.1,11.542,1.925,1.671,12.832,10.634,20.405,16.628a10.9,10.9,0,0,1,4.5,6.82C382.341,342.633,384.185,355.419,384,357.081Z" transform="translate(-296.83 -194.649)"/><path class="a" d="M351.529,291.32h0l-42.209,9.345c2.061,7.746,2.652,11.751,4.8,15.828s4.541,8.455,15.529,13.867c10.57,5.2,23.475,10.561,26.063,11.805,1.943.908,2.87,4.822,3.751,9.871.908,5.285,1.008,9.435,6.248,20.542,5.122,10.9,6.175,13.222,6.175,13.222s7.928.826,13.195-3.805c0,0-7.183-37.3-8.718-44.007-.854-3.75-.908-5.721-5.53-9.844-3.987-3.533-21.795-17.027-21.795-17.027S356.1,301.591,351.529,291.32Z" transform="translate(-292.916 -193.9)"/><path class="d" d="M351.529,291.32h0l-42.209,9.345c2.061,7.746,2.652,11.751,4.8,15.828s4.541,8.455,15.529,13.867c10.57,5.2,23.475,10.561,26.063,11.805,1.943.908,2.87,4.822,3.751,9.871.908,5.285,1.008,9.435,6.248,20.542,5.122,10.9,6.175,13.222,6.175,13.222s7.928.826,13.195-3.805c0,0-7.183-37.3-8.718-44.007-.854-3.75-.908-5.721-5.53-9.844-3.987-3.533-21.795-17.027-21.795-17.027S356.1,301.591,351.529,291.32Z" transform="translate(-292.916 -193.9)"/><path class="n" d="M403.733,214.02a4.132,4.132,0,0,0-2.1.427,13.622,13.622,0,0,0-2.134,1.389c-1.053.781-2.125,1.507-3.233,2.207a8.991,8.991,0,0,1-3.178,1.508c-.391.064-1.226.073-.8-.518a15.884,15.884,0,0,0,1.589-2.37,3.387,3.387,0,0,0,.236-2.724,1.18,1.18,0,0,0-.536-.645c-.372-.173-.563,0-.772.272a9.1,9.1,0,0,1-.745.7c-.527.463-1.053.908-1.571,1.4-3.042,2.724-6.738,5.149-8.037,9.136a24.917,24.917,0,0,0-1.072,7.583c0,4.377-.291,19.606-.291,19.606s-12.1-10.18-17.336-14.53c-2.534-2.116-6.066-4.686-9.989-5.058-2.724-.254-4.368-.245-4.368-.245l8.255,19.979s15.592,11.606,23.075,15.6c6.747,3.632,10.035,1.008,10.852-.908,1.353-3.142,2.724-4.613.835-22.122-.136-1.353-.309-5.231-.463-6.584-.191-2.824.127-5.694,1.226-6.311a33.539,33.539,0,0,0,5.721-3.878,17.147,17.147,0,0,0,3.024-3.405,5.2,5.2,0,0,0,1.035-1.952,9.879,9.879,0,0,1,0-2.007c.136-.436.436-.8.545-1.271.227-.972.145-2.08.754-2.915.345-.454.908-.908.826-1.435a1.181,1.181,0,0,0-.972-.845A2.949,2.949,0,0,0,403.733,214.02Z" transform="translate(-296.599 -186.724)"/><path class="o" d="M395.321,222.47a12.713,12.713,0,0,1-3.151,6.3,7.437,7.437,0,0,0,2.679-2.724C395.721,224.25,395.648,223.333,395.321,222.47Z" transform="translate(-300.529 -187.574)"/><path class="a" d="M348.51,233.56c4.214.182,7.492.272,11.088,2.352S379.213,251.4,379.213,251.4s.163-6.838.572-10.434c.282-2.5.7-3.278,1.48-3.16,0,0,1.389,2.134,5.322,2.434s5.267-1.344,5.267-1.344,1.153-.272,1.562,1.344,1.153,19.07.436,24.092-2.97,7.365-5.994,8.073-9.989-3.533-18.426-9.181-17.536-10.9-17.536-10.9Z" transform="translate(-296.517 -188.593)"/><path class="p" d="M348.51,233.56c4.214.182,7.492.272,11.088,2.352S379.213,251.4,379.213,251.4s.163-6.838.572-10.434c.282-2.5.7-3.278,1.48-3.16,0,0,1.389,2.134,5.322,2.434s5.267-1.344,5.267-1.344,1.153-.272,1.562,1.344,1.153,19.07.436,24.092-2.97,7.365-5.994,8.073-9.989-3.533-18.426-9.181-17.536-10.9-17.536-10.9Z" transform="translate(-296.517 -188.593)"/><path class="l" d="M382.122,253.049a33.083,33.083,0,0,0,.354,9.79s-3.078-5.939-2.134-11.379Z" transform="translate(-299.426 -190.238)"/><path class="i" d="M310.046,237.21c-.7,3.632-7.683,38.64.263,64.712,14.321,1.689,39.458-4.886,43.226-14.357,0,0-2.534-8.99-3.633-13.395.236-7.21,0-20.978-.145-25.237-.291-8.436-1.607-14.966-5.794-15.583,0,0-8.409-.327-13.495-.118-4.4.173-7.7.227-7.7.227Z" transform="translate(-292.661 -188.556)"/><path class="q" d="M331.069,293.61c-.908-2.052-17.917-12.541-17.917-12.541s.263-4.858,1.271-13.8,1.317-19.661-1.907-25.046l-3.251.127c-1.816,10.852-5.576,38.695,1.044,60.408,7.637.908,18.344-.554,27.244-3.533C335.918,298.115,331.8,295.245,331.069,293.61Z" transform="translate(-292.662 -189.389)"/><path class="e" d="M322.1,220.89c0-1.816-3.442-7.21-5.013-11.488-2.624-7.147-2.852-13.567,3.632-16.346,0,0,4.05-6.983,14.267-7.338s18.053,8.273,14.666,19.8Z" transform="translate(-293.472 -184.196)"/><path class="n" d="M324.587,210.91c-1.335,0-1.816-1.916-2.724-2.942a3.95,3.95,0,0,0-6.1.763c-1.889,2.724-.055,6.666,2.007,8.173,2.588,1.925,4.377.073,4.377.073l-.236,14.43s.463,3.2,6.357,5.058c6.811,2.143,12.35-1.444,8.291-5.93l.154-3.8a19.525,19.525,0,0,0,6.584.363c2.27-.345,4.086-2.052,5.249-5.558,2.279-6.829,1.653-15.947-.7-24.265-2.252,1.816-12.641,5.113-22,1.816C326.158,204.835,325.895,210.91,324.587,210.91Z" transform="translate(-293.436 -185.258)"/><path class="g" d="M321.309,217.115a.845.845,0,1,1-.845-.845.844.844,0,0,1,.845.845Z" transform="translate(-293.863 -187.004)"/><path class="o" d="M337.746,228.991s-5.685-1.662-7.919-3.233a10.9,10.9,0,0,1-3.487-3.968,14.674,14.674,0,0,0,2.4,4.8c2.724,3.079,8.936,4.541,8.936,4.541Z" transform="translate(-294.48 -187.511)"/><path class="g" d="M338.113,212.063a1.417,1.417,0,1,1-1.444-1.453,1.444,1.444,0,0,1,1.444,1.453Z" transform="translate(-295.302 -186.484)"/><path class="g" d="M336.362,206.792l-3.051,1.616a1.816,1.816,0,0,1,.754-2.4,1.68,1.68,0,0,1,2.3.781Z" transform="translate(-295.103 -186.044)"/><path class="o" d="M337.894,220.39l4.858,1.553a2.724,2.724,0,0,1-3.3,1.689,2.488,2.488,0,0,1-1.562-3.242Z" transform="translate(-295.527 -187.383)"/><path class="g" d="M350.761,206.606l-3.351-.908a1.671,1.671,0,0,1,2.08-1.244,1.816,1.816,0,0,1,1.271,2.152Z" transform="translate(-296.416 -185.913)"/><path class="g" d="M349.863,210.853a1.417,1.417,0,1,1-1.444-1.453,1.444,1.444,0,0,1,1.444,1.453Z" transform="translate(-296.381 -186.373)"/><path class="f" d="M349.053,196.064c3.142-2.234,4.886-5.231,4.05-9.345-1.226,1.226-4.659,1.453-7.655,0a23.529,23.529,0,0,0-15.438-2.234c-5.549,1.081-8.8,5.294-8.8,8.4,1.09,2.216,2.579,3.4,5.158,4.967a20.569,20.569,0,0,0,13.386,3.85,13.213,13.213,0,0,0,7.882-2.852s-2.9.254-4.259-.645a15,15,0,0,0,5.676-2.143Z" transform="translate(-294.009 -184.043)"/><path class="o" d="M343.329,217.437l4.332-1.98-5.53-7.637Z" transform="translate(-295.931 -186.228)"/><g transform="translate(0 48.654)"><path class="b" d="M389.687,317.758a8.666,8.666,0,0,0-1.308-1.544c-5.049-4.668-14.53-10.843-22.585-15.974L329.143,321.4a.336.336,0,0,0,0,.581l26.617,15.374Z" transform="translate(-294.722 -243.374)"/><path class="f" d="M400.916,307.69v.59a2.434,2.434,0,0,1-1.217,2.107l-42.609,24.6a2.425,2.425,0,0,1-1.217.327,2.479,2.479,0,0,1-1.226-.327l-23.221-13.395a2.452,2.452,0,0,1-1.217-2.107v-.826h0a.3.3,0,0,0,.154.272l25.5,14.73Z" transform="translate(-294.836 -244.058)"/><path class="g" d="M358.47,333.688v1.626a2.425,2.425,0,0,0,1.217-.327l42.609-24.6a2.434,2.434,0,0,0,1.217-2.107v-.6Z" transform="translate(-297.432 -244.057)"/><path class="e" d="M400.916,306.185,375.652,291.6a1.48,1.48,0,0,0-1.453,0L330.374,316.91a.327.327,0,0,0,0,.563l25.5,14.721Z" transform="translate(-294.836 -242.562)"/><path class="f" d="M356.832,330.838l-13.622-7.855,39.848-23,13.694,7.81Z" transform="translate(-296.03 -243.35)"/><path class="g" d="M396.753,307.789l-.518.3-13.186-7.519-39.321,22.712-.518-.3,39.839-23.012Z" transform="translate(-296.03 -243.349)"/><path class="g" d="M350.84,309.182l.254.145,6.675,3.85,11.878-6.856.245-.145-6.929-4Z" transform="translate(-296.731 -243.552)"/><path class="f" d="M351.12,309.356l6.675,3.85,11.878-6.856-6.684-3.85Z" transform="translate(-296.757 -243.581)"/><path class="n" d="M361.476,313.974c-1.907-1.889-4.677-4.541-7.011-5.294a15.211,15.211,0,0,0-1.635-.509,17.917,17.917,0,0,0,2.388-.472,4.25,4.25,0,0,0,2.025-1.344c.2-.263.345-.681.091-.908a.536.536,0,0,0-.327-.118c-1.753-.055-3.124-.327-4.713-.436a6.464,6.464,0,0,0-2.134,0c-.654.172-1.3.363-1.934.59-2.9,1-5.54,1.9-9.635.908l-7.374-3.932s-1.58-.4-3.9,3.533-.963,6.093-.963,6.093l8.282,2.861h0l.118.045a27.6,27.6,0,0,0,3.914,1.725c2.579.79,5.885-.145,8.128-.263a24.085,24.085,0,0,1,8.173,1.762c2.125.854,4.541-2.361,5.621-1.98S363.392,315.872,361.476,313.974Z" transform="translate(-294.445 -243.577)"/><path class="o" d="M354.16,307.357a7.773,7.773,0,0,0-3.16.554,17.256,17.256,0,0,1,4.141.717,17.915,17.915,0,0,0,2.388-.472,4.486,4.486,0,0,0,1.816-1.126C358.1,307.847,355.677,307.511,354.16,307.357Z" transform="translate(-296.746 -243.998)"/><path class="a" d="M308.641,237.62c2.1.826,4.831,9.581,3.142,18l-3.9,26.335s4.786,2.833,11.506,6.993c4.65,2.888,8.636,5.53,8.645,7.665-3.051,1.09-5.794,6.7-4.867,9.626-2.08,2.47-21.3-8.173-28.015-12.777-3.115-2.134-4.686-2.97-3.487-12.587,1.326-10.643,2.234-22.467,4.314-30.358C298.134,242.26,300.541,239.064,308.641,237.62Z" transform="translate(-291.257 -237.62)"/><path class="p" d="M308.641,237.62c2.1.826,4.831,9.581,3.142,18l-3.9,26.335s4.786,2.833,11.506,6.993c4.65,2.888,8.636,5.53,8.645,7.665-3.051,1.09-5.794,6.7-4.867,9.626-2.08,2.47-21.3-8.173-28.015-12.777-3.115-2.134-4.686-2.97-3.487-12.587,1.326-10.643,2.234-22.467,4.314-30.358C298.134,242.26,300.541,239.064,308.641,237.62Z" transform="translate(-291.257 -237.62)"/><path class="f" d="M359.23,330.958a2.87,2.87,0,0,0,2.479-.191l42.427-24.519a2.879,2.879,0,0,0,1.4-2.016l4.65-27.7a2.831,2.831,0,0,0,0-.472,2.869,2.869,0,0,0-.854-2.052l-44.08,25.427a2.134,2.134,0,0,0-1.044,1.489Z" transform="translate(-297.502 -240.964)"/><path class="e" d="M358.47,330.555l.291.173a3.221,3.221,0,0,0,.4.191l5.013-29.968a2.134,2.134,0,0,1,1.044-1.489l44.08-25.427a2.917,2.917,0,0,0-.59-.454l-44.171,25.509a2.1,2.1,0,0,0-1.035,1.489Z" transform="translate(-297.432 -240.924)"/><path class="g" d="M364.591,302.65l-.69-.39a2.089,2.089,0,0,0-.4.908l-5.031,30.013.291.173a3.225,3.225,0,0,0,.4.191l5.013-29.968A2.2,2.2,0,0,1,364.591,302.65Z" transform="translate(-297.432 -243.559)"/><path class="a" d="M385.536,307.941a9.448,9.448,0,0,1,4.277-5.494c2.052-1.181,3.46-.645,3.142,1.208a9.413,9.413,0,0,1-4.268,5.5C386.643,310.338,385.218,309.8,385.536,307.941Z" transform="translate(-299.915 -243.519)"/></g></g></g></svg>