<svg xmlns="http://www.w3.org/2000/svg" width="69.839" height="67.511" viewBox="0 0 69.839 67.511"><defs><style>.a{fill:#e6e6e6;}</style></defs><g transform="translate(0 -8.533)"><g transform="translate(0 8.533)"><path class="a" d="M65.182,8.533H4.657A4.663,4.663,0,0,0,0,13.19V51.6a1.164,1.164,0,0,0,1.164,1.164H68.675A1.164,1.164,0,0,0,69.839,51.6V13.19A4.662,4.662,0,0,0,65.182,8.533Zm2.329,41.9H2.328V13.19a2.332,2.332,0,0,1,2.329-2.329H65.182a2.332,2.332,0,0,1,2.329,2.329Z" transform="translate(0 -8.533)"/></g><g transform="translate(0 50.437)"><path class="a" d="M68.675,315.733H1.164A1.164,1.164,0,0,0,0,316.9v5.819a4.663,4.663,0,0,0,4.657,4.657H65.182a4.663,4.663,0,0,0,4.657-4.657V316.9A1.164,1.164,0,0,0,68.675,315.733Zm-1.164,6.983a2.332,2.332,0,0,1-2.329,2.329H4.657a2.332,2.332,0,0,1-2.329-2.329v-4.655H67.511v4.655Z" transform="translate(0 -315.733)"/></g><g transform="translate(30.264 55.093)"><path class="a" d="M230.015,349.867h-6.984a1.164,1.164,0,0,0,0,2.328h6.984a1.164,1.164,0,1,0,0-2.328Z" transform="translate(-221.867 -349.867)"/></g><g transform="translate(4.656 13.189)"><g transform="translate(0 0)"><path class="a" d="M93.5,42.667H35.3a1.164,1.164,0,0,0-1.164,1.164V81.079A1.164,1.164,0,0,0,35.3,82.242H93.5a1.164,1.164,0,0,0,1.164-1.164V43.831A1.164,1.164,0,0,0,93.5,42.667ZM92.333,79.914H36.462V44.995H92.333v34.92Z" transform="translate(-34.134 -42.667)"/></g></g><g transform="translate(16.296 69.06)"><path class="a" d="M153.223,452.267H122.959a3.492,3.492,0,0,0,0,6.984h30.264a3.492,3.492,0,1,0,0-6.984Zm0,4.656H122.959a1.164,1.164,0,1,1,0-2.328h30.264a1.164,1.164,0,1,1,0,2.328Z" transform="translate(-119.467 -452.267)"/></g><g transform="translate(20.952 59.749)"><path class="a" d="M180.373,393.313c-3.862,0-5.82-2.741-5.82-8.148A1.164,1.164,0,0,0,173.389,384h-11.64a1.164,1.164,0,0,0-1.164,1.164c0,5.407-1.958,8.148-5.82,8.148a1.164,1.164,0,1,0,0,2.328h25.608a1.164,1.164,0,1,0,0-2.328Zm-19.938,0a11.152,11.152,0,0,0,2.447-6.984h9.376a11.138,11.138,0,0,0,2.447,6.984Z" transform="translate(-153.601 -384.001)"/></g><g transform="translate(40.747 32.976)"><path class="a" d="M313.6,197.583l-2.81-2.81,1.563-1.563a1.164,1.164,0,0,0-.488-1.938l-11.64-3.492a1.164,1.164,0,0,0-1.449,1.449l3.492,11.64a1.163,1.163,0,0,0,1.938.489l1.646-1.647,2.81,2.811a1.163,1.163,0,0,0,1.646,0l3.292-3.293A1.163,1.163,0,0,0,313.6,197.583Zm-4.115,2.47-2.558-2.56a1.522,1.522,0,0,0-2.149,0l-.84.84-2.311-7.7,7.7,2.311-.9.9a1.319,1.319,0,0,0,0,1.864l2.7,2.7Z" transform="translate(-298.723 -187.731)"/></g><g transform="translate(15.132 17.845)"><g transform="translate(0 0)"><path class="a" d="M144.69,76.8H112.1a1.164,1.164,0,0,0-1.164,1.164v5.82a1.164,1.164,0,0,0,1.164,1.164H144.69a1.164,1.164,0,0,0,1.164-1.164v-5.82A1.164,1.164,0,0,0,144.69,76.8Zm-1.164,5.82H113.262V79.128h30.264Z" transform="translate(-110.934 -76.8)"/></g></g><g transform="translate(19.788 30.649)"><g transform="translate(0 0)"><path class="a" d="M155.543,170.667h-9.312a1.164,1.164,0,0,0-1.164,1.164v4.656a1.164,1.164,0,0,0,1.164,1.164h9.312a1.164,1.164,0,0,0,1.164-1.164v-4.656A1.164,1.164,0,0,0,155.543,170.667Zm-1.164,4.656h-6.984v-2.328h6.984Z" transform="translate(-145.067 -170.667)"/></g></g><g transform="translate(15.132 17.845)"><g transform="translate(0 0)"><path class="a" d="M144.69,76.8H112.1a1.164,1.164,0,0,0-1.164,1.164V100.08a1.164,1.164,0,0,0,1.164,1.164h27.71a1.165,1.165,0,0,0,1.115-1.5l-1.474-4.913,4.906,1.472a1.164,1.164,0,0,0,1.5-1.115V77.964A1.165,1.165,0,0,0,144.69,76.8Zm-1.164,16.824-5.479-1.644a1.165,1.165,0,0,0-1.449,1.45l1.646,5.485H113.262V79.128h30.264Z" transform="translate(-110.934 -76.8)"/></g></g></g></svg>