<svg xmlns="http://www.w3.org/2000/svg" width="34.948" height="34.948" viewBox="0 0 34.948 34.948"><path d="M29.713,37.078a17.323,17.323,0,0,0-27.256,20.9L0,66.948l9.182-2.41a17.265,17.265,0,0,0,8.277,2.106h.008A17.208,17.208,0,0,0,29.713,37.078ZM17.466,63.726a14.368,14.368,0,0,1-7.333-2l-.523-.312L4.166,62.837l1.451-5.312-.343-.546a14.422,14.422,0,1,1,26.749-7.653A14.555,14.555,0,0,1,17.466,63.726ZM25.36,52.945c-.429-.218-2.559-1.264-2.957-1.4s-.686-.218-.975.218-1.116,1.4-1.373,1.7-.507.328-.936.109c-2.543-1.272-4.212-2.27-5.89-5.149-.445-.764.445-.71,1.272-2.364a.8.8,0,0,0-.039-.757c-.109-.218-.975-2.348-1.334-3.214-.351-.842-.71-.725-.975-.741-.25-.016-.538-.016-.827-.016a1.6,1.6,0,0,0-1.155.538A4.862,4.862,0,0,0,8.659,45.48a8.477,8.477,0,0,0,1.763,4.478c.218.289,3.05,4.657,7.4,6.537,2.746,1.186,3.822,1.287,5.2,1.084A4.432,4.432,0,0,0,25.93,55.52a3.619,3.619,0,0,0,.25-2.059C26.078,53.265,25.79,53.156,25.36,52.945Z" transform="translate(0 -32)"/></svg>