<svg xmlns="http://www.w3.org/2000/svg" width="260.102" height="368.314" viewBox="0 0 260.102 368.314"><defs><style>.a{opacity:0.79;}.b{fill:#e6e6e6;}.c{fill:#263238;}.d{opacity:0.1;}.e,.g{opacity:0.3;}.f{opacity:0.4;}.h{fill:#ffbe9d;}.i{fill:#fff;}.j{fill:#eb996e;}.k{fill:#455a64;}.l{fill:#fafafa;}</style></defs><g class="a" transform="translate(-121.13 -54.096)"><g transform="translate(333.947 54.096)"><path class="b" d="M418.6,87.5h-3.229a3.231,3.231,0,0,1-.819,2.193,2.658,2.658,0,0,1-4.5-.979,3.519,3.519,0,0,1,.226-2.895c.549-1.007,1.744-1.915,3.908-1.492V76.24h-3.173v4.729a6.863,6.863,0,0,0-4.449,6.743,6.041,6.041,0,0,0,6.023,6.446C413.963,94.194,418.662,93.825,418.6,87.5Z" transform="translate(-388.929 -56.332)"/><rect class="b" width="3.221" height="3.353" transform="translate(25.276 18.272) rotate(180)"/><path class="c" d="M432,80.486a3.257,3.257,0,0,0,0-.459V78.7a8.564,8.564,0,0,0-.04-.98c-.04-.36-.089-.755-.145-1.169s-.113-.9-.178-1.376l-.339-1.528a26.465,26.465,0,0,0-2.907-7.417A23.29,23.29,0,0,0,410.718,54.2a21.326,21.326,0,0,0-3.229-.072,7.406,7.406,0,0,0-1.615.117l-1.663.279a22.36,22.36,0,0,0-6.556,2.49,25.9,25.9,0,0,0-5.886,4.774,27.415,27.415,0,0,0-4.432,6.869,26.989,26.989,0,0,0-2.39,8.37,18.842,18.842,0,0,0-.17,2.239,21.022,21.022,0,0,0-.04,2.257,28.653,28.653,0,0,0,3.916,13.531v-.279c-1.122,3.12-2.228,6.185-3.31,9.17l-.194.548.509-.162,8.8-2.7-.21-.054a22.436,22.436,0,0,0,10.076,4.909,18.893,18.893,0,0,0,5.151.351,14.168,14.168,0,0,0,2.479-.261l1.2-.207c.4-.081.807-.216,1.163-.315a23.672,23.672,0,0,0,13.418-10.24,26.1,26.1,0,0,0,2.882-6.087c.153-.476.3-.9.436-1.367s.21-.9.3-1.3.186-.818.266-1.2.1-.746.153-1.1c.073-.692.186-1.3.21-1.8s0-.971,0-1.349v-1.1a1.052,1.052,0,0,0,0,.279,4.694,4.694,0,0,1-.057.818c-.057.342-.048.818-.081,1.34s-.153,1.133-.25,1.8c-1.573,10.166-8.382,18.343-17.367,20.858-.379.1-.759.225-1.146.306l-1.187.2a14.5,14.5,0,0,1-2.422.243,19.354,19.354,0,0,1-5.054-.369,22.2,22.2,0,0,1-9.842-4.828l-.1-.09h-.121l-8.808,2.7.307.387L389.177,95l.048-.144-.073-.135a27.509,27.509,0,0,1-3.326-8.8,29.188,29.188,0,0,1-.5-4.423,20.014,20.014,0,0,1,.04-2.2,16.353,16.353,0,0,1,.161-2.185,26.385,26.385,0,0,1,2.253-8.19,27.216,27.216,0,0,1,4.319-6.725,25.253,25.253,0,0,1,5.765-4.684,21.7,21.7,0,0,1,6.419-2.472l1.615-.279c.541-.09,1.082-.081,1.615-.126a21.688,21.688,0,0,1,3.157.063,22.992,22.992,0,0,1,17.463,11.688,26.349,26.349,0,0,1,2.955,7.3l.363,1.51c.073.476.137.9.2,1.349s.113.809.17,1.169.04.683.065.971c0,.557.065,1,.089,1.322a1.689,1.689,0,0,0,.024.485Z" transform="translate(-384.723 -54.096)"/></g><g transform="translate(121.13 89.142)"><path class="b" d="M145.068,190.446h46.626s0-43.595,40.683-44.368c21.129-.414,32.085,15.005,36.542,26.809,5.167,13.71,3.6,29.336-3.326,42.057-7.9,14.52-24.94,29.111-56.362,22.944l-.3,115.68h46.109V284.989s64.662-18.61,64.662-98c0-75.924-55.135-92.323-84.774-93.383-16.486-.584-22.461-1.376-42.855,1.852C166.083,99.6,144.519,133.2,145.068,190.446Z" transform="translate(-125.739 -93.077)"/><rect class="b" width="46.795" height="48.665" transform="translate(83.062 284.603)"/><rect class="d" width="46.795" height="48.665" transform="translate(83.062 284.603)"/><path class="d" d="M145.068,190.446h46.626s0-43.595,40.683-44.368c21.129-.414,32.085,15.005,36.542,26.809,5.167,13.71,3.6,29.336-3.326,42.057-7.9,14.52-24.94,29.111-56.362,22.944l-.3,115.68h46.109V284.989s64.662-18.61,64.662-98c0-75.924-55.135-92.323-84.774-93.383-16.486-.584-22.461-1.376-42.855,1.852C166.083,99.6,144.519,133.2,145.068,190.446Z" transform="translate(-125.739 -93.077)"/><path class="b" d="M121.138,190.487h46.634s0-43.595,40.683-44.368c21.129-.414,32.085,15.005,36.533,26.809,5.175,13.71,3.609,29.336-3.318,42.057-7.9,14.52-25.238,27.717-56.661,21.577V353.609h46.109V285.03s64.662-18.61,64.662-98c0-75.924-61.15-93.554-87.317-93.554C188.448,93.507,120.258,98.892,121.138,190.487Z" transform="translate(-121.13 -93.118)"/><path class="e" d="M121.138,190.487h46.634s0-43.595,40.683-44.368c21.129-.414,32.085,15.005,36.533,26.809,5.175,13.71,3.609,29.336-3.318,42.057-7.9,14.52-25.238,27.717-56.661,21.577V353.609h46.109V285.03s64.662-18.61,64.662-98c0-75.924-61.15-93.554-87.317-93.554C188.448,93.507,120.258,98.892,121.138,190.487Z" transform="translate(-121.13 -93.118)"/><rect class="b" width="46.795" height="48.665" transform="translate(63.75 284.603)"/><rect class="e" width="46.795" height="48.665" transform="translate(63.75 284.603)"/><path class="c" d="M224.782,152.226a3.627,3.627,0,0,1-.694,0c-.46,0-1.122-.171-1.986-.18a36.214,36.214,0,0,0-7.315.342,47.438,47.438,0,0,0-10.552,2.76,42.866,42.866,0,0,0-5.878,2.823,30.921,30.921,0,0,0-5.757,4.145,30.55,30.55,0,0,0-4.707,5.538,55.18,55.18,0,0,0-3.528,5.952,56.692,56.692,0,0,0-4.174,11.13,49.848,49.848,0,0,0-1.4,8c-.1.953-.121,1.708-.145,2.212a4.539,4.539,0,0,1-.065.773,4.784,4.784,0,0,1,0-.773c0-.512,0-1.268.073-2.23a45.627,45.627,0,0,1,1.284-8.091,52.246,52.246,0,0,1,7.662-17.271,30.354,30.354,0,0,1,4.763-5.619,31.145,31.145,0,0,1,5.829-4.2,42.977,42.977,0,0,1,5.918-2.877,46.385,46.385,0,0,1,10.649-2.7,33.378,33.378,0,0,1,7.355-.189,15.717,15.717,0,0,1,1.986.27,4.59,4.59,0,0,1,.686.18Z" transform="translate(-132.193 -98.991)"/><path class="c" d="M304.039,137.119s-.057-.063-.153-.2-.242-.369-.4-.629l-1.542-2.427c-.331-.521-.686-1.124-1.106-1.744l-1.453-1.969-1.663-2.275c-.605-.791-1.316-1.555-2.027-2.391s-1.437-1.726-2.261-2.58-1.7-1.726-2.608-2.625c-.452-.45-.9-.9-1.381-1.376l-1.5-1.322c-1.025-.9-2.043-1.8-3.149-2.7a99.776,99.776,0,0,0-15.284-10.051l-4.255-2.14-4.223-1.8c-1.381-.638-2.785-1.088-4.142-1.591a41.843,41.843,0,0,0-4.037-1.367l-3.859-1.124c-1.251-.369-2.495-.593-3.682-.9a30.528,30.528,0,0,0-3.456-.728l-3.229-.521c-2.043-.387-3.916-.467-5.547-.647-.807-.072-1.615-.171-2.285-.207l-1.922-.054-2.664-.1h-.928a.683.683,0,0,1,.234,0H230.8c.7,0,1.469.108,2.293.171,1.615.153,3.52.216,5.563.584l3.229.485c1.122.144,2.269.467,3.464.71a35.561,35.561,0,0,1,3.706.9l3.875,1.115c1.34.342,2.664.9,4.037,1.358a31.775,31.775,0,0,1,4.15,1.582l4.247,1.8,4.279,2.149a97.32,97.32,0,0,1,15.34,10.123c1.114.9,2.132,1.861,3.157,2.751l1.5,1.214c.484.45.928.9,1.381,1.385l2.6,2.7c.807.9,1.534,1.8,2.253,2.616s1.4,1.618,2.01,2.418l1.615,2.293,1.437,2c.412.629.759,1.241,1.082,1.8.63,1.052,1.122,1.879,1.469,2.472l.379.656A.988.988,0,0,1,304.039,137.119Z" transform="translate(-141.192 -93.135)"/><path class="c" d="M305.4,266a2.8,2.8,0,0,1-.347.539L303.937,268c-.46.656-1.042,1.438-1.76,2.311s-1.486,1.9-2.422,2.958-1.938,2.248-3.076,3.443-2.374,2.454-3.69,3.767a101.267,101.267,0,0,1-18.86,14.484c-1.566.9-3.044,1.8-4.473,2.49s-2.761,1.4-3.988,1.978-2.358,1.052-3.343,1.474-1.849.764-2.559,1.016l-1.615.584a2.6,2.6,0,0,1-.581.18,2.742,2.742,0,0,1,.549-.27l1.615-.665c.7-.279,1.55-.638,2.527-1.088s2.107-.9,3.318-1.537,2.551-1.241,3.948-2.023,2.89-1.609,4.449-2.517a117.489,117.489,0,0,0,9.745-6.653,111.969,111.969,0,0,0,9.043-7.777c1.316-1.295,2.576-2.508,3.7-3.731s2.172-2.328,3.1-3.389,1.744-2.041,2.471-2.9,1.324-1.618,1.809-2.248l1.13-1.429A3.872,3.872,0,0,1,305.4,266Z" transform="translate(-147.412 -110.535)"/><path class="c" d="M256.3,371.036c-.121,0-.218-14.439-.218-32.249s.1-32.258.218-32.258.21,14.439.21,32.258S256.411,371.036,256.3,371.036Z" transform="translate(-147.125 -114.627)"/><path class="c" d="M258.5,455.017c-.121,0-.21-10.132-.21-22.629s.089-22.638.21-22.638.21,10.132.21,22.638S258.613,455.017,258.5,455.017Z" transform="translate(-147.551 -125.048)"/></g><g transform="translate(274.215 70.132)"><path class="b" d="M315.368,192.649c-.807,1.8,2.2,3.273,3.94,3.857a14.274,14.274,0,0,0,5.417.414c2.422-.144,4.9-.4,6.992-1.726a12.083,12.083,0,0,0,4.214-5.259,39.857,39.857,0,0,0,2.14-6.734S318.993,184.585,315.368,192.649Z" transform="translate(-311.606 -83.166)"/><g class="f" transform="translate(3.627 100.034)"><path d="M315.368,192.649c-.807,1.8,2.2,3.273,3.94,3.857a14.274,14.274,0,0,0,5.417.414c2.422-.144,4.9-.4,6.992-1.726a12.083,12.083,0,0,0,4.214-5.259,39.857,39.857,0,0,0,2.14-6.734S318.993,184.585,315.368,192.649Z" transform="translate(-315.233 -183.2)"/></g><path class="b" d="M381.843,186.609a17.052,17.052,0,0,0,10.77,3.758,7.1,7.1,0,0,0,5.127-1.8c.622-.638,1.09-1.447,1.728-2.059.436-.414.945-.728,1.356-1.169a2.053,2.053,0,0,0,.589-1.708,3.605,3.605,0,0,0-1.114-1.978c-2.188-1.385-4.8-1.331-7.323-1.268A22.956,22.956,0,0,0,385.59,182c-1.954.737-4,1.8-4.99,3.776" transform="translate(-324.197 -82.879)"/><g class="f" transform="translate(56.403 97.495)"><path d="M401.414,183.634a3.632,3.632,0,0,0-1.429-1.8c-2.188-1.384-4.489-1.51-7.008-1.447A22.956,22.956,0,0,0,385.59,182c-1.954.737-4,1.8-4.99,3.776l1.243.836a17.052,17.052,0,0,0,10.77,3.758,7.1,7.1,0,0,0,5.127-1.8c.622-.638,1.09-1.447,1.728-2.059.436-.414.945-.728,1.356-1.169A2.053,2.053,0,0,0,401.414,183.634Z" transform="translate(-380.6 -180.376)"/></g><path class="b" d="M331.134,214.4l40.247.593a.51.51,0,0,0,.421-.237.639.639,0,0,0,.08-.518l-4.723-16.4s.694-8.2,1.655-18.053c1.461-14.969,3.407-33.786,3.431-33.732-2.753-8.595-19-10.051-19-10.051l-18.513,1.223-.646-1.214-5.329,2.76a23.78,23.78,0,0,0-3.343,2.1c-3.52,2.616-12,8.631-13.548,15.329-3.577,15.508,2.479,32.815,2.479,32.815l3.892-3.389a27.311,27.311,0,0,1,3.084-2.293l7.8,23.276a4.18,4.18,0,0,0-1.7,2.985,4.5,4.5,0,0,0,3.706,4.8" transform="translate(-310.74 -78.401)"/><g class="g" transform="translate(32.403 85.326)"><path d="M356.135,190.071c1.276-7.642.606-15.5-.081-23.231-2.228,6.293-2.148,13.486-4.513,19.725a9.125,9.125,0,0,0-.63,2.077,2.51,2.51,0,0,0,.533,2.032c.646.656,1.615.3,2.471.189a8.953,8.953,0,0,0,2.22-.791" transform="translate(-350.875 -166.84)"/></g><g class="f" transform="translate(22.308 120.549)"><path d="M338.879,211.72c3.229,1.25,6.669-1.079,10.084-1.492a23.073,23.073,0,0,1,6.766.71,45.636,45.636,0,0,0,13.725.378,4.845,4.845,0,0,0,2.018-.584,2.794,2.794,0,0,0,1.058-2.23c-7.605-.9-15.2-1.385-22.808-2.257a12.826,12.826,0,0,0-5.7.207c-2.293.791-4.037,2.8-5.652,4.783" transform="translate(-338.37 -206.019)"/></g><path class="b" d="M399.252,177.234c-3.286-8.244-14.872-31.044-14.872-31.044l-8.97,12.524L377.5,183.3s4.739-5.889,17.988-6.006a6.3,6.3,0,0,1,4.925,2.895Z" transform="translate(-323.198 -79.429)"/><path class="c" d="M337.606,174.647a36.765,36.765,0,0,1-1.518-5.394,37.4,37.4,0,0,1-1.1-5.493,38.7,38.7,0,0,1,1.51,5.394,38.123,38.123,0,0,1,1.106,5.493Z" transform="translate(-315.411 -81.203)"/><path class="c" d="M374.569,158.27a5.539,5.539,0,0,1,.807.782,25.286,25.286,0,0,1,2,2.445,24.927,24.927,0,0,1,4.287,9.764,20.469,20.469,0,0,1,.25,6.024c-.2,1.843-.517,3.461-.727,4.828s-.339,2.481-.4,3.255a6.68,6.68,0,0,1-.113,1.2,6,6,0,0,1-.048-1.214,32.392,32.392,0,0,1,.275-3.29c.17-1.376.452-3.012.638-4.819a20.671,20.671,0,0,0-.283-5.88,26.1,26.1,0,0,0-4.109-9.656C375.667,159.493,374.5,158.342,374.569,158.27Z" transform="translate(-323.035 -80.649)"/><path class="c" d="M359.358,220.183a3.179,3.179,0,0,1-.88.288,7.148,7.148,0,0,1-1.05.225,13.181,13.181,0,0,1-1.4.189,18.185,18.185,0,0,1-3.7,0,21.746,21.746,0,0,1-4.441-.989,22.985,22.985,0,0,1-4.166-1.987,21.347,21.347,0,0,1-3.06-2.311c-.42-.36-.759-.737-1.066-1.052a9.911,9.911,0,0,1-.751-.845,3.478,3.478,0,0,1-.573-.791c.057-.063.92,1.016,2.576,2.427a23.107,23.107,0,0,0,3.06,2.194,24.307,24.307,0,0,0,4.1,1.915,23.071,23.071,0,0,0,4.36,1.007,21.489,21.489,0,0,0,3.633.126C358.075,220.453,359.342,220.111,359.358,220.183Z" transform="translate(-316.043 -86.165)"/><path class="c" d="M379.163,215.32a3.409,3.409,0,0,1,.315,1.313,8.979,8.979,0,0,1-.218,3.273,5.782,5.782,0,0,1-1.615,2.787c-.589.548-1.042.719-1.066.674s.355-.342.864-.9a6.577,6.577,0,0,0,1.381-2.7A17.947,17.947,0,0,0,379.163,215.32Z" transform="translate(-323.423 -86.409)"/><path class="c" d="M376.656,218.84a5.156,5.156,0,0,1-1.728,4.963c-.089-.1.662-.989,1.13-2.364S376.535,218.849,376.656,218.84Z" transform="translate(-323.103 -86.764)"/><path class="c" d="M367.47,185.94a19.275,19.275,0,0,1-1.437,2.3,18.669,18.669,0,0,1-1.413,2.32,6.083,6.083,0,0,1,1.066-2.589,5.439,5.439,0,0,1,1.784-2.032Z" transform="translate(-321.119 -83.442)"/><path class="c" d="M330.723,161.083a20.224,20.224,0,0,1-1.784-1.313,21.542,21.542,0,0,0-9.535-3.965,16.267,16.267,0,0,1-2.123-.315,7.084,7.084,0,0,1,2.156,0,18.134,18.134,0,0,1,9.688,4.019,8.037,8.037,0,0,1,1.6,1.573Z" transform="translate(-312 -80.36)"/><path class="c" d="M384.827,145.86a36.819,36.819,0,0,0-4.037,4.252,39.332,39.332,0,0,0-3.06,5.2,5.9,5.9,0,0,1,.557-1.744,18.484,18.484,0,0,1,2.18-3.758,16.657,16.657,0,0,1,2.955-3.03,4.666,4.666,0,0,1,1.4-.917Z" transform="translate(-323.644 -79.396)"/><path class="c" d="M360.363,137.62a2.079,2.079,0,0,1,.178.414,8.672,8.672,0,0,1,.379,1.259,11.752,11.752,0,0,1,0,4.873,12.329,12.329,0,0,1-3.294,6.194,10.51,10.51,0,0,1-7.428,2.949,11.77,11.77,0,0,1-7.549-2.76,15.674,15.674,0,0,1-4.126-5.565,18.223,18.223,0,0,1-1.372-4.63,11.221,11.221,0,0,1-.145-1.313,1.611,1.611,0,0,1,0-.467s.089.629.315,1.744a19.7,19.7,0,0,0,1.478,4.5,15.627,15.627,0,0,0,4.093,5.394,11.53,11.53,0,0,0,7.266,2.7,10.247,10.247,0,0,0,7.178-2.805,12.47,12.47,0,0,0,3.375-10.7C360.557,138.213,360.315,137.638,360.363,137.62Z" transform="translate(-315.796 -78.564)"/><g class="g" transform="translate(43.501 102.788)"><path d="M368.512,187.564a1.4,1.4,0,0,0-.42-1.2.734.734,0,0,0-.727,0,2.056,2.056,0,0,0-.589.539,11.283,11.283,0,0,0-2.156,3.839l3.956-.387C368.552,189.443,368.536,188.49,368.512,187.564Z" transform="translate(-364.62 -186.263)"/></g><g class="g" transform="translate(57.654 87.987)"><path d="M385.024,176.633a15.218,15.218,0,0,0-2.874-6.833,24.9,24.9,0,0,1,.178,14l.21-.593C383.644,180.714,385.323,179.15,385.024,176.633Z" transform="translate(-382.15 -169.8)"/></g><path class="h" d="M371,409.657l-2.414,40.322-15.744-.207L350.36,407.85Z" transform="translate(-318.372 -105.846)"/><path class="b" d="M369.342,448.763v1.169s17.762,7.948,17.932,11.688L352,461.4l.549-13.063A18.355,18.355,0,0,0,369.342,448.763Z" transform="translate(-318.688 -109.934)"/><path class="i" d="M356.866,452.994a1.619,1.619,0,0,0-1,1.8,1.375,1.375,0,0,0,1.615,1.124,1.7,1.7,0,0,0,1.05-1.933,1.4,1.4,0,0,0-1.792-.962" transform="translate(-319.429 -110.398)"/><path class="c" d="M352,462.518l.129-3.138,33.78,1.367s1.566.773,1.381,2Z" transform="translate(-318.688 -111.048)"/><path class="c" d="M372.871,450.209c0,.189-.872.27-1.72.9s-1.308,1.411-1.461,1.34.1-1.187,1.146-1.906S372.912,450,372.871,450.209Z" transform="translate(-322.088 -110.104)"/><path class="c" d="M377.646,452.144c.04.189-.711.5-1.3,1.313s-.759,1.663-.937,1.654-.274-1.1.476-2.077S377.638,452.009,377.646,452.144Z" transform="translate(-323.173 -110.312)"/><path class="c" d="M380.731,457.279c-.161,0-.4-.9.057-1.969s1.251-1.456,1.324-1.3-.428.719-.807,1.591S380.908,457.261,380.731,457.279Z" transform="translate(-324.183 -110.503)"/><path class="c" d="M363.9,80.849a6.81,6.81,0,0,0-2.156-7.192,8.62,8.62,0,0,0-7.016-1.519,26.112,26.112,0,0,0-6.895,2.7A7.23,7.23,0,0,0,339.9,72.7a8.461,8.461,0,0,0-5.275,6.935,4.649,4.649,0,0,0-4.889,1.653,6,6,0,0,0-.981,5.584l10.916,4.27,11.917,23.375a8.819,8.819,0,0,0,12.58-.2,11.5,11.5,0,0,0,1.452-13.916,9.1,9.1,0,0,0,1.679-2.3,9.269,9.269,0,0,0,3.851-5.754C372.212,87.142,368.595,81.46,363.9,80.849Z" transform="translate(-314.154 -71.933)"/><path class="h" d="M356.98,130.506c-.678-3.8-1.147-6.41-1.138-6.383s6.459-2.787,5.991-12.793c-.226-4.981-1.93-12.829-3.512-19.195C356.9,86.4,352.1,80.079,347.017,81.9l-15.4,8.361c-1.542.557-1.809,2.176-1.445,3.929v.9l5.983,27.565,2.527,12.317c1.117,5.242,5.643,8.668,10.431,7.894h0a9.259,9.259,0,0,0,6.327-4.292A11.364,11.364,0,0,0,356.98,130.506Z" transform="translate(-314.456 -72.907)"/><path class="c" d="M364.475,100.615a1.3,1.3,0,0,1-.807,1.51,1,1,0,0,1-.854-.125,1.221,1.221,0,0,1-.51-.774,1.285,1.285,0,0,1,.807-1.5.993.993,0,0,1,.854.119,1.212,1.212,0,0,1,.511.771Z" transform="translate(-320.667 -74.734)"/><path class="c" d="M363.065,98.494c-.113.2-1.09-.3-2.285,0s-1.954,1.16-2.115,1.025,0-.387.331-.782a3.079,3.079,0,0,1,1.655-1.025,2.688,2.688,0,0,1,1.857.225C362.96,98.143,363.114,98.413,363.065,98.494Z" transform="translate(-319.96 -74.528)"/><path class="c" d="M349.955,103.9a1.285,1.285,0,0,1-.807,1.5,1,1,0,0,1-.841-.105,1.209,1.209,0,0,1-.524-.74,1.3,1.3,0,0,1,.807-1.51,1,1,0,0,1,.843.109A1.212,1.212,0,0,1,349.955,103.9Z" transform="translate(-317.87 -75.069)"/><path class="c" d="M348.685,102.024c-.1.2-1.09-.306-2.285,0s-1.954,1.151-2.115,1.025,0-.387.331-.791a3.1,3.1,0,0,1,1.655-1.016,2.745,2.745,0,0,1,1.857.216C348.556,101.673,348.742,101.916,348.685,102.024Z" transform="translate(-317.19 -74.884)"/><path class="c" d="M356.647,110.287a8.03,8.03,0,0,1,1.873-.845c.3-.108.581-.243.589-.485a1.9,1.9,0,0,0-.4-.962l-1.4-2.391A50.814,50.814,0,0,1,354,99.31a48.578,48.578,0,0,1,3.762,6.015l1.365,2.409a2.21,2.21,0,0,1,.412,1.3.9.9,0,0,1-.412.611,1.908,1.908,0,0,1-.5.207A6.75,6.75,0,0,1,356.647,110.287Z" transform="translate(-319.072 -74.696)"/><path class="j" d="M359.064,128.817a20.414,20.414,0,0,1-12.3-.737s4.231,6.149,12.764,3.21Z" transform="translate(-317.679 -77.601)"/><path class="c" d="M348.689,99.921c-.081.387-1.316.378-2.721.764s-2.519.971-2.745.665c-.1-.144.065-.521.492-.9a4.469,4.469,0,0,1,1.97-1.088,4.27,4.27,0,0,1,2.188,0C348.447,99.481,348.746,99.742,348.689,99.921Z" transform="translate(-316.992 -74.688)"/><path class="c" d="M362.393,93.763c-.194.36-1.227.27-2.422.53s-2.139.71-2.422.45c-.129-.135,0-.476.347-.9a3.694,3.694,0,0,1,1.865-.953,3.436,3.436,0,0,1,2.027.162C362.279,93.3,362.473,93.583,362.393,93.763Z" transform="translate(-319.747 -74.04)"/><path class="c" d="M336.6,83.573a6.746,6.746,0,0,0,3.085,4.612,5.527,5.527,0,0,0,5.158.305c1.276-.575,2.6-1.654,3.892-1.133s1.825,2.571,3.06,3.335c1.817,1.133,4.037-.827,6.063-.629,1.615.153,2.834,1.528,4.085,2.7s2.979,2.05,4.392,1.2a21.354,21.354,0,0,0-1.429-4.333,6.351,6.351,0,0,0-2.955-3.111,22.485,22.485,0,0,1-2.156-.809c-1.461-.827-2.115-2.7-3.173-4.109a6.335,6.335,0,0,0-5.652-2.517c-1.744.2-3.4,1.178-5.159,1.1-1.3-.063-2.543-.71-3.843-.683-2.527,0-4.424,2.517-5.829,4.864" transform="translate(-315.633 -72.651)"/><path class="c" d="M342.239,85.941c-1.163-.1-3.536-.369-4.319-1.286a6.413,6.413,0,0,0-6.459-2.373,6.241,6.241,0,0,0-4.037,5.988,8.558,8.558,0,0,0-5.894,6.446,11.336,11.336,0,0,0,2.018,9.449,18.913,18.913,0,0,1,1.324,2.131,15.483,15.483,0,0,0-1.437,2.427c-1.849,4.549,3.165,6.293,3.165,6.293,0,3.057,2.543,3.039,4.166,3.03s2.519,4.819,3.787,4.63l-1.284-14.9a1.516,1.516,0,0,0,.589.126c3.06.063,2.261-6.392,1.276-8.091a20.45,20.45,0,0,0,2.293-4.118,15.479,15.479,0,0,0,.113-6.887C338.566,88.666,342.74,85.977,342.239,85.941Z" transform="translate(-312.762 -72.962)"/><path class="h" d="M335.42,111.293a2.788,2.788,0,0,0-1.7-2.05,2.387,2.387,0,0,0-2.462.5c-.807.773-1.235,2.068-.751,4.234,1.308,5.79,6.257,3.138,6.225,2.976S335.985,113.685,335.42,111.293Z" transform="translate(-314.509 -75.684)"/><path class="j" d="M335,115.4a1.436,1.436,0,0,1-.21.216.861.861,0,0,1-.67.207c-.6-.072-1.284-.9-1.542-1.951a3.872,3.872,0,0,1-.073-1.51,1.245,1.245,0,0,1,.509-.971.445.445,0,0,1,.6.135c.1.135.1.261.129.27s.089-.135,0-.36a.658.658,0,0,0-.283-.306.644.644,0,0,0-.533,0,1.483,1.483,0,0,0-.751,1.16,3.992,3.992,0,0,0,.056,1.708,2.58,2.58,0,0,0,1.881,2.131.972.972,0,0,0,.807-.387C335.024,115.548,335.024,115.413,335,115.4Z" transform="translate(-314.856 -75.884)"/><path class="k" d="M365.2,100.6a8.3,8.3,0,0,0,1.138-1.3,9.474,9.474,0,0,0,1.324-7.822,7.27,7.27,0,0,0-1.849-3.2,7.024,7.024,0,0,0-7.412-1.654c-.242.09-.468.225-.694.333a6.056,6.056,0,0,0-.638.4l-.323.2v-.4a3.088,3.088,0,0,0-.654-1.888,4.168,4.168,0,0,0-1.526-1.151,4.992,4.992,0,0,0-3.464-.288c-2.228.566-4.118,1.7-5.9,1.933a5.228,5.228,0,0,1-4.037-.9,3.342,3.342,0,0,1-.807-.9,1.357,1.357,0,0,1-.178-.387,4.67,4.67,0,0,0,1.058,1.142,5.162,5.162,0,0,0,3.9.728,12.7,12.7,0,0,0,2.713-.9A23.515,23.515,0,0,1,351,83.406a6.1,6.1,0,0,1,1.825-.207,5.081,5.081,0,0,1,1.881.485,4.6,4.6,0,0,1,1.615,1.295,3.655,3.655,0,0,1,.759,2.194l-.323-.2.67-.432c.25-.108.484-.252.743-.351a7.331,7.331,0,0,1,7.823,1.735,7.6,7.6,0,0,1,1.922,3.4,9.516,9.516,0,0,1-1.542,8.091,5.366,5.366,0,0,1-.9.9,1.609,1.609,0,0,1-.274.279Z" transform="translate(-316.411 -73.07)"/><path class="k" d="M364.316,79.559a5.9,5.9,0,0,0-1.679-.638,3.969,3.969,0,0,0-1.986.207,3.927,3.927,0,0,0-2.043,1.654l-.2.315-.121-.36a6.175,6.175,0,0,0-4.925-4.073,7.265,7.265,0,0,0-4.731,1.528,20.217,20.217,0,0,1-3.754,2.158,5.389,5.389,0,0,1-2.842.378,4,4,0,0,1-.751-.234c-.161-.081-.25-.126-.242-.144a9.422,9.422,0,0,0,1.017.189,5.637,5.637,0,0,0,2.721-.494,22.665,22.665,0,0,0,3.657-2.23,12.039,12.039,0,0,1,2.261-1.232,5.617,5.617,0,0,1,2.713-.387,6.5,6.5,0,0,1,5.216,4.4h-.315a4.244,4.244,0,0,1,2.253-1.744,4.143,4.143,0,0,1,2.115-.117,3.557,3.557,0,0,1,1.259.539A1.619,1.619,0,0,1,364.316,79.559Z" transform="translate(-316.577 -72.36)"/><path class="b" d="M356,114.429a1.622,1.622,0,0,0-1.372-.432,2.1,2.1,0,0,0-1.364,1.106h0a.285.285,0,0,0-.048.072h0a1.257,1.257,0,0,0-.145.683,1.6,1.6,0,0,0,.807,1.214,1.715,1.715,0,0,0,2.115-.342,1.823,1.823,0,0,0,.008-2.3Z" transform="translate(-318.893 -76.177)"/><path class="c" d="M356.331,117.318c-.065,0-.137-.27-.355-.638a2.433,2.433,0,0,0-2.624-1.331c-.4.063-.638.189-.662.126s.161-.279.6-.45a2.195,2.195,0,0,1,1.736.108,2.518,2.518,0,0,1,1.219,1.394C356.411,116.994,356.387,117.309,356.331,117.318Z" transform="translate(-318.82 -76.27)"/><path class="b" d="M336.044,118.681a1.36,1.36,0,0,1-.073,1.133,1.7,1.7,0,0,1-.856.9,1.475,1.475,0,0,1-1.429-.189,1.828,1.828,0,0,1-.767-1.349,2.043,2.043,0,0,1,.331-1.241c.42-.593.888-.611.888-.557a2.65,2.65,0,0,0-.638.746,1.731,1.731,0,0,0-.194,1.007,1.452,1.452,0,0,0,.606,1,1.218,1.218,0,0,0,1.074.18,1.543,1.543,0,0,0,.735-.629A4.5,4.5,0,0,0,336.044,118.681Z" transform="translate(-315.012 -76.519)"/><path class="b" d="M332.98,118.252c.04,0,0,.306-.379.5a.977.977,0,0,1-1.122-.221,1.269,1.269,0,0,1-.291-1.227,1.125,1.125,0,0,1,.428-.584c.331-.225.581-.135.573-.081s-.194.117-.4.342a.983.983,0,0,0-.079.991.79.79,0,0,0,.79.465C332.778,118.378,332.924,118.216,332.98,118.252Z" transform="translate(-314.669 -76.44)"/><path class="h" d="M344.4,204.579s19.99,1.295,31.81,1.411c9.147.1,13.233-2.607,15.057-9.161,1.534-5.493-1.76-16.039-1.76-16.039-6.193,0-10.011.989-13.992,3.066l1.058,4.819-32.23,3.093Z" transform="translate(-317.212 -82.923)"/><path class="j" d="M390.933,194.688a17.1,17.1,0,0,0-3.012-3.335,15.058,15.058,0,0,0-3.892-1.906,2.545,2.545,0,0,1,1.284.126,8.134,8.134,0,0,1,2.842,1.394,8.973,8.973,0,0,1,2.2,2.445A3.162,3.162,0,0,1,390.933,194.688Z" transform="translate(-324.858 -83.793)"/><path class="h" d="M332.79,180.7h0a36.615,36.615,0,0,0-10.73,5.035l4.844,14.618c1.615,4.8,6.548,7.192,10.5,4.675,6.079-3.875,8.227-15.167,8.227-15.167L352.3,157.6l-11.069-7.723-8.4,30.819" transform="translate(-312.921 -79.802)"/><path class="h" d="M345.252,147.256l.452-10.609-2.479-10.788c-.137-.593-.2-1.34.234-1.7a1.088,1.088,0,0,1,1.494.054c.67.773,3.9,10.2,3.9,10.2s4.9-3.272,5.773-3.434,1.962,2.778,2.035,3q.048.988,0,1.978s3.028.1,3.3.557a13.167,13.167,0,0,1,.347,2.868s1.284.459,1.486,1.537.622,2.859,0,3.255-1.881,1.169-1.881,1.169-.509,5.5-.646,6.006a33.6,33.6,0,0,1-2.971,3.6Z" transform="translate(-316.978 -77.178)"/><path class="j" d="M333,202.611a4.7,4.7,0,0,0,.928.423,5.787,5.787,0,0,0,2.85.252,7.618,7.618,0,0,0,4.134-2.122,20.973,20.973,0,0,0,3.843-5.394,24.818,24.818,0,0,0,1.494-3.713,43.017,43.017,0,0,0,1.042-4.306c.63-3.03,1.316-6.293,2.043-9.764,1.453-6.932,3.084-14.681,4.844-23.033v-.063h.04c.557-.611,1.114-1.232,1.671-1.879.274-.324.549-.647.807-.98.129-.171.266-.342.371-.512a1.408,1.408,0,0,0,.137-.548c.218-1.8.388-3.659.565-5.538v-.117l.1-.054,1.542-.962a4.252,4.252,0,0,0,.363-.243.531.531,0,0,0,.145-.3,3.6,3.6,0,0,0,0-.9,15.01,15.01,0,0,0-.363-1.951,2.246,2.246,0,0,0-1.284-1.16l-.137-.054v-.153a15.2,15.2,0,0,0-.105-1.591q-.033-.4-.1-.791a1.42,1.42,0,0,0-.1-.333c0-.063,0,0-.048-.054a.766.766,0,0,0-.137-.063,13.053,13.053,0,0,0-2.955-.369h-.21v-2.032a2.032,2.032,0,0,0-.194-.6c-.081-.216-.178-.423-.275-.638a8.156,8.156,0,0,0-.662-1.187,1.877,1.877,0,0,0-.412-.45.356.356,0,0,0-.428-.054,9.055,9.055,0,0,0-1.138.584c-1.5.9-2.971,1.8-4.408,2.769l-.21.144-.089-.252c-.759-2.131-1.518-4.234-2.261-6.293-.371-1.034-.735-2.068-1.106-3.084a1.185,1.185,0,0,0-.888-.9.855.855,0,0,0-1.05.432,1.142,1.142,0,0,0-.121.638,5.13,5.13,0,0,0,.162.746c.129.521.25,1.034.371,1.546.242,1.034.476,2.05.719,3.057q.71,3.039,1.4,5.934v.063q-.242,5.538-.46,10.609v-.018L336.068,174l-2.075,7.417c-.242.836-.428,1.492-.557,1.951s-.21.656-.21.656.04-.234.153-.674l.509-1.969c.468-1.735,1.138-4.243,1.986-7.444,1.744-6.437,4.223-15.625,7.218-26.7v.045q.21-5.053.428-10.609v.063c-.46-1.933-.937-3.911-1.413-5.925l-.727-3.057c-.121-.512-.242-1.034-.371-1.546q-.1-.4-.17-.818a1.634,1.634,0,0,1,.17-.9,1.337,1.337,0,0,1,.654-.611,1.54,1.54,0,0,1,1.574.4,1.837,1.837,0,0,1,.436.773l1.106,3.084c.751,2.068,1.5,4.172,2.269,6.293l-.3-.117c1.445-.953,2.9-1.906,4.432-2.8a11.085,11.085,0,0,1,1.195-.6.733.733,0,0,1,.4-.063.911.911,0,0,1,.388.162,2.452,2.452,0,0,1,.509.557,7.886,7.886,0,0,1,.7,1.259c.105.225.2.441.291.665a2.5,2.5,0,0,1,.226.764c0,.638,0,1.232,0,1.8l-.2-.243a13.006,13.006,0,0,1,3.084.4,1.337,1.337,0,0,1,.2.1.559.559,0,0,1,.21.234,2.111,2.111,0,0,1,.137.459c.048.288.081.557.113.836.048.548.081,1.088.1,1.627l-.145-.216a2.62,2.62,0,0,1,1.542,1.42,15.279,15.279,0,0,1,.388,2.086,3.539,3.539,0,0,1,0,1.088.972.972,0,0,1-.291.557,4.039,4.039,0,0,1-.412.27l-1.534.89.1-.171c-.186,1.879-.355,3.722-.581,5.547l-.048.351a.837.837,0,0,1-.153.387,4.592,4.592,0,0,1-.4.557c-.275.342-.549.674-.807,1-.557.647-1.114,1.268-1.679,1.879l.057-.108c-1.776,8.343-3.423,16.093-4.9,23.024-.735,3.461-1.437,6.725-2.083,9.746a40.452,40.452,0,0,1-1.066,4.333,25.8,25.8,0,0,1-1.534,3.749,20.994,20.994,0,0,1-3.932,5.448,7.71,7.71,0,0,1-4.239,2.1,5.694,5.694,0,0,1-2.9-.324,4.626,4.626,0,0,1-.686-.351Z" transform="translate(-315.028 -77.17)"/><path class="j" d="M358.9,137.321c0,.063-.274.1-.7.117a7.327,7.327,0,0,0-1.615.216,3.054,3.054,0,0,0-1.373.818c-.291.306-.42.566-.484.539s0-.351.266-.764a2.663,2.663,0,0,1,1.486-1.043,4.021,4.021,0,0,1,1.728-.09C358.64,137.177,358.9,137.258,358.9,137.321Z" transform="translate(-319.208 -78.508)"/><path class="j" d="M356.98,137.338c-.1-.045-.113-.324,0-.62s.275-.5.379-.459.121.324,0,.62S357.061,137.383,356.98,137.338Z" transform="translate(-319.632 -78.426)"/><path class="j" d="M363.6,141.069a6.768,6.768,0,0,1-2.422.369,1.559,1.559,0,0,0-1.34.71c-.21.369-.137.674-.2.692s-.258-.3-.057-.836a1.37,1.37,0,0,1,.573-.71,2.245,2.245,0,0,1,.969-.324A5.982,5.982,0,0,1,363.6,141.069Z" transform="translate(-320.131 -78.894)"/><path class="j" d="M363.853,144.69c.113,0,.178.665.145,1.483s-.153,1.465-.266,1.465-.186-.674-.153-1.492S363.732,144.681,363.853,144.69Z" transform="translate(-320.917 -79.278)"/><path class="i" d="M368.07,171.039l.719-2.751a.718.718,0,0,1,.482-.521.632.632,0,0,1,.648.2l.945,1.07.581-2.6a.706.706,0,0,1,.589-.566.668.668,0,0,1,.679.422l1.316,3.075Z" transform="translate(-321.784 -81.416)"/><path class="i" d="M374.085,171.07a10.13,10.13,0,0,1-2.85,1.025,9.588,9.588,0,0,1-2.955.575A19.767,19.767,0,0,1,374.085,171.07Z" transform="translate(-321.824 -81.941)"/><path class="i" d="M315.477,154a7.35,7.35,0,0,0-.719,1.07,9.724,9.724,0,0,0-1.09,3.389,26.743,26.743,0,0,0-.145,5.394c.089,2.041.234,4.27.46,6.608q.574,5.988,1.7,11.885c.283,1.51.541,2.7.719,3.6.081.378.153.692.21.962s.065.342.065.342-.04-.108-.1-.324-.145-.593-.234-.962c-.2-.836-.476-2.041-.807-3.551a117.893,117.893,0,0,1-1.752-11.894c-.226-2.338-.363-4.576-.444-6.617a26.811,26.811,0,0,1,.178-5.394,9.634,9.634,0,0,1,1.163-3.416,5.151,5.151,0,0,1,.791-1.088Z" transform="translate(-311.23 -80.218)"/><path class="i" d="M333,140.38l-.186.108-.533.288c-.46.243-1.13.6-1.93,1.1a70.25,70.25,0,0,0-6.063,4.225c-2.309,1.8-4.352,3.434-5.845,4.621l-1.768,1.394-.492.369a.977.977,0,0,1-.178.126.679.679,0,0,1,.161-.153l.468-.4,1.736-1.447c1.477-1.214,3.512-2.9,5.821-4.666a60.707,60.707,0,0,1,6.1-4.19c.807-.476,1.486-.818,1.962-1.043l.541-.252C332.955,140.4,332.955,140.371,333,140.38Z" transform="translate(-311.753 -78.843)"/><path class="i" d="M381.167,146.069a.6.6,0,0,1-.137-.117l-.363-.351a15.334,15.334,0,0,0-1.413-1.178,28.213,28.213,0,0,0-5.191-2.922,48.6,48.6,0,0,0-5.53-2.05c-.727-.225-1.308-.387-1.72-.494l-.46-.135a.6.6,0,0,1-.161-.063h.169l.468.1c.412.09,1,.234,1.728.441a41.667,41.667,0,0,1,5.571,2,25.677,25.677,0,0,1,5.191,2.985A10.815,10.815,0,0,1,381.167,146.069Z" transform="translate(-321.421 -78.679)"/><path class="i" d="M336.616,222.355a1.059,1.059,0,0,1-.315-.117,5.5,5.5,0,0,1-.807-.485,4.288,4.288,0,0,1-1.76-2.643,5.709,5.709,0,0,1,.315-3.291,4.467,4.467,0,0,1,.468-.9c.129-.189.218-.279.226-.27a10.583,10.583,0,0,0-.589,1.2,5.9,5.9,0,0,0-.25,3.192,4.388,4.388,0,0,0,1.615,2.58A12.637,12.637,0,0,0,336.616,222.355Z" transform="translate(-315.148 -86.341)"/><path class="i" d="M334.15,212.39a4.824,4.824,0,0,1,.379,1.133,4.563,4.563,0,0,1,.226,1.178,7.972,7.972,0,0,1-.606-2.311Z" transform="translate(-315.25 -86.113)"/><path class="c" d="M342.882,415.056l24.625-.135-.444-94.8-.234-96.44L333.46,223.2l-6,12.587a48.951,48.951,0,0,0-4.61,16.309c-.4,4.369,2.535,18.574,3.552,22.17l9.18,32.419Z" transform="translate(-313.066 -87.204)"/><path class="c" d="M380.229,223.852,407.292,306a41.645,41.645,0,0,1-3.334,32.1L372.535,406.42,354.87,381.8l26.288-61.135-23.171-41.85,3.9-54.842,10.916-.2Z" transform="translate(-319.241 -87.263)"/><path class="k" d="M374.55,254.47v.423c0,.279.04.71.073,1.241.057,1.106.129,2.7.226,4.756.186,4.163.444,10.141.807,17.522s.67,16.183,1.074,25.982c.194,4.891.4,10.024.614,15.347.153,2.7.089,5.394.113,8.091s0,5.538,0,8.361c0,22.593.065,43.046.089,57.871v22.314c0-1.115,0-2.7-.048-4.774,0-4.163-.065-10.141-.113-17.531-.057-14.825-.129-35.278-.21-57.871v-8.361c0-2.751.048-5.466-.105-8.091-.2-5.313-.4-10.447-.589-15.338-.371-9.782-.711-18.583-.985-25.991s-.476-13.36-.63-17.522c-.065-2.05-.113-3.65-.145-4.765v-1.241C374.719,254.551,374.55,254.47,374.55,254.47Z" transform="translate(-323.032 -90.361)"/><path class="k" d="M373.78,225.66a3.577,3.577,0,0,1,.169.9c.089.575.186,1.412.3,2.454.21,2.077.436,4.963.565,8.154s.137,6.087.1,8.181c0,1.043-.057,1.9-.1,2.481a3.366,3.366,0,0,1-.1.9,28.58,28.58,0,0,1-.1-3.38c0-2.095-.089-4.972-.218-8.163s-.307-6.06-.444-8.091a33.724,33.724,0,0,1-.17-3.434Z" transform="translate(-322.884 -87.453)"/><path class="k" d="M366.853,227.694a2.275,2.275,0,0,0-.549,1.025,1.263,1.263,0,0,0,.315,1.1,1.052,1.052,0,0,0,1.211.243,1.322,1.322,0,0,0,.63-1.178,1.2,1.2,0,0,0-.541-.98,1.788,1.788,0,0,0-1.058-.207.6.6,0,0,1,.291-.189,1.245,1.245,0,0,1,.9.1,1.464,1.464,0,0,1,.807,1.25,1.648,1.648,0,0,1-.832,1.632,1.341,1.341,0,0,1-1.655-.355,1.594,1.594,0,0,1-.331-1.483,1.532,1.532,0,0,1,.517-.836C366.724,227.685,366.845,227.667,366.853,227.694Z" transform="translate(-321.382 -87.634)"/><path class="k" d="M347.984,225.91a2.939,2.939,0,0,1,.218.9,9.458,9.458,0,0,1,.073,2.445,10.845,10.845,0,0,1-.928,3.479,8.384,8.384,0,0,1-6.314,5.044,7.88,7.88,0,0,1-3.229-.135,7.156,7.156,0,0,1-2.051-.854,2.567,2.567,0,0,1-.662-.5,13.635,13.635,0,0,0,2.777,1.034,7.807,7.807,0,0,0,6.667-1.568,9.688,9.688,0,0,0,3.481-6.523,17.409,17.409,0,0,0-.032-3.317Z" transform="translate(-315.431 -87.478)"/><path class="k" d="M388.738,233.778a3.07,3.07,0,0,1-1.558-.207,7.159,7.159,0,0,1-3.173-2.266,8.255,8.255,0,0,1-1.72-3.74,3.994,3.994,0,0,1,0-1.735c.073,0,.081.656.323,1.663a8.421,8.421,0,0,0,4.7,5.763C388.149,233.625,388.746,233.688,388.738,233.778Z" transform="translate(-324.504 -87.47)"/><path class="k" d="M399.791,332.868a5.288,5.288,0,0,1-1.429,1.268,6.365,6.365,0,0,1-1.833.9,3.978,3.978,0,0,1-2.479-.072,7.41,7.41,0,0,1-3.456-3.057,7.588,7.588,0,0,1-.945-1.726,10.216,10.216,0,0,1,1.179,1.519,7.8,7.8,0,0,0,3.342,2.814,4.719,4.719,0,0,0,4.037-.656A15.442,15.442,0,0,1,399.791,332.868Z" transform="translate(-325.941 -98.005)"/><path class="k" d="M393.435,338.163a22.569,22.569,0,0,1-2.543-3.6,23.868,23.868,0,0,1-2.212-3.857,45.23,45.23,0,0,1,4.755,7.453Z" transform="translate(-325.754 -98.058)"/><path class="l" d="M343.107,257.72c-.113.045-.4-.467-.646-1.16s-.355-1.277-.25-1.331.4.467.638,1.16S343.211,257.72,343.107,257.72Z" transform="translate(-316.794 -90.437)"/><path class="l" d="M362.64,260.557c-.121,0-.21-.441-.21-.989s.089-1,.21-1,.21.45.21,1S362.753,260.557,362.64,260.557Z" transform="translate(-320.697 -90.775)"/><path class="l" d="M354.659,271.02c-.113,0-.242-.539-.283-1.232s0-1.25.129-1.259.25.539.291,1.232S354.772,271.011,354.659,271.02Z" transform="translate(-319.143 -91.781)"/><path class="l" d="M339.791,278.845c-.1.081-.428-.252-.864-.593s-.807-.6-.807-.728.533-.054,1.025.342S339.888,278.845,339.791,278.845Z" transform="translate(-316.014 -92.683)"/><path class="l" d="M365.811,288.638c-.1-.072,0-.458.274-.9s.525-.692.622-.62,0,.467-.274.9S365.908,288.71,365.811,288.638Z" transform="translate(-321.341 -93.656)"/><path class="l" d="M349.95,291.207a3.5,3.5,0,0,1-.21-1.654,3.553,3.553,0,0,1,.21-1.663,3.523,3.523,0,0,1,.21,1.663A3.863,3.863,0,0,1,349.95,291.207Z" transform="translate(-318.253 -93.735)"/><path class="l" d="M344.425,302.647c-.065.1-.484-.108-.937-.476s-.807-.746-.7-.854.492.108.945.477S344.5,302.54,344.425,302.647Z" transform="translate(-316.909 -95.088)"/><path class="l" d="M360.519,306.693c.048.117-.21.36-.581.548s-.71.234-.759.117.218-.36.589-.548S360.479,306.576,360.519,306.693Z" transform="translate(-320.07 -95.627)"/><path class="l" d="M349.64,324.623c-.1.054-.517-.638-.928-1.555a4.139,4.139,0,0,1-.557-1.8c.1-.09.525.638.928,1.555A4.85,4.85,0,0,1,349.64,324.623Z" transform="translate(-317.943 -97.104)"/><path class="l" d="M367.663,323.02c-.1-.063.081-.665.4-1.358s.686-1.2.807-1.133-.081.665-.412,1.358S367.76,323.083,367.663,323.02Z" transform="translate(-321.7 -97.03)"/><path class="l" d="M359.806,338.435c-.121,0-.1-.728-.234-1.573s-.323-1.519-.21-1.582.5.575.63,1.51S359.919,338.462,359.806,338.435Z" transform="translate(-320.1 -98.519)"/><path class="l" d="M351.262,347.433c-.081.09-.484-.252-.9-.755s-.678-.98-.589-1.07.484.252.9.755S351.35,347.344,351.262,347.433Z" transform="translate(-318.256 -99.561)"/><path class="l" d="M371.757,350.791c-.081-.09.218-.575.67-1.088s.872-.845.961-.755-.218.584-.662,1.088S371.846,350.881,371.757,350.791Z" transform="translate(-322.491 -99.898)"/><path class="l" d="M360.16,363.914c-.113,0-.113-.71,0-1.537s.291-1.474.412-1.456.113.7,0,1.528S360.273,363.932,360.16,363.914Z" transform="translate(-320.243 -101.108)"/><path class="l" d="M352.089,370.42c-.1.063-.46-.4-.807-1.043s-.525-1.2-.428-1.268.452.4.807,1.034S352.186,370.348,352.089,370.42Z" transform="translate(-318.462 -101.833)"/><path class="l" d="M370.661,378.788c.073.108-.339.566-.92,1.025s-1.09.746-1.163.638.347-.566.92-1.025S370.6,378.689,370.661,378.788Z" transform="translate(-321.88 -102.91)"/><path class="l" d="M355.509,388.947a4.836,4.836,0,0,1,.1-1.663c.1-.9.04-1.636.161-1.654s.331.737.25,1.7S355.614,389,355.509,388.947Z" transform="translate(-319.355 -103.603)"/><path class="l" d="M361.48,404.252c-.1.081-.436-.225-.767-.683s-.517-.9-.428-.98.428.225.759.683S361.568,404.171,361.48,404.252Z" transform="translate(-320.28 -105.314)"/><path class="l" d="M354.545,414.281c-.1.072-.541-.459-.993-1.2s-.735-1.385-.646-1.456.541.458.993,1.2S354.642,414.21,354.545,414.281Z" transform="translate(-318.859 -106.227)"/><path class="l" d="M373.732,401.7c-.1-.045-.1-.378,0-.737s.315-.629.428-.584.1.378,0,.746S373.845,401.755,373.732,401.7Z" transform="translate(-322.86 -105.091)"/><path class="l" d="M365.443,425.665c-.1-.063.1-.7.258-1.5s.218-1.474.339-1.483.242.719.073,1.582S365.54,425.737,365.443,425.665Z" transform="translate(-321.272 -107.343)"/><path class="l" d="M370.656,271.255c-.1.054-.363-.306-.573-.809s-.3-.953-.194-1.007.363.306.573.809S370.778,271.2,370.656,271.255Z" transform="translate(-322.126 -91.872)"/><path class="l" d="M356.463,240.318c.065.108-.5.611-1.106,1.331s-1.017,1.385-1.122,1.322.169-.9.807-1.636S356.382,240.2,356.463,240.318Z" transform="translate(-319.114 -88.93)"/><path class="l" d="M369.077,239.737c-.121,0-.307-.512-.589-1.124s-.541-1.115-.452-1.2.525.306.807.989S369.182,239.665,369.077,239.737Z" transform="translate(-321.774 -88.637)"/><path class="l" d="M330.82,249.83c-.1-.054,0-.647.25-1.331s.525-1.214.638-1.16,0,.638-.25,1.331S330.958,249.875,330.82,249.83Z" transform="translate(-314.6 -89.641)"/><path class="l" d="M331.651,265.022c-.081.1-.541-.189-1.033-.647s-.807-.9-.759-1.007.541.189,1.033.647S331.724,264.923,331.651,265.022Z" transform="translate(-314.422 -91.257)"/><path class="l" d="M357.184,228.145c-.1,0-.331-.288-.492-.746s-.21-.9-.1-.9.331.288.492.746S357.289,228.1,357.184,228.145Z" transform="translate(-319.561 -87.537)"/><path class="l" d="M381.51,235.449c-.113,0-.1-.566,0-1.2s.315-1.142.428-1.115.1.575,0,1.214S381.624,235.476,381.51,235.449Z" transform="translate(-324.357 -88.207)"/><path class="l" d="M387.2,246.823c-.1-.054.04-.719.331-1.5s.605-1.367.71-1.322,0,.719-.323,1.5S387.315,246.868,387.2,246.823Z" transform="translate(-325.462 -89.304)"/><path class="l" d="M382.834,256.024c-.1.054-.492-.566-.864-1.385s-.581-1.546-.476-1.6.484.566.856,1.385S382.939,255.962,382.834,256.024Z" transform="translate(-324.364 -90.216)"/><path class="l" d="M391.81,265.337c-.1-.045,0-.566.178-1.16s.46-1.043.573-1,0,.566-.178,1.16S391.955,265.382,391.81,265.337Z" transform="translate(-326.349 -91.24)"/><path class="l" d="M383.893,274.46c-.1.072-.347-.171-.549-.53s-.3-.719-.194-.791.339.171.549.539S383.989,274.4,383.893,274.46Z" transform="translate(-324.68 -92.245)"/><path class="l" d="M385.266,292.987c-.081.081-.589-.36-1.122-1.007s-.9-1.232-.807-1.322.589.36,1.122,1.007S385.355,292.9,385.266,292.987Z" transform="translate(-324.722 -94.014)"/><path class="l" d="M395.485,282.279c-.089.081-.533-.369-.985-1.016s-.743-1.223-.654-1.3.533.378.985,1.016S395.582,282.207,395.485,282.279Z" transform="translate(-326.746 -92.934)"/><path class="l" d="M401.443,296.994c-.1-.054.081-.728.412-1.5s.678-1.367.807-1.313-.073.737-.4,1.51S401.548,297.057,401.443,296.994Z" transform="translate(-328.207 -94.37)"/><path class="l" d="M389.147,309.242c-.1.063-.476-.432-.993-.962s-.993-.9-.945-1.034.662.108,1.227.692S389.244,309.179,389.147,309.242Z" transform="translate(-325.47 -95.686)"/><path class="l" d="M389.924,321.974c0,.126-.4.234-.9.234s-.888-.108-.888-.234.4-.234.888-.234S389.924,321.848,389.924,321.974Z" transform="translate(-325.65 -97.153)"/><path class="l" d="M402.513,318.2c-.1-.063.1-.629.258-1.331s.218-1.313.339-1.322.25.647.073,1.429S402.6,318.274,402.513,318.2Z" transform="translate(-328.413 -96.528)"/><path class="l" d="M414.378,322.377c-.1.045-.4-.593-.662-1.411a3.217,3.217,0,0,1-.275-1.555c.1-.036.412.584.67,1.4S414.491,322.332,414.378,322.377Z" transform="translate(-330.516 -96.917)"/><path class="l" d="M412.675,339.555a4.087,4.087,0,0,1,.557-1.69c.4-.872.807-1.528.928-1.465s-.145.818-.557,1.681S412.78,339.636,412.675,339.555Z" transform="translate(-330.372 -98.632)"/><path class="l" d="M401.381,349.666c-.1.045-.436-.575-.743-1.393s-.46-1.519-.347-1.573.436.575.735,1.393S401.486,349.666,401.381,349.666Z" transform="translate(-327.983 -99.672)"/><path class="l" d="M389.074,353.884c0,.126-.339.234-.751.234s-.743-.108-.743-.234.339-.234.743-.234S389.074,353.758,389.074,353.884Z" transform="translate(-325.542 -100.374)"/><path class="l" d="M396.274,369.721c-.1,0-.331-.494-.5-1.178s-.2-1.277-.089-1.3.331.494.5,1.178S396.387,369.649,396.274,369.721Z" transform="translate(-327.09 -101.746)"/><path class="l" d="M387.571,364.413c-.1-.063,0-.485.266-.944s.533-.773.63-.71,0,.494-.266.953S387.676,364.485,387.571,364.413Z" transform="translate(-325.533 -101.293)"/><path class="l" d="M387.3,381.993c-.113,0-.275-.6-.355-1.385s-.057-1.42.057-1.438.275.6.355,1.385S387.417,381.975,387.3,381.993Z" transform="translate(-325.411 -102.951)"/></g></g></svg>