<svg xmlns="http://www.w3.org/2000/svg" width="67.511" height="67.511" viewBox="0 0 67.511 67.511"><defs><style>.a{fill:#e6e6e6;}</style></defs><path class="a" d="M41.755,8A33.755,33.755,0,1,0,75.511,41.755,33.793,33.793,0,0,0,41.755,8ZM11.4,41.755A30.141,30.141,0,0,1,14.03,29.41L28.512,69.073A30.375,30.375,0,0,1,11.4,41.755ZM41.755,72.108a30.233,30.233,0,0,1-8.575-1.239l9.106-26.46L51.61,69.971a4.1,4.1,0,0,0,.218.422A30.386,30.386,0,0,1,41.755,72.108Zm4.179-44.576c1.824-.1,3.471-.286,3.471-.286a1.256,1.256,0,0,0-.191-2.5s-4.914.381-8.085.381c-2.981,0-7.99-.381-7.99-.381a1.256,1.256,0,0,0-.191,2.5s1.552.191,3.185.286L40.857,40.49,34.215,60.4,23.163,27.532c1.824-.1,3.471-.286,3.471-.286a1.256,1.256,0,0,0-.191-2.5s-4.914.381-8.085.381c-.572,0-1.239-.014-1.96-.041a30.352,30.352,0,0,1,45.856-5.717,3.846,3.846,0,0,0-.395-.027,5.253,5.253,0,0,0-5.091,5.39c0,2.5,1.443,4.614,2.981,7.119a15.929,15.929,0,0,1,2.5,8.371c0,2.6-.994,5.608-2.314,9.814L56.918,60.144,45.934,27.532ZM57.013,67.984l9.269-26.8A28.708,28.708,0,0,0,68.6,30.309a22.339,22.339,0,0,0-.2-3.117A30.354,30.354,0,0,1,57.013,67.984Z" transform="translate(-8 -8)"/></svg>