<svg xmlns="http://www.w3.org/2000/svg" width="605.7" height="515.765" viewBox="0 0 605.7 515.765"><defs><style>.a{fill:#f0f0f0;}.b{fill:#263238;}.c,.e{fill:#fff;}.d{fill:#192da1;}.e{opacity:0.5;}.f{opacity:0.3;}.g{fill:#455a64;}.h,.i{opacity:0.2;}.j{fill:#ffbe9d;}.k{fill:#eb996e;}</style></defs><g transform="translate(-22.44 -56.72)"><g transform="translate(139.377 81.193)"><path class="a" d="M114.5,194.462c-14.27,122.829,11.065,249.225,159.687,266.96,76.6,9.2,234.39-23.6,238.523-118.27,5.8-130.424-145.2-82.674-208.546-126.424-43.421-29.987-9.862-110.857-89.916-124.41C150.913,81.6,120.429,143.453,114.5,194.462Z" transform="translate(-111.028 -91.096)"/></g><g transform="translate(22.44 571.551)"><path class="b" d="M628.14,447.083c0,.2-135.592.343-302.837.343s-302.863-.092-302.863-.343,135.578-.343,302.863-.343S628.14,446.951,628.14,447.083Z" transform="translate(-22.44 -446.74)"/></g><g transform="translate(163.47 56.72)"><rect class="c" width="44.92" height="56.721" transform="translate(0.123 130.825) rotate(-0.23)"/><path class="b" d="M129.65,212.656h3.26l9.121-.119,32.538-.277-.277.29c-.092-16.21-.185-35.719-.29-56.76-.079-.092.647.634.33.33H129.425l.3-.3v56.457a2.194,2.194,0,0,1,0,.277,1.226,1.226,0,0,1,0-.238V208.5c0-2.719-.066-6.6-.132-11.563-.079-10.019-.185-24.222-.317-41.092v-.3h.3l21.411-.119H174.5l.356.343c0,21,.119,40.511.172,56.76v.29H130.613C129.9,212.682,129.65,212.656,129.65,212.656Z" transform="translate(-129.28 -25.135)"/><rect class="b" width="6.23" height="1.518" transform="translate(19.995 186.165) rotate(-0.22)"/><rect class="d" width="13.623" height="19.681" transform="translate(16.148 150.601) rotate(-0.23)"/><rect class="e" width="13.623" height="19.681" transform="translate(16.148 150.601) rotate(-0.23)"/><rect class="b" width="6.23" height="1.294" transform="translate(20.646 129.951) rotate(-0.23)"/><circle class="d" cx="30.149" cy="30.149" r="30.149" transform="translate(113.666 66.159)"/><path class="c" d="M252.151,134.687a23.324,23.324,0,0,1-3.96.224c-2.495,0-5.953.106-9.86.119H238v-2.3c0-4.369,0-8.316.092-11.18a31.2,31.2,0,0,1,.251-4.633,32.648,32.648,0,0,1,.238,4.633c.066,2.864.106,6.811.106,11.18v1.954l-.343-.343c3.96,0,7.366,0,9.86.119A23.327,23.327,0,0,1,252.151,134.687Z" transform="translate(-94.488 -37.456)"/><path class="c" d="M238.383,110.59c.185,0,.343,1.135.343,2.534s-.158,2.534-.343,2.534-.343-1.135-.343-2.534S238.185,110.59,238.383,110.59Z" transform="translate(-94.476 -39.481)"/><path class="c" d="M249.558,113.674c.145.132-.541,1.03-1.518,2.006s-1.874,1.663-2.006,1.531.541-1.043,1.518-2.02S249.426,113.542,249.558,113.674Z" transform="translate(-91.923 -38.5)"/><path class="c" d="M255.826,120.33c.079.172-.845.805-2.006,1.518s-2.152,1.228-2.257,1.069.713-.937,1.9-1.663S255.747,120.158,255.826,120.33Z" transform="translate(-90.151 -36.378)"/><path class="c" d="M260.024,130.263a17.529,17.529,0,0,1-6.9,0A17.529,17.529,0,0,1,260.024,130.263Z" transform="translate(-89.65 -33.296)"/><path class="c" d="M223.661,129.913a15.655,15.655,0,0,1-6.521,0,15.656,15.656,0,0,1,6.521,0Z" transform="translate(-101.164 -33.408)"/><path class="c" d="M225.9,137.18c.132.145-.937,1.188-2.363,2.35s-2.64,1.967-2.812,1.808.95-1.2,2.376-2.35a8.3,8.3,0,0,1,2.8-1.808Z" transform="translate(-100.022 -30.972)"/><path class="c" d="M231.838,142.862a10.8,10.8,0,0,1-1.544,2.983c-.95,1.571-1.729,2.851-1.914,2.759a7.339,7.339,0,0,1,1.32-3.115C230.624,143.878,231.654,142.743,231.838,142.862Z" transform="translate(-97.567 -29.157)"/><path class="c" d="M238.383,151.854a17.529,17.529,0,0,1,0-6.9,17.53,17.53,0,0,1,0,6.9Z" transform="translate(-94.476 -28.486)"/><path class="c" d="M250.825,147.788a7.2,7.2,0,0,1-2.944-1.848c-1.452-1.32-2.363-2.548-2.218-2.64a13.358,13.358,0,0,1,2.64,2.152C249.742,146.653,250.944,147.616,250.825,147.788Z" transform="translate(-92.041 -29.014)"/><path class="c" d="M255.917,142.047c-.145.132-1.214-.726-2.4-1.914s-2.033-2.257-1.9-2.389,1.2.713,2.389,1.9S256.088,141.9,255.917,142.047Z" transform="translate(-90.136 -30.796)"/><path class="c" d="M225.316,123.716c-.132.132-1.082-.594-2.125-1.637s-1.769-1.993-1.637-2.125,1.1.594,2.125,1.637S225.448,123.584,225.316,123.716Z" transform="translate(-99.756 -36.49)"/><path class="c" d="M231.827,116.817c-.132.132-1.069-.581-2.086-1.6s-1.729-1.94-1.6-2.086,1.069.581,2.086,1.6S231.919,116.685,231.827,116.817Z" transform="translate(-97.647 -38.673)"/><rect class="c" width="46.266" height="31.179" transform="translate(237.175 192.353) rotate(-5.42)"/><path class="b" d="M358.029,230.234a3.06,3.06,0,0,1-.092-.581c0-.422-.105-.964-.185-1.663-.158-1.478-.383-3.59-.673-6.257-.541-5.425-1.32-13.2-2.27-22.519l.29.251L309.083,203.9c-.066.079.581-.7.317-.37h0v1l.092,1.03.2,2.059c.132,1.32.264,2.719.383,4.066l.752,7.92c.488,5.2.95,10.19,1.386,14.929l-.343-.29,33.119-2.983,9.517-.818,2.548-.2h.911a6.244,6.244,0,0,1-.832.119l-2.482.277-9.425.977-33.291,3.313h-.317v-.317c-.462-4.726-.937-9.715-1.439-14.916q-.37-3.96-.752-7.92l-.4-4.066-.2-2.059-.092-1.03v-1h0l.3-.37,46.055-4.3h.277v.277c.845,9.464,1.531,17.239,2.006,22.7.224,2.64.4,4.739.528,6.217,0,.673.092,1.2.119,1.61A1.6,1.6,0,0,1,358.029,230.234Z" transform="translate(-71.851 -11.205)"/><path class="b" d="M354.986,199.13a12.271,12.271,0,0,1-1.4,1.756l-3.96,4.646c-3.432,3.96-8.224,9.24-13.6,15.259l-.2.224-.251-.158-1.228-.779c-7.049-4.5-13.411-8.606-18-11.6l-5.412-3.577-1.452-1q-.488-.356-.475-.4a2.769,2.769,0,0,1,.554.277l1.518.9,5.531,3.392c4.66,2.891,11.062,6.93,18.111,11.431l1.228.779h-.436c5.372-5.966,10.23-11.3,13.755-15.114l4.184-4.5A18.167,18.167,0,0,1,354.986,199.13Z" transform="translate(-71.764 -11.148)"/><rect class="d" width="58.397" height="86.91" transform="translate(221.062 35.416)"/><rect class="f" width="58.397" height="86.91" transform="translate(221.062 35.416)"/><path class="b" d="M355.987,171.309H296.23V83h59.757Zm-58.4-1.32h57.038V84.4H297.59Z" transform="translate(-75.854 -48.31)"/><rect class="c" width="46.742" height="76.138" transform="translate(226.936 40.775)"/><rect class="d" width="26.242" height="30.756" transform="translate(237.127 62.357)"/><path class="b" d="M278.42,204.582a2.389,2.389,0,0,0,1.148-.436,2.178,2.178,0,0,0,.805-1.2,12.5,12.5,0,0,0,.066-2.059c0-3.221,0-7.788.092-13.385v-6.8a8,8,0,0,0,0-1.148,1.9,1.9,0,0,0-.488-.937,1.808,1.808,0,0,0-.937-.5,9.16,9.16,0,0,0-1.228,0H245.486a1.835,1.835,0,0,0-1.8,1.69v3.142c0,2.1-.066,4.171-.092,6.2,0,4.066-.132,7.986-.185,11.722v1.386a1.888,1.888,0,0,0,.277,1.148,1.742,1.742,0,0,0,.871.726,3.115,3.115,0,0,0,1.2.132h14.388l13.385.106,3.643.066h.937a.884.884,0,0,1,.33,0,1.042,1.042,0,0,1-.33,0h-4.58l-13.385.119H245.724a3.669,3.669,0,0,1-1.426-.145,2.429,2.429,0,0,1-1.175-.977,2.64,2.64,0,0,1-.383-1.478v-1.4c0-3.736.092-7.656.145-11.722,0-2.033,0-4.092.079-6.191v-3.194a2.521,2.521,0,0,1,2.482-2.323h32.367a9.375,9.375,0,0,1,1.32,0,2.35,2.35,0,0,1,1.241.673,2.548,2.548,0,0,1,.634,1.228,6.9,6.9,0,0,1,0,1.32v2.35c0,1.544,0,3.023-.092,4.435-.119,5.61-.224,10.164-.29,13.385a11.537,11.537,0,0,1-.145,2.112,2.3,2.3,0,0,1-.924,1.32,2.033,2.033,0,0,1-.9.33C278.526,204.608,278.42,204.6,278.42,204.582Z" transform="translate(-92.972 -18.197)"/><path class="b" d="M259.519,186.712l4.5,2.732-4.594,2.706-4.607,2.693.092-5.438.106-5.425Z" transform="translate(-89.106 -15.996)"/><path class="c" d="M195.713,259.984,162,241.821h0a29.344,29.344,0,0,0,9.372-10.56l12.342-23.641a14.705,14.705,0,0,1,11.7-7.669h0l31.271,16.8h0a19.034,19.034,0,0,0-8.646,8.2L204.069,250.81a25.767,25.767,0,0,1-8.342,9.24Z" transform="translate(-118.809 -10.885)"/><path class="b" d="M195.707,260.061l.37-.29,1.1-.858a25.977,25.977,0,0,0,3.775-3.722,25.078,25.078,0,0,0,2.231-3.115c.713-1.2,1.4-2.64,2.191-3.96l5.28-9.874c1.967-3.656,4.105-7.656,6.4-11.959a31.162,31.162,0,0,1,1.888-3.234,19.875,19.875,0,0,1,2.534-2.957,20.116,20.116,0,0,1,3.181-2.442c.581-.356,1.175-.686,1.8-.99h0v.541h-.106l-.224-.119-.449-.251-.911-.475-15.1-8.342-8.065-4.29-4.092-2.218-2.072-1.109-.132-.079h-.2l-.568.066c-.383.079-.766.132-1.135.224a14.309,14.309,0,0,0-7.643,4.765,17.98,17.98,0,0,0-2.4,3.8l-2.086,3.96-7.92,15.246a49.952,49.952,0,0,1-4.052,6.956,30.267,30.267,0,0,1-5.28,5.478c-.475.383-.964.752-1.465,1.1l-.172.132-.092.066v-.462h0l.383.211.792.422,3.036,1.65,5.716,3.115,17.226,9.425,4.673,2.64,1.2.686a2.791,2.791,0,0,1,.409.251,1.9,1.9,0,0,1-.436-.185l-1.241-.634-4.726-2.482-17.332-9.24-5.742-3.076-3.049-1.637-.779-.422-.4-.211h0v-.488l.092-.066.185-.132c.488-.343.964-.7,1.426-1.082a29.912,29.912,0,0,0,5.161-5.386,48.422,48.422,0,0,0,3.96-6.89l7.92-15.273,2.086-3.96a18.483,18.483,0,0,1,2.468-3.96,15.009,15.009,0,0,1,8.052-4.91c.383-.106.792-.158,1.188-.238l.594-.066h.594l.132.066,2.072,1.122,4.092,2.2,8,4.33,15.127,8.184.911.488.436.251.224.119h.119v.581h0a18.349,18.349,0,0,0-1.742.95,18.679,18.679,0,0,0-3.089,2.35,19.313,19.313,0,0,0-2.468,2.851,30.893,30.893,0,0,0-1.874,3.181l-6.468,11.88-5.372,9.834c-.792,1.439-1.492,2.8-2.244,3.96a26.532,26.532,0,0,1-2.3,3.115,24.684,24.684,0,0,1-3.96,3.67c-.488.356-.871.634-1.135.792a2.032,2.032,0,0,1-.5.422Z" transform="translate(-118.803 -10.962)"/><path class="b" d="M205.337,222.663c0,.119-5.584-2.772-12.342-6.455s-12.17-6.758-12.1-6.877,5.584,2.785,12.342,6.455S205.4,222.557,205.337,222.663Z" transform="translate(-112.764 -7.884)"/><path class="b" d="M204.125,226.342c0,.119-5.768-2.878-12.751-6.679s-12.58-6.983-12.514-7.1,5.768,2.878,12.751,6.679S204.2,226.21,204.125,226.342Z" transform="translate(-113.414 -6.851)"/><path class="b" d="M202.448,229.445c0,.106-5.782-2.878-12.751-6.679s-12.58-7-12.527-7.115,5.782,2.878,12.751,6.679S202.5,229.313,202.448,229.445Z" transform="translate(-113.955 -5.862)"/><path class="b" d="M200.745,232.542c-.066.119-5.768-2.878-12.751-6.679s-12.58-6.983-12.514-7.1,5.768,2.878,12.751,6.679S200.811,232.423,200.745,232.542Z" transform="translate(-114.496 -4.867)"/><path class="b" d="M199.055,235.642c-.066.119-5.768-2.864-12.751-6.679s-12.58-6.983-12.514-7.1,5.768,2.878,12.751,6.679S199.148,235.536,199.055,235.642Z" transform="translate(-115.036 -3.875)"/><path class="b" d="M185.181,232.137a10.561,10.561,0,0,1-1.993-.9c-1.214-.607-2.864-1.478-4.673-2.468s-3.445-1.9-4.607-2.64a10.375,10.375,0,0,1-1.848-1.2,9.146,9.146,0,0,1,2.006.9c1.214.607,2.864,1.478,4.673,2.468s3.445,1.9,4.607,2.64a9.9,9.9,0,0,1,1.835,1.2Z" transform="translate(-115.59 -2.891)"/><path class="b" d="M189.91,239.883a6.493,6.493,0,0,0,.264-.937,3.96,3.96,0,0,0-.29-2.495,3.722,3.722,0,1,0-2.864,5.28,3.96,3.96,0,0,0,2.257-1.109c.436-.436.594-.739.634-.713a2.073,2.073,0,0,1-.5.845,3.96,3.96,0,0,1-2.336,1.32,4.141,4.141,0,1,1,3.128-5.742,3.96,3.96,0,0,1,.158,2.64A2.349,2.349,0,0,1,189.91,239.883Z" transform="translate(-112.32 -0.038)"/><rect class="b" width="11.101" height="1.597" transform="translate(70.632 196.859) rotate(28.61)"/><path class="d" d="M165.473,131.9l-8.633-9.174v30.4l18.335-20.579Z" transform="translate(-120.46 -35.596)"/><path class="e" d="M165.473,131.9l-8.633-9.174v30.4l18.335-20.579Z" transform="translate(-120.46 -35.596)"/><path class="d" d="M156.99,151.043l10.732-20.856-2.3-.145-1.412-1.492-7.022,22.493" transform="translate(-120.412 -33.734)"/><path class="b" d="M165.473,129.68a16.858,16.858,0,0,1-.95,3.221c-.686,1.967-1.7,4.646-2.917,7.577s-2.389,5.531-3.247,7.418a16.842,16.842,0,0,1-1.518,3.01,17.33,17.33,0,0,1,1.069-3.194c.752-1.94,1.835-4.58,3.062-7.5s2.2-5.28,3.089-7.484a15.96,15.96,0,0,1,1.412-3.049Z" transform="translate(-120.46 -33.372)"/><path class="b" d="M163.633,126.63a16.051,16.051,0,0,1-1.175,6.494,8.026,8.026,0,0,1,.238-3.313,8.158,8.158,0,0,1,.937-3.181Z" transform="translate(-118.687 -34.348)"/><path class="b" d="M166.411,117a8.052,8.052,0,0,1-.62,3.26,8.277,8.277,0,0,1-1.32,3.062,8.118,8.118,0,0,1,.62-3.26A8.277,8.277,0,0,1,166.411,117Z" transform="translate(-118.019 -37.43)"/><path class="b" d="M170.25,107.69a8.448,8.448,0,0,1-.99,3.168,8.237,8.237,0,0,1-1.61,2.891,8.289,8.289,0,0,1,.99-3.168,8.079,8.079,0,0,1,1.61-2.891Z" transform="translate(-117.001 -40.409)"/><path class="b" d="M175.077,98.85a7.92,7.92,0,0,1-1.32,3.049,8.37,8.37,0,0,1-1.927,2.64,8.553,8.553,0,0,1,1.32-3.049,8.289,8.289,0,0,1,1.927-2.64Z" transform="translate(-115.664 -43.238)"/><path class="b" d="M180.844,90.582a8.382,8.382,0,0,1-1.65,2.878c-1.056,1.478-2.046,2.64-2.2,2.482a8.1,8.1,0,0,1,1.65-2.878C179.709,91.572,180.7,90.476,180.844,90.582Z" transform="translate(-114.012 -45.886)"/><path class="b" d="M187.489,83a8.277,8.277,0,0,1-1.967,2.64c-1.214,1.32-2.323,2.336-2.468,2.2s.739-1.32,1.967-2.64S187.344,82.858,187.489,83Z" transform="translate(-112.077 -48.314)"/><path class="b" d="M194.926,76.184c.119.145-.884,1.241-2.257,2.442A8.448,8.448,0,0,1,190,80.54c-.132-.145.884-1.228,2.257-2.442S194.808,76.039,194.926,76.184Z" transform="translate(-109.852 -50.497)"/><path class="b" d="M203.121,70.29c.106.172-1.056,1.069-2.534,2.125a8.3,8.3,0,0,1-2.9,1.6c-.119-.145,1-1.122,2.508-2.165A7.259,7.259,0,0,1,203.121,70.29Z" transform="translate(-107.393 -52.378)"/><path class="b" d="M211.951,65.42c.092.172-1.162.99-2.772,1.822a7.92,7.92,0,0,1-3.089,1.214,8.368,8.368,0,0,1,2.772-1.822,8.131,8.131,0,0,1,3.089-1.214Z" transform="translate(-104.7 -53.936)"/><path class="b" d="M221.278,61.63a8.29,8.29,0,0,1-2.97,1.478,8.184,8.184,0,0,1-3.208.845,8.052,8.052,0,0,1,2.97-1.492A8.21,8.21,0,0,1,221.278,61.63Z" transform="translate(-101.817 -55.149)"/><path class="b" d="M230.962,58.94a8.329,8.329,0,0,1-3.115,1.122,8.012,8.012,0,0,1-3.287.462,16.118,16.118,0,0,1,6.4-1.584Z" transform="translate(-98.789 -56.01)"/><path class="b" d="M240.877,57.424a8.329,8.329,0,0,1-3.234.752,8.17,8.17,0,0,1-3.313.079,8.184,8.184,0,0,1,3.221-.766A8.052,8.052,0,0,1,240.877,57.424Z" transform="translate(-95.663 -56.54)"/><path class="b" d="M250.867,57.09a8.29,8.29,0,0,1-3.287.37,8.2,8.2,0,0,1-3.3-.3,8.316,8.316,0,0,1,3.287-.383,7.92,7.92,0,0,1,3.3.317Z" transform="translate(-92.479 -56.72)"/><path class="b" d="M260.817,57.96a8.54,8.54,0,0,1-3.313,0,8.382,8.382,0,0,1-3.234-.7,15.84,15.84,0,0,1,6.6.713Z" transform="translate(-89.282 -56.575)"/><path class="b" d="M270.558,60.1a15.576,15.576,0,0,1-6.428-1.5,16.3,16.3,0,0,1,6.428,1.5Z" transform="translate(-86.126 -56.119)"/><path class="b" d="M280,63.49a15.906,15.906,0,0,1-6.191-2.31,8.21,8.21,0,0,1,3.221.832A8.54,8.54,0,0,1,280,63.49Z" transform="translate(-83.029 -55.293)"/><path class="b" d="M288.834,68.208A15.84,15.84,0,0,1,283,65a8.131,8.131,0,0,1,3.062,1.32,8.3,8.3,0,0,1,2.772,1.888Z" transform="translate(-80.088 -54.071)"/><path class="b" d="M296.681,74.383c-.132.145-1.32-.673-2.772-1.808s-2.455-2.191-2.336-2.35,1.32.66,2.772,1.808S296.813,74.251,296.681,74.383Z" transform="translate(-77.348 -52.405)"/><path class="b" d="M303.288,81.858c-.158.092-1.069-1.056-2.218-2.455a10.692,10.692,0,0,1-1.94-2.64c.132-.132,1.32.805,2.468,2.231A6.6,6.6,0,0,1,303.288,81.858Z" transform="translate(-74.926 -50.31)"/><path class="b" d="M278.08,187.032a8.355,8.355,0,0,1-3.287.158,8.209,8.209,0,0,1-3.274-.528,8.276,8.276,0,0,1,3.313-.158A8.079,8.079,0,0,1,278.08,187.032Z" transform="translate(-83.762 -15.219)"/><path class="b" d="M288.064,186.4a7.92,7.92,0,0,1-3.26.634,8.3,8.3,0,0,1-3.313,0,15.986,15.986,0,0,1,6.6-.581Z" transform="translate(-80.571 -15.243)"/><path class="b" d="M297.776,184.24a16.157,16.157,0,0,1-6.376,1.716A16.156,16.156,0,0,1,297.776,184.24Z" transform="translate(-77.4 -15.913)"/><path class="b" d="M306.775,180.18a7.338,7.338,0,0,1-2.732,1.9A7.26,7.26,0,0,1,300.9,183.2c-.079-.185,1.214-.911,2.825-1.729A9.557,9.557,0,0,1,306.775,180.18Z" transform="translate(-74.361 -17.212)"/><path class="b" d="M314.379,174c.145.132-.779,1.32-2.138,2.534a7.208,7.208,0,0,1-2.759,1.874c-.119-.158.95-1.175,2.3-2.376A11.331,11.331,0,0,1,314.379,174Z" transform="translate(-71.616 -19.191)"/><path class="b" d="M319.991,166a7.141,7.141,0,0,1-1.4,3.036c-.99,1.544-2.006,2.64-2.152,2.521a9.635,9.635,0,0,1,1.584-2.891A12.382,12.382,0,0,1,319.991,166Z" transform="translate(-69.387 -21.75)"/><path class="b" d="M322.932,156.65A11.564,11.564,0,0,1,321.19,163a9.675,9.675,0,0,1,.673-3.234A10.187,10.187,0,0,1,322.932,156.65Z" transform="translate(-67.867 -24.742)"/><path class="b" d="M322.924,148.72c.185,0,.383.845.436,1.94s-.066,1.967-.251,1.967-.383-.871-.436-1.94S322.726,148.746,322.924,148.72Z" transform="translate(-67.396 -27.279)"/><path class="b" d="M201.074,201.342a9.438,9.438,0,0,1-1.729,2.825c-1.069,1.465-1.967,2.64-2.125,2.534a7.128,7.128,0,0,1,1.571-2.944C199.86,202.214,200.89,201.224,201.074,201.342Z" transform="translate(-107.538 -10.443)"/><path class="b" d="M208.528,194.425c.119.145-.964,1.148-2.336,2.336s-2.534,2.1-2.64,1.954a7.277,7.277,0,0,1,2.218-2.482C207.156,195.072,208.41,194.266,208.528,194.425Z" transform="translate(-105.515 -12.66)"/><path class="b" d="M217.284,189.25a8.368,8.368,0,0,1-2.759,1.848,8.277,8.277,0,0,1-3.076,1.254,8.422,8.422,0,0,1,2.759-1.861,8.105,8.105,0,0,1,3.076-1.241Z" transform="translate(-102.985 -14.309)"/><path class="b" d="M226.872,186.008a21.7,21.7,0,0,1-6.362,1.782,7.114,7.114,0,0,1,3.062-1.32,7.26,7.26,0,0,1,3.3-.462Z" transform="translate(-100.085 -15.357)"/><path class="b" d="M236.847,185.074a9.24,9.24,0,0,1-3.287.4,9.068,9.068,0,0,1-3.3-.092,12.5,12.5,0,0,1,6.6-.3Z" transform="translate(-96.965 -15.743)"/><path class="b" d="M241.048,185.571a.418.418,0,0,1-.818-.119.4.4,0,0,1,.462-.29C240.916,185.2,241.088,185.373,241.048,185.571Z" transform="translate(-93.775 -15.62)"/><path class="b" d="M212.862,268a8.079,8.079,0,0,1,2.97,1.492,11.062,11.062,0,0,1,2.64,2.072,7.828,7.828,0,0,1-2.97-1.492A9.524,9.524,0,0,1,212.862,268Z" transform="translate(-102.535 10.892)"/><path class="b" d="M204.843,262a8.474,8.474,0,0,1,2.8,1.782c1.412,1.135,2.482,2.165,2.363,2.323s-1.32-.647-2.8-1.782S204.711,262.158,204.843,262Z" transform="translate(-105.103 8.971)"/><path class="b" d="M198.72,254.181c.172-.092.99,1.135,1.954,2.64a10.127,10.127,0,0,1,1.571,2.9c-.145.119-1.175-.977-2.152-2.534a7.286,7.286,0,0,1-1.373-3.01Z" transform="translate(-107.058 6.468)"/><path class="b" d="M194.9,245a15.84,15.84,0,0,1,2.218,6.217,8.184,8.184,0,0,1-1.426-3A8.356,8.356,0,0,1,194.9,245Z" transform="translate(-108.281 3.531)"/></g><g transform="translate(141.122 258.954)"><path class="g" d="M270.864,358.29l-2.719,117.468H262.97l.33-117.177Z" transform="translate(-64.15 -162.448)"/><path class="g" d="M283.13,357.3l25.186,118.775H314.1L293.122,357.3Z" transform="translate(-57.699 -162.765)"/><path class="g" d="M255.507,358.408,227.642,475.876H221.86l25.3-117.956Z" transform="translate(-77.306 -162.567)"/><path class="g" d="M330.058,273.009s27.826-1.584,25.08,30.6-4.369,64.773-14.7,75.9S225.988,391.031,217.25,381.9s16.685-8.752,21.45-8.752,34.175,2.785,43.719-22.242S289.534,271.359,330.058,273.009Z" transform="translate(-79.361 -189.751)"/><path class="g" d="M331.817,273s21.265,4.356,19.285,26.611-7.55,61.2-17.886,71.135S282.4,382.838,260.5,381.478c-25.437-1.6-41.488-6.442-41.488-6.442s-4.646,2.983-3.234,4.91,13.807,9.649,73.921,8.369,55.929-10.164,58.424-19.8,7.735-61.341,7.009-72.693S348.673,274.94,331.817,273Z" transform="translate(-79.338 -189.742)"/><path class="h" d="M331.817,273s21.265,4.356,19.285,26.611-7.55,61.2-17.886,71.135S282.4,382.838,260.5,381.478c-25.437-1.6-41.488-6.442-41.488-6.442s-4.646,2.983-3.234,4.91,13.807,9.649,73.921,8.369,55.929-10.164,58.424-19.8,7.735-61.341,7.009-72.693S348.673,274.94,331.817,273Z" transform="translate(-79.338 -189.742)"/><path class="g" d="M290.415,306.494a2.376,2.376,0,1,0,2.3-2.944A2.64,2.64,0,0,0,290.415,306.494Z" transform="translate(-55.374 -179.966)"/><path class="g" d="M291.941,295.91a17.04,17.04,0,0,0-.792,4.29,10.178,10.178,0,0,0,1.016,4.515,9.414,9.414,0,0,0,1.518,2.257,10.228,10.228,0,0,1,1.069,1.148,2.323,2.323,0,0,1,.383,1.769,19.8,19.8,0,0,1-1.175,2.891,9.242,9.242,0,0,0-.343,2.64,10.019,10.019,0,0,0,1.162,4.475,17.02,17.02,0,0,0,2.64,3.432,3.993,3.993,0,0,1-1.03-.647,9.4,9.4,0,0,1-2.138-2.508,9.94,9.94,0,0,1-1.412-4.739,9.4,9.4,0,0,1,.343-2.957,26.646,26.646,0,0,0,1.135-2.759c.211-.884-.515-1.5-1.241-2.244a9.847,9.847,0,0,1-1.61-2.482,10.1,10.1,0,0,1-.911-4.844,9.8,9.8,0,0,1,.726-3.234,2.9,2.9,0,0,1,.66-1Z" transform="translate(-55.329 -182.411)"/><path class="g" d="M286.887,302.89c.132,0,0,.7.33,1.676a5.9,5.9,0,0,0,2.31,3.128,9.24,9.24,0,0,0,3.775,1.32c1.056.158,1.729.172,1.729.29s-.66.277-1.769.264a7.92,7.92,0,0,1-4.184-1.241,5.7,5.7,0,0,1-2.416-3.656C286.491,303.537,286.807,302.864,286.887,302.89Z" transform="translate(-56.584 -180.177)"/><g class="i" transform="translate(230.028 113.499)"><path d="M290.415,306.494a2.376,2.376,0,1,0,2.3-2.944A2.64,2.64,0,0,0,290.415,306.494Z" transform="translate(-285.401 -293.465)"/><path d="M291.941,295.91a17.04,17.04,0,0,0-.792,4.29,10.178,10.178,0,0,0,1.016,4.515,9.414,9.414,0,0,0,1.518,2.257,10.228,10.228,0,0,1,1.069,1.148,2.323,2.323,0,0,1,.383,1.769,19.8,19.8,0,0,1-1.175,2.891,9.242,9.242,0,0,0-.343,2.64,10.019,10.019,0,0,0,1.162,4.475,17.02,17.02,0,0,0,2.64,3.432,3.993,3.993,0,0,1-1.03-.647,9.4,9.4,0,0,1-2.138-2.508,9.94,9.94,0,0,1-1.412-4.739,9.4,9.4,0,0,1,.343-2.957,26.646,26.646,0,0,0,1.135-2.759c.211-.884-.515-1.5-1.241-2.244a9.847,9.847,0,0,1-1.61-2.482,10.1,10.1,0,0,1-.911-4.844,9.8,9.8,0,0,1,.726-3.234,2.9,2.9,0,0,1,.66-1Z" transform="translate(-285.356 -295.91)"/><path d="M286.887,302.89c.132,0,0,.7.33,1.676a5.9,5.9,0,0,0,2.31,3.128,9.24,9.24,0,0,0,3.775,1.32c1.056.158,1.729.172,1.729.29s-.66.277-1.769.264a7.92,7.92,0,0,1-4.184-1.241,5.7,5.7,0,0,1-2.416-3.656C286.491,303.537,286.807,302.864,286.887,302.89Z" transform="translate(-286.612 -293.677)"/></g><path class="b" d="M274.009,212.368c-.356-.132-.818-.277-1.426-.436a18.811,18.811,0,0,0-6.323-.568,13.953,13.953,0,0,0-8.58,3.762,12.342,12.342,0,0,0-3.1,4.712A10.4,10.4,0,0,0,254,222.8c0,1.03.079,2.033,0,3.01a3.379,3.379,0,0,1-1.03,2.468,7.92,7.92,0,0,1-2.442,1.32A8.766,8.766,0,0,0,248,231.046a7.1,7.1,0,0,0-2.218,7.3,17.862,17.862,0,0,0,1.888,3.96c.317.5.581.99.832,1.465a5.558,5.558,0,0,1,0,1.241,8.448,8.448,0,0,1-2.495,4.739,20.566,20.566,0,0,0-3.432,4.224,4.713,4.713,0,0,0,.224,5.148c1.32,1.531,3.656,1.531,5.689,1.478a172.328,172.328,0,0,1,21.12,1.175l5.7-49.078Q274.722,212.553,274.009,212.368Zm-17.781,8.686c-.317,1.94,0,4.039-.964,5.768s-3.062,2.772-4.633,4.145a9.689,9.689,0,0,0-3.062,8.857c.145.818.409,1.624.634,2.442l-.079-.132a17.637,17.637,0,0,1-1.756-3.96,6.349,6.349,0,0,1,.5-4.646,6.283,6.283,0,0,1,1.584-2.006,8.079,8.079,0,0,1,2.363-1.32,8.672,8.672,0,0,0,2.64-1.465,4.066,4.066,0,0,0,1.241-2.93c0-1.069-.092-2.072,0-3.023a9.648,9.648,0,0,1,.528-2.759,11.88,11.88,0,0,1,2.9-4.488,13.7,13.7,0,0,1,8.2-3.722,18.017,18.017,0,0,1,2.02-.106,15.364,15.364,0,0,0-4.567.858,11.392,11.392,0,0,0-7.55,8.488Z" transform="translate(-70.886 -209.485)"/><path class="j" d="M262.337,270.02c.409-2.257-.317-11.788-.317-11.788s-8.448-1.069-8.818-9.7.5-28.5.5-28.5l15.55-7.471,13.583,15.484.251,41.844Z" transform="translate(-67.305 -209.083)"/><path class="b" d="M255.21,229.482a1.082,1.082,0,1,0,1.1-1.082,1.1,1.1,0,0,0-1.1,1.083Z" transform="translate(-66.633 -204.014)"/><path class="b" d="M253.874,228.615c.132.145.937-.541,2.1-.581s2.02.541,2.138.383-.079-.33-.449-.607a2.706,2.706,0,0,0-1.716-.488,2.759,2.759,0,0,0-1.676.647C253.927,228.219,253.808,228.549,253.874,228.615Z" transform="translate(-67.066 -204.361)"/><path class="b" d="M264.75,229.482a1.082,1.082,0,1,0,1.1-1.082,1.1,1.1,0,0,0-1.1,1.082Z" transform="translate(-63.58 -204.014)"/><path class="b" d="M263.594,228.787c.132.145.937-.541,2.1-.581s2.02.541,2.138.383-.079-.33-.449-.607a2.8,2.8,0,0,0-1.716-.5,2.838,2.838,0,0,0-1.676.647C263.647,228.444,263.528,228.721,263.594,228.787Z" transform="translate(-63.956 -204.309)"/><path class="b" d="M261.005,238.512a7.458,7.458,0,0,0-1.888-.29c-.29,0-.568,0-.62-.277a1.69,1.69,0,0,1,.172-.95c.277-.779.554-1.6.845-2.455a43.023,43.023,0,0,0,1.861-6.389,44.884,44.884,0,0,0-2.336,6.23c-.277.858-.541,1.676-.805,2.455a1.98,1.98,0,0,0-.132,1.254.766.766,0,0,0,.5.449,2.4,2.4,0,0,0,.5,0A7.462,7.462,0,0,0,261.005,238.512Z" transform="translate(-65.723 -204.094)"/><path class="k" d="M259.86,248.05a20.618,20.618,0,0,0,11.194-3.67s-2.64,6.283-11.048,5.782Z" transform="translate(-65.145 -198.901)"/><path class="b" d="M304.233,240.384a5.056,5.056,0,0,1-1.637,0c-.977-1.531-2.732-2.64-4.039-4.052a6.785,6.785,0,0,1,.317-3.762,16.973,16.973,0,0,0,.607-2.046,4.119,4.119,0,0,0-.119-2.323,6.2,6.2,0,0,0-3.392-3.1c-1.162-1.624-3.287-2.376-4.765-3.762a11.093,11.093,0,0,1-.66-2.323,15.841,15.841,0,0,0-1.016-3.788,7.208,7.208,0,0,0-2.191-2.64,7.55,7.55,0,0,0-3.722-1.544,10.018,10.018,0,0,0-3.036-1,10.56,10.56,0,0,0-8.9,2.891,18.176,18.176,0,0,0-14.018,2.165,10.56,10.56,0,0,0-4.435,4.488,13.847,13.847,0,0,0-.832,5.61c0,1.32,0,2.732,0,4.092a1.769,1.769,0,0,0,.2,1.016,1.821,1.821,0,0,0,1.5.554l6.323.238a2.257,2.257,0,0,0,1.254-.2,2.191,2.191,0,0,0,.99-2.006v-2.152a24.057,24.057,0,0,0,.752,2.442,3.221,3.221,0,0,0,1.32,2.2,3.854,3.854,0,0,0,1.822.3h2.732a2.244,2.244,0,0,0,1.32-.33,2.125,2.125,0,0,0,.488-2.033,13.994,13.994,0,0,1-.436-2.825c.818,1.61,1.214,3.617,2.218,3.881a6.943,6.943,0,0,0,3.049-.224c1.016-.317,1.729-.568,2.468-.805a6.809,6.809,0,0,1-.3,1.241c-.766,2.072-2.495,4.066-1.9,6.191s2.732,2.864,3.841,4.541a7.26,7.26,0,0,1,.238,6.323,57.09,57.09,0,0,0-2.336,6.112c-.488,2.125-.145,4.673,1.6,5.98a7.92,7.92,0,0,0,4.831,1.1l15.339.132a8.382,8.382,0,0,0,2.93-.317,2.825,2.825,0,0,0,1.954-2.046,3.6,3.6,0,0,0-1.4-3.049,9.662,9.662,0,0,1-2.336-2.64c-.805-1.729,0-3.749.871-5.425s1.927-3.5,1.6-5.372a4.222,4.222,0,0,0-.449-1.32,4.5,4.5,0,0,0,1.478-.172,3.406,3.406,0,0,0,1.228-.594c.238-.185.343-.3.33-.33a6.244,6.244,0,0,1-1.676.686Zm-19.6-28.75a7.445,7.445,0,0,1,2.4,1.32,6.772,6.772,0,0,1,1.98,2.534,15.842,15.842,0,0,1,.911,3.67,4.694,4.694,0,0,0,.158.818c-.739-1.32-1.109-2.812-1.756-4.171a10.468,10.468,0,0,0-3.7-4.158Zm11.88,14.52a4.765,4.765,0,0,1,2.2,2.27,6.112,6.112,0,0,1-.449,3.96,6.918,6.918,0,0,0-.422,3.115,5.278,5.278,0,0,1-.66-1.188c-1-2.508.251-5.6-.66-8.092Z" transform="translate(-67.542 -209.926)"/><path class="k" d="M260.624,238.75a2.257,2.257,0,0,1,1.32-1.65,1.782,1.782,0,0,1,1.492,0,1.32,1.32,0,0,1,.686,1.32,1.465,1.465,0,0,1-1.2,1.109,3.96,3.96,0,0,1-1.716-.106,1.32,1.32,0,0,1-.449-.172.4.4,0,0,1-.185-.409" transform="translate(-64.92 -201.283)"/><path class="b" d="M263.663,236c.092,0,.238.317.2.871a3.128,3.128,0,0,1-.95,1.967,3.089,3.089,0,0,1-2.02.832c-.568,0-.884-.158-.871-.238a5.157,5.157,0,0,0,2.416-1.1C263.531,237.333,263.479,236,263.663,236Z" transform="translate(-65.094 -201.582)"/><path class="j" d="M258.517,270.276s-25.569,22.229-26.229,19.5c-3.6-14.718-2.64-33.5-2.006-40.683.4-.62.858-1.32,1.4-2.059a9.966,9.966,0,0,1,2.336-2.138,14.523,14.523,0,0,1,3.472-1.94,1.231,1.231,0,0,0,.343-2.284c-.977-.37-4.29.462-7.326,3s-1.8-3.485-1.386-5.689,1.32-9.068.779-9.715c-.845-.937-2.046-.185-2.416,2.02s-1.9,8.765-3.049,8.527,1.1-11.431,1.1-11.431.871-2.323-.449-2.64c-2.4-.594-3.894,11.458-3.96,12.606-.079.792-1.32.581-1.214-.277s2.495-11.114,0-11.735c-1.861-.475-1.32,9.9-3,11.788s.4-7.92-1.4-8.316c-.673-.132-1.2-.145-1.571,5.636a125.037,125.037,0,0,0,.5,13.953c-1.584,15.84-4.686,64.483,17.266,62.806,25.912-1.967,31.878-22.44,31.878-22.44Z" transform="translate(-80.038 -205.194)"/><path class="d" d="M324.87,296.187l-4.435-22.229c-3.26-18.2-28.776-19.457-28.776-19.457l-20.025-.33s-13.332-.422-24.011,8.329S229.79,278,229.79,278l16.751,19.378,9.926-6.6s-3.577,6.442-2.983,11.88c.568,5.28,6.112,9.319,6.112,9.319l-4.171,44.709,65.393-2.64L312.4,296.187Z" transform="translate(-74.768 -195.769)"/><path class="c" d="M316.881,277.592a11.43,11.43,0,0,1-.766,1.637,18.348,18.348,0,0,1-10.23,8.29,18.7,18.7,0,0,1-10.811.119,15.4,15.4,0,0,1-5.636-2.97,9.016,9.016,0,0,1-3.3-6.032,6.877,6.877,0,0,1,3.393-6.415,4.9,4.9,0,0,1,3.96-.264,6.6,6.6,0,0,1,3.194,2.508,7.405,7.405,0,0,1,1.32,3.96,9.371,9.371,0,0,1-.9,4.132,16.447,16.447,0,0,1-5.663,6.455,23.035,23.035,0,0,1-17.292,3.722,20.5,20.5,0,0,1-8.422-3.63,15.035,15.035,0,0,1-5.372-7.075,12,12,0,0,1,.277-8.554,8.475,8.475,0,0,1,6.323-5.122,5.7,5.7,0,0,1,6.349,4.026,5.175,5.175,0,0,1-.66,3.788,7.326,7.326,0,0,1-2.64,2.64,10.56,10.56,0,0,1-6.838.871A34.9,34.9,0,0,1,257.045,278a20.962,20.962,0,0,1-9.068-5.927,12.567,12.567,0,0,1-2.944-7.59,9.636,9.636,0,0,1,1.135-5.042,6.481,6.481,0,0,1,1.082-1.452,11.305,11.305,0,0,0-.964,1.518,9.807,9.807,0,0,0-.977,4.963,12.369,12.369,0,0,0,2.957,7.352,20.513,20.513,0,0,0,8.95,5.716,34.781,34.781,0,0,0,6.033,1.61,10.006,10.006,0,0,0,6.468-.832,6.6,6.6,0,0,0,2.429-2.4,4.607,4.607,0,0,0,.567-3.392A5.082,5.082,0,0,0,267.038,269a7.828,7.828,0,0,0-5.808,4.752,11.273,11.273,0,0,0-.238,8.079,14.282,14.282,0,0,0,5.135,6.745,20.052,20.052,0,0,0,8.131,3.5,22.44,22.44,0,0,0,16.79-3.6A15.84,15.84,0,0,0,296.5,282.3a8.8,8.8,0,0,0,.845-3.854,6.692,6.692,0,0,0-1.214-3.59,5.993,5.993,0,0,0-2.864-2.3,4.343,4.343,0,0,0-3.472.211,6.349,6.349,0,0,0-3.1,5.861,8.369,8.369,0,0,0,3.089,5.65,14.52,14.52,0,0,0,5.425,2.9,18.269,18.269,0,0,0,10.56,0,17.992,17.992,0,0,0,6.956-4.026,19.166,19.166,0,0,0,3.26-3.96l.66-1.162Z" transform="translate(-69.894 -194.545)"/><path class="c" d="M311.784,333.5l-.356.158c-.238.079-.594.238-1.069.37a18.267,18.267,0,0,1-4.3.739,20.3,20.3,0,0,1-6.864-.792,19.378,19.378,0,0,1-7.92-4.541,20.236,20.236,0,0,1-6.151-15.761,13.662,13.662,0,0,1,1.822-6.349,7.431,7.431,0,0,1,2.482-2.482,6.31,6.31,0,0,1,3.5-.871,4.66,4.66,0,0,1,3.366,1.544,5.28,5.28,0,0,1,1.32,3.551,6.6,6.6,0,0,1-1.1,3.656,9.874,9.874,0,0,1-2.732,2.706,18.375,18.375,0,0,1-7.207,2.759,21.846,21.846,0,0,1-14.692-2.957,19.128,19.128,0,0,1-5.372-4.844,13.53,13.53,0,0,1-2.772-6.376,8.131,8.131,0,0,1,1.8-6.336,5.927,5.927,0,0,1,2.64-1.848,5.478,5.478,0,0,1,3.155-.079,5.279,5.279,0,0,1,2.64,1.544,4.2,4.2,0,0,1,1.109,2.719,6.27,6.27,0,0,1-2.389,4.792,11.88,11.88,0,0,1-4.277,2.35,16.908,16.908,0,0,1-4.25.832,16.289,16.289,0,0,1-6.824-1.043,15.576,15.576,0,0,1-3.788-2.165,9.241,9.241,0,0,1-.871-.739c-.185-.172-.277-.264-.264-.277s.409.33,1.214.9a15.655,15.655,0,0,0,10.56,2.944,16.393,16.393,0,0,0,4.145-.871,11.22,11.22,0,0,0,4.092-2.3,5.755,5.755,0,0,0,2.178-4.4,4.158,4.158,0,0,0-3.353-3.736,4.858,4.858,0,0,0-2.812.079,5.425,5.425,0,0,0-2.4,1.676,7.629,7.629,0,0,0-1.637,5.874,12.883,12.883,0,0,0,2.64,6.059,18.481,18.481,0,0,0,5.2,4.673,21.266,21.266,0,0,0,14.217,2.851,17.9,17.9,0,0,0,6.943-2.64,7.115,7.115,0,0,0,3.538-5.795,4.739,4.739,0,0,0-1.082-3.115,4.105,4.105,0,0,0-2.891-1.32,5.768,5.768,0,0,0-3.142.779,6.917,6.917,0,0,0-2.284,2.257,13.2,13.2,0,0,0-1.742,6.059,20.13,20.13,0,0,0,.541,6.019,19.88,19.88,0,0,0,5.346,9.346,19.206,19.206,0,0,0,7.683,4.541,20.565,20.565,0,0,0,11.022.277A14.234,14.234,0,0,1,311.784,333.5Z" transform="translate(-67.53 -182.525)"/><path class="b" d="M280.624,268.1a5.6,5.6,0,0,1,.356,1.412c.211,1.069.462,2.376.766,3.96.673,3.458,1.544,7.92,2.495,12.87s1.782,9.61,2.31,12.923c.251,1.663.449,3.01.554,3.96a5.858,5.858,0,0,1,.079,1.465,6.337,6.337,0,0,1-.343-1.426c-.211-1.069-.475-2.363-.779-3.894-.673-3.458-1.531-7.92-2.495-12.883s-1.782-9.6-2.3-12.923c-.264-1.663-.449-3.01-.554-3.96A5.493,5.493,0,0,1,280.624,268.1Z" transform="translate(-58.506 -191.31)"/><path class="b" d="M307.986,286.225a101.877,101.877,0,0,1-12.078.383,108.733,108.733,0,0,1-12.078-.29,103.457,103.457,0,0,1,12.078-.4A110.449,110.449,0,0,1,307.986,286.225Z" transform="translate(-57.475 -185.622)"/><path class="b" d="M246.381,291.645a120.111,120.111,0,0,1-8.316-9.636,114.045,114.045,0,0,1-7.775-10.059,118.375,118.375,0,0,1,8.316,9.623,119.4,119.4,0,0,1,7.775,10.072Z" transform="translate(-74.608 -190.078)"/><path class="b" d="M280.321,254.566a12.327,12.327,0,0,1-3.023.343c-1.874.106-4.462.172-7.326.132s-5.438-.185-7.313-.356a12.185,12.185,0,0,1-3.01-.436,14.872,14.872,0,0,1,3.036,0l7.3.158,7.3.066A15.643,15.643,0,0,1,280.321,254.566Z" transform="translate(-65.212 -195.767)"/><path class="b" d="M247.86,290.794a11.748,11.748,0,0,1,1.148-2.64l1.426-2.825a5.386,5.386,0,0,0,.99-3.445c-.488-2.64-.964-5.148-1.241-6.917a12.831,12.831,0,0,1-.317-2.917,12.317,12.317,0,0,1,.792,2.825c.409,1.769.95,4.171,1.439,6.917a3.538,3.538,0,0,1-.238,2.125,16.955,16.955,0,0,1-.871,1.7q-.832,1.465-1.544,2.772A12.881,12.881,0,0,1,247.86,290.794Z" transform="translate(-68.985 -190.046)"/><path class="d" d="M211.68,445.208V431.6l24.381-.158.211,20.355-1.518.106c-6.732.436-34.228,1.32-38.742-.119C190.969,450.224,211.68,445.208,211.68,445.208Z" transform="translate(-85.83 -139.039)"/><path class="b" d="M195.38,446.012c0,.224,9.121.409,20.381.409s20.368-.185,20.368-.409-9.121-.422-20.368-.422S195.38,445.788,195.38,446.012Z" transform="translate(-85.779 -134.511)"/><path class="b" d="M207.808,444.607c.2-.106,0-.832-.488-1.531s-1.162-1.1-1.32-.937.172.766.647,1.426S207.61,444.686,207.808,444.607Z" transform="translate(-82.394 -135.627)"/><path class="b" d="M206.605,445.38c.211-.079.106-.884-.37-1.742s-1.109-1.32-1.32-1.214.132.832.568,1.624S206.368,445.46,206.605,445.38Z" transform="translate(-82.748 -135.529)"/><path class="b" d="M220.7,447c.092.066.449-.29.977-.9a17.162,17.162,0,0,1,2.138-2.138,5.743,5.743,0,0,1,2.64-1.148c.739-.106,1.228,0,1.32-.106s-.422-.436-1.32-.488a4.937,4.937,0,0,0-3.128,1.082,8.776,8.776,0,0,0-2.1,2.455C220.788,446.457,220.6,446.932,220.7,447Z" transform="translate(-77.686 -135.59)"/><path class="b" d="M207.315,442.019c-.119.185.29.66.99.924s1.32.158,1.32-.066-.462-.488-1.069-.713S207.434,441.874,207.315,442.019Z" transform="translate(-81.967 -135.679)"/><path class="b" d="M207.6,441.1c0,.224.62.422,1.452.436s1.478-.158,1.452-.4-.66-.422-1.452-.436S207.613,440.925,207.6,441.1Z" transform="translate(-81.869 -136.076)"/><path class="d" d="M250.68,445.208V431.6l24.381-.158.211,20.355-1.518.106c-6.719.436-34.228,1.32-38.742-.119C229.969,450.224,250.68,445.208,250.68,445.208Z" transform="translate(-73.35 -139.039)"/><path class="b" d="M234.39,446.012c0,.224,9.121.409,20.368.409s20.368-.185,20.368-.409-9.108-.422-20.368-.422S234.39,445.788,234.39,446.012Z" transform="translate(-73.296 -134.511)"/><path class="b" d="M246.808,444.607c.211-.106,0-.832-.488-1.531s-1.162-1.1-1.32-.937.172.766.647,1.426S246.61,444.686,246.808,444.607Z" transform="translate(-69.913 -135.627)"/><path class="b" d="M245.618,445.38c.211-.079.092-.884-.383-1.742s-1.109-1.32-1.32-1.214.132.832.568,1.624S245.368,445.46,245.618,445.38Z" transform="translate(-70.268 -135.529)"/><path class="b" d="M259.7,447c.092.066.462-.29.99-.9a15.458,15.458,0,0,1,2.138-2.138,5.636,5.636,0,0,1,2.64-1.148c.739-.106,1.228,0,1.32-.106s-.409-.436-1.32-.488a4.937,4.937,0,0,0-3.128,1.082,9,9,0,0,0-2.1,2.455C259.788,446.457,259.6,446.932,259.7,447Z" transform="translate(-65.205 -135.59)"/><path class="b" d="M246.315,442.019c-.119.185.29.66.99.924s1.32.158,1.32-.066-.462-.488-1.069-.713S246.434,441.874,246.315,442.019Z" transform="translate(-69.486 -135.679)"/><path class="b" d="M246.6,441.1c0,.224.62.422,1.452.436s1.478-.158,1.465-.4-.673-.422-1.452-.436S246.613,440.925,246.6,441.1Z" transform="translate(-69.389 -136.076)"/><path class="j" d="M329.833,303.739c-1.32-10.679-2.732-17.569-2.732-17.569l-23.245.356s2.086,11.735,1.439,14.876c-.554,2.746-45.422,4.554-57.117,4.739-.686-.515-1.7.356-2.64-.422a9.411,9.411,0,0,1-1.993-2.455,14.4,14.4,0,0,1-1.6-3.63,1.188,1.188,0,0,0-2.218-.5c-.475,1,0,4.33,2.27,7.55s-3.59,1.544-5.729.977-8.8-2.02-9.5-1.478c-1,.779-.37,2.033,1.769,2.561s8.461,2.534,8.118,3.67-11.154-1.927-11.154-1.927-2.218-1.043-2.64.264c-.805,2.35,10.93,4.739,12.052,4.937.779.132.449,1.386-.383,1.2s-10.718-3.313-11.563-.924c-.634,1.835,9.636,2.046,11.339,3.868s-7.775-.99-8.316.792c-.2.66,3.736.964,9.4,1.756a144.5,144.5,0,0,0,17.517.634c13.2.713,59.6,1.676,69.525.977C334.018,323.17,330.269,307.409,329.833,303.739Z" transform="translate(-76.998 -185.527)"/><path class="b" d="M228.457,328.416a347.679,347.679,0,0,1,60.219-.766L263.226,364.2l-22.968.092-4.8,112.293H205l2.9-125.256A23.668,23.668,0,0,1,228.457,328.416Z" transform="translate(-82.701 -172.558)"/><path class="h" d="M228.457,328.416a347.679,347.679,0,0,1,60.219-.766L263.226,364.2l-22.968.092-4.8,112.293H205l2.9-125.256A23.668,23.668,0,0,1,228.457,328.416Z" transform="translate(-82.701 -172.558)"/><path class="b" d="M273.8,366.992s45.5,3.089,44.366-37.766c0,0-63.268-7.7-75.386,5.359-10.164,10.943-.871,141.914-.871,141.914l33.832-1.65" transform="translate(-72.132 -172.47)"/><path class="g" d="M283.287,327.038a3.736,3.736,0,0,1-.9,0l-2.574.106c-2.231.092-5.452.277-9.438.568l-6.508.5c-2.336.224-4.844.422-7.405.884a48.391,48.391,0,0,0-7.92,2.165c-2.64,1.016-5.28,2.534-6.6,5.28a27.72,27.72,0,0,0-2.257,8.448,82.315,82.315,0,0,0-.568,8.237c-.119,5.28-.37,10.032-.541,14.032s-.29,7.128-.383,9.438c0,1.069-.066,1.914-.092,2.574a4.7,4.7,0,0,1-.066.9,3.618,3.618,0,0,1-.066-.9V376.7c0-2.231,0-5.465.158-9.464s.3-8.752.4-14.019a76.336,76.336,0,0,1,.541-8.3,27.811,27.811,0,0,1,2.3-8.672,9.4,9.4,0,0,1,3-3.538,17.614,17.614,0,0,1,3.96-2.059,48.71,48.71,0,0,1,8.052-2.152c2.64-.449,5.148-.634,7.484-.832s4.541-.317,6.534-.422c3.96-.224,7.22-.33,9.465-.356h2.574a4.093,4.093,0,0,1,.858.159Z" transform="translate(-72.151 -172.5)"/><path class="g" d="M275.127,432.557a5.017,5.017,0,0,1-1.32.211c-.858.079-2.125.185-3.683.29-3.1.224-7.405.475-12.157.713s-9.055.422-12.17.515c-1.558,0-2.825.079-3.7.079a5.047,5.047,0,0,1-1.32-.066,5.464,5.464,0,0,1,1.32-.2c.871-.092,2.125-.185,3.683-.29,3.1-.224,7.405-.475,12.157-.726s9.055-.409,12.171-.515c1.558,0,2.825-.066,3.7-.066A5.516,5.516,0,0,1,275.127,432.557Z" transform="translate(-71.251 -138.705)"/><path class="g" d="M236.51,433.783c0,.185-7.062.343-15.84.343s-15.84-.158-15.84-.343,7.075-.343,15.84-.343S236.51,433.585,236.51,433.783Z" transform="translate(-82.755 -138.399)"/><path class="g" d="M246.805,338.379a1.2,1.2,0,0,1-.383,0l-1.122-.092c-.977-.092-2.429-.211-4.3-.29a64.9,64.9,0,0,0-6.824,0,35.875,35.875,0,0,0-4.224.436,13.07,13.07,0,0,0-4.448,1.426,3.8,3.8,0,0,0-1.663,1.716,19.279,19.279,0,0,0-.858,2.508,43.57,43.57,0,0,0-1.1,5.557c-.383,3.96-.726,8.118-1.043,12.54-.634,8.857-1.1,18.6-1.465,28.829-.686,20.487-1.465,39.02-2.02,52.444-.29,6.666-.528,12.078-.7,15.84-.106,1.835-.172,3.287-.224,4.316a4.593,4.593,0,0,1-.079,1.122,1.609,1.609,0,0,1,0,.383,1.7,1.7,0,0,1,0-.383v-1.122c0-1.043,0-2.482.106-4.33.106-3.8.277-9.24.475-15.84.475-13.464,1.122-31.984,1.822-52.444.37-10.23.858-19.985,1.518-28.842q.5-6.6,1.109-12.58a40.742,40.742,0,0,1,1.162-5.623,16.458,16.458,0,0,1,.9-2.574,4.343,4.343,0,0,1,1.874-1.927,13.715,13.715,0,0,1,4.633-1.439,36.384,36.384,0,0,1,4.277-.383,68.094,68.094,0,0,1,6.851.145c1.874.132,3.326.3,4.3.422l1.122.172A1.32,1.32,0,0,1,246.805,338.379Z" transform="translate(-79.071 -169.07)"/><path class="g" d="M306.013,328.09a1.753,1.753,0,0,1,0,.462,8,8,0,0,1-.172,1.32,15.035,15.035,0,0,1-12.87,12.223,50,50,0,0,1-5.861.172H262.4a9.821,9.821,0,0,0-3.749.9,10.138,10.138,0,0,0-5.28,5.742,11.114,11.114,0,0,0-.607,4.092v22.572c0,24.922-.079,47.52-.106,63.862,0,8.131-.079,14.745-.106,19.351v7.062a1.965,1.965,0,0,1,0-.462c0-.343,0-.792,0-1.32v-5.28c0-4.607,0-11.22-.106-19.351,0-16.381-.066-38.94-.106-63.862V353.051a11.736,11.736,0,0,1,.673-4.316,10.745,10.745,0,0,1,5.663-6.1,10.559,10.559,0,0,1,3.96-.937h11.4l13.359.079a51.72,51.72,0,0,0,5.795-.119,15.008,15.008,0,0,0,10.864-7.009,15.536,15.536,0,0,0,1.94-4.831c.119-.581.172-1.03.224-1.32A.38.38,0,0,0,306.013,328.09Z" transform="translate(-67.553 -172.113)"/><path class="g" d="M265.656,350.43a39.189,39.189,0,0,1-.594,10.441,20.211,20.211,0,0,1,0-5.28A20.476,20.476,0,0,1,265.656,350.43Z" transform="translate(-63.536 -164.964)"/><path class="b" d="M122.533,296.116s-1.465-11.656-.317-11.656,1.861,11.656,1.861,11.656h-1.927" transform="translate(-109.333 -186.075)"/><path class="d" d="M125.412,296.116s-1.465-11.656-.3-11.656,1.848,11.656,1.848,11.656h-1.927" transform="translate(-108.41 -186.075)"/><path class="f" d="M125.412,296.116s-1.465-11.656-.3-11.656,1.848,11.656,1.848,11.656h-1.927" transform="translate(-108.41 -186.075)"/><path class="b" d="M129.822,296.116s-1.465-11.656-.3-11.656,1.848,11.656,1.848,11.656h-1.927" transform="translate(-106.999 -186.075)"/><path class="g" d="M127.153,296.56s0-11.735,1.162-11.59.37,11.788.37,11.788l-1.914-.238" transform="translate(-107.735 -185.912)"/><path class="d" d="M124.542,296.116s-1.465-11.656-.3-11.656,1.848,11.656,1.848,11.656h-1.927" transform="translate(-108.689 -186.075)"/><path class="e" d="M124.542,296.116s-1.465-11.656-.3-11.656,1.848,11.656,1.848,11.656h-1.927" transform="translate(-108.689 -186.075)"/><path class="d" d="M122.64,311.625,120.7,293.29h15.55v18.335Z" transform="translate(-109.678 -183.249)"/><path class="b" d="M455.936,307.24H112.35v9.174h18.375L121.207,491.5h5.24l9.517-175.086H437.191l8.118,175.06,5.795.3-8.672-175.363h13.5Z" transform="translate(-112.35 -178.785)"/><path class="b" d="M197.56,266.2l19.061,55.678H302.9L302.25,319l-34.888-1.069L251.3,266.17Z" transform="translate(-85.082 -191.928)"/><path class="c" d="M228.128,286.815c.568,2.284-.409,4.514-2.191,4.99s-3.67-.99-4.237-3.274.409-4.514,2.178-4.99S227.56,284.532,228.128,286.815Z" transform="translate(-77.409 -186.397)"/><path class="d" d="M361.393,295.118a7.92,7.92,0,0,0-5.346-1.531c0-1.043,0-1.676,0-1.676H326.783s-.911,19.285,13.847,19.972c6.6.3,10.4-2.64,12.566-6.389a14.291,14.291,0,0,0,3.3.409,7.7,7.7,0,0,0,4.607-1.32,5.782,5.782,0,0,0,2.191-4.937,5.676,5.676,0,0,0-1.9-4.528Zm-1.993,7.168c-1.32.937-3.485.792-4.937.528a26.136,26.136,0,0,0,1.426-6.336,5.505,5.505,0,0,1,3.656.845,2.865,2.865,0,0,1,.884,2.336,3.036,3.036,0,0,1-1.043,2.627Z" transform="translate(-43.733 -183.691)"/><path class="b" d="M353.366,300.6a3.878,3.878,0,0,1-.7-.818,7.828,7.828,0,0,1-1.2-2.851,8.25,8.25,0,0,1,.436-4.871,16.1,16.1,0,0,1,4.092-5,12.038,12.038,0,0,0,3.7-6.6,11.339,11.339,0,0,0-1.571-8.369,11.972,11.972,0,0,0-3.247-3.379,17.306,17.306,0,0,0-4.514-2.02,13.649,13.649,0,0,1-4.765-2.4,6.744,6.744,0,0,1-1.69-2.231,4.356,4.356,0,0,1-.356-2.864l.119-.4.436.436a4.527,4.527,0,0,0-2.64,3.96,9.24,9.24,0,0,0,1.082,4.831c.726,1.518,1.624,2.944,2.27,4.488a9.464,9.464,0,0,1,.924,4.831,6.825,6.825,0,0,1-2.165,4.158,13.581,13.581,0,0,1-3.67,2.442c-2.561,1.162-5.082,1.848-7.088,3.049a10.019,10.019,0,0,0-4.118,4.567,11.168,11.168,0,0,0-.99,4.607,12.631,12.631,0,0,0,.766,3.96s0-.079-.132-.238a4.6,4.6,0,0,1-.317-.726,9.56,9.56,0,0,1-.581-3.01,11.169,11.169,0,0,1,.911-4.778,10.243,10.243,0,0,1,4.211-4.818,70.5,70.5,0,0,1,7.1-3.155,12.9,12.9,0,0,0,3.472-2.35,6.23,6.23,0,0,0,1.967-3.8,8.831,8.831,0,0,0-.884-4.5c-.634-1.478-1.531-2.9-2.284-4.475a9.6,9.6,0,0,1-1.148-5.188,6.282,6.282,0,0,1,.9-2.64,4.383,4.383,0,0,1,2.218-1.822l.62-.211-.185.647-.092.33a4.792,4.792,0,0,0,1.822,4.435,13.2,13.2,0,0,0,4.528,2.257,18.047,18.047,0,0,1,4.673,2.125,12.185,12.185,0,0,1,3.406,3.577,11.88,11.88,0,0,1,1.6,8.818,12.567,12.567,0,0,1-3.96,6.785,15.84,15.84,0,0,0-4.079,4.818,8.065,8.065,0,0,0-.528,4.66A8.857,8.857,0,0,0,353.366,300.6Z" transform="translate(-43.52 -194.411)"/><path class="b" d="M142.842,273.939l-.172-12.619,44.234,3.749,1.254,11.26Z" transform="translate(-102.647 -193.48)"/><path class="g" d="M146.663,274.1a29.674,29.674,0,0,1-.594-6.217,29.042,29.042,0,0,1,.106-6.244,28.908,28.908,0,0,1,.581,6.217A28.393,28.393,0,0,1,146.663,274.1Z" transform="translate(-101.598 -193.377)"/><path class="g" d="M147.821,261.75a28.092,28.092,0,0,1,.475,6.191,27.311,27.311,0,0,1-.211,6.217,29.147,29.147,0,0,1-.475-6.2,28.157,28.157,0,0,1,.211-6.2Z" transform="translate(-101.093 -193.342)"/><path class="c" d="M150.8,266c7.709.845,16.764,1.32,24.605,2.033" transform="translate(-100.046 -191.982)"/><path class="g" d="M175.405,268a20.18,20.18,0,0,1-3.617-.066c-2.244-.106-5.28-.3-8.712-.554s-6.481-.541-8.7-.805a17.873,17.873,0,0,1-3.577-.607,19.375,19.375,0,0,1,3.617.119l8.7.607c3.406.251,6.481.515,8.7.766a18.153,18.153,0,0,1,3.59.541Z" transform="translate(-100.046 -192.004)"/><path class="g" d="M172.054,275.146a46.6,46.6,0,0,1-.554-11.286A46.6,46.6,0,0,1,172.054,275.146Z" transform="translate(-93.461 -192.667)"/><path class="g" d="M174.289,275.262a23.76,23.76,0,0,1-.9-5.623,23.352,23.352,0,0,1-.211-5.689,24.715,24.715,0,0,1,.9,5.623A24.171,24.171,0,0,1,174.289,275.262Z" transform="translate(-92.911 -192.638)"/><path class="c" d="M155.77,268.1c4.871.33,8.58.568,12.461.66" transform="translate(-98.455 -191.31)"/><path class="g" d="M168.231,268.806a27.716,27.716,0,0,1-6.244,0,29.16,29.16,0,0,1-6.217-.673,27.8,27.8,0,0,1,6.244,0A29.16,29.16,0,0,1,168.231,268.806Z" transform="translate(-98.455 -191.356)"/><path class="d" d="M149.571,310.406l-1.2-12.566,44.379.079,2.416,12.329Z" transform="translate(-100.823 -181.793)"/><path class="e" d="M149.571,310.406l-1.2-12.566,44.379.079,2.416,12.329Z" transform="translate(-100.823 -181.793)"/><rect class="b" width="2.27" height="27.76" transform="translate(57.671 123.229) rotate(-89.9)"/><path class="b" d="M144.8,301.686,143.73,289.12l44.379.541,2.072,11.154Z" transform="translate(-102.308 -184.583)"/><path class="c" d="M143.84,290.41l.7,8.488,43.164-.436-1.373-7.762Z" transform="translate(-102.273 -184.171)"/><path class="b" d="M183.914,293.461a6.784,6.784,0,0,1-1.558.106h-4.25c-3.59,0-8.54,0-14.005-.132s-10.415-.224-14.005-.343l-4.237-.185a6.244,6.244,0,0,1-1.558-.158,6.6,6.6,0,0,1,1.558-.106h4.25c3.577,0,8.527,0,14.005.132s10.415.224,14.005.343l4.237.185a6.239,6.239,0,0,1,1.558.158Z" transform="translate(-102.126 -183.459)"/><path class="b" d="M183.984,294.1a6.425,6.425,0,0,1-1.571.158l-4.277.172c-3.6.119-8.593.224-14.1.3s-10.56.106-14.111.092h-4.277a6.313,6.313,0,0,1-1.571-.119,8.668,8.668,0,0,1,1.571-.158l4.277-.172c3.6-.106,8.593-.211,14.1-.29s10.494-.119,14.111-.106h4.277A7.918,7.918,0,0,1,183.984,294.1Z" transform="translate(-102.196 -183.029)"/><path class="g" d="M145.242,292.6l-.832-12.593,44.366,1.4,1.848,11.181Z" transform="translate(-102.09 -187.499)"/><path class="c" d="M146.565,290.593l43.178-.62-1.2-7.841-42.782-.792Z" transform="translate(-101.658 -187.073)"/><path class="d" d="M146.059,283.246l-.409-12.606,44.286,2.891,1.478,11.233Z" transform="translate(-101.694 -190.497)"/><rect class="b" width="2.275" height="27.81" transform="matrix(0.06, -0.998, 0.998, 0.06, 53.3, 85.781)"/><path class="b" d="M188.948,284.447a8.8,8.8,0,0,1-1.69.132l-4.62.132c-3.96.079-9.24.132-15.233.158s-11.339,0-15.246,0l-4.607-.092a7.682,7.682,0,0,1-1.7-.132,8.792,8.792,0,0,1,1.69-.132l4.62-.132c3.96-.079,9.24-.132,15.246-.158s11.339,0,15.233,0l4.62.092A7.483,7.483,0,0,1,188.948,284.447Z" transform="translate(-101.63 -186.154)"/><path class="b" d="M189.412,286.428a8.29,8.29,0,0,1-1.716.106H183.05c-3.96,0-9.359,0-15.352-.119s-11.4-.185-15.339-.3l-4.646-.172a10.005,10.005,0,0,1-1.7-.158,7.329,7.329,0,0,1,1.7-.119h4.646c3.96,0,9.359,0,15.352.106s11.418.2,15.352.317l4.646.172A7.433,7.433,0,0,1,189.412,286.428Z" transform="translate(-101.578 -185.693)"/></g></g></svg>