<svg width="1011" height="310" viewBox="0 0 1011 310" fill="none" xmlns="http://www.w3.org/2000/svg">
<g id="MAIN LOGO 1.1 1" clip-path="url(#clip0)">
<g id="d">
<path id="Vector" opacity="0.97" d="M717.095 94.3954C730.477 94.3954 743.311 100.799 752.774 112.198C762.236 123.596 767.552 139.056 767.552 155.176C767.552 171.296 762.236 186.756 752.774 198.154C743.311 209.553 730.477 215.956 717.095 215.956H666.629V94.3954H717.095ZM717.095 193.165C725.455 193.165 733.472 189.165 739.383 182.044C745.294 174.924 748.615 165.266 748.615 155.196C748.615 145.126 745.294 135.468 739.383 128.348C733.472 121.227 725.455 117.227 717.095 117.227H685.575V193.165H717.095Z" fill="#DFDFDF"/>
</g>
<g id="e">
<path id="Vector_2" opacity="0.97" d="M802.183 193.165H871.569V215.956H783.263V94.3954H871.569V117.187H802.183V143.785H865.224L858.936 166.617H802.183V193.165Z" fill="#DFDFDF"/>
</g>
<g id="v">
<path id="Vector_3" opacity="0.97" d="M900.842 94.3954L940.889 178.047L980.945 94.3954H1002.77L940.889 223.63L879.018 94.3954H900.842Z" fill="#DFDFDF"/>
</g>
<g id="w">
<path id="Vector_4" d="M419.784 262.538H425.06L427.009 285.52C427.25 288.727 427.407 290.845 427.523 294.512H427.673C428.22 290.825 428.618 288.697 429.224 285.52L432.052 272.271H436.092L438.829 285.52C439.46 288.647 439.816 290.775 440.372 294.512H440.563C440.72 290.805 440.795 288.687 441.036 285.52L442.91 262.538H447.887L443.441 300.647H437.759L434.989 286.239C434.526 283.932 434.167 281.598 433.91 279.245H433.761C433.463 281.563 433.181 283.851 432.724 286.239L429.97 300.647H424.405L419.784 262.538Z" fill="#DFDFDF"/>
</g>
<g id="e_2">
<path id="Vector_5" d="M453.552 262.538H473.46V267.534H458.397V278.336H471.146V283.252H458.397V295.761H473.949V300.677H453.552V262.538Z" fill="#DFDFDF"/>
</g>
<path id="e2" d="M511.458 262.538H531.366V267.534H516.303V278.336H529.052V283.252H516.303V295.761H531.855V300.677H511.458V262.538Z" fill="#DFDFDF"/>
<g id="q">
<path id="Vector_6" d="M537.371 281.433C537.371 269.023 542.423 261.879 549.656 261.879C556.889 261.879 561.982 269.023 561.982 281.433C561.982 294.053 556.922 301.337 549.698 301.337C542.473 301.337 537.371 294.053 537.371 281.433ZM556.939 281.433C556.939 272.29 554.044 266.985 549.656 266.985C545.268 266.985 542.365 272.29 542.365 281.433C542.365 291.205 545.268 296.511 549.656 296.511C554.044 296.511 556.939 291.205 556.939 281.433V281.433ZM547.193 300.627L552.211 300.098C553.115 303.795 555.778 305.463 559.038 305.463C559.866 305.461 560.685 305.264 561.451 304.884L562.281 309.42C561.067 310.042 559.759 310.355 558.44 310.34C552.584 310.34 548.827 306.183 547.193 300.627V300.627Z" fill="#DFDFDF"/>
</g>
<g id="u">
<path id="Vector_7" d="M567.789 286.179V262.538H572.674V286.519C572.674 293.513 575.163 296.251 578.696 296.251C582.23 296.251 584.818 293.503 584.818 286.519V262.538H589.488V286.139C589.488 296.791 585.249 301.297 578.705 301.297C572.16 301.297 567.789 296.83 567.789 286.179Z" fill="#DFDFDF"/>
</g>
<g id="i">
<path id="Vector_8" d="M597.409 295.721H605.115V267.534H597.393V262.538H617.69V267.534H609.967V295.761H617.69V300.677H597.409V295.721Z" fill="#DFDFDF"/>
</g>
<g id="p">
<path id="Vector_9" d="M626.615 262.538H636.569C643.52 262.538 648.439 265.416 648.439 274.009C648.439 282.302 643.462 286.079 636.569 286.079H631.443V300.597H626.599L626.615 262.538ZM636.121 281.383C641.206 281.383 643.653 279.035 643.653 274.009C643.653 268.983 641.164 267.225 636.121 267.225H631.459V281.423L636.121 281.383Z" fill="#DFDFDF"/>
</g>
<g id="s">
<path id="Vector_10" d="M682.962 295.741L685.807 291.745C688.235 294.572 691.464 296.182 694.84 296.251C698.838 296.251 701.061 294.033 701.061 290.975C701.061 287.248 698.755 286.219 695.62 284.62L691.165 282.272C687.939 280.734 684.397 277.926 684.397 272.281C684.397 266.345 688.826 261.859 695.072 261.859C698.781 261.821 702.355 263.536 705.026 266.635L702.538 270.362C700.44 268.112 697.715 266.899 694.906 266.965C691.589 266.965 689.341 268.823 689.341 271.961C689.341 275.268 692.07 276.477 694.848 277.776L699.137 280.044C703.102 281.913 706.063 284.69 706.063 290.256C706.063 296.361 701.783 301.347 694.616 301.347C690.272 301.389 686.088 299.376 682.962 295.741V295.741Z" fill="#DFDFDF"/>
</g>
<g id="m">
<path id="Vector_11" d="M712.184 262.538H717.767L721.848 278.076L723.266 284.001H723.465L724.842 278.076L728.99 262.538H734.514V300.597H730.093V283.521C730.093 279.664 730.615 272.45 730.839 268.983H730.698L728.749 277.127L724.793 290.516H721.748L717.817 277.047L715.876 268.903H715.76C716.066 272.37 716.506 279.585 716.506 283.441V300.607H712.184V262.538Z" fill="#DFDFDF"/>
</g>
<g id="a">
<path id="Vector_12" d="M749.495 262.538H755.135L765.578 300.597H760.402L755.309 279.874C754.281 275.748 753.252 271.501 752.34 267.195H752.149C751.195 271.501 750.216 275.748 749.188 279.874L744.02 300.597H739.043L749.495 262.538ZM744.924 285.04H759.581V289.696H744.924V285.04Z" fill="#DFDFDF"/>
</g>
<g id="r">
<path id="Vector_13" d="M771.202 262.538H781.43C787.908 262.538 792.794 265.326 792.794 273.529C792.794 281.433 787.908 285.11 781.43 285.11H776.088V300.567H771.202V262.538ZM780.849 280.524C785.461 280.524 787.983 278.216 787.983 273.629C787.983 269.043 785.494 267.295 780.849 267.295H776.088V280.524H780.849ZM784.117 280.324L793.864 300.667H788.43L780.509 283.681L784.117 280.324Z" fill="#DFDFDF"/>
</g>
<g id="t">
<path id="Vector_14" d="M807.799 267.534H797.596V262.538H822.846V267.534H812.643V300.677H807.799V267.534Z" fill="#DFDFDF"/>
</g>
<g id="n">
<path id="Vector_15" d="M828.453 262.538H833.637L842.861 285.16L845.805 293.154H845.922C845.731 289.317 845.275 284.76 845.275 280.634V262.538H849.886V300.597H844.71L835.487 277.966L832.542 269.972H832.393C832.584 273.969 833.04 278.276 833.04 282.362V300.607H828.42L828.453 262.538Z" fill="#DFDFDF"/>
</g>
<g id="e_3">
<path id="Vector_16" d="M858.878 262.538H878.786V267.534H863.731V278.336H876.471V283.252H863.731V295.761H879.275V300.677H858.878V262.538Z" fill="#DFDFDF"/>
</g>
<g id="s1">
<path id="Vector_17" d="M885.629 295.741L888.474 291.745C890.899 294.577 894.13 296.188 897.507 296.251C901.505 296.251 903.72 294.033 903.72 290.975C903.72 287.248 901.414 286.219 898.287 284.62L893.824 282.272C890.606 280.734 887.064 277.926 887.064 272.281C887.064 266.345 891.493 261.859 897.731 261.859C901.439 261.824 905.012 263.539 907.685 266.635L905.196 270.362C903.1 268.109 900.374 266.895 897.565 266.965C894.247 266.965 892.008 268.823 892.008 271.961C892.008 275.268 894.728 276.477 897.515 277.776L901.804 280.044C905.76 281.913 908.722 284.69 908.722 290.256C908.722 296.361 904.442 301.347 897.275 301.347C892.934 301.386 888.753 299.373 885.629 295.741Z" fill="#DFDFDF"/>
</g>
<g id="s2">
<path id="Vector_18" d="M914.578 295.741L917.423 291.745C919.851 294.572 923.08 296.182 926.456 296.251C930.454 296.251 932.677 294.033 932.677 290.975C932.677 287.248 930.371 286.219 927.236 284.62L922.806 282.252C919.58 280.714 916.038 277.906 916.038 272.26C916.038 266.325 920.467 261.839 926.705 261.839C930.414 261.802 933.987 263.517 936.659 266.615L934.17 270.342C932.07 268.09 929.342 266.876 926.531 266.945C923.213 266.945 920.973 268.803 920.973 271.941C920.973 275.248 923.702 276.457 926.481 277.756L930.769 280.024C934.734 281.893 937.696 284.67 937.696 290.236C937.696 296.341 933.407 301.327 926.249 301.327C921.901 301.379 917.71 299.373 914.578 295.741V295.741Z" fill="#DFDFDF"/>
</g>
<g id="o">
<path id="Vector_19" opacity="0.97" d="M406.396 221.362C405.443 225.089 403.974 226.278 400.59 225.758C392.942 224.569 387.318 221.981 381.512 216.766C378.7 214.198 378.012 212.04 379.098 208.183L378.866 208.403C388.065 217.505 396.484 220.623 406.463 221.772L406.396 221.362Z" fill="#1C75BC"/>
<path id="Vector_20" opacity="0.97" d="M403.137 233.162C396.725 238.558 391.408 234.551 386.837 232.443C382.491 230.445 376.361 228.346 374.86 219.454C384.473 226.568 392.81 230.564 403.137 233.162Z" fill="#1C75BC"/>
<path id="Vector_21" opacity="0.97" d="M381.106 234.561L389.923 238.828L390.197 240.576C388.057 241.116 385.552 242.725 383.893 241.895C382.234 241.066 381.263 237.789 380.002 235.59L381.106 234.561Z" fill="#1C75BC"/>
<g id="Group" opacity="0.97">
<path id="Vector_22" opacity="0.97" d="M386.804 95.4046C382.754 91.5648 380.06 86.0212 379.264 79.8873C378.825 76.7299 374.826 78.0688 375.266 81.2162C376.218 88.2038 379.285 94.5188 383.876 98.9418C385.941 100.94 388.894 97.423 386.804 95.4046V95.4046Z" fill="#1C75BC"/>
</g>
<g id="Group_2" opacity="0.97">
<path id="Vector_23" opacity="0.97" d="M436.465 95.3647C438.788 94.9051 439.949 90.6485 440.612 88.3704C441.528 84.7936 442.123 81.1089 442.388 77.3793C442.719 74.1919 438.572 74.2219 438.24 77.3793C438.027 79.8222 437.681 82.2455 437.203 84.6334C436.971 85.7425 435.943 90.4087 435.345 90.5286C432.724 91.0482 433.836 95.8643 436.448 95.3447L436.465 95.3647Z" fill="#1C75BC"/>
</g>
<path id="Vector_24" opacity="0.97" d="M449.214 112.211C444.594 106.465 439.045 101.92 432.911 98.8564C426.777 95.7924 420.186 94.2742 413.546 94.3955C403.567 94.3912 393.81 97.9531 385.511 104.631C377.212 111.308 370.745 120.801 366.926 131.908C363.108 143.014 362.11 155.236 364.06 167.026C366.009 178.816 370.819 189.644 377.879 198.141C379.106 199.63 380.367 201.019 381.67 202.318C386.945 200.989 392.345 196.742 395.032 185.931C393.693 184.747 392.429 183.444 391.25 182.034C386.833 176.725 383.823 169.956 382.602 162.585C381.381 155.213 382.004 147.571 384.392 140.627C386.78 133.682 390.825 127.748 396.015 123.575C401.205 119.402 407.307 117.179 413.546 117.187C421.906 117.187 429.923 121.187 435.835 128.308C441.746 135.428 445.067 145.086 445.067 155.156C445.067 165.226 441.746 174.884 435.835 182.004C429.923 189.125 421.906 193.125 413.546 193.125C413.082 193.125 412.634 193.075 412.178 193.055C408.652 198.361 405.418 206.044 406.927 215.437C409.129 215.756 411.345 215.916 413.563 215.916C423.543 215.921 433.299 212.359 441.598 205.681C449.897 199.004 456.365 189.511 460.183 178.404C464.002 167.298 464.999 155.076 463.05 143.286C461.1 131.496 456.291 120.667 449.231 112.171L449.214 112.211Z" fill="#27AAE1"/>
</g>
<g id="dot">
<path id="Vector_25" d="M601.938 214.977C608.457 214.977 613.742 208.611 613.742 200.759C613.742 192.906 608.457 186.54 601.938 186.54C595.419 186.54 590.135 192.906 590.135 200.759C590.135 208.611 595.419 214.977 601.938 214.977Z" fill="#DFDFDF"/>
</g>
<g id="n_2">
<path id="Vector_26" opacity="0.97" d="M498.643 133.294V215.956H479.714V78.2886L561.717 177.058V94.3954H580.637V232.063L498.643 133.294Z" fill="#27AAE1"/>
<path id="Vector_27" d="M568.427 94.3855H580.596L580.629 232.053L568.427 217.395V94.3855Z" fill="#DFDFDF"/>
</g>
<g id="main">
<path id="Vector_28" opacity="0.97" d="M41.628 57.87H28.7314C25.571 57.87 23.009 60.6055 23.009 63.98V280.17C23.009 283.544 25.571 286.28 28.7314 286.28H41.628C44.7885 286.28 47.3505 283.544 47.3505 280.17V63.98C47.3505 60.6055 44.7885 57.87 41.628 57.87Z" fill="#27AAE1"/>
<path id="Vector_29" opacity="0.97" d="M30.3236 57.87H42.574C43.8408 57.87 45.0557 58.4073 45.9515 59.3638C46.8472 60.3202 47.3505 61.6174 47.3505 62.97V281.18C47.3505 282.533 46.8472 283.83 45.9515 284.786C45.0557 285.743 43.8408 286.28 42.574 286.28H30.3236V57.87Z" fill="#DFDFDF"/>
<path id="Vector_30" d="M224.981 165.75L221.103 170.4C220.34 171.398 219.924 172.647 219.924 173.935C219.924 175.223 220.34 176.472 221.103 177.47L225.065 182.22C225.347 182.579 225.698 182.871 226.093 183.074C226.489 183.278 226.921 183.389 227.36 183.4H273.851C275.724 183.4 277.316 181.29 277.316 178.69V169.32C277.316 166.72 275.762 164.61 273.851 164.61H227.275C226.839 164.616 226.409 164.721 226.014 164.918C225.618 165.114 225.266 165.398 224.981 165.75Z" fill="#DFDFDF"/>
<path id="Vector_31" opacity="0.97" d="M214.444 176.97L291.833 259.08C292.195 259.45 292.483 259.894 292.681 260.385C292.879 260.877 292.982 261.405 292.985 261.94V282.45C292.985 286.45 287.712 288.3 284.893 285.31L178.171 172.47L178.302 172.33L178.171 172.19L284.875 59.32C287.684 56.32 292.967 58.2 292.967 62.18V86.32C292.962 86.8531 292.858 87.3798 292.66 87.8692C292.462 88.3586 292.175 88.8009 291.815 89.17L214.444 171.28C214.084 171.647 213.796 172.088 213.6 172.577C213.404 173.067 213.303 173.593 213.303 174.125C213.303 174.657 213.404 175.184 213.6 175.673C213.796 176.162 214.084 176.603 214.444 176.97V176.97Z" fill="#27AAE1"/>
<path id="Vector_32" opacity="0.97" d="M267.361 60.61H250.624C250.364 60.6147 250.105 60.6347 249.847 60.67L230.085 61.06L176.532 130.54C175.809 130.63 175.077 130.562 174.38 130.341C173.683 130.119 173.035 129.748 172.477 129.25L168.075 124.86L118.895 61.06L102.524 60.74C102.145 60.6562 101.759 60.6126 101.372 60.61H81.5729C77.8266 60.61 75.7193 64.05 78.0513 66.38L174.34 162.57L174.434 162.45L174.528 162.57L270.817 66.38C273.214 64.05 271.116 60.61 267.361 60.61Z" fill="#27AAE1"/>
<path id="Vector_33" opacity="0.97" d="M267.361 60.61H250.624C250.364 60.6147 250.105 60.6347 249.847 60.67L236.276 60.9C234.318 60.9327 232.387 61.3882 230.599 62.2389C228.811 63.0896 227.202 64.318 225.871 65.85L176.532 122.53C175.093 122.697 173.648 122.287 172.477 121.38L168.075 117.5L123.119 65.85C121.788 64.317 120.18 63.0881 118.391 62.2373C116.603 61.3865 114.672 60.9316 112.714 60.9L102.533 60.72C102.153 60.6478 101.768 60.611 101.381 60.61H81.5729C77.8266 60.61 75.7193 63.61 78.0513 65.72L174.34 150.89L174.434 150.78L174.528 150.89L270.873 65.72C273.214 63.65 271.116 60.61 267.361 60.61Z" fill="#DFDFDF"/>
<path id="Vector_34" opacity="0.97" d="M134.532 177.127L57.1614 259.237C56.7984 259.606 56.5085 260.05 56.309 260.541C56.1095 261.032 56.0044 261.561 56 262.097V282.607C56 286.607 61.2729 288.457 64.092 285.467L170.805 172.627L170.665 172.487L170.805 172.347L64.092 59.4769C61.2823 56.4769 56 58.3569 56 62.3369V86.4769C56.0057 87.0106 56.1114 87.5378 56.3108 88.0272C56.5103 88.5167 56.7995 88.9586 57.1614 89.3269L134.532 171.437C134.892 171.804 135.179 172.245 135.376 172.734C135.572 173.223 135.673 173.75 135.673 174.282C135.673 174.814 135.572 175.34 135.376 175.829C135.179 176.318 134.892 176.76 134.532 177.127V177.127Z" fill="#27AAE1"/>
<path id="Vector_35" d="M235.405 43H276.38C295.111 43 310.218 59.95 310.218 80.85V263.12C310.218 284.02 295.074 300.97 276.38 300.97H272.296C270.614 300.965 268.949 300.593 267.406 299.876C265.863 299.159 264.474 298.112 263.324 296.8C247.908 279.44 189.335 213.47 182.498 205.54C175.296 197.23 166.333 202.32 164.815 203.32C164.664 203.412 164.525 203.527 164.403 203.66L76.019 295.83C72.9142 299.103 68.7309 300.945 64.368 300.96H43.8384C25.1537 300.96 10 284.01 10 263.11V80.85C10 59.95 25.1537 43 43.8384 43H111.15C113.486 43.0076 115.793 43.5467 117.918 44.5813C120.044 45.6159 121.938 47.1223 123.475 49L165.153 99.75L165.265 99.88C166.014 100.67 173.694 108.29 182.929 99.97C183.049 99.8661 183.159 99.7488 183.256 99.62L221.085 50.32C222.815 48.0441 224.997 46.2068 227.474 44.9409C229.95 43.6751 232.659 43.0121 235.405 43V43Z" stroke="#DFDFDF" stroke-width="2.5" stroke-miterlimit="10"/>
</g>
</g>
<defs>
<clipPath id="clip0">
<rect width="1011" height="310" fill="white"/>
</clipPath>
</defs>
</svg>
